<?xml version="1.0" encoding="UTF-8"?>
<svg xmlns="http://www.w3.org/2000/svg" xmlns:xlink="http://www.w3.org/1999/xlink" width="504pt" height="432pt" viewBox="0 0 504 432">
<defs>
<g>
<g id="glyph-0-0">
<path d="M 0.625 0 L 0.625 -13.78125 L 11.546875 -13.78125 L 11.546875 0 Z M 9.828125 -1.71875 L 9.828125 -12.046875 L 2.34375 -12.046875 L 2.34375 -1.71875 Z M 9.828125 -1.71875 "/>
</g>
<g id="glyph-0-1">
<path d="M 5.1875 -13.421875 C 6.925781 -13.421875 8.1875 -12.707031 8.96875 -11.28125 C 9.5625 -10.175781 9.859375 -8.660156 9.859375 -6.734375 C 9.859375 -4.910156 9.585938 -3.398438 9.046875 -2.203125 C 8.253906 -0.492188 6.96875 0.359375 5.1875 0.359375 C 3.570312 0.359375 2.367188 -0.335938 1.578125 -1.734375 C 0.921875 -2.898438 0.59375 -4.46875 0.59375 -6.4375 C 0.59375 -7.96875 0.789062 -9.28125 1.1875 -10.375 C 1.925781 -12.40625 3.257812 -13.421875 5.1875 -13.421875 Z M 5.171875 -1.171875 C 6.046875 -1.171875 6.742188 -1.554688 7.265625 -2.328125 C 7.785156 -3.109375 8.046875 -4.554688 8.046875 -6.671875 C 8.046875 -8.191406 7.859375 -9.441406 7.484375 -10.421875 C 7.109375 -11.410156 6.378906 -11.90625 5.296875 -11.90625 C 4.304688 -11.90625 3.578125 -11.4375 3.109375 -10.5 C 2.648438 -9.570312 2.421875 -8.195312 2.421875 -6.375 C 2.421875 -5.007812 2.570312 -3.910156 2.875 -3.078125 C 3.320312 -1.804688 4.085938 -1.171875 5.171875 -1.171875 Z M 5.171875 -1.171875 "/>
</g>
<g id="glyph-0-2">
<path d="M 0.59375 0 C 0.65625 -1.15625 0.894531 -2.160156 1.3125 -3.015625 C 1.726562 -3.867188 2.539062 -4.648438 3.75 -5.359375 L 5.546875 -6.390625 C 6.359375 -6.859375 6.925781 -7.257812 7.25 -7.59375 C 7.757812 -8.113281 8.015625 -8.707031 8.015625 -9.375 C 8.015625 -10.15625 7.78125 -10.773438 7.3125 -11.234375 C 6.84375 -11.691406 6.21875 -11.921875 5.4375 -11.921875 C 4.28125 -11.921875 3.476562 -11.484375 3.03125 -10.609375 C 2.800781 -10.140625 2.671875 -9.488281 2.640625 -8.65625 L 0.921875 -8.65625 C 0.941406 -9.832031 1.160156 -10.789062 1.578125 -11.53125 C 2.304688 -12.820312 3.597656 -13.46875 5.453125 -13.46875 C 6.984375 -13.46875 8.101562 -13.050781 8.8125 -12.21875 C 9.53125 -11.394531 9.890625 -10.472656 9.890625 -9.453125 C 9.890625 -8.378906 9.507812 -7.457031 8.75 -6.6875 C 8.3125 -6.25 7.523438 -5.710938 6.390625 -5.078125 L 5.109375 -4.375 C 4.492188 -4.03125 4.015625 -3.707031 3.671875 -3.40625 C 3.046875 -2.863281 2.648438 -2.257812 2.484375 -1.59375 L 9.8125 -1.59375 L 9.8125 0 Z M 0.59375 0 "/>
</g>
<g id="glyph-0-3">
<path d="M 6.34375 -4.75 L 6.34375 -10.84375 L 2.046875 -4.75 Z M 6.375 0 L 6.375 -3.28125 L 0.484375 -3.28125 L 0.484375 -4.9375 L 6.640625 -13.46875 L 8.0625 -13.46875 L 8.0625 -4.75 L 10.046875 -4.75 L 10.046875 -3.28125 L 8.0625 -3.28125 L 8.0625 0 Z M 6.375 0 "/>
</g>
<g id="glyph-0-4">
<path d="M 5.609375 -13.484375 C 7.109375 -13.484375 8.15625 -13.09375 8.75 -12.3125 C 9.34375 -11.539062 9.640625 -10.738281 9.640625 -9.90625 L 7.96875 -9.90625 C 7.863281 -10.4375 7.703125 -10.851562 7.484375 -11.15625 C 7.078125 -11.71875 6.460938 -12 5.640625 -12 C 4.703125 -12 3.953125 -11.5625 3.390625 -10.6875 C 2.835938 -9.820312 2.53125 -8.578125 2.46875 -6.953125 C 2.851562 -7.515625 3.335938 -7.9375 3.921875 -8.21875 C 4.460938 -8.46875 5.066406 -8.59375 5.734375 -8.59375 C 6.859375 -8.59375 7.835938 -8.234375 8.671875 -7.515625 C 9.515625 -6.796875 9.9375 -5.722656 9.9375 -4.296875 C 9.9375 -3.078125 9.535156 -2 8.734375 -1.0625 C 7.941406 -0.125 6.8125 0.34375 5.34375 0.34375 C 4.082031 0.34375 2.992188 -0.128906 2.078125 -1.078125 C 1.171875 -2.035156 0.71875 -3.640625 0.71875 -5.890625 C 0.71875 -7.566406 0.921875 -8.984375 1.328125 -10.140625 C 2.109375 -12.367188 3.535156 -13.484375 5.609375 -13.484375 Z M 5.5 -1.15625 C 6.382812 -1.15625 7.046875 -1.453125 7.484375 -2.046875 C 7.921875 -2.640625 8.140625 -3.34375 8.140625 -4.15625 C 8.140625 -4.84375 7.941406 -5.5 7.546875 -6.125 C 7.160156 -6.75 6.445312 -7.0625 5.40625 -7.0625 C 4.6875 -7.0625 4.050781 -6.816406 3.5 -6.328125 C 2.957031 -5.847656 2.6875 -5.125 2.6875 -4.15625 C 2.6875 -3.3125 2.929688 -2.597656 3.421875 -2.015625 C 3.921875 -1.441406 4.613281 -1.15625 5.5 -1.15625 Z M 5.5 -1.15625 "/>
</g>
<g id="glyph-0-5">
<path d="M 5.21875 -7.796875 C 5.96875 -7.796875 6.550781 -8.003906 6.96875 -8.421875 C 7.382812 -8.835938 7.59375 -9.332031 7.59375 -9.90625 C 7.59375 -10.40625 7.390625 -10.863281 6.984375 -11.28125 C 6.585938 -11.707031 5.984375 -11.921875 5.171875 -11.921875 C 4.359375 -11.921875 3.769531 -11.707031 3.40625 -11.28125 C 3.039062 -10.863281 2.859375 -10.375 2.859375 -9.8125 C 2.859375 -9.1875 3.09375 -8.691406 3.5625 -8.328125 C 4.03125 -7.972656 4.582031 -7.796875 5.21875 -7.796875 Z M 5.328125 -1.15625 C 6.109375 -1.15625 6.753906 -1.363281 7.265625 -1.78125 C 7.785156 -2.207031 8.046875 -2.835938 8.046875 -3.671875 C 8.046875 -4.546875 7.78125 -5.207031 7.25 -5.65625 C 6.71875 -6.101562 6.035156 -6.328125 5.203125 -6.328125 C 4.398438 -6.328125 3.742188 -6.097656 3.234375 -5.640625 C 2.722656 -5.179688 2.46875 -4.546875 2.46875 -3.734375 C 2.46875 -3.035156 2.695312 -2.429688 3.15625 -1.921875 C 3.625 -1.410156 4.347656 -1.15625 5.328125 -1.15625 Z M 2.921875 -7.15625 C 2.453125 -7.351562 2.085938 -7.585938 1.828125 -7.859375 C 1.335938 -8.359375 1.09375 -9.007812 1.09375 -9.8125 C 1.09375 -10.8125 1.453125 -11.671875 2.171875 -12.390625 C 2.898438 -13.109375 3.929688 -13.46875 5.265625 -13.46875 C 6.546875 -13.46875 7.550781 -13.128906 8.28125 -12.453125 C 9.019531 -11.773438 9.390625 -10.984375 9.390625 -10.078125 C 9.390625 -9.234375 9.175781 -8.550781 8.75 -8.03125 C 8.507812 -7.738281 8.140625 -7.453125 7.640625 -7.171875 C 8.191406 -6.910156 8.628906 -6.617188 8.953125 -6.296875 C 9.546875 -5.671875 9.84375 -4.859375 9.84375 -3.859375 C 9.84375 -2.671875 9.445312 -1.664062 8.65625 -0.84375 C 7.863281 -0.0195312 6.738281 0.390625 5.28125 0.390625 C 3.976562 0.390625 2.875 0.0351562 1.96875 -0.671875 C 1.070312 -1.390625 0.625 -2.421875 0.625 -3.765625 C 0.625 -4.554688 0.816406 -5.238281 1.203125 -5.8125 C 1.585938 -6.394531 2.160156 -6.84375 2.921875 -7.15625 Z M 2.921875 -7.15625 "/>
</g>
<g id="glyph-0-6">
<path d="M 1.84375 -9.5 L 1.84375 -10.796875 C 3.0625 -10.921875 3.910156 -11.117188 4.390625 -11.390625 C 4.867188 -11.671875 5.226562 -12.332031 5.46875 -13.375 L 6.796875 -13.375 L 6.796875 0 L 5 0 L 5 -9.5 Z M 1.84375 -9.5 "/>
</g>
<g id="glyph-0-7">
<path d="M 1.890625 -13.78125 L 3.765625 -13.78125 L 3.765625 0 L 1.890625 0 Z M 1.890625 -13.78125 "/>
</g>
<g id="glyph-0-8">
<path d="M 1.234375 -10.046875 L 2.84375 -10.046875 L 2.84375 -8.609375 C 3.3125 -9.203125 3.8125 -9.625 4.34375 -9.875 C 4.875 -10.132812 5.46875 -10.265625 6.125 -10.265625 C 7.550781 -10.265625 8.515625 -9.769531 9.015625 -8.78125 C 9.285156 -8.226562 9.421875 -7.445312 9.421875 -6.4375 L 9.421875 0 L 7.703125 0 L 7.703125 -6.328125 C 7.703125 -6.941406 7.613281 -7.4375 7.4375 -7.8125 C 7.132812 -8.4375 6.585938 -8.75 5.796875 -8.75 C 5.398438 -8.75 5.070312 -8.707031 4.8125 -8.625 C 4.351562 -8.488281 3.945312 -8.210938 3.59375 -7.796875 C 3.3125 -7.460938 3.128906 -7.117188 3.046875 -6.765625 C 2.960938 -6.421875 2.921875 -5.921875 2.921875 -5.265625 L 2.921875 0 L 1.234375 0 Z M 5.203125 -10.28125 Z M 5.203125 -10.28125 "/>
</g>
<g id="glyph-0-9">
<path d="M 2.3125 -4.90625 C 2.3125 -3.832031 2.535156 -2.929688 2.984375 -2.203125 C 3.441406 -1.472656 4.175781 -1.109375 5.1875 -1.109375 C 5.96875 -1.109375 6.609375 -1.441406 7.109375 -2.109375 C 7.609375 -2.785156 7.859375 -3.753906 7.859375 -5.015625 C 7.859375 -6.285156 7.597656 -7.222656 7.078125 -7.828125 C 6.566406 -8.441406 5.929688 -8.75 5.171875 -8.75 C 4.316406 -8.75 3.625 -8.421875 3.09375 -7.765625 C 2.570312 -7.117188 2.3125 -6.164062 2.3125 -4.90625 Z M 4.84375 -10.21875 C 5.613281 -10.21875 6.257812 -10.054688 6.78125 -9.734375 C 7.082031 -9.546875 7.421875 -9.21875 7.796875 -8.75 L 7.796875 -13.828125 L 9.421875 -13.828125 L 9.421875 0 L 7.90625 0 L 7.90625 -1.390625 C 7.507812 -0.773438 7.039062 -0.328125 6.5 -0.046875 C 5.96875 0.222656 5.351562 0.359375 4.65625 0.359375 C 3.539062 0.359375 2.570312 -0.109375 1.75 -1.046875 C 0.9375 -1.992188 0.53125 -3.25 0.53125 -4.8125 C 0.53125 -6.269531 0.898438 -7.535156 1.640625 -8.609375 C 2.390625 -9.679688 3.457031 -10.21875 4.84375 -10.21875 Z M 4.84375 -10.21875 "/>
</g>
<g id="glyph-0-10">
<path d="M 5.421875 -10.265625 C 6.128906 -10.265625 6.816406 -10.097656 7.484375 -9.765625 C 8.160156 -9.429688 8.671875 -9 9.015625 -8.46875 C 9.359375 -7.957031 9.585938 -7.363281 9.703125 -6.6875 C 9.796875 -6.226562 9.84375 -5.492188 9.84375 -4.484375 L 2.484375 -4.484375 C 2.515625 -3.460938 2.753906 -2.644531 3.203125 -2.03125 C 3.648438 -1.414062 4.347656 -1.109375 5.296875 -1.109375 C 6.179688 -1.109375 6.882812 -1.398438 7.40625 -1.984375 C 7.707031 -2.316406 7.921875 -2.707031 8.046875 -3.15625 L 9.703125 -3.15625 C 9.660156 -2.78125 9.515625 -2.363281 9.265625 -1.90625 C 9.015625 -1.457031 8.738281 -1.09375 8.4375 -0.8125 C 7.925781 -0.3125 7.289062 0.0234375 6.53125 0.203125 C 6.125 0.304688 5.664062 0.359375 5.15625 0.359375 C 3.90625 0.359375 2.84375 -0.09375 1.96875 -1 C 1.101562 -1.914062 0.671875 -3.191406 0.671875 -4.828125 C 0.671875 -6.441406 1.109375 -7.75 1.984375 -8.75 C 2.859375 -9.757812 4.003906 -10.265625 5.421875 -10.265625 Z M 8.109375 -5.828125 C 8.035156 -6.554688 7.875 -7.140625 7.625 -7.578125 C 7.164062 -8.390625 6.394531 -8.796875 5.3125 -8.796875 C 4.539062 -8.796875 3.890625 -8.515625 3.359375 -7.953125 C 2.835938 -7.390625 2.5625 -6.679688 2.53125 -5.828125 Z M 5.265625 -10.28125 Z M 5.265625 -10.28125 "/>
</g>
<g id="glyph-0-11">
<path d="M 0.28125 -10.046875 L 2.46875 -10.046875 L 4.765625 -6.5 L 7.109375 -10.046875 L 9.15625 -10 L 5.78125 -5.140625 L 9.3125 0 L 7.15625 0 L 4.65625 -3.765625 L 2.234375 0 L 0.109375 0 L 3.640625 -5.140625 Z M 0.28125 -10.046875 "/>
</g>
<g id="glyph-1-0">
<path d="M 0 -0.625 L -13.78125 -0.625 L -13.78125 -11.546875 L 0 -11.546875 Z M -1.71875 -9.828125 L -12.046875 -9.828125 L -12.046875 -2.34375 L -1.71875 -2.34375 Z M -1.71875 -9.828125 "/>
</g>
<g id="glyph-1-1">
<path d="M -13.421875 -5.1875 C -13.421875 -6.925781 -12.707031 -8.1875 -11.28125 -8.96875 C -10.175781 -9.5625 -8.660156 -9.859375 -6.734375 -9.859375 C -4.910156 -9.859375 -3.398438 -9.585938 -2.203125 -9.046875 C -0.492188 -8.253906 0.359375 -6.96875 0.359375 -5.1875 C 0.359375 -3.570312 -0.335938 -2.367188 -1.734375 -1.578125 C -2.898438 -0.921875 -4.46875 -0.59375 -6.4375 -0.59375 C -7.96875 -0.59375 -9.28125 -0.789062 -10.375 -1.1875 C -12.40625 -1.925781 -13.421875 -3.257812 -13.421875 -5.1875 Z M -1.171875 -5.171875 C -1.171875 -6.046875 -1.554688 -6.742188 -2.328125 -7.265625 C -3.109375 -7.785156 -4.554688 -8.046875 -6.671875 -8.046875 C -8.191406 -8.046875 -9.441406 -7.859375 -10.421875 -7.484375 C -11.410156 -7.109375 -11.90625 -6.378906 -11.90625 -5.296875 C -11.90625 -4.304688 -11.4375 -3.578125 -10.5 -3.109375 C -9.570312 -2.648438 -8.195312 -2.421875 -6.375 -2.421875 C -5.007812 -2.421875 -3.910156 -2.570312 -3.078125 -2.875 C -1.804688 -3.320312 -1.171875 -4.085938 -1.171875 -5.171875 Z M -1.171875 -5.171875 "/>
</g>
<g id="glyph-1-2">
<path d="M -2.046875 -1.640625 L -2.046875 -3.59375 L 0 -3.59375 L 0 -1.640625 Z M -2.046875 -1.640625 "/>
</g>
<g id="glyph-1-3">
<path d="M 0 -0.59375 C -1.15625 -0.65625 -2.160156 -0.894531 -3.015625 -1.3125 C -3.867188 -1.726562 -4.648438 -2.539062 -5.359375 -3.75 L -6.390625 -5.546875 C -6.859375 -6.359375 -7.257812 -6.925781 -7.59375 -7.25 C -8.113281 -7.757812 -8.707031 -8.015625 -9.375 -8.015625 C -10.15625 -8.015625 -10.773438 -7.78125 -11.234375 -7.3125 C -11.691406 -6.84375 -11.921875 -6.21875 -11.921875 -5.4375 C -11.921875 -4.28125 -11.484375 -3.476562 -10.609375 -3.03125 C -10.140625 -2.800781 -9.488281 -2.671875 -8.65625 -2.640625 L -8.65625 -0.921875 C -9.832031 -0.941406 -10.789062 -1.160156 -11.53125 -1.578125 C -12.820312 -2.304688 -13.46875 -3.597656 -13.46875 -5.453125 C -13.46875 -6.984375 -13.050781 -8.101562 -12.21875 -8.8125 C -11.394531 -9.53125 -10.472656 -9.890625 -9.453125 -9.890625 C -8.378906 -9.890625 -7.457031 -9.507812 -6.6875 -8.75 C -6.25 -8.3125 -5.710938 -7.523438 -5.078125 -6.390625 L -4.375 -5.109375 C -4.03125 -4.492188 -3.707031 -4.015625 -3.40625 -3.671875 C -2.863281 -3.046875 -2.257812 -2.648438 -1.59375 -2.484375 L -1.59375 -9.8125 L 0 -9.8125 Z M 0 -0.59375 "/>
</g>
<g id="glyph-1-4">
<path d="M -4.75 -6.34375 L -10.84375 -6.34375 L -4.75 -2.046875 Z M 0 -6.375 L -3.28125 -6.375 L -3.28125 -0.484375 L -4.9375 -0.484375 L -13.46875 -6.640625 L -13.46875 -8.0625 L -4.75 -8.0625 L -4.75 -10.046875 L -3.28125 -10.046875 L -3.28125 -8.0625 L 0 -8.0625 Z M 0 -6.375 "/>
</g>
<g id="glyph-1-5">
<path d="M -13.484375 -5.609375 C -13.484375 -7.109375 -13.09375 -8.15625 -12.3125 -8.75 C -11.539062 -9.34375 -10.738281 -9.640625 -9.90625 -9.640625 L -9.90625 -7.96875 C -10.4375 -7.863281 -10.851562 -7.703125 -11.15625 -7.484375 C -11.71875 -7.078125 -12 -6.460938 -12 -5.640625 C -12 -4.703125 -11.5625 -3.953125 -10.6875 -3.390625 C -9.820312 -2.835938 -8.578125 -2.53125 -6.953125 -2.46875 C -7.515625 -2.851562 -7.9375 -3.335938 -8.21875 -3.921875 C -8.46875 -4.460938 -8.59375 -5.066406 -8.59375 -5.734375 C -8.59375 -6.859375 -8.234375 -7.835938 -7.515625 -8.671875 C -6.796875 -9.515625 -5.722656 -9.9375 -4.296875 -9.9375 C -3.078125 -9.9375 -2 -9.535156 -1.0625 -8.734375 C -0.125 -7.941406 0.34375 -6.8125 0.34375 -5.34375 C 0.34375 -4.082031 -0.128906 -2.992188 -1.078125 -2.078125 C -2.035156 -1.171875 -3.640625 -0.71875 -5.890625 -0.71875 C -7.566406 -0.71875 -8.984375 -0.921875 -10.140625 -1.328125 C -12.367188 -2.109375 -13.484375 -3.535156 -13.484375 -5.609375 Z M -1.15625 -5.5 C -1.15625 -6.382812 -1.453125 -7.046875 -2.046875 -7.484375 C -2.640625 -7.921875 -3.34375 -8.140625 -4.15625 -8.140625 C -4.84375 -8.140625 -5.5 -7.941406 -6.125 -7.546875 C -6.75 -7.160156 -7.0625 -6.445312 -7.0625 -5.40625 C -7.0625 -4.6875 -6.816406 -4.050781 -6.328125 -3.5 C -5.847656 -2.957031 -5.125 -2.6875 -4.15625 -2.6875 C -3.3125 -2.6875 -2.597656 -2.929688 -2.015625 -3.421875 C -1.441406 -3.921875 -1.15625 -4.613281 -1.15625 -5.5 Z M -1.15625 -5.5 "/>
</g>
<g id="glyph-1-6">
<path d="M -7.796875 -5.21875 C -7.796875 -5.96875 -8.003906 -6.550781 -8.421875 -6.96875 C -8.835938 -7.382812 -9.332031 -7.59375 -9.90625 -7.59375 C -10.40625 -7.59375 -10.863281 -7.390625 -11.28125 -6.984375 C -11.707031 -6.585938 -11.921875 -5.984375 -11.921875 -5.171875 C -11.921875 -4.359375 -11.707031 -3.769531 -11.28125 -3.40625 C -10.863281 -3.039062 -10.375 -2.859375 -9.8125 -2.859375 C -9.1875 -2.859375 -8.691406 -3.09375 -8.328125 -3.5625 C -7.972656 -4.03125 -7.796875 -4.582031 -7.796875 -5.21875 Z M -1.15625 -5.328125 C -1.15625 -6.109375 -1.363281 -6.753906 -1.78125 -7.265625 C -2.207031 -7.785156 -2.835938 -8.046875 -3.671875 -8.046875 C -4.546875 -8.046875 -5.207031 -7.78125 -5.65625 -7.25 C -6.101562 -6.71875 -6.328125 -6.035156 -6.328125 -5.203125 C -6.328125 -4.398438 -6.097656 -3.742188 -5.640625 -3.234375 C -5.179688 -2.722656 -4.546875 -2.46875 -3.734375 -2.46875 C -3.035156 -2.46875 -2.429688 -2.695312 -1.921875 -3.15625 C -1.410156 -3.625 -1.15625 -4.347656 -1.15625 -5.328125 Z M -7.15625 -2.921875 C -7.351562 -2.453125 -7.585938 -2.085938 -7.859375 -1.828125 C -8.359375 -1.335938 -9.007812 -1.09375 -9.8125 -1.09375 C -10.8125 -1.09375 -11.671875 -1.453125 -12.390625 -2.171875 C -13.109375 -2.898438 -13.46875 -3.929688 -13.46875 -5.265625 C -13.46875 -6.546875 -13.128906 -7.550781 -12.453125 -8.28125 C -11.773438 -9.019531 -10.984375 -9.390625 -10.078125 -9.390625 C -9.234375 -9.390625 -8.550781 -9.175781 -8.03125 -8.75 C -7.738281 -8.507812 -7.453125 -8.140625 -7.171875 -7.640625 C -6.910156 -8.191406 -6.617188 -8.628906 -6.296875 -8.953125 C -5.671875 -9.546875 -4.859375 -9.84375 -3.859375 -9.84375 C -2.671875 -9.84375 -1.664062 -9.445312 -0.84375 -8.65625 C -0.0195312 -7.863281 0.390625 -6.738281 0.390625 -5.28125 C 0.390625 -3.976562 0.0351562 -2.875 -0.671875 -1.96875 C -1.390625 -1.070312 -2.421875 -0.625 -3.765625 -0.625 C -4.554688 -0.625 -5.238281 -0.816406 -5.8125 -1.203125 C -6.394531 -1.585938 -6.84375 -2.160156 -7.15625 -2.921875 Z M -7.15625 -2.921875 "/>
</g>
<g id="glyph-1-7">
<path d="M -10.328125 -5.109375 C -10.328125 -6.242188 -10.050781 -7.164062 -9.5 -7.875 C -8.957031 -8.582031 -8.015625 -9.007812 -6.671875 -9.15625 L -6.671875 -7.515625 C -7.285156 -7.410156 -7.796875 -7.179688 -8.203125 -6.828125 C -8.617188 -6.472656 -8.828125 -5.898438 -8.828125 -5.109375 C -8.828125 -4.035156 -8.300781 -3.265625 -7.25 -2.796875 C -6.5625 -2.503906 -5.71875 -2.359375 -4.71875 -2.359375 C -3.71875 -2.359375 -2.875 -2.566406 -2.1875 -2.984375 C -1.5 -3.410156 -1.15625 -4.082031 -1.15625 -5 C -1.15625 -5.695312 -1.367188 -6.25 -1.796875 -6.65625 C -2.222656 -7.070312 -2.804688 -7.359375 -3.546875 -7.515625 L -3.546875 -9.15625 C -2.222656 -8.96875 -1.25 -8.5 -0.625 -7.75 C -0.0078125 -7 0.296875 -6.035156 0.296875 -4.859375 C 0.296875 -3.546875 -0.179688 -2.5 -1.140625 -1.71875 C -2.109375 -0.9375 -3.3125 -0.546875 -4.75 -0.546875 C -6.507812 -0.546875 -7.878906 -0.972656 -8.859375 -1.828125 C -9.835938 -2.691406 -10.328125 -3.785156 -10.328125 -5.109375 Z M -10.28125 -4.84375 Z M -10.28125 -4.84375 "/>
</g>
<g id="glyph-1-8">
<path d="M -1.09375 -5.21875 C -1.09375 -6.34375 -1.515625 -7.109375 -2.359375 -7.515625 C -3.203125 -7.929688 -4.144531 -8.140625 -5.1875 -8.140625 C -6.125 -8.140625 -6.882812 -7.992188 -7.46875 -7.703125 C -8.394531 -7.222656 -8.859375 -6.398438 -8.859375 -5.234375 C -8.859375 -4.203125 -8.460938 -3.453125 -7.671875 -2.984375 C -6.890625 -2.515625 -5.941406 -2.28125 -4.828125 -2.28125 C -3.753906 -2.28125 -2.863281 -2.515625 -2.15625 -2.984375 C -1.445312 -3.453125 -1.09375 -4.195312 -1.09375 -5.21875 Z M -10.328125 -5.28125 C -10.328125 -6.582031 -9.894531 -7.675781 -9.03125 -8.5625 C -8.175781 -9.457031 -6.910156 -9.90625 -5.234375 -9.90625 C -3.609375 -9.90625 -2.269531 -9.507812 -1.21875 -8.71875 C -0.164062 -7.9375 0.359375 -6.71875 0.359375 -5.0625 C 0.359375 -3.675781 -0.101562 -2.578125 -1.03125 -1.765625 C -1.96875 -0.953125 -3.222656 -0.546875 -4.796875 -0.546875 C -6.484375 -0.546875 -7.828125 -0.972656 -8.828125 -1.828125 C -9.828125 -2.691406 -10.328125 -3.84375 -10.328125 -5.28125 Z M -10.28125 -5.234375 Z M -10.28125 -5.234375 "/>
</g>
<g id="glyph-1-9">
<path d="M -13.78125 -1.203125 L -13.78125 -2.828125 L -5.78125 -2.828125 L -10.046875 -7.15625 L -10.046875 -9.3125 L -6.28125 -5.46875 L 0 -9.53125 L 0 -7.375 L -5.0625 -4.234375 L -3.765625 -2.828125 L 0 -2.828125 L 0 -1.203125 Z M -13.78125 -1.203125 "/>
</g>
<g id="glyph-1-10">
<path d="M -3.15625 -2.234375 C -2.59375 -2.285156 -2.160156 -2.425781 -1.859375 -2.65625 C -1.316406 -3.082031 -1.046875 -3.820312 -1.046875 -4.875 C -1.046875 -5.5 -1.179688 -6.046875 -1.453125 -6.515625 C -1.722656 -6.992188 -2.140625 -7.234375 -2.703125 -7.234375 C -3.140625 -7.234375 -3.46875 -7.046875 -3.6875 -6.671875 C -3.832031 -6.421875 -3.992188 -5.9375 -4.171875 -5.21875 L -4.515625 -3.875 C -4.722656 -3.019531 -4.957031 -2.390625 -5.21875 -1.984375 C -5.675781 -1.265625 -6.304688 -0.90625 -7.109375 -0.90625 C -8.066406 -0.90625 -8.835938 -1.242188 -9.421875 -1.921875 C -10.015625 -2.609375 -10.3125 -3.53125 -10.3125 -4.6875 C -10.3125 -6.195312 -9.863281 -7.285156 -8.96875 -7.953125 C -8.40625 -8.378906 -7.800781 -8.582031 -7.15625 -8.5625 L -7.15625 -6.96875 C -7.53125 -6.9375 -7.875 -6.804688 -8.1875 -6.578125 C -8.632812 -6.179688 -8.859375 -5.507812 -8.859375 -4.5625 C -8.859375 -3.914062 -8.734375 -3.425781 -8.484375 -3.09375 C -8.242188 -2.769531 -7.925781 -2.609375 -7.53125 -2.609375 C -7.09375 -2.609375 -6.742188 -2.828125 -6.484375 -3.265625 C -6.328125 -3.515625 -6.1875 -3.882812 -6.0625 -4.375 L -5.796875 -5.484375 C -5.503906 -6.691406 -5.21875 -7.503906 -4.9375 -7.921875 C -4.507812 -8.578125 -3.832031 -8.90625 -2.90625 -8.90625 C -2.007812 -8.90625 -1.234375 -8.566406 -0.578125 -7.890625 C 0.0664062 -7.210938 0.390625 -6.179688 0.390625 -4.796875 C 0.390625 -3.296875 0.0507812 -2.234375 -0.625 -1.609375 C -1.3125 -0.992188 -2.15625 -0.664062 -3.15625 -0.625 Z M -10.28125 -4.734375 Z M -10.28125 -4.734375 "/>
</g>
<g id="glyph-1-11">
<path d="M -4.90625 -2.3125 C -3.832031 -2.3125 -2.929688 -2.535156 -2.203125 -2.984375 C -1.472656 -3.441406 -1.109375 -4.175781 -1.109375 -5.1875 C -1.109375 -5.96875 -1.441406 -6.609375 -2.109375 -7.109375 C -2.785156 -7.609375 -3.753906 -7.859375 -5.015625 -7.859375 C -6.285156 -7.859375 -7.222656 -7.597656 -7.828125 -7.078125 C -8.441406 -6.566406 -8.75 -5.929688 -8.75 -5.171875 C -8.75 -4.316406 -8.421875 -3.625 -7.765625 -3.09375 C -7.117188 -2.570312 -6.164062 -2.3125 -4.90625 -2.3125 Z M -10.21875 -4.84375 C -10.21875 -5.613281 -10.054688 -6.257812 -9.734375 -6.78125 C -9.546875 -7.082031 -9.21875 -7.421875 -8.75 -7.796875 L -13.828125 -7.796875 L -13.828125 -9.421875 L 0 -9.421875 L 0 -7.90625 L -1.390625 -7.90625 C -0.773438 -7.507812 -0.328125 -7.039062 -0.046875 -6.5 C 0.222656 -5.96875 0.359375 -5.351562 0.359375 -4.65625 C 0.359375 -3.539062 -0.109375 -2.570312 -1.046875 -1.75 C -1.992188 -0.9375 -3.25 -0.53125 -4.8125 -0.53125 C -6.269531 -0.53125 -7.535156 -0.898438 -8.609375 -1.640625 C -9.679688 -2.390625 -10.21875 -3.457031 -10.21875 -4.84375 Z M -10.21875 -4.84375 "/>
</g>
<g id="glyph-1-12">
<path d="M -10 -1.234375 L -10 -2.953125 L 0 -2.953125 L 0 -1.234375 Z M -13.78125 -1.234375 L -13.78125 -2.953125 L -11.859375 -2.953125 L -11.859375 -1.234375 Z M -13.78125 -1.234375 "/>
</g>
<g id="glyph-1-13">
<path d="M -12.84375 -1.578125 L -12.84375 -3.28125 L -10.046875 -3.28125 L -10.046875 -4.890625 L -8.65625 -4.890625 L -8.65625 -3.28125 L -2.109375 -3.28125 C -1.753906 -3.28125 -1.519531 -3.398438 -1.40625 -3.640625 C -1.332031 -3.765625 -1.296875 -3.984375 -1.296875 -4.296875 C -1.296875 -4.378906 -1.296875 -4.46875 -1.296875 -4.5625 C -1.304688 -4.65625 -1.316406 -4.765625 -1.328125 -4.890625 L 0 -4.890625 C 0.0507812 -4.691406 0.0859375 -4.488281 0.109375 -4.28125 C 0.140625 -4.070312 0.15625 -3.84375 0.15625 -3.59375 C 0.15625 -2.8125 -0.0390625 -2.28125 -0.4375 -2 C -0.84375 -1.71875 -1.367188 -1.578125 -2.015625 -1.578125 L -8.65625 -1.578125 L -8.65625 -0.21875 L -10.046875 -0.21875 L -10.046875 -1.578125 Z M -12.84375 -1.578125 "/>
</g>
<g id="glyph-1-14">
<path d="M -2.671875 -2.53125 C -2.179688 -2.53125 -1.796875 -2.707031 -1.515625 -3.0625 C -1.234375 -3.414062 -1.09375 -3.835938 -1.09375 -4.328125 C -1.09375 -4.921875 -1.234375 -5.5 -1.515625 -6.0625 C -1.960938 -7 -2.707031 -7.46875 -3.75 -7.46875 L -5.109375 -7.46875 C -4.972656 -7.257812 -4.863281 -6.988281 -4.78125 -6.65625 C -4.695312 -6.332031 -4.632812 -6.015625 -4.59375 -5.703125 L -4.46875 -4.6875 C -4.382812 -4.070312 -4.253906 -3.613281 -4.078125 -3.3125 C -3.785156 -2.789062 -3.316406 -2.53125 -2.671875 -2.53125 Z M -6.078125 -6.625 C -6.128906 -7.007812 -6.296875 -7.265625 -6.578125 -7.390625 C -6.722656 -7.472656 -6.9375 -7.515625 -7.21875 -7.515625 C -7.789062 -7.515625 -8.207031 -7.304688 -8.46875 -6.890625 C -8.726562 -6.484375 -8.859375 -5.898438 -8.859375 -5.140625 C -8.859375 -4.253906 -8.617188 -3.628906 -8.140625 -3.265625 C -7.878906 -3.054688 -7.488281 -2.921875 -6.96875 -2.859375 L -6.96875 -1.28125 C -8.207031 -1.3125 -9.066406 -1.710938 -9.546875 -2.484375 C -10.035156 -3.253906 -10.28125 -4.148438 -10.28125 -5.171875 C -10.28125 -6.359375 -10.054688 -7.316406 -9.609375 -8.046875 C -9.160156 -8.785156 -8.460938 -9.15625 -7.515625 -9.15625 L -1.71875 -9.15625 C -1.550781 -9.15625 -1.410156 -9.1875 -1.296875 -9.25 C -1.191406 -9.320312 -1.140625 -9.476562 -1.140625 -9.71875 C -1.140625 -9.789062 -1.144531 -9.875 -1.15625 -9.96875 C -1.164062 -10.0625 -1.179688 -10.160156 -1.203125 -10.265625 L 0.046875 -10.265625 C 0.117188 -10.003906 0.164062 -9.800781 0.1875 -9.65625 C 0.207031 -9.519531 0.21875 -9.335938 0.21875 -9.109375 C 0.21875 -8.523438 0.0078125 -8.101562 -0.40625 -7.84375 C -0.625 -7.695312 -0.929688 -7.597656 -1.328125 -7.546875 C -0.878906 -7.203125 -0.488281 -6.707031 -0.15625 -6.0625 C 0.175781 -5.414062 0.34375 -4.707031 0.34375 -3.9375 C 0.34375 -3.007812 0.0585938 -2.25 -0.5 -1.65625 C -1.070312 -1.0625 -1.785156 -0.765625 -2.640625 -0.765625 C -3.566406 -0.765625 -4.285156 -1.054688 -4.796875 -1.640625 C -5.304688 -2.222656 -5.625 -2.984375 -5.75 -3.921875 Z M -10.28125 -5.21875 Z M -10.28125 -5.21875 "/>
</g>
<g id="glyph-1-15">
<path d="M -10.046875 -1.234375 L -10.046875 -2.84375 L -8.609375 -2.84375 C -9.203125 -3.3125 -9.625 -3.8125 -9.875 -4.34375 C -10.132812 -4.875 -10.265625 -5.46875 -10.265625 -6.125 C -10.265625 -7.550781 -9.769531 -8.515625 -8.78125 -9.015625 C -8.226562 -9.285156 -7.445312 -9.421875 -6.4375 -9.421875 L 0 -9.421875 L 0 -7.703125 L -6.328125 -7.703125 C -6.941406 -7.703125 -7.4375 -7.613281 -7.8125 -7.4375 C -8.4375 -7.132812 -8.75 -6.585938 -8.75 -5.796875 C -8.75 -5.398438 -8.707031 -5.070312 -8.625 -4.8125 C -8.488281 -4.351562 -8.210938 -3.945312 -7.796875 -3.59375 C -7.460938 -3.3125 -7.117188 -3.128906 -6.765625 -3.046875 C -6.421875 -2.960938 -5.921875 -2.921875 -5.265625 -2.921875 L 0 -2.921875 L 0 -1.234375 Z M -10.28125 -5.203125 Z M -10.28125 -5.203125 "/>
</g>
<g id="glyph-1-16">
<path d="M -10.265625 -5.421875 C -10.265625 -6.128906 -10.097656 -6.816406 -9.765625 -7.484375 C -9.429688 -8.160156 -9 -8.671875 -8.46875 -9.015625 C -7.957031 -9.359375 -7.363281 -9.585938 -6.6875 -9.703125 C -6.226562 -9.796875 -5.492188 -9.84375 -4.484375 -9.84375 L -4.484375 -2.484375 C -3.460938 -2.515625 -2.644531 -2.753906 -2.03125 -3.203125 C -1.414062 -3.648438 -1.109375 -4.347656 -1.109375 -5.296875 C -1.109375 -6.179688 -1.398438 -6.882812 -1.984375 -7.40625 C -2.316406 -7.707031 -2.707031 -7.921875 -3.15625 -8.046875 L -3.15625 -9.703125 C -2.78125 -9.660156 -2.363281 -9.515625 -1.90625 -9.265625 C -1.457031 -9.015625 -1.09375 -8.738281 -0.8125 -8.4375 C -0.3125 -7.925781 0.0234375 -7.289062 0.203125 -6.53125 C 0.304688 -6.125 0.359375 -5.664062 0.359375 -5.15625 C 0.359375 -3.90625 -0.09375 -2.84375 -1 -1.96875 C -1.914062 -1.101562 -3.191406 -0.671875 -4.828125 -0.671875 C -6.441406 -0.671875 -7.75 -1.109375 -8.75 -1.984375 C -9.757812 -2.859375 -10.265625 -4.003906 -10.265625 -5.421875 Z M -5.828125 -8.109375 C -6.554688 -8.035156 -7.140625 -7.875 -7.578125 -7.625 C -8.390625 -7.164062 -8.796875 -6.394531 -8.796875 -5.3125 C -8.796875 -4.539062 -8.515625 -3.890625 -7.953125 -3.359375 C -7.390625 -2.835938 -6.679688 -2.5625 -5.828125 -2.53125 Z M -10.28125 -5.265625 Z M -10.28125 -5.265625 "/>
</g>
<g id="glyph-1-17">
<path d="M -14 -5.6875 C -12.09375 -4.695312 -10.691406 -4.054688 -9.796875 -3.765625 C -8.421875 -3.328125 -6.835938 -3.109375 -5.046875 -3.109375 C -3.234375 -3.109375 -1.578125 -3.359375 -0.078125 -3.859375 C 0.847656 -4.171875 2.179688 -4.785156 3.921875 -5.703125 L 3.921875 -4.578125 C 2.492188 -3.660156 1.582031 -3.09375 1.1875 -2.875 C 0.789062 -2.65625 0.257812 -2.421875 -0.40625 -2.171875 C -1.332031 -1.816406 -2.320312 -1.570312 -3.375 -1.4375 C -3.914062 -1.363281 -4.4375 -1.328125 -4.9375 -1.328125 C -6.78125 -1.328125 -8.425781 -1.617188 -9.875 -2.203125 C -10.789062 -2.566406 -12.164062 -3.335938 -14 -4.515625 Z M -14 -5.6875 "/>
</g>
<g id="glyph-1-18">
<path d="M -10.046875 -1.234375 L -10.046875 -2.90625 L -8.609375 -2.90625 C -9.109375 -3.300781 -9.472656 -3.664062 -9.703125 -4 C -10.078125 -4.550781 -10.265625 -5.179688 -10.265625 -5.890625 C -10.265625 -6.691406 -10.066406 -7.332031 -9.671875 -7.8125 C -9.453125 -8.09375 -9.125 -8.34375 -8.6875 -8.5625 C -9.21875 -8.9375 -9.613281 -9.378906 -9.875 -9.890625 C -10.132812 -10.398438 -10.265625 -10.96875 -10.265625 -11.59375 C -10.265625 -12.945312 -9.773438 -13.867188 -8.796875 -14.359375 C -8.273438 -14.617188 -7.570312 -14.75 -6.6875 -14.75 L 0 -14.75 L 0 -13 L -6.96875 -13 C -7.644531 -13 -8.109375 -12.832031 -8.359375 -12.5 C -8.609375 -12.164062 -8.734375 -11.753906 -8.734375 -11.265625 C -8.734375 -10.609375 -8.507812 -10.039062 -8.0625 -9.5625 C -7.613281 -9.082031 -6.875 -8.84375 -5.84375 -8.84375 L 0 -8.84375 L 0 -7.125 L -6.546875 -7.125 C -7.234375 -7.125 -7.734375 -7.039062 -8.046875 -6.875 C -8.515625 -6.625 -8.75 -6.148438 -8.75 -5.453125 C -8.75 -4.804688 -8.5 -4.222656 -8 -3.703125 C -7.507812 -3.179688 -6.617188 -2.921875 -5.328125 -2.921875 L 0 -2.921875 L 0 -1.234375 Z M -10.046875 -1.234375 "/>
</g>
<g id="glyph-1-19">
<path d="M -13.78125 -1.28125 L -13.78125 -2.96875 L 0 -2.96875 L 0 -1.28125 Z M -13.78125 -1.28125 "/>
</g>
<g id="glyph-1-20">
<path d="M -10.046875 -2.015625 L -2.125 -3.953125 L -10.046875 -5.90625 L -10.046875 -7.796875 L -2.171875 -9.765625 L -10.046875 -11.828125 L -10.046875 -13.515625 L 0 -10.59375 L 0 -8.84375 L -7.765625 -6.796875 L 0 -4.8125 L 0 -3.0625 L -10.046875 -0.171875 Z M -10.046875 -2.015625 "/>
</g>
<g id="glyph-1-21">
<path d="M 2.40625 0 L 1.453125 0 L 1.453125 -10.6875 L 2.40625 -10.6875 Z M 2.40625 0 "/>
</g>
<g id="glyph-1-22">
<path d="M -9.5 -1.84375 L -10.796875 -1.84375 C -10.921875 -3.0625 -11.117188 -3.910156 -11.390625 -4.390625 C -11.671875 -4.867188 -12.332031 -5.226562 -13.375 -5.46875 L -13.375 -6.796875 L 0 -6.796875 L 0 -5 L -9.5 -5 Z M -9.5 -1.84375 "/>
</g>
<g id="glyph-1-23">
<path d="M 3.921875 -0.671875 C 1.984375 -1.660156 0.570312 -2.300781 -0.3125 -2.59375 C -1.65625 -3.03125 -3.234375 -3.25 -5.046875 -3.25 C -6.847656 -3.25 -8.5 -2.992188 -10 -2.484375 C -10.925781 -2.171875 -12.257812 -1.554688 -14 -0.640625 L -14 -1.765625 C -12.457031 -2.734375 -11.503906 -3.316406 -11.140625 -3.515625 C -10.785156 -3.722656 -10.296875 -3.945312 -9.671875 -4.1875 C -8.890625 -4.476562 -8.113281 -4.6875 -7.34375 -4.8125 C -6.582031 -4.945312 -5.847656 -5.015625 -5.140625 -5.015625 C -3.296875 -5.015625 -1.648438 -4.722656 -0.203125 -4.140625 C 0.734375 -3.765625 2.109375 -3 3.921875 -1.84375 Z M 3.921875 -0.671875 "/>
</g>
</g>
</defs>
<rect x="-50.4" y="-43.2" width="604.8" height="518.4" fill="rgb(100%, 100%, 100%)" fill-opacity="1"/>
<path fill="none" stroke-width="0.75" stroke-linecap="round" stroke-linejoin="round" stroke="rgb(0%, 0%, 0%)" stroke-opacity="1" stroke-miterlimit="10" d="M 78.71875 326.144531 C 78.71875 331.90625 70.078125 331.90625 70.078125 326.144531 C 70.078125 320.386719 78.71875 320.386719 78.71875 326.144531 "/>
<path fill="none" stroke-width="0.75" stroke-linecap="round" stroke-linejoin="round" stroke="rgb(0%, 0%, 0%)" stroke-opacity="1" stroke-miterlimit="10" d="M 82.597656 339.117188 C 82.597656 344.878906 73.957031 344.878906 73.957031 339.117188 C 73.957031 333.359375 82.597656 333.359375 82.597656 339.117188 "/>
<path fill="none" stroke-width="0.75" stroke-linecap="round" stroke-linejoin="round" stroke="rgb(0%, 0%, 0%)" stroke-opacity="1" stroke-miterlimit="10" d="M 86.476562 340.226562 C 86.476562 345.984375 77.835938 345.984375 77.835938 340.226562 C 77.835938 334.464844 86.476562 334.464844 86.476562 340.226562 "/>
<path fill="none" stroke-width="0.75" stroke-linecap="round" stroke-linejoin="round" stroke="rgb(0%, 0%, 0%)" stroke-opacity="1" stroke-miterlimit="10" d="M 90.355469 345.214844 C 90.355469 350.972656 81.714844 350.972656 81.714844 345.214844 C 81.714844 339.453125 90.355469 339.453125 90.355469 345.214844 "/>
<path fill="none" stroke-width="0.75" stroke-linecap="round" stroke-linejoin="round" stroke="rgb(0%, 0%, 0%)" stroke-opacity="1" stroke-miterlimit="10" d="M 94.234375 340.945312 C 94.234375 346.707031 85.59375 346.707031 85.59375 340.945312 C 85.59375 335.1875 94.234375 335.1875 94.234375 340.945312 "/>
<path fill="none" stroke-width="0.75" stroke-linecap="round" stroke-linejoin="round" stroke="rgb(0%, 0%, 0%)" stroke-opacity="1" stroke-miterlimit="10" d="M 98.113281 347.464844 C 98.113281 353.226562 89.472656 353.226562 89.472656 347.464844 C 89.472656 341.707031 98.113281 341.707031 98.113281 347.464844 "/>
<path fill="none" stroke-width="0.75" stroke-linecap="round" stroke-linejoin="round" stroke="rgb(0%, 0%, 0%)" stroke-opacity="1" stroke-miterlimit="10" d="M 101.992188 337.402344 C 101.992188 343.164062 93.351562 343.164062 93.351562 337.402344 C 93.351562 331.644531 101.992188 331.644531 101.992188 337.402344 "/>
<path fill="none" stroke-width="0.75" stroke-linecap="round" stroke-linejoin="round" stroke="rgb(0%, 0%, 0%)" stroke-opacity="1" stroke-miterlimit="10" d="M 105.871094 334.433594 C 105.871094 340.191406 97.230469 340.191406 97.230469 334.433594 C 97.230469 328.671875 105.871094 328.671875 105.871094 334.433594 "/>
<path fill="none" stroke-width="0.75" stroke-linecap="round" stroke-linejoin="round" stroke="rgb(0%, 0%, 0%)" stroke-opacity="1" stroke-miterlimit="10" d="M 109.75 139.015625 C 109.75 144.777344 101.109375 144.777344 101.109375 139.015625 C 101.109375 133.257812 109.75 133.257812 109.75 139.015625 "/>
<path fill="none" stroke-width="0.75" stroke-linecap="round" stroke-linejoin="round" stroke="rgb(0%, 0%, 0%)" stroke-opacity="1" stroke-miterlimit="10" d="M 113.628906 336.097656 C 113.628906 341.855469 104.988281 341.855469 104.988281 336.097656 C 104.988281 330.335938 113.628906 330.335938 113.628906 336.097656 "/>
<path fill="none" stroke-width="0.75" stroke-linecap="round" stroke-linejoin="round" stroke="rgb(0%, 0%, 0%)" stroke-opacity="1" stroke-miterlimit="10" d="M 117.507812 334.433594 C 117.507812 340.191406 108.867188 340.191406 108.867188 334.433594 C 108.867188 328.671875 117.507812 328.671875 117.507812 334.433594 "/>
<path fill="none" stroke-width="0.75" stroke-linecap="round" stroke-linejoin="round" stroke="rgb(0%, 0%, 0%)" stroke-opacity="1" stroke-miterlimit="10" d="M 121.386719 332.738281 C 121.386719 338.5 112.746094 338.5 112.746094 332.738281 C 112.746094 326.980469 121.386719 326.980469 121.386719 332.738281 "/>
<path fill="none" stroke-width="0.75" stroke-linecap="round" stroke-linejoin="round" stroke="rgb(0%, 0%, 0%)" stroke-opacity="1" stroke-miterlimit="10" d="M 125.265625 346.964844 C 125.265625 352.726562 116.625 352.726562 116.625 346.964844 C 116.625 341.207031 125.265625 341.207031 125.265625 346.964844 "/>
<path fill="none" stroke-width="0.75" stroke-linecap="round" stroke-linejoin="round" stroke="rgb(0%, 0%, 0%)" stroke-opacity="1" stroke-miterlimit="10" d="M 129.144531 336.03125 C 129.144531 341.789062 120.503906 341.789062 120.503906 336.03125 C 120.503906 330.269531 129.144531 330.269531 129.144531 336.03125 "/>
<path fill="none" stroke-width="0.75" stroke-linecap="round" stroke-linejoin="round" stroke="rgb(0%, 0%, 0%)" stroke-opacity="1" stroke-miterlimit="10" d="M 133.023438 339.117188 C 133.023438 344.878906 124.382812 344.878906 124.382812 339.117188 C 124.382812 333.359375 133.023438 333.359375 133.023438 339.117188 "/>
<path fill="none" stroke-width="0.75" stroke-linecap="round" stroke-linejoin="round" stroke="rgb(0%, 0%, 0%)" stroke-opacity="1" stroke-miterlimit="10" d="M 136.902344 340.226562 C 136.902344 345.984375 128.261719 345.984375 128.261719 340.226562 C 128.261719 334.464844 136.902344 334.464844 136.902344 340.226562 "/>
<path fill="none" stroke-width="0.75" stroke-linecap="round" stroke-linejoin="round" stroke="rgb(0%, 0%, 0%)" stroke-opacity="1" stroke-miterlimit="10" d="M 140.78125 309.363281 C 140.78125 315.125 132.140625 315.125 132.140625 309.363281 C 132.140625 303.605469 140.78125 303.605469 140.78125 309.363281 "/>
<path fill="none" stroke-width="0.75" stroke-linecap="round" stroke-linejoin="round" stroke="rgb(0%, 0%, 0%)" stroke-opacity="1" stroke-miterlimit="10" d="M 144.660156 340.195312 C 144.660156 345.957031 136.019531 345.957031 136.019531 340.195312 C 136.019531 334.4375 144.660156 334.4375 144.660156 340.195312 "/>
<path fill="none" stroke-width="0.75" stroke-linecap="round" stroke-linejoin="round" stroke="rgb(0%, 0%, 0%)" stroke-opacity="1" stroke-miterlimit="10" d="M 148.539062 331.464844 C 148.539062 337.222656 139.898438 337.222656 139.898438 331.464844 C 139.898438 325.703125 148.539062 325.703125 148.539062 331.464844 "/>
<path fill="none" stroke-width="0.75" stroke-linecap="round" stroke-linejoin="round" stroke="rgb(0%, 0%, 0%)" stroke-opacity="1" stroke-miterlimit="10" d="M 152.417969 340.195312 C 152.417969 345.957031 143.777344 345.957031 143.777344 340.195312 C 143.777344 334.4375 152.417969 334.4375 152.417969 340.195312 "/>
<path fill="none" stroke-width="0.75" stroke-linecap="round" stroke-linejoin="round" stroke="rgb(0%, 0%, 0%)" stroke-opacity="1" stroke-miterlimit="10" d="M 156.296875 343.480469 C 156.296875 349.242188 147.65625 349.242188 147.65625 343.480469 C 147.65625 337.722656 156.296875 337.722656 156.296875 343.480469 "/>
<path fill="none" stroke-width="0.75" stroke-linecap="round" stroke-linejoin="round" stroke="rgb(0%, 0%, 0%)" stroke-opacity="1" stroke-miterlimit="10" d="M 160.175781 329.714844 C 160.175781 335.472656 151.535156 335.472656 151.535156 329.714844 C 151.535156 323.953125 160.175781 323.953125 160.175781 329.714844 "/>
<path fill="none" stroke-width="0.75" stroke-linecap="round" stroke-linejoin="round" stroke="rgb(0%, 0%, 0%)" stroke-opacity="1" stroke-miterlimit="10" d="M 164.054688 341.675781 C 164.054688 347.433594 155.414062 347.433594 155.414062 341.675781 C 155.414062 335.914062 164.054688 335.914062 164.054688 341.675781 "/>
<path fill="none" stroke-width="0.75" stroke-linecap="round" stroke-linejoin="round" stroke="rgb(0%, 0%, 0%)" stroke-opacity="1" stroke-miterlimit="10" d="M 167.933594 339.871094 C 167.933594 345.628906 159.292969 345.628906 159.292969 339.871094 C 159.292969 334.109375 167.933594 334.109375 167.933594 339.871094 "/>
<path fill="none" stroke-width="0.75" stroke-linecap="round" stroke-linejoin="round" stroke="rgb(0%, 0%, 0%)" stroke-opacity="1" stroke-miterlimit="10" d="M 171.8125 335.71875 C 171.8125 341.480469 163.171875 341.480469 163.171875 335.71875 C 163.171875 329.960938 171.8125 329.960938 171.8125 335.71875 "/>
<path fill="none" stroke-width="0.75" stroke-linecap="round" stroke-linejoin="round" stroke="rgb(0%, 0%, 0%)" stroke-opacity="1" stroke-miterlimit="10" d="M 175.691406 300.382812 C 175.691406 306.144531 167.050781 306.144531 167.050781 300.382812 C 167.050781 294.621094 175.691406 294.621094 175.691406 300.382812 "/>
<path fill="none" stroke-width="0.75" stroke-linecap="round" stroke-linejoin="round" stroke="rgb(0%, 0%, 0%)" stroke-opacity="1" stroke-miterlimit="10" d="M 179.570312 342.40625 C 179.570312 348.164062 170.929688 348.164062 170.929688 342.40625 C 170.929688 336.644531 179.570312 336.644531 179.570312 342.40625 "/>
<path fill="none" stroke-width="0.75" stroke-linecap="round" stroke-linejoin="round" stroke="rgb(0%, 0%, 0%)" stroke-opacity="1" stroke-miterlimit="10" d="M 183.449219 288.730469 C 183.449219 294.492188 174.808594 294.492188 174.808594 288.730469 C 174.808594 282.972656 183.449219 282.972656 183.449219 288.730469 "/>
<path fill="none" stroke-width="0.75" stroke-linecap="round" stroke-linejoin="round" stroke="rgb(0%, 0%, 0%)" stroke-opacity="1" stroke-miterlimit="10" d="M 187.324219 309.363281 C 187.324219 315.125 178.6875 315.125 178.6875 309.363281 C 178.6875 303.605469 187.324219 303.605469 187.324219 309.363281 "/>
<path fill="none" stroke-width="0.75" stroke-linecap="round" stroke-linejoin="round" stroke="rgb(0%, 0%, 0%)" stroke-opacity="1" stroke-miterlimit="10" d="M 191.203125 337.480469 C 191.203125 343.242188 182.566406 343.242188 182.566406 337.480469 C 182.566406 331.71875 191.203125 331.71875 191.203125 337.480469 "/>
<path fill="none" stroke-width="0.75" stroke-linecap="round" stroke-linejoin="round" stroke="rgb(0%, 0%, 0%)" stroke-opacity="1" stroke-miterlimit="10" d="M 195.082031 343.148438 C 195.082031 348.910156 186.445312 348.910156 186.445312 343.148438 C 186.445312 337.390625 195.082031 337.390625 195.082031 343.148438 "/>
<path fill="none" stroke-width="0.75" stroke-linecap="round" stroke-linejoin="round" stroke="rgb(0%, 0%, 0%)" stroke-opacity="1" stroke-miterlimit="10" d="M 198.960938 313.9375 C 198.960938 319.699219 190.324219 319.699219 190.324219 313.9375 C 190.324219 308.179688 198.960938 308.179688 198.960938 313.9375 "/>
<path fill="none" stroke-width="0.75" stroke-linecap="round" stroke-linejoin="round" stroke="rgb(0%, 0%, 0%)" stroke-opacity="1" stroke-miterlimit="10" d="M 202.839844 337.480469 C 202.839844 343.242188 194.203125 343.242188 194.203125 337.480469 C 194.203125 331.71875 202.839844 331.71875 202.839844 337.480469 "/>
<path fill="none" stroke-width="0.75" stroke-linecap="round" stroke-linejoin="round" stroke="rgb(0%, 0%, 0%)" stroke-opacity="1" stroke-miterlimit="10" d="M 206.71875 177.230469 C 206.71875 182.988281 198.078125 182.988281 198.078125 177.230469 C 198.078125 171.46875 206.71875 171.46875 206.71875 177.230469 "/>
<path fill="none" stroke-width="0.75" stroke-linecap="round" stroke-linejoin="round" stroke="rgb(0%, 0%, 0%)" stroke-opacity="1" stroke-miterlimit="10" d="M 210.597656 86.113281 C 210.597656 91.875 201.957031 91.875 201.957031 86.113281 C 201.957031 80.355469 210.597656 80.355469 210.597656 86.113281 "/>
<path fill="none" stroke-width="0.75" stroke-linecap="round" stroke-linejoin="round" stroke="rgb(0%, 0%, 0%)" stroke-opacity="1" stroke-miterlimit="10" d="M 214.476562 330.367188 C 214.476562 336.125 205.835938 336.125 205.835938 330.367188 C 205.835938 324.605469 214.476562 324.605469 214.476562 330.367188 "/>
<path fill="none" stroke-width="0.75" stroke-linecap="round" stroke-linejoin="round" stroke="rgb(0%, 0%, 0%)" stroke-opacity="1" stroke-miterlimit="10" d="M 218.355469 346.421875 C 218.355469 352.183594 209.714844 352.183594 209.714844 346.421875 C 209.714844 340.660156 218.355469 340.660156 218.355469 346.421875 "/>
<path fill="none" stroke-width="0.75" stroke-linecap="round" stroke-linejoin="round" stroke="rgb(0%, 0%, 0%)" stroke-opacity="1" stroke-miterlimit="10" d="M 222.234375 318.933594 C 222.234375 324.691406 213.59375 324.691406 213.59375 318.933594 C 213.59375 313.171875 222.234375 313.171875 222.234375 318.933594 "/>
<path fill="none" stroke-width="0.75" stroke-linecap="round" stroke-linejoin="round" stroke="rgb(0%, 0%, 0%)" stroke-opacity="1" stroke-miterlimit="10" d="M 226.113281 339.871094 C 226.113281 345.628906 217.472656 345.628906 217.472656 339.871094 C 217.472656 334.109375 226.113281 334.109375 226.113281 339.871094 "/>
<path fill="none" stroke-width="0.75" stroke-linecap="round" stroke-linejoin="round" stroke="rgb(0%, 0%, 0%)" stroke-opacity="1" stroke-miterlimit="10" d="M 229.992188 340.945312 C 229.992188 346.707031 221.351562 346.707031 221.351562 340.945312 C 221.351562 335.1875 229.992188 335.1875 229.992188 340.945312 "/>
<path fill="none" stroke-width="0.75" stroke-linecap="round" stroke-linejoin="round" stroke="rgb(0%, 0%, 0%)" stroke-opacity="1" stroke-miterlimit="10" d="M 233.871094 214.445312 C 233.871094 220.207031 225.230469 220.207031 225.230469 214.445312 C 225.230469 208.6875 233.871094 208.6875 233.871094 214.445312 "/>
<path fill="none" stroke-width="0.75" stroke-linecap="round" stroke-linejoin="round" stroke="rgb(0%, 0%, 0%)" stroke-opacity="1" stroke-miterlimit="10" d="M 237.75 281.007812 C 237.75 286.765625 229.109375 286.765625 229.109375 281.007812 C 229.109375 275.246094 237.75 275.246094 237.75 281.007812 "/>
<path fill="none" stroke-width="0.75" stroke-linecap="round" stroke-linejoin="round" stroke="rgb(0%, 0%, 0%)" stroke-opacity="1" stroke-miterlimit="10" d="M 241.628906 335.664062 C 241.628906 341.425781 232.988281 341.425781 232.988281 335.664062 C 232.988281 329.902344 241.628906 329.902344 241.628906 335.664062 "/>
<path fill="none" stroke-width="0.75" stroke-linecap="round" stroke-linejoin="round" stroke="rgb(0%, 0%, 0%)" stroke-opacity="1" stroke-miterlimit="10" d="M 245.507812 340.933594 C 245.507812 346.695312 236.867188 346.695312 236.867188 340.933594 C 236.867188 335.171875 245.507812 335.171875 245.507812 340.933594 "/>
<path fill="none" stroke-width="0.75" stroke-linecap="round" stroke-linejoin="round" stroke="rgb(0%, 0%, 0%)" stroke-opacity="1" stroke-miterlimit="10" d="M 249.386719 335.28125 C 249.386719 341.039062 240.746094 341.039062 240.746094 335.28125 C 240.746094 329.519531 249.386719 329.519531 249.386719 335.28125 "/>
<path fill="none" stroke-width="0.75" stroke-linecap="round" stroke-linejoin="round" stroke="rgb(0%, 0%, 0%)" stroke-opacity="1" stroke-miterlimit="10" d="M 253.265625 336.097656 C 253.265625 341.855469 244.625 341.855469 244.625 336.097656 C 244.625 330.335938 253.265625 330.335938 253.265625 336.097656 "/>
<path fill="none" stroke-width="0.75" stroke-linecap="round" stroke-linejoin="round" stroke="rgb(0%, 0%, 0%)" stroke-opacity="1" stroke-miterlimit="10" d="M 257.144531 347.464844 C 257.144531 353.226562 248.503906 353.226562 248.503906 347.464844 C 248.503906 341.707031 257.144531 341.707031 257.144531 347.464844 "/>
<path fill="none" stroke-width="0.75" stroke-linecap="round" stroke-linejoin="round" stroke="rgb(0%, 0%, 0%)" stroke-opacity="1" stroke-miterlimit="10" d="M 261.023438 339.472656 C 261.023438 345.234375 252.382812 345.234375 252.382812 339.472656 C 252.382812 333.714844 261.023438 333.714844 261.023438 339.472656 "/>
<path fill="none" stroke-width="0.75" stroke-linecap="round" stroke-linejoin="round" stroke="rgb(0%, 0%, 0%)" stroke-opacity="1" stroke-miterlimit="10" d="M 264.902344 125.132812 C 264.902344 130.894531 256.261719 130.894531 256.261719 125.132812 C 256.261719 119.375 264.902344 119.375 264.902344 125.132812 "/>
<path fill="none" stroke-width="0.75" stroke-linecap="round" stroke-linejoin="round" stroke="rgb(0%, 0%, 0%)" stroke-opacity="1" stroke-miterlimit="10" d="M 268.78125 339.832031 C 268.78125 345.59375 260.140625 345.59375 260.140625 339.832031 C 260.140625 334.074219 268.78125 334.074219 268.78125 339.832031 "/>
<path fill="none" stroke-width="0.75" stroke-linecap="round" stroke-linejoin="round" stroke="rgb(0%, 0%, 0%)" stroke-opacity="1" stroke-miterlimit="10" d="M 272.660156 340.585938 C 272.660156 346.34375 264.019531 346.34375 264.019531 340.585938 C 264.019531 334.824219 272.660156 334.824219 272.660156 340.585938 "/>
<path fill="none" stroke-width="0.75" stroke-linecap="round" stroke-linejoin="round" stroke="rgb(0%, 0%, 0%)" stroke-opacity="1" stroke-miterlimit="10" d="M 276.539062 340.195312 C 276.539062 345.957031 267.898438 345.957031 267.898438 340.195312 C 267.898438 334.4375 276.539062 334.4375 276.539062 340.195312 "/>
<path fill="none" stroke-width="0.75" stroke-linecap="round" stroke-linejoin="round" stroke="rgb(0%, 0%, 0%)" stroke-opacity="1" stroke-miterlimit="10" d="M 280.417969 343.148438 C 280.417969 348.910156 271.777344 348.910156 271.777344 343.148438 C 271.777344 337.390625 280.417969 337.390625 280.417969 343.148438 "/>
<path fill="none" stroke-width="0.75" stroke-linecap="round" stroke-linejoin="round" stroke="rgb(0%, 0%, 0%)" stroke-opacity="1" stroke-miterlimit="10" d="M 284.296875 332.195312 C 284.296875 337.953125 275.65625 337.953125 275.65625 332.195312 C 275.65625 326.433594 284.296875 326.433594 284.296875 332.195312 "/>
<path fill="none" stroke-width="0.75" stroke-linecap="round" stroke-linejoin="round" stroke="rgb(0%, 0%, 0%)" stroke-opacity="1" stroke-miterlimit="10" d="M 288.175781 333.953125 C 288.175781 339.714844 279.535156 339.714844 279.535156 333.953125 C 279.535156 328.195312 288.175781 328.195312 288.175781 333.953125 "/>
<path fill="none" stroke-width="0.75" stroke-linecap="round" stroke-linejoin="round" stroke="rgb(0%, 0%, 0%)" stroke-opacity="1" stroke-miterlimit="10" d="M 292.054688 340.945312 C 292.054688 346.707031 283.414062 346.707031 283.414062 340.945312 C 283.414062 335.1875 292.054688 335.1875 292.054688 340.945312 "/>
<path fill="none" stroke-width="0.75" stroke-linecap="round" stroke-linejoin="round" stroke="rgb(0%, 0%, 0%)" stroke-opacity="1" stroke-miterlimit="10" d="M 295.933594 340.585938 C 295.933594 346.34375 287.292969 346.34375 287.292969 340.585938 C 287.292969 334.824219 295.933594 334.824219 295.933594 340.585938 "/>
<path fill="none" stroke-width="0.75" stroke-linecap="round" stroke-linejoin="round" stroke="rgb(0%, 0%, 0%)" stroke-opacity="1" stroke-miterlimit="10" d="M 299.8125 334.871094 C 299.8125 340.632812 291.171875 340.632812 291.171875 334.871094 C 291.171875 329.109375 299.8125 329.109375 299.8125 334.871094 "/>
<path fill="none" stroke-width="0.75" stroke-linecap="round" stroke-linejoin="round" stroke="rgb(0%, 0%, 0%)" stroke-opacity="1" stroke-miterlimit="10" d="M 303.691406 339.171875 C 303.691406 344.929688 295.050781 344.929688 295.050781 339.171875 C 295.050781 333.410156 303.691406 333.410156 303.691406 339.171875 "/>
<path fill="none" stroke-width="0.75" stroke-linecap="round" stroke-linejoin="round" stroke="rgb(0%, 0%, 0%)" stroke-opacity="1" stroke-miterlimit="10" d="M 307.570312 199.863281 C 307.570312 205.625 298.929688 205.625 298.929688 199.863281 C 298.929688 194.105469 307.570312 194.105469 307.570312 199.863281 "/>
<path fill="none" stroke-width="0.75" stroke-linecap="round" stroke-linejoin="round" stroke="rgb(0%, 0%, 0%)" stroke-opacity="1" stroke-miterlimit="10" d="M 311.449219 188.828125 C 311.449219 194.589844 302.808594 194.589844 302.808594 188.828125 C 302.808594 183.070312 311.449219 183.070312 311.449219 188.828125 "/>
<path fill="none" stroke-width="0.75" stroke-linecap="round" stroke-linejoin="round" stroke="rgb(0%, 0%, 0%)" stroke-opacity="1" stroke-miterlimit="10" d="M 315.324219 337.480469 C 315.324219 343.242188 306.6875 343.242188 306.6875 337.480469 C 306.6875 331.71875 315.324219 331.71875 315.324219 337.480469 "/>
<path fill="none" stroke-width="0.75" stroke-linecap="round" stroke-linejoin="round" stroke="rgb(0%, 0%, 0%)" stroke-opacity="1" stroke-miterlimit="10" d="M 319.203125 335.320312 C 319.203125 341.082031 310.566406 341.082031 310.566406 335.320312 C 310.566406 329.5625 319.203125 329.5625 319.203125 335.320312 "/>
<path fill="none" stroke-width="0.75" stroke-linecap="round" stroke-linejoin="round" stroke="rgb(0%, 0%, 0%)" stroke-opacity="1" stroke-miterlimit="10" d="M 323.082031 338.765625 C 323.082031 344.527344 314.445312 344.527344 314.445312 338.765625 C 314.445312 333.007812 323.082031 333.007812 323.082031 338.765625 "/>
<path fill="none" stroke-width="0.75" stroke-linecap="round" stroke-linejoin="round" stroke="rgb(0%, 0%, 0%)" stroke-opacity="1" stroke-miterlimit="10" d="M 326.960938 337.066406 C 326.960938 342.824219 318.324219 342.824219 318.324219 337.066406 C 318.324219 331.304688 326.960938 331.304688 326.960938 337.066406 "/>
<path fill="none" stroke-width="0.75" stroke-linecap="round" stroke-linejoin="round" stroke="rgb(0%, 0%, 0%)" stroke-opacity="1" stroke-miterlimit="10" d="M 330.839844 343.863281 C 330.839844 349.625 322.203125 349.625 322.203125 343.863281 C 322.203125 338.105469 330.839844 338.105469 330.839844 343.863281 "/>
<path fill="none" stroke-width="0.75" stroke-linecap="round" stroke-linejoin="round" stroke="rgb(0%, 0%, 0%)" stroke-opacity="1" stroke-miterlimit="10" d="M 334.71875 331.464844 C 334.71875 337.222656 326.078125 337.222656 326.078125 331.464844 C 326.078125 325.703125 334.71875 325.703125 334.71875 331.464844 "/>
<path fill="none" stroke-width="0.75" stroke-linecap="round" stroke-linejoin="round" stroke="rgb(0%, 0%, 0%)" stroke-opacity="1" stroke-miterlimit="10" d="M 338.597656 345.214844 C 338.597656 350.972656 329.957031 350.972656 329.957031 345.214844 C 329.957031 339.453125 338.597656 339.453125 338.597656 345.214844 "/>
<path fill="none" stroke-width="0.75" stroke-linecap="round" stroke-linejoin="round" stroke="rgb(0%, 0%, 0%)" stroke-opacity="1" stroke-miterlimit="10" d="M 342.476562 337.738281 C 342.476562 343.5 333.835938 343.5 333.835938 337.738281 C 333.835938 331.980469 342.476562 331.980469 342.476562 337.738281 "/>
<path fill="none" stroke-width="0.75" stroke-linecap="round" stroke-linejoin="round" stroke="rgb(0%, 0%, 0%)" stroke-opacity="1" stroke-miterlimit="10" d="M 346.355469 281.007812 C 346.355469 286.765625 337.714844 286.765625 337.714844 281.007812 C 337.714844 275.246094 346.355469 275.246094 346.355469 281.007812 "/>
<path fill="none" stroke-width="0.75" stroke-linecap="round" stroke-linejoin="round" stroke="rgb(0%, 0%, 0%)" stroke-opacity="1" stroke-miterlimit="10" d="M 350.234375 344.554688 C 350.234375 350.3125 341.59375 350.3125 341.59375 344.554688 C 341.59375 338.792969 350.234375 338.792969 350.234375 344.554688 "/>
<path fill="none" stroke-width="0.75" stroke-linecap="round" stroke-linejoin="round" stroke="rgb(0%, 0%, 0%)" stroke-opacity="1" stroke-miterlimit="10" d="M 354.113281 340.226562 C 354.113281 345.984375 345.472656 345.984375 345.472656 340.226562 C 345.472656 334.464844 354.113281 334.464844 354.113281 340.226562 "/>
<path fill="none" stroke-width="0.75" stroke-linecap="round" stroke-linejoin="round" stroke="rgb(0%, 0%, 0%)" stroke-opacity="1" stroke-miterlimit="10" d="M 357.992188 342.40625 C 357.992188 348.164062 349.351562 348.164062 349.351562 342.40625 C 349.351562 336.644531 357.992188 336.644531 357.992188 342.40625 "/>
<path fill="none" stroke-width="0.75" stroke-linecap="round" stroke-linejoin="round" stroke="rgb(0%, 0%, 0%)" stroke-opacity="1" stroke-miterlimit="10" d="M 361.871094 157.429688 C 361.871094 163.1875 353.230469 163.1875 353.230469 157.429688 C 353.230469 151.667969 361.871094 151.667969 361.871094 157.429688 "/>
<path fill="none" stroke-width="0.75" stroke-linecap="round" stroke-linejoin="round" stroke="rgb(0%, 0%, 0%)" stroke-opacity="1" stroke-miterlimit="10" d="M 365.75 337.816406 C 365.75 343.574219 357.109375 343.574219 357.109375 337.816406 C 357.109375 332.054688 365.75 332.054688 365.75 337.816406 "/>
<path fill="none" stroke-width="0.75" stroke-linecap="round" stroke-linejoin="round" stroke="rgb(0%, 0%, 0%)" stroke-opacity="1" stroke-miterlimit="10" d="M 369.628906 323.902344 C 369.628906 329.664062 360.988281 329.664062 360.988281 323.902344 C 360.988281 318.144531 369.628906 318.144531 369.628906 323.902344 "/>
<path fill="none" stroke-width="0.75" stroke-linecap="round" stroke-linejoin="round" stroke="rgb(0%, 0%, 0%)" stroke-opacity="1" stroke-miterlimit="10" d="M 373.507812 340.226562 C 373.507812 345.984375 364.867188 345.984375 364.867188 340.226562 C 364.867188 334.464844 373.507812 334.464844 373.507812 340.226562 "/>
<path fill="none" stroke-width="0.75" stroke-linecap="round" stroke-linejoin="round" stroke="rgb(0%, 0%, 0%)" stroke-opacity="1" stroke-miterlimit="10" d="M 377.386719 70.132812 C 377.386719 75.894531 368.746094 75.894531 368.746094 70.132812 C 368.746094 64.375 377.386719 64.375 377.386719 70.132812 "/>
<path fill="none" stroke-width="0.75" stroke-linecap="round" stroke-linejoin="round" stroke="rgb(0%, 0%, 0%)" stroke-opacity="1" stroke-miterlimit="10" d="M 381.265625 339.171875 C 381.265625 344.929688 372.625 344.929688 372.625 339.171875 C 372.625 333.410156 381.265625 333.410156 381.265625 339.171875 "/>
<path fill="none" stroke-width="0.75" stroke-linecap="round" stroke-linejoin="round" stroke="rgb(0%, 0%, 0%)" stroke-opacity="1" stroke-miterlimit="10" d="M 385.144531 339.171875 C 385.144531 344.929688 376.503906 344.929688 376.503906 339.171875 C 376.503906 333.410156 385.144531 333.410156 385.144531 339.171875 "/>
<path fill="none" stroke-width="0.75" stroke-linecap="round" stroke-linejoin="round" stroke="rgb(0%, 0%, 0%)" stroke-opacity="1" stroke-miterlimit="10" d="M 389.023438 288.730469 C 389.023438 294.492188 380.382812 294.492188 380.382812 288.730469 C 380.382812 282.972656 389.023438 282.972656 389.023438 288.730469 "/>
<path fill="none" stroke-width="0.75" stroke-linecap="round" stroke-linejoin="round" stroke="rgb(0%, 0%, 0%)" stroke-opacity="1" stroke-miterlimit="10" d="M 392.902344 333.925781 C 392.902344 339.683594 384.261719 339.683594 384.261719 333.925781 C 384.261719 328.164062 392.902344 328.164062 392.902344 333.925781 "/>
<path fill="none" stroke-width="0.75" stroke-linecap="round" stroke-linejoin="round" stroke="rgb(0%, 0%, 0%)" stroke-opacity="1" stroke-miterlimit="10" d="M 396.78125 312.460938 C 396.78125 318.222656 388.140625 318.222656 388.140625 312.460938 C 388.140625 306.699219 396.78125 306.699219 396.78125 312.460938 "/>
<path fill="none" stroke-width="0.75" stroke-linecap="round" stroke-linejoin="round" stroke="rgb(0%, 0%, 0%)" stroke-opacity="1" stroke-miterlimit="10" d="M 400.660156 342.765625 C 400.660156 348.527344 392.019531 348.527344 392.019531 342.765625 C 392.019531 337.007812 400.660156 337.007812 400.660156 342.765625 "/>
<path fill="none" stroke-width="0.75" stroke-linecap="round" stroke-linejoin="round" stroke="rgb(0%, 0%, 0%)" stroke-opacity="1" stroke-miterlimit="10" d="M 404.539062 342.785156 C 404.539062 348.546875 395.898438 348.546875 395.898438 342.785156 C 395.898438 337.027344 404.539062 337.027344 404.539062 342.785156 "/>
<path fill="none" stroke-width="0.75" stroke-linecap="round" stroke-linejoin="round" stroke="rgb(0%, 0%, 0%)" stroke-opacity="1" stroke-miterlimit="10" d="M 408.417969 341.304688 C 408.417969 347.066406 399.777344 347.066406 399.777344 341.304688 C 399.777344 335.542969 408.417969 335.542969 408.417969 341.304688 "/>
<path fill="none" stroke-width="0.75" stroke-linecap="round" stroke-linejoin="round" stroke="rgb(0%, 0%, 0%)" stroke-opacity="1" stroke-miterlimit="10" d="M 412.296875 335.320312 C 412.296875 341.082031 403.65625 341.082031 403.65625 335.320312 C 403.65625 329.5625 412.296875 329.5625 412.296875 335.320312 "/>
<path fill="none" stroke-width="0.75" stroke-linecap="round" stroke-linejoin="round" stroke="rgb(0%, 0%, 0%)" stroke-opacity="1" stroke-miterlimit="10" d="M 416.175781 322.949219 C 416.175781 328.710938 407.535156 328.710938 407.535156 322.949219 C 407.535156 317.191406 416.175781 317.191406 416.175781 322.949219 "/>
<path fill="none" stroke-width="0.75" stroke-linecap="round" stroke-linejoin="round" stroke="rgb(0%, 0%, 0%)" stroke-opacity="1" stroke-miterlimit="10" d="M 420.054688 342.046875 C 420.054688 347.808594 411.414062 347.808594 411.414062 342.046875 C 411.414062 336.289062 420.054688 336.289062 420.054688 342.046875 "/>
<path fill="none" stroke-width="0.75" stroke-linecap="round" stroke-linejoin="round" stroke="rgb(0%, 0%, 0%)" stroke-opacity="1" stroke-miterlimit="10" d="M 423.933594 335.28125 C 423.933594 341.039062 415.292969 341.039062 415.292969 335.28125 C 415.292969 329.519531 423.933594 329.519531 423.933594 335.28125 "/>
<path fill="none" stroke-width="0.75" stroke-linecap="round" stroke-linejoin="round" stroke="rgb(0%, 0%, 0%)" stroke-opacity="1" stroke-miterlimit="10" d="M 427.8125 322.085938 C 427.8125 327.847656 419.171875 327.847656 419.171875 322.085938 C 419.171875 316.328125 427.8125 316.328125 427.8125 322.085938 "/>
<path fill="none" stroke-width="0.75" stroke-linecap="round" stroke-linejoin="round" stroke="rgb(0%, 0%, 0%)" stroke-opacity="1" stroke-miterlimit="10" d="M 431.691406 338.148438 C 431.691406 343.910156 423.050781 343.910156 423.050781 338.148438 C 423.050781 332.390625 431.691406 332.390625 431.691406 338.148438 "/>
<path fill="none" stroke-width="0.75" stroke-linecap="round" stroke-linejoin="round" stroke="rgb(0%, 0%, 0%)" stroke-opacity="1" stroke-miterlimit="10" d="M 435.570312 283.4375 C 435.570312 289.195312 426.929688 289.195312 426.929688 283.4375 C 426.929688 277.675781 435.570312 277.675781 435.570312 283.4375 "/>
<path fill="none" stroke-width="0.75" stroke-linecap="round" stroke-linejoin="round" stroke="rgb(0%, 0%, 0%)" stroke-opacity="1" stroke-miterlimit="10" d="M 439.449219 277.710938 C 439.449219 283.46875 430.808594 283.46875 430.808594 277.710938 C 430.808594 271.949219 439.449219 271.949219 439.449219 277.710938 "/>
<path fill="none" stroke-width="0.75" stroke-linecap="round" stroke-linejoin="round" stroke="rgb(0%, 0%, 0%)" stroke-opacity="1" stroke-miterlimit="10" d="M 443.324219 344.175781 C 443.324219 349.9375 434.6875 349.9375 434.6875 344.175781 C 434.6875 338.417969 443.324219 338.417969 443.324219 344.175781 "/>
<path fill="none" stroke-width="0.75" stroke-linecap="round" stroke-linejoin="round" stroke="rgb(0%, 0%, 0%)" stroke-opacity="1" stroke-miterlimit="10" d="M 447.203125 322.949219 C 447.203125 328.710938 438.566406 328.710938 438.566406 322.949219 C 438.566406 317.191406 447.203125 317.191406 447.203125 322.949219 "/>
<path fill="none" stroke-width="0.75" stroke-linecap="round" stroke-linejoin="round" stroke="rgb(0%, 0%, 0%)" stroke-opacity="1" stroke-miterlimit="10" d="M 451.082031 337.738281 C 451.082031 343.5 442.445312 343.5 442.445312 337.738281 C 442.445312 331.980469 451.082031 331.980469 451.082031 337.738281 "/>
<path fill="none" stroke-width="0.75" stroke-linecap="round" stroke-linejoin="round" stroke="rgb(0%, 0%, 0%)" stroke-opacity="1" stroke-miterlimit="10" d="M 454.960938 345.53125 C 454.960938 351.289062 446.324219 351.289062 446.324219 345.53125 C 446.324219 339.769531 454.960938 339.769531 454.960938 345.53125 "/>
<path fill="none" stroke-width="0.75" stroke-linecap="round" stroke-linejoin="round" stroke="rgb(0%, 0%, 0%)" stroke-opacity="1" stroke-miterlimit="10" d="M 458.839844 337.816406 C 458.839844 343.574219 450.203125 343.574219 450.203125 337.816406 C 450.203125 332.054688 458.839844 332.054688 458.839844 337.816406 "/>
<path fill="none" stroke-width="0.75" stroke-linecap="round" stroke-linejoin="round" stroke="rgb(0%, 0%, 0%)" stroke-opacity="1" stroke-miterlimit="10" d="M 462.71875 229.648438 C 462.71875 235.410156 454.078125 235.410156 454.078125 229.648438 C 454.078125 223.886719 462.71875 223.886719 462.71875 229.648438 "/>
<path fill="none" stroke-width="0.75" stroke-linecap="round" stroke-linejoin="round" stroke="rgb(0%, 0%, 0%)" stroke-opacity="1" stroke-miterlimit="10" d="M 70.519531 358.558594 L 458.398438 358.558594 "/>
<path fill="none" stroke-width="0.75" stroke-linecap="round" stroke-linejoin="round" stroke="rgb(0%, 0%, 0%)" stroke-opacity="1" stroke-miterlimit="10" d="M 70.519531 358.558594 L 70.519531 365.761719 "/>
<path fill="none" stroke-width="0.75" stroke-linecap="round" stroke-linejoin="round" stroke="rgb(0%, 0%, 0%)" stroke-opacity="1" stroke-miterlimit="10" d="M 148.097656 358.558594 L 148.097656 365.761719 "/>
<path fill="none" stroke-width="0.75" stroke-linecap="round" stroke-linejoin="round" stroke="rgb(0%, 0%, 0%)" stroke-opacity="1" stroke-miterlimit="10" d="M 225.671875 358.558594 L 225.671875 365.761719 "/>
<path fill="none" stroke-width="0.75" stroke-linecap="round" stroke-linejoin="round" stroke="rgb(0%, 0%, 0%)" stroke-opacity="1" stroke-miterlimit="10" d="M 303.25 358.558594 L 303.25 365.761719 "/>
<path fill="none" stroke-width="0.75" stroke-linecap="round" stroke-linejoin="round" stroke="rgb(0%, 0%, 0%)" stroke-opacity="1" stroke-miterlimit="10" d="M 380.824219 358.558594 L 380.824219 365.761719 "/>
<path fill="none" stroke-width="0.75" stroke-linecap="round" stroke-linejoin="round" stroke="rgb(0%, 0%, 0%)" stroke-opacity="1" stroke-miterlimit="10" d="M 458.398438 358.558594 L 458.398438 365.761719 "/>
<g fill="rgb(0%, 0%, 0%)" fill-opacity="1">
<use xlink:href="#glyph-0-1" x="65.019531" y="384.264648"/>
</g>
<g fill="rgb(0%, 0%, 0%)" fill-opacity="1">
<use xlink:href="#glyph-0-2" x="137.097656" y="384.264648"/>
<use xlink:href="#glyph-0-1" x="148.097656" y="384.264648"/>
</g>
<g fill="rgb(0%, 0%, 0%)" fill-opacity="1">
<use xlink:href="#glyph-0-3" x="214.671875" y="384.264648"/>
<use xlink:href="#glyph-0-1" x="225.671875" y="384.264648"/>
</g>
<g fill="rgb(0%, 0%, 0%)" fill-opacity="1">
<use xlink:href="#glyph-0-4" x="292.25" y="384.264648"/>
<use xlink:href="#glyph-0-1" x="303.25" y="384.264648"/>
</g>
<g fill="rgb(0%, 0%, 0%)" fill-opacity="1">
<use xlink:href="#glyph-0-5" x="369.824219" y="384.264648"/>
<use xlink:href="#glyph-0-1" x="380.824219" y="384.264648"/>
</g>
<g fill="rgb(0%, 0%, 0%)" fill-opacity="1">
<use xlink:href="#glyph-0-6" x="441.898438" y="384.264648"/>
<use xlink:href="#glyph-0-1" x="452.898438" y="384.264648"/>
<use xlink:href="#glyph-0-1" x="463.898438" y="384.264648"/>
</g>
<path fill="none" stroke-width="0.75" stroke-linecap="round" stroke-linejoin="round" stroke="rgb(0%, 0%, 0%)" stroke-opacity="1" stroke-miterlimit="10" d="M 59.039062 351.457031 L 59.039062 76.953125 "/>
<path fill="none" stroke-width="0.75" stroke-linecap="round" stroke-linejoin="round" stroke="rgb(0%, 0%, 0%)" stroke-opacity="1" stroke-miterlimit="10" d="M 59.039062 351.457031 L 51.839844 351.457031 "/>
<path fill="none" stroke-width="0.75" stroke-linecap="round" stroke-linejoin="round" stroke="rgb(0%, 0%, 0%)" stroke-opacity="1" stroke-miterlimit="10" d="M 59.039062 282.832031 L 51.839844 282.832031 "/>
<path fill="none" stroke-width="0.75" stroke-linecap="round" stroke-linejoin="round" stroke="rgb(0%, 0%, 0%)" stroke-opacity="1" stroke-miterlimit="10" d="M 59.039062 214.207031 L 51.839844 214.207031 "/>
<path fill="none" stroke-width="0.75" stroke-linecap="round" stroke-linejoin="round" stroke="rgb(0%, 0%, 0%)" stroke-opacity="1" stroke-miterlimit="10" d="M 59.039062 145.578125 L 51.839844 145.578125 "/>
<path fill="none" stroke-width="0.75" stroke-linecap="round" stroke-linejoin="round" stroke="rgb(0%, 0%, 0%)" stroke-opacity="1" stroke-miterlimit="10" d="M 59.039062 76.953125 L 51.839844 76.953125 "/>
<g fill="rgb(0%, 0%, 0%)" fill-opacity="1">
<use xlink:href="#glyph-1-1" x="41.545898" y="370.457031"/>
<use xlink:href="#glyph-1-2" x="41.545898" y="359.457031"/>
<use xlink:href="#glyph-1-1" x="41.545898" y="354.457031"/>
<use xlink:href="#glyph-1-1" x="41.545898" y="343.457031"/>
</g>
<g fill="rgb(0%, 0%, 0%)" fill-opacity="1">
<use xlink:href="#glyph-1-1" x="41.545898" y="301.832031"/>
<use xlink:href="#glyph-1-2" x="41.545898" y="290.832031"/>
<use xlink:href="#glyph-1-1" x="41.545898" y="285.832031"/>
<use xlink:href="#glyph-1-3" x="41.545898" y="274.832031"/>
</g>
<g fill="rgb(0%, 0%, 0%)" fill-opacity="1">
<use xlink:href="#glyph-1-1" x="41.545898" y="233.207031"/>
<use xlink:href="#glyph-1-2" x="41.545898" y="222.207031"/>
<use xlink:href="#glyph-1-1" x="41.545898" y="217.207031"/>
<use xlink:href="#glyph-1-4" x="41.545898" y="206.207031"/>
</g>
<g fill="rgb(0%, 0%, 0%)" fill-opacity="1">
<use xlink:href="#glyph-1-1" x="41.545898" y="164.578125"/>
<use xlink:href="#glyph-1-2" x="41.545898" y="153.578125"/>
<use xlink:href="#glyph-1-1" x="41.545898" y="148.578125"/>
<use xlink:href="#glyph-1-5" x="41.545898" y="137.578125"/>
</g>
<g fill="rgb(0%, 0%, 0%)" fill-opacity="1">
<use xlink:href="#glyph-1-1" x="41.545898" y="95.953125"/>
<use xlink:href="#glyph-1-2" x="41.545898" y="84.953125"/>
<use xlink:href="#glyph-1-1" x="41.545898" y="79.953125"/>
<use xlink:href="#glyph-1-6" x="41.545898" y="68.953125"/>
</g>
<path fill="none" stroke-width="0.75" stroke-linecap="round" stroke-linejoin="round" stroke="rgb(0%, 0%, 0%)" stroke-opacity="1" stroke-miterlimit="10" d="M 59.039062 358.558594 L 473.761719 358.558594 L 473.761719 59.039062 L 59.039062 59.039062 Z M 59.039062 358.558594 "/>
<g fill="rgb(0%, 0%, 0%)" fill-opacity="1">
<use xlink:href="#glyph-0-7" x="242.398438" y="413.06543"/>
<use xlink:href="#glyph-0-8" x="247.398438" y="413.06543"/>
<use xlink:href="#glyph-0-9" x="258.398438" y="413.06543"/>
<use xlink:href="#glyph-0-10" x="269.398438" y="413.06543"/>
<use xlink:href="#glyph-0-11" x="280.398438" y="413.06543"/>
</g>
<g fill="rgb(0%, 0%, 0%)" fill-opacity="1">
<use xlink:href="#glyph-1-7" x="12.745117" y="328.800781"/>
<use xlink:href="#glyph-1-8" x="12.745117" y="318.800781"/>
<use xlink:href="#glyph-1-8" x="12.745117" y="307.800781"/>
<use xlink:href="#glyph-1-9" x="12.745117" y="296.800781"/>
<use xlink:href="#glyph-1-10" x="12.745117" y="286.800781"/>
<use xlink:href="#glyph-1-2" x="12.745117" y="276.800781"/>
<use xlink:href="#glyph-1-11" x="12.745117" y="271.800781"/>
<use xlink:href="#glyph-1-12" x="12.745117" y="260.800781"/>
<use xlink:href="#glyph-1-10" x="12.745117" y="256.800781"/>
<use xlink:href="#glyph-1-13" x="12.745117" y="246.800781"/>
<use xlink:href="#glyph-1-14" x="12.745117" y="241.800781"/>
<use xlink:href="#glyph-1-15" x="12.745117" y="230.800781"/>
<use xlink:href="#glyph-1-7" x="12.745117" y="219.800781"/>
<use xlink:href="#glyph-1-16" x="12.745117" y="209.800781"/>
<use xlink:href="#glyph-1-17" x="12.745117" y="198.800781"/>
<use xlink:href="#glyph-1-18" x="12.745117" y="192.800781"/>
<use xlink:href="#glyph-1-14" x="12.745117" y="176.800781"/>
<use xlink:href="#glyph-1-19" x="12.745117" y="165.800781"/>
<use xlink:href="#glyph-1-19" x="12.745117" y="161.800781"/>
<use xlink:href="#glyph-1-8" x="12.745117" y="157.800781"/>
<use xlink:href="#glyph-1-20" x="12.745117" y="146.800781"/>
<use xlink:href="#glyph-1-21" x="12.745117" y="132.800781"/>
<use xlink:href="#glyph-1-18" x="12.745117" y="121.800781"/>
<use xlink:href="#glyph-1-22" x="12.745117" y="105.800781"/>
<use xlink:href="#glyph-1-23" x="12.745117" y="94.800781"/>
</g>
</svg>
