<?xml version="1.0" encoding="UTF-8" standalone="no"?>
<!DOCTYPE svg PUBLIC "-//W3C//DTD SVG 1.1//EN" "http://www.w3.org/Graphics/SVG/1.1/DTD/svg11.dtd">
<svg width="100%" height="100%" viewBox="0 0 2212 1352" version="1.1" xmlns="http://www.w3.org/2000/svg" xmlns:xlink="http://www.w3.org/1999/xlink" xml:space="preserve" xmlns:serif="http://www.serif.com/" style="fill-rule:evenodd;clip-rule:evenodd;stroke-linecap:round;stroke-linejoin:round;stroke-miterlimit:1.5;">
    <g transform="matrix(1,0,0,1,-159.475,-142.162)">
        <g transform="matrix(1.3434,0,0,1.18008,330.583,762.434)">
            <path d="M1098.74,314.597L1098.74,518.067C1098.74,574.216 1058.69,619.802 1009.37,619.802L403.78,619.802C354.457,619.802 314.413,574.216 314.413,518.067L314.413,314.597C314.413,258.448 354.457,212.862 403.78,212.862L1009.37,212.862C1058.69,212.862 1098.74,258.448 1098.74,314.597Z" style="fill:rgb(187,55,37);fill-opacity:0.2;"/>
        </g>
        <g transform="matrix(1,0,0,1,4.09947,-252.836)">
            <g transform="matrix(1,0,0,1,956.076,1380.57)">
                <g transform="matrix(66.6667,0,0,66.6667,452.419,228.017)">
                    <path d="M0.209,0.012C0.174,0.012 0.14,0.006 0.109,-0.007C0.077,-0.019 0.05,-0.036 0.028,-0.058L0.066,-0.106C0.087,-0.088 0.109,-0.075 0.132,-0.066C0.155,-0.057 0.182,-0.052 0.212,-0.052C0.244,-0.052 0.268,-0.06 0.284,-0.074C0.3,-0.089 0.308,-0.107 0.308,-0.128C0.308,-0.144 0.302,-0.158 0.292,-0.169C0.281,-0.18 0.267,-0.19 0.251,-0.197C0.234,-0.205 0.216,-0.212 0.198,-0.219C0.174,-0.228 0.151,-0.238 0.129,-0.25C0.107,-0.261 0.089,-0.276 0.076,-0.294C0.062,-0.311 0.055,-0.334 0.055,-0.36C0.055,-0.399 0.07,-0.432 0.099,-0.459C0.129,-0.485 0.17,-0.498 0.223,-0.498C0.253,-0.498 0.281,-0.493 0.307,-0.483C0.333,-0.473 0.355,-0.459 0.374,-0.443L0.336,-0.396C0.319,-0.408 0.301,-0.417 0.283,-0.424C0.265,-0.431 0.245,-0.434 0.223,-0.434C0.193,-0.434 0.17,-0.427 0.156,-0.413C0.141,-0.399 0.134,-0.383 0.134,-0.364C0.134,-0.349 0.138,-0.337 0.147,-0.327C0.156,-0.318 0.168,-0.309 0.184,-0.302C0.199,-0.295 0.217,-0.288 0.237,-0.281C0.262,-0.271 0.287,-0.261 0.31,-0.249C0.332,-0.238 0.351,-0.223 0.365,-0.205C0.38,-0.186 0.387,-0.162 0.387,-0.133C0.387,-0.106 0.38,-0.082 0.366,-0.06C0.353,-0.038 0.333,-0.021 0.306,-0.008C0.28,0.005 0.248,0.012 0.209,0.012Z" style="fill-rule:nonzero;"/>
                </g>
                <g transform="matrix(66.6667,0,0,66.6667,480.362,228.017)">
                    <path d="M0.224,0.012C0.173,0.012 0.135,-0.004 0.112,-0.036C0.088,-0.069 0.076,-0.116 0.076,-0.178L0.076,-0.486L0.158,-0.486L0.158,-0.189C0.158,-0.143 0.165,-0.111 0.18,-0.09C0.194,-0.07 0.217,-0.06 0.249,-0.06C0.274,-0.06 0.296,-0.066 0.316,-0.079C0.335,-0.092 0.357,-0.113 0.38,-0.141L0.38,-0.486L0.462,-0.486L0.462,-0L0.394,-0L0.387,-0.076L0.384,-0.076C0.362,-0.049 0.338,-0.028 0.312,-0.012C0.287,0.004 0.257,0.012 0.224,0.012Z" style="fill-rule:nonzero;"/>
                </g>
                <g transform="matrix(66.6667,0,0,66.6667,516.604,228.017)">
                    <path d="M0.082,-0L0.082,-0.486L0.15,-0.486L0.157,-0.416L0.16,-0.416C0.181,-0.439 0.204,-0.458 0.23,-0.474C0.255,-0.49 0.282,-0.498 0.311,-0.498C0.348,-0.498 0.378,-0.49 0.399,-0.473C0.42,-0.457 0.435,-0.434 0.445,-0.405C0.47,-0.433 0.496,-0.455 0.522,-0.473C0.548,-0.49 0.576,-0.498 0.605,-0.498C0.656,-0.498 0.693,-0.482 0.717,-0.45C0.741,-0.417 0.753,-0.37 0.753,-0.308L0.753,-0L0.671,-0L0.671,-0.297C0.671,-0.343 0.664,-0.376 0.649,-0.396C0.635,-0.416 0.612,-0.427 0.581,-0.427C0.562,-0.427 0.542,-0.421 0.523,-0.408C0.503,-0.396 0.481,-0.377 0.459,-0.352L0.459,-0L0.377,-0L0.377,-0.297C0.377,-0.343 0.369,-0.376 0.355,-0.396C0.34,-0.416 0.317,-0.427 0.286,-0.427C0.25,-0.427 0.209,-0.402 0.164,-0.352L0.164,-0L0.082,-0Z" style="fill-rule:nonzero;"/>
                </g>
                <g transform="matrix(66.6667,0,0,66.6667,571.858,228.017)">
                    <path d="M0.082,-0L0.082,-0.486L0.15,-0.486L0.157,-0.416L0.16,-0.416C0.181,-0.439 0.204,-0.458 0.23,-0.474C0.255,-0.49 0.282,-0.498 0.311,-0.498C0.348,-0.498 0.378,-0.49 0.399,-0.473C0.42,-0.457 0.435,-0.434 0.445,-0.405C0.47,-0.433 0.496,-0.455 0.522,-0.473C0.548,-0.49 0.576,-0.498 0.605,-0.498C0.656,-0.498 0.693,-0.482 0.717,-0.45C0.741,-0.417 0.753,-0.37 0.753,-0.308L0.753,-0L0.671,-0L0.671,-0.297C0.671,-0.343 0.664,-0.376 0.649,-0.396C0.635,-0.416 0.612,-0.427 0.581,-0.427C0.562,-0.427 0.542,-0.421 0.523,-0.408C0.503,-0.396 0.481,-0.377 0.459,-0.352L0.459,-0L0.377,-0L0.377,-0.297C0.377,-0.343 0.369,-0.376 0.355,-0.396C0.34,-0.416 0.317,-0.427 0.286,-0.427C0.25,-0.427 0.209,-0.402 0.164,-0.352L0.164,-0L0.082,-0Z" style="fill-rule:nonzero;"/>
                </g>
                <g transform="matrix(66.6667,0,0,66.6667,627.112,228.017)">
                    <path d="M0.194,0.012C0.167,0.012 0.143,0.007 0.121,-0.004C0.1,-0.015 0.083,-0.031 0.07,-0.051C0.058,-0.072 0.051,-0.097 0.051,-0.126C0.051,-0.181 0.075,-0.222 0.123,-0.25C0.171,-0.278 0.247,-0.298 0.351,-0.309C0.351,-0.329 0.348,-0.349 0.342,-0.367C0.336,-0.385 0.326,-0.4 0.311,-0.412C0.297,-0.423 0.276,-0.429 0.25,-0.429C0.222,-0.429 0.196,-0.424 0.171,-0.413C0.146,-0.403 0.124,-0.392 0.105,-0.379L0.073,-0.435C0.088,-0.445 0.105,-0.455 0.125,-0.465C0.145,-0.475 0.166,-0.483 0.19,-0.489C0.213,-0.495 0.238,-0.498 0.264,-0.498C0.304,-0.498 0.336,-0.49 0.36,-0.473C0.385,-0.457 0.403,-0.434 0.415,-0.404C0.427,-0.374 0.433,-0.338 0.433,-0.298L0.433,-0L0.365,-0L0.358,-0.058L0.355,-0.058C0.331,-0.039 0.306,-0.022 0.28,-0.009C0.253,0.005 0.225,0.012 0.194,0.012ZM0.217,-0.056C0.241,-0.056 0.263,-0.062 0.284,-0.072C0.305,-0.083 0.327,-0.098 0.351,-0.119L0.351,-0.25C0.296,-0.244 0.253,-0.235 0.221,-0.224C0.189,-0.214 0.167,-0.201 0.153,-0.186C0.139,-0.17 0.132,-0.152 0.132,-0.132C0.132,-0.105 0.141,-0.085 0.157,-0.074C0.174,-0.062 0.194,-0.056 0.217,-0.056Z" style="fill-rule:nonzero;"/>
                </g>
                <g transform="matrix(66.6667,0,0,66.6667,660.739,228.017)">
                    <path d="M0.082,-0L0.082,-0.486L0.15,-0.486L0.157,-0.398L0.16,-0.398C0.176,-0.429 0.196,-0.453 0.22,-0.471C0.244,-0.489 0.27,-0.498 0.298,-0.498C0.309,-0.498 0.318,-0.497 0.326,-0.496C0.334,-0.494 0.342,-0.492 0.35,-0.488L0.332,-0.418C0.325,-0.42 0.318,-0.421 0.312,-0.422C0.305,-0.423 0.297,-0.424 0.287,-0.424C0.267,-0.424 0.245,-0.416 0.223,-0.399C0.2,-0.383 0.181,-0.354 0.164,-0.312L0.164,-0L0.082,-0Z" style="fill-rule:nonzero;"/>
                </g>
                <g transform="matrix(66.6667,0,0,66.6667,683.886,228.017)">
                    <path d="M0.082,-0L0.082,-0.486L0.164,-0.486L0.164,-0L0.082,-0ZM0.123,-0.586C0.107,-0.586 0.094,-0.591 0.084,-0.601C0.073,-0.611 0.068,-0.624 0.068,-0.64C0.068,-0.656 0.073,-0.669 0.084,-0.679C0.094,-0.689 0.107,-0.694 0.123,-0.694C0.139,-0.694 0.152,-0.689 0.163,-0.679C0.173,-0.669 0.178,-0.656 0.178,-0.64C0.178,-0.624 0.173,-0.611 0.163,-0.601C0.152,-0.591 0.139,-0.586 0.123,-0.586Z" style="fill-rule:nonzero;"/>
                </g>
                <g transform="matrix(66.6667,0,0,66.6667,700.306,228.017)">
                    <path d="M0.209,0.012C0.174,0.012 0.14,0.006 0.109,-0.007C0.077,-0.019 0.05,-0.036 0.028,-0.058L0.066,-0.106C0.087,-0.088 0.109,-0.075 0.132,-0.066C0.155,-0.057 0.182,-0.052 0.212,-0.052C0.244,-0.052 0.268,-0.06 0.284,-0.074C0.3,-0.089 0.308,-0.107 0.308,-0.128C0.308,-0.144 0.302,-0.158 0.292,-0.169C0.281,-0.18 0.267,-0.19 0.251,-0.197C0.234,-0.205 0.216,-0.212 0.198,-0.219C0.174,-0.228 0.151,-0.238 0.129,-0.25C0.107,-0.261 0.089,-0.276 0.076,-0.294C0.062,-0.311 0.055,-0.334 0.055,-0.36C0.055,-0.399 0.07,-0.432 0.099,-0.459C0.129,-0.485 0.17,-0.498 0.223,-0.498C0.253,-0.498 0.281,-0.493 0.307,-0.483C0.333,-0.473 0.355,-0.459 0.374,-0.443L0.336,-0.396C0.319,-0.408 0.301,-0.417 0.283,-0.424C0.265,-0.431 0.245,-0.434 0.223,-0.434C0.193,-0.434 0.17,-0.427 0.156,-0.413C0.141,-0.399 0.134,-0.383 0.134,-0.364C0.134,-0.349 0.138,-0.337 0.147,-0.327C0.156,-0.318 0.168,-0.309 0.184,-0.302C0.199,-0.295 0.217,-0.288 0.237,-0.281C0.262,-0.271 0.287,-0.261 0.31,-0.249C0.332,-0.238 0.351,-0.223 0.365,-0.205C0.38,-0.186 0.387,-0.162 0.387,-0.133C0.387,-0.106 0.38,-0.082 0.366,-0.06C0.353,-0.038 0.333,-0.021 0.306,-0.008C0.28,0.005 0.248,0.012 0.209,0.012Z" style="fill-rule:nonzero;"/>
                </g>
                <g transform="matrix(66.6667,0,0,66.6667,728.248,228.017)">
                    <path d="M0.279,0.012C0.236,0.012 0.196,0.002 0.161,-0.018C0.125,-0.039 0.097,-0.068 0.076,-0.106C0.056,-0.143 0.045,-0.189 0.045,-0.243C0.045,-0.296 0.056,-0.341 0.077,-0.379C0.098,-0.417 0.125,-0.447 0.159,-0.467C0.192,-0.488 0.228,-0.498 0.265,-0.498C0.306,-0.498 0.342,-0.489 0.371,-0.47C0.399,-0.451 0.421,-0.424 0.436,-0.39C0.451,-0.356 0.458,-0.316 0.458,-0.27C0.458,-0.262 0.458,-0.253 0.457,-0.245C0.457,-0.237 0.456,-0.229 0.454,-0.221L0.104,-0.221L0.104,-0.286L0.384,-0.286C0.384,-0.333 0.374,-0.369 0.354,-0.394C0.333,-0.419 0.304,-0.431 0.266,-0.431C0.244,-0.431 0.222,-0.425 0.201,-0.413C0.18,-0.4 0.162,-0.38 0.148,-0.353C0.135,-0.325 0.128,-0.289 0.128,-0.244C0.128,-0.202 0.135,-0.168 0.149,-0.14C0.164,-0.112 0.183,-0.091 0.208,-0.077C0.233,-0.062 0.26,-0.055 0.289,-0.055C0.312,-0.055 0.334,-0.059 0.354,-0.065C0.375,-0.072 0.393,-0.08 0.41,-0.092L0.44,-0.038C0.419,-0.023 0.395,-0.011 0.369,-0.002C0.342,0.007 0.312,0.012 0.279,0.012Z" style="fill-rule:nonzero;"/>
                </g>
                <g transform="matrix(66.6667,0,0,66.6667,761.3,228.017)">
                </g>
            </g>
            <g transform="matrix(1,0,0,1,669.145,1466.91)">
                <g transform="matrix(66.6667,0,0,66.6667,497.192,228.017)">
                    <path d="M0.209,0.012C0.174,0.012 0.14,0.006 0.109,-0.007C0.077,-0.019 0.05,-0.036 0.028,-0.058L0.066,-0.106C0.087,-0.088 0.109,-0.075 0.132,-0.066C0.155,-0.057 0.182,-0.052 0.212,-0.052C0.244,-0.052 0.268,-0.06 0.284,-0.074C0.3,-0.089 0.308,-0.107 0.308,-0.128C0.308,-0.144 0.302,-0.158 0.292,-0.169C0.281,-0.18 0.267,-0.19 0.251,-0.197C0.234,-0.205 0.216,-0.212 0.198,-0.219C0.174,-0.228 0.151,-0.238 0.129,-0.25C0.107,-0.261 0.089,-0.276 0.076,-0.294C0.062,-0.311 0.055,-0.334 0.055,-0.36C0.055,-0.399 0.07,-0.432 0.099,-0.459C0.129,-0.485 0.17,-0.498 0.223,-0.498C0.253,-0.498 0.281,-0.493 0.307,-0.483C0.333,-0.473 0.355,-0.459 0.374,-0.443L0.336,-0.396C0.319,-0.408 0.301,-0.417 0.283,-0.424C0.265,-0.431 0.245,-0.434 0.223,-0.434C0.193,-0.434 0.17,-0.427 0.156,-0.413C0.141,-0.399 0.134,-0.383 0.134,-0.364C0.134,-0.349 0.138,-0.337 0.147,-0.327C0.156,-0.318 0.168,-0.309 0.184,-0.302C0.199,-0.295 0.217,-0.288 0.237,-0.281C0.262,-0.271 0.287,-0.261 0.31,-0.249C0.332,-0.238 0.351,-0.223 0.365,-0.205C0.38,-0.186 0.387,-0.162 0.387,-0.133C0.387,-0.106 0.38,-0.082 0.366,-0.06C0.353,-0.038 0.333,-0.021 0.306,-0.008C0.28,0.005 0.248,0.012 0.209,0.012Z" style="fill-rule:nonzero;"/>
                </g>
                <g transform="matrix(66.6667,0,0,66.6667,525.135,228.017)">
                    <path d="M0.279,0.012C0.236,0.012 0.196,0.002 0.161,-0.018C0.125,-0.039 0.097,-0.068 0.076,-0.106C0.056,-0.143 0.045,-0.189 0.045,-0.243C0.045,-0.296 0.056,-0.341 0.077,-0.379C0.098,-0.417 0.125,-0.447 0.159,-0.467C0.192,-0.488 0.228,-0.498 0.265,-0.498C0.306,-0.498 0.342,-0.489 0.371,-0.47C0.399,-0.451 0.421,-0.424 0.436,-0.39C0.451,-0.356 0.458,-0.316 0.458,-0.27C0.458,-0.262 0.458,-0.253 0.457,-0.245C0.457,-0.237 0.456,-0.229 0.454,-0.221L0.104,-0.221L0.104,-0.286L0.384,-0.286C0.384,-0.333 0.374,-0.369 0.354,-0.394C0.333,-0.419 0.304,-0.431 0.266,-0.431C0.244,-0.431 0.222,-0.425 0.201,-0.413C0.18,-0.4 0.162,-0.38 0.148,-0.353C0.135,-0.325 0.128,-0.289 0.128,-0.244C0.128,-0.202 0.135,-0.168 0.149,-0.14C0.164,-0.112 0.183,-0.091 0.208,-0.077C0.233,-0.062 0.26,-0.055 0.289,-0.055C0.312,-0.055 0.334,-0.059 0.354,-0.065C0.375,-0.072 0.393,-0.08 0.41,-0.092L0.44,-0.038C0.419,-0.023 0.395,-0.011 0.369,-0.002C0.342,0.007 0.312,0.012 0.279,0.012Z" style="fill-rule:nonzero;"/>
                </g>
                <g transform="matrix(66.6667,0,0,66.6667,558.187,228.017)">
                    <path d="M0.169,0.009C0.149,0.009 0.132,0.005 0.119,-0.003C0.106,-0.012 0.097,-0.024 0.091,-0.04C0.085,-0.057 0.082,-0.077 0.082,-0.1L0.082,-0.712L0.164,-0.712L0.164,-0.094C0.164,-0.081 0.166,-0.072 0.171,-0.067C0.176,-0.062 0.182,-0.059 0.188,-0.059C0.191,-0.059 0.193,-0.059 0.196,-0.06C0.198,-0.06 0.201,-0.061 0.205,-0.061L0.217,0.001C0.211,0.003 0.204,0.005 0.196,0.007C0.188,0.008 0.179,0.009 0.169,0.009Z" style="fill-rule:nonzero;"/>
                </g>
                <g transform="matrix(66.6667,0,0,66.6667,575.197,228.017)">
                    <path d="M0.096,-0L0.096,-0.563C0.096,-0.596 0.101,-0.625 0.111,-0.649C0.121,-0.673 0.137,-0.691 0.158,-0.705C0.179,-0.718 0.205,-0.724 0.238,-0.724C0.253,-0.724 0.267,-0.723 0.282,-0.72C0.296,-0.717 0.308,-0.713 0.319,-0.708L0.301,-0.648C0.282,-0.654 0.264,-0.657 0.246,-0.657C0.224,-0.657 0.206,-0.649 0.195,-0.633C0.184,-0.618 0.178,-0.594 0.178,-0.563L0.178,-0L0.096,-0ZM0.024,-0.419L0.024,-0.481L0.1,-0.486L0.281,-0.486L0.281,-0.419L0.024,-0.419Z" style="fill-rule:nonzero;"/>
                </g>
                <g transform="matrix(66.6667,0,0,66.6667,593.713,228.017)">
                    <rect x="0.041" y="-0.282" width="0.229" height="0.063" style="fill-rule:nonzero;"/>
                </g>
                <g transform="matrix(66.6667,0,0,66.6667,612.708,228.017)">
                    <path d="M0.235,0.009C0.183,0.009 0.147,-0.006 0.127,-0.036C0.106,-0.066 0.096,-0.105 0.096,-0.153L0.096,-0.419L0.024,-0.419L0.024,-0.481L0.1,-0.486L0.11,-0.642L0.179,-0.642L0.179,-0.486L0.311,-0.486L0.311,-0.419L0.179,-0.419L0.179,-0.152C0.179,-0.122 0.184,-0.099 0.196,-0.083C0.207,-0.066 0.226,-0.058 0.254,-0.058C0.263,-0.058 0.272,-0.059 0.281,-0.061C0.29,-0.062 0.299,-0.066 0.309,-0.07L0.327,-0.012C0.314,-0.006 0.3,-0.001 0.284,0.003C0.268,0.007 0.252,0.009 0.235,0.009Z" style="fill-rule:nonzero;"/>
                </g>
                <g transform="matrix(66.6667,0,0,66.6667,634.32,228.017)">
                    <path d="M0.279,0.012C0.236,0.012 0.196,0.002 0.161,-0.018C0.125,-0.039 0.097,-0.068 0.076,-0.106C0.056,-0.143 0.045,-0.189 0.045,-0.243C0.045,-0.296 0.056,-0.341 0.077,-0.379C0.098,-0.417 0.125,-0.447 0.159,-0.467C0.192,-0.488 0.228,-0.498 0.265,-0.498C0.306,-0.498 0.342,-0.489 0.371,-0.47C0.399,-0.451 0.421,-0.424 0.436,-0.39C0.451,-0.356 0.458,-0.316 0.458,-0.27C0.458,-0.262 0.458,-0.253 0.457,-0.245C0.457,-0.237 0.456,-0.229 0.454,-0.221L0.104,-0.221L0.104,-0.286L0.384,-0.286C0.384,-0.333 0.374,-0.369 0.354,-0.394C0.333,-0.419 0.304,-0.431 0.266,-0.431C0.244,-0.431 0.222,-0.425 0.201,-0.413C0.18,-0.4 0.162,-0.38 0.148,-0.353C0.135,-0.325 0.128,-0.289 0.128,-0.244C0.128,-0.202 0.135,-0.168 0.149,-0.14C0.164,-0.112 0.183,-0.091 0.208,-0.077C0.233,-0.062 0.26,-0.055 0.289,-0.055C0.312,-0.055 0.334,-0.059 0.354,-0.065C0.375,-0.072 0.393,-0.08 0.41,-0.092L0.44,-0.038C0.419,-0.023 0.395,-0.011 0.369,-0.002C0.342,0.007 0.312,0.012 0.279,0.012Z" style="fill-rule:nonzero;"/>
                </g>
                <g transform="matrix(66.6667,0,0,66.6667,667.373,228.017)">
                    <path d="M0.209,0.012C0.174,0.012 0.14,0.006 0.109,-0.007C0.077,-0.019 0.05,-0.036 0.028,-0.058L0.066,-0.106C0.087,-0.088 0.109,-0.075 0.132,-0.066C0.155,-0.057 0.182,-0.052 0.212,-0.052C0.244,-0.052 0.268,-0.06 0.284,-0.074C0.3,-0.089 0.308,-0.107 0.308,-0.128C0.308,-0.144 0.302,-0.158 0.292,-0.169C0.281,-0.18 0.267,-0.19 0.251,-0.197C0.234,-0.205 0.216,-0.212 0.198,-0.219C0.174,-0.228 0.151,-0.238 0.129,-0.25C0.107,-0.261 0.089,-0.276 0.076,-0.294C0.062,-0.311 0.055,-0.334 0.055,-0.36C0.055,-0.399 0.07,-0.432 0.099,-0.459C0.129,-0.485 0.17,-0.498 0.223,-0.498C0.253,-0.498 0.281,-0.493 0.307,-0.483C0.333,-0.473 0.355,-0.459 0.374,-0.443L0.336,-0.396C0.319,-0.408 0.301,-0.417 0.283,-0.424C0.265,-0.431 0.245,-0.434 0.223,-0.434C0.193,-0.434 0.17,-0.427 0.156,-0.413C0.141,-0.399 0.134,-0.383 0.134,-0.364C0.134,-0.349 0.138,-0.337 0.147,-0.327C0.156,-0.318 0.168,-0.309 0.184,-0.302C0.199,-0.295 0.217,-0.288 0.237,-0.281C0.262,-0.271 0.287,-0.261 0.31,-0.249C0.332,-0.238 0.351,-0.223 0.365,-0.205C0.38,-0.186 0.387,-0.162 0.387,-0.133C0.387,-0.106 0.38,-0.082 0.366,-0.06C0.353,-0.038 0.333,-0.021 0.306,-0.008C0.28,0.005 0.248,0.012 0.209,0.012Z" style="fill-rule:nonzero;"/>
                </g>
                <g transform="matrix(66.6667,0,0,66.6667,693.982,228.017)">
                    <path d="M0.235,0.009C0.183,0.009 0.147,-0.006 0.127,-0.036C0.106,-0.066 0.096,-0.105 0.096,-0.153L0.096,-0.419L0.024,-0.419L0.024,-0.481L0.1,-0.486L0.11,-0.642L0.179,-0.642L0.179,-0.486L0.311,-0.486L0.311,-0.419L0.179,-0.419L0.179,-0.152C0.179,-0.122 0.184,-0.099 0.196,-0.083C0.207,-0.066 0.226,-0.058 0.254,-0.058C0.263,-0.058 0.272,-0.059 0.281,-0.061C0.29,-0.062 0.299,-0.066 0.309,-0.07L0.327,-0.012C0.314,-0.006 0.3,-0.001 0.284,0.003C0.268,0.007 0.252,0.009 0.235,0.009Z" style="fill-rule:nonzero;"/>
                </g>
                <g transform="matrix(66.6667,0,0,66.6667,716.528,228.017)">
                </g>
            </g>
            <g transform="matrix(1,0,0,1,647.891,1301.85)">
                <g transform="matrix(66.6667,0,0,66.6667,291.506,306.738)">
                    <path d="M0.082,-0L0.082,-0.486L0.15,-0.486L0.157,-0.398L0.16,-0.398C0.176,-0.429 0.196,-0.453 0.22,-0.471C0.244,-0.489 0.27,-0.498 0.298,-0.498C0.309,-0.498 0.318,-0.497 0.326,-0.496C0.334,-0.494 0.342,-0.492 0.35,-0.488L0.332,-0.418C0.325,-0.42 0.318,-0.421 0.312,-0.422C0.305,-0.423 0.297,-0.424 0.287,-0.424C0.267,-0.424 0.245,-0.416 0.223,-0.399C0.2,-0.383 0.181,-0.354 0.164,-0.312L0.164,-0L0.082,-0Z" style="fill-rule:nonzero;"/>
                </g>
                <g transform="matrix(66.6667,0,0,66.6667,313.987,306.738)">
                    <path d="M0.279,0.012C0.236,0.012 0.196,0.002 0.161,-0.018C0.125,-0.039 0.097,-0.068 0.076,-0.106C0.056,-0.143 0.045,-0.189 0.045,-0.243C0.045,-0.296 0.056,-0.341 0.077,-0.379C0.098,-0.417 0.125,-0.447 0.159,-0.467C0.192,-0.488 0.228,-0.498 0.265,-0.498C0.306,-0.498 0.342,-0.489 0.371,-0.47C0.399,-0.451 0.421,-0.424 0.436,-0.39C0.451,-0.356 0.458,-0.316 0.458,-0.27C0.458,-0.262 0.458,-0.253 0.457,-0.245C0.457,-0.237 0.456,-0.229 0.454,-0.221L0.104,-0.221L0.104,-0.286L0.384,-0.286C0.384,-0.333 0.374,-0.369 0.354,-0.394C0.333,-0.419 0.304,-0.431 0.266,-0.431C0.244,-0.431 0.222,-0.425 0.201,-0.413C0.18,-0.4 0.162,-0.38 0.148,-0.353C0.135,-0.325 0.128,-0.289 0.128,-0.244C0.128,-0.202 0.135,-0.168 0.149,-0.14C0.164,-0.112 0.183,-0.091 0.208,-0.077C0.233,-0.062 0.26,-0.055 0.289,-0.055C0.312,-0.055 0.334,-0.059 0.354,-0.065C0.375,-0.072 0.393,-0.08 0.41,-0.092L0.44,-0.038C0.419,-0.023 0.395,-0.011 0.369,-0.002C0.342,0.007 0.312,0.012 0.279,0.012Z" style="fill-rule:nonzero;"/>
                </g>
                <g transform="matrix(66.6667,0,0,66.6667,346.106,306.738)">
                    <path d="M0.194,0.012C0.167,0.012 0.143,0.007 0.121,-0.004C0.1,-0.015 0.083,-0.031 0.07,-0.051C0.058,-0.072 0.051,-0.097 0.051,-0.126C0.051,-0.181 0.075,-0.222 0.123,-0.25C0.171,-0.278 0.247,-0.298 0.351,-0.309C0.351,-0.329 0.348,-0.349 0.342,-0.367C0.336,-0.385 0.326,-0.4 0.311,-0.412C0.297,-0.423 0.276,-0.429 0.25,-0.429C0.222,-0.429 0.196,-0.424 0.171,-0.413C0.146,-0.403 0.124,-0.392 0.105,-0.379L0.073,-0.435C0.088,-0.445 0.105,-0.455 0.125,-0.465C0.145,-0.475 0.166,-0.483 0.19,-0.489C0.213,-0.495 0.238,-0.498 0.264,-0.498C0.304,-0.498 0.336,-0.49 0.36,-0.473C0.385,-0.457 0.403,-0.434 0.415,-0.404C0.427,-0.374 0.433,-0.338 0.433,-0.298L0.433,-0L0.365,-0L0.358,-0.058L0.355,-0.058C0.331,-0.039 0.306,-0.022 0.28,-0.009C0.253,0.005 0.225,0.012 0.194,0.012ZM0.217,-0.056C0.241,-0.056 0.263,-0.062 0.284,-0.072C0.305,-0.083 0.327,-0.098 0.351,-0.119L0.351,-0.25C0.296,-0.244 0.253,-0.235 0.221,-0.224C0.189,-0.214 0.167,-0.201 0.153,-0.186C0.139,-0.17 0.132,-0.152 0.132,-0.132C0.132,-0.105 0.141,-0.085 0.157,-0.074C0.174,-0.062 0.194,-0.056 0.217,-0.056Z" style="fill-rule:nonzero;"/>
                </g>
                <g transform="matrix(66.6667,0,0,66.6667,379.733,306.738)">
                    <path d="M0.248,0.012C0.187,0.012 0.138,-0.01 0.102,-0.055C0.066,-0.099 0.047,-0.162 0.047,-0.242C0.047,-0.295 0.057,-0.34 0.077,-0.378C0.097,-0.417 0.122,-0.446 0.154,-0.467C0.186,-0.488 0.221,-0.498 0.258,-0.498C0.286,-0.498 0.311,-0.493 0.332,-0.483C0.352,-0.473 0.373,-0.46 0.394,-0.442L0.39,-0.525L0.39,-0.712L0.473,-0.712L0.473,-0L0.405,-0L0.398,-0.057L0.395,-0.057C0.376,-0.039 0.354,-0.022 0.329,-0.009C0.304,0.005 0.277,0.012 0.248,0.012ZM0.266,-0.057C0.288,-0.057 0.31,-0.063 0.33,-0.074C0.35,-0.085 0.37,-0.102 0.39,-0.124L0.39,-0.378C0.37,-0.397 0.35,-0.41 0.331,-0.418C0.312,-0.425 0.292,-0.429 0.272,-0.429C0.246,-0.429 0.223,-0.421 0.202,-0.406C0.181,-0.39 0.164,-0.369 0.151,-0.341C0.139,-0.313 0.132,-0.28 0.132,-0.243C0.132,-0.185 0.144,-0.139 0.167,-0.107C0.19,-0.074 0.223,-0.057 0.266,-0.057Z" style="fill-rule:nonzero;"/>
                </g>
                <g transform="matrix(66.6667,0,0,66.6667,416.714,306.738)">
                </g>
            </g>
            <g transform="matrix(1.41623,0,0,1,280.653,1052.61)">
                <path d="M549.688,472.528L702.601,345.796L855.513,472.528" style="fill:none;stroke:black;stroke-width:6.8px;"/>
            </g>
            <path d="M1275.7,1398.4L1275.7,1609.39" style="fill:none;stroke:black;stroke-width:8.33px;"/>
            <g transform="matrix(1,0,0,1,670.462,1136.49)">
                <g transform="matrix(66.6667,0,0,66.6667,408.227,228.017)">
                    <path d="M0.21,0.012C0.176,0.012 0.142,0.006 0.109,-0.007C0.076,-0.019 0.048,-0.037 0.024,-0.06L0.075,-0.126C0.097,-0.108 0.119,-0.095 0.142,-0.087C0.164,-0.079 0.188,-0.075 0.214,-0.075C0.24,-0.075 0.26,-0.08 0.273,-0.092C0.286,-0.103 0.292,-0.117 0.292,-0.134C0.292,-0.147 0.288,-0.159 0.278,-0.168C0.268,-0.177 0.255,-0.185 0.24,-0.192C0.224,-0.199 0.207,-0.205 0.189,-0.212C0.165,-0.221 0.143,-0.231 0.122,-0.244C0.101,-0.256 0.084,-0.272 0.071,-0.29C0.058,-0.308 0.052,-0.33 0.052,-0.356C0.052,-0.399 0.068,-0.435 0.1,-0.462C0.132,-0.489 0.176,-0.503 0.23,-0.503C0.264,-0.503 0.294,-0.498 0.322,-0.487C0.35,-0.476 0.374,-0.462 0.394,-0.444L0.343,-0.379C0.326,-0.391 0.308,-0.401 0.29,-0.407C0.272,-0.413 0.253,-0.416 0.233,-0.416C0.208,-0.416 0.19,-0.411 0.178,-0.4C0.166,-0.39 0.16,-0.377 0.16,-0.362C0.16,-0.35 0.164,-0.34 0.172,-0.332C0.18,-0.323 0.191,-0.316 0.205,-0.31C0.22,-0.304 0.237,-0.297 0.258,-0.29C0.283,-0.281 0.307,-0.271 0.329,-0.258C0.351,-0.246 0.368,-0.23 0.381,-0.212C0.395,-0.193 0.401,-0.169 0.401,-0.14C0.401,-0.112 0.394,-0.087 0.379,-0.064C0.365,-0.041 0.343,-0.022 0.315,-0.009C0.287,0.005 0.252,0.012 0.21,0.012Z" style="fill-rule:nonzero;"/>
                </g>
                <g transform="matrix(66.6667,0,0,66.6667,435.64,228.017)">
                    <path d="M0.246,0.01C0.189,0.01 0.149,-0.007 0.126,-0.04C0.102,-0.073 0.09,-0.115 0.09,-0.168L0.09,-0.4L0.02,-0.4L0.02,-0.486L0.096,-0.491L0.11,-0.645L0.206,-0.645L0.206,-0.491L0.331,-0.491L0.331,-0.4L0.206,-0.4L0.206,-0.168C0.206,-0.139 0.212,-0.118 0.223,-0.104C0.234,-0.089 0.252,-0.082 0.275,-0.082C0.284,-0.082 0.292,-0.083 0.301,-0.084C0.31,-0.085 0.318,-0.088 0.326,-0.092L0.347,-0.011C0.334,-0.005 0.319,0 0.302,0.004C0.285,0.008 0.266,0.01 0.246,0.01Z" style="fill-rule:nonzero;"/>
                </g>
                <g transform="matrix(66.6667,0,0,66.6667,459.707,228.017)">
                    <path d="M0.219,0.012C0.166,0.012 0.128,-0.005 0.104,-0.039C0.08,-0.073 0.068,-0.121 0.068,-0.183L0.068,-0.491L0.183,-0.491L0.183,-0.198C0.183,-0.157 0.189,-0.129 0.201,-0.112C0.213,-0.095 0.232,-0.087 0.259,-0.087C0.28,-0.087 0.299,-0.092 0.316,-0.103C0.332,-0.114 0.349,-0.131 0.368,-0.155L0.368,-0.491L0.483,-0.491L0.483,-0L0.389,-0L0.38,-0.072L0.377,-0.072C0.356,-0.047 0.332,-0.026 0.307,-0.011C0.282,0.004 0.252,0.012 0.219,0.012Z" style="fill-rule:nonzero;"/>
                </g>
                <g transform="matrix(66.6667,0,0,66.6667,496.773,228.017)">
                    <path d="M0.245,0.012C0.184,0.012 0.135,-0.011 0.098,-0.056C0.062,-0.102 0.043,-0.165 0.043,-0.245C0.043,-0.299 0.053,-0.344 0.073,-0.383C0.092,-0.421 0.118,-0.451 0.15,-0.472C0.182,-0.493 0.215,-0.503 0.251,-0.503C0.279,-0.503 0.303,-0.498 0.323,-0.489C0.342,-0.479 0.361,-0.466 0.38,-0.449L0.376,-0.528L0.376,-0.706L0.491,-0.706L0.491,-0L0.396,-0L0.388,-0.053L0.384,-0.053C0.366,-0.035 0.345,-0.02 0.321,-0.007C0.297,0.006 0.271,0.012 0.245,0.012ZM0.273,-0.083C0.292,-0.083 0.31,-0.088 0.327,-0.097C0.343,-0.105 0.36,-0.119 0.376,-0.138L0.376,-0.367C0.359,-0.382 0.342,-0.393 0.326,-0.399C0.309,-0.405 0.293,-0.408 0.276,-0.408C0.255,-0.408 0.236,-0.402 0.219,-0.389C0.201,-0.377 0.188,-0.358 0.177,-0.334C0.167,-0.31 0.162,-0.281 0.162,-0.246C0.162,-0.193 0.171,-0.153 0.191,-0.125C0.211,-0.097 0.238,-0.083 0.273,-0.083Z" style="fill-rule:nonzero;"/>
                </g>
                <g transform="matrix(66.6667,0,0,66.6667,534.373,228.017)">
                    <path d="M0.106,0.202C0.092,0.202 0.081,0.201 0.071,0.199C0.06,0.197 0.051,0.194 0.042,0.19L0.064,0.104C0.071,0.106 0.077,0.107 0.082,0.108C0.088,0.109 0.093,0.109 0.098,0.109C0.124,0.109 0.145,0.101 0.161,0.085C0.176,0.069 0.188,0.049 0.196,0.025L0.205,-0.006L0.012,-0.491L0.129,-0.491L0.214,-0.25C0.221,-0.229 0.229,-0.206 0.236,-0.183C0.243,-0.159 0.25,-0.135 0.257,-0.112L0.261,-0.112C0.267,-0.135 0.274,-0.158 0.28,-0.181C0.286,-0.205 0.292,-0.228 0.298,-0.25L0.372,-0.491L0.483,-0.491L0.305,0.022C0.292,0.059 0.276,0.091 0.259,0.118C0.242,0.145 0.221,0.165 0.196,0.18C0.172,0.194 0.141,0.202 0.106,0.202Z" style="fill-rule:nonzero;"/>
                </g>
                <g transform="matrix(66.6667,0,0,66.6667,567.36,228.017)">
                </g>
                <g transform="matrix(66.6667,0,0,66.6667,580.693,228.017)">
                    <path d="M0.073,-0L0.073,-0.491L0.168,-0.491L0.176,-0.424L0.18,-0.424C0.2,-0.446 0.223,-0.465 0.248,-0.48C0.272,-0.495 0.3,-0.503 0.33,-0.503C0.367,-0.503 0.395,-0.495 0.417,-0.48C0.438,-0.464 0.455,-0.443 0.466,-0.415C0.49,-0.441 0.514,-0.462 0.539,-0.478C0.565,-0.495 0.593,-0.503 0.624,-0.503C0.676,-0.503 0.714,-0.486 0.739,-0.452C0.763,-0.418 0.776,-0.37 0.776,-0.308L0.776,-0L0.66,-0L0.66,-0.293C0.66,-0.334 0.654,-0.362 0.642,-0.379C0.63,-0.396 0.611,-0.404 0.585,-0.404C0.569,-0.404 0.553,-0.399 0.536,-0.389C0.519,-0.379 0.501,-0.364 0.482,-0.343L0.482,-0L0.367,-0L0.367,-0.293C0.367,-0.334 0.361,-0.362 0.349,-0.379C0.336,-0.396 0.317,-0.404 0.291,-0.404C0.26,-0.404 0.226,-0.384 0.188,-0.343L0.188,-0L0.073,-0Z" style="fill-rule:nonzero;"/>
                </g>
                <g transform="matrix(66.6667,0,0,66.6667,636.906,228.017)">
                    <path d="M0.284,0.012C0.238,0.012 0.197,0.002 0.16,-0.019C0.123,-0.039 0.093,-0.068 0.072,-0.107C0.051,-0.145 0.04,-0.191 0.04,-0.246C0.04,-0.299 0.051,-0.345 0.073,-0.384C0.095,-0.422 0.123,-0.451 0.158,-0.472C0.193,-0.493 0.229,-0.503 0.268,-0.503C0.313,-0.503 0.35,-0.493 0.38,-0.473C0.41,-0.453 0.432,-0.426 0.448,-0.391C0.463,-0.356 0.47,-0.315 0.47,-0.27C0.47,-0.259 0.47,-0.249 0.469,-0.239C0.468,-0.229 0.466,-0.219 0.464,-0.21L0.126,-0.21L0.126,-0.298L0.368,-0.298C0.368,-0.333 0.36,-0.361 0.344,-0.382C0.328,-0.402 0.303,-0.412 0.27,-0.412C0.251,-0.412 0.233,-0.407 0.216,-0.397C0.198,-0.387 0.183,-0.37 0.172,-0.346C0.16,-0.322 0.154,-0.289 0.154,-0.246C0.154,-0.207 0.161,-0.176 0.174,-0.152C0.187,-0.127 0.205,-0.109 0.227,-0.098C0.249,-0.086 0.273,-0.08 0.298,-0.08C0.319,-0.08 0.339,-0.083 0.359,-0.089C0.378,-0.095 0.395,-0.103 0.412,-0.114L0.452,-0.04C0.429,-0.024 0.403,-0.011 0.375,-0.002C0.345,0.007 0.315,0.012 0.284,0.012Z" style="fill-rule:nonzero;"/>
                </g>
                <g transform="matrix(66.6667,0,0,66.6667,670.04,228.017)">
                    <path d="M0.246,0.01C0.189,0.01 0.149,-0.007 0.126,-0.04C0.102,-0.073 0.09,-0.115 0.09,-0.168L0.09,-0.4L0.02,-0.4L0.02,-0.486L0.096,-0.491L0.11,-0.645L0.206,-0.645L0.206,-0.491L0.331,-0.491L0.331,-0.4L0.206,-0.4L0.206,-0.168C0.206,-0.139 0.212,-0.118 0.223,-0.104C0.234,-0.089 0.252,-0.082 0.275,-0.082C0.284,-0.082 0.292,-0.083 0.301,-0.084C0.31,-0.085 0.318,-0.088 0.326,-0.092L0.347,-0.011C0.334,-0.005 0.319,0 0.302,0.004C0.285,0.008 0.266,0.01 0.246,0.01Z" style="fill-rule:nonzero;"/>
                </g>
                <g transform="matrix(66.6667,0,0,66.6667,694.106,228.017)">
                    <path d="M0.073,-0L0.073,-0.706L0.188,-0.706L0.188,-0.524L0.184,-0.429C0.204,-0.448 0.227,-0.466 0.253,-0.481C0.278,-0.496 0.307,-0.503 0.341,-0.503C0.394,-0.503 0.432,-0.486 0.456,-0.452C0.48,-0.418 0.492,-0.37 0.492,-0.308L0.492,-0L0.377,-0L0.377,-0.293C0.377,-0.334 0.371,-0.362 0.359,-0.379C0.347,-0.396 0.327,-0.404 0.3,-0.404C0.279,-0.404 0.26,-0.399 0.244,-0.389C0.227,-0.378 0.209,-0.363 0.188,-0.343L0.188,-0L0.073,-0Z" style="fill-rule:nonzero;"/>
                </g>
                <g transform="matrix(66.6667,0,0,66.6667,731.306,228.017)">
                    <path d="M0.274,0.012C0.234,0.012 0.195,0.002 0.16,-0.018C0.124,-0.039 0.096,-0.068 0.074,-0.106C0.052,-0.145 0.041,-0.191 0.041,-0.245C0.041,-0.3 0.052,-0.346 0.074,-0.385C0.096,-0.423 0.124,-0.453 0.16,-0.473C0.195,-0.493 0.234,-0.503 0.274,-0.503C0.315,-0.503 0.353,-0.493 0.389,-0.473C0.424,-0.453 0.453,-0.423 0.475,-0.385C0.497,-0.346 0.508,-0.3 0.508,-0.245C0.508,-0.191 0.497,-0.145 0.475,-0.106C0.453,-0.068 0.424,-0.039 0.389,-0.018C0.353,0.002 0.315,0.012 0.274,0.012ZM0.274,-0.082C0.298,-0.082 0.319,-0.089 0.336,-0.102C0.354,-0.116 0.367,-0.135 0.376,-0.159C0.385,-0.184 0.39,-0.212 0.39,-0.245C0.39,-0.278 0.385,-0.307 0.376,-0.331C0.367,-0.356 0.354,-0.375 0.336,-0.389C0.319,-0.402 0.298,-0.409 0.274,-0.409C0.25,-0.409 0.23,-0.402 0.213,-0.389C0.195,-0.375 0.182,-0.356 0.173,-0.331C0.164,-0.307 0.159,-0.278 0.159,-0.245C0.159,-0.212 0.164,-0.184 0.173,-0.159C0.182,-0.135 0.195,-0.116 0.213,-0.102C0.23,-0.089 0.25,-0.082 0.274,-0.082Z" style="fill-rule:nonzero;"/>
                </g>
                <g transform="matrix(66.6667,0,0,66.6667,767.893,228.017)">
                    <path d="M0.245,0.012C0.184,0.012 0.135,-0.011 0.098,-0.056C0.062,-0.102 0.043,-0.165 0.043,-0.245C0.043,-0.299 0.053,-0.344 0.073,-0.383C0.092,-0.421 0.118,-0.451 0.15,-0.472C0.182,-0.493 0.215,-0.503 0.251,-0.503C0.279,-0.503 0.303,-0.498 0.323,-0.489C0.342,-0.479 0.361,-0.466 0.38,-0.449L0.376,-0.528L0.376,-0.706L0.491,-0.706L0.491,-0L0.396,-0L0.388,-0.053L0.384,-0.053C0.366,-0.035 0.345,-0.02 0.321,-0.007C0.297,0.006 0.271,0.012 0.245,0.012ZM0.273,-0.083C0.292,-0.083 0.31,-0.088 0.327,-0.097C0.343,-0.105 0.36,-0.119 0.376,-0.138L0.376,-0.367C0.359,-0.382 0.342,-0.393 0.326,-0.399C0.309,-0.405 0.293,-0.408 0.276,-0.408C0.255,-0.408 0.236,-0.402 0.219,-0.389C0.201,-0.377 0.188,-0.358 0.177,-0.334C0.167,-0.31 0.162,-0.281 0.162,-0.246C0.162,-0.193 0.171,-0.153 0.191,-0.125C0.211,-0.097 0.238,-0.083 0.273,-0.083Z" style="fill-rule:nonzero;"/>
                </g>
                <g transform="matrix(66.6667,0,0,66.6667,805.493,228.017)">
                </g>
            </g>
        </g>
    </g>
    <g transform="matrix(1,0,0,1,-54.4029,-199.992)">
        <g transform="matrix(1.3434,0,0,1.18008,-367.979,-51.2022)">
            <path d="M1098.74,314.597L1098.74,518.067C1098.74,574.216 1058.69,619.802 1009.37,619.802L403.78,619.802C354.457,619.802 314.413,574.216 314.413,518.067L314.413,314.597C314.413,258.448 354.457,212.862 403.78,212.862L1009.37,212.862C1058.69,212.862 1098.74,258.448 1098.74,314.597Z" style="fill:rgb(187,55,37);fill-opacity:0.2;"/>
        </g>
        <g>
            <g transform="matrix(1,0,0,1,-24.0008,63.0188)">
                <g transform="matrix(66.6667,0,0,66.6667,507.947,228.017)">
                    <path d="M0.192,0.012C0.163,0.012 0.138,0.006 0.116,-0.006C0.094,-0.018 0.077,-0.035 0.065,-0.057C0.052,-0.078 0.046,-0.103 0.046,-0.132C0.046,-0.187 0.069,-0.229 0.116,-0.258C0.162,-0.286 0.235,-0.305 0.336,-0.316C0.335,-0.333 0.332,-0.348 0.327,-0.362C0.321,-0.376 0.312,-0.387 0.299,-0.396C0.286,-0.404 0.268,-0.408 0.246,-0.408C0.222,-0.408 0.199,-0.404 0.176,-0.395C0.153,-0.386 0.13,-0.375 0.108,-0.362L0.066,-0.44C0.084,-0.451 0.104,-0.462 0.125,-0.472C0.146,-0.481 0.169,-0.489 0.193,-0.495C0.217,-0.5 0.242,-0.503 0.268,-0.503C0.309,-0.503 0.343,-0.495 0.37,-0.479C0.397,-0.462 0.417,-0.438 0.431,-0.407C0.444,-0.375 0.451,-0.336 0.451,-0.29L0.451,-0L0.356,-0L0.348,-0.054L0.344,-0.054C0.321,-0.035 0.298,-0.02 0.273,-0.007C0.248,0.006 0.221,0.012 0.192,0.012ZM0.228,-0.082C0.248,-0.082 0.267,-0.086 0.284,-0.095C0.301,-0.103 0.318,-0.115 0.336,-0.132L0.336,-0.236C0.291,-0.231 0.256,-0.224 0.23,-0.215C0.204,-0.206 0.186,-0.196 0.175,-0.184C0.164,-0.171 0.158,-0.157 0.158,-0.14C0.158,-0.119 0.165,-0.105 0.178,-0.096C0.191,-0.087 0.208,-0.082 0.228,-0.082Z" style="fill-rule:nonzero;"/>
                </g>
                <g transform="matrix(66.6667,0,0,66.6667,542.347,228.017)">
                    <path d="M0.073,-0L0.073,-0.491L0.168,-0.491L0.176,-0.425L0.18,-0.425C0.202,-0.447 0.226,-0.465 0.252,-0.48C0.278,-0.496 0.307,-0.503 0.341,-0.503C0.394,-0.503 0.432,-0.486 0.456,-0.452C0.48,-0.418 0.492,-0.37 0.492,-0.308L0.492,-0L0.377,-0L0.377,-0.293C0.377,-0.334 0.371,-0.362 0.359,-0.379C0.347,-0.396 0.327,-0.404 0.3,-0.404C0.279,-0.404 0.26,-0.399 0.244,-0.389C0.227,-0.378 0.209,-0.363 0.188,-0.343L0.188,-0L0.073,-0Z" style="fill-rule:nonzero;"/>
                </g>
                <g transform="matrix(66.6667,0,0,66.6667,579.653,228.017)">
                    <path d="M0.073,-0L0.073,-0.491L0.188,-0.491L0.188,-0L0.073,-0ZM0.13,-0.577C0.11,-0.577 0.094,-0.583 0.081,-0.595C0.068,-0.607 0.061,-0.623 0.061,-0.643C0.061,-0.663 0.068,-0.679 0.081,-0.691C0.094,-0.702 0.11,-0.708 0.13,-0.708C0.151,-0.708 0.167,-0.702 0.18,-0.691C0.193,-0.679 0.199,-0.663 0.199,-0.643C0.199,-0.623 0.193,-0.607 0.18,-0.595C0.167,-0.583 0.151,-0.577 0.13,-0.577Z" style="fill-rule:nonzero;"/>
                </g>
                <g transform="matrix(66.6667,0,0,66.6667,597.093,228.017)">
                    <path d="M0.073,-0L0.073,-0.491L0.168,-0.491L0.176,-0.424L0.18,-0.424C0.2,-0.446 0.223,-0.465 0.248,-0.48C0.272,-0.495 0.3,-0.503 0.33,-0.503C0.367,-0.503 0.395,-0.495 0.417,-0.48C0.438,-0.464 0.455,-0.443 0.466,-0.415C0.49,-0.441 0.514,-0.462 0.539,-0.478C0.565,-0.495 0.593,-0.503 0.624,-0.503C0.676,-0.503 0.714,-0.486 0.739,-0.452C0.763,-0.418 0.776,-0.37 0.776,-0.308L0.776,-0L0.66,-0L0.66,-0.293C0.66,-0.334 0.654,-0.362 0.642,-0.379C0.63,-0.396 0.611,-0.404 0.585,-0.404C0.569,-0.404 0.553,-0.399 0.536,-0.389C0.519,-0.379 0.501,-0.364 0.482,-0.343L0.482,-0L0.367,-0L0.367,-0.293C0.367,-0.334 0.361,-0.362 0.349,-0.379C0.336,-0.396 0.317,-0.404 0.291,-0.404C0.26,-0.404 0.226,-0.384 0.188,-0.343L0.188,-0L0.073,-0Z" style="fill-rule:nonzero;"/>
                </g>
                <g transform="matrix(66.6667,0,0,66.6667,653.306,228.017)">
                    <path d="M0.192,0.012C0.163,0.012 0.138,0.006 0.116,-0.006C0.094,-0.018 0.077,-0.035 0.065,-0.057C0.052,-0.078 0.046,-0.103 0.046,-0.132C0.046,-0.187 0.069,-0.229 0.116,-0.258C0.162,-0.286 0.235,-0.305 0.336,-0.316C0.335,-0.333 0.332,-0.348 0.327,-0.362C0.321,-0.376 0.312,-0.387 0.299,-0.396C0.286,-0.404 0.268,-0.408 0.246,-0.408C0.222,-0.408 0.199,-0.404 0.176,-0.395C0.153,-0.386 0.13,-0.375 0.108,-0.362L0.066,-0.44C0.084,-0.451 0.104,-0.462 0.125,-0.472C0.146,-0.481 0.169,-0.489 0.193,-0.495C0.217,-0.5 0.242,-0.503 0.268,-0.503C0.309,-0.503 0.343,-0.495 0.37,-0.479C0.397,-0.462 0.417,-0.438 0.431,-0.407C0.444,-0.375 0.451,-0.336 0.451,-0.29L0.451,-0L0.356,-0L0.348,-0.054L0.344,-0.054C0.321,-0.035 0.298,-0.02 0.273,-0.007C0.248,0.006 0.221,0.012 0.192,0.012ZM0.228,-0.082C0.248,-0.082 0.267,-0.086 0.284,-0.095C0.301,-0.103 0.318,-0.115 0.336,-0.132L0.336,-0.236C0.291,-0.231 0.256,-0.224 0.23,-0.215C0.204,-0.206 0.186,-0.196 0.175,-0.184C0.164,-0.171 0.158,-0.157 0.158,-0.14C0.158,-0.119 0.165,-0.105 0.178,-0.096C0.191,-0.087 0.208,-0.082 0.228,-0.082Z" style="fill-rule:nonzero;"/>
                </g>
                <g transform="matrix(66.6667,0,0,66.6667,687.706,228.017)">
                    <path d="M0.185,0.01C0.158,0.01 0.136,0.005 0.12,-0.007C0.103,-0.017 0.091,-0.033 0.084,-0.054C0.077,-0.075 0.073,-0.099 0.073,-0.128L0.073,-0.706L0.188,-0.706L0.188,-0.122C0.188,-0.107 0.191,-0.097 0.196,-0.092C0.201,-0.087 0.207,-0.084 0.214,-0.084C0.217,-0.084 0.219,-0.084 0.222,-0.085C0.224,-0.085 0.227,-0.085 0.231,-0.086L0.246,-0C0.239,0.003 0.231,0.005 0.221,0.007C0.21,0.009 0.198,0.01 0.185,0.01Z" style="fill-rule:nonzero;"/>
                </g>
                <g transform="matrix(66.6667,0,0,66.6667,705.773,228.017)">
                </g>
            </g>
            <g transform="matrix(1,0,0,1,261.612,307.093)">
                <g transform="matrix(66.6667,0,0,66.6667,523.21,228.017)">
                    <path d="M0.209,0.012C0.174,0.012 0.14,0.006 0.109,-0.007C0.077,-0.019 0.05,-0.036 0.028,-0.058L0.066,-0.106C0.087,-0.088 0.109,-0.075 0.132,-0.066C0.155,-0.057 0.182,-0.052 0.212,-0.052C0.244,-0.052 0.268,-0.06 0.284,-0.074C0.3,-0.089 0.308,-0.107 0.308,-0.128C0.308,-0.144 0.302,-0.158 0.292,-0.169C0.281,-0.18 0.267,-0.19 0.251,-0.197C0.234,-0.205 0.216,-0.212 0.198,-0.219C0.174,-0.228 0.151,-0.238 0.129,-0.25C0.107,-0.261 0.089,-0.276 0.076,-0.294C0.062,-0.311 0.055,-0.334 0.055,-0.36C0.055,-0.399 0.07,-0.432 0.099,-0.459C0.129,-0.485 0.17,-0.498 0.223,-0.498C0.253,-0.498 0.281,-0.493 0.307,-0.483C0.333,-0.473 0.355,-0.459 0.374,-0.443L0.336,-0.396C0.319,-0.408 0.301,-0.417 0.283,-0.424C0.265,-0.431 0.245,-0.434 0.223,-0.434C0.193,-0.434 0.17,-0.427 0.156,-0.413C0.141,-0.399 0.134,-0.383 0.134,-0.364C0.134,-0.349 0.138,-0.337 0.147,-0.327C0.156,-0.318 0.168,-0.309 0.184,-0.302C0.199,-0.295 0.217,-0.288 0.237,-0.281C0.262,-0.271 0.287,-0.261 0.31,-0.249C0.332,-0.238 0.351,-0.223 0.365,-0.205C0.38,-0.186 0.387,-0.162 0.387,-0.133C0.387,-0.106 0.38,-0.082 0.366,-0.06C0.353,-0.038 0.333,-0.021 0.306,-0.008C0.28,0.005 0.248,0.012 0.209,0.012Z" style="fill-rule:nonzero;"/>
                </g>
                <g transform="matrix(66.6667,0,0,66.6667,551.152,228.017)">
                    <path d="M0.082,-0L0.082,-0.712L0.164,-0.712L0.164,-0.518L0.161,-0.418C0.184,-0.44 0.208,-0.459 0.234,-0.474C0.26,-0.49 0.29,-0.498 0.323,-0.498C0.374,-0.498 0.412,-0.482 0.436,-0.45C0.459,-0.417 0.471,-0.37 0.471,-0.308L0.471,-0L0.389,-0L0.389,-0.297C0.389,-0.343 0.382,-0.376 0.367,-0.396C0.353,-0.416 0.33,-0.427 0.297,-0.427C0.272,-0.427 0.25,-0.42 0.231,-0.408C0.211,-0.395 0.189,-0.377 0.164,-0.352L0.164,-0L0.082,-0Z" style="fill-rule:nonzero;"/>
                </g>
                <g transform="matrix(66.6667,0,0,66.6667,587.424,228.017)">
                    <path d="M0.279,0.012C0.236,0.012 0.196,0.002 0.161,-0.018C0.125,-0.039 0.097,-0.068 0.076,-0.106C0.056,-0.143 0.045,-0.189 0.045,-0.243C0.045,-0.296 0.056,-0.341 0.077,-0.379C0.098,-0.417 0.125,-0.447 0.159,-0.467C0.192,-0.488 0.228,-0.498 0.265,-0.498C0.306,-0.498 0.342,-0.489 0.371,-0.47C0.399,-0.451 0.421,-0.424 0.436,-0.39C0.451,-0.356 0.458,-0.316 0.458,-0.27C0.458,-0.262 0.458,-0.253 0.457,-0.245C0.457,-0.237 0.456,-0.229 0.454,-0.221L0.104,-0.221L0.104,-0.286L0.384,-0.286C0.384,-0.333 0.374,-0.369 0.354,-0.394C0.333,-0.419 0.304,-0.431 0.266,-0.431C0.244,-0.431 0.222,-0.425 0.201,-0.413C0.18,-0.4 0.162,-0.38 0.148,-0.353C0.135,-0.325 0.128,-0.289 0.128,-0.244C0.128,-0.202 0.135,-0.168 0.149,-0.14C0.164,-0.112 0.183,-0.091 0.208,-0.077C0.233,-0.062 0.26,-0.055 0.289,-0.055C0.312,-0.055 0.334,-0.059 0.354,-0.065C0.375,-0.072 0.393,-0.08 0.41,-0.092L0.44,-0.038C0.419,-0.023 0.395,-0.011 0.369,-0.002C0.342,0.007 0.312,0.012 0.279,0.012Z" style="fill-rule:nonzero;"/>
                </g>
                <g transform="matrix(66.6667,0,0,66.6667,620.476,228.017)">
                    <path d="M0.279,0.012C0.236,0.012 0.196,0.002 0.161,-0.018C0.125,-0.039 0.097,-0.068 0.076,-0.106C0.056,-0.143 0.045,-0.189 0.045,-0.243C0.045,-0.296 0.056,-0.341 0.077,-0.379C0.098,-0.417 0.125,-0.447 0.159,-0.467C0.192,-0.488 0.228,-0.498 0.265,-0.498C0.306,-0.498 0.342,-0.489 0.371,-0.47C0.399,-0.451 0.421,-0.424 0.436,-0.39C0.451,-0.356 0.458,-0.316 0.458,-0.27C0.458,-0.262 0.458,-0.253 0.457,-0.245C0.457,-0.237 0.456,-0.229 0.454,-0.221L0.104,-0.221L0.104,-0.286L0.384,-0.286C0.384,-0.333 0.374,-0.369 0.354,-0.394C0.333,-0.419 0.304,-0.431 0.266,-0.431C0.244,-0.431 0.222,-0.425 0.201,-0.413C0.18,-0.4 0.162,-0.38 0.148,-0.353C0.135,-0.325 0.128,-0.289 0.128,-0.244C0.128,-0.202 0.135,-0.168 0.149,-0.14C0.164,-0.112 0.183,-0.091 0.208,-0.077C0.233,-0.062 0.26,-0.055 0.289,-0.055C0.312,-0.055 0.334,-0.059 0.354,-0.065C0.375,-0.072 0.393,-0.08 0.41,-0.092L0.44,-0.038C0.419,-0.023 0.395,-0.011 0.369,-0.002C0.342,0.007 0.312,0.012 0.279,0.012Z" style="fill-rule:nonzero;"/>
                </g>
                <g transform="matrix(66.6667,0,0,66.6667,653.529,228.017)">
                    <path d="M0.082,0.205L0.082,-0.486L0.15,-0.486L0.157,-0.43L0.16,-0.43C0.182,-0.449 0.206,-0.465 0.233,-0.478C0.259,-0.491 0.287,-0.498 0.315,-0.498C0.356,-0.498 0.392,-0.488 0.42,-0.468C0.449,-0.447 0.471,-0.418 0.485,-0.381C0.5,-0.344 0.507,-0.3 0.507,-0.25C0.507,-0.195 0.497,-0.148 0.478,-0.109C0.458,-0.07 0.432,-0.04 0.4,-0.019C0.368,0.002 0.334,0.012 0.297,0.012C0.275,0.012 0.253,0.007 0.23,-0.003C0.207,-0.013 0.184,-0.027 0.162,-0.044L0.164,0.041L0.164,0.205L0.082,0.205ZM0.283,-0.057C0.309,-0.057 0.333,-0.065 0.354,-0.08C0.375,-0.096 0.392,-0.118 0.404,-0.147C0.416,-0.175 0.422,-0.21 0.422,-0.25C0.422,-0.285 0.418,-0.317 0.409,-0.344C0.401,-0.371 0.387,-0.392 0.368,-0.406C0.349,-0.421 0.325,-0.429 0.294,-0.429C0.274,-0.429 0.253,-0.423 0.232,-0.412C0.211,-0.401 0.188,-0.385 0.164,-0.363L0.164,-0.108C0.186,-0.089 0.208,-0.076 0.228,-0.069C0.249,-0.061 0.267,-0.057 0.283,-0.057Z" style="fill-rule:nonzero;"/>
                </g>
                <g transform="matrix(66.6667,0,0,66.6667,690.51,228.017)">
                </g>
            </g>
            <g transform="matrix(1,0,0,1,-25.3183,393.438)">
                <g transform="matrix(66.6667,0,0,66.6667,553.483,228.017)">
                    <path d="M0.248,0.012C0.187,0.012 0.138,-0.01 0.102,-0.055C0.066,-0.099 0.047,-0.162 0.047,-0.242C0.047,-0.295 0.057,-0.34 0.077,-0.378C0.097,-0.417 0.122,-0.446 0.154,-0.467C0.186,-0.488 0.221,-0.498 0.258,-0.498C0.286,-0.498 0.311,-0.493 0.332,-0.483C0.352,-0.473 0.373,-0.46 0.394,-0.442L0.39,-0.525L0.39,-0.712L0.473,-0.712L0.473,-0L0.405,-0L0.398,-0.057L0.395,-0.057C0.376,-0.039 0.354,-0.022 0.329,-0.009C0.304,0.005 0.277,0.012 0.248,0.012ZM0.266,-0.057C0.288,-0.057 0.31,-0.063 0.33,-0.074C0.35,-0.085 0.37,-0.102 0.39,-0.124L0.39,-0.378C0.37,-0.397 0.35,-0.41 0.331,-0.418C0.312,-0.425 0.292,-0.429 0.272,-0.429C0.246,-0.429 0.223,-0.421 0.202,-0.406C0.181,-0.39 0.164,-0.369 0.151,-0.341C0.139,-0.313 0.132,-0.28 0.132,-0.243C0.132,-0.185 0.144,-0.139 0.167,-0.107C0.19,-0.074 0.223,-0.057 0.266,-0.057Z" style="fill-rule:nonzero;"/>
                </g>
                <g transform="matrix(66.6667,0,0,66.6667,590.464,228.017)">
                    <path d="M0.271,0.012C0.231,0.012 0.194,0.002 0.16,-0.018C0.126,-0.038 0.098,-0.067 0.077,-0.105C0.056,-0.143 0.046,-0.189 0.046,-0.242C0.046,-0.296 0.056,-0.343 0.077,-0.381C0.098,-0.419 0.126,-0.448 0.16,-0.468C0.194,-0.488 0.231,-0.498 0.271,-0.498C0.311,-0.498 0.348,-0.488 0.382,-0.468C0.416,-0.448 0.444,-0.419 0.465,-0.381C0.486,-0.343 0.496,-0.296 0.496,-0.242C0.496,-0.189 0.486,-0.143 0.465,-0.105C0.444,-0.067 0.416,-0.038 0.382,-0.018C0.348,0.002 0.311,0.012 0.271,0.012ZM0.271,-0.056C0.299,-0.056 0.324,-0.064 0.345,-0.08C0.366,-0.095 0.382,-0.117 0.394,-0.145C0.406,-0.173 0.411,-0.205 0.411,-0.242C0.411,-0.28 0.406,-0.312 0.394,-0.34C0.382,-0.368 0.366,-0.39 0.345,-0.406C0.324,-0.422 0.299,-0.43 0.271,-0.43C0.243,-0.43 0.219,-0.422 0.198,-0.406C0.177,-0.39 0.16,-0.368 0.149,-0.34C0.137,-0.312 0.131,-0.28 0.131,-0.242C0.131,-0.205 0.137,-0.173 0.149,-0.145C0.16,-0.117 0.177,-0.095 0.198,-0.08C0.219,-0.064 0.243,-0.056 0.271,-0.056Z" style="fill-rule:nonzero;"/>
                </g>
                <g transform="matrix(66.6667,0,0,66.6667,626.618,228.017)">
                    <path d="M0.246,0.224C0.207,0.224 0.172,0.219 0.141,0.208C0.111,0.198 0.087,0.183 0.071,0.164C0.054,0.145 0.045,0.121 0.045,0.093C0.045,0.072 0.051,0.052 0.064,0.034C0.077,0.015 0.094,-0.002 0.116,-0.017L0.116,-0.021C0.104,-0.029 0.094,-0.039 0.086,-0.052C0.077,-0.065 0.073,-0.081 0.073,-0.1C0.073,-0.12 0.079,-0.138 0.09,-0.154C0.102,-0.17 0.114,-0.182 0.126,-0.19L0.126,-0.194C0.111,-0.207 0.096,-0.225 0.083,-0.248C0.07,-0.271 0.063,-0.296 0.063,-0.325C0.063,-0.36 0.072,-0.391 0.089,-0.417C0.105,-0.443 0.128,-0.463 0.155,-0.477C0.183,-0.491 0.213,-0.498 0.246,-0.498C0.259,-0.498 0.272,-0.497 0.284,-0.495C0.296,-0.493 0.306,-0.49 0.315,-0.486L0.484,-0.486L0.484,-0.423L0.383,-0.423L0.383,-0.419C0.395,-0.408 0.404,-0.395 0.412,-0.379C0.42,-0.363 0.424,-0.344 0.424,-0.322C0.424,-0.288 0.416,-0.258 0.4,-0.233C0.384,-0.208 0.363,-0.188 0.336,-0.175C0.309,-0.161 0.279,-0.154 0.246,-0.154C0.234,-0.154 0.222,-0.156 0.209,-0.159C0.197,-0.161 0.185,-0.165 0.173,-0.171C0.165,-0.163 0.158,-0.156 0.152,-0.147C0.146,-0.138 0.143,-0.127 0.143,-0.113C0.143,-0.098 0.149,-0.085 0.161,-0.075C0.173,-0.065 0.195,-0.061 0.228,-0.061L0.322,-0.061C0.379,-0.061 0.422,-0.051 0.45,-0.033C0.478,-0.014 0.492,0.015 0.492,0.056C0.492,0.086 0.482,0.113 0.462,0.139C0.442,0.164 0.413,0.185 0.377,0.2C0.34,0.216 0.296,0.224 0.246,0.224ZM0.246,-0.209C0.265,-0.209 0.282,-0.214 0.297,-0.224C0.313,-0.233 0.325,-0.246 0.335,-0.264C0.344,-0.281 0.349,-0.301 0.349,-0.325C0.349,-0.361 0.339,-0.389 0.319,-0.409C0.299,-0.429 0.275,-0.438 0.246,-0.438C0.217,-0.438 0.193,-0.429 0.173,-0.409C0.153,-0.389 0.143,-0.361 0.143,-0.325C0.143,-0.301 0.147,-0.281 0.157,-0.264C0.166,-0.246 0.179,-0.233 0.195,-0.224C0.21,-0.214 0.227,-0.209 0.246,-0.209ZM0.258,0.167C0.289,0.167 0.316,0.162 0.339,0.153C0.361,0.144 0.379,0.131 0.392,0.116C0.405,0.101 0.412,0.085 0.412,0.068C0.412,0.045 0.403,0.03 0.386,0.021C0.37,0.012 0.345,0.008 0.314,0.008L0.23,0.008C0.221,0.008 0.211,0.007 0.2,0.006C0.189,0.005 0.178,0.003 0.167,0C0.149,0.013 0.137,0.026 0.129,0.04C0.121,0.054 0.117,0.068 0.117,0.082C0.117,0.108 0.129,0.129 0.155,0.144C0.18,0.159 0.214,0.167 0.258,0.167Z" style="fill-rule:nonzero;"/>
                </g>
                <g transform="matrix(66.6667,0,0,66.6667,660.237,228.017)">
                </g>
            </g>
            <g transform="matrix(1,0,0,1,-46.5724,228.372)">
                <g transform="matrix(66.6667,0,0,66.6667,311.63,306.738)">
                    <path d="M0.275,0.012C0.232,0.012 0.193,0.002 0.158,-0.018C0.124,-0.038 0.096,-0.067 0.076,-0.105C0.056,-0.143 0.046,-0.189 0.046,-0.242C0.046,-0.296 0.057,-0.343 0.078,-0.381C0.1,-0.419 0.129,-0.448 0.164,-0.468C0.2,-0.488 0.238,-0.498 0.28,-0.498C0.312,-0.498 0.339,-0.493 0.362,-0.482C0.385,-0.471 0.405,-0.458 0.422,-0.441L0.381,-0.39C0.369,-0.402 0.355,-0.412 0.339,-0.419C0.322,-0.426 0.304,-0.43 0.283,-0.43C0.254,-0.43 0.228,-0.422 0.205,-0.406C0.183,-0.39 0.164,-0.368 0.151,-0.34C0.138,-0.312 0.131,-0.28 0.131,-0.242C0.131,-0.205 0.137,-0.173 0.15,-0.145C0.163,-0.117 0.18,-0.095 0.203,-0.08C0.226,-0.064 0.252,-0.056 0.282,-0.056C0.305,-0.056 0.325,-0.061 0.345,-0.069C0.364,-0.078 0.381,-0.089 0.395,-0.102L0.431,-0.052C0.411,-0.032 0.387,-0.017 0.361,-0.005C0.335,0.006 0.306,0.012 0.275,0.012Z" style="fill-rule:nonzero;"/>
                </g>
                <g transform="matrix(66.6667,0,0,66.6667,341.351,306.738)">
                    <path d="M0.194,0.012C0.167,0.012 0.143,0.007 0.121,-0.004C0.1,-0.015 0.083,-0.031 0.07,-0.051C0.058,-0.072 0.051,-0.097 0.051,-0.126C0.051,-0.181 0.075,-0.222 0.123,-0.25C0.171,-0.278 0.247,-0.298 0.351,-0.309C0.351,-0.329 0.348,-0.349 0.342,-0.367C0.336,-0.385 0.326,-0.4 0.311,-0.412C0.297,-0.423 0.276,-0.429 0.25,-0.429C0.222,-0.429 0.196,-0.424 0.171,-0.413C0.146,-0.403 0.124,-0.392 0.105,-0.379L0.073,-0.435C0.088,-0.445 0.105,-0.455 0.125,-0.465C0.145,-0.475 0.166,-0.483 0.19,-0.489C0.213,-0.495 0.238,-0.498 0.264,-0.498C0.304,-0.498 0.336,-0.49 0.36,-0.473C0.385,-0.457 0.403,-0.434 0.415,-0.404C0.427,-0.374 0.433,-0.338 0.433,-0.298L0.433,-0L0.365,-0L0.358,-0.058L0.355,-0.058C0.331,-0.039 0.306,-0.022 0.28,-0.009C0.253,0.005 0.225,0.012 0.194,0.012ZM0.217,-0.056C0.241,-0.056 0.263,-0.062 0.284,-0.072C0.305,-0.083 0.327,-0.098 0.351,-0.119L0.351,-0.25C0.296,-0.244 0.253,-0.235 0.221,-0.224C0.189,-0.214 0.167,-0.201 0.153,-0.186C0.139,-0.17 0.132,-0.152 0.132,-0.132C0.132,-0.105 0.141,-0.085 0.157,-0.074C0.174,-0.062 0.194,-0.056 0.217,-0.056Z" style="fill-rule:nonzero;"/>
                </g>
                <g transform="matrix(66.6667,0,0,66.6667,374.044,306.738)">
                    <path d="M0.235,0.009C0.183,0.009 0.147,-0.006 0.127,-0.036C0.106,-0.066 0.096,-0.105 0.096,-0.153L0.096,-0.419L0.024,-0.419L0.024,-0.481L0.1,-0.486L0.11,-0.642L0.179,-0.642L0.179,-0.486L0.311,-0.486L0.311,-0.419L0.179,-0.419L0.179,-0.152C0.179,-0.122 0.184,-0.099 0.196,-0.083C0.207,-0.066 0.226,-0.058 0.254,-0.058C0.263,-0.058 0.272,-0.059 0.281,-0.061C0.29,-0.062 0.299,-0.066 0.309,-0.07L0.327,-0.012C0.314,-0.006 0.3,-0.001 0.284,0.003C0.268,0.007 0.252,0.009 0.235,0.009Z" style="fill-rule:nonzero;"/>
                </g>
                <g transform="matrix(66.6667,0,0,66.6667,396.59,306.738)">
                </g>
            </g>
            <g transform="matrix(1.41623,0,0,1,-413.81,-20.8688)">
                <path d="M549.688,472.528L702.601,345.796L855.513,472.528" style="fill:none;stroke:black;stroke-width:6.8px;"/>
            </g>
            <g transform="matrix(1,0,0,1,-694.463,-1073.48)">
                <path d="M1275.7,1398.4L1275.7,1609.39" style="fill:none;stroke:black;stroke-width:8.33px;"/>
            </g>
        </g>
    </g>
    <g transform="matrix(1,0,0,1,3.47167,-171.252)">
        <g transform="matrix(1.3434,0,0,1.48336,732.309,33.9034)">
            <path d="M1098.74,314.597L1098.74,518.067C1098.74,574.216 1048.4,619.802 986.403,619.802L426.747,619.802C364.749,619.802 314.413,574.216 314.413,518.067L314.413,314.597C314.413,258.448 364.749,212.862 426.747,212.862L986.403,212.862C1048.4,212.862 1098.74,258.448 1098.74,314.597Z" style="fill:rgb(187,55,37);fill-opacity:0.2;"/>
        </g>
        <g>
            <g transform="matrix(1,0,0,1,1069.67,248.113)">
                <g transform="matrix(66.6667,0,0,66.6667,452.04,228.017)">
                    <path d="M0.073,-0L0.073,-0.706L0.188,-0.706L0.188,-0.524L0.184,-0.429C0.204,-0.448 0.227,-0.466 0.253,-0.481C0.278,-0.496 0.307,-0.503 0.341,-0.503C0.394,-0.503 0.432,-0.486 0.456,-0.452C0.48,-0.418 0.492,-0.37 0.492,-0.308L0.492,-0L0.377,-0L0.377,-0.293C0.377,-0.334 0.371,-0.362 0.359,-0.379C0.347,-0.396 0.327,-0.404 0.3,-0.404C0.279,-0.404 0.26,-0.399 0.244,-0.389C0.227,-0.378 0.209,-0.363 0.188,-0.343L0.188,-0L0.073,-0Z" style="fill-rule:nonzero;"/>
                </g>
                <g transform="matrix(66.6667,0,0,66.6667,489.24,228.017)">
                    <path d="M0.192,0.012C0.163,0.012 0.138,0.006 0.116,-0.006C0.094,-0.018 0.077,-0.035 0.065,-0.057C0.052,-0.078 0.046,-0.103 0.046,-0.132C0.046,-0.187 0.069,-0.229 0.116,-0.258C0.162,-0.286 0.235,-0.305 0.336,-0.316C0.335,-0.333 0.332,-0.348 0.327,-0.362C0.321,-0.376 0.312,-0.387 0.299,-0.396C0.286,-0.404 0.268,-0.408 0.246,-0.408C0.222,-0.408 0.199,-0.404 0.176,-0.395C0.153,-0.386 0.13,-0.375 0.108,-0.362L0.066,-0.44C0.084,-0.451 0.104,-0.462 0.125,-0.472C0.146,-0.481 0.169,-0.489 0.193,-0.495C0.217,-0.5 0.242,-0.503 0.268,-0.503C0.309,-0.503 0.343,-0.495 0.37,-0.479C0.397,-0.462 0.417,-0.438 0.431,-0.407C0.444,-0.375 0.451,-0.336 0.451,-0.29L0.451,-0L0.356,-0L0.348,-0.054L0.344,-0.054C0.321,-0.035 0.298,-0.02 0.273,-0.007C0.248,0.006 0.221,0.012 0.192,0.012ZM0.228,-0.082C0.248,-0.082 0.267,-0.086 0.284,-0.095C0.301,-0.103 0.318,-0.115 0.336,-0.132L0.336,-0.236C0.291,-0.231 0.256,-0.224 0.23,-0.215C0.204,-0.206 0.186,-0.196 0.175,-0.184C0.164,-0.171 0.158,-0.157 0.158,-0.14C0.158,-0.119 0.165,-0.105 0.178,-0.096C0.191,-0.087 0.208,-0.082 0.228,-0.082Z" style="fill-rule:nonzero;"/>
                </g>
                <g transform="matrix(66.6667,0,0,66.6667,523.64,228.017)">
                    <path d="M0.073,-0L0.073,-0.491L0.188,-0.491L0.188,-0L0.073,-0ZM0.13,-0.577C0.11,-0.577 0.094,-0.583 0.081,-0.595C0.068,-0.607 0.061,-0.623 0.061,-0.643C0.061,-0.663 0.068,-0.679 0.081,-0.691C0.094,-0.702 0.11,-0.708 0.13,-0.708C0.151,-0.708 0.167,-0.702 0.18,-0.691C0.193,-0.679 0.199,-0.663 0.199,-0.643C0.199,-0.623 0.193,-0.607 0.18,-0.595C0.167,-0.583 0.151,-0.577 0.13,-0.577Z" style="fill-rule:nonzero;"/>
                </g>
                <g transform="matrix(66.6667,0,0,66.6667,541.08,228.017)">
                    <path d="M0.073,-0L0.073,-0.491L0.168,-0.491L0.176,-0.404L0.18,-0.404C0.197,-0.436 0.218,-0.46 0.242,-0.478C0.267,-0.495 0.292,-0.503 0.319,-0.503C0.332,-0.503 0.342,-0.502 0.351,-0.501C0.36,-0.499 0.368,-0.497 0.375,-0.493L0.352,-0.395C0.344,-0.397 0.337,-0.399 0.33,-0.4C0.324,-0.401 0.315,-0.401 0.304,-0.401C0.285,-0.401 0.264,-0.394 0.243,-0.379C0.221,-0.364 0.203,-0.337 0.188,-0.3L0.188,-0L0.073,-0Z" style="fill-rule:nonzero;"/>
                </g>
                <g transform="matrix(66.6667,0,0,66.6667,565.96,228.017)">
                </g>
                <g transform="matrix(66.6667,0,0,66.6667,579.293,228.017)">
                    <path d="M0.28,0.012C0.235,0.012 0.194,0.002 0.158,-0.019C0.122,-0.039 0.094,-0.068 0.073,-0.107C0.051,-0.145 0.041,-0.191 0.041,-0.245C0.041,-0.3 0.052,-0.346 0.075,-0.385C0.098,-0.423 0.128,-0.452 0.166,-0.473C0.203,-0.493 0.244,-0.503 0.287,-0.503C0.318,-0.503 0.346,-0.498 0.37,-0.488C0.393,-0.477 0.414,-0.464 0.431,-0.448L0.376,-0.376C0.365,-0.386 0.353,-0.394 0.34,-0.4C0.326,-0.406 0.31,-0.409 0.293,-0.409C0.267,-0.409 0.244,-0.402 0.224,-0.389C0.204,-0.375 0.188,-0.356 0.177,-0.332C0.165,-0.307 0.159,-0.278 0.159,-0.245C0.159,-0.212 0.165,-0.184 0.176,-0.16C0.187,-0.135 0.203,-0.116 0.223,-0.103C0.242,-0.089 0.265,-0.082 0.291,-0.082C0.31,-0.082 0.329,-0.086 0.346,-0.093C0.363,-0.1 0.378,-0.11 0.391,-0.121L0.438,-0.05C0.417,-0.031 0.394,-0.016 0.367,-0.005C0.339,0.006 0.311,0.012 0.28,0.012Z" style="fill-rule:nonzero;"/>
                </g>
                <g transform="matrix(66.6667,0,0,66.6667,608.493,228.017)">
                    <path d="M0.274,0.012C0.234,0.012 0.195,0.002 0.16,-0.018C0.124,-0.039 0.096,-0.068 0.074,-0.106C0.052,-0.145 0.041,-0.191 0.041,-0.245C0.041,-0.3 0.052,-0.346 0.074,-0.385C0.096,-0.423 0.124,-0.453 0.16,-0.473C0.195,-0.493 0.234,-0.503 0.274,-0.503C0.315,-0.503 0.353,-0.493 0.389,-0.473C0.424,-0.453 0.453,-0.423 0.475,-0.385C0.497,-0.346 0.508,-0.3 0.508,-0.245C0.508,-0.191 0.497,-0.145 0.475,-0.106C0.453,-0.068 0.424,-0.039 0.389,-0.018C0.353,0.002 0.315,0.012 0.274,0.012ZM0.274,-0.082C0.298,-0.082 0.319,-0.089 0.336,-0.102C0.354,-0.116 0.367,-0.135 0.376,-0.159C0.385,-0.184 0.39,-0.212 0.39,-0.245C0.39,-0.278 0.385,-0.307 0.376,-0.331C0.367,-0.356 0.354,-0.375 0.336,-0.389C0.319,-0.402 0.298,-0.409 0.274,-0.409C0.25,-0.409 0.23,-0.402 0.213,-0.389C0.195,-0.375 0.182,-0.356 0.173,-0.331C0.164,-0.307 0.159,-0.278 0.159,-0.245C0.159,-0.212 0.164,-0.184 0.173,-0.159C0.182,-0.135 0.195,-0.116 0.213,-0.102C0.23,-0.089 0.25,-0.082 0.274,-0.082Z" style="fill-rule:nonzero;"/>
                </g>
                <g transform="matrix(66.6667,0,0,66.6667,645.08,228.017)">
                    <path d="M0.185,0.01C0.158,0.01 0.136,0.005 0.12,-0.007C0.103,-0.017 0.091,-0.033 0.084,-0.054C0.077,-0.075 0.073,-0.099 0.073,-0.128L0.073,-0.706L0.188,-0.706L0.188,-0.122C0.188,-0.107 0.191,-0.097 0.196,-0.092C0.201,-0.087 0.207,-0.084 0.214,-0.084C0.217,-0.084 0.219,-0.084 0.222,-0.085C0.224,-0.085 0.227,-0.085 0.231,-0.086L0.246,-0C0.239,0.003 0.231,0.005 0.221,0.007C0.21,0.009 0.198,0.01 0.185,0.01Z" style="fill-rule:nonzero;"/>
                </g>
                <g transform="matrix(66.6667,0,0,66.6667,663.146,228.017)">
                    <path d="M0.274,0.012C0.234,0.012 0.195,0.002 0.16,-0.018C0.124,-0.039 0.096,-0.068 0.074,-0.106C0.052,-0.145 0.041,-0.191 0.041,-0.245C0.041,-0.3 0.052,-0.346 0.074,-0.385C0.096,-0.423 0.124,-0.453 0.16,-0.473C0.195,-0.493 0.234,-0.503 0.274,-0.503C0.315,-0.503 0.353,-0.493 0.389,-0.473C0.424,-0.453 0.453,-0.423 0.475,-0.385C0.497,-0.346 0.508,-0.3 0.508,-0.245C0.508,-0.191 0.497,-0.145 0.475,-0.106C0.453,-0.068 0.424,-0.039 0.389,-0.018C0.353,0.002 0.315,0.012 0.274,0.012ZM0.274,-0.082C0.298,-0.082 0.319,-0.089 0.336,-0.102C0.354,-0.116 0.367,-0.135 0.376,-0.159C0.385,-0.184 0.39,-0.212 0.39,-0.245C0.39,-0.278 0.385,-0.307 0.376,-0.331C0.367,-0.356 0.354,-0.375 0.336,-0.389C0.319,-0.402 0.298,-0.409 0.274,-0.409C0.25,-0.409 0.23,-0.402 0.213,-0.389C0.195,-0.375 0.182,-0.356 0.173,-0.331C0.164,-0.307 0.159,-0.278 0.159,-0.245C0.159,-0.212 0.164,-0.184 0.173,-0.159C0.182,-0.135 0.195,-0.116 0.213,-0.102C0.23,-0.089 0.25,-0.082 0.274,-0.082Z" style="fill-rule:nonzero;"/>
                </g>
                <g transform="matrix(66.6667,0,0,66.6667,699.733,228.017)">
                    <path d="M0.219,0.012C0.166,0.012 0.128,-0.005 0.104,-0.039C0.08,-0.073 0.068,-0.121 0.068,-0.183L0.068,-0.491L0.183,-0.491L0.183,-0.198C0.183,-0.157 0.189,-0.129 0.201,-0.112C0.213,-0.095 0.232,-0.087 0.259,-0.087C0.28,-0.087 0.299,-0.092 0.316,-0.103C0.332,-0.114 0.349,-0.131 0.368,-0.155L0.368,-0.491L0.483,-0.491L0.483,-0L0.389,-0L0.38,-0.072L0.377,-0.072C0.356,-0.047 0.332,-0.026 0.307,-0.011C0.282,0.004 0.252,0.012 0.219,0.012Z" style="fill-rule:nonzero;"/>
                </g>
                <g transform="matrix(66.6667,0,0,66.6667,736.8,228.017)">
                    <path d="M0.073,-0L0.073,-0.491L0.168,-0.491L0.176,-0.404L0.18,-0.404C0.197,-0.436 0.218,-0.46 0.242,-0.478C0.267,-0.495 0.292,-0.503 0.319,-0.503C0.332,-0.503 0.342,-0.502 0.351,-0.501C0.36,-0.499 0.368,-0.497 0.375,-0.493L0.352,-0.395C0.344,-0.397 0.337,-0.399 0.33,-0.4C0.324,-0.401 0.315,-0.401 0.304,-0.401C0.285,-0.401 0.264,-0.394 0.243,-0.379C0.221,-0.364 0.203,-0.337 0.188,-0.3L0.188,-0L0.073,-0Z" style="fill-rule:nonzero;"/>
                </g>
                <g transform="matrix(66.6667,0,0,66.6667,761.68,228.017)">
                </g>
            </g>
            <g transform="matrix(1,0,0,1,1440.84,447.389)">
                <g transform="matrix(66.6667,0,0,66.6667,531.841,228.017)">
                    <path d="M0.271,0.012C0.231,0.012 0.194,0.002 0.16,-0.018C0.126,-0.038 0.098,-0.067 0.077,-0.105C0.056,-0.143 0.046,-0.189 0.046,-0.242C0.046,-0.296 0.056,-0.343 0.077,-0.381C0.098,-0.419 0.126,-0.448 0.16,-0.468C0.194,-0.488 0.231,-0.498 0.271,-0.498C0.311,-0.498 0.348,-0.488 0.382,-0.468C0.416,-0.448 0.444,-0.419 0.465,-0.381C0.486,-0.343 0.496,-0.296 0.496,-0.242C0.496,-0.189 0.486,-0.143 0.465,-0.105C0.444,-0.067 0.416,-0.038 0.382,-0.018C0.348,0.002 0.311,0.012 0.271,0.012ZM0.271,-0.056C0.299,-0.056 0.324,-0.064 0.345,-0.08C0.366,-0.095 0.382,-0.117 0.394,-0.145C0.406,-0.173 0.411,-0.205 0.411,-0.242C0.411,-0.28 0.406,-0.312 0.394,-0.34C0.382,-0.368 0.366,-0.39 0.345,-0.406C0.324,-0.422 0.299,-0.43 0.271,-0.43C0.243,-0.43 0.219,-0.422 0.198,-0.406C0.177,-0.39 0.16,-0.368 0.149,-0.34C0.137,-0.312 0.131,-0.28 0.131,-0.242C0.131,-0.205 0.137,-0.173 0.149,-0.145C0.16,-0.117 0.177,-0.095 0.198,-0.08C0.219,-0.064 0.243,-0.056 0.271,-0.056Z" style="fill-rule:nonzero;"/>
                </g>
                <g transform="matrix(66.6667,0,0,66.6667,566.861,228.017)">
                    <path d="M0.235,0.009C0.183,0.009 0.147,-0.006 0.127,-0.036C0.106,-0.066 0.096,-0.105 0.096,-0.153L0.096,-0.419L0.024,-0.419L0.024,-0.481L0.1,-0.486L0.11,-0.642L0.179,-0.642L0.179,-0.486L0.311,-0.486L0.311,-0.419L0.179,-0.419L0.179,-0.152C0.179,-0.122 0.184,-0.099 0.196,-0.083C0.207,-0.066 0.226,-0.058 0.254,-0.058C0.263,-0.058 0.272,-0.059 0.281,-0.061C0.29,-0.062 0.299,-0.066 0.309,-0.07L0.327,-0.012C0.314,-0.006 0.3,-0.001 0.284,0.003C0.268,0.007 0.252,0.009 0.235,0.009Z" style="fill-rule:nonzero;"/>
                </g>
                <g transform="matrix(66.6667,0,0,66.6667,589.407,228.017)">
                    <path d="M0.082,-0L0.082,-0.712L0.164,-0.712L0.164,-0.518L0.161,-0.418C0.184,-0.44 0.208,-0.459 0.234,-0.474C0.26,-0.49 0.29,-0.498 0.323,-0.498C0.374,-0.498 0.412,-0.482 0.436,-0.45C0.459,-0.417 0.471,-0.37 0.471,-0.308L0.471,-0L0.389,-0L0.389,-0.297C0.389,-0.343 0.382,-0.376 0.367,-0.396C0.353,-0.416 0.33,-0.427 0.297,-0.427C0.272,-0.427 0.25,-0.42 0.231,-0.408C0.211,-0.395 0.189,-0.377 0.164,-0.352L0.164,-0L0.082,-0Z" style="fill-rule:nonzero;"/>
                </g>
                <g transform="matrix(66.6667,0,0,66.6667,625.679,228.017)">
                    <path d="M0.279,0.012C0.236,0.012 0.196,0.002 0.161,-0.018C0.125,-0.039 0.097,-0.068 0.076,-0.106C0.056,-0.143 0.045,-0.189 0.045,-0.243C0.045,-0.296 0.056,-0.341 0.077,-0.379C0.098,-0.417 0.125,-0.447 0.159,-0.467C0.192,-0.488 0.228,-0.498 0.265,-0.498C0.306,-0.498 0.342,-0.489 0.371,-0.47C0.399,-0.451 0.421,-0.424 0.436,-0.39C0.451,-0.356 0.458,-0.316 0.458,-0.27C0.458,-0.262 0.458,-0.253 0.457,-0.245C0.457,-0.237 0.456,-0.229 0.454,-0.221L0.104,-0.221L0.104,-0.286L0.384,-0.286C0.384,-0.333 0.374,-0.369 0.354,-0.394C0.333,-0.419 0.304,-0.431 0.266,-0.431C0.244,-0.431 0.222,-0.425 0.201,-0.413C0.18,-0.4 0.162,-0.38 0.148,-0.353C0.135,-0.325 0.128,-0.289 0.128,-0.244C0.128,-0.202 0.135,-0.168 0.149,-0.14C0.164,-0.112 0.183,-0.091 0.208,-0.077C0.233,-0.062 0.26,-0.055 0.289,-0.055C0.312,-0.055 0.334,-0.059 0.354,-0.065C0.375,-0.072 0.393,-0.08 0.41,-0.092L0.44,-0.038C0.419,-0.023 0.395,-0.011 0.369,-0.002C0.342,0.007 0.312,0.012 0.279,0.012Z" style="fill-rule:nonzero;"/>
                </g>
                <g transform="matrix(66.6667,0,0,66.6667,658.731,228.017)">
                    <path d="M0.082,-0L0.082,-0.486L0.15,-0.486L0.157,-0.398L0.16,-0.398C0.176,-0.429 0.196,-0.453 0.22,-0.471C0.244,-0.489 0.27,-0.498 0.298,-0.498C0.309,-0.498 0.318,-0.497 0.326,-0.496C0.334,-0.494 0.342,-0.492 0.35,-0.488L0.332,-0.418C0.325,-0.42 0.318,-0.421 0.312,-0.422C0.305,-0.423 0.297,-0.424 0.287,-0.424C0.267,-0.424 0.245,-0.416 0.223,-0.399C0.2,-0.383 0.181,-0.354 0.164,-0.312L0.164,-0L0.082,-0Z" style="fill-rule:nonzero;"/>
                </g>
                <g transform="matrix(66.6667,0,0,66.6667,681.879,228.017)">
                </g>
            </g>
            <g transform="matrix(1,0,0,1,1066.55,578.532)">
                <g transform="matrix(66.6667,0,0,66.6667,513.438,228.017)">
                    <path d="M0.297,0.012C0.274,0.012 0.251,0.007 0.227,-0.005C0.203,-0.016 0.18,-0.031 0.158,-0.05L0.155,-0.05L0.148,-0L0.082,-0L0.082,-0.712L0.164,-0.712L0.164,-0.518L0.162,-0.43C0.184,-0.45 0.208,-0.466 0.234,-0.479C0.261,-0.492 0.287,-0.498 0.314,-0.498C0.356,-0.498 0.391,-0.488 0.42,-0.468C0.449,-0.447 0.471,-0.418 0.485,-0.381C0.5,-0.344 0.507,-0.301 0.507,-0.251C0.507,-0.196 0.497,-0.148 0.478,-0.109C0.458,-0.07 0.432,-0.04 0.4,-0.019C0.368,0.002 0.334,0.012 0.297,0.012ZM0.283,-0.057C0.309,-0.057 0.333,-0.065 0.354,-0.08C0.375,-0.096 0.392,-0.118 0.404,-0.147C0.416,-0.175 0.422,-0.21 0.422,-0.25C0.422,-0.285 0.418,-0.317 0.409,-0.344C0.401,-0.371 0.387,-0.392 0.368,-0.406C0.349,-0.421 0.325,-0.429 0.294,-0.429C0.274,-0.429 0.253,-0.423 0.231,-0.412C0.21,-0.401 0.187,-0.385 0.164,-0.363L0.164,-0.108C0.186,-0.089 0.207,-0.076 0.228,-0.069C0.249,-0.061 0.267,-0.057 0.283,-0.057Z" style="fill-rule:nonzero;"/>
                </g>
                <g transform="matrix(66.6667,0,0,66.6667,550.335,228.017)">
                    <path d="M0.169,0.009C0.149,0.009 0.132,0.005 0.119,-0.003C0.106,-0.012 0.097,-0.024 0.091,-0.04C0.085,-0.057 0.082,-0.077 0.082,-0.1L0.082,-0.712L0.164,-0.712L0.164,-0.094C0.164,-0.081 0.166,-0.072 0.171,-0.067C0.176,-0.062 0.182,-0.059 0.188,-0.059C0.191,-0.059 0.193,-0.059 0.196,-0.06C0.198,-0.06 0.201,-0.061 0.205,-0.061L0.217,0.001C0.211,0.003 0.204,0.005 0.196,0.007C0.188,0.008 0.179,0.009 0.169,0.009Z" style="fill-rule:nonzero;"/>
                </g>
                <g transform="matrix(66.6667,0,0,66.6667,567.345,228.017)">
                    <path d="M0.271,0.012C0.231,0.012 0.194,0.002 0.16,-0.018C0.126,-0.038 0.098,-0.067 0.077,-0.105C0.056,-0.143 0.046,-0.189 0.046,-0.242C0.046,-0.296 0.056,-0.343 0.077,-0.381C0.098,-0.419 0.126,-0.448 0.16,-0.468C0.194,-0.488 0.231,-0.498 0.271,-0.498C0.311,-0.498 0.348,-0.488 0.382,-0.468C0.416,-0.448 0.444,-0.419 0.465,-0.381C0.486,-0.343 0.496,-0.296 0.496,-0.242C0.496,-0.189 0.486,-0.143 0.465,-0.105C0.444,-0.067 0.416,-0.038 0.382,-0.018C0.348,0.002 0.311,0.012 0.271,0.012ZM0.271,-0.056C0.299,-0.056 0.324,-0.064 0.345,-0.08C0.366,-0.095 0.382,-0.117 0.394,-0.145C0.406,-0.173 0.411,-0.205 0.411,-0.242C0.411,-0.28 0.406,-0.312 0.394,-0.34C0.382,-0.368 0.366,-0.39 0.345,-0.406C0.324,-0.422 0.299,-0.43 0.271,-0.43C0.243,-0.43 0.219,-0.422 0.198,-0.406C0.177,-0.39 0.16,-0.368 0.149,-0.34C0.137,-0.312 0.131,-0.28 0.131,-0.242C0.131,-0.205 0.137,-0.173 0.149,-0.145C0.16,-0.117 0.177,-0.095 0.198,-0.08C0.219,-0.064 0.243,-0.056 0.271,-0.056Z" style="fill-rule:nonzero;"/>
                </g>
                <g transform="matrix(66.6667,0,0,66.6667,603.498,228.017)">
                    <path d="M0.082,-0L0.082,-0.486L0.15,-0.486L0.157,-0.416L0.16,-0.416C0.183,-0.439 0.208,-0.459 0.234,-0.474C0.26,-0.49 0.29,-0.498 0.323,-0.498C0.374,-0.498 0.412,-0.482 0.436,-0.45C0.459,-0.417 0.471,-0.37 0.471,-0.308L0.471,-0L0.389,-0L0.389,-0.297C0.389,-0.343 0.382,-0.376 0.367,-0.396C0.353,-0.416 0.33,-0.427 0.297,-0.427C0.272,-0.427 0.25,-0.42 0.231,-0.408C0.211,-0.395 0.189,-0.377 0.164,-0.352L0.164,-0L0.082,-0Z" style="fill-rule:nonzero;"/>
                </g>
                <g transform="matrix(66.6667,0,0,66.6667,639.939,228.017)">
                    <path d="M0.248,0.012C0.187,0.012 0.138,-0.01 0.102,-0.055C0.066,-0.099 0.047,-0.162 0.047,-0.242C0.047,-0.295 0.057,-0.34 0.077,-0.378C0.097,-0.417 0.122,-0.446 0.154,-0.467C0.186,-0.488 0.221,-0.498 0.258,-0.498C0.286,-0.498 0.311,-0.493 0.332,-0.483C0.352,-0.473 0.373,-0.46 0.394,-0.442L0.39,-0.525L0.39,-0.712L0.473,-0.712L0.473,-0L0.405,-0L0.398,-0.057L0.395,-0.057C0.376,-0.039 0.354,-0.022 0.329,-0.009C0.304,0.005 0.277,0.012 0.248,0.012ZM0.266,-0.057C0.288,-0.057 0.31,-0.063 0.33,-0.074C0.35,-0.085 0.37,-0.102 0.39,-0.124L0.39,-0.378C0.37,-0.397 0.35,-0.41 0.331,-0.418C0.312,-0.425 0.292,-0.429 0.272,-0.429C0.246,-0.429 0.223,-0.421 0.202,-0.406C0.181,-0.39 0.164,-0.369 0.151,-0.341C0.139,-0.313 0.132,-0.28 0.132,-0.243C0.132,-0.185 0.144,-0.139 0.167,-0.107C0.19,-0.074 0.223,-0.057 0.266,-0.057Z" style="fill-rule:nonzero;"/>
                </g>
                <g transform="matrix(66.6667,0,0,66.6667,676.92,228.017)">
                    <path d="M0.01,0.16L0.277,-0.71L0.337,-0.71L0.07,0.16L0.01,0.16Z" style="fill-rule:nonzero;"/>
                </g>
                <g transform="matrix(66.6667,0,0,66.6667,700.282,228.017)">
                </g>
                <g transform="matrix(66.6667,0,0,66.6667,508.593,294.684)">
                    <path d="M0.297,0.012C0.274,0.012 0.251,0.007 0.227,-0.005C0.203,-0.016 0.18,-0.031 0.158,-0.05L0.155,-0.05L0.148,-0L0.082,-0L0.082,-0.712L0.164,-0.712L0.164,-0.518L0.162,-0.43C0.184,-0.45 0.208,-0.466 0.234,-0.479C0.261,-0.492 0.287,-0.498 0.314,-0.498C0.356,-0.498 0.391,-0.488 0.42,-0.468C0.449,-0.447 0.471,-0.418 0.485,-0.381C0.5,-0.344 0.507,-0.301 0.507,-0.251C0.507,-0.196 0.497,-0.148 0.478,-0.109C0.458,-0.07 0.432,-0.04 0.4,-0.019C0.368,0.002 0.334,0.012 0.297,0.012ZM0.283,-0.057C0.309,-0.057 0.333,-0.065 0.354,-0.08C0.375,-0.096 0.392,-0.118 0.404,-0.147C0.416,-0.175 0.422,-0.21 0.422,-0.25C0.422,-0.285 0.418,-0.317 0.409,-0.344C0.401,-0.371 0.387,-0.392 0.368,-0.406C0.349,-0.421 0.325,-0.429 0.294,-0.429C0.274,-0.429 0.253,-0.423 0.231,-0.412C0.21,-0.401 0.187,-0.385 0.164,-0.363L0.164,-0.108C0.186,-0.089 0.207,-0.076 0.228,-0.069C0.249,-0.061 0.267,-0.057 0.283,-0.057Z" style="fill-rule:nonzero;"/>
                </g>
                <g transform="matrix(66.6667,0,0,66.6667,545.49,294.684)">
                    <path d="M0.169,0.009C0.149,0.009 0.132,0.005 0.119,-0.003C0.106,-0.012 0.097,-0.024 0.091,-0.04C0.085,-0.057 0.082,-0.077 0.082,-0.1L0.082,-0.712L0.164,-0.712L0.164,-0.094C0.164,-0.081 0.166,-0.072 0.171,-0.067C0.176,-0.062 0.182,-0.059 0.188,-0.059C0.191,-0.059 0.193,-0.059 0.196,-0.06C0.198,-0.06 0.201,-0.061 0.205,-0.061L0.217,0.001C0.211,0.003 0.204,0.005 0.196,0.007C0.188,0.008 0.179,0.009 0.169,0.009Z" style="fill-rule:nonzero;"/>
                </g>
                <g transform="matrix(66.6667,0,0,66.6667,562.499,294.684)">
                    <path d="M0.271,0.012C0.231,0.012 0.194,0.002 0.16,-0.018C0.126,-0.038 0.098,-0.067 0.077,-0.105C0.056,-0.143 0.046,-0.189 0.046,-0.242C0.046,-0.296 0.056,-0.343 0.077,-0.381C0.098,-0.419 0.126,-0.448 0.16,-0.468C0.194,-0.488 0.231,-0.498 0.271,-0.498C0.311,-0.498 0.348,-0.488 0.382,-0.468C0.416,-0.448 0.444,-0.419 0.465,-0.381C0.486,-0.343 0.496,-0.296 0.496,-0.242C0.496,-0.189 0.486,-0.143 0.465,-0.105C0.444,-0.067 0.416,-0.038 0.382,-0.018C0.348,0.002 0.311,0.012 0.271,0.012ZM0.271,-0.056C0.299,-0.056 0.324,-0.064 0.345,-0.08C0.366,-0.095 0.382,-0.117 0.394,-0.145C0.406,-0.173 0.411,-0.205 0.411,-0.242C0.411,-0.28 0.406,-0.312 0.394,-0.34C0.382,-0.368 0.366,-0.39 0.345,-0.406C0.324,-0.422 0.299,-0.43 0.271,-0.43C0.243,-0.43 0.219,-0.422 0.198,-0.406C0.177,-0.39 0.16,-0.368 0.149,-0.34C0.137,-0.312 0.131,-0.28 0.131,-0.242C0.131,-0.205 0.137,-0.173 0.149,-0.145C0.16,-0.117 0.177,-0.095 0.198,-0.08C0.219,-0.064 0.243,-0.056 0.271,-0.056Z" style="fill-rule:nonzero;"/>
                </g>
                <g transform="matrix(66.6667,0,0,66.6667,598.653,294.684)">
                    <path d="M0.082,-0L0.082,-0.486L0.15,-0.486L0.157,-0.416L0.16,-0.416C0.183,-0.439 0.208,-0.459 0.234,-0.474C0.26,-0.49 0.29,-0.498 0.323,-0.498C0.374,-0.498 0.412,-0.482 0.436,-0.45C0.459,-0.417 0.471,-0.37 0.471,-0.308L0.471,-0L0.389,-0L0.389,-0.297C0.389,-0.343 0.382,-0.376 0.367,-0.396C0.353,-0.416 0.33,-0.427 0.297,-0.427C0.272,-0.427 0.25,-0.42 0.231,-0.408C0.211,-0.395 0.189,-0.377 0.164,-0.352L0.164,-0L0.082,-0Z" style="fill-rule:nonzero;"/>
                </g>
                <g transform="matrix(66.6667,0,0,66.6667,635.093,294.684)">
                    <path d="M0.248,0.012C0.187,0.012 0.138,-0.01 0.102,-0.055C0.066,-0.099 0.047,-0.162 0.047,-0.242C0.047,-0.295 0.057,-0.34 0.077,-0.378C0.097,-0.417 0.122,-0.446 0.154,-0.467C0.186,-0.488 0.221,-0.498 0.258,-0.498C0.286,-0.498 0.311,-0.493 0.332,-0.483C0.352,-0.473 0.373,-0.46 0.394,-0.442L0.39,-0.525L0.39,-0.712L0.473,-0.712L0.473,-0L0.405,-0L0.398,-0.057L0.395,-0.057C0.376,-0.039 0.354,-0.022 0.329,-0.009C0.304,0.005 0.277,0.012 0.248,0.012ZM0.266,-0.057C0.288,-0.057 0.31,-0.063 0.33,-0.074C0.35,-0.085 0.37,-0.102 0.39,-0.124L0.39,-0.378C0.37,-0.397 0.35,-0.41 0.331,-0.418C0.312,-0.425 0.292,-0.429 0.272,-0.429C0.246,-0.429 0.223,-0.421 0.202,-0.406C0.181,-0.39 0.164,-0.369 0.151,-0.341C0.139,-0.313 0.132,-0.28 0.132,-0.243C0.132,-0.185 0.144,-0.139 0.167,-0.107C0.19,-0.074 0.223,-0.057 0.266,-0.057Z" style="fill-rule:nonzero;"/>
                </g>
                <g transform="matrix(66.6667,0,0,66.6667,672.075,294.684)">
                    <path d="M0.279,0.012C0.236,0.012 0.196,0.002 0.161,-0.018C0.125,-0.039 0.097,-0.068 0.076,-0.106C0.056,-0.143 0.045,-0.189 0.045,-0.243C0.045,-0.296 0.056,-0.341 0.077,-0.379C0.098,-0.417 0.125,-0.447 0.159,-0.467C0.192,-0.488 0.228,-0.498 0.265,-0.498C0.306,-0.498 0.342,-0.489 0.371,-0.47C0.399,-0.451 0.421,-0.424 0.436,-0.39C0.451,-0.356 0.458,-0.316 0.458,-0.27C0.458,-0.262 0.458,-0.253 0.457,-0.245C0.457,-0.237 0.456,-0.229 0.454,-0.221L0.104,-0.221L0.104,-0.286L0.384,-0.286C0.384,-0.333 0.374,-0.369 0.354,-0.394C0.333,-0.419 0.304,-0.431 0.266,-0.431C0.244,-0.431 0.222,-0.425 0.201,-0.413C0.18,-0.4 0.162,-0.38 0.148,-0.353C0.135,-0.325 0.128,-0.289 0.128,-0.244C0.128,-0.202 0.135,-0.168 0.149,-0.14C0.164,-0.112 0.183,-0.091 0.208,-0.077C0.233,-0.062 0.26,-0.055 0.289,-0.055C0.312,-0.055 0.334,-0.059 0.354,-0.065C0.375,-0.072 0.393,-0.08 0.41,-0.092L0.44,-0.038C0.419,-0.023 0.395,-0.011 0.369,-0.002C0.342,0.007 0.312,0.012 0.279,0.012Z" style="fill-rule:nonzero;"/>
                </g>
                <g transform="matrix(66.6667,0,0,66.6667,705.127,294.684)">
                </g>
            </g>
            <g transform="matrix(1,0,0,1,956.03,368.668)">
                <g transform="matrix(66.6667,0,0,66.6667,278.66,306.738)">
                    <path d="M0.297,0.012C0.274,0.012 0.251,0.007 0.227,-0.005C0.203,-0.016 0.18,-0.031 0.158,-0.05L0.155,-0.05L0.148,-0L0.082,-0L0.082,-0.712L0.164,-0.712L0.164,-0.518L0.162,-0.43C0.184,-0.45 0.208,-0.466 0.234,-0.479C0.261,-0.492 0.287,-0.498 0.314,-0.498C0.356,-0.498 0.391,-0.488 0.42,-0.468C0.449,-0.447 0.471,-0.418 0.485,-0.381C0.5,-0.344 0.507,-0.301 0.507,-0.251C0.507,-0.196 0.497,-0.148 0.478,-0.109C0.458,-0.07 0.432,-0.04 0.4,-0.019C0.368,0.002 0.334,0.012 0.297,0.012ZM0.283,-0.057C0.309,-0.057 0.333,-0.065 0.354,-0.08C0.375,-0.096 0.392,-0.118 0.404,-0.147C0.416,-0.175 0.422,-0.21 0.422,-0.25C0.422,-0.285 0.418,-0.317 0.409,-0.344C0.401,-0.371 0.387,-0.392 0.368,-0.406C0.349,-0.421 0.325,-0.429 0.294,-0.429C0.274,-0.429 0.253,-0.423 0.231,-0.412C0.21,-0.401 0.187,-0.385 0.164,-0.363L0.164,-0.108C0.186,-0.089 0.207,-0.076 0.228,-0.069C0.249,-0.061 0.267,-0.057 0.283,-0.057Z" style="fill-rule:nonzero;"/>
                </g>
                <g transform="matrix(66.6667,0,0,66.6667,315.557,306.738)">
                    <path d="M0.169,0.009C0.149,0.009 0.132,0.005 0.119,-0.003C0.106,-0.012 0.097,-0.024 0.091,-0.04C0.085,-0.057 0.082,-0.077 0.082,-0.1L0.082,-0.712L0.164,-0.712L0.164,-0.094C0.164,-0.081 0.166,-0.072 0.171,-0.067C0.176,-0.062 0.182,-0.059 0.188,-0.059C0.191,-0.059 0.193,-0.059 0.196,-0.06C0.198,-0.06 0.201,-0.061 0.205,-0.061L0.217,0.001C0.211,0.003 0.204,0.005 0.196,0.007C0.188,0.008 0.179,0.009 0.169,0.009Z" style="fill-rule:nonzero;"/>
                </g>
                <g transform="matrix(66.6667,0,0,66.6667,332.567,306.738)">
                    <path d="M0.194,0.012C0.167,0.012 0.143,0.007 0.121,-0.004C0.1,-0.015 0.083,-0.031 0.07,-0.051C0.058,-0.072 0.051,-0.097 0.051,-0.126C0.051,-0.181 0.075,-0.222 0.123,-0.25C0.171,-0.278 0.247,-0.298 0.351,-0.309C0.351,-0.329 0.348,-0.349 0.342,-0.367C0.336,-0.385 0.326,-0.4 0.311,-0.412C0.297,-0.423 0.276,-0.429 0.25,-0.429C0.222,-0.429 0.196,-0.424 0.171,-0.413C0.146,-0.403 0.124,-0.392 0.105,-0.379L0.073,-0.435C0.088,-0.445 0.105,-0.455 0.125,-0.465C0.145,-0.475 0.166,-0.483 0.19,-0.489C0.213,-0.495 0.238,-0.498 0.264,-0.498C0.304,-0.498 0.336,-0.49 0.36,-0.473C0.385,-0.457 0.403,-0.434 0.415,-0.404C0.427,-0.374 0.433,-0.338 0.433,-0.298L0.433,-0L0.365,-0L0.358,-0.058L0.355,-0.058C0.331,-0.039 0.306,-0.022 0.28,-0.009C0.253,0.005 0.225,0.012 0.194,0.012ZM0.217,-0.056C0.241,-0.056 0.263,-0.062 0.284,-0.072C0.305,-0.083 0.327,-0.098 0.351,-0.119L0.351,-0.25C0.296,-0.244 0.253,-0.235 0.221,-0.224C0.189,-0.214 0.167,-0.201 0.153,-0.186C0.139,-0.17 0.132,-0.152 0.132,-0.132C0.132,-0.105 0.141,-0.085 0.157,-0.074C0.174,-0.062 0.194,-0.056 0.217,-0.056Z" style="fill-rule:nonzero;"/>
                </g>
                <g transform="matrix(66.6667,0,0,66.6667,366.193,306.738)">
                    <path d="M0.275,0.012C0.232,0.012 0.193,0.002 0.158,-0.018C0.124,-0.038 0.096,-0.067 0.076,-0.105C0.056,-0.143 0.046,-0.189 0.046,-0.242C0.046,-0.296 0.057,-0.343 0.078,-0.381C0.1,-0.419 0.129,-0.448 0.164,-0.468C0.2,-0.488 0.238,-0.498 0.28,-0.498C0.312,-0.498 0.339,-0.493 0.362,-0.482C0.385,-0.471 0.405,-0.458 0.422,-0.441L0.381,-0.39C0.369,-0.402 0.355,-0.412 0.339,-0.419C0.322,-0.426 0.304,-0.43 0.283,-0.43C0.254,-0.43 0.228,-0.422 0.205,-0.406C0.183,-0.39 0.164,-0.368 0.151,-0.34C0.138,-0.312 0.131,-0.28 0.131,-0.242C0.131,-0.205 0.137,-0.173 0.15,-0.145C0.163,-0.117 0.18,-0.095 0.203,-0.08C0.226,-0.064 0.252,-0.056 0.282,-0.056C0.305,-0.056 0.325,-0.061 0.345,-0.069C0.364,-0.078 0.381,-0.089 0.395,-0.102L0.431,-0.052C0.411,-0.032 0.387,-0.017 0.361,-0.005C0.335,0.006 0.306,0.012 0.275,0.012Z" style="fill-rule:nonzero;"/>
                </g>
                <g transform="matrix(66.6667,0,0,66.6667,396.581,306.738)">
                    <path d="M0.082,-0L0.082,-0.712L0.164,-0.712L0.164,-0.231L0.166,-0.231L0.372,-0.486L0.464,-0.486L0.302,-0.29L0.486,-0L0.396,-0L0.254,-0.234L0.164,-0.128L0.164,-0L0.082,-0Z" style="fill-rule:nonzero;"/>
                </g>
                <g transform="matrix(66.6667,0,0,66.6667,429.56,306.738)">
                </g>
            </g>
            <g transform="matrix(1,0,0,1,1108.14,477.086)">
                <g transform="matrix(66.6667,0,0,66.6667,307.853,306.738)">
                    <path d="M0.082,-0L0.082,-0.486L0.15,-0.486L0.157,-0.398L0.16,-0.398C0.176,-0.429 0.196,-0.453 0.22,-0.471C0.244,-0.489 0.27,-0.498 0.298,-0.498C0.309,-0.498 0.318,-0.497 0.326,-0.496C0.334,-0.494 0.342,-0.492 0.35,-0.488L0.332,-0.418C0.325,-0.42 0.318,-0.421 0.312,-0.422C0.305,-0.423 0.297,-0.424 0.287,-0.424C0.267,-0.424 0.245,-0.416 0.223,-0.399C0.2,-0.383 0.181,-0.354 0.164,-0.312L0.164,-0L0.082,-0Z" style="fill-rule:nonzero;"/>
                </g>
                <g transform="matrix(66.6667,0,0,66.6667,330.334,306.738)">
                    <path d="M0.279,0.012C0.236,0.012 0.196,0.002 0.161,-0.018C0.125,-0.039 0.097,-0.068 0.076,-0.106C0.056,-0.143 0.045,-0.189 0.045,-0.243C0.045,-0.296 0.056,-0.341 0.077,-0.379C0.098,-0.417 0.125,-0.447 0.159,-0.467C0.192,-0.488 0.228,-0.498 0.265,-0.498C0.306,-0.498 0.342,-0.489 0.371,-0.47C0.399,-0.451 0.421,-0.424 0.436,-0.39C0.451,-0.356 0.458,-0.316 0.458,-0.27C0.458,-0.262 0.458,-0.253 0.457,-0.245C0.457,-0.237 0.456,-0.229 0.454,-0.221L0.104,-0.221L0.104,-0.286L0.384,-0.286C0.384,-0.333 0.374,-0.369 0.354,-0.394C0.333,-0.419 0.304,-0.431 0.266,-0.431C0.244,-0.431 0.222,-0.425 0.201,-0.413C0.18,-0.4 0.162,-0.38 0.148,-0.353C0.135,-0.325 0.128,-0.289 0.128,-0.244C0.128,-0.202 0.135,-0.168 0.149,-0.14C0.164,-0.112 0.183,-0.091 0.208,-0.077C0.233,-0.062 0.26,-0.055 0.289,-0.055C0.312,-0.055 0.334,-0.059 0.354,-0.065C0.375,-0.072 0.393,-0.08 0.41,-0.092L0.44,-0.038C0.419,-0.023 0.395,-0.011 0.369,-0.002C0.342,0.007 0.312,0.012 0.279,0.012Z" style="fill-rule:nonzero;"/>
                </g>
                <g transform="matrix(66.6667,0,0,66.6667,363.386,306.738)">
                    <path d="M0.248,0.012C0.187,0.012 0.138,-0.01 0.102,-0.055C0.066,-0.099 0.047,-0.162 0.047,-0.242C0.047,-0.295 0.057,-0.34 0.077,-0.378C0.097,-0.417 0.122,-0.446 0.154,-0.467C0.186,-0.488 0.221,-0.498 0.258,-0.498C0.286,-0.498 0.311,-0.493 0.332,-0.483C0.352,-0.473 0.373,-0.46 0.394,-0.442L0.39,-0.525L0.39,-0.712L0.473,-0.712L0.473,-0L0.405,-0L0.398,-0.057L0.395,-0.057C0.376,-0.039 0.354,-0.022 0.329,-0.009C0.304,0.005 0.277,0.012 0.248,0.012ZM0.266,-0.057C0.288,-0.057 0.31,-0.063 0.33,-0.074C0.35,-0.085 0.37,-0.102 0.39,-0.124L0.39,-0.378C0.37,-0.397 0.35,-0.41 0.331,-0.418C0.312,-0.425 0.292,-0.429 0.272,-0.429C0.246,-0.429 0.223,-0.421 0.202,-0.406C0.181,-0.39 0.164,-0.369 0.151,-0.341C0.139,-0.313 0.132,-0.28 0.132,-0.243C0.132,-0.185 0.144,-0.139 0.167,-0.107C0.19,-0.074 0.223,-0.057 0.266,-0.057Z" style="fill-rule:nonzero;"/>
                </g>
                <g transform="matrix(66.6667,0,0,66.6667,400.367,306.738)">
                </g>
            </g>
            <g transform="matrix(1,0,0,1,1536.85,478.563)">
                <g transform="matrix(66.6667,0,0,66.6667,264.304,306.738)">
                    <path d="M0.297,0.012C0.274,0.012 0.251,0.007 0.227,-0.005C0.203,-0.016 0.18,-0.031 0.158,-0.05L0.155,-0.05L0.148,-0L0.082,-0L0.082,-0.712L0.164,-0.712L0.164,-0.518L0.162,-0.43C0.184,-0.45 0.208,-0.466 0.234,-0.479C0.261,-0.492 0.287,-0.498 0.314,-0.498C0.356,-0.498 0.391,-0.488 0.42,-0.468C0.449,-0.447 0.471,-0.418 0.485,-0.381C0.5,-0.344 0.507,-0.301 0.507,-0.251C0.507,-0.196 0.497,-0.148 0.478,-0.109C0.458,-0.07 0.432,-0.04 0.4,-0.019C0.368,0.002 0.334,0.012 0.297,0.012ZM0.283,-0.057C0.309,-0.057 0.333,-0.065 0.354,-0.08C0.375,-0.096 0.392,-0.118 0.404,-0.147C0.416,-0.175 0.422,-0.21 0.422,-0.25C0.422,-0.285 0.418,-0.317 0.409,-0.344C0.401,-0.371 0.387,-0.392 0.368,-0.406C0.349,-0.421 0.325,-0.429 0.294,-0.429C0.274,-0.429 0.253,-0.423 0.231,-0.412C0.21,-0.401 0.187,-0.385 0.164,-0.363L0.164,-0.108C0.186,-0.089 0.207,-0.076 0.228,-0.069C0.249,-0.061 0.267,-0.057 0.283,-0.057Z" style="fill-rule:nonzero;"/>
                </g>
                <g transform="matrix(66.6667,0,0,66.6667,301.201,306.738)">
                    <path d="M0.082,-0L0.082,-0.486L0.15,-0.486L0.157,-0.398L0.16,-0.398C0.176,-0.429 0.196,-0.453 0.22,-0.471C0.244,-0.489 0.27,-0.498 0.298,-0.498C0.309,-0.498 0.318,-0.497 0.326,-0.496C0.334,-0.494 0.342,-0.492 0.35,-0.488L0.332,-0.418C0.325,-0.42 0.318,-0.421 0.312,-0.422C0.305,-0.423 0.297,-0.424 0.287,-0.424C0.267,-0.424 0.245,-0.416 0.223,-0.399C0.2,-0.383 0.181,-0.354 0.164,-0.312L0.164,-0L0.082,-0Z" style="fill-rule:nonzero;"/>
                </g>
                <g transform="matrix(66.6667,0,0,66.6667,323.682,306.738)">
                    <path d="M0.271,0.012C0.231,0.012 0.194,0.002 0.16,-0.018C0.126,-0.038 0.098,-0.067 0.077,-0.105C0.056,-0.143 0.046,-0.189 0.046,-0.242C0.046,-0.296 0.056,-0.343 0.077,-0.381C0.098,-0.419 0.126,-0.448 0.16,-0.468C0.194,-0.488 0.231,-0.498 0.271,-0.498C0.311,-0.498 0.348,-0.488 0.382,-0.468C0.416,-0.448 0.444,-0.419 0.465,-0.381C0.486,-0.343 0.496,-0.296 0.496,-0.242C0.496,-0.189 0.486,-0.143 0.465,-0.105C0.444,-0.067 0.416,-0.038 0.382,-0.018C0.348,0.002 0.311,0.012 0.271,0.012ZM0.271,-0.056C0.299,-0.056 0.324,-0.064 0.345,-0.08C0.366,-0.095 0.382,-0.117 0.394,-0.145C0.406,-0.173 0.411,-0.205 0.411,-0.242C0.411,-0.28 0.406,-0.312 0.394,-0.34C0.382,-0.368 0.366,-0.39 0.345,-0.406C0.324,-0.422 0.299,-0.43 0.271,-0.43C0.243,-0.43 0.219,-0.422 0.198,-0.406C0.177,-0.39 0.16,-0.368 0.149,-0.34C0.137,-0.312 0.131,-0.28 0.131,-0.242C0.131,-0.205 0.137,-0.173 0.149,-0.145C0.16,-0.117 0.177,-0.095 0.198,-0.08C0.219,-0.064 0.243,-0.056 0.271,-0.056Z" style="fill-rule:nonzero;"/>
                </g>
                <g transform="matrix(66.6667,0,0,66.6667,359.568,306.738)">
                    <path d="M0.159,-0L0.024,-0.486L0.11,-0.486L0.181,-0.205C0.186,-0.183 0.191,-0.161 0.196,-0.139C0.201,-0.117 0.205,-0.093 0.209,-0.067L0.213,-0.067C0.218,-0.093 0.223,-0.117 0.228,-0.139C0.233,-0.161 0.238,-0.183 0.244,-0.205L0.316,-0.486L0.406,-0.486L0.479,-0.205C0.485,-0.183 0.49,-0.161 0.496,-0.139C0.501,-0.117 0.506,-0.093 0.511,-0.067L0.515,-0.067C0.52,-0.093 0.525,-0.117 0.53,-0.139C0.534,-0.161 0.539,-0.183 0.544,-0.205L0.615,-0.486L0.695,-0.486L0.564,-0L0.457,-0L0.392,-0.26C0.387,-0.283 0.381,-0.305 0.377,-0.328C0.372,-0.35 0.367,-0.375 0.361,-0.404L0.357,-0.404C0.353,-0.375 0.348,-0.35 0.343,-0.327C0.338,-0.305 0.332,-0.282 0.326,-0.26L0.261,-0L0.159,-0Z" style="fill-rule:nonzero;"/>
                </g>
                <g transform="matrix(66.6667,0,0,66.6667,407.476,306.738)">
                    <path d="M0.082,-0L0.082,-0.486L0.15,-0.486L0.157,-0.416L0.16,-0.416C0.183,-0.439 0.208,-0.459 0.234,-0.474C0.26,-0.49 0.29,-0.498 0.323,-0.498C0.374,-0.498 0.412,-0.482 0.436,-0.45C0.459,-0.417 0.471,-0.37 0.471,-0.308L0.471,-0L0.389,-0L0.389,-0.297C0.389,-0.343 0.382,-0.376 0.367,-0.396C0.353,-0.416 0.33,-0.427 0.297,-0.427C0.272,-0.427 0.25,-0.42 0.231,-0.408C0.211,-0.395 0.189,-0.377 0.164,-0.352L0.164,-0L0.082,-0Z" style="fill-rule:nonzero;"/>
                </g>
                <g transform="matrix(66.6667,0,0,66.6667,443.916,306.738)">
                </g>
            </g>
            <g transform="matrix(1.96739,0,0,0.702508,292.607,267.096)">
                <path d="M549.688,472.528L702.601,345.796L855.513,472.528" style="fill:none;stroke:black;stroke-width:5.64px;"/>
            </g>
            <g transform="matrix(1.11792,0,0,1.40502,889.449,24.1718)">
                <path d="M549.688,472.528L702.601,345.796L855.513,472.528" style="fill:none;stroke:black;stroke-width:6.56px;"/>
            </g>
            <g transform="matrix(1,0,0,1,399.203,-888.382)">
                <path d="M1275.7,1398.4L1275.7,1609.39" style="fill:none;stroke:black;stroke-width:8.33px;"/>
            </g>
        </g>
    </g>
</svg>
