<?xml version="1.0" encoding="UTF-8" standalone="no"?>
<!DOCTYPE svg PUBLIC "-//W3C//DTD SVG 1.1//EN" "http://www.w3.org/Graphics/SVG/1.1/DTD/svg11.dtd">
<svg width="100%" height="100%" viewBox="0 0 615 615" version="1.1" xmlns="http://www.w3.org/2000/svg" xmlns:xlink="http://www.w3.org/1999/xlink" xml:space="preserve" xmlns:serif="http://www.serif.com/" style="fill-rule:evenodd;clip-rule:evenodd;stroke-linecap:round;stroke-linejoin:round;stroke-miterlimit:1.5;">
    <g transform="matrix(1.0764,0,0,1.0764,-226.978,-345.141)">
        <path d="M228.287,338.063L228.287,874.016L764.24,874.016" style="fill:none;stroke:black;stroke-width:34.84px;"/>
    </g>
    <g transform="matrix(5.65089,0,0,5.65089,-1841.8,-3995.35)">
        <circle cx="346.213" cy="790.383" r="7.315"/>
    </g>
    <g transform="matrix(5.65089,0,0,5.65089,-1874.87,-3934.82)">
        <circle cx="346.213" cy="790.383" r="7.315"/>
    </g>
    <g transform="matrix(5.65089,0,0,5.65089,-1832.4,-3974.63)">
        <circle cx="346.213" cy="790.383" r="7.315"/>
    </g>
    <g transform="matrix(5.65089,0,0,5.65089,-1797.56,-4045.78)">
        <circle cx="346.213" cy="790.383" r="7.315"/>
    </g>
    <g transform="matrix(5.65089,0,0,5.65089,-1765.09,-4094.28)">
        <circle cx="346.213" cy="790.383" r="7.315"/>
    </g>
    <g transform="matrix(5.65089,0,0,5.65089,-1712.73,-4095.7)">
        <circle cx="346.213" cy="790.383" r="7.315"/>
    </g>
    <g transform="matrix(5.65089,0,0,5.65089,-1693.34,-4150.75)">
        <circle cx="346.213" cy="790.383" r="7.315"/>
    </g>
    <g transform="matrix(5.65089,0,0,5.65089,-1649.9,-4196.52)">
        <circle cx="346.213" cy="790.383" r="7.315"/>
    </g>
    <g transform="matrix(5.65089,0,0,5.65089,-1573.72,-4275.62)">
        <circle cx="346.213" cy="790.383" r="7.315"/>
    </g>
    <g transform="matrix(5.65089,0,0,5.65089,-1436.86,-4045.99)">
        <circle cx="346.213" cy="790.383" r="7.315" style="fill:rgb(187,55,37);"/>
    </g>
    <g transform="matrix(0.728316,0,0,0.728316,-157.105,-111.865)">
        <path d="M314.07,793.613L919.182,465.364" style="fill:none;stroke:rgb(49,115,201);stroke-width:51.49px;"/>
    </g>
</svg>
