<?xml version="1.0" encoding="UTF-8" standalone="no"?>
<!DOCTYPE svg PUBLIC "-//W3C//DTD SVG 1.1//EN" "http://www.w3.org/Graphics/SVG/1.1/DTD/svg11.dtd">
<svg width="100%" height="100%" viewBox="0 0 2334 628" version="1.1" xmlns="http://www.w3.org/2000/svg" xmlns:xlink="http://www.w3.org/1999/xlink" xml:space="preserve" xmlns:serif="http://www.serif.com/" style="fill-rule:evenodd;clip-rule:evenodd;stroke-linecap:round;stroke-linejoin:round;stroke-miterlimit:1.5;">
    <g transform="matrix(1.08903,0,0,1.63333,-89.5648,-599.888)">
        <path d="M1050.93,440.841L1050.93,509.34C1050.93,528.243 1027.91,543.59 999.558,543.59L188.629,543.59C160.278,543.59 137.261,528.243 137.261,509.34L137.261,440.841C137.261,421.938 160.278,406.591 188.629,406.591L999.558,406.591C1027.91,406.591 1050.93,421.938 1050.93,440.841Z" style="fill:none;stroke:black;stroke-width:4.5px;"/>
    </g>
    <g transform="matrix(2.5471,0,0,3.75435,-346.492,-1523.36)">
        <path d="M1050.93,433.53L1050.93,516.652C1050.93,531.52 1033.13,543.59 1011.22,543.59L176.967,543.59C155.053,543.59 137.261,531.52 137.261,516.652L137.261,433.53C137.261,418.662 155.053,406.591 176.967,406.591L1011.22,406.591C1033.13,406.591 1050.93,418.662 1050.93,433.53Z" style="fill:none;stroke:black;stroke-width:1.95px;"/>
    </g>
    <g transform="matrix(1,0,0,1,-409.525,-419.707)">
        <g transform="matrix(83.3333,0,0,83.3333,539.098,621.661)">
            <path d="M0.209,0.012C0.174,0.012 0.14,0.006 0.109,-0.007C0.077,-0.019 0.05,-0.036 0.028,-0.058L0.066,-0.106C0.087,-0.088 0.109,-0.075 0.132,-0.066C0.155,-0.057 0.182,-0.052 0.212,-0.052C0.244,-0.052 0.268,-0.06 0.284,-0.074C0.3,-0.089 0.308,-0.107 0.308,-0.128C0.308,-0.144 0.302,-0.158 0.292,-0.169C0.281,-0.18 0.267,-0.19 0.251,-0.197C0.234,-0.205 0.216,-0.212 0.198,-0.219C0.174,-0.228 0.151,-0.238 0.129,-0.25C0.107,-0.261 0.089,-0.276 0.076,-0.294C0.062,-0.311 0.055,-0.334 0.055,-0.36C0.055,-0.399 0.07,-0.432 0.099,-0.459C0.129,-0.485 0.17,-0.498 0.223,-0.498C0.253,-0.498 0.281,-0.493 0.307,-0.483C0.333,-0.473 0.355,-0.459 0.374,-0.443L0.336,-0.396C0.319,-0.408 0.301,-0.417 0.283,-0.424C0.265,-0.431 0.245,-0.434 0.223,-0.434C0.193,-0.434 0.17,-0.427 0.156,-0.413C0.141,-0.399 0.134,-0.383 0.134,-0.364C0.134,-0.349 0.138,-0.337 0.147,-0.327C0.156,-0.318 0.168,-0.309 0.184,-0.302C0.199,-0.295 0.217,-0.288 0.237,-0.281C0.262,-0.271 0.287,-0.261 0.31,-0.249C0.332,-0.238 0.351,-0.223 0.365,-0.205C0.38,-0.186 0.387,-0.162 0.387,-0.133C0.387,-0.106 0.38,-0.082 0.366,-0.06C0.353,-0.038 0.333,-0.021 0.306,-0.008C0.28,0.005 0.248,0.012 0.209,0.012Z" style="fill-rule:nonzero;"/>
        </g>
        <g transform="matrix(83.3333,0,0,83.3333,574.026,621.661)">
            <path d="M0.082,-0L0.082,-0.712L0.164,-0.712L0.164,-0.518L0.161,-0.418C0.184,-0.44 0.208,-0.459 0.234,-0.474C0.26,-0.49 0.29,-0.498 0.323,-0.498C0.374,-0.498 0.412,-0.482 0.436,-0.45C0.459,-0.417 0.471,-0.37 0.471,-0.308L0.471,-0L0.389,-0L0.389,-0.297C0.389,-0.343 0.382,-0.376 0.367,-0.396C0.353,-0.416 0.33,-0.427 0.297,-0.427C0.272,-0.427 0.25,-0.42 0.231,-0.408C0.211,-0.395 0.189,-0.377 0.164,-0.352L0.164,-0L0.082,-0Z" style="fill-rule:nonzero;"/>
        </g>
        <g transform="matrix(83.3333,0,0,83.3333,619.366,621.661)">
            <path d="M0.082,-0L0.082,-0.486L0.164,-0.486L0.164,-0L0.082,-0ZM0.123,-0.586C0.107,-0.586 0.094,-0.591 0.084,-0.601C0.073,-0.611 0.068,-0.624 0.068,-0.64C0.068,-0.656 0.073,-0.669 0.084,-0.679C0.094,-0.689 0.107,-0.694 0.123,-0.694C0.139,-0.694 0.152,-0.689 0.163,-0.679C0.173,-0.669 0.178,-0.656 0.178,-0.64C0.178,-0.624 0.173,-0.611 0.163,-0.601C0.152,-0.591 0.139,-0.586 0.123,-0.586Z" style="fill-rule:nonzero;"/>
        </g>
        <g transform="matrix(83.3333,0,0,83.3333,639.89,621.661)">
            <path d="M0.096,-0L0.096,-0.563C0.096,-0.596 0.101,-0.625 0.111,-0.649C0.121,-0.673 0.137,-0.691 0.158,-0.705C0.179,-0.718 0.205,-0.724 0.238,-0.724C0.253,-0.724 0.267,-0.723 0.282,-0.72C0.296,-0.717 0.308,-0.713 0.319,-0.708L0.301,-0.645C0.292,-0.65 0.283,-0.653 0.273,-0.655C0.264,-0.656 0.255,-0.657 0.246,-0.657C0.224,-0.657 0.206,-0.649 0.195,-0.633C0.184,-0.618 0.178,-0.594 0.178,-0.563L0.178,-0L0.096,-0ZM0.491,0.012C0.439,0.012 0.403,-0.003 0.383,-0.033C0.362,-0.063 0.352,-0.102 0.352,-0.15L0.352,-0.419L0.024,-0.419L0.024,-0.481L0.096,-0.486L0.356,-0.486L0.366,-0.622L0.434,-0.622L0.434,-0.486L0.566,-0.486L0.566,-0.419L0.434,-0.419L0.434,-0.149C0.434,-0.119 0.44,-0.096 0.451,-0.08C0.462,-0.063 0.482,-0.055 0.51,-0.055C0.518,-0.055 0.528,-0.056 0.538,-0.059C0.548,-0.062 0.557,-0.065 0.565,-0.068L0.581,-0.006C0.567,-0.002 0.553,0.003 0.537,0.006C0.521,0.01 0.506,0.012 0.491,0.012Z" style="fill-rule:nonzero;"/>
        </g>
        <g transform="matrix(83.3333,0,0,83.3333,639.89,621.661)">
        </g>
        <g transform="matrix(83.3333,0,0,83.3333,662.808,621.661)">
        </g>
        <g transform="matrix(83.3333,0,0,83.3333,689.374,621.661)">
            <path d="M0.082,-0L0.082,-0.486L0.164,-0.486L0.164,-0L0.082,-0ZM0.123,-0.586C0.107,-0.586 0.094,-0.591 0.084,-0.601C0.073,-0.611 0.068,-0.624 0.068,-0.64C0.068,-0.656 0.073,-0.669 0.084,-0.679C0.094,-0.689 0.107,-0.694 0.123,-0.694C0.139,-0.694 0.152,-0.689 0.163,-0.679C0.173,-0.669 0.178,-0.656 0.178,-0.64C0.178,-0.624 0.173,-0.611 0.163,-0.601C0.152,-0.591 0.139,-0.586 0.123,-0.586Z" style="fill-rule:nonzero;"/>
        </g>
        <g transform="matrix(83.3333,0,0,83.3333,709.898,621.661)">
            <path d="M0.082,-0L0.082,-0.486L0.15,-0.486L0.157,-0.416L0.16,-0.416C0.183,-0.439 0.208,-0.459 0.234,-0.474C0.26,-0.49 0.29,-0.498 0.323,-0.498C0.374,-0.498 0.412,-0.482 0.436,-0.45C0.459,-0.417 0.471,-0.37 0.471,-0.308L0.471,-0L0.389,-0L0.389,-0.297C0.389,-0.343 0.382,-0.376 0.367,-0.396C0.353,-0.416 0.33,-0.427 0.297,-0.427C0.272,-0.427 0.25,-0.42 0.231,-0.408C0.211,-0.395 0.189,-0.377 0.164,-0.352L0.164,-0L0.082,-0Z" style="fill-rule:nonzero;"/>
        </g>
        <g transform="matrix(83.3333,0,0,83.3333,755.448,621.661)">
            <path d="M0.246,0.224C0.207,0.224 0.172,0.219 0.141,0.208C0.111,0.198 0.087,0.183 0.071,0.164C0.054,0.145 0.045,0.121 0.045,0.093C0.045,0.072 0.051,0.052 0.064,0.034C0.077,0.015 0.094,-0.002 0.116,-0.017L0.116,-0.021C0.104,-0.029 0.094,-0.039 0.086,-0.052C0.077,-0.065 0.073,-0.081 0.073,-0.1C0.073,-0.12 0.079,-0.138 0.09,-0.154C0.102,-0.17 0.114,-0.182 0.126,-0.19L0.126,-0.194C0.111,-0.207 0.096,-0.225 0.083,-0.248C0.07,-0.271 0.063,-0.296 0.063,-0.325C0.063,-0.36 0.072,-0.391 0.089,-0.417C0.105,-0.443 0.128,-0.463 0.155,-0.477C0.183,-0.491 0.213,-0.498 0.246,-0.498C0.259,-0.498 0.272,-0.497 0.284,-0.495C0.296,-0.493 0.306,-0.49 0.315,-0.486L0.484,-0.486L0.484,-0.423L0.383,-0.423L0.383,-0.419C0.395,-0.408 0.404,-0.395 0.412,-0.379C0.42,-0.363 0.424,-0.344 0.424,-0.322C0.424,-0.288 0.416,-0.258 0.4,-0.233C0.384,-0.208 0.363,-0.188 0.336,-0.175C0.309,-0.161 0.279,-0.154 0.246,-0.154C0.234,-0.154 0.222,-0.156 0.209,-0.159C0.197,-0.161 0.185,-0.165 0.173,-0.171C0.165,-0.163 0.158,-0.156 0.152,-0.147C0.146,-0.138 0.143,-0.127 0.143,-0.113C0.143,-0.098 0.149,-0.085 0.161,-0.075C0.173,-0.065 0.195,-0.061 0.228,-0.061L0.322,-0.061C0.379,-0.061 0.422,-0.051 0.45,-0.033C0.478,-0.014 0.492,0.015 0.492,0.056C0.492,0.086 0.482,0.113 0.462,0.139C0.442,0.164 0.413,0.185 0.377,0.2C0.34,0.216 0.296,0.224 0.246,0.224ZM0.246,-0.209C0.265,-0.209 0.282,-0.214 0.297,-0.224C0.313,-0.233 0.325,-0.246 0.335,-0.264C0.344,-0.281 0.349,-0.301 0.349,-0.325C0.349,-0.361 0.339,-0.389 0.319,-0.409C0.299,-0.429 0.275,-0.438 0.246,-0.438C0.217,-0.438 0.193,-0.429 0.173,-0.409C0.153,-0.389 0.143,-0.361 0.143,-0.325C0.143,-0.301 0.147,-0.281 0.157,-0.264C0.166,-0.246 0.179,-0.233 0.195,-0.224C0.21,-0.214 0.227,-0.209 0.246,-0.209ZM0.258,0.167C0.289,0.167 0.316,0.162 0.339,0.153C0.361,0.144 0.379,0.131 0.392,0.116C0.405,0.101 0.412,0.085 0.412,0.068C0.412,0.045 0.403,0.03 0.386,0.021C0.37,0.012 0.345,0.008 0.314,0.008L0.23,0.008C0.221,0.008 0.211,0.007 0.2,0.006C0.189,0.005 0.178,0.003 0.167,0C0.149,0.013 0.137,0.026 0.129,0.04C0.121,0.054 0.117,0.068 0.117,0.082C0.117,0.108 0.129,0.129 0.155,0.144C0.18,0.159 0.214,0.167 0.258,0.167Z" style="fill-rule:nonzero;"/>
        </g>
        <g transform="matrix(83.3333,0,0,83.3333,797.472,621.661)">
        </g>
        <g transform="matrix(83.3333,0,0,83.3333,814.139,621.661)">
            <path d="M0.248,0.012C0.187,0.012 0.138,-0.01 0.102,-0.055C0.066,-0.099 0.047,-0.162 0.047,-0.242C0.047,-0.295 0.057,-0.34 0.077,-0.378C0.097,-0.417 0.122,-0.446 0.154,-0.467C0.186,-0.488 0.221,-0.498 0.258,-0.498C0.286,-0.498 0.311,-0.493 0.332,-0.483C0.352,-0.473 0.373,-0.46 0.394,-0.442L0.39,-0.525L0.39,-0.712L0.473,-0.712L0.473,-0L0.405,-0L0.398,-0.057L0.395,-0.057C0.376,-0.039 0.354,-0.022 0.329,-0.009C0.304,0.005 0.277,0.012 0.248,0.012ZM0.266,-0.057C0.288,-0.057 0.31,-0.063 0.33,-0.074C0.35,-0.085 0.37,-0.102 0.39,-0.124L0.39,-0.378C0.37,-0.397 0.35,-0.41 0.331,-0.418C0.312,-0.425 0.292,-0.429 0.272,-0.429C0.246,-0.429 0.223,-0.421 0.202,-0.406C0.181,-0.39 0.164,-0.369 0.151,-0.341C0.139,-0.313 0.132,-0.28 0.132,-0.243C0.132,-0.185 0.144,-0.139 0.167,-0.107C0.19,-0.074 0.223,-0.057 0.266,-0.057Z" style="fill-rule:nonzero;"/>
        </g>
        <g transform="matrix(83.3333,0,0,83.3333,860.365,621.661)">
            <path d="M0.194,0.012C0.167,0.012 0.143,0.007 0.121,-0.004C0.1,-0.015 0.083,-0.031 0.07,-0.051C0.058,-0.072 0.051,-0.097 0.051,-0.126C0.051,-0.181 0.075,-0.222 0.123,-0.25C0.171,-0.278 0.247,-0.298 0.351,-0.309C0.351,-0.329 0.348,-0.349 0.342,-0.367C0.336,-0.385 0.326,-0.4 0.311,-0.412C0.297,-0.423 0.276,-0.429 0.25,-0.429C0.222,-0.429 0.196,-0.424 0.171,-0.413C0.146,-0.403 0.124,-0.392 0.105,-0.379L0.073,-0.435C0.088,-0.445 0.105,-0.455 0.125,-0.465C0.145,-0.475 0.166,-0.483 0.19,-0.489C0.213,-0.495 0.238,-0.498 0.264,-0.498C0.304,-0.498 0.336,-0.49 0.36,-0.473C0.385,-0.457 0.403,-0.434 0.415,-0.404C0.427,-0.374 0.433,-0.338 0.433,-0.298L0.433,-0L0.365,-0L0.358,-0.058L0.355,-0.058C0.331,-0.039 0.306,-0.022 0.28,-0.009C0.253,0.005 0.225,0.012 0.194,0.012ZM0.217,-0.056C0.241,-0.056 0.263,-0.062 0.284,-0.072C0.305,-0.083 0.327,-0.098 0.351,-0.119L0.351,-0.25C0.296,-0.244 0.253,-0.235 0.221,-0.224C0.189,-0.214 0.167,-0.201 0.153,-0.186C0.139,-0.17 0.132,-0.152 0.132,-0.132C0.132,-0.105 0.141,-0.085 0.157,-0.074C0.174,-0.062 0.194,-0.056 0.217,-0.056Z" style="fill-rule:nonzero;"/>
        </g>
        <g transform="matrix(83.3333,0,0,83.3333,901.232,621.661)">
            <path d="M0.235,0.009C0.183,0.009 0.147,-0.006 0.127,-0.036C0.106,-0.066 0.096,-0.105 0.096,-0.153L0.096,-0.419L0.024,-0.419L0.024,-0.481L0.1,-0.486L0.11,-0.642L0.179,-0.642L0.179,-0.486L0.311,-0.486L0.311,-0.419L0.179,-0.419L0.179,-0.152C0.179,-0.122 0.184,-0.099 0.196,-0.083C0.207,-0.066 0.226,-0.058 0.254,-0.058C0.263,-0.058 0.272,-0.059 0.281,-0.061C0.29,-0.062 0.299,-0.066 0.309,-0.07L0.327,-0.012C0.314,-0.006 0.3,-0.001 0.284,0.003C0.268,0.007 0.252,0.009 0.235,0.009Z" style="fill-rule:nonzero;"/>
        </g>
        <g transform="matrix(83.3333,0,0,83.3333,927.664,621.661)">
            <path d="M0.194,0.012C0.167,0.012 0.143,0.007 0.121,-0.004C0.1,-0.015 0.083,-0.031 0.07,-0.051C0.058,-0.072 0.051,-0.097 0.051,-0.126C0.051,-0.181 0.075,-0.222 0.123,-0.25C0.171,-0.278 0.247,-0.298 0.351,-0.309C0.351,-0.329 0.348,-0.349 0.342,-0.367C0.336,-0.385 0.326,-0.4 0.311,-0.412C0.297,-0.423 0.276,-0.429 0.25,-0.429C0.222,-0.429 0.196,-0.424 0.171,-0.413C0.146,-0.403 0.124,-0.392 0.105,-0.379L0.073,-0.435C0.088,-0.445 0.105,-0.455 0.125,-0.465C0.145,-0.475 0.166,-0.483 0.19,-0.489C0.213,-0.495 0.238,-0.498 0.264,-0.498C0.304,-0.498 0.336,-0.49 0.36,-0.473C0.385,-0.457 0.403,-0.434 0.415,-0.404C0.427,-0.374 0.433,-0.338 0.433,-0.298L0.433,-0L0.365,-0L0.358,-0.058L0.355,-0.058C0.331,-0.039 0.306,-0.022 0.28,-0.009C0.253,0.005 0.225,0.012 0.194,0.012ZM0.217,-0.056C0.241,-0.056 0.263,-0.062 0.284,-0.072C0.305,-0.083 0.327,-0.098 0.351,-0.119L0.351,-0.25C0.296,-0.244 0.253,-0.235 0.221,-0.224C0.189,-0.214 0.167,-0.201 0.153,-0.186C0.139,-0.17 0.132,-0.152 0.132,-0.132C0.132,-0.105 0.141,-0.085 0.157,-0.074C0.174,-0.062 0.194,-0.056 0.217,-0.056Z" style="fill-rule:nonzero;"/>
        </g>
        <g transform="matrix(83.3333,0,0,83.3333,969.698,621.661)">
        </g>
        <g transform="matrix(83.3333,0,0,83.3333,986.364,621.661)">
            <path d="M0.209,0.012C0.174,0.012 0.14,0.006 0.109,-0.007C0.077,-0.019 0.05,-0.036 0.028,-0.058L0.066,-0.106C0.087,-0.088 0.109,-0.075 0.132,-0.066C0.155,-0.057 0.182,-0.052 0.212,-0.052C0.244,-0.052 0.268,-0.06 0.284,-0.074C0.3,-0.089 0.308,-0.107 0.308,-0.128C0.308,-0.144 0.302,-0.158 0.292,-0.169C0.281,-0.18 0.267,-0.19 0.251,-0.197C0.234,-0.205 0.216,-0.212 0.198,-0.219C0.174,-0.228 0.151,-0.238 0.129,-0.25C0.107,-0.261 0.089,-0.276 0.076,-0.294C0.062,-0.311 0.055,-0.334 0.055,-0.36C0.055,-0.399 0.07,-0.432 0.099,-0.459C0.129,-0.485 0.17,-0.498 0.223,-0.498C0.253,-0.498 0.281,-0.493 0.307,-0.483C0.333,-0.473 0.355,-0.459 0.374,-0.443L0.336,-0.396C0.319,-0.408 0.301,-0.417 0.283,-0.424C0.265,-0.431 0.245,-0.434 0.223,-0.434C0.193,-0.434 0.17,-0.427 0.156,-0.413C0.141,-0.399 0.134,-0.383 0.134,-0.364C0.134,-0.349 0.138,-0.337 0.147,-0.327C0.156,-0.318 0.168,-0.309 0.184,-0.302C0.199,-0.295 0.217,-0.288 0.237,-0.281C0.262,-0.271 0.287,-0.261 0.31,-0.249C0.332,-0.238 0.351,-0.223 0.365,-0.205C0.38,-0.186 0.387,-0.162 0.387,-0.133C0.387,-0.106 0.38,-0.082 0.366,-0.06C0.353,-0.038 0.333,-0.021 0.306,-0.008C0.28,0.005 0.248,0.012 0.209,0.012Z" style="fill-rule:nonzero;"/>
        </g>
        <g transform="matrix(83.3333,0,0,83.3333,1021.29,621.661)">
            <path d="M0.271,0.012C0.231,0.012 0.194,0.002 0.16,-0.018C0.126,-0.038 0.098,-0.067 0.077,-0.105C0.056,-0.143 0.046,-0.189 0.046,-0.242C0.046,-0.296 0.056,-0.343 0.077,-0.381C0.098,-0.419 0.126,-0.448 0.16,-0.468C0.194,-0.488 0.231,-0.498 0.271,-0.498C0.311,-0.498 0.348,-0.488 0.382,-0.468C0.416,-0.448 0.444,-0.419 0.465,-0.381C0.486,-0.343 0.496,-0.296 0.496,-0.242C0.496,-0.189 0.486,-0.143 0.465,-0.105C0.444,-0.067 0.416,-0.038 0.382,-0.018C0.348,0.002 0.311,0.012 0.271,0.012ZM0.271,-0.056C0.299,-0.056 0.324,-0.064 0.345,-0.08C0.366,-0.095 0.382,-0.117 0.394,-0.145C0.406,-0.173 0.411,-0.205 0.411,-0.242C0.411,-0.28 0.406,-0.312 0.394,-0.34C0.382,-0.368 0.366,-0.39 0.345,-0.406C0.324,-0.422 0.299,-0.43 0.271,-0.43C0.243,-0.43 0.219,-0.422 0.198,-0.406C0.177,-0.39 0.16,-0.368 0.149,-0.34C0.137,-0.312 0.131,-0.28 0.131,-0.242C0.131,-0.205 0.137,-0.173 0.149,-0.145C0.16,-0.117 0.177,-0.095 0.198,-0.08C0.219,-0.064 0.243,-0.056 0.271,-0.056Z" style="fill-rule:nonzero;"/>
        </g>
        <g transform="matrix(83.3333,0,0,83.3333,1066.48,621.661)">
        </g>
        <g transform="matrix(83.3333,0,0,83.3333,1083.15,621.661)">
            <path d="M0.082,-0L0.082,-0.486L0.15,-0.486L0.157,-0.416L0.16,-0.416C0.181,-0.439 0.204,-0.458 0.23,-0.474C0.255,-0.49 0.282,-0.498 0.311,-0.498C0.348,-0.498 0.378,-0.49 0.399,-0.473C0.42,-0.457 0.435,-0.434 0.445,-0.405C0.47,-0.433 0.496,-0.455 0.522,-0.473C0.548,-0.49 0.576,-0.498 0.605,-0.498C0.656,-0.498 0.693,-0.482 0.717,-0.45C0.741,-0.417 0.753,-0.37 0.753,-0.308L0.753,-0L0.671,-0L0.671,-0.297C0.671,-0.343 0.664,-0.376 0.649,-0.396C0.635,-0.416 0.612,-0.427 0.581,-0.427C0.562,-0.427 0.542,-0.421 0.523,-0.408C0.503,-0.396 0.481,-0.377 0.459,-0.352L0.459,-0L0.377,-0L0.377,-0.297C0.377,-0.343 0.369,-0.376 0.355,-0.396C0.34,-0.416 0.317,-0.427 0.286,-0.427C0.25,-0.427 0.209,-0.402 0.164,-0.352L0.164,-0L0.082,-0Z" style="fill-rule:nonzero;"/>
        </g>
        <g transform="matrix(83.3333,0,0,83.3333,1152.22,621.661)">
            <path d="M0.279,0.012C0.236,0.012 0.196,0.002 0.161,-0.018C0.125,-0.039 0.097,-0.068 0.076,-0.106C0.056,-0.143 0.045,-0.189 0.045,-0.243C0.045,-0.296 0.056,-0.341 0.077,-0.379C0.098,-0.417 0.125,-0.447 0.159,-0.467C0.192,-0.488 0.228,-0.498 0.265,-0.498C0.306,-0.498 0.342,-0.489 0.371,-0.47C0.399,-0.451 0.421,-0.424 0.436,-0.39C0.451,-0.356 0.458,-0.316 0.458,-0.27C0.458,-0.262 0.458,-0.253 0.457,-0.245C0.457,-0.237 0.456,-0.229 0.454,-0.221L0.104,-0.221L0.104,-0.286L0.384,-0.286C0.384,-0.333 0.374,-0.369 0.354,-0.394C0.333,-0.419 0.304,-0.431 0.266,-0.431C0.244,-0.431 0.222,-0.425 0.201,-0.413C0.18,-0.4 0.162,-0.38 0.148,-0.353C0.135,-0.325 0.128,-0.289 0.128,-0.244C0.128,-0.202 0.135,-0.168 0.149,-0.14C0.164,-0.112 0.183,-0.091 0.208,-0.077C0.233,-0.062 0.26,-0.055 0.289,-0.055C0.312,-0.055 0.334,-0.059 0.354,-0.065C0.375,-0.072 0.393,-0.08 0.41,-0.092L0.44,-0.038C0.419,-0.023 0.395,-0.011 0.369,-0.002C0.342,0.007 0.312,0.012 0.279,0.012Z" style="fill-rule:nonzero;"/>
        </g>
        <g transform="matrix(83.3333,0,0,83.3333,1192.37,621.661)">
            <path d="M0.194,0.012C0.167,0.012 0.143,0.007 0.121,-0.004C0.1,-0.015 0.083,-0.031 0.07,-0.051C0.058,-0.072 0.051,-0.097 0.051,-0.126C0.051,-0.181 0.075,-0.222 0.123,-0.25C0.171,-0.278 0.247,-0.298 0.351,-0.309C0.351,-0.329 0.348,-0.349 0.342,-0.367C0.336,-0.385 0.326,-0.4 0.311,-0.412C0.297,-0.423 0.276,-0.429 0.25,-0.429C0.222,-0.429 0.196,-0.424 0.171,-0.413C0.146,-0.403 0.124,-0.392 0.105,-0.379L0.073,-0.435C0.088,-0.445 0.105,-0.455 0.125,-0.465C0.145,-0.475 0.166,-0.483 0.19,-0.489C0.213,-0.495 0.238,-0.498 0.264,-0.498C0.304,-0.498 0.336,-0.49 0.36,-0.473C0.385,-0.457 0.403,-0.434 0.415,-0.404C0.427,-0.374 0.433,-0.338 0.433,-0.298L0.433,-0L0.365,-0L0.358,-0.058L0.355,-0.058C0.331,-0.039 0.306,-0.022 0.28,-0.009C0.253,0.005 0.225,0.012 0.194,0.012ZM0.217,-0.056C0.241,-0.056 0.263,-0.062 0.284,-0.072C0.305,-0.083 0.327,-0.098 0.351,-0.119L0.351,-0.25C0.296,-0.244 0.253,-0.235 0.221,-0.224C0.189,-0.214 0.167,-0.201 0.153,-0.186C0.139,-0.17 0.132,-0.152 0.132,-0.132C0.132,-0.105 0.141,-0.085 0.157,-0.074C0.174,-0.062 0.194,-0.056 0.217,-0.056Z" style="fill-rule:nonzero;"/>
        </g>
        <g transform="matrix(83.3333,0,0,83.3333,1234.4,621.661)">
            <path d="M0.082,-0L0.082,-0.486L0.15,-0.486L0.157,-0.416L0.16,-0.416C0.183,-0.439 0.208,-0.459 0.234,-0.474C0.26,-0.49 0.29,-0.498 0.323,-0.498C0.374,-0.498 0.412,-0.482 0.436,-0.45C0.459,-0.417 0.471,-0.37 0.471,-0.308L0.471,-0L0.389,-0L0.389,-0.297C0.389,-0.343 0.382,-0.376 0.367,-0.396C0.353,-0.416 0.33,-0.427 0.297,-0.427C0.272,-0.427 0.25,-0.42 0.231,-0.408C0.211,-0.395 0.189,-0.377 0.164,-0.352L0.164,-0L0.082,-0Z" style="fill-rule:nonzero;"/>
        </g>
        <g transform="matrix(83.3333,0,0,83.3333,1279.95,621.661)">
        </g>
        <g transform="matrix(83.3333,0,0,83.3333,1296.62,621.661)">
            <path d="M0.034,-0.406L0.034,-0.468L0.463,-0.468L0.463,-0.406L0.034,-0.406ZM0.034,-0.192L0.034,-0.254L0.463,-0.254L0.463,-0.192L0.034,-0.192Z" style="fill-rule:nonzero;"/>
        </g>
        <g transform="matrix(83.3333,0,0,83.3333,1338.04,621.661)">
        </g>
        <g transform="matrix(83.3333,0,0,83.3333,1354.7,621.661)">
            <path d="M0.249,0.012C0.185,0.012 0.135,-0.017 0.099,-0.074C0.062,-0.132 0.044,-0.214 0.044,-0.321C0.044,-0.428 0.062,-0.51 0.099,-0.566C0.135,-0.622 0.185,-0.65 0.249,-0.65C0.312,-0.65 0.362,-0.622 0.398,-0.566C0.435,-0.509 0.453,-0.428 0.453,-0.321C0.453,-0.214 0.435,-0.132 0.398,-0.074C0.362,-0.017 0.312,0.012 0.249,0.012ZM0.249,-0.054C0.273,-0.054 0.295,-0.063 0.314,-0.082C0.332,-0.1 0.347,-0.129 0.357,-0.169C0.368,-0.208 0.373,-0.259 0.373,-0.321C0.373,-0.384 0.368,-0.434 0.357,-0.473C0.347,-0.511 0.332,-0.539 0.314,-0.557C0.295,-0.575 0.273,-0.584 0.249,-0.584C0.224,-0.584 0.202,-0.575 0.183,-0.557C0.165,-0.539 0.15,-0.511 0.14,-0.473C0.129,-0.434 0.124,-0.384 0.124,-0.321C0.124,-0.259 0.129,-0.208 0.14,-0.169C0.15,-0.129 0.165,-0.1 0.183,-0.082C0.202,-0.063 0.224,-0.054 0.249,-0.054Z" style="fill-rule:nonzero;"/>
        </g>
        <g transform="matrix(83.3333,0,0,83.3333,1396.12,621.661)">
        </g>
    </g>
    <g transform="matrix(1,0,0,1,-429.594,-434.612)">
        <g transform="matrix(83.3333,0,0,83.3333,1826.54,635.566)">
            <path d="M0.209,0.012C0.174,0.012 0.14,0.006 0.109,-0.007C0.077,-0.019 0.05,-0.036 0.028,-0.058L0.066,-0.106C0.087,-0.088 0.109,-0.075 0.132,-0.066C0.155,-0.057 0.182,-0.052 0.212,-0.052C0.244,-0.052 0.268,-0.06 0.284,-0.074C0.3,-0.089 0.308,-0.107 0.308,-0.128C0.308,-0.144 0.302,-0.158 0.292,-0.169C0.281,-0.18 0.267,-0.19 0.251,-0.197C0.234,-0.205 0.216,-0.212 0.198,-0.219C0.174,-0.228 0.151,-0.238 0.129,-0.25C0.107,-0.261 0.089,-0.276 0.076,-0.294C0.062,-0.311 0.055,-0.334 0.055,-0.36C0.055,-0.399 0.07,-0.432 0.099,-0.459C0.129,-0.485 0.17,-0.498 0.223,-0.498C0.253,-0.498 0.281,-0.493 0.307,-0.483C0.333,-0.473 0.355,-0.459 0.374,-0.443L0.336,-0.396C0.319,-0.408 0.301,-0.417 0.283,-0.424C0.265,-0.431 0.245,-0.434 0.223,-0.434C0.193,-0.434 0.17,-0.427 0.156,-0.413C0.141,-0.399 0.134,-0.383 0.134,-0.364C0.134,-0.349 0.138,-0.337 0.147,-0.327C0.156,-0.318 0.168,-0.309 0.184,-0.302C0.199,-0.295 0.217,-0.288 0.237,-0.281C0.262,-0.271 0.287,-0.261 0.31,-0.249C0.332,-0.238 0.351,-0.223 0.365,-0.205C0.38,-0.186 0.387,-0.162 0.387,-0.133C0.387,-0.106 0.38,-0.082 0.366,-0.06C0.353,-0.038 0.333,-0.021 0.306,-0.008C0.28,0.005 0.248,0.012 0.209,0.012Z" style="fill-rule:nonzero;"/>
        </g>
        <g transform="matrix(83.3333,0,0,83.3333,1861.47,635.566)">
            <path d="M0.275,0.012C0.232,0.012 0.193,0.002 0.158,-0.018C0.124,-0.038 0.096,-0.067 0.076,-0.105C0.056,-0.143 0.046,-0.189 0.046,-0.242C0.046,-0.296 0.057,-0.343 0.078,-0.381C0.1,-0.419 0.129,-0.448 0.164,-0.468C0.2,-0.488 0.238,-0.498 0.28,-0.498C0.312,-0.498 0.339,-0.493 0.362,-0.482C0.385,-0.471 0.405,-0.458 0.422,-0.441L0.381,-0.39C0.369,-0.402 0.355,-0.412 0.339,-0.419C0.322,-0.426 0.304,-0.43 0.283,-0.43C0.254,-0.43 0.228,-0.422 0.205,-0.406C0.183,-0.39 0.164,-0.368 0.151,-0.34C0.138,-0.312 0.131,-0.28 0.131,-0.242C0.131,-0.205 0.137,-0.173 0.15,-0.145C0.163,-0.117 0.18,-0.095 0.203,-0.08C0.226,-0.064 0.252,-0.056 0.282,-0.056C0.305,-0.056 0.325,-0.061 0.345,-0.069C0.364,-0.078 0.381,-0.089 0.395,-0.102L0.431,-0.052C0.411,-0.032 0.387,-0.017 0.361,-0.005C0.335,0.006 0.306,0.012 0.275,0.012Z" style="fill-rule:nonzero;"/>
        </g>
        <g transform="matrix(83.3333,0,0,83.3333,1898.62,635.566)">
            <path d="M0.194,0.012C0.167,0.012 0.143,0.007 0.121,-0.004C0.1,-0.015 0.083,-0.031 0.07,-0.051C0.058,-0.072 0.051,-0.097 0.051,-0.126C0.051,-0.181 0.075,-0.222 0.123,-0.25C0.171,-0.278 0.247,-0.298 0.351,-0.309C0.351,-0.329 0.348,-0.349 0.342,-0.367C0.336,-0.385 0.326,-0.4 0.311,-0.412C0.297,-0.423 0.276,-0.429 0.25,-0.429C0.222,-0.429 0.196,-0.424 0.171,-0.413C0.146,-0.403 0.124,-0.392 0.105,-0.379L0.073,-0.435C0.088,-0.445 0.105,-0.455 0.125,-0.465C0.145,-0.475 0.166,-0.483 0.19,-0.489C0.213,-0.495 0.238,-0.498 0.264,-0.498C0.304,-0.498 0.336,-0.49 0.36,-0.473C0.385,-0.457 0.403,-0.434 0.415,-0.404C0.427,-0.374 0.433,-0.338 0.433,-0.298L0.433,-0L0.365,-0L0.358,-0.058L0.355,-0.058C0.331,-0.039 0.306,-0.022 0.28,-0.009C0.253,0.005 0.225,0.012 0.194,0.012ZM0.217,-0.056C0.241,-0.056 0.263,-0.062 0.284,-0.072C0.305,-0.083 0.327,-0.098 0.351,-0.119L0.351,-0.25C0.296,-0.244 0.253,-0.235 0.221,-0.224C0.189,-0.214 0.167,-0.201 0.153,-0.186C0.139,-0.17 0.132,-0.152 0.132,-0.132C0.132,-0.105 0.141,-0.085 0.157,-0.074C0.174,-0.062 0.194,-0.056 0.217,-0.056Z" style="fill-rule:nonzero;"/>
        </g>
        <g transform="matrix(83.3333,0,0,83.3333,1940.65,635.566)">
            <path d="M0.169,0.009C0.149,0.009 0.132,0.005 0.119,-0.003C0.106,-0.012 0.097,-0.024 0.091,-0.04C0.085,-0.057 0.082,-0.077 0.082,-0.1L0.082,-0.712L0.164,-0.712L0.164,-0.094C0.164,-0.081 0.166,-0.072 0.171,-0.067C0.176,-0.062 0.182,-0.059 0.188,-0.059C0.191,-0.059 0.193,-0.059 0.196,-0.06C0.198,-0.06 0.201,-0.061 0.205,-0.061L0.217,0.001C0.211,0.003 0.204,0.005 0.196,0.007C0.188,0.008 0.179,0.009 0.169,0.009Z" style="fill-rule:nonzero;"/>
        </g>
        <g transform="matrix(83.3333,0,0,83.3333,1961.91,635.566)">
            <path d="M0.082,-0L0.082,-0.486L0.164,-0.486L0.164,-0L0.082,-0ZM0.123,-0.586C0.107,-0.586 0.094,-0.591 0.084,-0.601C0.073,-0.611 0.068,-0.624 0.068,-0.64C0.068,-0.656 0.073,-0.669 0.084,-0.679C0.094,-0.689 0.107,-0.694 0.123,-0.694C0.139,-0.694 0.152,-0.689 0.163,-0.679C0.173,-0.669 0.178,-0.656 0.178,-0.64C0.178,-0.624 0.173,-0.611 0.163,-0.601C0.152,-0.591 0.139,-0.586 0.123,-0.586Z" style="fill-rule:nonzero;"/>
        </g>
        <g transform="matrix(83.3333,0,0,83.3333,1982.44,635.566)">
            <path d="M0.082,-0L0.082,-0.486L0.15,-0.486L0.157,-0.416L0.16,-0.416C0.183,-0.439 0.208,-0.459 0.234,-0.474C0.26,-0.49 0.29,-0.498 0.323,-0.498C0.374,-0.498 0.412,-0.482 0.436,-0.45C0.459,-0.417 0.471,-0.37 0.471,-0.308L0.471,-0L0.389,-0L0.389,-0.297C0.389,-0.343 0.382,-0.376 0.367,-0.396C0.353,-0.416 0.33,-0.427 0.297,-0.427C0.272,-0.427 0.25,-0.42 0.231,-0.408C0.211,-0.395 0.189,-0.377 0.164,-0.352L0.164,-0L0.082,-0Z" style="fill-rule:nonzero;"/>
        </g>
        <g transform="matrix(83.3333,0,0,83.3333,2027.99,635.566)">
            <path d="M0.246,0.224C0.207,0.224 0.172,0.219 0.141,0.208C0.111,0.198 0.087,0.183 0.071,0.164C0.054,0.145 0.045,0.121 0.045,0.093C0.045,0.072 0.051,0.052 0.064,0.034C0.077,0.015 0.094,-0.002 0.116,-0.017L0.116,-0.021C0.104,-0.029 0.094,-0.039 0.086,-0.052C0.077,-0.065 0.073,-0.081 0.073,-0.1C0.073,-0.12 0.079,-0.138 0.09,-0.154C0.102,-0.17 0.114,-0.182 0.126,-0.19L0.126,-0.194C0.111,-0.207 0.096,-0.225 0.083,-0.248C0.07,-0.271 0.063,-0.296 0.063,-0.325C0.063,-0.36 0.072,-0.391 0.089,-0.417C0.105,-0.443 0.128,-0.463 0.155,-0.477C0.183,-0.491 0.213,-0.498 0.246,-0.498C0.259,-0.498 0.272,-0.497 0.284,-0.495C0.296,-0.493 0.306,-0.49 0.315,-0.486L0.484,-0.486L0.484,-0.423L0.383,-0.423L0.383,-0.419C0.395,-0.408 0.404,-0.395 0.412,-0.379C0.42,-0.363 0.424,-0.344 0.424,-0.322C0.424,-0.288 0.416,-0.258 0.4,-0.233C0.384,-0.208 0.363,-0.188 0.336,-0.175C0.309,-0.161 0.279,-0.154 0.246,-0.154C0.234,-0.154 0.222,-0.156 0.209,-0.159C0.197,-0.161 0.185,-0.165 0.173,-0.171C0.165,-0.163 0.158,-0.156 0.152,-0.147C0.146,-0.138 0.143,-0.127 0.143,-0.113C0.143,-0.098 0.149,-0.085 0.161,-0.075C0.173,-0.065 0.195,-0.061 0.228,-0.061L0.322,-0.061C0.379,-0.061 0.422,-0.051 0.45,-0.033C0.478,-0.014 0.492,0.015 0.492,0.056C0.492,0.086 0.482,0.113 0.462,0.139C0.442,0.164 0.413,0.185 0.377,0.2C0.34,0.216 0.296,0.224 0.246,0.224ZM0.246,-0.209C0.265,-0.209 0.282,-0.214 0.297,-0.224C0.313,-0.233 0.325,-0.246 0.335,-0.264C0.344,-0.281 0.349,-0.301 0.349,-0.325C0.349,-0.361 0.339,-0.389 0.319,-0.409C0.299,-0.429 0.275,-0.438 0.246,-0.438C0.217,-0.438 0.193,-0.429 0.173,-0.409C0.153,-0.389 0.143,-0.361 0.143,-0.325C0.143,-0.301 0.147,-0.281 0.157,-0.264C0.166,-0.246 0.179,-0.233 0.195,-0.224C0.21,-0.214 0.227,-0.209 0.246,-0.209ZM0.258,0.167C0.289,0.167 0.316,0.162 0.339,0.153C0.361,0.144 0.379,0.131 0.392,0.116C0.405,0.101 0.412,0.085 0.412,0.068C0.412,0.045 0.403,0.03 0.386,0.021C0.37,0.012 0.345,0.008 0.314,0.008L0.23,0.008C0.221,0.008 0.211,0.007 0.2,0.006C0.189,0.005 0.178,0.003 0.167,0C0.149,0.013 0.137,0.026 0.129,0.04C0.121,0.054 0.117,0.068 0.117,0.082C0.117,0.108 0.129,0.129 0.155,0.144C0.18,0.159 0.214,0.167 0.258,0.167Z" style="fill-rule:nonzero;"/>
        </g>
        <g transform="matrix(83.3333,0,0,83.3333,2070.01,635.566)">
        </g>
        <g transform="matrix(83.3333,0,0,83.3333,2086.68,635.566)">
            <path d="M0.248,0.012C0.187,0.012 0.138,-0.01 0.102,-0.055C0.066,-0.099 0.047,-0.162 0.047,-0.242C0.047,-0.295 0.057,-0.34 0.077,-0.378C0.097,-0.417 0.122,-0.446 0.154,-0.467C0.186,-0.488 0.221,-0.498 0.258,-0.498C0.286,-0.498 0.311,-0.493 0.332,-0.483C0.352,-0.473 0.373,-0.46 0.394,-0.442L0.39,-0.525L0.39,-0.712L0.473,-0.712L0.473,-0L0.405,-0L0.398,-0.057L0.395,-0.057C0.376,-0.039 0.354,-0.022 0.329,-0.009C0.304,0.005 0.277,0.012 0.248,0.012ZM0.266,-0.057C0.288,-0.057 0.31,-0.063 0.33,-0.074C0.35,-0.085 0.37,-0.102 0.39,-0.124L0.39,-0.378C0.37,-0.397 0.35,-0.41 0.331,-0.418C0.312,-0.425 0.292,-0.429 0.272,-0.429C0.246,-0.429 0.223,-0.421 0.202,-0.406C0.181,-0.39 0.164,-0.369 0.151,-0.341C0.139,-0.313 0.132,-0.28 0.132,-0.243C0.132,-0.185 0.144,-0.139 0.167,-0.107C0.19,-0.074 0.223,-0.057 0.266,-0.057Z" style="fill-rule:nonzero;"/>
        </g>
        <g transform="matrix(83.3333,0,0,83.3333,2132.91,635.566)">
            <path d="M0.194,0.012C0.167,0.012 0.143,0.007 0.121,-0.004C0.1,-0.015 0.083,-0.031 0.07,-0.051C0.058,-0.072 0.051,-0.097 0.051,-0.126C0.051,-0.181 0.075,-0.222 0.123,-0.25C0.171,-0.278 0.247,-0.298 0.351,-0.309C0.351,-0.329 0.348,-0.349 0.342,-0.367C0.336,-0.385 0.326,-0.4 0.311,-0.412C0.297,-0.423 0.276,-0.429 0.25,-0.429C0.222,-0.429 0.196,-0.424 0.171,-0.413C0.146,-0.403 0.124,-0.392 0.105,-0.379L0.073,-0.435C0.088,-0.445 0.105,-0.455 0.125,-0.465C0.145,-0.475 0.166,-0.483 0.19,-0.489C0.213,-0.495 0.238,-0.498 0.264,-0.498C0.304,-0.498 0.336,-0.49 0.36,-0.473C0.385,-0.457 0.403,-0.434 0.415,-0.404C0.427,-0.374 0.433,-0.338 0.433,-0.298L0.433,-0L0.365,-0L0.358,-0.058L0.355,-0.058C0.331,-0.039 0.306,-0.022 0.28,-0.009C0.253,0.005 0.225,0.012 0.194,0.012ZM0.217,-0.056C0.241,-0.056 0.263,-0.062 0.284,-0.072C0.305,-0.083 0.327,-0.098 0.351,-0.119L0.351,-0.25C0.296,-0.244 0.253,-0.235 0.221,-0.224C0.189,-0.214 0.167,-0.201 0.153,-0.186C0.139,-0.17 0.132,-0.152 0.132,-0.132C0.132,-0.105 0.141,-0.085 0.157,-0.074C0.174,-0.062 0.194,-0.056 0.217,-0.056Z" style="fill-rule:nonzero;"/>
        </g>
        <g transform="matrix(83.3333,0,0,83.3333,2173.77,635.566)">
            <path d="M0.235,0.009C0.183,0.009 0.147,-0.006 0.127,-0.036C0.106,-0.066 0.096,-0.105 0.096,-0.153L0.096,-0.419L0.024,-0.419L0.024,-0.481L0.1,-0.486L0.11,-0.642L0.179,-0.642L0.179,-0.486L0.311,-0.486L0.311,-0.419L0.179,-0.419L0.179,-0.152C0.179,-0.122 0.184,-0.099 0.196,-0.083C0.207,-0.066 0.226,-0.058 0.254,-0.058C0.263,-0.058 0.272,-0.059 0.281,-0.061C0.29,-0.062 0.299,-0.066 0.309,-0.07L0.327,-0.012C0.314,-0.006 0.3,-0.001 0.284,0.003C0.268,0.007 0.252,0.009 0.235,0.009Z" style="fill-rule:nonzero;"/>
        </g>
        <g transform="matrix(83.3333,0,0,83.3333,2200.2,635.566)">
            <path d="M0.194,0.012C0.167,0.012 0.143,0.007 0.121,-0.004C0.1,-0.015 0.083,-0.031 0.07,-0.051C0.058,-0.072 0.051,-0.097 0.051,-0.126C0.051,-0.181 0.075,-0.222 0.123,-0.25C0.171,-0.278 0.247,-0.298 0.351,-0.309C0.351,-0.329 0.348,-0.349 0.342,-0.367C0.336,-0.385 0.326,-0.4 0.311,-0.412C0.297,-0.423 0.276,-0.429 0.25,-0.429C0.222,-0.429 0.196,-0.424 0.171,-0.413C0.146,-0.403 0.124,-0.392 0.105,-0.379L0.073,-0.435C0.088,-0.445 0.105,-0.455 0.125,-0.465C0.145,-0.475 0.166,-0.483 0.19,-0.489C0.213,-0.495 0.238,-0.498 0.264,-0.498C0.304,-0.498 0.336,-0.49 0.36,-0.473C0.385,-0.457 0.403,-0.434 0.415,-0.404C0.427,-0.374 0.433,-0.338 0.433,-0.298L0.433,-0L0.365,-0L0.358,-0.058L0.355,-0.058C0.331,-0.039 0.306,-0.022 0.28,-0.009C0.253,0.005 0.225,0.012 0.194,0.012ZM0.217,-0.056C0.241,-0.056 0.263,-0.062 0.284,-0.072C0.305,-0.083 0.327,-0.098 0.351,-0.119L0.351,-0.25C0.296,-0.244 0.253,-0.235 0.221,-0.224C0.189,-0.214 0.167,-0.201 0.153,-0.186C0.139,-0.17 0.132,-0.152 0.132,-0.132C0.132,-0.105 0.141,-0.085 0.157,-0.074C0.174,-0.062 0.194,-0.056 0.217,-0.056Z" style="fill-rule:nonzero;"/>
        </g>
        <g transform="matrix(83.3333,0,0,83.3333,2242.24,635.566)">
        </g>
        <g transform="matrix(83.3333,0,0,83.3333,2258.9,635.566)">
            <path d="M0.209,0.012C0.174,0.012 0.14,0.006 0.109,-0.007C0.077,-0.019 0.05,-0.036 0.028,-0.058L0.066,-0.106C0.087,-0.088 0.109,-0.075 0.132,-0.066C0.155,-0.057 0.182,-0.052 0.212,-0.052C0.244,-0.052 0.268,-0.06 0.284,-0.074C0.3,-0.089 0.308,-0.107 0.308,-0.128C0.308,-0.144 0.302,-0.158 0.292,-0.169C0.281,-0.18 0.267,-0.19 0.251,-0.197C0.234,-0.205 0.216,-0.212 0.198,-0.219C0.174,-0.228 0.151,-0.238 0.129,-0.25C0.107,-0.261 0.089,-0.276 0.076,-0.294C0.062,-0.311 0.055,-0.334 0.055,-0.36C0.055,-0.399 0.07,-0.432 0.099,-0.459C0.129,-0.485 0.17,-0.498 0.223,-0.498C0.253,-0.498 0.281,-0.493 0.307,-0.483C0.333,-0.473 0.355,-0.459 0.374,-0.443L0.336,-0.396C0.319,-0.408 0.301,-0.417 0.283,-0.424C0.265,-0.431 0.245,-0.434 0.223,-0.434C0.193,-0.434 0.17,-0.427 0.156,-0.413C0.141,-0.399 0.134,-0.383 0.134,-0.364C0.134,-0.349 0.138,-0.337 0.147,-0.327C0.156,-0.318 0.168,-0.309 0.184,-0.302C0.199,-0.295 0.217,-0.288 0.237,-0.281C0.262,-0.271 0.287,-0.261 0.31,-0.249C0.332,-0.238 0.351,-0.223 0.365,-0.205C0.38,-0.186 0.387,-0.162 0.387,-0.133C0.387,-0.106 0.38,-0.082 0.366,-0.06C0.353,-0.038 0.333,-0.021 0.306,-0.008C0.28,0.005 0.248,0.012 0.209,0.012Z" style="fill-rule:nonzero;"/>
        </g>
        <g transform="matrix(83.3333,0,0,83.3333,2293.83,635.566)">
            <path d="M0.271,0.012C0.231,0.012 0.194,0.002 0.16,-0.018C0.126,-0.038 0.098,-0.067 0.077,-0.105C0.056,-0.143 0.046,-0.189 0.046,-0.242C0.046,-0.296 0.056,-0.343 0.077,-0.381C0.098,-0.419 0.126,-0.448 0.16,-0.468C0.194,-0.488 0.231,-0.498 0.271,-0.498C0.311,-0.498 0.348,-0.488 0.382,-0.468C0.416,-0.448 0.444,-0.419 0.465,-0.381C0.486,-0.343 0.496,-0.296 0.496,-0.242C0.496,-0.189 0.486,-0.143 0.465,-0.105C0.444,-0.067 0.416,-0.038 0.382,-0.018C0.348,0.002 0.311,0.012 0.271,0.012ZM0.271,-0.056C0.299,-0.056 0.324,-0.064 0.345,-0.08C0.366,-0.095 0.382,-0.117 0.394,-0.145C0.406,-0.173 0.411,-0.205 0.411,-0.242C0.411,-0.28 0.406,-0.312 0.394,-0.34C0.382,-0.368 0.366,-0.39 0.345,-0.406C0.324,-0.422 0.299,-0.43 0.271,-0.43C0.243,-0.43 0.219,-0.422 0.198,-0.406C0.177,-0.39 0.16,-0.368 0.149,-0.34C0.137,-0.312 0.131,-0.28 0.131,-0.242C0.131,-0.205 0.137,-0.173 0.149,-0.145C0.16,-0.117 0.177,-0.095 0.198,-0.08C0.219,-0.064 0.243,-0.056 0.271,-0.056Z" style="fill-rule:nonzero;"/>
        </g>
        <g transform="matrix(83.3333,0,0,83.3333,2339.02,635.566)">
        </g>
        <g transform="matrix(83.3333,0,0,83.3333,2355.69,635.566)">
            <path d="M0.272,0.012C0.225,0.012 0.183,0.003 0.144,-0.014C0.105,-0.032 0.071,-0.056 0.042,-0.086L0.089,-0.14C0.112,-0.116 0.14,-0.096 0.173,-0.082C0.205,-0.068 0.238,-0.061 0.273,-0.061C0.316,-0.061 0.35,-0.071 0.374,-0.091C0.398,-0.11 0.41,-0.136 0.41,-0.168C0.41,-0.191 0.405,-0.209 0.396,-0.222C0.386,-0.236 0.373,-0.247 0.357,-0.256C0.34,-0.265 0.322,-0.275 0.301,-0.284L0.207,-0.325C0.186,-0.334 0.165,-0.346 0.145,-0.36C0.124,-0.374 0.107,-0.392 0.094,-0.414C0.08,-0.436 0.074,-0.462 0.074,-0.494C0.074,-0.528 0.083,-0.557 0.1,-0.584C0.118,-0.61 0.142,-0.63 0.173,-0.646C0.205,-0.661 0.24,-0.668 0.28,-0.668C0.32,-0.668 0.357,-0.661 0.39,-0.646C0.423,-0.631 0.451,-0.612 0.474,-0.589L0.429,-0.535C0.408,-0.553 0.386,-0.568 0.361,-0.579C0.336,-0.589 0.309,-0.595 0.28,-0.595C0.244,-0.595 0.214,-0.586 0.192,-0.569C0.169,-0.552 0.158,-0.528 0.158,-0.499C0.158,-0.478 0.163,-0.461 0.174,-0.448C0.185,-0.434 0.199,-0.423 0.216,-0.415C0.233,-0.406 0.25,-0.398 0.267,-0.39L0.36,-0.35C0.386,-0.339 0.409,-0.326 0.43,-0.311C0.45,-0.296 0.466,-0.278 0.478,-0.256C0.49,-0.234 0.495,-0.207 0.495,-0.175C0.495,-0.14 0.486,-0.109 0.469,-0.08C0.451,-0.052 0.425,-0.029 0.392,-0.013C0.358,0.004 0.318,0.012 0.272,0.012Z" style="fill-rule:nonzero;"/>
        </g>
        <g transform="matrix(83.3333,0,0,83.3333,2400.16,635.566)">
            <path d="M0.09,-0L0.09,-0.656L0.254,-0.656C0.321,-0.656 0.378,-0.644 0.424,-0.618C0.47,-0.593 0.504,-0.556 0.528,-0.508C0.552,-0.459 0.564,-0.4 0.564,-0.331C0.564,-0.261 0.552,-0.202 0.528,-0.153C0.505,-0.103 0.471,-0.065 0.425,-0.039C0.38,-0.013 0.324,-0 0.258,-0L0.09,-0ZM0.173,-0.068L0.248,-0.068C0.299,-0.068 0.342,-0.079 0.376,-0.1C0.41,-0.12 0.435,-0.15 0.452,-0.189C0.469,-0.228 0.478,-0.275 0.478,-0.331C0.478,-0.386 0.469,-0.433 0.452,-0.471C0.435,-0.509 0.41,-0.538 0.376,-0.558C0.342,-0.578 0.299,-0.588 0.248,-0.588L0.173,-0.588L0.173,-0.068Z" style="fill-rule:nonzero;"/>
        </g>
        <g transform="matrix(83.3333,0,0,83.3333,2451.44,635.566)">
        </g>
        <g transform="matrix(83.3333,0,0,83.3333,2468.11,635.566)">
            <path d="M0.034,-0.406L0.034,-0.468L0.463,-0.468L0.463,-0.406L0.034,-0.406ZM0.034,-0.192L0.034,-0.254L0.463,-0.254L0.463,-0.192L0.034,-0.192Z" style="fill-rule:nonzero;"/>
        </g>
        <g transform="matrix(83.3333,0,0,83.3333,2509.53,635.566)">
        </g>
        <g transform="matrix(83.3333,0,0,83.3333,2526.19,635.566)">
            <path d="M0.079,-0L0.079,-0.068L0.225,-0.068L0.225,-0.538L0.109,-0.538L0.109,-0.591C0.138,-0.596 0.163,-0.603 0.185,-0.61C0.207,-0.618 0.227,-0.627 0.244,-0.638L0.307,-0.638L0.307,-0.068L0.439,-0.068L0.439,-0L0.079,-0Z" style="fill-rule:nonzero;"/>
        </g>
        <g transform="matrix(83.3333,0,0,83.3333,2567.61,635.566)">
        </g>
    </g>
    <g transform="matrix(1,0,0,1,-211.346,-454.935)">
        <g transform="matrix(83.3333,0,0,83.3333,475.524,833.157)">
            <path d="M0.065,-0L0.065,-0.496L0.185,-0.496L0.195,-0.432L0.199,-0.432C0.219,-0.453 0.241,-0.471 0.265,-0.486C0.289,-0.501 0.317,-0.508 0.349,-0.508C0.384,-0.508 0.413,-0.501 0.435,-0.486C0.457,-0.472 0.474,-0.451 0.486,-0.425C0.508,-0.448 0.531,-0.467 0.556,-0.484C0.581,-0.5 0.609,-0.508 0.642,-0.508C0.696,-0.508 0.735,-0.49 0.76,-0.455C0.785,-0.419 0.797,-0.37 0.797,-0.308L0.797,-0L0.65,-0L0.65,-0.289C0.65,-0.325 0.645,-0.349 0.635,-0.363C0.626,-0.376 0.61,-0.383 0.589,-0.383C0.576,-0.383 0.563,-0.379 0.549,-0.371C0.535,-0.364 0.52,-0.351 0.504,-0.335L0.504,-0L0.357,-0L0.357,-0.289C0.357,-0.325 0.352,-0.349 0.343,-0.363C0.333,-0.376 0.317,-0.383 0.296,-0.383C0.271,-0.383 0.242,-0.367 0.212,-0.335L0.212,-0L0.065,-0Z" style="fill-rule:nonzero;"/>
        </g>
        <g transform="matrix(83.3333,0,0,83.3333,546.948,833.157)">
            <path d="M0.287,0.012C0.24,0.012 0.197,0.002 0.159,-0.019C0.121,-0.039 0.091,-0.069 0.069,-0.108C0.047,-0.146 0.036,-0.193 0.036,-0.248C0.036,-0.302 0.047,-0.348 0.069,-0.387C0.092,-0.426 0.121,-0.455 0.157,-0.476C0.193,-0.498 0.23,-0.508 0.27,-0.508C0.318,-0.508 0.357,-0.498 0.388,-0.477C0.419,-0.456 0.443,-0.427 0.458,-0.391C0.474,-0.355 0.481,-0.315 0.481,-0.27C0.481,-0.257 0.481,-0.245 0.479,-0.233C0.478,-0.221 0.476,-0.211 0.475,-0.203L0.15,-0.203L0.148,-0.305L0.355,-0.305C0.355,-0.331 0.348,-0.353 0.336,-0.37C0.323,-0.387 0.303,-0.395 0.273,-0.395C0.257,-0.395 0.242,-0.391 0.226,-0.382C0.211,-0.373 0.198,-0.358 0.188,-0.337C0.178,-0.316 0.173,-0.286 0.174,-0.248C0.175,-0.211 0.182,-0.181 0.195,-0.16C0.208,-0.139 0.224,-0.123 0.244,-0.115C0.264,-0.106 0.285,-0.101 0.307,-0.101C0.326,-0.101 0.345,-0.104 0.362,-0.109C0.38,-0.115 0.398,-0.123 0.415,-0.133L0.463,-0.043C0.438,-0.026 0.41,-0.012 0.379,-0.003C0.347,0.007 0.317,0.012 0.287,0.012Z" style="fill-rule:nonzero;"/>
        </g>
        <g transform="matrix(83.3333,0,0,83.3333,589.168,833.157)">
            <path d="M0.19,0.012C0.16,0.012 0.133,0.005 0.111,-0.008C0.089,-0.021 0.072,-0.039 0.06,-0.062C0.048,-0.084 0.042,-0.11 0.042,-0.138C0.042,-0.191 0.064,-0.232 0.108,-0.261C0.152,-0.291 0.223,-0.31 0.321,-0.32C0.32,-0.335 0.317,-0.347 0.312,-0.357C0.306,-0.368 0.298,-0.376 0.286,-0.382C0.275,-0.387 0.261,-0.39 0.243,-0.39C0.222,-0.39 0.201,-0.386 0.18,-0.379C0.158,-0.372 0.136,-0.361 0.111,-0.347L0.059,-0.443C0.08,-0.456 0.102,-0.468 0.125,-0.477C0.148,-0.487 0.171,-0.495 0.196,-0.5C0.22,-0.505 0.245,-0.508 0.271,-0.508C0.314,-0.508 0.349,-0.5 0.378,-0.484C0.408,-0.467 0.43,-0.442 0.445,-0.409C0.461,-0.376 0.468,-0.334 0.468,-0.283L0.468,-0L0.348,-0L0.338,-0.051L0.334,-0.051C0.313,-0.032 0.29,-0.017 0.267,-0.006C0.244,0.006 0.218,0.012 0.19,0.012ZM0.239,-0.103C0.256,-0.103 0.271,-0.107 0.283,-0.114C0.296,-0.121 0.309,-0.131 0.321,-0.144L0.321,-0.228C0.286,-0.224 0.259,-0.218 0.239,-0.21C0.218,-0.202 0.204,-0.194 0.196,-0.183C0.187,-0.173 0.183,-0.162 0.183,-0.149C0.183,-0.134 0.188,-0.122 0.198,-0.115C0.209,-0.107 0.222,-0.103 0.239,-0.103Z" style="fill-rule:nonzero;"/>
        </g>
        <g transform="matrix(83.3333,0,0,83.3333,633.101,833.157)">
            <path d="M0.065,-0L0.065,-0.496L0.185,-0.496L0.195,-0.433L0.199,-0.433C0.22,-0.454 0.243,-0.471 0.269,-0.486C0.295,-0.501 0.325,-0.508 0.358,-0.508C0.413,-0.508 0.452,-0.49 0.476,-0.455C0.5,-0.419 0.512,-0.37 0.512,-0.308L0.512,-0L0.365,-0L0.365,-0.289C0.365,-0.325 0.36,-0.349 0.351,-0.363C0.341,-0.376 0.325,-0.383 0.304,-0.383C0.285,-0.383 0.269,-0.379 0.256,-0.37C0.243,-0.362 0.228,-0.35 0.212,-0.335L0.212,-0L0.065,-0Z" style="fill-rule:nonzero;"/>
        </g>
        <g transform="matrix(83.3333,0,0,83.3333,680.78,833.157)">
            <rect x="0.043" y="-0.305" width="0.246" height="0.104" style="fill-rule:nonzero;"/>
        </g>
        <g transform="matrix(83.3333,0,0,83.3333,708.438,833.157)">
            <path d="M0.284,0.012C0.237,0.012 0.195,0.002 0.157,-0.019C0.12,-0.039 0.09,-0.069 0.069,-0.108C0.047,-0.146 0.036,-0.193 0.036,-0.248C0.036,-0.303 0.048,-0.35 0.072,-0.388C0.096,-0.427 0.128,-0.457 0.167,-0.477C0.206,-0.498 0.249,-0.508 0.294,-0.508C0.325,-0.508 0.352,-0.503 0.377,-0.493C0.401,-0.484 0.422,-0.471 0.439,-0.455L0.37,-0.364C0.361,-0.371 0.351,-0.378 0.34,-0.382C0.329,-0.387 0.317,-0.389 0.303,-0.389C0.28,-0.389 0.259,-0.384 0.242,-0.372C0.225,-0.36 0.211,-0.344 0.201,-0.323C0.191,-0.302 0.186,-0.277 0.186,-0.248C0.186,-0.219 0.191,-0.194 0.201,-0.173C0.211,-0.152 0.224,-0.136 0.241,-0.124C0.258,-0.112 0.278,-0.107 0.299,-0.107C0.316,-0.107 0.331,-0.11 0.346,-0.116C0.361,-0.122 0.374,-0.13 0.387,-0.139L0.445,-0.049C0.424,-0.03 0.4,-0.015 0.372,-0.004C0.344,0.007 0.315,0.012 0.284,0.012Z" style="fill-rule:nonzero;"/>
        </g>
        <g transform="matrix(83.3333,0,0,83.3333,745.072,833.157)">
            <path d="M0.287,0.012C0.24,0.012 0.197,0.002 0.159,-0.019C0.121,-0.039 0.091,-0.069 0.069,-0.108C0.047,-0.146 0.036,-0.193 0.036,-0.248C0.036,-0.302 0.047,-0.348 0.069,-0.387C0.092,-0.426 0.121,-0.455 0.157,-0.476C0.193,-0.498 0.23,-0.508 0.27,-0.508C0.318,-0.508 0.357,-0.498 0.388,-0.477C0.419,-0.456 0.443,-0.427 0.458,-0.391C0.474,-0.355 0.481,-0.315 0.481,-0.27C0.481,-0.257 0.481,-0.245 0.479,-0.233C0.478,-0.221 0.476,-0.211 0.475,-0.203L0.15,-0.203L0.148,-0.305L0.355,-0.305C0.355,-0.331 0.348,-0.353 0.336,-0.37C0.323,-0.387 0.303,-0.395 0.273,-0.395C0.257,-0.395 0.242,-0.391 0.226,-0.382C0.211,-0.373 0.198,-0.358 0.188,-0.337C0.178,-0.316 0.173,-0.286 0.174,-0.248C0.175,-0.211 0.182,-0.181 0.195,-0.16C0.208,-0.139 0.224,-0.123 0.244,-0.115C0.264,-0.106 0.285,-0.101 0.307,-0.101C0.326,-0.101 0.345,-0.104 0.362,-0.109C0.38,-0.115 0.398,-0.123 0.415,-0.133L0.463,-0.043C0.438,-0.026 0.41,-0.012 0.379,-0.003C0.347,0.007 0.317,0.012 0.287,0.012Z" style="fill-rule:nonzero;"/>
        </g>
        <g transform="matrix(83.3333,0,0,83.3333,788.208,833.157)">
            <path d="M0.065,-0L0.065,-0.496L0.185,-0.496L0.195,-0.433L0.199,-0.433C0.22,-0.454 0.243,-0.471 0.269,-0.486C0.295,-0.501 0.325,-0.508 0.358,-0.508C0.413,-0.508 0.452,-0.49 0.476,-0.455C0.5,-0.419 0.512,-0.37 0.512,-0.308L0.512,-0L0.365,-0L0.365,-0.289C0.365,-0.325 0.36,-0.349 0.351,-0.363C0.341,-0.376 0.325,-0.383 0.304,-0.383C0.285,-0.383 0.269,-0.379 0.256,-0.37C0.243,-0.362 0.228,-0.35 0.212,-0.335L0.212,-0L0.065,-0Z" style="fill-rule:nonzero;"/>
        </g>
        <g transform="matrix(83.3333,0,0,83.3333,835.887,833.157)">
            <path d="M0.256,0.011C0.195,0.011 0.151,-0.007 0.124,-0.042C0.098,-0.078 0.084,-0.124 0.084,-0.181L0.084,-0.381L0.017,-0.381L0.017,-0.49L0.093,-0.496L0.11,-0.648L0.232,-0.648L0.232,-0.496L0.351,-0.496L0.351,-0.381L0.232,-0.381L0.232,-0.183C0.232,-0.155 0.238,-0.135 0.249,-0.123C0.261,-0.111 0.276,-0.104 0.296,-0.104C0.304,-0.104 0.312,-0.105 0.32,-0.106C0.328,-0.107 0.336,-0.109 0.343,-0.112L0.367,-0.009C0.354,-0.004 0.338,0.001 0.319,0.005C0.301,0.009 0.279,0.011 0.256,0.011Z" style="fill-rule:nonzero;"/>
        </g>
        <g transform="matrix(83.3333,0,0,83.3333,866.29,833.157)">
            <path d="M0.287,0.012C0.24,0.012 0.197,0.002 0.159,-0.019C0.121,-0.039 0.091,-0.069 0.069,-0.108C0.047,-0.146 0.036,-0.193 0.036,-0.248C0.036,-0.302 0.047,-0.348 0.069,-0.387C0.092,-0.426 0.121,-0.455 0.157,-0.476C0.193,-0.498 0.23,-0.508 0.27,-0.508C0.318,-0.508 0.357,-0.498 0.388,-0.477C0.419,-0.456 0.443,-0.427 0.458,-0.391C0.474,-0.355 0.481,-0.315 0.481,-0.27C0.481,-0.257 0.481,-0.245 0.479,-0.233C0.478,-0.221 0.476,-0.211 0.475,-0.203L0.15,-0.203L0.148,-0.305L0.355,-0.305C0.355,-0.331 0.348,-0.353 0.336,-0.37C0.323,-0.387 0.303,-0.395 0.273,-0.395C0.257,-0.395 0.242,-0.391 0.226,-0.382C0.211,-0.373 0.198,-0.358 0.188,-0.337C0.178,-0.316 0.173,-0.286 0.174,-0.248C0.175,-0.211 0.182,-0.181 0.195,-0.16C0.208,-0.139 0.224,-0.123 0.244,-0.115C0.264,-0.106 0.285,-0.101 0.307,-0.101C0.326,-0.101 0.345,-0.104 0.362,-0.109C0.38,-0.115 0.398,-0.123 0.415,-0.133L0.463,-0.043C0.438,-0.026 0.41,-0.012 0.379,-0.003C0.347,0.007 0.317,0.012 0.287,0.012Z" style="fill-rule:nonzero;"/>
        </g>
        <g transform="matrix(83.3333,0,0,83.3333,909.427,833.157)">
            <path d="M0.065,-0L0.065,-0.496L0.185,-0.496L0.195,-0.409L0.199,-0.409C0.217,-0.443 0.239,-0.467 0.264,-0.484C0.289,-0.5 0.314,-0.508 0.34,-0.508C0.354,-0.508 0.366,-0.507 0.375,-0.506C0.384,-0.504 0.392,-0.502 0.399,-0.498L0.371,-0.373C0.363,-0.375 0.355,-0.377 0.348,-0.378C0.341,-0.379 0.332,-0.379 0.321,-0.379C0.302,-0.379 0.283,-0.372 0.262,-0.359C0.242,-0.345 0.225,-0.322 0.212,-0.288L0.212,-0L0.065,-0Z" style="fill-rule:nonzero;"/>
        </g>
        <g transform="matrix(83.3333,0,0,83.3333,942.617,833.157)">
            <path d="M0.065,-0L0.065,-0.496L0.212,-0.496L0.212,-0L0.065,-0ZM0.138,-0.569C0.113,-0.569 0.093,-0.576 0.078,-0.59C0.063,-0.604 0.055,-0.623 0.055,-0.646C0.055,-0.669 0.063,-0.688 0.078,-0.702C0.093,-0.716 0.113,-0.723 0.138,-0.723C0.163,-0.723 0.183,-0.716 0.198,-0.702C0.213,-0.688 0.221,-0.669 0.221,-0.646C0.221,-0.623 0.213,-0.604 0.198,-0.59C0.183,-0.576 0.163,-0.569 0.138,-0.569Z" style="fill-rule:nonzero;"/>
        </g>
        <g transform="matrix(83.3333,0,0,83.3333,965.649,833.157)">
            <path d="M0.065,-0L0.065,-0.496L0.185,-0.496L0.195,-0.433L0.199,-0.433C0.22,-0.454 0.243,-0.471 0.269,-0.486C0.295,-0.501 0.325,-0.508 0.358,-0.508C0.413,-0.508 0.452,-0.49 0.476,-0.455C0.5,-0.419 0.512,-0.37 0.512,-0.308L0.512,-0L0.365,-0L0.365,-0.289C0.365,-0.325 0.36,-0.349 0.351,-0.363C0.341,-0.376 0.325,-0.383 0.304,-0.383C0.285,-0.383 0.269,-0.379 0.256,-0.37C0.243,-0.362 0.228,-0.35 0.212,-0.335L0.212,-0L0.065,-0Z" style="fill-rule:nonzero;"/>
        </g>
        <g transform="matrix(83.3333,0,0,83.3333,1013.33,833.157)">
            <path d="M0.242,0.211C0.203,0.211 0.168,0.206 0.137,0.198C0.105,0.189 0.08,0.175 0.062,0.157C0.043,0.138 0.034,0.115 0.034,0.085C0.034,0.064 0.04,0.046 0.052,0.029C0.065,0.013 0.082,-0.002 0.105,-0.015L0.105,-0.019C0.092,-0.028 0.081,-0.039 0.073,-0.052C0.064,-0.066 0.059,-0.083 0.059,-0.103C0.059,-0.121 0.065,-0.138 0.075,-0.155C0.086,-0.171 0.099,-0.185 0.115,-0.196L0.115,-0.2C0.097,-0.212 0.082,-0.229 0.068,-0.252C0.055,-0.274 0.048,-0.3 0.048,-0.329C0.048,-0.368 0.058,-0.401 0.077,-0.428C0.096,-0.455 0.122,-0.475 0.153,-0.488C0.184,-0.501 0.218,-0.508 0.253,-0.508C0.267,-0.508 0.281,-0.507 0.294,-0.505C0.307,-0.503 0.319,-0.5 0.33,-0.496L0.511,-0.496L0.511,-0.389L0.428,-0.389L0.428,-0.385C0.435,-0.376 0.44,-0.367 0.443,-0.357C0.447,-0.346 0.448,-0.335 0.449,-0.322C0.448,-0.285 0.44,-0.254 0.422,-0.229C0.405,-0.205 0.381,-0.187 0.352,-0.175C0.322,-0.163 0.289,-0.157 0.253,-0.157C0.244,-0.157 0.235,-0.158 0.225,-0.159C0.215,-0.161 0.204,-0.163 0.193,-0.167C0.187,-0.161 0.183,-0.156 0.18,-0.151C0.177,-0.146 0.175,-0.139 0.175,-0.13C0.175,-0.118 0.181,-0.109 0.192,-0.103C0.204,-0.096 0.223,-0.093 0.25,-0.093L0.33,-0.093C0.391,-0.093 0.438,-0.083 0.47,-0.064C0.503,-0.044 0.519,-0.012 0.519,0.033C0.519,0.067 0.508,0.098 0.485,0.125C0.463,0.151 0.431,0.172 0.389,0.188C0.348,0.203 0.299,0.211 0.242,0.211ZM0.253,-0.246C0.266,-0.246 0.278,-0.249 0.288,-0.255C0.298,-0.261 0.306,-0.271 0.312,-0.283C0.318,-0.295 0.321,-0.31 0.321,-0.329C0.321,-0.355 0.315,-0.376 0.302,-0.389C0.289,-0.403 0.273,-0.409 0.253,-0.409C0.234,-0.409 0.217,-0.403 0.205,-0.389C0.192,-0.376 0.185,-0.355 0.185,-0.329C0.185,-0.31 0.188,-0.295 0.194,-0.283C0.2,-0.271 0.209,-0.261 0.219,-0.255C0.229,-0.249 0.24,-0.246 0.253,-0.246ZM0.265,0.119C0.287,0.119 0.307,0.116 0.324,0.111C0.341,0.106 0.354,0.098 0.364,0.089C0.374,0.08 0.379,0.069 0.379,0.058C0.379,0.042 0.372,0.032 0.359,0.027C0.346,0.022 0.327,0.019 0.303,0.019L0.252,0.019C0.235,0.019 0.221,0.019 0.21,0.018C0.2,0.017 0.19,0.015 0.182,0.013C0.173,0.021 0.166,0.029 0.162,0.036C0.157,0.044 0.155,0.053 0.155,0.062C0.155,0.081 0.165,0.095 0.186,0.104C0.206,0.114 0.232,0.119 0.265,0.119Z" style="fill-rule:nonzero;"/>
        </g>
        <g transform="matrix(83.3333,0,0,83.3333,1057.86,833.157)">
        </g>
    </g>
    <g transform="matrix(1,0,0,1,-124.092,-455.243)">
        <g transform="matrix(83.3333,0,0,83.3333,777.001,1065.26)">
            <path d="M0.211,0.012C0.178,0.012 0.144,0.006 0.11,-0.007C0.075,-0.02 0.046,-0.038 0.021,-0.062L0.083,-0.145C0.106,-0.127 0.129,-0.115 0.151,-0.107C0.173,-0.1 0.195,-0.097 0.215,-0.097C0.237,-0.097 0.253,-0.101 0.263,-0.108C0.273,-0.116 0.278,-0.126 0.278,-0.139C0.278,-0.15 0.273,-0.159 0.264,-0.167C0.256,-0.174 0.244,-0.181 0.23,-0.187C0.215,-0.192 0.199,-0.199 0.181,-0.205C0.157,-0.214 0.135,-0.225 0.115,-0.238C0.095,-0.251 0.079,-0.267 0.067,-0.286C0.055,-0.305 0.048,-0.327 0.048,-0.353C0.048,-0.399 0.066,-0.437 0.101,-0.465C0.135,-0.494 0.181,-0.508 0.238,-0.508C0.274,-0.508 0.307,-0.502 0.337,-0.491C0.366,-0.479 0.392,-0.464 0.413,-0.445L0.35,-0.363C0.332,-0.376 0.314,-0.385 0.296,-0.391C0.278,-0.397 0.26,-0.399 0.243,-0.399C0.223,-0.399 0.209,-0.396 0.2,-0.388C0.191,-0.381 0.186,-0.372 0.186,-0.36C0.186,-0.35 0.189,-0.342 0.196,-0.336C0.202,-0.329 0.212,-0.323 0.226,-0.318C0.24,-0.312 0.257,-0.306 0.278,-0.299C0.303,-0.291 0.327,-0.28 0.347,-0.267C0.368,-0.254 0.385,-0.238 0.397,-0.218C0.409,-0.199 0.415,-0.176 0.415,-0.148C0.415,-0.118 0.407,-0.091 0.392,-0.067C0.376,-0.043 0.353,-0.024 0.323,-0.009C0.293,0.005 0.256,0.012 0.211,0.012Z" style="fill-rule:nonzero;"/>
        </g>
        <g transform="matrix(83.3333,0,0,83.3333,812.238,1065.26)">
            <path d="M0.256,0.011C0.195,0.011 0.151,-0.007 0.124,-0.042C0.098,-0.078 0.084,-0.124 0.084,-0.181L0.084,-0.381L0.017,-0.381L0.017,-0.49L0.093,-0.496L0.11,-0.648L0.232,-0.648L0.232,-0.496L0.351,-0.496L0.351,-0.381L0.232,-0.381L0.232,-0.183C0.232,-0.155 0.238,-0.135 0.249,-0.123C0.261,-0.111 0.276,-0.104 0.296,-0.104C0.304,-0.104 0.312,-0.105 0.32,-0.106C0.328,-0.107 0.336,-0.109 0.343,-0.112L0.367,-0.009C0.354,-0.004 0.338,0.001 0.319,0.005C0.301,0.009 0.279,0.011 0.256,0.011Z" style="fill-rule:nonzero;"/>
        </g>
        <g transform="matrix(83.3333,0,0,83.3333,842.474,1065.26)">
            <path d="M0.19,0.012C0.16,0.012 0.133,0.005 0.111,-0.008C0.089,-0.021 0.072,-0.039 0.06,-0.062C0.048,-0.084 0.042,-0.11 0.042,-0.138C0.042,-0.191 0.064,-0.232 0.108,-0.261C0.152,-0.291 0.223,-0.31 0.321,-0.32C0.32,-0.335 0.317,-0.347 0.312,-0.357C0.306,-0.368 0.298,-0.376 0.286,-0.382C0.275,-0.387 0.261,-0.39 0.243,-0.39C0.222,-0.39 0.201,-0.386 0.18,-0.379C0.158,-0.372 0.136,-0.361 0.111,-0.347L0.059,-0.443C0.08,-0.456 0.102,-0.468 0.125,-0.477C0.148,-0.487 0.171,-0.495 0.196,-0.5C0.22,-0.505 0.245,-0.508 0.271,-0.508C0.314,-0.508 0.349,-0.5 0.378,-0.484C0.408,-0.467 0.43,-0.442 0.445,-0.409C0.461,-0.376 0.468,-0.334 0.468,-0.283L0.468,-0L0.348,-0L0.338,-0.051L0.334,-0.051C0.313,-0.032 0.29,-0.017 0.267,-0.006C0.244,0.006 0.218,0.012 0.19,0.012ZM0.239,-0.103C0.256,-0.103 0.271,-0.107 0.283,-0.114C0.296,-0.121 0.309,-0.131 0.321,-0.144L0.321,-0.228C0.286,-0.224 0.259,-0.218 0.239,-0.21C0.218,-0.202 0.204,-0.194 0.196,-0.183C0.187,-0.173 0.183,-0.162 0.183,-0.149C0.183,-0.134 0.188,-0.122 0.198,-0.115C0.209,-0.107 0.222,-0.103 0.239,-0.103Z" style="fill-rule:nonzero;"/>
        </g>
        <g transform="matrix(83.3333,0,0,83.3333,886.408,1065.26)">
            <path d="M0.065,-0L0.065,-0.496L0.185,-0.496L0.195,-0.433L0.199,-0.433C0.22,-0.454 0.243,-0.471 0.269,-0.486C0.295,-0.501 0.325,-0.508 0.358,-0.508C0.413,-0.508 0.452,-0.49 0.476,-0.455C0.5,-0.419 0.512,-0.37 0.512,-0.308L0.512,-0L0.365,-0L0.365,-0.289C0.365,-0.325 0.36,-0.349 0.351,-0.363C0.341,-0.376 0.325,-0.383 0.304,-0.383C0.285,-0.383 0.269,-0.379 0.256,-0.37C0.243,-0.362 0.228,-0.35 0.212,-0.335L0.212,-0L0.065,-0Z" style="fill-rule:nonzero;"/>
        </g>
        <g transform="matrix(83.3333,0,0,83.3333,934.086,1065.26)">
            <path d="M0.242,0.012C0.18,0.012 0.131,-0.011 0.094,-0.057C0.058,-0.104 0.039,-0.167 0.039,-0.248C0.039,-0.302 0.049,-0.348 0.069,-0.387C0.088,-0.426 0.114,-0.456 0.145,-0.477C0.177,-0.498 0.21,-0.508 0.245,-0.508C0.273,-0.508 0.296,-0.504 0.314,-0.494C0.333,-0.485 0.35,-0.472 0.367,-0.456L0.361,-0.532L0.361,-0.701L0.508,-0.701L0.508,-0L0.388,-0L0.378,-0.049L0.374,-0.049C0.357,-0.032 0.337,-0.017 0.313,-0.006C0.29,0.006 0.266,0.012 0.242,0.012ZM0.28,-0.108C0.296,-0.108 0.311,-0.112 0.324,-0.118C0.337,-0.125 0.349,-0.137 0.361,-0.153L0.361,-0.356C0.348,-0.368 0.335,-0.377 0.321,-0.381C0.307,-0.386 0.293,-0.388 0.279,-0.388C0.263,-0.388 0.249,-0.383 0.235,-0.373C0.222,-0.363 0.211,-0.348 0.202,-0.328C0.194,-0.307 0.19,-0.281 0.19,-0.25C0.19,-0.201 0.198,-0.165 0.214,-0.143C0.23,-0.12 0.252,-0.108 0.28,-0.108Z" style="fill-rule:nonzero;"/>
        </g>
        <g transform="matrix(83.3333,0,0,83.3333,981.833,1065.26)">
            <path d="M0.19,0.012C0.16,0.012 0.133,0.005 0.111,-0.008C0.089,-0.021 0.072,-0.039 0.06,-0.062C0.048,-0.084 0.042,-0.11 0.042,-0.138C0.042,-0.191 0.064,-0.232 0.108,-0.261C0.152,-0.291 0.223,-0.31 0.321,-0.32C0.32,-0.335 0.317,-0.347 0.312,-0.357C0.306,-0.368 0.298,-0.376 0.286,-0.382C0.275,-0.387 0.261,-0.39 0.243,-0.39C0.222,-0.39 0.201,-0.386 0.18,-0.379C0.158,-0.372 0.136,-0.361 0.111,-0.347L0.059,-0.443C0.08,-0.456 0.102,-0.468 0.125,-0.477C0.148,-0.487 0.171,-0.495 0.196,-0.5C0.22,-0.505 0.245,-0.508 0.271,-0.508C0.314,-0.508 0.349,-0.5 0.378,-0.484C0.408,-0.467 0.43,-0.442 0.445,-0.409C0.461,-0.376 0.468,-0.334 0.468,-0.283L0.468,-0L0.348,-0L0.338,-0.051L0.334,-0.051C0.313,-0.032 0.29,-0.017 0.267,-0.006C0.244,0.006 0.218,0.012 0.19,0.012ZM0.239,-0.103C0.256,-0.103 0.271,-0.107 0.283,-0.114C0.296,-0.121 0.309,-0.131 0.321,-0.144L0.321,-0.228C0.286,-0.224 0.259,-0.218 0.239,-0.21C0.218,-0.202 0.204,-0.194 0.196,-0.183C0.187,-0.173 0.183,-0.162 0.183,-0.149C0.183,-0.134 0.188,-0.122 0.198,-0.115C0.209,-0.107 0.222,-0.103 0.239,-0.103Z" style="fill-rule:nonzero;"/>
        </g>
        <g transform="matrix(83.3333,0,0,83.3333,1025.77,1065.26)">
            <path d="M0.065,-0L0.065,-0.496L0.185,-0.496L0.195,-0.409L0.199,-0.409C0.217,-0.443 0.239,-0.467 0.264,-0.484C0.289,-0.5 0.314,-0.508 0.34,-0.508C0.354,-0.508 0.366,-0.507 0.375,-0.506C0.384,-0.504 0.392,-0.502 0.399,-0.498L0.371,-0.373C0.363,-0.375 0.355,-0.377 0.348,-0.378C0.341,-0.379 0.332,-0.379 0.321,-0.379C0.302,-0.379 0.283,-0.372 0.262,-0.359C0.242,-0.345 0.225,-0.322 0.212,-0.288L0.212,-0L0.065,-0Z" style="fill-rule:nonzero;"/>
        </g>
        <g transform="matrix(83.3333,0,0,83.3333,1058.12,1065.26)">
            <path d="M0.242,0.012C0.18,0.012 0.131,-0.011 0.094,-0.057C0.058,-0.104 0.039,-0.167 0.039,-0.248C0.039,-0.302 0.049,-0.348 0.069,-0.387C0.088,-0.426 0.114,-0.456 0.145,-0.477C0.177,-0.498 0.21,-0.508 0.245,-0.508C0.273,-0.508 0.296,-0.504 0.314,-0.494C0.333,-0.485 0.35,-0.472 0.367,-0.456L0.361,-0.532L0.361,-0.701L0.508,-0.701L0.508,-0L0.388,-0L0.378,-0.049L0.374,-0.049C0.357,-0.032 0.337,-0.017 0.313,-0.006C0.29,0.006 0.266,0.012 0.242,0.012ZM0.28,-0.108C0.296,-0.108 0.311,-0.112 0.324,-0.118C0.337,-0.125 0.349,-0.137 0.361,-0.153L0.361,-0.356C0.348,-0.368 0.335,-0.377 0.321,-0.381C0.307,-0.386 0.293,-0.388 0.279,-0.388C0.263,-0.388 0.249,-0.383 0.235,-0.373C0.222,-0.363 0.211,-0.348 0.202,-0.328C0.194,-0.307 0.19,-0.281 0.19,-0.25C0.19,-0.201 0.198,-0.165 0.214,-0.143C0.23,-0.12 0.252,-0.108 0.28,-0.108Z" style="fill-rule:nonzero;"/>
        </g>
        <g transform="matrix(83.3333,0,0,83.3333,1105.87,1065.26)">
            <path d="M0.065,-0L0.065,-0.496L0.212,-0.496L0.212,-0L0.065,-0ZM0.138,-0.569C0.113,-0.569 0.093,-0.576 0.078,-0.59C0.063,-0.604 0.055,-0.623 0.055,-0.646C0.055,-0.669 0.063,-0.688 0.078,-0.702C0.093,-0.716 0.113,-0.723 0.138,-0.723C0.163,-0.723 0.183,-0.716 0.198,-0.702C0.213,-0.688 0.221,-0.669 0.221,-0.646C0.221,-0.623 0.213,-0.604 0.198,-0.59C0.183,-0.576 0.163,-0.569 0.138,-0.569Z" style="fill-rule:nonzero;"/>
        </g>
        <g transform="matrix(83.3333,0,0,83.3333,1128.9,1065.26)">
            <path d="M0.211,0.012C0.178,0.012 0.144,0.006 0.11,-0.007C0.075,-0.02 0.046,-0.038 0.021,-0.062L0.083,-0.145C0.106,-0.127 0.129,-0.115 0.151,-0.107C0.173,-0.1 0.195,-0.097 0.215,-0.097C0.237,-0.097 0.253,-0.101 0.263,-0.108C0.273,-0.116 0.278,-0.126 0.278,-0.139C0.278,-0.15 0.273,-0.159 0.264,-0.167C0.256,-0.174 0.244,-0.181 0.23,-0.187C0.215,-0.192 0.199,-0.199 0.181,-0.205C0.157,-0.214 0.135,-0.225 0.115,-0.238C0.095,-0.251 0.079,-0.267 0.067,-0.286C0.055,-0.305 0.048,-0.327 0.048,-0.353C0.048,-0.399 0.066,-0.437 0.101,-0.465C0.135,-0.494 0.181,-0.508 0.238,-0.508C0.274,-0.508 0.307,-0.502 0.337,-0.491C0.366,-0.479 0.392,-0.464 0.413,-0.445L0.35,-0.363C0.332,-0.376 0.314,-0.385 0.296,-0.391C0.278,-0.397 0.26,-0.399 0.243,-0.399C0.223,-0.399 0.209,-0.396 0.2,-0.388C0.191,-0.381 0.186,-0.372 0.186,-0.36C0.186,-0.35 0.189,-0.342 0.196,-0.336C0.202,-0.329 0.212,-0.323 0.226,-0.318C0.24,-0.312 0.257,-0.306 0.278,-0.299C0.303,-0.291 0.327,-0.28 0.347,-0.267C0.368,-0.254 0.385,-0.238 0.397,-0.218C0.409,-0.199 0.415,-0.176 0.415,-0.148C0.415,-0.118 0.407,-0.091 0.392,-0.067C0.376,-0.043 0.353,-0.024 0.323,-0.009C0.293,0.005 0.256,0.012 0.211,0.012Z" style="fill-rule:nonzero;"/>
        </g>
        <g transform="matrix(83.3333,0,0,83.3333,1165.81,1065.26)">
            <path d="M0.065,-0L0.065,-0.496L0.212,-0.496L0.212,-0L0.065,-0ZM0.138,-0.569C0.113,-0.569 0.093,-0.576 0.078,-0.59C0.063,-0.604 0.055,-0.623 0.055,-0.646C0.055,-0.669 0.063,-0.688 0.078,-0.702C0.093,-0.716 0.113,-0.723 0.138,-0.723C0.163,-0.723 0.183,-0.716 0.198,-0.702C0.213,-0.688 0.221,-0.669 0.221,-0.646C0.221,-0.623 0.213,-0.604 0.198,-0.59C0.183,-0.576 0.163,-0.569 0.138,-0.569Z" style="fill-rule:nonzero;"/>
        </g>
        <g transform="matrix(83.3333,0,0,83.3333,1188.84,1065.26)">
            <path d="M0.065,-0L0.065,-0.496L0.185,-0.496L0.195,-0.433L0.199,-0.433C0.22,-0.454 0.243,-0.471 0.269,-0.486C0.295,-0.501 0.325,-0.508 0.358,-0.508C0.413,-0.508 0.452,-0.49 0.476,-0.455C0.5,-0.419 0.512,-0.37 0.512,-0.308L0.512,-0L0.365,-0L0.365,-0.289C0.365,-0.325 0.36,-0.349 0.351,-0.363C0.341,-0.376 0.325,-0.383 0.304,-0.383C0.285,-0.383 0.269,-0.379 0.256,-0.37C0.243,-0.362 0.228,-0.35 0.212,-0.335L0.212,-0L0.065,-0Z" style="fill-rule:nonzero;"/>
        </g>
        <g transform="matrix(83.3333,0,0,83.3333,1236.52,1065.26)">
            <path d="M0.242,0.211C0.203,0.211 0.168,0.206 0.137,0.198C0.105,0.189 0.08,0.175 0.062,0.157C0.043,0.138 0.034,0.115 0.034,0.085C0.034,0.064 0.04,0.046 0.052,0.029C0.065,0.013 0.082,-0.002 0.105,-0.015L0.105,-0.019C0.092,-0.028 0.081,-0.039 0.073,-0.052C0.064,-0.066 0.059,-0.083 0.059,-0.103C0.059,-0.121 0.065,-0.138 0.075,-0.155C0.086,-0.171 0.099,-0.185 0.115,-0.196L0.115,-0.2C0.097,-0.212 0.082,-0.229 0.068,-0.252C0.055,-0.274 0.048,-0.3 0.048,-0.329C0.048,-0.368 0.058,-0.401 0.077,-0.428C0.096,-0.455 0.122,-0.475 0.153,-0.488C0.184,-0.501 0.218,-0.508 0.253,-0.508C0.267,-0.508 0.281,-0.507 0.294,-0.505C0.307,-0.503 0.319,-0.5 0.33,-0.496L0.511,-0.496L0.511,-0.389L0.428,-0.389L0.428,-0.385C0.435,-0.376 0.44,-0.367 0.443,-0.357C0.447,-0.346 0.448,-0.335 0.449,-0.322C0.448,-0.285 0.44,-0.254 0.422,-0.229C0.405,-0.205 0.381,-0.187 0.352,-0.175C0.322,-0.163 0.289,-0.157 0.253,-0.157C0.244,-0.157 0.235,-0.158 0.225,-0.159C0.215,-0.161 0.204,-0.163 0.193,-0.167C0.187,-0.161 0.183,-0.156 0.18,-0.151C0.177,-0.146 0.175,-0.139 0.175,-0.13C0.175,-0.118 0.181,-0.109 0.192,-0.103C0.204,-0.096 0.223,-0.093 0.25,-0.093L0.33,-0.093C0.391,-0.093 0.438,-0.083 0.47,-0.064C0.503,-0.044 0.519,-0.012 0.519,0.033C0.519,0.067 0.508,0.098 0.485,0.125C0.463,0.151 0.431,0.172 0.389,0.188C0.348,0.203 0.299,0.211 0.242,0.211ZM0.253,-0.246C0.266,-0.246 0.278,-0.249 0.288,-0.255C0.298,-0.261 0.306,-0.271 0.312,-0.283C0.318,-0.295 0.321,-0.31 0.321,-0.329C0.321,-0.355 0.315,-0.376 0.302,-0.389C0.289,-0.403 0.273,-0.409 0.253,-0.409C0.234,-0.409 0.217,-0.403 0.205,-0.389C0.192,-0.376 0.185,-0.355 0.185,-0.329C0.185,-0.31 0.188,-0.295 0.194,-0.283C0.2,-0.271 0.209,-0.261 0.219,-0.255C0.229,-0.249 0.24,-0.246 0.253,-0.246ZM0.265,0.119C0.287,0.119 0.307,0.116 0.324,0.111C0.341,0.106 0.354,0.098 0.364,0.089C0.374,0.08 0.379,0.069 0.379,0.058C0.379,0.042 0.372,0.032 0.359,0.027C0.346,0.022 0.327,0.019 0.303,0.019L0.252,0.019C0.235,0.019 0.221,0.019 0.21,0.018C0.2,0.017 0.19,0.015 0.182,0.013C0.173,0.021 0.166,0.029 0.162,0.036C0.157,0.044 0.155,0.053 0.155,0.062C0.155,0.081 0.165,0.095 0.186,0.104C0.206,0.114 0.232,0.119 0.265,0.119Z" style="fill-rule:nonzero;"/>
        </g>
        <g transform="matrix(83.3333,0,0,83.3333,1281.05,1065.26)">
            <path d="M0.076,0.195L0.046,0.116C0.084,0.103 0.112,0.085 0.131,0.063C0.15,0.041 0.159,0.017 0.159,-0.008L0.156,-0.106L0.204,-0.024C0.197,-0.018 0.189,-0.013 0.18,-0.01C0.171,-0.007 0.161,-0.006 0.151,-0.006C0.128,-0.006 0.107,-0.013 0.089,-0.027C0.071,-0.042 0.062,-0.062 0.062,-0.089C0.062,-0.115 0.071,-0.135 0.089,-0.15C0.107,-0.165 0.129,-0.173 0.154,-0.173C0.187,-0.173 0.212,-0.161 0.23,-0.136C0.247,-0.112 0.256,-0.078 0.256,-0.034C0.256,0.021 0.241,0.068 0.21,0.108C0.179,0.148 0.135,0.177 0.076,0.195Z" style="fill-rule:nonzero;"/>
        </g>
        <g transform="matrix(83.3333,0,0,83.3333,1306.07,1065.26)">
        </g>
        <g transform="matrix(83.3333,0,0,83.3333,1322.74,1065.26)">
            <path d="M0.19,0.012C0.16,0.012 0.133,0.005 0.111,-0.008C0.089,-0.021 0.072,-0.039 0.06,-0.062C0.048,-0.084 0.042,-0.11 0.042,-0.138C0.042,-0.191 0.064,-0.232 0.108,-0.261C0.152,-0.291 0.223,-0.31 0.321,-0.32C0.32,-0.335 0.317,-0.347 0.312,-0.357C0.306,-0.368 0.298,-0.376 0.286,-0.382C0.275,-0.387 0.261,-0.39 0.243,-0.39C0.222,-0.39 0.201,-0.386 0.18,-0.379C0.158,-0.372 0.136,-0.361 0.111,-0.347L0.059,-0.443C0.08,-0.456 0.102,-0.468 0.125,-0.477C0.148,-0.487 0.171,-0.495 0.196,-0.5C0.22,-0.505 0.245,-0.508 0.271,-0.508C0.314,-0.508 0.349,-0.5 0.378,-0.484C0.408,-0.467 0.43,-0.442 0.445,-0.409C0.461,-0.376 0.468,-0.334 0.468,-0.283L0.468,-0L0.348,-0L0.338,-0.051L0.334,-0.051C0.313,-0.032 0.29,-0.017 0.267,-0.006C0.244,0.006 0.218,0.012 0.19,0.012ZM0.239,-0.103C0.256,-0.103 0.271,-0.107 0.283,-0.114C0.296,-0.121 0.309,-0.131 0.321,-0.144L0.321,-0.228C0.286,-0.224 0.259,-0.218 0.239,-0.21C0.218,-0.202 0.204,-0.194 0.196,-0.183C0.187,-0.173 0.183,-0.162 0.183,-0.149C0.183,-0.134 0.188,-0.122 0.198,-0.115C0.209,-0.107 0.222,-0.103 0.239,-0.103Z" style="fill-rule:nonzero;"/>
        </g>
        <g transform="matrix(83.3333,0,0,83.3333,1366.67,1065.26)">
            <path d="M0.065,-0L0.065,-0.701L0.21,-0.701L0.21,-0.301L0.214,-0.301L0.368,-0.496L0.529,-0.496L0.357,-0.29L0.542,-0L0.383,-0L0.271,-0.193L0.21,-0.124L0.21,-0L0.065,-0Z" style="fill-rule:nonzero;"/>
        </g>
        <g transform="matrix(83.3333,0,0,83.3333,1411.47,1065.26)">
            <path d="M0.19,0.012C0.16,0.012 0.133,0.005 0.111,-0.008C0.089,-0.021 0.072,-0.039 0.06,-0.062C0.048,-0.084 0.042,-0.11 0.042,-0.138C0.042,-0.191 0.064,-0.232 0.108,-0.261C0.152,-0.291 0.223,-0.31 0.321,-0.32C0.32,-0.335 0.317,-0.347 0.312,-0.357C0.306,-0.368 0.298,-0.376 0.286,-0.382C0.275,-0.387 0.261,-0.39 0.243,-0.39C0.222,-0.39 0.201,-0.386 0.18,-0.379C0.158,-0.372 0.136,-0.361 0.111,-0.347L0.059,-0.443C0.08,-0.456 0.102,-0.468 0.125,-0.477C0.148,-0.487 0.171,-0.495 0.196,-0.5C0.22,-0.505 0.245,-0.508 0.271,-0.508C0.314,-0.508 0.349,-0.5 0.378,-0.484C0.408,-0.467 0.43,-0.442 0.445,-0.409C0.461,-0.376 0.468,-0.334 0.468,-0.283L0.468,-0L0.348,-0L0.338,-0.051L0.334,-0.051C0.313,-0.032 0.29,-0.017 0.267,-0.006C0.244,0.006 0.218,0.012 0.19,0.012ZM0.239,-0.103C0.256,-0.103 0.271,-0.107 0.283,-0.114C0.296,-0.121 0.309,-0.131 0.321,-0.144L0.321,-0.228C0.286,-0.224 0.259,-0.218 0.239,-0.21C0.218,-0.202 0.204,-0.194 0.196,-0.183C0.187,-0.173 0.183,-0.162 0.183,-0.149C0.183,-0.134 0.188,-0.122 0.198,-0.115C0.209,-0.107 0.222,-0.103 0.239,-0.103Z" style="fill-rule:nonzero;"/>
        </g>
        <g transform="matrix(83.3333,0,0,83.3333,1455.4,1065.26)">
        </g>
        <g transform="matrix(83.3333,0,0,83.3333,1472.07,1065.26)">
            <path d="M0.038,-0L0.038,-0.079L0.246,-0.381L0.061,-0.381L0.061,-0.496L0.429,-0.496L0.429,-0.418L0.221,-0.115L0.436,-0.115L0.436,-0L0.038,-0Z" style="fill-rule:nonzero;"/>
        </g>
        <g transform="matrix(83.3333,0,0,83.3333,1508.26,1065.26)">
            <rect x="0.043" y="-0.305" width="0.246" height="0.104" style="fill-rule:nonzero;"/>
        </g>
        <g transform="matrix(83.3333,0,0,83.3333,1535.92,1065.26)">
            <path d="M0.211,0.012C0.178,0.012 0.144,0.006 0.11,-0.007C0.075,-0.02 0.046,-0.038 0.021,-0.062L0.083,-0.145C0.106,-0.127 0.129,-0.115 0.151,-0.107C0.173,-0.1 0.195,-0.097 0.215,-0.097C0.237,-0.097 0.253,-0.101 0.263,-0.108C0.273,-0.116 0.278,-0.126 0.278,-0.139C0.278,-0.15 0.273,-0.159 0.264,-0.167C0.256,-0.174 0.244,-0.181 0.23,-0.187C0.215,-0.192 0.199,-0.199 0.181,-0.205C0.157,-0.214 0.135,-0.225 0.115,-0.238C0.095,-0.251 0.079,-0.267 0.067,-0.286C0.055,-0.305 0.048,-0.327 0.048,-0.353C0.048,-0.399 0.066,-0.437 0.101,-0.465C0.135,-0.494 0.181,-0.508 0.238,-0.508C0.274,-0.508 0.307,-0.502 0.337,-0.491C0.366,-0.479 0.392,-0.464 0.413,-0.445L0.35,-0.363C0.332,-0.376 0.314,-0.385 0.296,-0.391C0.278,-0.397 0.26,-0.399 0.243,-0.399C0.223,-0.399 0.209,-0.396 0.2,-0.388C0.191,-0.381 0.186,-0.372 0.186,-0.36C0.186,-0.35 0.189,-0.342 0.196,-0.336C0.202,-0.329 0.212,-0.323 0.226,-0.318C0.24,-0.312 0.257,-0.306 0.278,-0.299C0.303,-0.291 0.327,-0.28 0.347,-0.267C0.368,-0.254 0.385,-0.238 0.397,-0.218C0.409,-0.199 0.415,-0.176 0.415,-0.148C0.415,-0.118 0.407,-0.091 0.392,-0.067C0.376,-0.043 0.353,-0.024 0.323,-0.009C0.293,0.005 0.256,0.012 0.211,0.012Z" style="fill-rule:nonzero;"/>
        </g>
        <g transform="matrix(83.3333,0,0,83.3333,1572.82,1065.26)">
            <path d="M0.284,0.012C0.237,0.012 0.195,0.002 0.157,-0.019C0.12,-0.039 0.09,-0.069 0.069,-0.108C0.047,-0.146 0.036,-0.193 0.036,-0.248C0.036,-0.303 0.048,-0.35 0.072,-0.388C0.096,-0.427 0.128,-0.457 0.167,-0.477C0.206,-0.498 0.249,-0.508 0.294,-0.508C0.325,-0.508 0.352,-0.503 0.377,-0.493C0.401,-0.484 0.422,-0.471 0.439,-0.455L0.37,-0.364C0.361,-0.371 0.351,-0.378 0.34,-0.382C0.329,-0.387 0.317,-0.389 0.303,-0.389C0.28,-0.389 0.259,-0.384 0.242,-0.372C0.225,-0.36 0.211,-0.344 0.201,-0.323C0.191,-0.302 0.186,-0.277 0.186,-0.248C0.186,-0.219 0.191,-0.194 0.201,-0.173C0.211,-0.152 0.224,-0.136 0.241,-0.124C0.258,-0.112 0.278,-0.107 0.299,-0.107C0.316,-0.107 0.331,-0.11 0.346,-0.116C0.361,-0.122 0.374,-0.13 0.387,-0.139L0.445,-0.049C0.424,-0.03 0.4,-0.015 0.372,-0.004C0.344,0.007 0.315,0.012 0.284,0.012Z" style="fill-rule:nonzero;"/>
        </g>
        <g transform="matrix(83.3333,0,0,83.3333,1609.45,1065.26)">
            <path d="M0.278,0.012C0.236,0.012 0.196,0.002 0.16,-0.019C0.123,-0.039 0.093,-0.069 0.07,-0.108C0.047,-0.146 0.036,-0.193 0.036,-0.248C0.036,-0.303 0.047,-0.35 0.07,-0.389C0.093,-0.427 0.123,-0.457 0.16,-0.477C0.196,-0.498 0.236,-0.508 0.278,-0.508C0.319,-0.508 0.359,-0.498 0.395,-0.477C0.432,-0.457 0.462,-0.427 0.485,-0.389C0.508,-0.35 0.519,-0.303 0.519,-0.248C0.519,-0.193 0.508,-0.146 0.485,-0.108C0.462,-0.069 0.432,-0.039 0.395,-0.019C0.359,0.002 0.319,0.012 0.278,0.012ZM0.278,-0.107C0.298,-0.107 0.315,-0.112 0.328,-0.124C0.342,-0.135 0.352,-0.152 0.359,-0.173C0.365,-0.194 0.369,-0.219 0.369,-0.248C0.369,-0.277 0.365,-0.301 0.359,-0.323C0.352,-0.344 0.342,-0.361 0.328,-0.372C0.315,-0.384 0.298,-0.389 0.278,-0.389C0.257,-0.389 0.24,-0.384 0.227,-0.372C0.213,-0.361 0.203,-0.344 0.197,-0.323C0.19,-0.301 0.187,-0.277 0.187,-0.248C0.187,-0.219 0.19,-0.194 0.197,-0.173C0.203,-0.152 0.213,-0.135 0.227,-0.124C0.24,-0.112 0.257,-0.107 0.278,-0.107Z" style="fill-rule:nonzero;"/>
        </g>
        <g transform="matrix(83.3333,0,0,83.3333,1655.71,1065.26)">
            <path d="M0.065,-0L0.065,-0.496L0.185,-0.496L0.195,-0.409L0.199,-0.409C0.217,-0.443 0.239,-0.467 0.264,-0.484C0.289,-0.5 0.314,-0.508 0.34,-0.508C0.354,-0.508 0.366,-0.507 0.375,-0.506C0.384,-0.504 0.392,-0.502 0.399,-0.498L0.371,-0.373C0.363,-0.375 0.355,-0.377 0.348,-0.378C0.341,-0.379 0.332,-0.379 0.321,-0.379C0.302,-0.379 0.283,-0.372 0.262,-0.359C0.242,-0.345 0.225,-0.322 0.212,-0.288L0.212,-0L0.065,-0Z" style="fill-rule:nonzero;"/>
        </g>
        <g transform="matrix(83.3333,0,0,83.3333,1688.9,1065.26)">
            <path d="M0.065,-0L0.065,-0.496L0.212,-0.496L0.212,-0L0.065,-0ZM0.138,-0.569C0.113,-0.569 0.093,-0.576 0.078,-0.59C0.063,-0.604 0.055,-0.623 0.055,-0.646C0.055,-0.669 0.063,-0.688 0.078,-0.702C0.093,-0.716 0.113,-0.723 0.138,-0.723C0.163,-0.723 0.183,-0.716 0.198,-0.702C0.213,-0.688 0.221,-0.669 0.221,-0.646C0.221,-0.623 0.213,-0.604 0.198,-0.59C0.183,-0.576 0.163,-0.569 0.138,-0.569Z" style="fill-rule:nonzero;"/>
        </g>
        <g transform="matrix(83.3333,0,0,83.3333,1711.93,1065.26)">
            <path d="M0.065,-0L0.065,-0.496L0.185,-0.496L0.195,-0.433L0.199,-0.433C0.22,-0.454 0.243,-0.471 0.269,-0.486C0.295,-0.501 0.325,-0.508 0.358,-0.508C0.413,-0.508 0.452,-0.49 0.476,-0.455C0.5,-0.419 0.512,-0.37 0.512,-0.308L0.512,-0L0.365,-0L0.365,-0.289C0.365,-0.325 0.36,-0.349 0.351,-0.363C0.341,-0.376 0.325,-0.383 0.304,-0.383C0.285,-0.383 0.269,-0.379 0.256,-0.37C0.243,-0.362 0.228,-0.35 0.212,-0.335L0.212,-0L0.065,-0Z" style="fill-rule:nonzero;"/>
        </g>
        <g transform="matrix(83.3333,0,0,83.3333,1759.61,1065.26)">
            <path d="M0.242,0.211C0.203,0.211 0.168,0.206 0.137,0.198C0.105,0.189 0.08,0.175 0.062,0.157C0.043,0.138 0.034,0.115 0.034,0.085C0.034,0.064 0.04,0.046 0.052,0.029C0.065,0.013 0.082,-0.002 0.105,-0.015L0.105,-0.019C0.092,-0.028 0.081,-0.039 0.073,-0.052C0.064,-0.066 0.059,-0.083 0.059,-0.103C0.059,-0.121 0.065,-0.138 0.075,-0.155C0.086,-0.171 0.099,-0.185 0.115,-0.196L0.115,-0.2C0.097,-0.212 0.082,-0.229 0.068,-0.252C0.055,-0.274 0.048,-0.3 0.048,-0.329C0.048,-0.368 0.058,-0.401 0.077,-0.428C0.096,-0.455 0.122,-0.475 0.153,-0.488C0.184,-0.501 0.218,-0.508 0.253,-0.508C0.267,-0.508 0.281,-0.507 0.294,-0.505C0.307,-0.503 0.319,-0.5 0.33,-0.496L0.511,-0.496L0.511,-0.389L0.428,-0.389L0.428,-0.385C0.435,-0.376 0.44,-0.367 0.443,-0.357C0.447,-0.346 0.448,-0.335 0.449,-0.322C0.448,-0.285 0.44,-0.254 0.422,-0.229C0.405,-0.205 0.381,-0.187 0.352,-0.175C0.322,-0.163 0.289,-0.157 0.253,-0.157C0.244,-0.157 0.235,-0.158 0.225,-0.159C0.215,-0.161 0.204,-0.163 0.193,-0.167C0.187,-0.161 0.183,-0.156 0.18,-0.151C0.177,-0.146 0.175,-0.139 0.175,-0.13C0.175,-0.118 0.181,-0.109 0.192,-0.103C0.204,-0.096 0.223,-0.093 0.25,-0.093L0.33,-0.093C0.391,-0.093 0.438,-0.083 0.47,-0.064C0.503,-0.044 0.519,-0.012 0.519,0.033C0.519,0.067 0.508,0.098 0.485,0.125C0.463,0.151 0.431,0.172 0.389,0.188C0.348,0.203 0.299,0.211 0.242,0.211ZM0.253,-0.246C0.266,-0.246 0.278,-0.249 0.288,-0.255C0.298,-0.261 0.306,-0.271 0.312,-0.283C0.318,-0.295 0.321,-0.31 0.321,-0.329C0.321,-0.355 0.315,-0.376 0.302,-0.389C0.289,-0.403 0.273,-0.409 0.253,-0.409C0.234,-0.409 0.217,-0.403 0.205,-0.389C0.192,-0.376 0.185,-0.355 0.185,-0.329C0.185,-0.31 0.188,-0.295 0.194,-0.283C0.2,-0.271 0.209,-0.261 0.219,-0.255C0.229,-0.249 0.24,-0.246 0.253,-0.246ZM0.265,0.119C0.287,0.119 0.307,0.116 0.324,0.111C0.341,0.106 0.354,0.098 0.364,0.089C0.374,0.08 0.379,0.069 0.379,0.058C0.379,0.042 0.372,0.032 0.359,0.027C0.346,0.022 0.327,0.019 0.303,0.019L0.252,0.019C0.235,0.019 0.221,0.019 0.21,0.018C0.2,0.017 0.19,0.015 0.182,0.013C0.173,0.021 0.166,0.029 0.162,0.036C0.157,0.044 0.155,0.053 0.155,0.062C0.155,0.081 0.165,0.095 0.186,0.104C0.206,0.114 0.232,0.119 0.265,0.119Z" style="fill-rule:nonzero;"/>
        </g>
        <g transform="matrix(83.3333,0,0,83.3333,1804.14,1065.26)">
        </g>
    </g>
</svg>
