<?xml version="1.0" encoding="UTF-8"?>
<svg xmlns="http://www.w3.org/2000/svg" xmlns:xlink="http://www.w3.org/1999/xlink" width="720pt" height="360pt" viewBox="0 0 720 360">
<defs>
<g>
<g id="glyph-0-0">
<path d="M 0.71875 0 L 0.71875 -16.078125 L 13.484375 -16.078125 L 13.484375 0 Z M 11.46875 -2.015625 L 11.46875 -14.0625 L 2.734375 -14.0625 L 2.734375 -2.015625 Z M 11.46875 -2.015625 "/>
</g>
<g id="glyph-0-1">
<path d="M 0.9375 -7.25 L 6.421875 -7.25 L 6.421875 -5.234375 L 0.9375 -5.234375 Z M 0.9375 -7.25 "/>
</g>
<g id="glyph-0-2">
<path d="M 2.765625 -4 C 2.898438 -2.875 3.421875 -2.09375 4.328125 -1.65625 C 4.796875 -1.4375 5.335938 -1.328125 5.953125 -1.328125 C 7.117188 -1.328125 7.984375 -1.695312 8.546875 -2.4375 C 9.109375 -3.1875 9.390625 -4.015625 9.390625 -4.921875 C 9.390625 -6.015625 9.054688 -6.859375 8.390625 -7.453125 C 7.722656 -8.054688 6.921875 -8.359375 5.984375 -8.359375 C 5.304688 -8.359375 4.722656 -8.226562 4.234375 -7.96875 C 3.753906 -7.707031 3.34375 -7.34375 3 -6.875 L 1.296875 -6.96875 L 2.484375 -15.40625 L 10.625 -15.40625 L 10.625 -13.5 L 3.953125 -13.5 L 3.296875 -9.140625 C 3.660156 -9.421875 4.003906 -9.628906 4.328125 -9.765625 C 4.910156 -10.003906 5.585938 -10.125 6.359375 -10.125 C 7.796875 -10.125 9.015625 -9.660156 10.015625 -8.734375 C 11.015625 -7.816406 11.515625 -6.644531 11.515625 -5.21875 C 11.515625 -3.738281 11.054688 -2.429688 10.140625 -1.296875 C 9.222656 -0.171875 7.757812 0.390625 5.75 0.390625 C 4.476562 0.390625 3.347656 0.0273438 2.359375 -0.6875 C 1.378906 -1.40625 0.832031 -2.507812 0.71875 -4 Z M 2.765625 -4 "/>
</g>
<g id="glyph-0-3">
<path d="M 6.0625 -15.671875 C 8.09375 -15.671875 9.554688 -14.832031 10.453125 -13.15625 C 11.160156 -11.863281 11.515625 -10.097656 11.515625 -7.859375 C 11.515625 -5.722656 11.195312 -3.960938 10.5625 -2.578125 C 9.632812 -0.578125 8.128906 0.421875 6.046875 0.421875 C 4.171875 0.421875 2.769531 -0.394531 1.84375 -2.03125 C 1.082031 -3.382812 0.703125 -5.210938 0.703125 -7.515625 C 0.703125 -9.296875 0.929688 -10.820312 1.390625 -12.09375 C 2.253906 -14.476562 3.8125 -15.671875 6.0625 -15.671875 Z M 6.046875 -1.375 C 7.066406 -1.375 7.878906 -1.820312 8.484375 -2.71875 C 9.085938 -3.625 9.390625 -5.3125 9.390625 -7.78125 C 9.390625 -9.5625 9.171875 -11.023438 8.734375 -12.171875 C 8.296875 -13.316406 7.445312 -13.890625 6.1875 -13.890625 C 5.019531 -13.890625 4.164062 -13.34375 3.625 -12.25 C 3.09375 -11.164062 2.828125 -9.5625 2.828125 -7.4375 C 2.828125 -5.84375 3 -4.5625 3.34375 -3.59375 C 3.875 -2.113281 4.773438 -1.375 6.046875 -1.375 Z M 6.046875 -1.375 "/>
</g>
<g id="glyph-0-4">
<path d="M 2.140625 -11.09375 L 2.140625 -12.609375 C 3.566406 -12.742188 4.5625 -12.972656 5.125 -13.296875 C 5.6875 -13.617188 6.101562 -14.382812 6.375 -15.59375 L 7.9375 -15.59375 L 7.9375 0 L 5.828125 0 L 5.828125 -11.09375 Z M 2.140625 -11.09375 "/>
</g>
<g id="glyph-0-5">
<path d="M 0.703125 0 C 0.773438 -1.351562 1.050781 -2.523438 1.53125 -3.515625 C 2.019531 -4.515625 2.96875 -5.425781 4.375 -6.25 L 6.484375 -7.46875 C 7.421875 -8.007812 8.078125 -8.472656 8.453125 -8.859375 C 9.054688 -9.460938 9.359375 -10.15625 9.359375 -10.9375 C 9.359375 -11.851562 9.082031 -12.578125 8.53125 -13.109375 C 7.988281 -13.648438 7.257812 -13.921875 6.34375 -13.921875 C 5 -13.921875 4.066406 -13.410156 3.546875 -12.390625 C 3.265625 -11.835938 3.109375 -11.078125 3.078125 -10.109375 L 1.078125 -10.109375 C 1.097656 -11.472656 1.351562 -12.585938 1.84375 -13.453125 C 2.695312 -14.960938 4.203125 -15.71875 6.359375 -15.71875 C 8.148438 -15.71875 9.457031 -15.234375 10.28125 -14.265625 C 11.113281 -13.296875 11.53125 -12.21875 11.53125 -11.03125 C 11.53125 -9.769531 11.085938 -8.695312 10.203125 -7.8125 C 9.691406 -7.289062 8.78125 -6.664062 7.46875 -5.9375 L 5.96875 -5.09375 C 5.25 -4.695312 4.6875 -4.320312 4.28125 -3.96875 C 3.550781 -3.332031 3.09375 -2.628906 2.90625 -1.859375 L 11.453125 -1.859375 L 11.453125 0 Z M 0.703125 0 "/>
</g>
<g id="glyph-1-0">
<path d="M 0.90625 0 L 0.90625 -20.078125 L 16.84375 -20.078125 L 16.84375 0 Z M 14.328125 -2.515625 L 14.328125 -17.5625 L 3.421875 -17.5625 L 3.421875 -2.515625 Z M 14.328125 -2.515625 "/>
</g>
<g id="glyph-1-1">
<path d="M 0.40625 -14.640625 L 3.59375 -14.640625 L 6.953125 -9.484375 L 10.359375 -14.640625 L 13.359375 -14.578125 L 8.421875 -7.5 L 13.578125 0 L 10.4375 0 L 6.796875 -5.5 L 3.265625 0 L 0.15625 0 L 5.3125 -7.5 Z M 0.40625 -14.640625 "/>
</g>
<g id="glyph-2-0">
<path d="M 0 -0.90625 L -20.078125 -0.90625 L -20.078125 -16.84375 L 0 -16.84375 Z M -2.515625 -14.328125 L -17.5625 -14.328125 L -17.5625 -3.421875 L -2.515625 -3.421875 Z M -2.515625 -14.328125 "/>
</g>
<g id="glyph-2-1">
<path d="M -14.640625 -10.953125 L -14.640625 -13.671875 C -13.703125 -13.328125 -11.5625 -12.554688 -8.21875 -11.359375 C -5.695312 -10.460938 -3.644531 -9.71875 -2.0625 -9.125 C 1.675781 -7.695312 3.953125 -6.691406 4.765625 -6.109375 C 5.585938 -5.523438 6 -4.523438 6 -3.109375 C 6 -2.753906 5.984375 -2.484375 5.953125 -2.296875 C 5.929688 -2.117188 5.882812 -1.890625 5.8125 -1.609375 L 3.5625 -1.609375 C 3.6875 -2.035156 3.757812 -2.34375 3.78125 -2.53125 C 3.8125 -2.726562 3.828125 -2.898438 3.828125 -3.046875 C 3.828125 -3.503906 3.75 -3.835938 3.59375 -4.046875 C 3.445312 -4.265625 3.265625 -4.445312 3.046875 -4.59375 C 2.972656 -4.632812 2.597656 -4.796875 1.921875 -5.078125 C 1.253906 -5.367188 0.753906 -5.578125 0.421875 -5.703125 L -14.640625 -0.28125 L -14.640625 -3.078125 L -2.71875 -7 Z M -15 -6.984375 Z M -15 -6.984375 "/>
</g>
</g>
<clipPath id="clip-0">
<path clip-rule="nonzero" d="M 85.472656 214 L 706.050781 214 L 706.050781 217 L 85.472656 217 Z M 85.472656 214 "/>
</clipPath>
<clipPath id="clip-1">
<path clip-rule="nonzero" d="M 85.472656 144 L 706.050781 144 L 706.050781 146 L 85.472656 146 Z M 85.472656 144 "/>
</clipPath>
<clipPath id="clip-2">
<path clip-rule="nonzero" d="M 85.472656 74 L 706.050781 74 L 706.050781 76 L 85.472656 76 Z M 85.472656 74 "/>
</clipPath>
<clipPath id="clip-3">
<path clip-rule="nonzero" d="M 113 13.949219 L 115 13.949219 L 115 276.527344 L 113 276.527344 Z M 113 13.949219 "/>
</clipPath>
<clipPath id="clip-4">
<path clip-rule="nonzero" d="M 301 13.949219 L 303 13.949219 L 303 276.527344 L 301 276.527344 Z M 301 13.949219 "/>
</clipPath>
<clipPath id="clip-5">
<path clip-rule="nonzero" d="M 489 13.949219 L 491 13.949219 L 491 276.527344 L 489 276.527344 Z M 489 13.949219 "/>
</clipPath>
<clipPath id="clip-6">
<path clip-rule="nonzero" d="M 677 13.949219 L 679 13.949219 L 679 276.527344 L 677 276.527344 Z M 677 13.949219 "/>
</clipPath>
<clipPath id="clip-7">
<path clip-rule="nonzero" d="M 85.472656 249 L 706.050781 249 L 706.050781 252 L 85.472656 252 Z M 85.472656 249 "/>
</clipPath>
<clipPath id="clip-8">
<path clip-rule="nonzero" d="M 85.472656 178 L 706.050781 178 L 706.050781 182 L 85.472656 182 Z M 85.472656 178 "/>
</clipPath>
<clipPath id="clip-9">
<path clip-rule="nonzero" d="M 85.472656 108 L 706.050781 108 L 706.050781 112 L 85.472656 112 Z M 85.472656 108 "/>
</clipPath>
<clipPath id="clip-10">
<path clip-rule="nonzero" d="M 85.472656 38 L 706.050781 38 L 706.050781 42 L 85.472656 42 Z M 85.472656 38 "/>
</clipPath>
<clipPath id="clip-11">
<path clip-rule="nonzero" d="M 206 13.949219 L 210 13.949219 L 210 276.527344 L 206 276.527344 Z M 206 13.949219 "/>
</clipPath>
<clipPath id="clip-12">
<path clip-rule="nonzero" d="M 394 13.949219 L 398 13.949219 L 398 276.527344 L 394 276.527344 Z M 394 13.949219 "/>
</clipPath>
<clipPath id="clip-13">
<path clip-rule="nonzero" d="M 582 13.949219 L 586 13.949219 L 586 276.527344 L 582 276.527344 Z M 582 13.949219 "/>
</clipPath>
</defs>
<rect x="-72" y="-36" width="864" height="432" fill="rgb(100%, 100%, 100%)" fill-opacity="1"/>
<rect x="-72" y="-36" width="864" height="432" fill="rgb(100%, 100%, 100%)" fill-opacity="1"/>
<g clip-path="url(#clip-0)">
<path fill="none" stroke-width="1.357972" stroke-linecap="butt" stroke-linejoin="round" stroke="rgb(92.156863%, 92.156863%, 92.156863%)" stroke-opacity="1" stroke-miterlimit="10" d="M 85.472656 215.445312 L 706.050781 215.445312 "/>
</g>
<g clip-path="url(#clip-1)">
<path fill="none" stroke-width="1.357972" stroke-linecap="butt" stroke-linejoin="round" stroke="rgb(92.156863%, 92.156863%, 92.156863%)" stroke-opacity="1" stroke-miterlimit="10" d="M 85.472656 145.238281 L 706.050781 145.238281 "/>
</g>
<g clip-path="url(#clip-2)">
<path fill="none" stroke-width="1.357972" stroke-linecap="butt" stroke-linejoin="round" stroke="rgb(92.156863%, 92.156863%, 92.156863%)" stroke-opacity="1" stroke-miterlimit="10" d="M 85.472656 75.027344 L 706.050781 75.027344 "/>
</g>
<g clip-path="url(#clip-3)">
<path fill="none" stroke-width="1.357972" stroke-linecap="butt" stroke-linejoin="round" stroke="rgb(92.156863%, 92.156863%, 92.156863%)" stroke-opacity="1" stroke-miterlimit="10" d="M 113.683594 276.527344 L 113.683594 13.949219 "/>
</g>
<g clip-path="url(#clip-4)">
<path fill="none" stroke-width="1.357972" stroke-linecap="butt" stroke-linejoin="round" stroke="rgb(92.156863%, 92.156863%, 92.156863%)" stroke-opacity="1" stroke-miterlimit="10" d="M 301.738281 276.527344 L 301.738281 13.949219 "/>
</g>
<g clip-path="url(#clip-5)">
<path fill="none" stroke-width="1.357972" stroke-linecap="butt" stroke-linejoin="round" stroke="rgb(92.156863%, 92.156863%, 92.156863%)" stroke-opacity="1" stroke-miterlimit="10" d="M 489.789062 276.527344 L 489.789062 13.949219 "/>
</g>
<g clip-path="url(#clip-6)">
<path fill="none" stroke-width="1.357972" stroke-linecap="butt" stroke-linejoin="round" stroke="rgb(92.156863%, 92.156863%, 92.156863%)" stroke-opacity="1" stroke-miterlimit="10" d="M 677.84375 276.527344 L 677.84375 13.949219 "/>
</g>
<g clip-path="url(#clip-7)">
<path fill="none" stroke-width="2.715945" stroke-linecap="butt" stroke-linejoin="round" stroke="rgb(92.156863%, 92.156863%, 92.156863%)" stroke-opacity="1" stroke-miterlimit="10" d="M 85.472656 250.546875 L 706.050781 250.546875 "/>
</g>
<g clip-path="url(#clip-8)">
<path fill="none" stroke-width="2.715945" stroke-linecap="butt" stroke-linejoin="round" stroke="rgb(92.156863%, 92.156863%, 92.156863%)" stroke-opacity="1" stroke-miterlimit="10" d="M 85.472656 180.339844 L 706.050781 180.339844 "/>
</g>
<g clip-path="url(#clip-9)">
<path fill="none" stroke-width="2.715945" stroke-linecap="butt" stroke-linejoin="round" stroke="rgb(92.156863%, 92.156863%, 92.156863%)" stroke-opacity="1" stroke-miterlimit="10" d="M 85.472656 110.132812 L 706.050781 110.132812 "/>
</g>
<g clip-path="url(#clip-10)">
<path fill="none" stroke-width="2.715945" stroke-linecap="butt" stroke-linejoin="round" stroke="rgb(92.156863%, 92.156863%, 92.156863%)" stroke-opacity="1" stroke-miterlimit="10" d="M 85.472656 39.925781 L 706.050781 39.925781 "/>
</g>
<g clip-path="url(#clip-11)">
<path fill="none" stroke-width="2.715945" stroke-linecap="butt" stroke-linejoin="round" stroke="rgb(92.156863%, 92.156863%, 92.156863%)" stroke-opacity="1" stroke-miterlimit="10" d="M 207.710938 276.527344 L 207.710938 13.949219 "/>
</g>
<g clip-path="url(#clip-12)">
<path fill="none" stroke-width="2.715945" stroke-linecap="butt" stroke-linejoin="round" stroke="rgb(92.156863%, 92.156863%, 92.156863%)" stroke-opacity="1" stroke-miterlimit="10" d="M 395.761719 276.527344 L 395.761719 13.949219 "/>
</g>
<g clip-path="url(#clip-13)">
<path fill="none" stroke-width="2.715945" stroke-linecap="butt" stroke-linejoin="round" stroke="rgb(92.156863%, 92.156863%, 92.156863%)" stroke-opacity="1" stroke-miterlimit="10" d="M 583.816406 276.527344 L 583.816406 13.949219 "/>
</g>
<path fill-rule="nonzero" fill="rgb(0%, 0%, 0%)" fill-opacity="1" stroke-width="1.803865" stroke-linecap="round" stroke-linejoin="round" stroke="rgb(0%, 0%, 0%)" stroke-opacity="1" stroke-miterlimit="10" d="M 156.269531 211.230469 C 156.269531 217.867188 146.316406 217.867188 146.316406 211.230469 C 146.316406 204.597656 156.269531 204.597656 156.269531 211.230469 "/>
<path fill-rule="nonzero" fill="rgb(0%, 0%, 0%)" fill-opacity="1" stroke-width="1.803865" stroke-linecap="round" stroke-linejoin="round" stroke="rgb(0%, 0%, 0%)" stroke-opacity="1" stroke-miterlimit="10" d="M 204.328125 196.878906 C 204.328125 203.511719 194.375 203.511719 194.375 196.878906 C 194.375 190.242188 204.328125 190.242188 204.328125 196.878906 "/>
<path fill-rule="nonzero" fill="rgb(0%, 0%, 0%)" fill-opacity="1" stroke-width="1.803865" stroke-linecap="round" stroke-linejoin="round" stroke="rgb(0%, 0%, 0%)" stroke-opacity="1" stroke-miterlimit="10" d="M 252.386719 182.523438 C 252.386719 189.160156 242.433594 189.160156 242.433594 182.523438 C 242.433594 175.890625 252.386719 175.890625 252.386719 182.523438 "/>
<path fill-rule="nonzero" fill="rgb(0%, 0%, 0%)" fill-opacity="1" stroke-width="1.803865" stroke-linecap="round" stroke-linejoin="round" stroke="rgb(0%, 0%, 0%)" stroke-opacity="1" stroke-miterlimit="10" d="M 300.445312 168.171875 C 300.445312 174.804688 290.492188 174.804688 290.492188 168.171875 C 290.492188 161.535156 300.445312 161.535156 300.445312 168.171875 "/>
<path fill-rule="nonzero" fill="rgb(0%, 0%, 0%)" fill-opacity="1" stroke-width="1.803865" stroke-linecap="round" stroke-linejoin="round" stroke="rgb(0%, 0%, 0%)" stroke-opacity="1" stroke-miterlimit="10" d="M 348.503906 153.816406 C 348.503906 160.453125 338.550781 160.453125 338.550781 153.816406 C 338.550781 147.183594 348.503906 147.183594 348.503906 153.816406 "/>
<path fill-rule="nonzero" fill="rgb(0%, 0%, 0%)" fill-opacity="1" stroke-width="1.803865" stroke-linecap="round" stroke-linejoin="round" stroke="rgb(0%, 0%, 0%)" stroke-opacity="1" stroke-miterlimit="10" d="M 396.558594 139.464844 C 396.558594 146.097656 386.609375 146.097656 386.609375 139.464844 C 386.609375 132.828125 396.558594 132.828125 396.558594 139.464844 "/>
<path fill-rule="nonzero" fill="rgb(0%, 0%, 0%)" fill-opacity="1" stroke-width="1.803865" stroke-linecap="round" stroke-linejoin="round" stroke="rgb(0%, 0%, 0%)" stroke-opacity="1" stroke-miterlimit="10" d="M 444.617188 125.109375 C 444.617188 131.746094 434.667969 131.746094 434.667969 125.109375 C 434.667969 118.476562 444.617188 118.476562 444.617188 125.109375 "/>
<path fill-rule="nonzero" fill="rgb(0%, 0%, 0%)" fill-opacity="1" stroke-width="1.803865" stroke-linecap="round" stroke-linejoin="round" stroke="rgb(0%, 0%, 0%)" stroke-opacity="1" stroke-miterlimit="10" d="M 492.675781 110.757812 C 492.675781 117.390625 482.726562 117.390625 482.726562 110.757812 C 482.726562 104.121094 492.675781 104.121094 492.675781 110.757812 "/>
<path fill-rule="nonzero" fill="rgb(0%, 0%, 0%)" fill-opacity="1" stroke-width="1.803865" stroke-linecap="round" stroke-linejoin="round" stroke="rgb(0%, 0%, 0%)" stroke-opacity="1" stroke-miterlimit="10" d="M 540.734375 96.402344 C 540.734375 103.039062 530.785156 103.039062 530.785156 96.402344 C 530.785156 89.769531 540.734375 89.769531 540.734375 96.402344 "/>
<path fill-rule="nonzero" fill="rgb(0%, 0%, 0%)" fill-opacity="1" stroke-width="1.803865" stroke-linecap="round" stroke-linejoin="round" stroke="rgb(0%, 0%, 0%)" stroke-opacity="1" stroke-miterlimit="10" d="M 588.792969 82.050781 C 588.792969 88.683594 578.839844 88.683594 578.839844 82.050781 C 578.839844 75.414062 588.792969 75.414062 588.792969 82.050781 "/>
<path fill="none" stroke-width="2.715945" stroke-linecap="butt" stroke-linejoin="round" stroke="rgb(0%, 0%, 100%)" stroke-opacity="1" stroke-miterlimit="10" d="M 113.683594 222.464844 L 119.382812 220.761719 L 125.078125 219.0625 L 136.476562 215.65625 L 142.175781 213.957031 L 153.574219 210.550781 L 159.269531 208.847656 L 164.96875 207.148438 L 176.367188 203.742188 L 182.066406 202.042969 L 193.464844 198.636719 L 199.160156 196.933594 L 204.859375 195.234375 L 216.257812 191.828125 L 221.957031 190.128906 L 227.65625 188.425781 L 233.351562 186.722656 L 239.050781 185.019531 L 244.75 183.320312 L 256.148438 179.914062 L 261.847656 178.214844 L 267.542969 176.511719 L 278.941406 173.105469 L 284.640625 171.40625 L 296.039062 168 L 301.738281 166.300781 L 307.433594 164.597656 L 318.832031 161.191406 L 324.53125 159.492188 L 335.929688 156.085938 L 341.625 154.386719 L 358.722656 149.277344 L 364.421875 147.578125 L 370.121094 145.875 L 375.816406 144.171875 L 381.515625 142.472656 L 398.613281 137.363281 L 404.3125 135.664062 L 410.011719 133.960938 L 415.707031 132.257812 L 421.40625 130.558594 L 438.503906 125.449219 L 444.203125 123.75 L 449.898438 122.046875 L 455.597656 120.34375 L 461.296875 118.644531 L 478.394531 113.535156 L 484.089844 111.835938 L 495.488281 108.429688 L 501.1875 106.730469 L 518.285156 101.621094 L 523.980469 99.921875 L 535.378906 96.515625 L 541.078125 94.816406 L 552.476562 91.410156 L 558.171875 89.707031 L 563.871094 88.007812 L 575.269531 84.601562 L 580.96875 82.902344 L 586.667969 81.199219 L 592.363281 79.496094 L 598.0625 77.792969 L 603.761719 76.09375 L 615.160156 72.6875 L 620.859375 70.988281 L 626.558594 69.285156 L 632.253906 67.582031 L 637.953125 65.878906 L 643.652344 64.179688 L 655.050781 60.773438 L 660.75 59.074219 L 666.445312 57.371094 L 677.84375 53.964844 "/>
<g fill="rgb(30.196078%, 30.196078%, 30.196078%)" fill-opacity="1">
<use xlink:href="#glyph-0-1" x="53.921875" y="258.294922"/>
<use xlink:href="#glyph-0-2" x="60.921875" y="258.294922"/>
</g>
<g fill="rgb(30.196078%, 30.196078%, 30.196078%)" fill-opacity="1">
<use xlink:href="#glyph-0-3" x="60.921875" y="188.087891"/>
</g>
<g fill="rgb(30.196078%, 30.196078%, 30.196078%)" fill-opacity="1">
<use xlink:href="#glyph-0-2" x="60.921875" y="117.880859"/>
</g>
<g fill="rgb(30.196078%, 30.196078%, 30.196078%)" fill-opacity="1">
<use xlink:href="#glyph-0-4" x="48.921875" y="47.673828"/>
<use xlink:href="#glyph-0-3" x="60.921875" y="47.673828"/>
</g>
<g fill="rgb(30.196078%, 30.196078%, 30.196078%)" fill-opacity="1">
<use xlink:href="#glyph-0-1" x="198.210938" y="305.326172"/>
<use xlink:href="#glyph-0-5" x="205.210938" y="305.326172"/>
</g>
<g fill="rgb(30.196078%, 30.196078%, 30.196078%)" fill-opacity="1">
<use xlink:href="#glyph-0-3" x="389.761719" y="305.326172"/>
</g>
<g fill="rgb(30.196078%, 30.196078%, 30.196078%)" fill-opacity="1">
<use xlink:href="#glyph-0-5" x="577.816406" y="305.326172"/>
</g>
<g fill="rgb(0%, 0%, 0%)" fill-opacity="1">
<use xlink:href="#glyph-1-1" x="388.761719" y="338.611328"/>
</g>
<g fill="rgb(0%, 0%, 0%)" fill-opacity="1">
<use xlink:href="#glyph-2-1" x="34.509766" y="152.238281"/>
</g>
</svg>
