<?xml version="1.0" encoding="UTF-8" standalone="no"?>
<!DOCTYPE svg PUBLIC "-//W3C//DTD SVG 1.1//EN" "http://www.w3.org/Graphics/SVG/1.1/DTD/svg11.dtd">
<svg width="100%" height="100%" viewBox="0 0 1887 1356" version="1.1" xmlns="http://www.w3.org/2000/svg" xmlns:xlink="http://www.w3.org/1999/xlink" xml:space="preserve" xmlns:serif="http://www.serif.com/" style="fill-rule:evenodd;clip-rule:evenodd;stroke-linecap:round;stroke-miterlimit:10;">
    <g transform="matrix(1,0,0,1,-369.836,-6.98676)">
        <g transform="matrix(1,-0,-0,1,369.836,6.98676)">
            <path d="M1469.02,104.688L1419.08,179.727L1469.13,254.688" style="fill:none;stroke:black;stroke-width:16.67px;"/>
            <path d="M1419.08,179.727C1470.98,179.687 1707.02,179.505 1707.02,179.505" style="fill:none;stroke:black;stroke-width:16.67px;stroke-linejoin:round;stroke-miterlimit:1.5;"/>
        </g>
    </g>
    <g transform="matrix(1.58565,0,0,1.42591,-1175.11,-293.458)">
        <path d="M1519.13,412.239C1519.13,363.802 1163.58,402.757 1163.58,437.541C1163.58,488.01 1519.13,446.191 1519.13,412.239Z" style="fill:none;stroke:black;stroke-width:11.05px;stroke-linejoin:round;stroke-miterlimit:1.5;"/>
    </g>
    <g transform="matrix(1.58565,0,0,1.42591,-1175.11,-293.458)">
        <path d="M1162.18,446.408C1157.37,490.392 1151.6,711.832 1137.38,729.974C1082.84,799.556 839.976,900.833 763.706,914.28C738.232,983.103 747.492,1092.77 750.354,1116.31C754.872,1142.84 1101.73,1177.02 1250.45,1116.82C1261.62,1076.68 1325.2,1044.07 1364.4,1035.6" style="fill:none;stroke:black;stroke-width:11.05px;stroke-linejoin:round;stroke-miterlimit:1.5;"/>
    </g>
    <g transform="matrix(1.58565,0,0,1.42591,-1175.11,-293.458)">
        <path d="M1523.15,415.688C1519.16,417.501 1444.85,735.374 1461.52,744.298C1521.76,776.534 1531.66,926.22 1536.21,971.64L1517.33,1088.64C1517.33,1088.64 1362.69,1118.64 1339.89,1113.31C1330.8,1094.44 1322.51,1075.05 1300.68,1067.2" style="fill:none;stroke:black;stroke-width:11.05px;stroke-linejoin:round;stroke-miterlimit:1.5;"/>
    </g>
    <g transform="matrix(1.58565,0,0,1.42591,-1175.11,-293.458)">
        <path d="M761.494,1062.57C905.295,1093.51 1257.48,1059.41 1303.58,1029.86C1393.68,972.108 1437.27,999.518 1519,972.274" style="fill:none;stroke:black;stroke-width:11.05px;stroke-linejoin:round;stroke-miterlimit:1.5;"/>
    </g>
    <g transform="matrix(1.58565,0,0,1.42591,-1175.11,-293.458)">
        <path d="M1487.93,392.612C1474.46,354.689 1464.5,292.663 1521.18,260.344C1540.08,266.715 1577.88,284.787 1578.32,289.045C1580.34,308.651 1571.32,360.546 1520.98,409.682" style="fill:none;stroke:black;stroke-width:11.05px;stroke-linejoin:round;stroke-miterlimit:1.5;"/>
    </g>
    <g transform="matrix(1.58565,0,0,1.42591,-1175.11,-293.458)">
        <path d="M1520.98,409.682C1482.7,351.693 1545.29,296.323 1571.47,288.896" style="fill:none;stroke:black;stroke-width:11.05px;stroke-linejoin:round;stroke-miterlimit:1.5;"/>
    </g>
</svg>
