<?xml version="1.0" encoding="UTF-8" standalone="no"?>
<!DOCTYPE svg PUBLIC "-//W3C//DTD SVG 1.1//EN" "http://www.w3.org/Graphics/SVG/1.1/DTD/svg11.dtd">
<svg width="100%" height="100%" viewBox="0 0 2371 1765" version="1.1" xmlns="http://www.w3.org/2000/svg" xmlns:xlink="http://www.w3.org/1999/xlink" xml:space="preserve" xmlns:serif="http://www.serif.com/" style="fill-rule:evenodd;clip-rule:evenodd;stroke-linecap:round;stroke-linejoin:round;stroke-miterlimit:1.5;">
    <g transform="matrix(1,0,0,1,-9.30834,56.7022)">
        <g transform="matrix(1,0,0,1.072,220.74,811.58)">
            <path d="M1152.02,231.488L1152.02,634.278C1152.02,745.431 1055.29,835.673 936.129,835.673L271.985,835.673C152.829,835.673 56.089,745.431 56.089,634.278L56.089,231.488C56.089,120.335 152.829,30.093 271.985,30.093L936.129,30.093C1055.29,30.093 1152.02,120.335 1152.02,231.488Z" style="fill:rgb(241,215,211);"/>
        </g>
        <g transform="matrix(0.67603,0,0,0.67603,738.965,735.788)">
            <path d="M228.287,338.063L228.287,874.016L764.24,874.016" style="fill:none;stroke:black;stroke-width:24.65px;"/>
        </g>
        <g transform="matrix(-0.0931303,0.541592,-0.527726,0.0931303,1405.01,755.482)">
            <path d="M311.006,837.375L952.126,192.485" style="fill:none;stroke:black;stroke-width:26.55px;"/>
        </g>
        <g transform="matrix(1,0,0,1,35.7829,913.64)">
            <g transform="matrix(75,0,0,75,866.08,520.906)">
                <path d="M0.248,0.012C0.187,0.012 0.138,-0.01 0.102,-0.055C0.066,-0.099 0.047,-0.162 0.047,-0.242C0.047,-0.295 0.057,-0.34 0.077,-0.378C0.097,-0.417 0.122,-0.446 0.154,-0.467C0.186,-0.488 0.221,-0.498 0.258,-0.498C0.286,-0.498 0.311,-0.493 0.332,-0.483C0.352,-0.473 0.373,-0.46 0.394,-0.442L0.39,-0.525L0.39,-0.712L0.473,-0.712L0.473,-0L0.405,-0L0.398,-0.057L0.395,-0.057C0.376,-0.039 0.354,-0.022 0.329,-0.009C0.304,0.005 0.277,0.012 0.248,0.012ZM0.266,-0.057C0.288,-0.057 0.31,-0.063 0.33,-0.074C0.35,-0.085 0.37,-0.102 0.39,-0.124L0.39,-0.378C0.37,-0.397 0.35,-0.41 0.331,-0.418C0.312,-0.425 0.292,-0.429 0.272,-0.429C0.246,-0.429 0.223,-0.421 0.202,-0.406C0.181,-0.39 0.164,-0.369 0.151,-0.341C0.139,-0.313 0.132,-0.28 0.132,-0.243C0.132,-0.185 0.144,-0.139 0.167,-0.107C0.19,-0.074 0.223,-0.057 0.266,-0.057Z" style="fill-rule:nonzero;"/>
            </g>
            <g transform="matrix(75,0,0,75,907.684,520.906)">
                <path d="M0.279,0.012C0.236,0.012 0.196,0.002 0.161,-0.018C0.125,-0.039 0.097,-0.068 0.076,-0.106C0.056,-0.143 0.045,-0.189 0.045,-0.243C0.045,-0.296 0.056,-0.341 0.077,-0.379C0.098,-0.417 0.125,-0.447 0.159,-0.467C0.192,-0.488 0.228,-0.498 0.265,-0.498C0.306,-0.498 0.342,-0.489 0.371,-0.47C0.399,-0.451 0.421,-0.424 0.436,-0.39C0.451,-0.356 0.458,-0.316 0.458,-0.27C0.458,-0.262 0.458,-0.253 0.457,-0.245C0.457,-0.237 0.456,-0.229 0.454,-0.221L0.104,-0.221L0.104,-0.286L0.384,-0.286C0.384,-0.333 0.374,-0.369 0.354,-0.394C0.333,-0.419 0.304,-0.431 0.266,-0.431C0.244,-0.431 0.222,-0.425 0.201,-0.413C0.18,-0.4 0.162,-0.38 0.148,-0.353C0.135,-0.325 0.128,-0.289 0.128,-0.244C0.128,-0.202 0.135,-0.168 0.149,-0.14C0.164,-0.112 0.183,-0.091 0.208,-0.077C0.233,-0.062 0.26,-0.055 0.289,-0.055C0.312,-0.055 0.334,-0.059 0.354,-0.065C0.375,-0.072 0.393,-0.08 0.41,-0.092L0.44,-0.038C0.419,-0.023 0.395,-0.011 0.369,-0.002C0.342,0.007 0.312,0.012 0.279,0.012Z" style="fill-rule:nonzero;"/>
            </g>
            <g transform="matrix(75,0,0,75,944.868,520.906)">
                <path d="M0.082,0.205L0.082,-0.486L0.15,-0.486L0.157,-0.43L0.16,-0.43C0.182,-0.449 0.206,-0.465 0.233,-0.478C0.259,-0.491 0.287,-0.498 0.315,-0.498C0.356,-0.498 0.392,-0.488 0.42,-0.468C0.449,-0.447 0.471,-0.418 0.485,-0.381C0.5,-0.344 0.507,-0.3 0.507,-0.25C0.507,-0.195 0.497,-0.148 0.478,-0.109C0.458,-0.07 0.432,-0.04 0.4,-0.019C0.368,0.002 0.334,0.012 0.297,0.012C0.275,0.012 0.253,0.007 0.23,-0.003C0.207,-0.013 0.184,-0.027 0.162,-0.044L0.164,0.041L0.164,0.205L0.082,0.205ZM0.283,-0.057C0.309,-0.057 0.333,-0.065 0.354,-0.08C0.375,-0.096 0.392,-0.118 0.404,-0.147C0.416,-0.175 0.422,-0.21 0.422,-0.25C0.422,-0.285 0.418,-0.317 0.409,-0.344C0.401,-0.371 0.387,-0.392 0.368,-0.406C0.349,-0.421 0.325,-0.429 0.294,-0.429C0.274,-0.429 0.253,-0.423 0.232,-0.412C0.211,-0.401 0.188,-0.385 0.164,-0.363L0.164,-0.108C0.186,-0.089 0.208,-0.076 0.228,-0.069C0.249,-0.061 0.267,-0.057 0.283,-0.057Z" style="fill-rule:nonzero;"/>
            </g>
            <g transform="matrix(75,0,0,75,986.472,520.906)">
                <path d="M0.082,-0L0.082,-0.486L0.15,-0.486L0.157,-0.398L0.16,-0.398C0.176,-0.429 0.196,-0.453 0.22,-0.471C0.244,-0.489 0.27,-0.498 0.298,-0.498C0.309,-0.498 0.318,-0.497 0.326,-0.496C0.334,-0.494 0.342,-0.492 0.35,-0.488L0.332,-0.418C0.325,-0.42 0.318,-0.421 0.312,-0.422C0.305,-0.423 0.297,-0.424 0.287,-0.424C0.267,-0.424 0.245,-0.416 0.223,-0.399C0.2,-0.383 0.181,-0.354 0.164,-0.312L0.164,-0L0.082,-0Z" style="fill-rule:nonzero;"/>
            </g>
            <g transform="matrix(75,0,0,75,1011.76,520.906)">
                <path d="M0.279,0.012C0.236,0.012 0.196,0.002 0.161,-0.018C0.125,-0.039 0.097,-0.068 0.076,-0.106C0.056,-0.143 0.045,-0.189 0.045,-0.243C0.045,-0.296 0.056,-0.341 0.077,-0.379C0.098,-0.417 0.125,-0.447 0.159,-0.467C0.192,-0.488 0.228,-0.498 0.265,-0.498C0.306,-0.498 0.342,-0.489 0.371,-0.47C0.399,-0.451 0.421,-0.424 0.436,-0.39C0.451,-0.356 0.458,-0.316 0.458,-0.27C0.458,-0.262 0.458,-0.253 0.457,-0.245C0.457,-0.237 0.456,-0.229 0.454,-0.221L0.104,-0.221L0.104,-0.286L0.384,-0.286C0.384,-0.333 0.374,-0.369 0.354,-0.394C0.333,-0.419 0.304,-0.431 0.266,-0.431C0.244,-0.431 0.222,-0.425 0.201,-0.413C0.18,-0.4 0.162,-0.38 0.148,-0.353C0.135,-0.325 0.128,-0.289 0.128,-0.244C0.128,-0.202 0.135,-0.168 0.149,-0.14C0.164,-0.112 0.183,-0.091 0.208,-0.077C0.233,-0.062 0.26,-0.055 0.289,-0.055C0.312,-0.055 0.334,-0.059 0.354,-0.065C0.375,-0.072 0.393,-0.08 0.41,-0.092L0.44,-0.038C0.419,-0.023 0.395,-0.011 0.369,-0.002C0.342,0.007 0.312,0.012 0.279,0.012Z" style="fill-rule:nonzero;"/>
            </g>
            <g transform="matrix(75,0,0,75,1048.95,520.906)">
                <path d="M0.209,0.012C0.174,0.012 0.14,0.006 0.109,-0.007C0.077,-0.019 0.05,-0.036 0.028,-0.058L0.066,-0.106C0.087,-0.088 0.109,-0.075 0.132,-0.066C0.155,-0.057 0.182,-0.052 0.212,-0.052C0.244,-0.052 0.268,-0.06 0.284,-0.074C0.3,-0.089 0.308,-0.107 0.308,-0.128C0.308,-0.144 0.302,-0.158 0.292,-0.169C0.281,-0.18 0.267,-0.19 0.251,-0.197C0.234,-0.205 0.216,-0.212 0.198,-0.219C0.174,-0.228 0.151,-0.238 0.129,-0.25C0.107,-0.261 0.089,-0.276 0.076,-0.294C0.062,-0.311 0.055,-0.334 0.055,-0.36C0.055,-0.399 0.07,-0.432 0.099,-0.459C0.129,-0.485 0.17,-0.498 0.223,-0.498C0.253,-0.498 0.281,-0.493 0.307,-0.483C0.333,-0.473 0.355,-0.459 0.374,-0.443L0.336,-0.396C0.319,-0.408 0.301,-0.417 0.283,-0.424C0.265,-0.431 0.245,-0.434 0.223,-0.434C0.193,-0.434 0.17,-0.427 0.156,-0.413C0.141,-0.399 0.134,-0.383 0.134,-0.364C0.134,-0.349 0.138,-0.337 0.147,-0.327C0.156,-0.318 0.168,-0.309 0.184,-0.302C0.199,-0.295 0.217,-0.288 0.237,-0.281C0.262,-0.271 0.287,-0.261 0.31,-0.249C0.332,-0.238 0.351,-0.223 0.365,-0.205C0.38,-0.186 0.387,-0.162 0.387,-0.133C0.387,-0.106 0.38,-0.082 0.366,-0.06C0.353,-0.038 0.333,-0.021 0.306,-0.008C0.28,0.005 0.248,0.012 0.209,0.012Z" style="fill-rule:nonzero;"/>
            </g>
            <g transform="matrix(75,0,0,75,1080.38,520.906)">
                <path d="M0.209,0.012C0.174,0.012 0.14,0.006 0.109,-0.007C0.077,-0.019 0.05,-0.036 0.028,-0.058L0.066,-0.106C0.087,-0.088 0.109,-0.075 0.132,-0.066C0.155,-0.057 0.182,-0.052 0.212,-0.052C0.244,-0.052 0.268,-0.06 0.284,-0.074C0.3,-0.089 0.308,-0.107 0.308,-0.128C0.308,-0.144 0.302,-0.158 0.292,-0.169C0.281,-0.18 0.267,-0.19 0.251,-0.197C0.234,-0.205 0.216,-0.212 0.198,-0.219C0.174,-0.228 0.151,-0.238 0.129,-0.25C0.107,-0.261 0.089,-0.276 0.076,-0.294C0.062,-0.311 0.055,-0.334 0.055,-0.36C0.055,-0.399 0.07,-0.432 0.099,-0.459C0.129,-0.485 0.17,-0.498 0.223,-0.498C0.253,-0.498 0.281,-0.493 0.307,-0.483C0.333,-0.473 0.355,-0.459 0.374,-0.443L0.336,-0.396C0.319,-0.408 0.301,-0.417 0.283,-0.424C0.265,-0.431 0.245,-0.434 0.223,-0.434C0.193,-0.434 0.17,-0.427 0.156,-0.413C0.141,-0.399 0.134,-0.383 0.134,-0.364C0.134,-0.349 0.138,-0.337 0.147,-0.327C0.156,-0.318 0.168,-0.309 0.184,-0.302C0.199,-0.295 0.217,-0.288 0.237,-0.281C0.262,-0.271 0.287,-0.261 0.31,-0.249C0.332,-0.238 0.351,-0.223 0.365,-0.205C0.38,-0.186 0.387,-0.162 0.387,-0.133C0.387,-0.106 0.38,-0.082 0.366,-0.06C0.353,-0.038 0.333,-0.021 0.306,-0.008C0.28,0.005 0.248,0.012 0.209,0.012Z" style="fill-rule:nonzero;"/>
            </g>
            <g transform="matrix(75,0,0,75,1111.82,520.906)">
                <path d="M0.082,-0L0.082,-0.486L0.164,-0.486L0.164,-0L0.082,-0ZM0.123,-0.586C0.107,-0.586 0.094,-0.591 0.084,-0.601C0.073,-0.611 0.068,-0.624 0.068,-0.64C0.068,-0.656 0.073,-0.669 0.084,-0.679C0.094,-0.689 0.107,-0.694 0.123,-0.694C0.139,-0.694 0.152,-0.689 0.163,-0.679C0.173,-0.669 0.178,-0.656 0.178,-0.64C0.178,-0.624 0.173,-0.611 0.163,-0.601C0.152,-0.591 0.139,-0.586 0.123,-0.586Z" style="fill-rule:nonzero;"/>
            </g>
            <g transform="matrix(75,0,0,75,1130.29,520.906)">
                <path d="M0.271,0.012C0.231,0.012 0.194,0.002 0.16,-0.018C0.126,-0.038 0.098,-0.067 0.077,-0.105C0.056,-0.143 0.046,-0.189 0.046,-0.242C0.046,-0.296 0.056,-0.343 0.077,-0.381C0.098,-0.419 0.126,-0.448 0.16,-0.468C0.194,-0.488 0.231,-0.498 0.271,-0.498C0.311,-0.498 0.348,-0.488 0.382,-0.468C0.416,-0.448 0.444,-0.419 0.465,-0.381C0.486,-0.343 0.496,-0.296 0.496,-0.242C0.496,-0.189 0.486,-0.143 0.465,-0.105C0.444,-0.067 0.416,-0.038 0.382,-0.018C0.348,0.002 0.311,0.012 0.271,0.012ZM0.271,-0.056C0.299,-0.056 0.324,-0.064 0.345,-0.08C0.366,-0.095 0.382,-0.117 0.394,-0.145C0.406,-0.173 0.411,-0.205 0.411,-0.242C0.411,-0.28 0.406,-0.312 0.394,-0.34C0.382,-0.368 0.366,-0.39 0.345,-0.406C0.324,-0.422 0.299,-0.43 0.271,-0.43C0.243,-0.43 0.219,-0.422 0.198,-0.406C0.177,-0.39 0.16,-0.368 0.149,-0.34C0.137,-0.312 0.131,-0.28 0.131,-0.242C0.131,-0.205 0.137,-0.173 0.149,-0.145C0.16,-0.117 0.177,-0.095 0.198,-0.08C0.219,-0.064 0.243,-0.056 0.271,-0.056Z" style="fill-rule:nonzero;"/>
            </g>
            <g transform="matrix(75,0,0,75,1170.96,520.906)">
                <path d="M0.082,-0L0.082,-0.486L0.15,-0.486L0.157,-0.416L0.16,-0.416C0.183,-0.439 0.208,-0.459 0.234,-0.474C0.26,-0.49 0.29,-0.498 0.323,-0.498C0.374,-0.498 0.412,-0.482 0.436,-0.45C0.459,-0.417 0.471,-0.37 0.471,-0.308L0.471,-0L0.389,-0L0.389,-0.297C0.389,-0.343 0.382,-0.376 0.367,-0.396C0.353,-0.416 0.33,-0.427 0.297,-0.427C0.272,-0.427 0.25,-0.42 0.231,-0.408C0.211,-0.395 0.189,-0.377 0.164,-0.352L0.164,-0L0.082,-0Z" style="fill-rule:nonzero;"/>
            </g>
            <g transform="matrix(75,0,0,75,1211.96,520.906)">
            </g>
        </g>
        <g transform="matrix(1,0,0,1,-220.935,634.872)">
            <g transform="matrix(75,0,0,75,936.906,520.906)">
                <path d="M0.209,0.012C0.174,0.012 0.14,0.006 0.109,-0.007C0.077,-0.019 0.05,-0.036 0.028,-0.058L0.066,-0.106C0.087,-0.088 0.109,-0.075 0.132,-0.066C0.155,-0.057 0.182,-0.052 0.212,-0.052C0.244,-0.052 0.268,-0.06 0.284,-0.074C0.3,-0.089 0.308,-0.107 0.308,-0.128C0.308,-0.144 0.302,-0.158 0.292,-0.169C0.281,-0.18 0.267,-0.19 0.251,-0.197C0.234,-0.205 0.216,-0.212 0.198,-0.219C0.174,-0.228 0.151,-0.238 0.129,-0.25C0.107,-0.261 0.089,-0.276 0.076,-0.294C0.062,-0.311 0.055,-0.334 0.055,-0.36C0.055,-0.399 0.07,-0.432 0.099,-0.459C0.129,-0.485 0.17,-0.498 0.223,-0.498C0.253,-0.498 0.281,-0.493 0.307,-0.483C0.333,-0.473 0.355,-0.459 0.374,-0.443L0.336,-0.396C0.319,-0.408 0.301,-0.417 0.283,-0.424C0.265,-0.431 0.245,-0.434 0.223,-0.434C0.193,-0.434 0.17,-0.427 0.156,-0.413C0.141,-0.399 0.134,-0.383 0.134,-0.364C0.134,-0.349 0.138,-0.337 0.147,-0.327C0.156,-0.318 0.168,-0.309 0.184,-0.302C0.199,-0.295 0.217,-0.288 0.237,-0.281C0.262,-0.271 0.287,-0.261 0.31,-0.249C0.332,-0.238 0.351,-0.223 0.365,-0.205C0.38,-0.186 0.387,-0.162 0.387,-0.133C0.387,-0.106 0.38,-0.082 0.366,-0.06C0.353,-0.038 0.333,-0.021 0.306,-0.008C0.28,0.005 0.248,0.012 0.209,0.012Z" style="fill-rule:nonzero;"/>
            </g>
            <g transform="matrix(75,0,0,75,968.342,520.906)">
                <path d="M0.279,0.012C0.236,0.012 0.196,0.002 0.161,-0.018C0.125,-0.039 0.097,-0.068 0.076,-0.106C0.056,-0.143 0.045,-0.189 0.045,-0.243C0.045,-0.296 0.056,-0.341 0.077,-0.379C0.098,-0.417 0.125,-0.447 0.159,-0.467C0.192,-0.488 0.228,-0.498 0.265,-0.498C0.306,-0.498 0.342,-0.489 0.371,-0.47C0.399,-0.451 0.421,-0.424 0.436,-0.39C0.451,-0.356 0.458,-0.316 0.458,-0.27C0.458,-0.262 0.458,-0.253 0.457,-0.245C0.457,-0.237 0.456,-0.229 0.454,-0.221L0.104,-0.221L0.104,-0.286L0.384,-0.286C0.384,-0.333 0.374,-0.369 0.354,-0.394C0.333,-0.419 0.304,-0.431 0.266,-0.431C0.244,-0.431 0.222,-0.425 0.201,-0.413C0.18,-0.4 0.162,-0.38 0.148,-0.353C0.135,-0.325 0.128,-0.289 0.128,-0.244C0.128,-0.202 0.135,-0.168 0.149,-0.14C0.164,-0.112 0.183,-0.091 0.208,-0.077C0.233,-0.062 0.26,-0.055 0.289,-0.055C0.312,-0.055 0.334,-0.059 0.354,-0.065C0.375,-0.072 0.393,-0.08 0.41,-0.092L0.44,-0.038C0.419,-0.023 0.395,-0.011 0.369,-0.002C0.342,0.007 0.312,0.012 0.279,0.012Z" style="fill-rule:nonzero;"/>
            </g>
            <g transform="matrix(75,0,0,75,1005.53,520.906)">
                <path d="M0.169,0.009C0.149,0.009 0.132,0.005 0.119,-0.003C0.106,-0.012 0.097,-0.024 0.091,-0.04C0.085,-0.057 0.082,-0.077 0.082,-0.1L0.082,-0.712L0.164,-0.712L0.164,-0.094C0.164,-0.081 0.166,-0.072 0.171,-0.067C0.176,-0.062 0.182,-0.059 0.188,-0.059C0.191,-0.059 0.193,-0.059 0.196,-0.06C0.198,-0.06 0.201,-0.061 0.205,-0.061L0.217,0.001C0.211,0.003 0.204,0.005 0.196,0.007C0.188,0.008 0.179,0.009 0.169,0.009Z" style="fill-rule:nonzero;"/>
            </g>
            <g transform="matrix(75,0,0,75,1024.66,520.906)">
                <path d="M0.096,-0L0.096,-0.563C0.096,-0.596 0.101,-0.625 0.111,-0.649C0.121,-0.673 0.137,-0.691 0.158,-0.705C0.179,-0.718 0.205,-0.724 0.238,-0.724C0.253,-0.724 0.267,-0.723 0.282,-0.72C0.296,-0.717 0.308,-0.713 0.319,-0.708L0.301,-0.648C0.282,-0.654 0.264,-0.657 0.246,-0.657C0.224,-0.657 0.206,-0.649 0.195,-0.633C0.184,-0.618 0.178,-0.594 0.178,-0.563L0.178,-0L0.096,-0ZM0.024,-0.419L0.024,-0.481L0.1,-0.486L0.281,-0.486L0.281,-0.419L0.024,-0.419Z" style="fill-rule:nonzero;"/>
            </g>
            <g transform="matrix(75,0,0,75,1045.49,520.906)">
                <rect x="0.041" y="-0.282" width="0.229" height="0.063" style="fill-rule:nonzero;"/>
            </g>
            <g transform="matrix(75,0,0,75,1068.81,520.906)">
            </g>
            <g transform="matrix(75,0,0,75,840.85,595.906)">
                <path d="M0.279,0.012C0.236,0.012 0.196,0.002 0.161,-0.018C0.125,-0.039 0.097,-0.068 0.076,-0.106C0.056,-0.143 0.045,-0.189 0.045,-0.243C0.045,-0.296 0.056,-0.341 0.077,-0.379C0.098,-0.417 0.125,-0.447 0.159,-0.467C0.192,-0.488 0.228,-0.498 0.265,-0.498C0.306,-0.498 0.342,-0.489 0.371,-0.47C0.399,-0.451 0.421,-0.424 0.436,-0.39C0.451,-0.356 0.458,-0.316 0.458,-0.27C0.458,-0.262 0.458,-0.253 0.457,-0.245C0.457,-0.237 0.456,-0.229 0.454,-0.221L0.104,-0.221L0.104,-0.286L0.384,-0.286C0.384,-0.333 0.374,-0.369 0.354,-0.394C0.333,-0.419 0.304,-0.431 0.266,-0.431C0.244,-0.431 0.222,-0.425 0.201,-0.413C0.18,-0.4 0.162,-0.38 0.148,-0.353C0.135,-0.325 0.128,-0.289 0.128,-0.244C0.128,-0.202 0.135,-0.168 0.149,-0.14C0.164,-0.112 0.183,-0.091 0.208,-0.077C0.233,-0.062 0.26,-0.055 0.289,-0.055C0.312,-0.055 0.334,-0.059 0.354,-0.065C0.375,-0.072 0.393,-0.08 0.41,-0.092L0.44,-0.038C0.419,-0.023 0.395,-0.011 0.369,-0.002C0.342,0.007 0.312,0.012 0.279,0.012Z" style="fill-rule:nonzero;"/>
            </g>
            <g transform="matrix(75,0,0,75,878.034,595.906)">
                <path d="M0.209,0.012C0.174,0.012 0.14,0.006 0.109,-0.007C0.077,-0.019 0.05,-0.036 0.028,-0.058L0.066,-0.106C0.087,-0.088 0.109,-0.075 0.132,-0.066C0.155,-0.057 0.182,-0.052 0.212,-0.052C0.244,-0.052 0.268,-0.06 0.284,-0.074C0.3,-0.089 0.308,-0.107 0.308,-0.128C0.308,-0.144 0.302,-0.158 0.292,-0.169C0.281,-0.18 0.267,-0.19 0.251,-0.197C0.234,-0.205 0.216,-0.212 0.198,-0.219C0.174,-0.228 0.151,-0.238 0.129,-0.25C0.107,-0.261 0.089,-0.276 0.076,-0.294C0.062,-0.311 0.055,-0.334 0.055,-0.36C0.055,-0.399 0.07,-0.432 0.099,-0.459C0.129,-0.485 0.17,-0.498 0.223,-0.498C0.253,-0.498 0.281,-0.493 0.307,-0.483C0.333,-0.473 0.355,-0.459 0.374,-0.443L0.336,-0.396C0.319,-0.408 0.301,-0.417 0.283,-0.424C0.265,-0.431 0.245,-0.434 0.223,-0.434C0.193,-0.434 0.17,-0.427 0.156,-0.413C0.141,-0.399 0.134,-0.383 0.134,-0.364C0.134,-0.349 0.138,-0.337 0.147,-0.327C0.156,-0.318 0.168,-0.309 0.184,-0.302C0.199,-0.295 0.217,-0.288 0.237,-0.281C0.262,-0.271 0.287,-0.261 0.31,-0.249C0.332,-0.238 0.351,-0.223 0.365,-0.205C0.38,-0.186 0.387,-0.162 0.387,-0.133C0.387,-0.106 0.38,-0.082 0.366,-0.06C0.353,-0.038 0.333,-0.021 0.306,-0.008C0.28,0.005 0.248,0.012 0.209,0.012Z" style="fill-rule:nonzero;"/>
            </g>
            <g transform="matrix(75,0,0,75,907.969,595.906)">
                <path d="M0.235,0.009C0.183,0.009 0.147,-0.006 0.127,-0.036C0.106,-0.066 0.096,-0.105 0.096,-0.153L0.096,-0.419L0.024,-0.419L0.024,-0.481L0.1,-0.486L0.11,-0.642L0.179,-0.642L0.179,-0.486L0.311,-0.486L0.311,-0.419L0.179,-0.419L0.179,-0.152C0.179,-0.122 0.184,-0.099 0.196,-0.083C0.207,-0.066 0.226,-0.058 0.254,-0.058C0.263,-0.058 0.272,-0.059 0.281,-0.061C0.29,-0.062 0.299,-0.066 0.309,-0.07L0.327,-0.012C0.314,-0.006 0.3,-0.001 0.284,0.003C0.268,0.007 0.252,0.009 0.235,0.009Z" style="fill-rule:nonzero;"/>
            </g>
            <g transform="matrix(75,0,0,75,932.283,595.906)">
                <path d="M0.279,0.012C0.236,0.012 0.196,0.002 0.161,-0.018C0.125,-0.039 0.097,-0.068 0.076,-0.106C0.056,-0.143 0.045,-0.189 0.045,-0.243C0.045,-0.296 0.056,-0.341 0.077,-0.379C0.098,-0.417 0.125,-0.447 0.159,-0.467C0.192,-0.488 0.228,-0.498 0.265,-0.498C0.306,-0.498 0.342,-0.489 0.371,-0.47C0.399,-0.451 0.421,-0.424 0.436,-0.39C0.451,-0.356 0.458,-0.316 0.458,-0.27C0.458,-0.262 0.458,-0.253 0.457,-0.245C0.457,-0.237 0.456,-0.229 0.454,-0.221L0.104,-0.221L0.104,-0.286L0.384,-0.286C0.384,-0.333 0.374,-0.369 0.354,-0.394C0.333,-0.419 0.304,-0.431 0.266,-0.431C0.244,-0.431 0.222,-0.425 0.201,-0.413C0.18,-0.4 0.162,-0.38 0.148,-0.353C0.135,-0.325 0.128,-0.289 0.128,-0.244C0.128,-0.202 0.135,-0.168 0.149,-0.14C0.164,-0.112 0.183,-0.091 0.208,-0.077C0.233,-0.062 0.26,-0.055 0.289,-0.055C0.312,-0.055 0.334,-0.059 0.354,-0.065C0.375,-0.072 0.393,-0.08 0.41,-0.092L0.44,-0.038C0.419,-0.023 0.395,-0.011 0.369,-0.002C0.342,0.007 0.312,0.012 0.279,0.012Z" style="fill-rule:nonzero;"/>
            </g>
            <g transform="matrix(75,0,0,75,969.467,595.906)">
                <path d="M0.279,0.012C0.236,0.012 0.196,0.002 0.161,-0.018C0.125,-0.039 0.097,-0.068 0.076,-0.106C0.056,-0.143 0.045,-0.189 0.045,-0.243C0.045,-0.296 0.056,-0.341 0.077,-0.379C0.098,-0.417 0.125,-0.447 0.159,-0.467C0.192,-0.488 0.228,-0.498 0.265,-0.498C0.306,-0.498 0.342,-0.489 0.371,-0.47C0.399,-0.451 0.421,-0.424 0.436,-0.39C0.451,-0.356 0.458,-0.316 0.458,-0.27C0.458,-0.262 0.458,-0.253 0.457,-0.245C0.457,-0.237 0.456,-0.229 0.454,-0.221L0.104,-0.221L0.104,-0.286L0.384,-0.286C0.384,-0.333 0.374,-0.369 0.354,-0.394C0.333,-0.419 0.304,-0.431 0.266,-0.431C0.244,-0.431 0.222,-0.425 0.201,-0.413C0.18,-0.4 0.162,-0.38 0.148,-0.353C0.135,-0.325 0.128,-0.289 0.128,-0.244C0.128,-0.202 0.135,-0.168 0.149,-0.14C0.164,-0.112 0.183,-0.091 0.208,-0.077C0.233,-0.062 0.26,-0.055 0.289,-0.055C0.312,-0.055 0.334,-0.059 0.354,-0.065C0.375,-0.072 0.393,-0.08 0.41,-0.092L0.44,-0.038C0.419,-0.023 0.395,-0.011 0.369,-0.002C0.342,0.007 0.312,0.012 0.279,0.012Z" style="fill-rule:nonzero;"/>
            </g>
            <g transform="matrix(75,0,0,75,1006.65,595.906)">
                <path d="M0.082,-0L0.082,-0.486L0.15,-0.486L0.157,-0.416L0.16,-0.416C0.181,-0.439 0.204,-0.458 0.23,-0.474C0.255,-0.49 0.282,-0.498 0.311,-0.498C0.348,-0.498 0.378,-0.49 0.399,-0.473C0.42,-0.457 0.435,-0.434 0.445,-0.405C0.47,-0.433 0.496,-0.455 0.522,-0.473C0.548,-0.49 0.576,-0.498 0.605,-0.498C0.656,-0.498 0.693,-0.482 0.717,-0.45C0.741,-0.417 0.753,-0.37 0.753,-0.308L0.753,-0L0.671,-0L0.671,-0.297C0.671,-0.343 0.664,-0.376 0.649,-0.396C0.635,-0.416 0.612,-0.427 0.581,-0.427C0.562,-0.427 0.542,-0.421 0.523,-0.408C0.503,-0.396 0.481,-0.377 0.459,-0.352L0.459,-0L0.377,-0L0.377,-0.297C0.377,-0.343 0.369,-0.376 0.355,-0.396C0.34,-0.416 0.317,-0.427 0.286,-0.427C0.25,-0.427 0.209,-0.402 0.164,-0.352L0.164,-0L0.082,-0Z" style="fill-rule:nonzero;"/>
            </g>
            <g transform="matrix(75,0,0,75,1068.81,595.906)">
            </g>
        </g>
        <g transform="matrix(1,0,0,1,-491.541,1049.25)">
            <g transform="matrix(75,0,0,75,883.721,520.906)">
                <path d="M0.159,-0L0.024,-0.486L0.11,-0.486L0.181,-0.205C0.186,-0.183 0.191,-0.161 0.196,-0.139C0.201,-0.117 0.205,-0.093 0.209,-0.067L0.213,-0.067C0.218,-0.093 0.223,-0.117 0.228,-0.139C0.233,-0.161 0.238,-0.183 0.244,-0.205L0.316,-0.486L0.406,-0.486L0.479,-0.205C0.485,-0.183 0.49,-0.161 0.496,-0.139C0.501,-0.117 0.506,-0.093 0.511,-0.067L0.515,-0.067C0.52,-0.093 0.525,-0.117 0.53,-0.139C0.534,-0.161 0.539,-0.183 0.544,-0.205L0.615,-0.486L0.695,-0.486L0.564,-0L0.457,-0L0.392,-0.26C0.387,-0.283 0.381,-0.305 0.377,-0.328C0.372,-0.35 0.367,-0.375 0.361,-0.404L0.357,-0.404C0.353,-0.375 0.348,-0.35 0.343,-0.327C0.338,-0.305 0.332,-0.282 0.326,-0.26L0.261,-0L0.159,-0Z" style="fill-rule:nonzero;"/>
            </g>
            <g transform="matrix(75,0,0,75,937.317,520.906)">
                <path d="M0.279,0.012C0.236,0.012 0.196,0.002 0.161,-0.018C0.125,-0.039 0.097,-0.068 0.076,-0.106C0.056,-0.143 0.045,-0.189 0.045,-0.243C0.045,-0.296 0.056,-0.341 0.077,-0.379C0.098,-0.417 0.125,-0.447 0.159,-0.467C0.192,-0.488 0.228,-0.498 0.265,-0.498C0.306,-0.498 0.342,-0.489 0.371,-0.47C0.399,-0.451 0.421,-0.424 0.436,-0.39C0.451,-0.356 0.458,-0.316 0.458,-0.27C0.458,-0.262 0.458,-0.253 0.457,-0.245C0.457,-0.237 0.456,-0.229 0.454,-0.221L0.104,-0.221L0.104,-0.286L0.384,-0.286C0.384,-0.333 0.374,-0.369 0.354,-0.394C0.333,-0.419 0.304,-0.431 0.266,-0.431C0.244,-0.431 0.222,-0.425 0.201,-0.413C0.18,-0.4 0.162,-0.38 0.148,-0.353C0.135,-0.325 0.128,-0.289 0.128,-0.244C0.128,-0.202 0.135,-0.168 0.149,-0.14C0.164,-0.112 0.183,-0.091 0.208,-0.077C0.233,-0.062 0.26,-0.055 0.289,-0.055C0.312,-0.055 0.334,-0.059 0.354,-0.065C0.375,-0.072 0.393,-0.08 0.41,-0.092L0.44,-0.038C0.419,-0.023 0.395,-0.011 0.369,-0.002C0.342,0.007 0.312,0.012 0.279,0.012Z" style="fill-rule:nonzero;"/>
            </g>
            <g transform="matrix(75,0,0,75,974.501,520.906)">
                <path d="M0.169,0.009C0.149,0.009 0.132,0.005 0.119,-0.003C0.106,-0.012 0.097,-0.024 0.091,-0.04C0.085,-0.057 0.082,-0.077 0.082,-0.1L0.082,-0.712L0.164,-0.712L0.164,-0.094C0.164,-0.081 0.166,-0.072 0.171,-0.067C0.176,-0.062 0.182,-0.059 0.188,-0.059C0.191,-0.059 0.193,-0.059 0.196,-0.06C0.198,-0.06 0.201,-0.061 0.205,-0.061L0.217,0.001C0.211,0.003 0.204,0.005 0.196,0.007C0.188,0.008 0.179,0.009 0.169,0.009Z" style="fill-rule:nonzero;"/>
            </g>
            <g transform="matrix(75,0,0,75,993.637,520.906)">
                <path d="M0.169,0.009C0.149,0.009 0.132,0.005 0.119,-0.003C0.106,-0.012 0.097,-0.024 0.091,-0.04C0.085,-0.057 0.082,-0.077 0.082,-0.1L0.082,-0.712L0.164,-0.712L0.164,-0.094C0.164,-0.081 0.166,-0.072 0.171,-0.067C0.176,-0.062 0.182,-0.059 0.188,-0.059C0.191,-0.059 0.193,-0.059 0.196,-0.06C0.198,-0.06 0.201,-0.061 0.205,-0.061L0.217,0.001C0.211,0.003 0.204,0.005 0.196,0.007C0.188,0.008 0.179,0.009 0.169,0.009Z" style="fill-rule:nonzero;"/>
            </g>
            <g transform="matrix(75,0,0,75,1012.77,520.906)">
                <path d="M0.297,0.012C0.274,0.012 0.251,0.007 0.227,-0.005C0.203,-0.016 0.18,-0.031 0.158,-0.05L0.155,-0.05L0.148,-0L0.082,-0L0.082,-0.712L0.164,-0.712L0.164,-0.518L0.162,-0.43C0.184,-0.45 0.208,-0.466 0.234,-0.479C0.261,-0.492 0.287,-0.498 0.314,-0.498C0.356,-0.498 0.391,-0.488 0.42,-0.468C0.449,-0.447 0.471,-0.418 0.485,-0.381C0.5,-0.344 0.507,-0.301 0.507,-0.251C0.507,-0.196 0.497,-0.148 0.478,-0.109C0.458,-0.07 0.432,-0.04 0.4,-0.019C0.368,0.002 0.334,0.012 0.297,0.012ZM0.283,-0.057C0.309,-0.057 0.333,-0.065 0.354,-0.08C0.375,-0.096 0.392,-0.118 0.404,-0.147C0.416,-0.175 0.422,-0.21 0.422,-0.25C0.422,-0.285 0.418,-0.317 0.409,-0.344C0.401,-0.371 0.387,-0.392 0.368,-0.406C0.349,-0.421 0.325,-0.429 0.294,-0.429C0.274,-0.429 0.253,-0.423 0.231,-0.412C0.21,-0.401 0.187,-0.385 0.164,-0.363L0.164,-0.108C0.186,-0.089 0.207,-0.076 0.228,-0.069C0.249,-0.061 0.267,-0.057 0.283,-0.057Z" style="fill-rule:nonzero;"/>
            </g>
            <g transform="matrix(75,0,0,75,1054.28,520.906)">
                <path d="M0.279,0.012C0.236,0.012 0.196,0.002 0.161,-0.018C0.125,-0.039 0.097,-0.068 0.076,-0.106C0.056,-0.143 0.045,-0.189 0.045,-0.243C0.045,-0.296 0.056,-0.341 0.077,-0.379C0.098,-0.417 0.125,-0.447 0.159,-0.467C0.192,-0.488 0.228,-0.498 0.265,-0.498C0.306,-0.498 0.342,-0.489 0.371,-0.47C0.399,-0.451 0.421,-0.424 0.436,-0.39C0.451,-0.356 0.458,-0.316 0.458,-0.27C0.458,-0.262 0.458,-0.253 0.457,-0.245C0.457,-0.237 0.456,-0.229 0.454,-0.221L0.104,-0.221L0.104,-0.286L0.384,-0.286C0.384,-0.333 0.374,-0.369 0.354,-0.394C0.333,-0.419 0.304,-0.431 0.266,-0.431C0.244,-0.431 0.222,-0.425 0.201,-0.413C0.18,-0.4 0.162,-0.38 0.148,-0.353C0.135,-0.325 0.128,-0.289 0.128,-0.244C0.128,-0.202 0.135,-0.168 0.149,-0.14C0.164,-0.112 0.183,-0.091 0.208,-0.077C0.233,-0.062 0.26,-0.055 0.289,-0.055C0.312,-0.055 0.334,-0.059 0.354,-0.065C0.375,-0.072 0.393,-0.08 0.41,-0.092L0.44,-0.038C0.419,-0.023 0.395,-0.011 0.369,-0.002C0.342,0.007 0.312,0.012 0.279,0.012Z" style="fill-rule:nonzero;"/>
            </g>
            <g transform="matrix(75,0,0,75,1091.47,520.906)">
                <path d="M0.082,-0L0.082,-0.486L0.164,-0.486L0.164,-0L0.082,-0ZM0.123,-0.586C0.107,-0.586 0.094,-0.591 0.084,-0.601C0.073,-0.611 0.068,-0.624 0.068,-0.64C0.068,-0.656 0.073,-0.669 0.084,-0.679C0.094,-0.689 0.107,-0.694 0.123,-0.694C0.139,-0.694 0.152,-0.689 0.163,-0.679C0.173,-0.669 0.178,-0.656 0.178,-0.64C0.178,-0.624 0.173,-0.611 0.163,-0.601C0.152,-0.591 0.139,-0.586 0.123,-0.586Z" style="fill-rule:nonzero;"/>
            </g>
            <g transform="matrix(75,0,0,75,1109.94,520.906)">
                <path d="M0.082,-0L0.082,-0.486L0.15,-0.486L0.157,-0.416L0.16,-0.416C0.183,-0.439 0.208,-0.459 0.234,-0.474C0.26,-0.49 0.29,-0.498 0.323,-0.498C0.374,-0.498 0.412,-0.482 0.436,-0.45C0.459,-0.417 0.471,-0.37 0.471,-0.308L0.471,-0L0.389,-0L0.389,-0.297C0.389,-0.343 0.382,-0.376 0.367,-0.396C0.353,-0.416 0.33,-0.427 0.297,-0.427C0.272,-0.427 0.25,-0.42 0.231,-0.408C0.211,-0.395 0.189,-0.377 0.164,-0.352L0.164,-0L0.082,-0Z" style="fill-rule:nonzero;"/>
            </g>
            <g transform="matrix(75,0,0,75,1150.93,520.906)">
                <path d="M0.246,0.224C0.207,0.224 0.172,0.219 0.141,0.208C0.111,0.198 0.087,0.183 0.071,0.164C0.054,0.145 0.045,0.121 0.045,0.093C0.045,0.072 0.051,0.052 0.064,0.034C0.077,0.015 0.094,-0.002 0.116,-0.017L0.116,-0.021C0.104,-0.029 0.094,-0.039 0.086,-0.052C0.077,-0.065 0.073,-0.081 0.073,-0.1C0.073,-0.12 0.079,-0.138 0.09,-0.154C0.102,-0.17 0.114,-0.182 0.126,-0.19L0.126,-0.194C0.111,-0.207 0.096,-0.225 0.083,-0.248C0.07,-0.271 0.063,-0.296 0.063,-0.325C0.063,-0.36 0.072,-0.391 0.089,-0.417C0.105,-0.443 0.128,-0.463 0.155,-0.477C0.183,-0.491 0.213,-0.498 0.246,-0.498C0.259,-0.498 0.272,-0.497 0.284,-0.495C0.296,-0.493 0.306,-0.49 0.315,-0.486L0.484,-0.486L0.484,-0.423L0.383,-0.423L0.383,-0.419C0.395,-0.408 0.404,-0.395 0.412,-0.379C0.42,-0.363 0.424,-0.344 0.424,-0.322C0.424,-0.288 0.416,-0.258 0.4,-0.233C0.384,-0.208 0.363,-0.188 0.336,-0.175C0.309,-0.161 0.279,-0.154 0.246,-0.154C0.234,-0.154 0.222,-0.156 0.209,-0.159C0.197,-0.161 0.185,-0.165 0.173,-0.171C0.165,-0.163 0.158,-0.156 0.152,-0.147C0.146,-0.138 0.143,-0.127 0.143,-0.113C0.143,-0.098 0.149,-0.085 0.161,-0.075C0.173,-0.065 0.195,-0.061 0.228,-0.061L0.322,-0.061C0.379,-0.061 0.422,-0.051 0.45,-0.033C0.478,-0.014 0.492,0.015 0.492,0.056C0.492,0.086 0.482,0.113 0.462,0.139C0.442,0.164 0.413,0.185 0.377,0.2C0.34,0.216 0.296,0.224 0.246,0.224ZM0.246,-0.209C0.265,-0.209 0.282,-0.214 0.297,-0.224C0.313,-0.233 0.325,-0.246 0.335,-0.264C0.344,-0.281 0.349,-0.301 0.349,-0.325C0.349,-0.361 0.339,-0.389 0.319,-0.409C0.299,-0.429 0.275,-0.438 0.246,-0.438C0.217,-0.438 0.193,-0.429 0.173,-0.409C0.153,-0.389 0.143,-0.361 0.143,-0.325C0.143,-0.301 0.147,-0.281 0.157,-0.264C0.166,-0.246 0.179,-0.233 0.195,-0.224C0.21,-0.214 0.227,-0.209 0.246,-0.209ZM0.258,0.167C0.289,0.167 0.316,0.162 0.339,0.153C0.361,0.144 0.379,0.131 0.392,0.116C0.405,0.101 0.412,0.085 0.412,0.068C0.412,0.045 0.403,0.03 0.386,0.021C0.37,0.012 0.345,0.008 0.314,0.008L0.23,0.008C0.221,0.008 0.211,0.007 0.2,0.006C0.189,0.005 0.178,0.003 0.167,0C0.149,0.013 0.137,0.026 0.129,0.04C0.121,0.054 0.117,0.068 0.117,0.082C0.117,0.108 0.129,0.129 0.155,0.144C0.18,0.159 0.214,0.167 0.258,0.167Z" style="fill-rule:nonzero;"/>
            </g>
            <g transform="matrix(75,0,0,75,1188.75,520.906)">
            </g>
        </g>
        <g transform="matrix(1,0,0,1,-70.0893,874.824)">
            <g transform="matrix(1,-0,-0,1,79.3976,-931.526)">
                <path d="M454.294,1485.92L427.029,1520.7L392.248,1493.44" style="fill:none;stroke:black;stroke-width:8.33px;stroke-linejoin:miter;stroke-miterlimit:10;"/>
                <path d="M584.351,1229.21C490.614,1229.21 409.908,1369.09 427.029,1520.7" style="fill:none;stroke:black;stroke-width:8.33px;"/>
            </g>
        </g>
        <g transform="matrix(-0.148286,-0.988944,-0.988944,0.148286,1464.76,1979.35)">
            <g transform="matrix(-0.148286,-0.988944,-0.988944,0.148286,2229.37,1137.45)">
                <path d="M754.827,1639.23L723.591,1607.97L754.856,1576.73" style="fill:none;stroke:black;stroke-width:8.33px;stroke-linejoin:miter;stroke-miterlimit:10;"/>
                <path d="M1074.37,1520.63C1074.37,1611.59 858.506,1608.09 723.591,1607.97" style="fill:none;stroke:black;stroke-width:8.33px;"/>
            </g>
        </g>
    </g>
    <g transform="matrix(1,0,0,1,81.9276,-74.1014)">
        <g transform="matrix(1,0,0,1.072,1136.24,175.352)">
            <path d="M1152.02,231.488L1152.02,634.278C1152.02,745.431 1055.29,835.673 936.129,835.673L271.985,835.673C152.829,835.673 56.089,745.431 56.089,634.278L56.089,231.488C56.089,120.335 152.829,30.093 271.985,30.093L936.129,30.093C1055.29,30.093 1152.02,120.335 1152.02,231.488Z" style="fill:rgb(241,215,211);"/>
        </g>
        <g transform="matrix(0.67603,0,0,0.67603,1583.16,107.498)">
            <path d="M228.287,338.063L228.287,874.016L764.24,874.016" style="fill:none;stroke:black;stroke-width:24.65px;"/>
        </g>
        <g transform="matrix(0.541592,0.0931303,0.0931303,0.527726,1528.64,186.639)">
            <path d="M311.006,837.375L952.126,192.485" style="fill:none;stroke:black;stroke-width:26.55px;"/>
        </g>
        <g transform="matrix(1,0,0,1,879.979,285.35)">
            <g transform="matrix(75,0,0,75,868.309,520.906)">
                <path d="M0.279,0.012C0.236,0.012 0.196,0.002 0.161,-0.018C0.125,-0.039 0.097,-0.068 0.076,-0.106C0.056,-0.143 0.045,-0.189 0.045,-0.243C0.045,-0.296 0.056,-0.341 0.077,-0.379C0.098,-0.417 0.125,-0.447 0.159,-0.467C0.192,-0.488 0.228,-0.498 0.265,-0.498C0.306,-0.498 0.342,-0.489 0.371,-0.47C0.399,-0.451 0.421,-0.424 0.436,-0.39C0.451,-0.356 0.458,-0.316 0.458,-0.27C0.458,-0.262 0.458,-0.253 0.457,-0.245C0.457,-0.237 0.456,-0.229 0.454,-0.221L0.104,-0.221L0.104,-0.286L0.384,-0.286C0.384,-0.333 0.374,-0.369 0.354,-0.394C0.333,-0.419 0.304,-0.431 0.266,-0.431C0.244,-0.431 0.222,-0.425 0.201,-0.413C0.18,-0.4 0.162,-0.38 0.148,-0.353C0.135,-0.325 0.128,-0.289 0.128,-0.244C0.128,-0.202 0.135,-0.168 0.149,-0.14C0.164,-0.112 0.183,-0.091 0.208,-0.077C0.233,-0.062 0.26,-0.055 0.289,-0.055C0.312,-0.055 0.334,-0.059 0.354,-0.065C0.375,-0.072 0.393,-0.08 0.41,-0.092L0.44,-0.038C0.419,-0.023 0.395,-0.011 0.369,-0.002C0.342,0.007 0.312,0.012 0.279,0.012Z" style="fill-rule:nonzero;"/>
            </g>
            <g transform="matrix(75,0,0,75,904.968,520.906)">
                <path d="M0.014,-0L0.173,-0.254L0.026,-0.486L0.115,-0.486L0.18,-0.379C0.188,-0.366 0.195,-0.353 0.204,-0.339C0.212,-0.326 0.22,-0.312 0.228,-0.299L0.232,-0.299C0.239,-0.312 0.247,-0.326 0.254,-0.339C0.261,-0.353 0.268,-0.366 0.276,-0.379L0.335,-0.486L0.421,-0.486L0.274,-0.245L0.432,-0L0.343,-0L0.272,-0.113C0.263,-0.128 0.255,-0.143 0.246,-0.157C0.237,-0.172 0.228,-0.186 0.219,-0.2L0.215,-0.2C0.207,-0.186 0.198,-0.172 0.19,-0.157C0.182,-0.143 0.174,-0.128 0.166,-0.113L0.1,-0L0.014,-0Z" style="fill-rule:nonzero;"/>
            </g>
            <g transform="matrix(75,0,0,75,938.452,520.906)">
                <path d="M0.082,0.205L0.082,-0.486L0.15,-0.486L0.157,-0.43L0.16,-0.43C0.182,-0.449 0.206,-0.465 0.233,-0.478C0.259,-0.491 0.287,-0.498 0.315,-0.498C0.356,-0.498 0.392,-0.488 0.42,-0.468C0.449,-0.447 0.471,-0.418 0.485,-0.381C0.5,-0.344 0.507,-0.3 0.507,-0.25C0.507,-0.195 0.497,-0.148 0.478,-0.109C0.458,-0.07 0.432,-0.04 0.4,-0.019C0.368,0.002 0.334,0.012 0.297,0.012C0.275,0.012 0.253,0.007 0.23,-0.003C0.207,-0.013 0.184,-0.027 0.162,-0.044L0.164,0.041L0.164,0.205L0.082,0.205ZM0.283,-0.057C0.309,-0.057 0.333,-0.065 0.354,-0.08C0.375,-0.096 0.392,-0.118 0.404,-0.147C0.416,-0.175 0.422,-0.21 0.422,-0.25C0.422,-0.285 0.418,-0.317 0.409,-0.344C0.401,-0.371 0.387,-0.392 0.368,-0.406C0.349,-0.421 0.325,-0.429 0.294,-0.429C0.274,-0.429 0.253,-0.423 0.232,-0.412C0.211,-0.401 0.188,-0.385 0.164,-0.363L0.164,-0.108C0.186,-0.089 0.208,-0.076 0.228,-0.069C0.249,-0.061 0.267,-0.057 0.283,-0.057Z" style="fill-rule:nonzero;"/>
            </g>
            <g transform="matrix(75,0,0,75,980.056,520.906)">
                <path d="M0.279,0.012C0.236,0.012 0.196,0.002 0.161,-0.018C0.125,-0.039 0.097,-0.068 0.076,-0.106C0.056,-0.143 0.045,-0.189 0.045,-0.243C0.045,-0.296 0.056,-0.341 0.077,-0.379C0.098,-0.417 0.125,-0.447 0.159,-0.467C0.192,-0.488 0.228,-0.498 0.265,-0.498C0.306,-0.498 0.342,-0.489 0.371,-0.47C0.399,-0.451 0.421,-0.424 0.436,-0.39C0.451,-0.356 0.458,-0.316 0.458,-0.27C0.458,-0.262 0.458,-0.253 0.457,-0.245C0.457,-0.237 0.456,-0.229 0.454,-0.221L0.104,-0.221L0.104,-0.286L0.384,-0.286C0.384,-0.333 0.374,-0.369 0.354,-0.394C0.333,-0.419 0.304,-0.431 0.266,-0.431C0.244,-0.431 0.222,-0.425 0.201,-0.413C0.18,-0.4 0.162,-0.38 0.148,-0.353C0.135,-0.325 0.128,-0.289 0.128,-0.244C0.128,-0.202 0.135,-0.168 0.149,-0.14C0.164,-0.112 0.183,-0.091 0.208,-0.077C0.233,-0.062 0.26,-0.055 0.289,-0.055C0.312,-0.055 0.334,-0.059 0.354,-0.065C0.375,-0.072 0.393,-0.08 0.41,-0.092L0.44,-0.038C0.419,-0.023 0.395,-0.011 0.369,-0.002C0.342,0.007 0.312,0.012 0.279,0.012Z" style="fill-rule:nonzero;"/>
            </g>
            <g transform="matrix(75,0,0,75,1017.24,520.906)">
                <path d="M0.082,-0L0.082,-0.486L0.15,-0.486L0.157,-0.398L0.16,-0.398C0.176,-0.429 0.196,-0.453 0.22,-0.471C0.244,-0.489 0.27,-0.498 0.298,-0.498C0.309,-0.498 0.318,-0.497 0.326,-0.496C0.334,-0.494 0.342,-0.492 0.35,-0.488L0.332,-0.418C0.325,-0.42 0.318,-0.421 0.312,-0.422C0.305,-0.423 0.297,-0.424 0.287,-0.424C0.267,-0.424 0.245,-0.416 0.223,-0.399C0.2,-0.383 0.181,-0.354 0.164,-0.312L0.164,-0L0.082,-0Z" style="fill-rule:nonzero;"/>
            </g>
            <g transform="matrix(75,0,0,75,1043.28,520.906)">
                <path d="M0.082,-0L0.082,-0.486L0.164,-0.486L0.164,-0L0.082,-0ZM0.123,-0.586C0.107,-0.586 0.094,-0.591 0.084,-0.601C0.073,-0.611 0.068,-0.624 0.068,-0.64C0.068,-0.656 0.073,-0.669 0.084,-0.679C0.094,-0.689 0.107,-0.694 0.123,-0.694C0.139,-0.694 0.152,-0.689 0.163,-0.679C0.173,-0.669 0.178,-0.656 0.178,-0.64C0.178,-0.624 0.173,-0.611 0.163,-0.601C0.152,-0.591 0.139,-0.586 0.123,-0.586Z" style="fill-rule:nonzero;"/>
            </g>
            <g transform="matrix(75,0,0,75,1061.75,520.906)">
                <path d="M0.279,0.012C0.236,0.012 0.196,0.002 0.161,-0.018C0.125,-0.039 0.097,-0.068 0.076,-0.106C0.056,-0.143 0.045,-0.189 0.045,-0.243C0.045,-0.296 0.056,-0.341 0.077,-0.379C0.098,-0.417 0.125,-0.447 0.159,-0.467C0.192,-0.488 0.228,-0.498 0.265,-0.498C0.306,-0.498 0.342,-0.489 0.371,-0.47C0.399,-0.451 0.421,-0.424 0.436,-0.39C0.451,-0.356 0.458,-0.316 0.458,-0.27C0.458,-0.262 0.458,-0.253 0.457,-0.245C0.457,-0.237 0.456,-0.229 0.454,-0.221L0.104,-0.221L0.104,-0.286L0.384,-0.286C0.384,-0.333 0.374,-0.369 0.354,-0.394C0.333,-0.419 0.304,-0.431 0.266,-0.431C0.244,-0.431 0.222,-0.425 0.201,-0.413C0.18,-0.4 0.162,-0.38 0.148,-0.353C0.135,-0.325 0.128,-0.289 0.128,-0.244C0.128,-0.202 0.135,-0.168 0.149,-0.14C0.164,-0.112 0.183,-0.091 0.208,-0.077C0.233,-0.062 0.26,-0.055 0.289,-0.055C0.312,-0.055 0.334,-0.059 0.354,-0.065C0.375,-0.072 0.393,-0.08 0.41,-0.092L0.44,-0.038C0.419,-0.023 0.395,-0.011 0.369,-0.002C0.342,0.007 0.312,0.012 0.279,0.012Z" style="fill-rule:nonzero;"/>
            </g>
            <g transform="matrix(75,0,0,75,1098.94,520.906)">
                <path d="M0.082,-0L0.082,-0.486L0.15,-0.486L0.157,-0.416L0.16,-0.416C0.183,-0.439 0.208,-0.459 0.234,-0.474C0.26,-0.49 0.29,-0.498 0.323,-0.498C0.374,-0.498 0.412,-0.482 0.436,-0.45C0.459,-0.417 0.471,-0.37 0.471,-0.308L0.471,-0L0.389,-0L0.389,-0.297C0.389,-0.343 0.382,-0.376 0.367,-0.396C0.353,-0.416 0.33,-0.427 0.297,-0.427C0.272,-0.427 0.25,-0.42 0.231,-0.408C0.211,-0.395 0.189,-0.377 0.164,-0.352L0.164,-0L0.082,-0Z" style="fill-rule:nonzero;"/>
            </g>
            <g transform="matrix(75,0,0,75,1139.93,520.906)">
                <path d="M0.275,0.012C0.232,0.012 0.193,0.002 0.158,-0.018C0.124,-0.038 0.096,-0.067 0.076,-0.105C0.056,-0.143 0.046,-0.189 0.046,-0.242C0.046,-0.296 0.057,-0.343 0.078,-0.381C0.1,-0.419 0.129,-0.448 0.164,-0.468C0.2,-0.488 0.238,-0.498 0.28,-0.498C0.312,-0.498 0.339,-0.493 0.362,-0.482C0.385,-0.471 0.405,-0.458 0.422,-0.441L0.381,-0.39C0.369,-0.402 0.355,-0.412 0.339,-0.419C0.322,-0.426 0.304,-0.43 0.283,-0.43C0.254,-0.43 0.228,-0.422 0.205,-0.406C0.183,-0.39 0.164,-0.368 0.151,-0.34C0.138,-0.312 0.131,-0.28 0.131,-0.242C0.131,-0.205 0.137,-0.173 0.15,-0.145C0.163,-0.117 0.18,-0.095 0.203,-0.08C0.226,-0.064 0.252,-0.056 0.282,-0.056C0.305,-0.056 0.325,-0.061 0.345,-0.069C0.364,-0.078 0.381,-0.089 0.395,-0.102L0.431,-0.052C0.411,-0.032 0.387,-0.017 0.361,-0.005C0.335,0.006 0.306,0.012 0.275,0.012Z" style="fill-rule:nonzero;"/>
            </g>
            <g transform="matrix(75,0,0,75,1172.54,520.906)">
                <path d="M0.279,0.012C0.236,0.012 0.196,0.002 0.161,-0.018C0.125,-0.039 0.097,-0.068 0.076,-0.106C0.056,-0.143 0.045,-0.189 0.045,-0.243C0.045,-0.296 0.056,-0.341 0.077,-0.379C0.098,-0.417 0.125,-0.447 0.159,-0.467C0.192,-0.488 0.228,-0.498 0.265,-0.498C0.306,-0.498 0.342,-0.489 0.371,-0.47C0.399,-0.451 0.421,-0.424 0.436,-0.39C0.451,-0.356 0.458,-0.316 0.458,-0.27C0.458,-0.262 0.458,-0.253 0.457,-0.245C0.457,-0.237 0.456,-0.229 0.454,-0.221L0.104,-0.221L0.104,-0.286L0.384,-0.286C0.384,-0.333 0.374,-0.369 0.354,-0.394C0.333,-0.419 0.304,-0.431 0.266,-0.431C0.244,-0.431 0.222,-0.425 0.201,-0.413C0.18,-0.4 0.162,-0.38 0.148,-0.353C0.135,-0.325 0.128,-0.289 0.128,-0.244C0.128,-0.202 0.135,-0.168 0.149,-0.14C0.164,-0.112 0.183,-0.091 0.208,-0.077C0.233,-0.062 0.26,-0.055 0.289,-0.055C0.312,-0.055 0.334,-0.059 0.354,-0.065C0.375,-0.072 0.393,-0.08 0.41,-0.092L0.44,-0.038C0.419,-0.023 0.395,-0.011 0.369,-0.002C0.342,0.007 0.312,0.012 0.279,0.012Z" style="fill-rule:nonzero;"/>
            </g>
            <g transform="matrix(75,0,0,75,1209.73,520.906)">
            </g>
        </g>
        <g transform="matrix(1,0,0,1,623.261,6.58265)">
            <g transform="matrix(75,0,0,75,957.026,520.906)">
                <path d="M0.194,0.012C0.167,0.012 0.143,0.007 0.121,-0.004C0.1,-0.015 0.083,-0.031 0.07,-0.051C0.058,-0.072 0.051,-0.097 0.051,-0.126C0.051,-0.181 0.075,-0.222 0.123,-0.25C0.171,-0.278 0.247,-0.298 0.351,-0.309C0.351,-0.329 0.348,-0.349 0.342,-0.367C0.336,-0.385 0.326,-0.4 0.311,-0.412C0.297,-0.423 0.276,-0.429 0.25,-0.429C0.222,-0.429 0.196,-0.424 0.171,-0.413C0.146,-0.403 0.124,-0.392 0.105,-0.379L0.073,-0.435C0.088,-0.445 0.105,-0.455 0.125,-0.465C0.145,-0.475 0.166,-0.483 0.19,-0.489C0.213,-0.495 0.238,-0.498 0.264,-0.498C0.304,-0.498 0.336,-0.49 0.36,-0.473C0.385,-0.457 0.403,-0.434 0.415,-0.404C0.427,-0.374 0.433,-0.338 0.433,-0.298L0.433,-0L0.365,-0L0.358,-0.058L0.355,-0.058C0.331,-0.039 0.306,-0.022 0.28,-0.009C0.253,0.005 0.225,0.012 0.194,0.012ZM0.217,-0.056C0.241,-0.056 0.263,-0.062 0.284,-0.072C0.305,-0.083 0.327,-0.098 0.351,-0.119L0.351,-0.25C0.296,-0.244 0.253,-0.235 0.221,-0.224C0.189,-0.214 0.167,-0.201 0.153,-0.186C0.139,-0.17 0.132,-0.152 0.132,-0.132C0.132,-0.105 0.141,-0.085 0.157,-0.074C0.174,-0.062 0.194,-0.056 0.217,-0.056Z" style="fill-rule:nonzero;"/>
            </g>
            <g transform="matrix(75,0,0,75,994.856,520.906)">
                <path d="M0.246,0.224C0.207,0.224 0.172,0.219 0.141,0.208C0.111,0.198 0.087,0.183 0.071,0.164C0.054,0.145 0.045,0.121 0.045,0.093C0.045,0.072 0.051,0.052 0.064,0.034C0.077,0.015 0.094,-0.002 0.116,-0.017L0.116,-0.021C0.104,-0.029 0.094,-0.039 0.086,-0.052C0.077,-0.065 0.073,-0.081 0.073,-0.1C0.073,-0.12 0.079,-0.138 0.09,-0.154C0.102,-0.17 0.114,-0.182 0.126,-0.19L0.126,-0.194C0.111,-0.207 0.096,-0.225 0.083,-0.248C0.07,-0.271 0.063,-0.296 0.063,-0.325C0.063,-0.36 0.072,-0.391 0.089,-0.417C0.105,-0.443 0.128,-0.463 0.155,-0.477C0.183,-0.491 0.213,-0.498 0.246,-0.498C0.259,-0.498 0.272,-0.497 0.284,-0.495C0.296,-0.493 0.306,-0.49 0.315,-0.486L0.484,-0.486L0.484,-0.423L0.383,-0.423L0.383,-0.419C0.395,-0.408 0.404,-0.395 0.412,-0.379C0.42,-0.363 0.424,-0.344 0.424,-0.322C0.424,-0.288 0.416,-0.258 0.4,-0.233C0.384,-0.208 0.363,-0.188 0.336,-0.175C0.309,-0.161 0.279,-0.154 0.246,-0.154C0.234,-0.154 0.222,-0.156 0.209,-0.159C0.197,-0.161 0.185,-0.165 0.173,-0.171C0.165,-0.163 0.158,-0.156 0.152,-0.147C0.146,-0.138 0.143,-0.127 0.143,-0.113C0.143,-0.098 0.149,-0.085 0.161,-0.075C0.173,-0.065 0.195,-0.061 0.228,-0.061L0.322,-0.061C0.379,-0.061 0.422,-0.051 0.45,-0.033C0.478,-0.014 0.492,0.015 0.492,0.056C0.492,0.086 0.482,0.113 0.462,0.139C0.442,0.164 0.413,0.185 0.377,0.2C0.34,0.216 0.296,0.224 0.246,0.224ZM0.246,-0.209C0.265,-0.209 0.282,-0.214 0.297,-0.224C0.313,-0.233 0.325,-0.246 0.335,-0.264C0.344,-0.281 0.349,-0.301 0.349,-0.325C0.349,-0.361 0.339,-0.389 0.319,-0.409C0.299,-0.429 0.275,-0.438 0.246,-0.438C0.217,-0.438 0.193,-0.429 0.173,-0.409C0.153,-0.389 0.143,-0.361 0.143,-0.325C0.143,-0.301 0.147,-0.281 0.157,-0.264C0.166,-0.246 0.179,-0.233 0.195,-0.224C0.21,-0.214 0.227,-0.209 0.246,-0.209ZM0.258,0.167C0.289,0.167 0.316,0.162 0.339,0.153C0.361,0.144 0.379,0.131 0.392,0.116C0.405,0.101 0.412,0.085 0.412,0.068C0.412,0.045 0.403,0.03 0.386,0.021C0.37,0.012 0.345,0.008 0.314,0.008L0.23,0.008C0.221,0.008 0.211,0.007 0.2,0.006C0.189,0.005 0.178,0.003 0.167,0C0.149,0.013 0.137,0.026 0.129,0.04C0.121,0.054 0.117,0.068 0.117,0.082C0.117,0.108 0.129,0.129 0.155,0.144C0.18,0.159 0.214,0.167 0.258,0.167Z" style="fill-rule:nonzero;"/>
            </g>
            <g transform="matrix(75,0,0,75,1031.63,520.906)">
                <path d="M0.279,0.012C0.236,0.012 0.196,0.002 0.161,-0.018C0.125,-0.039 0.097,-0.068 0.076,-0.106C0.056,-0.143 0.045,-0.189 0.045,-0.243C0.045,-0.296 0.056,-0.341 0.077,-0.379C0.098,-0.417 0.125,-0.447 0.159,-0.467C0.192,-0.488 0.228,-0.498 0.265,-0.498C0.306,-0.498 0.342,-0.489 0.371,-0.47C0.399,-0.451 0.421,-0.424 0.436,-0.39C0.451,-0.356 0.458,-0.316 0.458,-0.27C0.458,-0.262 0.458,-0.253 0.457,-0.245C0.457,-0.237 0.456,-0.229 0.454,-0.221L0.104,-0.221L0.104,-0.286L0.384,-0.286C0.384,-0.333 0.374,-0.369 0.354,-0.394C0.333,-0.419 0.304,-0.431 0.266,-0.431C0.244,-0.431 0.222,-0.425 0.201,-0.413C0.18,-0.4 0.162,-0.38 0.148,-0.353C0.135,-0.325 0.128,-0.289 0.128,-0.244C0.128,-0.202 0.135,-0.168 0.149,-0.14C0.164,-0.112 0.183,-0.091 0.208,-0.077C0.233,-0.062 0.26,-0.055 0.289,-0.055C0.312,-0.055 0.334,-0.059 0.354,-0.065C0.375,-0.072 0.393,-0.08 0.41,-0.092L0.44,-0.038C0.419,-0.023 0.395,-0.011 0.369,-0.002C0.342,0.007 0.312,0.012 0.279,0.012Z" style="fill-rule:nonzero;"/>
            </g>
            <g transform="matrix(75,0,0,75,1068.81,520.906)">
            </g>
        </g>
        <g transform="matrix(1,0,0,1,494.96,420.959)">
            <g transform="matrix(75,0,0,75,883.721,520.906)">
                <path d="M0.209,0.012C0.174,0.012 0.14,0.006 0.109,-0.007C0.077,-0.019 0.05,-0.036 0.028,-0.058L0.066,-0.106C0.087,-0.088 0.109,-0.075 0.132,-0.066C0.155,-0.057 0.182,-0.052 0.212,-0.052C0.244,-0.052 0.268,-0.06 0.284,-0.074C0.3,-0.089 0.308,-0.107 0.308,-0.128C0.308,-0.144 0.302,-0.158 0.292,-0.169C0.281,-0.18 0.267,-0.19 0.251,-0.197C0.234,-0.205 0.216,-0.212 0.198,-0.219C0.174,-0.228 0.151,-0.238 0.129,-0.25C0.107,-0.261 0.089,-0.276 0.076,-0.294C0.062,-0.311 0.055,-0.334 0.055,-0.36C0.055,-0.399 0.07,-0.432 0.099,-0.459C0.129,-0.485 0.17,-0.498 0.223,-0.498C0.253,-0.498 0.281,-0.493 0.307,-0.483C0.333,-0.473 0.355,-0.459 0.374,-0.443L0.336,-0.396C0.319,-0.408 0.301,-0.417 0.283,-0.424C0.265,-0.431 0.245,-0.434 0.223,-0.434C0.193,-0.434 0.17,-0.427 0.156,-0.413C0.141,-0.399 0.134,-0.383 0.134,-0.364C0.134,-0.349 0.138,-0.337 0.147,-0.327C0.156,-0.318 0.168,-0.309 0.184,-0.302C0.199,-0.295 0.217,-0.288 0.237,-0.281C0.262,-0.271 0.287,-0.261 0.31,-0.249C0.332,-0.238 0.351,-0.223 0.365,-0.205C0.38,-0.186 0.387,-0.162 0.387,-0.133C0.387,-0.106 0.38,-0.082 0.366,-0.06C0.353,-0.038 0.333,-0.021 0.306,-0.008C0.28,0.005 0.248,0.012 0.209,0.012Z" style="fill-rule:nonzero;"/>
            </g>
            <g transform="matrix(75,0,0,75,915.156,520.906)">
                <path d="M0.082,-0L0.082,-0.712L0.164,-0.712L0.164,-0.231L0.166,-0.231L0.372,-0.486L0.464,-0.486L0.302,-0.29L0.486,-0L0.396,-0L0.254,-0.234L0.164,-0.128L0.164,-0L0.082,-0Z" style="fill-rule:nonzero;"/>
            </g>
            <g transform="matrix(75,0,0,75,952.257,520.906)">
                <path d="M0.082,-0L0.082,-0.486L0.164,-0.486L0.164,-0L0.082,-0ZM0.123,-0.586C0.107,-0.586 0.094,-0.591 0.084,-0.601C0.073,-0.611 0.068,-0.624 0.068,-0.64C0.068,-0.656 0.073,-0.669 0.084,-0.679C0.094,-0.689 0.107,-0.694 0.123,-0.694C0.139,-0.694 0.152,-0.689 0.163,-0.679C0.173,-0.669 0.178,-0.656 0.178,-0.64C0.178,-0.624 0.173,-0.611 0.163,-0.601C0.152,-0.591 0.139,-0.586 0.123,-0.586Z" style="fill-rule:nonzero;"/>
            </g>
            <g transform="matrix(75,0,0,75,970.729,520.906)">
                <path d="M0.169,0.009C0.149,0.009 0.132,0.005 0.119,-0.003C0.106,-0.012 0.097,-0.024 0.091,-0.04C0.085,-0.057 0.082,-0.077 0.082,-0.1L0.082,-0.712L0.164,-0.712L0.164,-0.094C0.164,-0.081 0.166,-0.072 0.171,-0.067C0.176,-0.062 0.182,-0.059 0.188,-0.059C0.191,-0.059 0.193,-0.059 0.196,-0.06C0.198,-0.06 0.201,-0.061 0.205,-0.061L0.217,0.001C0.211,0.003 0.204,0.005 0.196,0.007C0.188,0.008 0.179,0.009 0.169,0.009Z" style="fill-rule:nonzero;"/>
            </g>
            <g transform="matrix(75,0,0,75,989.865,520.906)">
                <path d="M0.169,0.009C0.149,0.009 0.132,0.005 0.119,-0.003C0.106,-0.012 0.097,-0.024 0.091,-0.04C0.085,-0.057 0.082,-0.077 0.082,-0.1L0.082,-0.712L0.164,-0.712L0.164,-0.094C0.164,-0.081 0.166,-0.072 0.171,-0.067C0.176,-0.062 0.182,-0.059 0.188,-0.059C0.191,-0.059 0.193,-0.059 0.196,-0.06C0.198,-0.06 0.201,-0.061 0.205,-0.061L0.217,0.001C0.211,0.003 0.204,0.005 0.196,0.007C0.188,0.008 0.179,0.009 0.169,0.009Z" style="fill-rule:nonzero;"/>
            </g>
            <g transform="matrix(75,0,0,75,1009,520.906)">
            </g>
        </g>
        <g transform="matrix(1,0,0,1,837.888,246.534)">
            <g transform="matrix(1,-0,-0,1,-919.815,-172.433)">
                <path d="M1515.24,726.439L1488.02,761.256L1453.2,734.037" style="fill:none;stroke:black;stroke-width:8.33px;stroke-linejoin:miter;stroke-miterlimit:10;"/>
                <path d="M1626.23,445.254C1532.49,445.254 1470.42,609.037 1488.02,761.256" style="fill:none;stroke:black;stroke-width:8.33px;"/>
            </g>
        </g>
        <g transform="matrix(-0.148286,-0.988944,-0.988944,0.148286,2308.96,1351.06)">
            <g transform="matrix(-0.148286,-0.988944,-0.988944,0.148286,1617.38,2175.1)">
                <path d="M1690.26,880.141L1659.02,848.876L1690.29,817.641" style="fill:none;stroke:black;stroke-width:8.33px;stroke-linejoin:miter;stroke-miterlimit:10;"/>
                <path d="M2009.8,761.539C2009.8,852.497 1793.94,848.997 1659.02,848.876" style="fill:none;stroke:black;stroke-width:8.33px;"/>
            </g>
        </g>
    </g>
    <g transform="matrix(1,0,0,1,-40.1119,-9.82743)">
        <g transform="matrix(1,0,0,1.072,-15.9774,-22.4321)">
            <path d="M1152.02,231.488L1152.02,634.278C1152.02,745.431 1055.29,835.673 936.129,835.673L271.985,835.673C152.829,835.673 56.089,745.431 56.089,634.278L56.089,231.488C56.089,120.335 152.829,30.093 271.985,30.093L936.129,30.093C1055.29,30.093 1152.02,120.335 1152.02,231.488Z" style="fill:rgb(241,215,211);"/>
        </g>
        <g>
            <g transform="matrix(1,0,0,1,-232.521,18.0686)">
                <g transform="matrix(75,0,0,75,806.072,520.906)">
                    <path d="M0.209,0.012C0.174,0.012 0.14,0.006 0.109,-0.007C0.077,-0.019 0.05,-0.036 0.028,-0.058L0.066,-0.106C0.087,-0.088 0.109,-0.075 0.132,-0.066C0.155,-0.057 0.182,-0.052 0.212,-0.052C0.244,-0.052 0.268,-0.06 0.284,-0.074C0.3,-0.089 0.308,-0.107 0.308,-0.128C0.308,-0.144 0.302,-0.158 0.292,-0.169C0.281,-0.18 0.267,-0.19 0.251,-0.197C0.234,-0.205 0.216,-0.212 0.198,-0.219C0.174,-0.228 0.151,-0.238 0.129,-0.25C0.107,-0.261 0.089,-0.276 0.076,-0.294C0.062,-0.311 0.055,-0.334 0.055,-0.36C0.055,-0.399 0.07,-0.432 0.099,-0.459C0.129,-0.485 0.17,-0.498 0.223,-0.498C0.253,-0.498 0.281,-0.493 0.307,-0.483C0.333,-0.473 0.355,-0.459 0.374,-0.443L0.336,-0.396C0.319,-0.408 0.301,-0.417 0.283,-0.424C0.265,-0.431 0.245,-0.434 0.223,-0.434C0.193,-0.434 0.17,-0.427 0.156,-0.413C0.141,-0.399 0.134,-0.383 0.134,-0.364C0.134,-0.349 0.138,-0.337 0.147,-0.327C0.156,-0.318 0.168,-0.309 0.184,-0.302C0.199,-0.295 0.217,-0.288 0.237,-0.281C0.262,-0.271 0.287,-0.261 0.31,-0.249C0.332,-0.238 0.351,-0.223 0.365,-0.205C0.38,-0.186 0.387,-0.162 0.387,-0.133C0.387,-0.106 0.38,-0.082 0.366,-0.06C0.353,-0.038 0.333,-0.021 0.306,-0.008C0.28,0.005 0.248,0.012 0.209,0.012Z" style="fill-rule:nonzero;"/>
                </g>
                <g transform="matrix(75,0,0,75,837.507,520.906)">
                    <path d="M0.39,0.205L0.39,0.032L0.394,-0.056C0.375,-0.037 0.353,-0.021 0.328,-0.008C0.303,0.005 0.276,0.012 0.248,0.012C0.187,0.012 0.138,-0.01 0.102,-0.055C0.066,-0.099 0.047,-0.162 0.047,-0.242C0.047,-0.295 0.057,-0.34 0.077,-0.378C0.097,-0.417 0.122,-0.446 0.154,-0.467C0.186,-0.488 0.221,-0.498 0.258,-0.498C0.286,-0.498 0.311,-0.493 0.332,-0.483C0.354,-0.473 0.375,-0.459 0.397,-0.44L0.399,-0.44L0.407,-0.486L0.473,-0.486L0.473,0.205L0.39,0.205ZM0.266,-0.057C0.288,-0.057 0.31,-0.063 0.33,-0.074C0.35,-0.085 0.37,-0.102 0.39,-0.124L0.39,-0.378C0.37,-0.397 0.35,-0.41 0.331,-0.418C0.312,-0.425 0.292,-0.429 0.272,-0.429C0.246,-0.429 0.223,-0.421 0.202,-0.406C0.181,-0.39 0.164,-0.369 0.151,-0.341C0.139,-0.313 0.132,-0.28 0.132,-0.243C0.132,-0.185 0.144,-0.139 0.167,-0.107C0.19,-0.074 0.223,-0.057 0.266,-0.057Z" style="fill-rule:nonzero;"/>
                </g>
                <g transform="matrix(75,0,0,75,879.111,520.906)">
                    <path d="M0.224,0.012C0.173,0.012 0.135,-0.004 0.112,-0.036C0.088,-0.069 0.076,-0.116 0.076,-0.178L0.076,-0.486L0.158,-0.486L0.158,-0.189C0.158,-0.143 0.165,-0.111 0.18,-0.09C0.194,-0.07 0.217,-0.06 0.249,-0.06C0.274,-0.06 0.296,-0.066 0.316,-0.079C0.335,-0.092 0.357,-0.113 0.38,-0.141L0.38,-0.486L0.462,-0.486L0.462,-0L0.394,-0L0.387,-0.076L0.384,-0.076C0.362,-0.049 0.338,-0.028 0.312,-0.012C0.287,0.004 0.257,0.012 0.224,0.012Z" style="fill-rule:nonzero;"/>
                </g>
                <g transform="matrix(75,0,0,75,919.883,520.906)">
                    <path d="M0.194,0.012C0.167,0.012 0.143,0.007 0.121,-0.004C0.1,-0.015 0.083,-0.031 0.07,-0.051C0.058,-0.072 0.051,-0.097 0.051,-0.126C0.051,-0.181 0.075,-0.222 0.123,-0.25C0.171,-0.278 0.247,-0.298 0.351,-0.309C0.351,-0.329 0.348,-0.349 0.342,-0.367C0.336,-0.385 0.326,-0.4 0.311,-0.412C0.297,-0.423 0.276,-0.429 0.25,-0.429C0.222,-0.429 0.196,-0.424 0.171,-0.413C0.146,-0.403 0.124,-0.392 0.105,-0.379L0.073,-0.435C0.088,-0.445 0.105,-0.455 0.125,-0.465C0.145,-0.475 0.166,-0.483 0.19,-0.489C0.213,-0.495 0.238,-0.498 0.264,-0.498C0.304,-0.498 0.336,-0.49 0.36,-0.473C0.385,-0.457 0.403,-0.434 0.415,-0.404C0.427,-0.374 0.433,-0.338 0.433,-0.298L0.433,-0L0.365,-0L0.358,-0.058L0.355,-0.058C0.331,-0.039 0.306,-0.022 0.28,-0.009C0.253,0.005 0.225,0.012 0.194,0.012ZM0.217,-0.056C0.241,-0.056 0.263,-0.062 0.284,-0.072C0.305,-0.083 0.327,-0.098 0.351,-0.119L0.351,-0.25C0.296,-0.244 0.253,-0.235 0.221,-0.224C0.189,-0.214 0.167,-0.201 0.153,-0.186C0.139,-0.17 0.132,-0.152 0.132,-0.132C0.132,-0.105 0.141,-0.085 0.157,-0.074C0.174,-0.062 0.194,-0.056 0.217,-0.056Z" style="fill-rule:nonzero;"/>
                </g>
                <g transform="matrix(75,0,0,75,957.713,520.906)">
                    <path d="M0.082,-0L0.082,-0.486L0.15,-0.486L0.157,-0.398L0.16,-0.398C0.176,-0.429 0.196,-0.453 0.22,-0.471C0.244,-0.489 0.27,-0.498 0.298,-0.498C0.309,-0.498 0.318,-0.497 0.326,-0.496C0.334,-0.494 0.342,-0.492 0.35,-0.488L0.332,-0.418C0.325,-0.42 0.318,-0.421 0.312,-0.422C0.305,-0.423 0.297,-0.424 0.287,-0.424C0.267,-0.424 0.245,-0.416 0.223,-0.399C0.2,-0.383 0.181,-0.354 0.164,-0.312L0.164,-0L0.082,-0Z" style="fill-rule:nonzero;"/>
                </g>
                <g transform="matrix(75,0,0,75,983.004,520.906)">
                    <path d="M0.279,0.012C0.236,0.012 0.196,0.002 0.161,-0.018C0.125,-0.039 0.097,-0.068 0.076,-0.106C0.056,-0.143 0.045,-0.189 0.045,-0.243C0.045,-0.296 0.056,-0.341 0.077,-0.379C0.098,-0.417 0.125,-0.447 0.159,-0.467C0.192,-0.488 0.228,-0.498 0.265,-0.498C0.306,-0.498 0.342,-0.489 0.371,-0.47C0.399,-0.451 0.421,-0.424 0.436,-0.39C0.451,-0.356 0.458,-0.316 0.458,-0.27C0.458,-0.262 0.458,-0.253 0.457,-0.245C0.457,-0.237 0.456,-0.229 0.454,-0.221L0.104,-0.221L0.104,-0.286L0.384,-0.286C0.384,-0.333 0.374,-0.369 0.354,-0.394C0.333,-0.419 0.304,-0.431 0.266,-0.431C0.244,-0.431 0.222,-0.425 0.201,-0.413C0.18,-0.4 0.162,-0.38 0.148,-0.353C0.135,-0.325 0.128,-0.289 0.128,-0.244C0.128,-0.202 0.135,-0.168 0.149,-0.14C0.164,-0.112 0.183,-0.091 0.208,-0.077C0.233,-0.062 0.26,-0.055 0.289,-0.055C0.312,-0.055 0.334,-0.059 0.354,-0.065C0.375,-0.072 0.393,-0.08 0.41,-0.092L0.44,-0.038C0.419,-0.023 0.395,-0.011 0.369,-0.002C0.342,0.007 0.312,0.012 0.279,0.012Z" style="fill-rule:nonzero;"/>
                </g>
                <g transform="matrix(75,0,0,75,1020.19,520.906)">
                </g>
                <g transform="matrix(75,0,0,75,1035.19,520.906)">
                    <path d="M0.096,-0L0.096,-0.563C0.096,-0.596 0.101,-0.625 0.111,-0.649C0.121,-0.673 0.137,-0.691 0.158,-0.705C0.179,-0.718 0.205,-0.724 0.238,-0.724C0.253,-0.724 0.267,-0.723 0.282,-0.72C0.296,-0.717 0.308,-0.713 0.319,-0.708L0.301,-0.648C0.282,-0.654 0.264,-0.657 0.246,-0.657C0.224,-0.657 0.206,-0.649 0.195,-0.633C0.184,-0.618 0.178,-0.594 0.178,-0.563L0.178,-0L0.096,-0ZM0.024,-0.419L0.024,-0.481L0.1,-0.486L0.281,-0.486L0.281,-0.419L0.024,-0.419Z" style="fill-rule:nonzero;"/>
                </g>
                <g transform="matrix(75,0,0,75,1056.32,520.906)">
                    <path d="M0.271,0.012C0.231,0.012 0.194,0.002 0.16,-0.018C0.126,-0.038 0.098,-0.067 0.077,-0.105C0.056,-0.143 0.046,-0.189 0.046,-0.242C0.046,-0.296 0.056,-0.343 0.077,-0.381C0.098,-0.419 0.126,-0.448 0.16,-0.468C0.194,-0.488 0.231,-0.498 0.271,-0.498C0.311,-0.498 0.348,-0.488 0.382,-0.468C0.416,-0.448 0.444,-0.419 0.465,-0.381C0.486,-0.343 0.496,-0.296 0.496,-0.242C0.496,-0.189 0.486,-0.143 0.465,-0.105C0.444,-0.067 0.416,-0.038 0.382,-0.018C0.348,0.002 0.311,0.012 0.271,0.012ZM0.271,-0.056C0.299,-0.056 0.324,-0.064 0.345,-0.08C0.366,-0.095 0.382,-0.117 0.394,-0.145C0.406,-0.173 0.411,-0.205 0.411,-0.242C0.411,-0.28 0.406,-0.312 0.394,-0.34C0.382,-0.368 0.366,-0.39 0.345,-0.406C0.324,-0.422 0.299,-0.43 0.271,-0.43C0.243,-0.43 0.219,-0.422 0.198,-0.406C0.177,-0.39 0.16,-0.368 0.149,-0.34C0.137,-0.312 0.131,-0.28 0.131,-0.242C0.131,-0.205 0.137,-0.173 0.149,-0.145C0.16,-0.117 0.177,-0.095 0.198,-0.08C0.219,-0.064 0.243,-0.056 0.271,-0.056Z" style="fill-rule:nonzero;"/>
                </g>
                <g transform="matrix(75,0,0,75,1096.99,520.906)">
                    <path d="M0.271,0.012C0.231,0.012 0.194,0.002 0.16,-0.018C0.126,-0.038 0.098,-0.067 0.077,-0.105C0.056,-0.143 0.046,-0.189 0.046,-0.242C0.046,-0.296 0.056,-0.343 0.077,-0.381C0.098,-0.419 0.126,-0.448 0.16,-0.468C0.194,-0.488 0.231,-0.498 0.271,-0.498C0.311,-0.498 0.348,-0.488 0.382,-0.468C0.416,-0.448 0.444,-0.419 0.465,-0.381C0.486,-0.343 0.496,-0.296 0.496,-0.242C0.496,-0.189 0.486,-0.143 0.465,-0.105C0.444,-0.067 0.416,-0.038 0.382,-0.018C0.348,0.002 0.311,0.012 0.271,0.012ZM0.271,-0.056C0.299,-0.056 0.324,-0.064 0.345,-0.08C0.366,-0.095 0.382,-0.117 0.394,-0.145C0.406,-0.173 0.411,-0.205 0.411,-0.242C0.411,-0.28 0.406,-0.312 0.394,-0.34C0.382,-0.368 0.366,-0.39 0.345,-0.406C0.324,-0.422 0.299,-0.43 0.271,-0.43C0.243,-0.43 0.219,-0.422 0.198,-0.406C0.177,-0.39 0.16,-0.368 0.149,-0.34C0.137,-0.312 0.131,-0.28 0.131,-0.242C0.131,-0.205 0.137,-0.173 0.149,-0.145C0.16,-0.117 0.177,-0.095 0.198,-0.08C0.219,-0.064 0.243,-0.056 0.271,-0.056Z" style="fill-rule:nonzero;"/>
                </g>
                <g transform="matrix(75,0,0,75,1136.39,520.906)">
                    <path d="M0.235,0.009C0.183,0.009 0.147,-0.006 0.127,-0.036C0.106,-0.066 0.096,-0.105 0.096,-0.153L0.096,-0.419L0.024,-0.419L0.024,-0.481L0.1,-0.486L0.11,-0.642L0.179,-0.642L0.179,-0.486L0.311,-0.486L0.311,-0.419L0.179,-0.419L0.179,-0.152C0.179,-0.122 0.184,-0.099 0.196,-0.083C0.207,-0.066 0.226,-0.058 0.254,-0.058C0.263,-0.058 0.272,-0.059 0.281,-0.061C0.29,-0.062 0.299,-0.066 0.309,-0.07L0.327,-0.012C0.314,-0.006 0.3,-0.001 0.284,0.003C0.268,0.007 0.252,0.009 0.235,0.009Z" style="fill-rule:nonzero;"/>
                </g>
                <g transform="matrix(75,0,0,75,1160.18,520.906)">
                    <path d="M0.194,0.012C0.167,0.012 0.143,0.007 0.121,-0.004C0.1,-0.015 0.083,-0.031 0.07,-0.051C0.058,-0.072 0.051,-0.097 0.051,-0.126C0.051,-0.181 0.075,-0.222 0.123,-0.25C0.171,-0.278 0.247,-0.298 0.351,-0.309C0.351,-0.329 0.348,-0.349 0.342,-0.367C0.336,-0.385 0.326,-0.4 0.311,-0.412C0.297,-0.423 0.276,-0.429 0.25,-0.429C0.222,-0.429 0.196,-0.424 0.171,-0.413C0.146,-0.403 0.124,-0.392 0.105,-0.379L0.073,-0.435C0.088,-0.445 0.105,-0.455 0.125,-0.465C0.145,-0.475 0.166,-0.483 0.19,-0.489C0.213,-0.495 0.238,-0.498 0.264,-0.498C0.304,-0.498 0.336,-0.49 0.36,-0.473C0.385,-0.457 0.403,-0.434 0.415,-0.404C0.427,-0.374 0.433,-0.338 0.433,-0.298L0.433,-0L0.365,-0L0.358,-0.058L0.355,-0.058C0.331,-0.039 0.306,-0.022 0.28,-0.009C0.253,0.005 0.225,0.012 0.194,0.012ZM0.217,-0.056C0.241,-0.056 0.263,-0.062 0.284,-0.072C0.305,-0.083 0.327,-0.098 0.351,-0.119L0.351,-0.25C0.296,-0.244 0.253,-0.235 0.221,-0.224C0.189,-0.214 0.167,-0.201 0.153,-0.186C0.139,-0.17 0.132,-0.152 0.132,-0.132C0.132,-0.105 0.141,-0.085 0.157,-0.074C0.174,-0.062 0.194,-0.056 0.217,-0.056Z" style="fill-rule:nonzero;"/>
                </g>
                <g transform="matrix(75,0,0,75,1198.01,520.906)">
                    <path d="M0.246,0.224C0.207,0.224 0.172,0.219 0.141,0.208C0.111,0.198 0.087,0.183 0.071,0.164C0.054,0.145 0.045,0.121 0.045,0.093C0.045,0.072 0.051,0.052 0.064,0.034C0.077,0.015 0.094,-0.002 0.116,-0.017L0.116,-0.021C0.104,-0.029 0.094,-0.039 0.086,-0.052C0.077,-0.065 0.073,-0.081 0.073,-0.1C0.073,-0.12 0.079,-0.138 0.09,-0.154C0.102,-0.17 0.114,-0.182 0.126,-0.19L0.126,-0.194C0.111,-0.207 0.096,-0.225 0.083,-0.248C0.07,-0.271 0.063,-0.296 0.063,-0.325C0.063,-0.36 0.072,-0.391 0.089,-0.417C0.105,-0.443 0.128,-0.463 0.155,-0.477C0.183,-0.491 0.213,-0.498 0.246,-0.498C0.259,-0.498 0.272,-0.497 0.284,-0.495C0.296,-0.493 0.306,-0.49 0.315,-0.486L0.484,-0.486L0.484,-0.423L0.383,-0.423L0.383,-0.419C0.395,-0.408 0.404,-0.395 0.412,-0.379C0.42,-0.363 0.424,-0.344 0.424,-0.322C0.424,-0.288 0.416,-0.258 0.4,-0.233C0.384,-0.208 0.363,-0.188 0.336,-0.175C0.309,-0.161 0.279,-0.154 0.246,-0.154C0.234,-0.154 0.222,-0.156 0.209,-0.159C0.197,-0.161 0.185,-0.165 0.173,-0.171C0.165,-0.163 0.158,-0.156 0.152,-0.147C0.146,-0.138 0.143,-0.127 0.143,-0.113C0.143,-0.098 0.149,-0.085 0.161,-0.075C0.173,-0.065 0.195,-0.061 0.228,-0.061L0.322,-0.061C0.379,-0.061 0.422,-0.051 0.45,-0.033C0.478,-0.014 0.492,0.015 0.492,0.056C0.492,0.086 0.482,0.113 0.462,0.139C0.442,0.164 0.413,0.185 0.377,0.2C0.34,0.216 0.296,0.224 0.246,0.224ZM0.246,-0.209C0.265,-0.209 0.282,-0.214 0.297,-0.224C0.313,-0.233 0.325,-0.246 0.335,-0.264C0.344,-0.281 0.349,-0.301 0.349,-0.325C0.349,-0.361 0.339,-0.389 0.319,-0.409C0.299,-0.429 0.275,-0.438 0.246,-0.438C0.217,-0.438 0.193,-0.429 0.173,-0.409C0.153,-0.389 0.143,-0.361 0.143,-0.325C0.143,-0.301 0.147,-0.281 0.157,-0.264C0.166,-0.246 0.179,-0.233 0.195,-0.224C0.21,-0.214 0.227,-0.209 0.246,-0.209ZM0.258,0.167C0.289,0.167 0.316,0.162 0.339,0.153C0.361,0.144 0.379,0.131 0.392,0.116C0.405,0.101 0.412,0.085 0.412,0.068C0.412,0.045 0.403,0.03 0.386,0.021C0.37,0.012 0.345,0.008 0.314,0.008L0.23,0.008C0.221,0.008 0.211,0.007 0.2,0.006C0.189,0.005 0.178,0.003 0.167,0C0.149,0.013 0.137,0.026 0.129,0.04C0.121,0.054 0.117,0.068 0.117,0.082C0.117,0.108 0.129,0.129 0.155,0.144C0.18,0.159 0.214,0.167 0.258,0.167Z" style="fill-rule:nonzero;"/>
                </g>
                <g transform="matrix(75,0,0,75,1234.78,520.906)">
                    <path d="M0.279,0.012C0.236,0.012 0.196,0.002 0.161,-0.018C0.125,-0.039 0.097,-0.068 0.076,-0.106C0.056,-0.143 0.045,-0.189 0.045,-0.243C0.045,-0.296 0.056,-0.341 0.077,-0.379C0.098,-0.417 0.125,-0.447 0.159,-0.467C0.192,-0.488 0.228,-0.498 0.265,-0.498C0.306,-0.498 0.342,-0.489 0.371,-0.47C0.399,-0.451 0.421,-0.424 0.436,-0.39C0.451,-0.356 0.458,-0.316 0.458,-0.27C0.458,-0.262 0.458,-0.253 0.457,-0.245C0.457,-0.237 0.456,-0.229 0.454,-0.221L0.104,-0.221L0.104,-0.286L0.384,-0.286C0.384,-0.333 0.374,-0.369 0.354,-0.394C0.333,-0.419 0.304,-0.431 0.266,-0.431C0.244,-0.431 0.222,-0.425 0.201,-0.413C0.18,-0.4 0.162,-0.38 0.148,-0.353C0.135,-0.325 0.128,-0.289 0.128,-0.244C0.128,-0.202 0.135,-0.168 0.149,-0.14C0.164,-0.112 0.183,-0.091 0.208,-0.077C0.233,-0.062 0.26,-0.055 0.289,-0.055C0.312,-0.055 0.334,-0.059 0.354,-0.065C0.375,-0.072 0.393,-0.08 0.41,-0.092L0.44,-0.038C0.419,-0.023 0.395,-0.011 0.369,-0.002C0.342,0.007 0.312,0.012 0.279,0.012Z" style="fill-rule:nonzero;"/>
                </g>
                <g transform="matrix(75,0,0,75,1271.96,520.906)">
                </g>
            </g>
            <g transform="matrix(1,0,0,1,-489.239,-282.222)">
                <g transform="matrix(75,0,0,75,820.149,520.906)">
                    <path d="M0.082,-0L0.082,-0.486L0.15,-0.486L0.157,-0.416L0.16,-0.416C0.183,-0.439 0.208,-0.459 0.234,-0.474C0.26,-0.49 0.29,-0.498 0.323,-0.498C0.374,-0.498 0.412,-0.482 0.436,-0.45C0.459,-0.417 0.471,-0.37 0.471,-0.308L0.471,-0L0.389,-0L0.389,-0.297C0.389,-0.343 0.382,-0.376 0.367,-0.396C0.353,-0.416 0.33,-0.427 0.297,-0.427C0.272,-0.427 0.25,-0.42 0.231,-0.408C0.211,-0.395 0.189,-0.377 0.164,-0.352L0.164,-0L0.082,-0Z" style="fill-rule:nonzero;"/>
                </g>
                <g transform="matrix(75,0,0,75,861.144,520.906)">
                    <path d="M0.224,0.012C0.173,0.012 0.135,-0.004 0.112,-0.036C0.088,-0.069 0.076,-0.116 0.076,-0.178L0.076,-0.486L0.158,-0.486L0.158,-0.189C0.158,-0.143 0.165,-0.111 0.18,-0.09C0.194,-0.07 0.217,-0.06 0.249,-0.06C0.274,-0.06 0.296,-0.066 0.316,-0.079C0.335,-0.092 0.357,-0.113 0.38,-0.141L0.38,-0.486L0.462,-0.486L0.462,-0L0.394,-0L0.387,-0.076L0.384,-0.076C0.362,-0.049 0.338,-0.028 0.312,-0.012C0.287,0.004 0.257,0.012 0.224,0.012Z" style="fill-rule:nonzero;"/>
                </g>
                <g transform="matrix(75,0,0,75,901.916,520.906)">
                    <path d="M0.082,-0L0.082,-0.486L0.15,-0.486L0.157,-0.416L0.16,-0.416C0.181,-0.439 0.204,-0.458 0.23,-0.474C0.255,-0.49 0.282,-0.498 0.311,-0.498C0.348,-0.498 0.378,-0.49 0.399,-0.473C0.42,-0.457 0.435,-0.434 0.445,-0.405C0.47,-0.433 0.496,-0.455 0.522,-0.473C0.548,-0.49 0.576,-0.498 0.605,-0.498C0.656,-0.498 0.693,-0.482 0.717,-0.45C0.741,-0.417 0.753,-0.37 0.753,-0.308L0.753,-0L0.671,-0L0.671,-0.297C0.671,-0.343 0.664,-0.376 0.649,-0.396C0.635,-0.416 0.612,-0.427 0.581,-0.427C0.562,-0.427 0.542,-0.421 0.523,-0.408C0.503,-0.396 0.481,-0.377 0.459,-0.352L0.459,-0L0.377,-0L0.377,-0.297C0.377,-0.343 0.369,-0.376 0.355,-0.396C0.34,-0.416 0.317,-0.427 0.286,-0.427C0.25,-0.427 0.209,-0.402 0.164,-0.352L0.164,-0L0.082,-0Z" style="fill-rule:nonzero;"/>
                </g>
                <g transform="matrix(75,0,0,75,964.078,520.906)">
                    <path d="M0.297,0.012C0.274,0.012 0.251,0.007 0.227,-0.005C0.203,-0.016 0.18,-0.031 0.158,-0.05L0.155,-0.05L0.148,-0L0.082,-0L0.082,-0.712L0.164,-0.712L0.164,-0.518L0.162,-0.43C0.184,-0.45 0.208,-0.466 0.234,-0.479C0.261,-0.492 0.287,-0.498 0.314,-0.498C0.356,-0.498 0.391,-0.488 0.42,-0.468C0.449,-0.447 0.471,-0.418 0.485,-0.381C0.5,-0.344 0.507,-0.301 0.507,-0.251C0.507,-0.196 0.497,-0.148 0.478,-0.109C0.458,-0.07 0.432,-0.04 0.4,-0.019C0.368,0.002 0.334,0.012 0.297,0.012ZM0.283,-0.057C0.309,-0.057 0.333,-0.065 0.354,-0.08C0.375,-0.096 0.392,-0.118 0.404,-0.147C0.416,-0.175 0.422,-0.21 0.422,-0.25C0.422,-0.285 0.418,-0.317 0.409,-0.344C0.401,-0.371 0.387,-0.392 0.368,-0.406C0.349,-0.421 0.325,-0.429 0.294,-0.429C0.274,-0.429 0.253,-0.423 0.231,-0.412C0.21,-0.401 0.187,-0.385 0.164,-0.363L0.164,-0.108C0.186,-0.089 0.207,-0.076 0.228,-0.069C0.249,-0.061 0.267,-0.057 0.283,-0.057Z" style="fill-rule:nonzero;"/>
                </g>
                <g transform="matrix(75,0,0,75,1005.59,520.906)">
                    <path d="M0.279,0.012C0.236,0.012 0.196,0.002 0.161,-0.018C0.125,-0.039 0.097,-0.068 0.076,-0.106C0.056,-0.143 0.045,-0.189 0.045,-0.243C0.045,-0.296 0.056,-0.341 0.077,-0.379C0.098,-0.417 0.125,-0.447 0.159,-0.467C0.192,-0.488 0.228,-0.498 0.265,-0.498C0.306,-0.498 0.342,-0.489 0.371,-0.47C0.399,-0.451 0.421,-0.424 0.436,-0.39C0.451,-0.356 0.458,-0.316 0.458,-0.27C0.458,-0.262 0.458,-0.253 0.457,-0.245C0.457,-0.237 0.456,-0.229 0.454,-0.221L0.104,-0.221L0.104,-0.286L0.384,-0.286C0.384,-0.333 0.374,-0.369 0.354,-0.394C0.333,-0.419 0.304,-0.431 0.266,-0.431C0.244,-0.431 0.222,-0.425 0.201,-0.413C0.18,-0.4 0.162,-0.38 0.148,-0.353C0.135,-0.325 0.128,-0.289 0.128,-0.244C0.128,-0.202 0.135,-0.168 0.149,-0.14C0.164,-0.112 0.183,-0.091 0.208,-0.077C0.233,-0.062 0.26,-0.055 0.289,-0.055C0.312,-0.055 0.334,-0.059 0.354,-0.065C0.375,-0.072 0.393,-0.08 0.41,-0.092L0.44,-0.038C0.419,-0.023 0.395,-0.011 0.369,-0.002C0.342,0.007 0.312,0.012 0.279,0.012Z" style="fill-rule:nonzero;"/>
                </g>
                <g transform="matrix(75,0,0,75,1042.77,520.906)">
                    <path d="M0.082,-0L0.082,-0.486L0.15,-0.486L0.157,-0.398L0.16,-0.398C0.176,-0.429 0.196,-0.453 0.22,-0.471C0.244,-0.489 0.27,-0.498 0.298,-0.498C0.309,-0.498 0.318,-0.497 0.326,-0.496C0.334,-0.494 0.342,-0.492 0.35,-0.488L0.332,-0.418C0.325,-0.42 0.318,-0.421 0.312,-0.422C0.305,-0.423 0.297,-0.424 0.287,-0.424C0.267,-0.424 0.245,-0.416 0.223,-0.399C0.2,-0.383 0.181,-0.354 0.164,-0.312L0.164,-0L0.082,-0Z" style="fill-rule:nonzero;"/>
                </g>
                <g transform="matrix(75,0,0,75,1068.81,520.906)">
                </g>
                <g transform="matrix(75,0,0,75,791.176,595.906)">
                    <path d="M0.271,0.012C0.231,0.012 0.194,0.002 0.16,-0.018C0.126,-0.038 0.098,-0.067 0.077,-0.105C0.056,-0.143 0.046,-0.189 0.046,-0.242C0.046,-0.296 0.056,-0.343 0.077,-0.381C0.098,-0.419 0.126,-0.448 0.16,-0.468C0.194,-0.488 0.231,-0.498 0.271,-0.498C0.311,-0.498 0.348,-0.488 0.382,-0.468C0.416,-0.448 0.444,-0.419 0.465,-0.381C0.486,-0.343 0.496,-0.296 0.496,-0.242C0.496,-0.189 0.486,-0.143 0.465,-0.105C0.444,-0.067 0.416,-0.038 0.382,-0.018C0.348,0.002 0.311,0.012 0.271,0.012ZM0.271,-0.056C0.299,-0.056 0.324,-0.064 0.345,-0.08C0.366,-0.095 0.382,-0.117 0.394,-0.145C0.406,-0.173 0.411,-0.205 0.411,-0.242C0.411,-0.28 0.406,-0.312 0.394,-0.34C0.382,-0.368 0.366,-0.39 0.345,-0.406C0.324,-0.422 0.299,-0.43 0.271,-0.43C0.243,-0.43 0.219,-0.422 0.198,-0.406C0.177,-0.39 0.16,-0.368 0.149,-0.34C0.137,-0.312 0.131,-0.28 0.131,-0.242C0.131,-0.205 0.137,-0.173 0.149,-0.145C0.16,-0.117 0.177,-0.095 0.198,-0.08C0.219,-0.064 0.243,-0.056 0.271,-0.056Z" style="fill-rule:nonzero;"/>
                </g>
                <g transform="matrix(75,0,0,75,831.698,595.906)">
                    <path d="M0.096,-0L0.096,-0.563C0.096,-0.596 0.101,-0.625 0.111,-0.649C0.121,-0.673 0.137,-0.691 0.158,-0.705C0.179,-0.718 0.205,-0.724 0.238,-0.724C0.253,-0.724 0.267,-0.723 0.282,-0.72C0.296,-0.717 0.308,-0.713 0.319,-0.708L0.301,-0.648C0.282,-0.654 0.264,-0.657 0.246,-0.657C0.224,-0.657 0.206,-0.649 0.195,-0.633C0.184,-0.618 0.178,-0.594 0.178,-0.563L0.178,-0L0.096,-0ZM0.024,-0.419L0.024,-0.481L0.1,-0.486L0.281,-0.486L0.281,-0.419L0.024,-0.419Z" style="fill-rule:nonzero;"/>
                </g>
                <g transform="matrix(75,0,0,75,853.579,595.906)">
                </g>
                <g transform="matrix(75,0,0,75,868.579,595.906)">
                    <path d="M0.082,-0L0.082,-0.486L0.15,-0.486L0.157,-0.398L0.16,-0.398C0.176,-0.429 0.196,-0.453 0.22,-0.471C0.244,-0.489 0.27,-0.498 0.298,-0.498C0.309,-0.498 0.318,-0.497 0.326,-0.496C0.334,-0.494 0.342,-0.492 0.35,-0.488L0.332,-0.418C0.325,-0.42 0.318,-0.421 0.312,-0.422C0.305,-0.423 0.297,-0.424 0.287,-0.424C0.267,-0.424 0.245,-0.416 0.223,-0.399C0.2,-0.383 0.181,-0.354 0.164,-0.312L0.164,-0L0.082,-0Z" style="fill-rule:nonzero;"/>
                </g>
                <g transform="matrix(75,0,0,75,893.87,595.906)">
                    <path d="M0.271,0.012C0.231,0.012 0.194,0.002 0.16,-0.018C0.126,-0.038 0.098,-0.067 0.077,-0.105C0.056,-0.143 0.046,-0.189 0.046,-0.242C0.046,-0.296 0.056,-0.343 0.077,-0.381C0.098,-0.419 0.126,-0.448 0.16,-0.468C0.194,-0.488 0.231,-0.498 0.271,-0.498C0.311,-0.498 0.348,-0.488 0.382,-0.468C0.416,-0.448 0.444,-0.419 0.465,-0.381C0.486,-0.343 0.496,-0.296 0.496,-0.242C0.496,-0.189 0.486,-0.143 0.465,-0.105C0.444,-0.067 0.416,-0.038 0.382,-0.018C0.348,0.002 0.311,0.012 0.271,0.012ZM0.271,-0.056C0.299,-0.056 0.324,-0.064 0.345,-0.08C0.366,-0.095 0.382,-0.117 0.394,-0.145C0.406,-0.173 0.411,-0.205 0.411,-0.242C0.411,-0.28 0.406,-0.312 0.394,-0.34C0.382,-0.368 0.366,-0.39 0.345,-0.406C0.324,-0.422 0.299,-0.43 0.271,-0.43C0.243,-0.43 0.219,-0.422 0.198,-0.406C0.177,-0.39 0.16,-0.368 0.149,-0.34C0.137,-0.312 0.131,-0.28 0.131,-0.242C0.131,-0.205 0.137,-0.173 0.149,-0.145C0.16,-0.117 0.177,-0.095 0.198,-0.08C0.219,-0.064 0.243,-0.056 0.271,-0.056Z" style="fill-rule:nonzero;"/>
                </g>
                <g transform="matrix(75,0,0,75,934.543,595.906)">
                    <path d="M0.271,0.012C0.231,0.012 0.194,0.002 0.16,-0.018C0.126,-0.038 0.098,-0.067 0.077,-0.105C0.056,-0.143 0.046,-0.189 0.046,-0.242C0.046,-0.296 0.056,-0.343 0.077,-0.381C0.098,-0.419 0.126,-0.448 0.16,-0.468C0.194,-0.488 0.231,-0.498 0.271,-0.498C0.311,-0.498 0.348,-0.488 0.382,-0.468C0.416,-0.448 0.444,-0.419 0.465,-0.381C0.486,-0.343 0.496,-0.296 0.496,-0.242C0.496,-0.189 0.486,-0.143 0.465,-0.105C0.444,-0.067 0.416,-0.038 0.382,-0.018C0.348,0.002 0.311,0.012 0.271,0.012ZM0.271,-0.056C0.299,-0.056 0.324,-0.064 0.345,-0.08C0.366,-0.095 0.382,-0.117 0.394,-0.145C0.406,-0.173 0.411,-0.205 0.411,-0.242C0.411,-0.28 0.406,-0.312 0.394,-0.34C0.382,-0.368 0.366,-0.39 0.345,-0.406C0.324,-0.422 0.299,-0.43 0.271,-0.43C0.243,-0.43 0.219,-0.422 0.198,-0.406C0.177,-0.39 0.16,-0.368 0.149,-0.34C0.137,-0.312 0.131,-0.28 0.131,-0.242C0.131,-0.205 0.137,-0.173 0.149,-0.145C0.16,-0.117 0.177,-0.095 0.198,-0.08C0.219,-0.064 0.243,-0.056 0.271,-0.056Z" style="fill-rule:nonzero;"/>
                </g>
                <g transform="matrix(75,0,0,75,975.215,595.906)">
                    <path d="M0.082,-0L0.082,-0.486L0.15,-0.486L0.157,-0.416L0.16,-0.416C0.181,-0.439 0.204,-0.458 0.23,-0.474C0.255,-0.49 0.282,-0.498 0.311,-0.498C0.348,-0.498 0.378,-0.49 0.399,-0.473C0.42,-0.457 0.435,-0.434 0.445,-0.405C0.47,-0.433 0.496,-0.455 0.522,-0.473C0.548,-0.49 0.576,-0.498 0.605,-0.498C0.656,-0.498 0.693,-0.482 0.717,-0.45C0.741,-0.417 0.753,-0.37 0.753,-0.308L0.753,-0L0.671,-0L0.671,-0.297C0.671,-0.343 0.664,-0.376 0.649,-0.396C0.635,-0.416 0.612,-0.427 0.581,-0.427C0.562,-0.427 0.542,-0.421 0.523,-0.408C0.503,-0.396 0.481,-0.377 0.459,-0.352L0.459,-0L0.377,-0L0.377,-0.297C0.377,-0.343 0.369,-0.376 0.355,-0.396C0.34,-0.416 0.317,-0.427 0.286,-0.427C0.25,-0.427 0.209,-0.402 0.164,-0.352L0.164,-0L0.082,-0Z" style="fill-rule:nonzero;"/>
                </g>
                <g transform="matrix(75,0,0,75,1037.38,595.906)">
                    <path d="M0.209,0.012C0.174,0.012 0.14,0.006 0.109,-0.007C0.077,-0.019 0.05,-0.036 0.028,-0.058L0.066,-0.106C0.087,-0.088 0.109,-0.075 0.132,-0.066C0.155,-0.057 0.182,-0.052 0.212,-0.052C0.244,-0.052 0.268,-0.06 0.284,-0.074C0.3,-0.089 0.308,-0.107 0.308,-0.128C0.308,-0.144 0.302,-0.158 0.292,-0.169C0.281,-0.18 0.267,-0.19 0.251,-0.197C0.234,-0.205 0.216,-0.212 0.198,-0.219C0.174,-0.228 0.151,-0.238 0.129,-0.25C0.107,-0.261 0.089,-0.276 0.076,-0.294C0.062,-0.311 0.055,-0.334 0.055,-0.36C0.055,-0.399 0.07,-0.432 0.099,-0.459C0.129,-0.485 0.17,-0.498 0.223,-0.498C0.253,-0.498 0.281,-0.493 0.307,-0.483C0.333,-0.473 0.355,-0.459 0.374,-0.443L0.336,-0.396C0.319,-0.408 0.301,-0.417 0.283,-0.424C0.265,-0.431 0.245,-0.434 0.223,-0.434C0.193,-0.434 0.17,-0.427 0.156,-0.413C0.141,-0.399 0.134,-0.383 0.134,-0.364C0.134,-0.349 0.138,-0.337 0.147,-0.327C0.156,-0.318 0.168,-0.309 0.184,-0.302C0.199,-0.295 0.217,-0.288 0.237,-0.281C0.262,-0.271 0.287,-0.261 0.31,-0.249C0.332,-0.238 0.351,-0.223 0.365,-0.205C0.38,-0.186 0.387,-0.162 0.387,-0.133C0.387,-0.106 0.38,-0.082 0.366,-0.06C0.353,-0.038 0.333,-0.021 0.306,-0.008C0.28,0.005 0.248,0.012 0.209,0.012Z" style="fill-rule:nonzero;"/>
                </g>
                <g transform="matrix(75,0,0,75,1068.81,595.906)">
                </g>
            </g>
            <g transform="matrix(1,0,0,1,-689.85,155.921)">
                <g transform="matrix(75,0,0,75,883.721,520.906)">
                    <path d="M0.082,0.205L0.082,-0.486L0.15,-0.486L0.157,-0.43L0.16,-0.43C0.182,-0.449 0.206,-0.465 0.233,-0.478C0.259,-0.491 0.287,-0.498 0.315,-0.498C0.356,-0.498 0.392,-0.488 0.42,-0.468C0.449,-0.447 0.471,-0.418 0.485,-0.381C0.5,-0.344 0.507,-0.3 0.507,-0.25C0.507,-0.195 0.497,-0.148 0.478,-0.109C0.458,-0.07 0.432,-0.04 0.4,-0.019C0.368,0.002 0.334,0.012 0.297,0.012C0.275,0.012 0.253,0.007 0.23,-0.003C0.207,-0.013 0.184,-0.027 0.162,-0.044L0.164,0.041L0.164,0.205L0.082,0.205ZM0.283,-0.057C0.309,-0.057 0.333,-0.065 0.354,-0.08C0.375,-0.096 0.392,-0.118 0.404,-0.147C0.416,-0.175 0.422,-0.21 0.422,-0.25C0.422,-0.285 0.418,-0.317 0.409,-0.344C0.401,-0.371 0.387,-0.392 0.368,-0.406C0.349,-0.421 0.325,-0.429 0.294,-0.429C0.274,-0.429 0.253,-0.423 0.232,-0.412C0.211,-0.401 0.188,-0.385 0.164,-0.363L0.164,-0.108C0.186,-0.089 0.208,-0.076 0.228,-0.069C0.249,-0.061 0.267,-0.057 0.283,-0.057Z" style="fill-rule:nonzero;"/>
                </g>
                <g transform="matrix(75,0,0,75,925.325,520.906)">
                    <path d="M0.082,-0L0.082,-0.486L0.15,-0.486L0.157,-0.398L0.16,-0.398C0.176,-0.429 0.196,-0.453 0.22,-0.471C0.244,-0.489 0.27,-0.498 0.298,-0.498C0.309,-0.498 0.318,-0.497 0.326,-0.496C0.334,-0.494 0.342,-0.492 0.35,-0.488L0.332,-0.418C0.325,-0.42 0.318,-0.421 0.312,-0.422C0.305,-0.423 0.297,-0.424 0.287,-0.424C0.267,-0.424 0.245,-0.416 0.223,-0.399C0.2,-0.383 0.181,-0.354 0.164,-0.312L0.164,-0L0.082,-0Z" style="fill-rule:nonzero;"/>
                </g>
                <g transform="matrix(75,0,0,75,951.366,520.906)">
                    <path d="M0.082,-0L0.082,-0.486L0.164,-0.486L0.164,-0L0.082,-0ZM0.123,-0.586C0.107,-0.586 0.094,-0.591 0.084,-0.601C0.073,-0.611 0.068,-0.624 0.068,-0.64C0.068,-0.656 0.073,-0.669 0.084,-0.679C0.094,-0.689 0.107,-0.694 0.123,-0.694C0.139,-0.694 0.152,-0.689 0.163,-0.679C0.173,-0.669 0.178,-0.656 0.178,-0.64C0.178,-0.624 0.173,-0.611 0.163,-0.601C0.152,-0.591 0.139,-0.586 0.123,-0.586Z" style="fill-rule:nonzero;"/>
                </g>
                <g transform="matrix(75,0,0,75,969.837,520.906)">
                    <path d="M0.275,0.012C0.232,0.012 0.193,0.002 0.158,-0.018C0.124,-0.038 0.096,-0.067 0.076,-0.105C0.056,-0.143 0.046,-0.189 0.046,-0.242C0.046,-0.296 0.057,-0.343 0.078,-0.381C0.1,-0.419 0.129,-0.448 0.164,-0.468C0.2,-0.488 0.238,-0.498 0.28,-0.498C0.312,-0.498 0.339,-0.493 0.362,-0.482C0.385,-0.471 0.405,-0.458 0.422,-0.441L0.381,-0.39C0.369,-0.402 0.355,-0.412 0.339,-0.419C0.322,-0.426 0.304,-0.43 0.283,-0.43C0.254,-0.43 0.228,-0.422 0.205,-0.406C0.183,-0.39 0.164,-0.368 0.151,-0.34C0.138,-0.312 0.131,-0.28 0.131,-0.242C0.131,-0.205 0.137,-0.173 0.15,-0.145C0.163,-0.117 0.18,-0.095 0.203,-0.08C0.226,-0.064 0.252,-0.056 0.282,-0.056C0.305,-0.056 0.325,-0.061 0.345,-0.069C0.364,-0.078 0.381,-0.089 0.395,-0.102L0.431,-0.052C0.411,-0.032 0.387,-0.017 0.361,-0.005C0.335,0.006 0.306,0.012 0.275,0.012Z" style="fill-rule:nonzero;"/>
                </g>
                <g transform="matrix(75,0,0,75,1002.45,520.906)">
                    <path d="M0.279,0.012C0.236,0.012 0.196,0.002 0.161,-0.018C0.125,-0.039 0.097,-0.068 0.076,-0.106C0.056,-0.143 0.045,-0.189 0.045,-0.243C0.045,-0.296 0.056,-0.341 0.077,-0.379C0.098,-0.417 0.125,-0.447 0.159,-0.467C0.192,-0.488 0.228,-0.498 0.265,-0.498C0.306,-0.498 0.342,-0.489 0.371,-0.47C0.399,-0.451 0.421,-0.424 0.436,-0.39C0.451,-0.356 0.458,-0.316 0.458,-0.27C0.458,-0.262 0.458,-0.253 0.457,-0.245C0.457,-0.237 0.456,-0.229 0.454,-0.221L0.104,-0.221L0.104,-0.286L0.384,-0.286C0.384,-0.333 0.374,-0.369 0.354,-0.394C0.333,-0.419 0.304,-0.431 0.266,-0.431C0.244,-0.431 0.222,-0.425 0.201,-0.413C0.18,-0.4 0.162,-0.38 0.148,-0.353C0.135,-0.325 0.128,-0.289 0.128,-0.244C0.128,-0.202 0.135,-0.168 0.149,-0.14C0.164,-0.112 0.183,-0.091 0.208,-0.077C0.233,-0.062 0.26,-0.055 0.289,-0.055C0.312,-0.055 0.334,-0.059 0.354,-0.065C0.375,-0.072 0.393,-0.08 0.41,-0.092L0.44,-0.038C0.419,-0.023 0.395,-0.011 0.369,-0.002C0.342,0.007 0.312,0.012 0.279,0.012Z" style="fill-rule:nonzero;"/>
                </g>
                <g transform="matrix(75,0,0,75,1039.63,520.906)">
                </g>
                <g transform="matrix(75,0,0,75,1054.63,520.906)">
                    <path d="M0.271,0.012C0.231,0.012 0.194,0.002 0.16,-0.018C0.126,-0.038 0.098,-0.067 0.077,-0.105C0.056,-0.143 0.046,-0.189 0.046,-0.242C0.046,-0.296 0.056,-0.343 0.077,-0.381C0.098,-0.419 0.126,-0.448 0.16,-0.468C0.194,-0.488 0.231,-0.498 0.271,-0.498C0.311,-0.498 0.348,-0.488 0.382,-0.468C0.416,-0.448 0.444,-0.419 0.465,-0.381C0.486,-0.343 0.496,-0.296 0.496,-0.242C0.496,-0.189 0.486,-0.143 0.465,-0.105C0.444,-0.067 0.416,-0.038 0.382,-0.018C0.348,0.002 0.311,0.012 0.271,0.012ZM0.271,-0.056C0.299,-0.056 0.324,-0.064 0.345,-0.08C0.366,-0.095 0.382,-0.117 0.394,-0.145C0.406,-0.173 0.411,-0.205 0.411,-0.242C0.411,-0.28 0.406,-0.312 0.394,-0.34C0.382,-0.368 0.366,-0.39 0.345,-0.406C0.324,-0.422 0.299,-0.43 0.271,-0.43C0.243,-0.43 0.219,-0.422 0.198,-0.406C0.177,-0.39 0.16,-0.368 0.149,-0.34C0.137,-0.312 0.131,-0.28 0.131,-0.242C0.131,-0.205 0.137,-0.173 0.149,-0.145C0.16,-0.117 0.177,-0.095 0.198,-0.08C0.219,-0.064 0.243,-0.056 0.271,-0.056Z" style="fill-rule:nonzero;"/>
                </g>
                <g transform="matrix(75,0,0,75,1095.16,520.906)">
                    <path d="M0.096,-0L0.096,-0.563C0.096,-0.596 0.101,-0.625 0.111,-0.649C0.121,-0.673 0.137,-0.691 0.158,-0.705C0.179,-0.718 0.205,-0.724 0.238,-0.724C0.253,-0.724 0.267,-0.723 0.282,-0.72C0.296,-0.717 0.308,-0.713 0.319,-0.708L0.301,-0.648C0.282,-0.654 0.264,-0.657 0.246,-0.657C0.224,-0.657 0.206,-0.649 0.195,-0.633C0.184,-0.618 0.178,-0.594 0.178,-0.563L0.178,-0L0.096,-0ZM0.024,-0.419L0.024,-0.481L0.1,-0.486L0.281,-0.486L0.281,-0.419L0.024,-0.419Z" style="fill-rule:nonzero;"/>
                </g>
                <g transform="matrix(75,0,0,75,1117.04,520.906)">
                </g>
                <g transform="matrix(75,0,0,75,1132.04,520.906)">
                </g>
                <g transform="matrix(75,0,0,75,883.721,595.906)">
                    <path d="M0.194,0.012C0.167,0.012 0.143,0.007 0.121,-0.004C0.1,-0.015 0.083,-0.031 0.07,-0.051C0.058,-0.072 0.051,-0.097 0.051,-0.126C0.051,-0.181 0.075,-0.222 0.123,-0.25C0.171,-0.278 0.247,-0.298 0.351,-0.309C0.351,-0.329 0.348,-0.349 0.342,-0.367C0.336,-0.385 0.326,-0.4 0.311,-0.412C0.297,-0.423 0.276,-0.429 0.25,-0.429C0.222,-0.429 0.196,-0.424 0.171,-0.413C0.146,-0.403 0.124,-0.392 0.105,-0.379L0.073,-0.435C0.088,-0.445 0.105,-0.455 0.125,-0.465C0.145,-0.475 0.166,-0.483 0.19,-0.489C0.213,-0.495 0.238,-0.498 0.264,-0.498C0.304,-0.498 0.336,-0.49 0.36,-0.473C0.385,-0.457 0.403,-0.434 0.415,-0.404C0.427,-0.374 0.433,-0.338 0.433,-0.298L0.433,-0L0.365,-0L0.358,-0.058L0.355,-0.058C0.331,-0.039 0.306,-0.022 0.28,-0.009C0.253,0.005 0.225,0.012 0.194,0.012ZM0.217,-0.056C0.241,-0.056 0.263,-0.062 0.284,-0.072C0.305,-0.083 0.327,-0.098 0.351,-0.119L0.351,-0.25C0.296,-0.244 0.253,-0.235 0.221,-0.224C0.189,-0.214 0.167,-0.201 0.153,-0.186C0.139,-0.17 0.132,-0.152 0.132,-0.132C0.132,-0.105 0.141,-0.085 0.157,-0.074C0.174,-0.062 0.194,-0.056 0.217,-0.056Z" style="fill-rule:nonzero;"/>
                </g>
                <g transform="matrix(75,0,0,75,921.551,595.906)">
                </g>
                <g transform="matrix(75,0,0,75,936.551,595.906)">
                    <path d="M0.096,-0L0.096,-0.563C0.096,-0.596 0.101,-0.625 0.111,-0.649C0.121,-0.673 0.137,-0.691 0.158,-0.705C0.179,-0.718 0.205,-0.724 0.238,-0.724C0.253,-0.724 0.267,-0.723 0.282,-0.72C0.296,-0.717 0.308,-0.713 0.319,-0.708L0.301,-0.648C0.282,-0.654 0.264,-0.657 0.246,-0.657C0.224,-0.657 0.206,-0.649 0.195,-0.633C0.184,-0.618 0.178,-0.594 0.178,-0.563L0.178,-0L0.096,-0ZM0.024,-0.419L0.024,-0.481L0.1,-0.486L0.281,-0.486L0.281,-0.419L0.024,-0.419Z" style="fill-rule:nonzero;"/>
                </g>
                <g transform="matrix(75,0,0,75,958.432,595.906)">
                    <path d="M0.169,0.009C0.149,0.009 0.132,0.005 0.119,-0.003C0.106,-0.012 0.097,-0.024 0.091,-0.04C0.085,-0.057 0.082,-0.077 0.082,-0.1L0.082,-0.712L0.164,-0.712L0.164,-0.094C0.164,-0.081 0.166,-0.072 0.171,-0.067C0.176,-0.062 0.182,-0.059 0.188,-0.059C0.191,-0.059 0.193,-0.059 0.196,-0.06C0.198,-0.06 0.201,-0.061 0.205,-0.061L0.217,0.001C0.211,0.003 0.204,0.005 0.196,0.007C0.188,0.008 0.179,0.009 0.169,0.009Z" style="fill-rule:nonzero;"/>
                </g>
                <g transform="matrix(75,0,0,75,977.568,595.906)">
                    <path d="M0.194,0.012C0.167,0.012 0.143,0.007 0.121,-0.004C0.1,-0.015 0.083,-0.031 0.07,-0.051C0.058,-0.072 0.051,-0.097 0.051,-0.126C0.051,-0.181 0.075,-0.222 0.123,-0.25C0.171,-0.278 0.247,-0.298 0.351,-0.309C0.351,-0.329 0.348,-0.349 0.342,-0.367C0.336,-0.385 0.326,-0.4 0.311,-0.412C0.297,-0.423 0.276,-0.429 0.25,-0.429C0.222,-0.429 0.196,-0.424 0.171,-0.413C0.146,-0.403 0.124,-0.392 0.105,-0.379L0.073,-0.435C0.088,-0.445 0.105,-0.455 0.125,-0.465C0.145,-0.475 0.166,-0.483 0.19,-0.489C0.213,-0.495 0.238,-0.498 0.264,-0.498C0.304,-0.498 0.336,-0.49 0.36,-0.473C0.385,-0.457 0.403,-0.434 0.415,-0.404C0.427,-0.374 0.433,-0.338 0.433,-0.298L0.433,-0L0.365,-0L0.358,-0.058L0.355,-0.058C0.331,-0.039 0.306,-0.022 0.28,-0.009C0.253,0.005 0.225,0.012 0.194,0.012ZM0.217,-0.056C0.241,-0.056 0.263,-0.062 0.284,-0.072C0.305,-0.083 0.327,-0.098 0.351,-0.119L0.351,-0.25C0.296,-0.244 0.253,-0.235 0.221,-0.224C0.189,-0.214 0.167,-0.201 0.153,-0.186C0.139,-0.17 0.132,-0.152 0.132,-0.132C0.132,-0.105 0.141,-0.085 0.157,-0.074C0.174,-0.062 0.194,-0.056 0.217,-0.056Z" style="fill-rule:nonzero;"/>
                </g>
                <g transform="matrix(75,0,0,75,1014.35,595.906)">
                    <path d="M0.235,0.009C0.183,0.009 0.147,-0.006 0.127,-0.036C0.106,-0.066 0.096,-0.105 0.096,-0.153L0.096,-0.419L0.024,-0.419L0.024,-0.481L0.1,-0.486L0.11,-0.642L0.179,-0.642L0.179,-0.486L0.311,-0.486L0.311,-0.419L0.179,-0.419L0.179,-0.152C0.179,-0.122 0.184,-0.099 0.196,-0.083C0.207,-0.066 0.226,-0.058 0.254,-0.058C0.263,-0.058 0.272,-0.059 0.281,-0.061C0.29,-0.062 0.299,-0.066 0.309,-0.07L0.327,-0.012C0.314,-0.006 0.3,-0.001 0.284,0.003C0.268,0.007 0.252,0.009 0.235,0.009Z" style="fill-rule:nonzero;"/>
                </g>
                <g transform="matrix(75,0,0,75,1039.71,595.906)">
                </g>
            </g>
            <g transform="matrix(1,0,0,1,-369.102,-26.68)">
                <g transform="matrix(1,-0,-0,1,409.214,36.5074)">
                    <path d="M186.069,517.41L158.968,552.319L124.059,525.217" style="fill:none;stroke:black;stroke-width:8.33px;stroke-linejoin:miter;stroke-miterlimit:10;"/>
                    <path d="M255.075,236.313C161.335,236.313 140.329,400.098 158.968,552.319" style="fill:none;stroke:black;stroke-width:8.33px;"/>
                </g>
            </g>
            <g transform="matrix(-0.148286,-0.988944,-0.988944,0.148286,1196.46,1083.78)">
                <g transform="matrix(-0.148286,-0.988944,-0.988944,0.148286,1233.55,984.311)">
                    <path d="M507.073,719.37L475.8,688.143L507.027,656.87" style="fill:none;stroke:black;stroke-width:8.33px;stroke-linejoin:miter;stroke-miterlimit:10;"/>
                    <path d="M807.577,587.772C821.452,680.304 610.573,687.941 475.8,688.143" style="fill:none;stroke:black;stroke-width:8.33px;"/>
                </g>
            </g>
        </g>
        <g>
            <g transform="matrix(0.67603,0,0,0.67603,470.661,-159.783)">
                <path d="M228.287,338.063L228.287,874.016L764.24,874.016" style="fill:none;stroke:black;stroke-width:24.65px;"/>
            </g>
            <g transform="matrix(0.541592,0.0931303,0.0931303,0.527726,416.143,-80.6426)">
                <path d="M311.006,837.375L952.126,192.485" style="fill:none;stroke:black;stroke-width:26.55px;"/>
            </g>
        </g>
    </g>
</svg>
