<?xml version="1.0" encoding="UTF-8" standalone="no"?>
<!DOCTYPE svg PUBLIC "-//W3C//DTD SVG 1.1//EN" "http://www.w3.org/Graphics/SVG/1.1/DTD/svg11.dtd">
<svg width="100%" height="100%" viewBox="0 0 575 575" version="1.1" xmlns="http://www.w3.org/2000/svg" xmlns:xlink="http://www.w3.org/1999/xlink" xml:space="preserve" xmlns:serif="http://www.serif.com/" style="fill-rule:evenodd;clip-rule:evenodd;stroke-linecap:round;stroke-linejoin:round;stroke-miterlimit:1.5;">
    <g transform="matrix(1,0,0,1,-244.934,-329.482)">
        <g transform="matrix(1.03389,0,0,1.03389,19.3263,-9.62141)">
            <path d="M228.287,338.063L228.287,874.016L764.24,874.016" style="fill:none;stroke:black;stroke-width:20.15px;"/>
        </g>
        <g transform="matrix(4.03635,0,0,4.03635,-1051.22,-2399.88)">
            <circle cx="346.213" cy="790.383" r="7.315" style="fill-opacity:0.5;"/>
        </g>
        <g transform="matrix(4.03635,0,0,4.03635,-1084.29,-2339.35)">
            <circle cx="346.213" cy="790.383" r="7.315" style="fill-opacity:0.5;"/>
        </g>
        <g transform="matrix(4.03635,0,0,4.03635,-1041.83,-2379.16)">
            <circle cx="346.213" cy="790.383" r="7.315" style="fill-opacity:0.5;"/>
        </g>
        <g transform="matrix(4.03635,0,0,4.03635,-1006.99,-2450.31)">
            <circle cx="346.213" cy="790.383" r="7.315" style="fill-opacity:0.5;"/>
        </g>
        <g transform="matrix(4.03635,0,0,4.03635,-974.52,-2498.81)">
            <circle cx="346.213" cy="790.383" r="7.315" style="fill-opacity:0.5;"/>
        </g>
        <g transform="matrix(4.03635,0,0,4.03635,-922.152,-2500.23)">
            <circle cx="346.213" cy="790.383" r="7.315" style="fill-opacity:0.5;"/>
        </g>
        <g transform="matrix(4.03635,0,0,4.03635,-902.768,-2555.28)">
            <circle cx="346.213" cy="790.383" r="7.315" style="fill-opacity:0.5;"/>
        </g>
        <g transform="matrix(4.03635,0,0,4.03635,-859.328,-2601.05)">
            <circle cx="346.213" cy="790.383" r="7.315" style="fill-opacity:0.5;"/>
        </g>
        <g transform="matrix(4.03635,0,0,4.03635,-783.146,-2680.15)">
            <circle cx="346.213" cy="790.383" r="7.315" style="fill-opacity:0.5;"/>
        </g>
        <g transform="matrix(4.03635,0,0,4.03635,-653.517,-2821.11)">
            <circle cx="346.213" cy="790.383" r="7.315" style="fill:rgb(187,55,37);"/>
        </g>
        <path d="M294.487,883.045L275.865,866.365L301.648,837.579L320.271,854.258L294.487,883.045ZM340.007,832.223L321.385,815.543L356.273,776.592L374.896,793.272L340.007,832.223ZM394.632,771.237L376.01,754.558L410.898,715.607L429.52,732.287L394.632,771.237ZM449.257,710.252L430.634,693.572L465.522,654.622L484.144,671.301L449.257,710.252ZM503.881,649.266L485.259,632.586L520.148,593.635L538.77,610.315L503.881,649.266ZM558.506,588.281L539.884,571.601L574.771,532.65L593.394,549.33L558.506,588.281ZM613.13,527.295L594.508,510.616L629.396,471.665L648.018,488.345L613.13,527.295ZM667.755,466.309L649.133,449.63L684.021,410.679L702.643,427.359L667.755,466.309ZM722.38,405.323L703.758,388.643L729.542,359.857L748.164,376.537L722.38,405.323Z"/>
        <path d="M311.006,837.375L733.262,382.518" style="fill:none;stroke:rgb(49,115,201);stroke-width:25px;"/>
    </g>
</svg>
