<?xml version="1.0" encoding="UTF-8" standalone="no"?>
<!DOCTYPE svg PUBLIC "-//W3C//DTD SVG 1.1//EN" "http://www.w3.org/Graphics/SVG/1.1/DTD/svg11.dtd">
<svg width="100%" height="100%" viewBox="0 0 575 575" version="1.1" xmlns="http://www.w3.org/2000/svg" xmlns:xlink="http://www.w3.org/1999/xlink" xml:space="preserve" xmlns:serif="http://www.serif.com/" style="fill-rule:evenodd;clip-rule:evenodd;stroke-linecap:round;stroke-linejoin:round;stroke-miterlimit:1.5;">
    <g transform="matrix(1,0,0,1,-244.934,-329.482)">
        <g transform="matrix(1.03389,0,0,1.03389,19.3263,-9.62141)">
            <path d="M228.287,338.063L228.287,874.016L764.24,874.016" style="fill:none;stroke:black;stroke-width:20.15px;"/>
        </g>
        <g transform="matrix(4.03635,0,0,4.03635,-1051.22,-2399.88)">
            <circle cx="346.213" cy="790.383" r="7.315" style="fill-opacity:0.5;"/>
        </g>
        <g transform="matrix(4.03635,0,0,4.03635,-1084.29,-2339.35)">
            <circle cx="346.213" cy="790.383" r="7.315" style="fill-opacity:0.5;"/>
        </g>
        <g transform="matrix(4.03635,0,0,4.03635,-1041.83,-2379.16)">
            <circle cx="346.213" cy="790.383" r="7.315" style="fill-opacity:0.5;"/>
        </g>
        <g transform="matrix(4.03635,0,0,4.03635,-1006.99,-2450.31)">
            <circle cx="346.213" cy="790.383" r="7.315" style="fill-opacity:0.5;"/>
        </g>
        <g transform="matrix(4.03635,0,0,4.03635,-974.52,-2498.81)">
            <circle cx="346.213" cy="790.383" r="7.315" style="fill-opacity:0.5;"/>
        </g>
        <g transform="matrix(4.03635,0,0,4.03635,-922.152,-2500.23)">
            <circle cx="346.213" cy="790.383" r="7.315" style="fill-opacity:0.5;"/>
        </g>
        <g transform="matrix(4.03635,0,0,4.03635,-902.768,-2555.28)">
            <circle cx="346.213" cy="790.383" r="7.315" style="fill-opacity:0.5;"/>
        </g>
        <g transform="matrix(4.03635,0,0,4.03635,-859.328,-2601.05)">
            <circle cx="346.213" cy="790.383" r="7.315" style="fill-opacity:0.5;"/>
        </g>
        <g transform="matrix(4.03635,0,0,4.03635,-783.146,-2680.15)">
            <circle cx="346.213" cy="790.383" r="7.315" style="fill-opacity:0.5;"/>
        </g>
        <g transform="matrix(4.03635,0,0,4.03635,-978.347,-2732.28)">
            <circle cx="346.213" cy="790.383" r="7.315" style="fill:rgb(187,55,37);"/>
        </g>
        <path d="M294.451,883.047L275.863,866.329L301.004,838.375L319.592,855.093L294.451,883.047ZM336.567,836.218L317.979,819.5L351.544,782.181L370.132,798.899L336.567,836.218ZM387.106,780.025L368.518,763.307L402.083,725.988L420.671,742.705L387.106,780.025ZM437.646,723.831L419.058,707.113L452.622,669.794L471.21,686.512L437.646,723.831ZM488.186,667.637L469.598,650.919L503.162,613.599L521.75,630.317L488.186,667.637ZM538.724,611.444L520.136,594.726L553.7,557.407L572.288,574.125L538.724,611.444ZM589.264,555.25L570.676,538.532L604.24,501.213L622.828,517.931L589.264,555.25ZM639.803,499.057L621.215,482.339L654.779,445.019L673.368,461.737L639.803,499.057ZM690.343,442.863L671.755,426.145L705.319,388.826L723.907,405.544L690.343,442.863ZM740.883,386.669L722.295,369.951L747.435,341.997L766.023,358.715L740.883,386.669Z"/>
        <path d="M303.129,837.256L618.275,488.416" style="fill:none;stroke:rgb(49,115,201);stroke-width:25px;"/>
    </g>
</svg>
