<?xml version="1.0" encoding="UTF-8" standalone="no"?>
<!DOCTYPE svg PUBLIC "-//W3C//DTD SVG 1.1//EN" "http://www.w3.org/Graphics/SVG/1.1/DTD/svg11.dtd">
<svg width="100%" height="100%" viewBox="0 0 1664 1495" version="1.1" xmlns="http://www.w3.org/2000/svg" xmlns:xlink="http://www.w3.org/1999/xlink" xml:space="preserve" xmlns:serif="http://www.serif.com/" style="fill-rule:evenodd;clip-rule:evenodd;stroke-linecap:round;stroke-linejoin:round;stroke-miterlimit:1.5;">
    <g transform="matrix(1,0,0,1,-323.835,-181.944)">
        <path d="M1155.5,293.606L1714.03,1261L596.974,1261L1155.5,293.606Z" style="fill:none;stroke:black;stroke-width:16.67px;"/>
    </g>
    <g transform="matrix(0.5,-0.866025,0.866025,0.5,-558.88,1288.02)">
        <path d="M1155.5,293.606L1714.03,1261L596.974,1261L1155.5,293.606Z" style="fill:none;stroke:black;stroke-width:16.67px;"/>
    </g>
    <g transform="matrix(1,0,0,1,-323.835,-181.944)">
        <path d="M1155.5,293.606L1434.76,454.838L1714.03,616.071L1714.03,938.535L1714.03,1261L1434.76,1422.23L1155.5,1583.47L876.237,1422.23L596.974,1261L596.974,938.535L596.974,616.071L876.237,454.838L1155.5,293.606Z" style="fill:none;stroke:black;stroke-width:16.67px;"/>
    </g>
    <g transform="matrix(1,0,0,1,-323.835,-181.944)">
        <path d="M596.974,1261L1714.03,616.071" style="fill:none;stroke:black;stroke-width:16.67px;"/>
    </g>
    <g transform="matrix(1,0,0,1,-323.835,-181.944)">
        <path d="M1714.03,1261L596.974,616.071" style="fill:none;stroke:black;stroke-width:16.67px;"/>
    </g>
    <g transform="matrix(1,0,0,1,-323.835,-181.944)">
        <path d="M1155.5,293.606L1155.5,1583.47" style="fill:none;stroke:black;stroke-width:16.67px;"/>
    </g>
    <g transform="matrix(1,0,0,1,-408.493,-117.424)">
        <g transform="matrix(0.558907,0,0,0.714512,445.072,81.7915)">
            <path d="M1896.36,120.893L1896.36,239.613C1896.36,272.375 1862.36,298.973 1820.48,298.973L1024.66,298.973C982.781,298.973 948.778,272.375 948.778,239.613L948.778,120.893C948.778,88.131 982.781,61.533 1024.66,61.533L1820.48,61.533C1862.36,61.533 1896.36,88.131 1896.36,120.893Z" style="fill:rgb(242,209,214);stroke:white;stroke-width:25.98px;"/>
        </g>
        <g transform="matrix(1,0,0,1,209.593,33.9976)">
            <g transform="matrix(83.3333,0,0,83.3333,840.362,205.388)">
                <path d="M0.339,0.012C0.284,0.012 0.235,-0.001 0.192,-0.028C0.148,-0.055 0.114,-0.094 0.089,-0.145C0.064,-0.196 0.052,-0.257 0.052,-0.328C0.052,-0.381 0.059,-0.428 0.073,-0.47C0.088,-0.512 0.108,-0.548 0.135,-0.578C0.161,-0.607 0.192,-0.63 0.227,-0.645C0.263,-0.661 0.301,-0.668 0.343,-0.668C0.382,-0.668 0.418,-0.66 0.449,-0.644C0.479,-0.628 0.504,-0.609 0.523,-0.587L0.478,-0.536C0.461,-0.555 0.441,-0.569 0.419,-0.58C0.396,-0.59 0.372,-0.595 0.344,-0.595C0.304,-0.595 0.268,-0.584 0.237,-0.562C0.206,-0.541 0.181,-0.51 0.164,-0.47C0.147,-0.431 0.138,-0.384 0.138,-0.33C0.138,-0.274 0.146,-0.227 0.163,-0.187C0.18,-0.147 0.204,-0.116 0.235,-0.094C0.266,-0.072 0.303,-0.062 0.345,-0.062C0.376,-0.062 0.403,-0.068 0.427,-0.08C0.451,-0.091 0.474,-0.109 0.494,-0.131L0.538,-0.082C0.512,-0.052 0.483,-0.029 0.451,-0.013C0.419,0.004 0.381,0.012 0.339,0.012Z" style="fill-rule:nonzero;"/>
            </g>
            <g transform="matrix(83.3333,0,0,83.3333,887.911,205.388)">
                <path d="M0.09,-0L0.09,-0.656L0.285,-0.656C0.329,-0.656 0.368,-0.651 0.402,-0.64C0.436,-0.629 0.463,-0.612 0.482,-0.589C0.501,-0.565 0.51,-0.534 0.51,-0.496C0.51,-0.462 0.502,-0.432 0.486,-0.407C0.469,-0.381 0.445,-0.363 0.414,-0.353L0.414,-0.349C0.455,-0.342 0.488,-0.325 0.512,-0.3C0.536,-0.274 0.548,-0.239 0.548,-0.195C0.548,-0.151 0.537,-0.115 0.516,-0.086C0.495,-0.057 0.466,-0.036 0.429,-0.021C0.391,-0.007 0.348,-0 0.299,-0L0.09,-0ZM0.173,-0.377L0.27,-0.377C0.326,-0.377 0.366,-0.387 0.391,-0.406C0.416,-0.425 0.428,-0.452 0.428,-0.485C0.428,-0.523 0.415,-0.55 0.389,-0.566C0.363,-0.582 0.325,-0.59 0.274,-0.59L0.173,-0.59L0.173,-0.377ZM0.173,-0.066L0.287,-0.066C0.344,-0.066 0.388,-0.077 0.419,-0.098C0.45,-0.118 0.466,-0.151 0.466,-0.195C0.466,-0.236 0.45,-0.265 0.42,-0.284C0.389,-0.303 0.345,-0.313 0.287,-0.313L0.173,-0.313L0.173,-0.066Z" style="fill-rule:nonzero;"/>
            </g>
            <g transform="matrix(83.3333,0,0,83.3333,934.91,205.388)">
                <path d="M0.226,-0L0.226,-0.585L0.028,-0.585L0.028,-0.656L0.508,-0.656L0.508,-0.585L0.31,-0.585L0.31,-0L0.226,-0Z" style="fill-rule:nonzero;"/>
            </g>
            <g transform="matrix(83.3333,0,0,83.3333,979.572,205.388)">
            </g>
            <g transform="matrix(83.3333,0,0,83.3333,996.238,205.388)">
                <path d="M0.09,-0L0.09,-0.656L0.173,-0.656L0.173,-0.381L0.479,-0.381L0.479,-0.656L0.562,-0.656L0.562,-0L0.479,-0L0.479,-0.309L0.173,-0.309L0.173,-0L0.09,-0Z" style="fill-rule:nonzero;"/>
            </g>
            <g transform="matrix(83.3333,0,0,83.3333,1050.55,205.388)">
                <path d="M0.271,0.012C0.231,0.012 0.194,0.002 0.16,-0.018C0.126,-0.038 0.098,-0.067 0.077,-0.105C0.056,-0.143 0.046,-0.189 0.046,-0.242C0.046,-0.296 0.056,-0.343 0.077,-0.381C0.098,-0.419 0.126,-0.448 0.16,-0.468C0.194,-0.488 0.231,-0.498 0.271,-0.498C0.311,-0.498 0.348,-0.488 0.382,-0.468C0.416,-0.448 0.444,-0.419 0.465,-0.381C0.486,-0.343 0.496,-0.296 0.496,-0.242C0.496,-0.189 0.486,-0.143 0.465,-0.105C0.444,-0.067 0.416,-0.038 0.382,-0.018C0.348,0.002 0.311,0.012 0.271,0.012ZM0.271,-0.056C0.299,-0.056 0.324,-0.064 0.345,-0.08C0.366,-0.095 0.382,-0.117 0.394,-0.145C0.406,-0.173 0.411,-0.205 0.411,-0.242C0.411,-0.28 0.406,-0.312 0.394,-0.34C0.382,-0.368 0.366,-0.39 0.345,-0.406C0.324,-0.422 0.299,-0.43 0.271,-0.43C0.243,-0.43 0.219,-0.422 0.198,-0.406C0.177,-0.39 0.16,-0.368 0.149,-0.34C0.137,-0.312 0.131,-0.28 0.131,-0.242C0.131,-0.205 0.137,-0.173 0.149,-0.145C0.16,-0.117 0.177,-0.095 0.198,-0.08C0.219,-0.064 0.243,-0.056 0.271,-0.056Z" style="fill-rule:nonzero;"/>
            </g>
            <g transform="matrix(83.3333,0,0,83.3333,1095.58,205.388)">
                <path d="M0.209,0.012C0.174,0.012 0.14,0.006 0.109,-0.007C0.077,-0.019 0.05,-0.036 0.028,-0.058L0.066,-0.106C0.087,-0.088 0.109,-0.075 0.132,-0.066C0.155,-0.057 0.182,-0.052 0.212,-0.052C0.244,-0.052 0.268,-0.06 0.284,-0.074C0.3,-0.089 0.308,-0.107 0.308,-0.128C0.308,-0.144 0.302,-0.158 0.292,-0.169C0.281,-0.18 0.267,-0.19 0.251,-0.197C0.234,-0.205 0.216,-0.212 0.198,-0.219C0.174,-0.228 0.151,-0.238 0.129,-0.25C0.107,-0.261 0.089,-0.276 0.076,-0.294C0.062,-0.311 0.055,-0.334 0.055,-0.36C0.055,-0.399 0.07,-0.432 0.099,-0.459C0.129,-0.485 0.17,-0.498 0.223,-0.498C0.253,-0.498 0.281,-0.493 0.307,-0.483C0.333,-0.473 0.355,-0.459 0.374,-0.443L0.336,-0.396C0.319,-0.408 0.301,-0.417 0.283,-0.424C0.265,-0.431 0.245,-0.434 0.223,-0.434C0.193,-0.434 0.17,-0.427 0.156,-0.413C0.141,-0.399 0.134,-0.383 0.134,-0.364C0.134,-0.349 0.138,-0.337 0.147,-0.327C0.156,-0.318 0.168,-0.309 0.184,-0.302C0.199,-0.295 0.217,-0.288 0.237,-0.281C0.262,-0.271 0.287,-0.261 0.31,-0.249C0.332,-0.238 0.351,-0.223 0.365,-0.205C0.38,-0.186 0.387,-0.162 0.387,-0.133C0.387,-0.106 0.38,-0.082 0.366,-0.06C0.353,-0.038 0.333,-0.021 0.306,-0.008C0.28,0.005 0.248,0.012 0.209,0.012Z" style="fill-rule:nonzero;"/>
            </g>
            <g transform="matrix(83.3333,0,0,83.3333,1130.51,205.388)">
                <path d="M0.082,0.205L0.082,-0.486L0.15,-0.486L0.157,-0.43L0.16,-0.43C0.182,-0.449 0.206,-0.465 0.233,-0.478C0.259,-0.491 0.287,-0.498 0.315,-0.498C0.356,-0.498 0.392,-0.488 0.42,-0.468C0.449,-0.447 0.471,-0.418 0.485,-0.381C0.5,-0.344 0.507,-0.3 0.507,-0.25C0.507,-0.195 0.497,-0.148 0.478,-0.109C0.458,-0.07 0.432,-0.04 0.4,-0.019C0.368,0.002 0.334,0.012 0.297,0.012C0.275,0.012 0.253,0.007 0.23,-0.003C0.207,-0.013 0.184,-0.027 0.162,-0.044L0.164,0.041L0.164,0.205L0.082,0.205ZM0.283,-0.057C0.309,-0.057 0.333,-0.065 0.354,-0.08C0.375,-0.096 0.392,-0.118 0.404,-0.147C0.416,-0.175 0.422,-0.21 0.422,-0.25C0.422,-0.285 0.418,-0.317 0.409,-0.344C0.401,-0.371 0.387,-0.392 0.368,-0.406C0.349,-0.421 0.325,-0.429 0.294,-0.429C0.274,-0.429 0.253,-0.423 0.232,-0.412C0.211,-0.401 0.188,-0.385 0.164,-0.363L0.164,-0.108C0.186,-0.089 0.208,-0.076 0.228,-0.069C0.249,-0.061 0.267,-0.057 0.283,-0.057Z" style="fill-rule:nonzero;"/>
            </g>
            <g transform="matrix(83.3333,0,0,83.3333,1176.73,205.388)">
                <path d="M0.079,-0L0.079,-0.068L0.225,-0.068L0.225,-0.538L0.109,-0.538L0.109,-0.591C0.138,-0.596 0.163,-0.603 0.185,-0.61C0.207,-0.618 0.227,-0.627 0.244,-0.638L0.307,-0.638L0.307,-0.068L0.439,-0.068L0.439,-0L0.079,-0Z" style="fill-rule:nonzero;"/>
            </g>
            <g transform="matrix(83.3333,0,0,83.3333,1218.15,205.388)">
            </g>
        </g>
    </g>
    <g transform="matrix(1,0,0,1,-408.493,1190.94)">
        <g transform="matrix(0.558907,0,0,0.714512,445.072,81.7915)">
            <path d="M1896.36,120.893L1896.36,239.613C1896.36,272.375 1862.36,298.973 1820.48,298.973L1024.66,298.973C982.781,298.973 948.778,272.375 948.778,239.613L948.778,120.893C948.778,88.131 982.781,61.533 1024.66,61.533L1820.48,61.533C1862.36,61.533 1896.36,88.131 1896.36,120.893Z" style="fill:rgb(242,209,214);stroke:white;stroke-width:25.98px;"/>
        </g>
        <g transform="matrix(1,0,0,1,209.593,33.9976)">
            <g transform="matrix(83.3333,0,0,83.3333,840.362,205.388)">
                <path d="M0.339,0.012C0.284,0.012 0.235,-0.001 0.192,-0.028C0.148,-0.055 0.114,-0.094 0.089,-0.145C0.064,-0.196 0.052,-0.257 0.052,-0.328C0.052,-0.381 0.059,-0.428 0.073,-0.47C0.088,-0.512 0.108,-0.548 0.135,-0.578C0.161,-0.607 0.192,-0.63 0.227,-0.645C0.263,-0.661 0.301,-0.668 0.343,-0.668C0.382,-0.668 0.418,-0.66 0.449,-0.644C0.479,-0.628 0.504,-0.609 0.523,-0.587L0.478,-0.536C0.461,-0.555 0.441,-0.569 0.419,-0.58C0.396,-0.59 0.372,-0.595 0.344,-0.595C0.304,-0.595 0.268,-0.584 0.237,-0.562C0.206,-0.541 0.181,-0.51 0.164,-0.47C0.147,-0.431 0.138,-0.384 0.138,-0.33C0.138,-0.274 0.146,-0.227 0.163,-0.187C0.18,-0.147 0.204,-0.116 0.235,-0.094C0.266,-0.072 0.303,-0.062 0.345,-0.062C0.376,-0.062 0.403,-0.068 0.427,-0.08C0.451,-0.091 0.474,-0.109 0.494,-0.131L0.538,-0.082C0.512,-0.052 0.483,-0.029 0.451,-0.013C0.419,0.004 0.381,0.012 0.339,0.012Z" style="fill-rule:nonzero;"/>
            </g>
            <g transform="matrix(83.3333,0,0,83.3333,887.911,205.388)">
                <path d="M0.09,-0L0.09,-0.656L0.285,-0.656C0.329,-0.656 0.368,-0.651 0.402,-0.64C0.436,-0.629 0.463,-0.612 0.482,-0.589C0.501,-0.565 0.51,-0.534 0.51,-0.496C0.51,-0.462 0.502,-0.432 0.486,-0.407C0.469,-0.381 0.445,-0.363 0.414,-0.353L0.414,-0.349C0.455,-0.342 0.488,-0.325 0.512,-0.3C0.536,-0.274 0.548,-0.239 0.548,-0.195C0.548,-0.151 0.537,-0.115 0.516,-0.086C0.495,-0.057 0.466,-0.036 0.429,-0.021C0.391,-0.007 0.348,-0 0.299,-0L0.09,-0ZM0.173,-0.377L0.27,-0.377C0.326,-0.377 0.366,-0.387 0.391,-0.406C0.416,-0.425 0.428,-0.452 0.428,-0.485C0.428,-0.523 0.415,-0.55 0.389,-0.566C0.363,-0.582 0.325,-0.59 0.274,-0.59L0.173,-0.59L0.173,-0.377ZM0.173,-0.066L0.287,-0.066C0.344,-0.066 0.388,-0.077 0.419,-0.098C0.45,-0.118 0.466,-0.151 0.466,-0.195C0.466,-0.236 0.45,-0.265 0.42,-0.284C0.389,-0.303 0.345,-0.313 0.287,-0.313L0.173,-0.313L0.173,-0.066Z" style="fill-rule:nonzero;"/>
            </g>
            <g transform="matrix(83.3333,0,0,83.3333,934.91,205.388)">
                <path d="M0.226,-0L0.226,-0.585L0.028,-0.585L0.028,-0.656L0.508,-0.656L0.508,-0.585L0.31,-0.585L0.31,-0L0.226,-0Z" style="fill-rule:nonzero;"/>
            </g>
            <g transform="matrix(83.3333,0,0,83.3333,979.572,205.388)">
            </g>
            <g transform="matrix(83.3333,0,0,83.3333,996.238,205.388)">
                <path d="M0.09,-0L0.09,-0.656L0.173,-0.656L0.173,-0.381L0.479,-0.381L0.479,-0.656L0.562,-0.656L0.562,-0L0.479,-0L0.479,-0.309L0.173,-0.309L0.173,-0L0.09,-0Z" style="fill-rule:nonzero;"/>
            </g>
            <g transform="matrix(83.3333,0,0,83.3333,1050.55,205.388)">
                <path d="M0.271,0.012C0.231,0.012 0.194,0.002 0.16,-0.018C0.126,-0.038 0.098,-0.067 0.077,-0.105C0.056,-0.143 0.046,-0.189 0.046,-0.242C0.046,-0.296 0.056,-0.343 0.077,-0.381C0.098,-0.419 0.126,-0.448 0.16,-0.468C0.194,-0.488 0.231,-0.498 0.271,-0.498C0.311,-0.498 0.348,-0.488 0.382,-0.468C0.416,-0.448 0.444,-0.419 0.465,-0.381C0.486,-0.343 0.496,-0.296 0.496,-0.242C0.496,-0.189 0.486,-0.143 0.465,-0.105C0.444,-0.067 0.416,-0.038 0.382,-0.018C0.348,0.002 0.311,0.012 0.271,0.012ZM0.271,-0.056C0.299,-0.056 0.324,-0.064 0.345,-0.08C0.366,-0.095 0.382,-0.117 0.394,-0.145C0.406,-0.173 0.411,-0.205 0.411,-0.242C0.411,-0.28 0.406,-0.312 0.394,-0.34C0.382,-0.368 0.366,-0.39 0.345,-0.406C0.324,-0.422 0.299,-0.43 0.271,-0.43C0.243,-0.43 0.219,-0.422 0.198,-0.406C0.177,-0.39 0.16,-0.368 0.149,-0.34C0.137,-0.312 0.131,-0.28 0.131,-0.242C0.131,-0.205 0.137,-0.173 0.149,-0.145C0.16,-0.117 0.177,-0.095 0.198,-0.08C0.219,-0.064 0.243,-0.056 0.271,-0.056Z" style="fill-rule:nonzero;"/>
            </g>
            <g transform="matrix(83.3333,0,0,83.3333,1095.58,205.388)">
                <path d="M0.209,0.012C0.174,0.012 0.14,0.006 0.109,-0.007C0.077,-0.019 0.05,-0.036 0.028,-0.058L0.066,-0.106C0.087,-0.088 0.109,-0.075 0.132,-0.066C0.155,-0.057 0.182,-0.052 0.212,-0.052C0.244,-0.052 0.268,-0.06 0.284,-0.074C0.3,-0.089 0.308,-0.107 0.308,-0.128C0.308,-0.144 0.302,-0.158 0.292,-0.169C0.281,-0.18 0.267,-0.19 0.251,-0.197C0.234,-0.205 0.216,-0.212 0.198,-0.219C0.174,-0.228 0.151,-0.238 0.129,-0.25C0.107,-0.261 0.089,-0.276 0.076,-0.294C0.062,-0.311 0.055,-0.334 0.055,-0.36C0.055,-0.399 0.07,-0.432 0.099,-0.459C0.129,-0.485 0.17,-0.498 0.223,-0.498C0.253,-0.498 0.281,-0.493 0.307,-0.483C0.333,-0.473 0.355,-0.459 0.374,-0.443L0.336,-0.396C0.319,-0.408 0.301,-0.417 0.283,-0.424C0.265,-0.431 0.245,-0.434 0.223,-0.434C0.193,-0.434 0.17,-0.427 0.156,-0.413C0.141,-0.399 0.134,-0.383 0.134,-0.364C0.134,-0.349 0.138,-0.337 0.147,-0.327C0.156,-0.318 0.168,-0.309 0.184,-0.302C0.199,-0.295 0.217,-0.288 0.237,-0.281C0.262,-0.271 0.287,-0.261 0.31,-0.249C0.332,-0.238 0.351,-0.223 0.365,-0.205C0.38,-0.186 0.387,-0.162 0.387,-0.133C0.387,-0.106 0.38,-0.082 0.366,-0.06C0.353,-0.038 0.333,-0.021 0.306,-0.008C0.28,0.005 0.248,0.012 0.209,0.012Z" style="fill-rule:nonzero;"/>
            </g>
            <g transform="matrix(83.3333,0,0,83.3333,1130.51,205.388)">
                <path d="M0.082,0.205L0.082,-0.486L0.15,-0.486L0.157,-0.43L0.16,-0.43C0.182,-0.449 0.206,-0.465 0.233,-0.478C0.259,-0.491 0.287,-0.498 0.315,-0.498C0.356,-0.498 0.392,-0.488 0.42,-0.468C0.449,-0.447 0.471,-0.418 0.485,-0.381C0.5,-0.344 0.507,-0.3 0.507,-0.25C0.507,-0.195 0.497,-0.148 0.478,-0.109C0.458,-0.07 0.432,-0.04 0.4,-0.019C0.368,0.002 0.334,0.012 0.297,0.012C0.275,0.012 0.253,0.007 0.23,-0.003C0.207,-0.013 0.184,-0.027 0.162,-0.044L0.164,0.041L0.164,0.205L0.082,0.205ZM0.283,-0.057C0.309,-0.057 0.333,-0.065 0.354,-0.08C0.375,-0.096 0.392,-0.118 0.404,-0.147C0.416,-0.175 0.422,-0.21 0.422,-0.25C0.422,-0.285 0.418,-0.317 0.409,-0.344C0.401,-0.371 0.387,-0.392 0.368,-0.406C0.349,-0.421 0.325,-0.429 0.294,-0.429C0.274,-0.429 0.253,-0.423 0.232,-0.412C0.211,-0.401 0.188,-0.385 0.164,-0.363L0.164,-0.108C0.186,-0.089 0.208,-0.076 0.228,-0.069C0.249,-0.061 0.267,-0.057 0.283,-0.057Z" style="fill-rule:nonzero;"/>
            </g>
            <g transform="matrix(83.3333,0,0,83.3333,1176.73,205.388)">
                <path d="M0.04,-0L0.04,-0.05C0.103,-0.113 0.158,-0.168 0.202,-0.217C0.247,-0.265 0.281,-0.309 0.305,-0.348C0.328,-0.387 0.34,-0.424 0.34,-0.458C0.34,-0.495 0.33,-0.525 0.31,-0.548C0.29,-0.571 0.26,-0.583 0.219,-0.583C0.192,-0.583 0.168,-0.575 0.145,-0.561C0.122,-0.546 0.102,-0.528 0.083,-0.506L0.037,-0.551C0.064,-0.581 0.092,-0.605 0.122,-0.623C0.152,-0.641 0.188,-0.65 0.229,-0.65C0.268,-0.65 0.302,-0.642 0.331,-0.627C0.36,-0.611 0.382,-0.589 0.397,-0.561C0.413,-0.533 0.42,-0.5 0.421,-0.463C0.42,-0.422 0.409,-0.381 0.386,-0.34C0.363,-0.299 0.331,-0.256 0.291,-0.212C0.251,-0.167 0.205,-0.118 0.153,-0.065C0.17,-0.067 0.188,-0.068 0.207,-0.069C0.226,-0.07 0.244,-0.071 0.26,-0.071L0.452,-0.071L0.452,-0L0.04,-0Z" style="fill-rule:nonzero;"/>
            </g>
            <g transform="matrix(83.3333,0,0,83.3333,1218.15,205.388)">
            </g>
        </g>
    </g>
    <g transform="matrix(1,0,0,1,150.033,223.542)">
        <g transform="matrix(0.558907,0,0,0.714512,445.072,81.7915)">
            <path d="M1896.36,120.893L1896.36,239.613C1896.36,272.375 1862.36,298.973 1820.48,298.973L1024.66,298.973C982.781,298.973 948.778,272.375 948.778,239.613L948.778,120.893C948.778,88.131 982.781,61.533 1024.66,61.533L1820.48,61.533C1862.36,61.533 1896.36,88.131 1896.36,120.893Z" style="fill:rgb(242,209,214);stroke:white;stroke-width:25.98px;"/>
        </g>
        <g transform="matrix(1,0,0,1,209.593,33.9976)">
            <g transform="matrix(83.3333,0,0,83.3333,808.366,205.388)">
                <path d="M0.09,-0L0.09,-0.656L0.468,-0.656L0.468,-0.586L0.173,-0.586L0.173,-0.38L0.422,-0.38L0.422,-0.309L0.173,-0.309L0.173,-0.071L0.478,-0.071L0.478,-0L0.09,-0Z" style="fill-rule:nonzero;"/>
            </g>
            <g transform="matrix(83.3333,0,0,83.3333,852.277,205.388)">
                <path d="M0.09,-0L0.09,-0.656L0.195,-0.656L0.319,-0.305C0.327,-0.283 0.334,-0.261 0.341,-0.239C0.349,-0.217 0.356,-0.193 0.363,-0.169L0.367,-0.169C0.374,-0.193 0.381,-0.217 0.388,-0.239C0.394,-0.261 0.401,-0.283 0.409,-0.305L0.533,-0.656L0.637,-0.656L0.637,-0L0.559,-0L0.559,-0.361C0.559,-0.38 0.56,-0.402 0.561,-0.426C0.562,-0.45 0.564,-0.474 0.566,-0.497C0.567,-0.521 0.569,-0.543 0.571,-0.562L0.567,-0.562L0.516,-0.404L0.393,-0.065L0.332,-0.065L0.209,-0.404L0.158,-0.562L0.154,-0.562C0.156,-0.543 0.158,-0.521 0.16,-0.497C0.161,-0.474 0.163,-0.45 0.164,-0.426C0.165,-0.402 0.166,-0.38 0.166,-0.361L0.166,-0L0.09,-0Z" style="fill-rule:nonzero;"/>
            </g>
            <g transform="matrix(83.3333,0,0,83.3333,912.846,205.388)">
                <path d="M0.09,-0L0.09,-0.656L0.254,-0.656C0.321,-0.656 0.378,-0.644 0.424,-0.618C0.47,-0.593 0.504,-0.556 0.528,-0.508C0.552,-0.459 0.564,-0.4 0.564,-0.331C0.564,-0.261 0.552,-0.202 0.528,-0.153C0.505,-0.103 0.471,-0.065 0.425,-0.039C0.38,-0.013 0.324,-0 0.258,-0L0.09,-0ZM0.173,-0.068L0.248,-0.068C0.299,-0.068 0.342,-0.079 0.376,-0.1C0.41,-0.12 0.435,-0.15 0.452,-0.189C0.469,-0.228 0.478,-0.275 0.478,-0.331C0.478,-0.386 0.469,-0.433 0.452,-0.471C0.435,-0.509 0.41,-0.538 0.376,-0.558C0.342,-0.578 0.299,-0.588 0.248,-0.588L0.173,-0.588L0.173,-0.068Z" style="fill-rule:nonzero;"/>
            </g>
            <g transform="matrix(83.3333,0,0,83.3333,964.124,205.388)">
                <path d="M0.09,-0L0.09,-0.656L0.295,-0.656C0.34,-0.656 0.379,-0.65 0.414,-0.639C0.448,-0.627 0.475,-0.608 0.495,-0.581C0.515,-0.553 0.525,-0.517 0.525,-0.472C0.525,-0.428 0.515,-0.392 0.495,-0.363C0.475,-0.335 0.448,-0.313 0.414,-0.299C0.379,-0.285 0.34,-0.277 0.295,-0.277L0.173,-0.277L0.173,-0L0.09,-0ZM0.173,-0.345L0.283,-0.345C0.335,-0.345 0.374,-0.356 0.401,-0.377C0.428,-0.398 0.442,-0.429 0.442,-0.472C0.442,-0.515 0.428,-0.545 0.401,-0.562C0.374,-0.58 0.335,-0.589 0.283,-0.589L0.173,-0.589L0.173,-0.345ZM0.45,-0L0.279,-0.3L0.344,-0.344L0.544,-0L0.45,-0Z" style="fill-rule:nonzero;"/>
            </g>
            <g transform="matrix(83.3333,0,0,83.3333,1011.57,205.388)">
            </g>
            <g transform="matrix(83.3333,0,0,83.3333,1028.23,205.388)">
                <path d="M0.09,-0L0.09,-0.656L0.173,-0.656L0.173,-0.381L0.479,-0.381L0.479,-0.656L0.562,-0.656L0.562,-0L0.479,-0L0.479,-0.309L0.173,-0.309L0.173,-0L0.09,-0Z" style="fill-rule:nonzero;"/>
            </g>
            <g transform="matrix(83.3333,0,0,83.3333,1082.55,205.388)">
                <path d="M0.271,0.012C0.231,0.012 0.194,0.002 0.16,-0.018C0.126,-0.038 0.098,-0.067 0.077,-0.105C0.056,-0.143 0.046,-0.189 0.046,-0.242C0.046,-0.296 0.056,-0.343 0.077,-0.381C0.098,-0.419 0.126,-0.448 0.16,-0.468C0.194,-0.488 0.231,-0.498 0.271,-0.498C0.311,-0.498 0.348,-0.488 0.382,-0.468C0.416,-0.448 0.444,-0.419 0.465,-0.381C0.486,-0.343 0.496,-0.296 0.496,-0.242C0.496,-0.189 0.486,-0.143 0.465,-0.105C0.444,-0.067 0.416,-0.038 0.382,-0.018C0.348,0.002 0.311,0.012 0.271,0.012ZM0.271,-0.056C0.299,-0.056 0.324,-0.064 0.345,-0.08C0.366,-0.095 0.382,-0.117 0.394,-0.145C0.406,-0.173 0.411,-0.205 0.411,-0.242C0.411,-0.28 0.406,-0.312 0.394,-0.34C0.382,-0.368 0.366,-0.39 0.345,-0.406C0.324,-0.422 0.299,-0.43 0.271,-0.43C0.243,-0.43 0.219,-0.422 0.198,-0.406C0.177,-0.39 0.16,-0.368 0.149,-0.34C0.137,-0.312 0.131,-0.28 0.131,-0.242C0.131,-0.205 0.137,-0.173 0.149,-0.145C0.16,-0.117 0.177,-0.095 0.198,-0.08C0.219,-0.064 0.243,-0.056 0.271,-0.056Z" style="fill-rule:nonzero;"/>
            </g>
            <g transform="matrix(83.3333,0,0,83.3333,1127.57,205.388)">
                <path d="M0.209,0.012C0.174,0.012 0.14,0.006 0.109,-0.007C0.077,-0.019 0.05,-0.036 0.028,-0.058L0.066,-0.106C0.087,-0.088 0.109,-0.075 0.132,-0.066C0.155,-0.057 0.182,-0.052 0.212,-0.052C0.244,-0.052 0.268,-0.06 0.284,-0.074C0.3,-0.089 0.308,-0.107 0.308,-0.128C0.308,-0.144 0.302,-0.158 0.292,-0.169C0.281,-0.18 0.267,-0.19 0.251,-0.197C0.234,-0.205 0.216,-0.212 0.198,-0.219C0.174,-0.228 0.151,-0.238 0.129,-0.25C0.107,-0.261 0.089,-0.276 0.076,-0.294C0.062,-0.311 0.055,-0.334 0.055,-0.36C0.055,-0.399 0.07,-0.432 0.099,-0.459C0.129,-0.485 0.17,-0.498 0.223,-0.498C0.253,-0.498 0.281,-0.493 0.307,-0.483C0.333,-0.473 0.355,-0.459 0.374,-0.443L0.336,-0.396C0.319,-0.408 0.301,-0.417 0.283,-0.424C0.265,-0.431 0.245,-0.434 0.223,-0.434C0.193,-0.434 0.17,-0.427 0.156,-0.413C0.141,-0.399 0.134,-0.383 0.134,-0.364C0.134,-0.349 0.138,-0.337 0.147,-0.327C0.156,-0.318 0.168,-0.309 0.184,-0.302C0.199,-0.295 0.217,-0.288 0.237,-0.281C0.262,-0.271 0.287,-0.261 0.31,-0.249C0.332,-0.238 0.351,-0.223 0.365,-0.205C0.38,-0.186 0.387,-0.162 0.387,-0.133C0.387,-0.106 0.38,-0.082 0.366,-0.06C0.353,-0.038 0.333,-0.021 0.306,-0.008C0.28,0.005 0.248,0.012 0.209,0.012Z" style="fill-rule:nonzero;"/>
            </g>
            <g transform="matrix(83.3333,0,0,83.3333,1162.5,205.388)">
                <path d="M0.082,0.205L0.082,-0.486L0.15,-0.486L0.157,-0.43L0.16,-0.43C0.182,-0.449 0.206,-0.465 0.233,-0.478C0.259,-0.491 0.287,-0.498 0.315,-0.498C0.356,-0.498 0.392,-0.488 0.42,-0.468C0.449,-0.447 0.471,-0.418 0.485,-0.381C0.5,-0.344 0.507,-0.3 0.507,-0.25C0.507,-0.195 0.497,-0.148 0.478,-0.109C0.458,-0.07 0.432,-0.04 0.4,-0.019C0.368,0.002 0.334,0.012 0.297,0.012C0.275,0.012 0.253,0.007 0.23,-0.003C0.207,-0.013 0.184,-0.027 0.162,-0.044L0.164,0.041L0.164,0.205L0.082,0.205ZM0.283,-0.057C0.309,-0.057 0.333,-0.065 0.354,-0.08C0.375,-0.096 0.392,-0.118 0.404,-0.147C0.416,-0.175 0.422,-0.21 0.422,-0.25C0.422,-0.285 0.418,-0.317 0.409,-0.344C0.401,-0.371 0.387,-0.392 0.368,-0.406C0.349,-0.421 0.325,-0.429 0.294,-0.429C0.274,-0.429 0.253,-0.423 0.232,-0.412C0.211,-0.401 0.188,-0.385 0.164,-0.363L0.164,-0.108C0.186,-0.089 0.208,-0.076 0.228,-0.069C0.249,-0.061 0.267,-0.057 0.283,-0.057Z" style="fill-rule:nonzero;"/>
            </g>
            <g transform="matrix(83.3333,0,0,83.3333,1208.73,205.388)">
                <path d="M0.079,-0L0.079,-0.068L0.225,-0.068L0.225,-0.538L0.109,-0.538L0.109,-0.591C0.138,-0.596 0.163,-0.603 0.185,-0.61C0.207,-0.618 0.227,-0.627 0.244,-0.638L0.307,-0.638L0.307,-0.068L0.439,-0.068L0.439,-0L0.079,-0Z" style="fill-rule:nonzero;"/>
            </g>
            <g transform="matrix(83.3333,0,0,83.3333,1250.15,205.388)">
            </g>
        </g>
    </g>
    <g transform="matrix(1,0,0,1,-967.018,849.382)">
        <g transform="matrix(0.558907,0,0,0.714512,445.072,81.7915)">
            <path d="M1896.36,120.893L1896.36,239.613C1896.36,272.375 1862.36,298.973 1820.48,298.973L1024.66,298.973C982.781,298.973 948.778,272.375 948.778,239.613L948.778,120.893C948.778,88.131 982.781,61.533 1024.66,61.533L1820.48,61.533C1862.36,61.533 1896.36,88.131 1896.36,120.893Z" style="fill:rgb(242,209,214);stroke:white;stroke-width:25.98px;"/>
        </g>
        <g transform="matrix(1,0,0,1,209.593,33.9976)">
            <g transform="matrix(83.3333,0,0,83.3333,808.366,205.388)">
                <path d="M0.09,-0L0.09,-0.656L0.468,-0.656L0.468,-0.586L0.173,-0.586L0.173,-0.38L0.422,-0.38L0.422,-0.309L0.173,-0.309L0.173,-0.071L0.478,-0.071L0.478,-0L0.09,-0Z" style="fill-rule:nonzero;"/>
            </g>
            <g transform="matrix(83.3333,0,0,83.3333,852.277,205.388)">
                <path d="M0.09,-0L0.09,-0.656L0.195,-0.656L0.319,-0.305C0.327,-0.283 0.334,-0.261 0.341,-0.239C0.349,-0.217 0.356,-0.193 0.363,-0.169L0.367,-0.169C0.374,-0.193 0.381,-0.217 0.388,-0.239C0.394,-0.261 0.401,-0.283 0.409,-0.305L0.533,-0.656L0.637,-0.656L0.637,-0L0.559,-0L0.559,-0.361C0.559,-0.38 0.56,-0.402 0.561,-0.426C0.562,-0.45 0.564,-0.474 0.566,-0.497C0.567,-0.521 0.569,-0.543 0.571,-0.562L0.567,-0.562L0.516,-0.404L0.393,-0.065L0.332,-0.065L0.209,-0.404L0.158,-0.562L0.154,-0.562C0.156,-0.543 0.158,-0.521 0.16,-0.497C0.161,-0.474 0.163,-0.45 0.164,-0.426C0.165,-0.402 0.166,-0.38 0.166,-0.361L0.166,-0L0.09,-0Z" style="fill-rule:nonzero;"/>
            </g>
            <g transform="matrix(83.3333,0,0,83.3333,912.846,205.388)">
                <path d="M0.09,-0L0.09,-0.656L0.254,-0.656C0.321,-0.656 0.378,-0.644 0.424,-0.618C0.47,-0.593 0.504,-0.556 0.528,-0.508C0.552,-0.459 0.564,-0.4 0.564,-0.331C0.564,-0.261 0.552,-0.202 0.528,-0.153C0.505,-0.103 0.471,-0.065 0.425,-0.039C0.38,-0.013 0.324,-0 0.258,-0L0.09,-0ZM0.173,-0.068L0.248,-0.068C0.299,-0.068 0.342,-0.079 0.376,-0.1C0.41,-0.12 0.435,-0.15 0.452,-0.189C0.469,-0.228 0.478,-0.275 0.478,-0.331C0.478,-0.386 0.469,-0.433 0.452,-0.471C0.435,-0.509 0.41,-0.538 0.376,-0.558C0.342,-0.578 0.299,-0.588 0.248,-0.588L0.173,-0.588L0.173,-0.068Z" style="fill-rule:nonzero;"/>
            </g>
            <g transform="matrix(83.3333,0,0,83.3333,964.124,205.388)">
                <path d="M0.09,-0L0.09,-0.656L0.295,-0.656C0.34,-0.656 0.379,-0.65 0.414,-0.639C0.448,-0.627 0.475,-0.608 0.495,-0.581C0.515,-0.553 0.525,-0.517 0.525,-0.472C0.525,-0.428 0.515,-0.392 0.495,-0.363C0.475,-0.335 0.448,-0.313 0.414,-0.299C0.379,-0.285 0.34,-0.277 0.295,-0.277L0.173,-0.277L0.173,-0L0.09,-0ZM0.173,-0.345L0.283,-0.345C0.335,-0.345 0.374,-0.356 0.401,-0.377C0.428,-0.398 0.442,-0.429 0.442,-0.472C0.442,-0.515 0.428,-0.545 0.401,-0.562C0.374,-0.58 0.335,-0.589 0.283,-0.589L0.173,-0.589L0.173,-0.345ZM0.45,-0L0.279,-0.3L0.344,-0.344L0.544,-0L0.45,-0Z" style="fill-rule:nonzero;"/>
            </g>
            <g transform="matrix(83.3333,0,0,83.3333,1011.57,205.388)">
            </g>
            <g transform="matrix(83.3333,0,0,83.3333,1028.23,205.388)">
                <path d="M0.09,-0L0.09,-0.656L0.173,-0.656L0.173,-0.381L0.479,-0.381L0.479,-0.656L0.562,-0.656L0.562,-0L0.479,-0L0.479,-0.309L0.173,-0.309L0.173,-0L0.09,-0Z" style="fill-rule:nonzero;"/>
            </g>
            <g transform="matrix(83.3333,0,0,83.3333,1082.55,205.388)">
                <path d="M0.271,0.012C0.231,0.012 0.194,0.002 0.16,-0.018C0.126,-0.038 0.098,-0.067 0.077,-0.105C0.056,-0.143 0.046,-0.189 0.046,-0.242C0.046,-0.296 0.056,-0.343 0.077,-0.381C0.098,-0.419 0.126,-0.448 0.16,-0.468C0.194,-0.488 0.231,-0.498 0.271,-0.498C0.311,-0.498 0.348,-0.488 0.382,-0.468C0.416,-0.448 0.444,-0.419 0.465,-0.381C0.486,-0.343 0.496,-0.296 0.496,-0.242C0.496,-0.189 0.486,-0.143 0.465,-0.105C0.444,-0.067 0.416,-0.038 0.382,-0.018C0.348,0.002 0.311,0.012 0.271,0.012ZM0.271,-0.056C0.299,-0.056 0.324,-0.064 0.345,-0.08C0.366,-0.095 0.382,-0.117 0.394,-0.145C0.406,-0.173 0.411,-0.205 0.411,-0.242C0.411,-0.28 0.406,-0.312 0.394,-0.34C0.382,-0.368 0.366,-0.39 0.345,-0.406C0.324,-0.422 0.299,-0.43 0.271,-0.43C0.243,-0.43 0.219,-0.422 0.198,-0.406C0.177,-0.39 0.16,-0.368 0.149,-0.34C0.137,-0.312 0.131,-0.28 0.131,-0.242C0.131,-0.205 0.137,-0.173 0.149,-0.145C0.16,-0.117 0.177,-0.095 0.198,-0.08C0.219,-0.064 0.243,-0.056 0.271,-0.056Z" style="fill-rule:nonzero;"/>
            </g>
            <g transform="matrix(83.3333,0,0,83.3333,1127.57,205.388)">
                <path d="M0.209,0.012C0.174,0.012 0.14,0.006 0.109,-0.007C0.077,-0.019 0.05,-0.036 0.028,-0.058L0.066,-0.106C0.087,-0.088 0.109,-0.075 0.132,-0.066C0.155,-0.057 0.182,-0.052 0.212,-0.052C0.244,-0.052 0.268,-0.06 0.284,-0.074C0.3,-0.089 0.308,-0.107 0.308,-0.128C0.308,-0.144 0.302,-0.158 0.292,-0.169C0.281,-0.18 0.267,-0.19 0.251,-0.197C0.234,-0.205 0.216,-0.212 0.198,-0.219C0.174,-0.228 0.151,-0.238 0.129,-0.25C0.107,-0.261 0.089,-0.276 0.076,-0.294C0.062,-0.311 0.055,-0.334 0.055,-0.36C0.055,-0.399 0.07,-0.432 0.099,-0.459C0.129,-0.485 0.17,-0.498 0.223,-0.498C0.253,-0.498 0.281,-0.493 0.307,-0.483C0.333,-0.473 0.355,-0.459 0.374,-0.443L0.336,-0.396C0.319,-0.408 0.301,-0.417 0.283,-0.424C0.265,-0.431 0.245,-0.434 0.223,-0.434C0.193,-0.434 0.17,-0.427 0.156,-0.413C0.141,-0.399 0.134,-0.383 0.134,-0.364C0.134,-0.349 0.138,-0.337 0.147,-0.327C0.156,-0.318 0.168,-0.309 0.184,-0.302C0.199,-0.295 0.217,-0.288 0.237,-0.281C0.262,-0.271 0.287,-0.261 0.31,-0.249C0.332,-0.238 0.351,-0.223 0.365,-0.205C0.38,-0.186 0.387,-0.162 0.387,-0.133C0.387,-0.106 0.38,-0.082 0.366,-0.06C0.353,-0.038 0.333,-0.021 0.306,-0.008C0.28,0.005 0.248,0.012 0.209,0.012Z" style="fill-rule:nonzero;"/>
            </g>
            <g transform="matrix(83.3333,0,0,83.3333,1162.5,205.388)">
                <path d="M0.082,0.205L0.082,-0.486L0.15,-0.486L0.157,-0.43L0.16,-0.43C0.182,-0.449 0.206,-0.465 0.233,-0.478C0.259,-0.491 0.287,-0.498 0.315,-0.498C0.356,-0.498 0.392,-0.488 0.42,-0.468C0.449,-0.447 0.471,-0.418 0.485,-0.381C0.5,-0.344 0.507,-0.3 0.507,-0.25C0.507,-0.195 0.497,-0.148 0.478,-0.109C0.458,-0.07 0.432,-0.04 0.4,-0.019C0.368,0.002 0.334,0.012 0.297,0.012C0.275,0.012 0.253,0.007 0.23,-0.003C0.207,-0.013 0.184,-0.027 0.162,-0.044L0.164,0.041L0.164,0.205L0.082,0.205ZM0.283,-0.057C0.309,-0.057 0.333,-0.065 0.354,-0.08C0.375,-0.096 0.392,-0.118 0.404,-0.147C0.416,-0.175 0.422,-0.21 0.422,-0.25C0.422,-0.285 0.418,-0.317 0.409,-0.344C0.401,-0.371 0.387,-0.392 0.368,-0.406C0.349,-0.421 0.325,-0.429 0.294,-0.429C0.274,-0.429 0.253,-0.423 0.232,-0.412C0.211,-0.401 0.188,-0.385 0.164,-0.363L0.164,-0.108C0.186,-0.089 0.208,-0.076 0.228,-0.069C0.249,-0.061 0.267,-0.057 0.283,-0.057Z" style="fill-rule:nonzero;"/>
            </g>
            <g transform="matrix(83.3333,0,0,83.3333,1208.73,205.388)">
                <path d="M0.04,-0L0.04,-0.05C0.103,-0.113 0.158,-0.168 0.202,-0.217C0.247,-0.265 0.281,-0.309 0.305,-0.348C0.328,-0.387 0.34,-0.424 0.34,-0.458C0.34,-0.495 0.33,-0.525 0.31,-0.548C0.29,-0.571 0.26,-0.583 0.219,-0.583C0.192,-0.583 0.168,-0.575 0.145,-0.561C0.122,-0.546 0.102,-0.528 0.083,-0.506L0.037,-0.551C0.064,-0.581 0.092,-0.605 0.122,-0.623C0.152,-0.641 0.188,-0.65 0.229,-0.65C0.268,-0.65 0.302,-0.642 0.331,-0.627C0.36,-0.611 0.382,-0.589 0.397,-0.561C0.413,-0.533 0.42,-0.5 0.421,-0.463C0.42,-0.422 0.409,-0.381 0.386,-0.34C0.363,-0.299 0.331,-0.256 0.291,-0.212C0.251,-0.167 0.205,-0.118 0.153,-0.065C0.17,-0.067 0.188,-0.068 0.207,-0.069C0.226,-0.07 0.244,-0.071 0.26,-0.071L0.452,-0.071L0.452,-0L0.04,-0Z" style="fill-rule:nonzero;"/>
            </g>
            <g transform="matrix(83.3333,0,0,83.3333,1250.15,205.388)">
            </g>
        </g>
    </g>
    <g transform="matrix(1,0,0,1,-967.018,223.542)">
        <g transform="matrix(0.558907,0,0,0.714512,445.072,81.7915)">
            <path d="M1896.36,120.893L1896.36,239.613C1896.36,272.375 1862.36,298.973 1820.48,298.973L1024.66,298.973C982.781,298.973 948.778,272.375 948.778,239.613L948.778,120.893C948.778,88.131 982.781,61.533 1024.66,61.533L1820.48,61.533C1862.36,61.533 1896.36,88.131 1896.36,120.893Z" style="fill:rgb(242,209,214);stroke:white;stroke-width:25.98px;"/>
        </g>
        <g transform="matrix(1,0,0,1,209.593,33.9976)">
            <g transform="matrix(83.3333,0,0,83.3333,818.447,205.388)">
                <path d="M0.09,-0L0.09,-0.656L0.195,-0.656L0.319,-0.305C0.327,-0.283 0.334,-0.261 0.341,-0.239C0.349,-0.217 0.356,-0.193 0.363,-0.169L0.367,-0.169C0.374,-0.193 0.381,-0.217 0.388,-0.239C0.394,-0.261 0.401,-0.283 0.409,-0.305L0.533,-0.656L0.637,-0.656L0.637,-0L0.559,-0L0.559,-0.361C0.559,-0.38 0.56,-0.402 0.561,-0.426C0.562,-0.45 0.564,-0.474 0.566,-0.497C0.567,-0.521 0.569,-0.543 0.571,-0.562L0.567,-0.562L0.516,-0.404L0.393,-0.065L0.332,-0.065L0.209,-0.404L0.158,-0.562L0.154,-0.562C0.156,-0.543 0.158,-0.521 0.16,-0.497C0.161,-0.474 0.163,-0.45 0.164,-0.426C0.165,-0.402 0.166,-0.38 0.166,-0.361L0.166,-0L0.09,-0Z" style="fill-rule:nonzero;"/>
            </g>
            <g transform="matrix(83.3333,0,0,83.3333,879.016,205.388)">
                <path d="M0.279,0.012C0.236,0.012 0.196,0.002 0.161,-0.018C0.125,-0.039 0.097,-0.068 0.076,-0.106C0.056,-0.143 0.045,-0.189 0.045,-0.243C0.045,-0.296 0.056,-0.341 0.077,-0.379C0.098,-0.417 0.125,-0.447 0.159,-0.467C0.192,-0.488 0.228,-0.498 0.265,-0.498C0.306,-0.498 0.342,-0.489 0.371,-0.47C0.399,-0.451 0.421,-0.424 0.436,-0.39C0.451,-0.356 0.458,-0.316 0.458,-0.27C0.458,-0.262 0.458,-0.253 0.457,-0.245C0.457,-0.237 0.456,-0.229 0.454,-0.221L0.104,-0.221L0.104,-0.286L0.384,-0.286C0.384,-0.333 0.374,-0.369 0.354,-0.394C0.333,-0.419 0.304,-0.431 0.266,-0.431C0.244,-0.431 0.222,-0.425 0.201,-0.413C0.18,-0.4 0.162,-0.38 0.148,-0.353C0.135,-0.325 0.128,-0.289 0.128,-0.244C0.128,-0.202 0.135,-0.168 0.149,-0.14C0.164,-0.112 0.183,-0.091 0.208,-0.077C0.233,-0.062 0.26,-0.055 0.289,-0.055C0.312,-0.055 0.334,-0.059 0.354,-0.065C0.375,-0.072 0.393,-0.08 0.41,-0.092L0.44,-0.038C0.419,-0.023 0.395,-0.011 0.369,-0.002C0.342,0.007 0.312,0.012 0.279,0.012Z" style="fill-rule:nonzero;"/>
            </g>
            <g transform="matrix(83.3333,0,0,83.3333,920.332,205.388)">
                <path d="M0.248,0.012C0.187,0.012 0.138,-0.01 0.102,-0.055C0.066,-0.099 0.047,-0.162 0.047,-0.242C0.047,-0.295 0.057,-0.34 0.077,-0.378C0.097,-0.417 0.122,-0.446 0.154,-0.467C0.186,-0.488 0.221,-0.498 0.258,-0.498C0.286,-0.498 0.311,-0.493 0.332,-0.483C0.352,-0.473 0.373,-0.46 0.394,-0.442L0.39,-0.525L0.39,-0.712L0.473,-0.712L0.473,-0L0.405,-0L0.398,-0.057L0.395,-0.057C0.376,-0.039 0.354,-0.022 0.329,-0.009C0.304,0.005 0.277,0.012 0.248,0.012ZM0.266,-0.057C0.288,-0.057 0.31,-0.063 0.33,-0.074C0.35,-0.085 0.37,-0.102 0.39,-0.124L0.39,-0.378C0.37,-0.397 0.35,-0.41 0.331,-0.418C0.312,-0.425 0.292,-0.429 0.272,-0.429C0.246,-0.429 0.223,-0.421 0.202,-0.406C0.181,-0.39 0.164,-0.369 0.151,-0.341C0.139,-0.313 0.132,-0.28 0.132,-0.243C0.132,-0.185 0.144,-0.139 0.167,-0.107C0.19,-0.074 0.223,-0.057 0.266,-0.057Z" style="fill-rule:nonzero;"/>
            </g>
            <g transform="matrix(83.3333,0,0,83.3333,966.558,205.388)">
                <path d="M0.209,0.012C0.174,0.012 0.14,0.006 0.109,-0.007C0.077,-0.019 0.05,-0.036 0.028,-0.058L0.066,-0.106C0.087,-0.088 0.109,-0.075 0.132,-0.066C0.155,-0.057 0.182,-0.052 0.212,-0.052C0.244,-0.052 0.268,-0.06 0.284,-0.074C0.3,-0.089 0.308,-0.107 0.308,-0.128C0.308,-0.144 0.302,-0.158 0.292,-0.169C0.281,-0.18 0.267,-0.19 0.251,-0.197C0.234,-0.205 0.216,-0.212 0.198,-0.219C0.174,-0.228 0.151,-0.238 0.129,-0.25C0.107,-0.261 0.089,-0.276 0.076,-0.294C0.062,-0.311 0.055,-0.334 0.055,-0.36C0.055,-0.399 0.07,-0.432 0.099,-0.459C0.129,-0.485 0.17,-0.498 0.223,-0.498C0.253,-0.498 0.281,-0.493 0.307,-0.483C0.333,-0.473 0.355,-0.459 0.374,-0.443L0.336,-0.396C0.319,-0.408 0.301,-0.417 0.283,-0.424C0.265,-0.431 0.245,-0.434 0.223,-0.434C0.193,-0.434 0.17,-0.427 0.156,-0.413C0.141,-0.399 0.134,-0.383 0.134,-0.364C0.134,-0.349 0.138,-0.337 0.147,-0.327C0.156,-0.318 0.168,-0.309 0.184,-0.302C0.199,-0.295 0.217,-0.288 0.237,-0.281C0.262,-0.271 0.287,-0.261 0.31,-0.249C0.332,-0.238 0.351,-0.223 0.365,-0.205C0.38,-0.186 0.387,-0.162 0.387,-0.133C0.387,-0.106 0.38,-0.082 0.366,-0.06C0.353,-0.038 0.333,-0.021 0.306,-0.008C0.28,0.005 0.248,0.012 0.209,0.012Z" style="fill-rule:nonzero;"/>
            </g>
            <g transform="matrix(83.3333,0,0,83.3333,1001.49,205.388)">
            </g>
            <g transform="matrix(83.3333,0,0,83.3333,1018.15,205.388)">
                <path d="M0.09,-0L0.09,-0.656L0.173,-0.656L0.173,-0.381L0.479,-0.381L0.479,-0.656L0.562,-0.656L0.562,-0L0.479,-0L0.479,-0.309L0.173,-0.309L0.173,-0L0.09,-0Z" style="fill-rule:nonzero;"/>
            </g>
            <g transform="matrix(83.3333,0,0,83.3333,1072.47,205.388)">
                <path d="M0.271,0.012C0.231,0.012 0.194,0.002 0.16,-0.018C0.126,-0.038 0.098,-0.067 0.077,-0.105C0.056,-0.143 0.046,-0.189 0.046,-0.242C0.046,-0.296 0.056,-0.343 0.077,-0.381C0.098,-0.419 0.126,-0.448 0.16,-0.468C0.194,-0.488 0.231,-0.498 0.271,-0.498C0.311,-0.498 0.348,-0.488 0.382,-0.468C0.416,-0.448 0.444,-0.419 0.465,-0.381C0.486,-0.343 0.496,-0.296 0.496,-0.242C0.496,-0.189 0.486,-0.143 0.465,-0.105C0.444,-0.067 0.416,-0.038 0.382,-0.018C0.348,0.002 0.311,0.012 0.271,0.012ZM0.271,-0.056C0.299,-0.056 0.324,-0.064 0.345,-0.08C0.366,-0.095 0.382,-0.117 0.394,-0.145C0.406,-0.173 0.411,-0.205 0.411,-0.242C0.411,-0.28 0.406,-0.312 0.394,-0.34C0.382,-0.368 0.366,-0.39 0.345,-0.406C0.324,-0.422 0.299,-0.43 0.271,-0.43C0.243,-0.43 0.219,-0.422 0.198,-0.406C0.177,-0.39 0.16,-0.368 0.149,-0.34C0.137,-0.312 0.131,-0.28 0.131,-0.242C0.131,-0.205 0.137,-0.173 0.149,-0.145C0.16,-0.117 0.177,-0.095 0.198,-0.08C0.219,-0.064 0.243,-0.056 0.271,-0.056Z" style="fill-rule:nonzero;"/>
            </g>
            <g transform="matrix(83.3333,0,0,83.3333,1117.49,205.388)">
                <path d="M0.209,0.012C0.174,0.012 0.14,0.006 0.109,-0.007C0.077,-0.019 0.05,-0.036 0.028,-0.058L0.066,-0.106C0.087,-0.088 0.109,-0.075 0.132,-0.066C0.155,-0.057 0.182,-0.052 0.212,-0.052C0.244,-0.052 0.268,-0.06 0.284,-0.074C0.3,-0.089 0.308,-0.107 0.308,-0.128C0.308,-0.144 0.302,-0.158 0.292,-0.169C0.281,-0.18 0.267,-0.19 0.251,-0.197C0.234,-0.205 0.216,-0.212 0.198,-0.219C0.174,-0.228 0.151,-0.238 0.129,-0.25C0.107,-0.261 0.089,-0.276 0.076,-0.294C0.062,-0.311 0.055,-0.334 0.055,-0.36C0.055,-0.399 0.07,-0.432 0.099,-0.459C0.129,-0.485 0.17,-0.498 0.223,-0.498C0.253,-0.498 0.281,-0.493 0.307,-0.483C0.333,-0.473 0.355,-0.459 0.374,-0.443L0.336,-0.396C0.319,-0.408 0.301,-0.417 0.283,-0.424C0.265,-0.431 0.245,-0.434 0.223,-0.434C0.193,-0.434 0.17,-0.427 0.156,-0.413C0.141,-0.399 0.134,-0.383 0.134,-0.364C0.134,-0.349 0.138,-0.337 0.147,-0.327C0.156,-0.318 0.168,-0.309 0.184,-0.302C0.199,-0.295 0.217,-0.288 0.237,-0.281C0.262,-0.271 0.287,-0.261 0.31,-0.249C0.332,-0.238 0.351,-0.223 0.365,-0.205C0.38,-0.186 0.387,-0.162 0.387,-0.133C0.387,-0.106 0.38,-0.082 0.366,-0.06C0.353,-0.038 0.333,-0.021 0.306,-0.008C0.28,0.005 0.248,0.012 0.209,0.012Z" style="fill-rule:nonzero;"/>
            </g>
            <g transform="matrix(83.3333,0,0,83.3333,1152.42,205.388)">
                <path d="M0.082,0.205L0.082,-0.486L0.15,-0.486L0.157,-0.43L0.16,-0.43C0.182,-0.449 0.206,-0.465 0.233,-0.478C0.259,-0.491 0.287,-0.498 0.315,-0.498C0.356,-0.498 0.392,-0.488 0.42,-0.468C0.449,-0.447 0.471,-0.418 0.485,-0.381C0.5,-0.344 0.507,-0.3 0.507,-0.25C0.507,-0.195 0.497,-0.148 0.478,-0.109C0.458,-0.07 0.432,-0.04 0.4,-0.019C0.368,0.002 0.334,0.012 0.297,0.012C0.275,0.012 0.253,0.007 0.23,-0.003C0.207,-0.013 0.184,-0.027 0.162,-0.044L0.164,0.041L0.164,0.205L0.082,0.205ZM0.283,-0.057C0.309,-0.057 0.333,-0.065 0.354,-0.08C0.375,-0.096 0.392,-0.118 0.404,-0.147C0.416,-0.175 0.422,-0.21 0.422,-0.25C0.422,-0.285 0.418,-0.317 0.409,-0.344C0.401,-0.371 0.387,-0.392 0.368,-0.406C0.349,-0.421 0.325,-0.429 0.294,-0.429C0.274,-0.429 0.253,-0.423 0.232,-0.412C0.211,-0.401 0.188,-0.385 0.164,-0.363L0.164,-0.108C0.186,-0.089 0.208,-0.076 0.228,-0.069C0.249,-0.061 0.267,-0.057 0.283,-0.057Z" style="fill-rule:nonzero;"/>
            </g>
            <g transform="matrix(83.3333,0,0,83.3333,1198.65,205.388)">
                <path d="M0.04,-0L0.04,-0.05C0.103,-0.113 0.158,-0.168 0.202,-0.217C0.247,-0.265 0.281,-0.309 0.305,-0.348C0.328,-0.387 0.34,-0.424 0.34,-0.458C0.34,-0.495 0.33,-0.525 0.31,-0.548C0.29,-0.571 0.26,-0.583 0.219,-0.583C0.192,-0.583 0.168,-0.575 0.145,-0.561C0.122,-0.546 0.102,-0.528 0.083,-0.506L0.037,-0.551C0.064,-0.581 0.092,-0.605 0.122,-0.623C0.152,-0.641 0.188,-0.65 0.229,-0.65C0.268,-0.65 0.302,-0.642 0.331,-0.627C0.36,-0.611 0.382,-0.589 0.397,-0.561C0.413,-0.533 0.42,-0.5 0.421,-0.463C0.42,-0.422 0.409,-0.381 0.386,-0.34C0.363,-0.299 0.331,-0.256 0.291,-0.212C0.251,-0.167 0.205,-0.118 0.153,-0.065C0.17,-0.067 0.188,-0.068 0.207,-0.069C0.226,-0.07 0.244,-0.071 0.26,-0.071L0.452,-0.071L0.452,-0L0.04,-0Z" style="fill-rule:nonzero;"/>
            </g>
            <g transform="matrix(83.3333,0,0,83.3333,1240.07,205.388)">
            </g>
        </g>
    </g>
    <g transform="matrix(1,0,0,1,150.033,849.382)">
        <g transform="matrix(0.558907,0,0,0.714512,445.072,81.7915)">
            <path d="M1896.36,120.893L1896.36,239.613C1896.36,272.375 1862.36,298.973 1820.48,298.973L1024.66,298.973C982.781,298.973 948.778,272.375 948.778,239.613L948.778,120.893C948.778,88.131 982.781,61.533 1024.66,61.533L1820.48,61.533C1862.36,61.533 1896.36,88.131 1896.36,120.893Z" style="fill:rgb(242,209,214);stroke:white;stroke-width:25.98px;"/>
        </g>
        <g transform="matrix(1,0,0,1,209.593,33.9976)">
            <g transform="matrix(83.3333,0,0,83.3333,818.447,205.388)">
                <path d="M0.09,-0L0.09,-0.656L0.195,-0.656L0.319,-0.305C0.327,-0.283 0.334,-0.261 0.341,-0.239C0.349,-0.217 0.356,-0.193 0.363,-0.169L0.367,-0.169C0.374,-0.193 0.381,-0.217 0.388,-0.239C0.394,-0.261 0.401,-0.283 0.409,-0.305L0.533,-0.656L0.637,-0.656L0.637,-0L0.559,-0L0.559,-0.361C0.559,-0.38 0.56,-0.402 0.561,-0.426C0.562,-0.45 0.564,-0.474 0.566,-0.497C0.567,-0.521 0.569,-0.543 0.571,-0.562L0.567,-0.562L0.516,-0.404L0.393,-0.065L0.332,-0.065L0.209,-0.404L0.158,-0.562L0.154,-0.562C0.156,-0.543 0.158,-0.521 0.16,-0.497C0.161,-0.474 0.163,-0.45 0.164,-0.426C0.165,-0.402 0.166,-0.38 0.166,-0.361L0.166,-0L0.09,-0Z" style="fill-rule:nonzero;"/>
            </g>
            <g transform="matrix(83.3333,0,0,83.3333,879.016,205.388)">
                <path d="M0.279,0.012C0.236,0.012 0.196,0.002 0.161,-0.018C0.125,-0.039 0.097,-0.068 0.076,-0.106C0.056,-0.143 0.045,-0.189 0.045,-0.243C0.045,-0.296 0.056,-0.341 0.077,-0.379C0.098,-0.417 0.125,-0.447 0.159,-0.467C0.192,-0.488 0.228,-0.498 0.265,-0.498C0.306,-0.498 0.342,-0.489 0.371,-0.47C0.399,-0.451 0.421,-0.424 0.436,-0.39C0.451,-0.356 0.458,-0.316 0.458,-0.27C0.458,-0.262 0.458,-0.253 0.457,-0.245C0.457,-0.237 0.456,-0.229 0.454,-0.221L0.104,-0.221L0.104,-0.286L0.384,-0.286C0.384,-0.333 0.374,-0.369 0.354,-0.394C0.333,-0.419 0.304,-0.431 0.266,-0.431C0.244,-0.431 0.222,-0.425 0.201,-0.413C0.18,-0.4 0.162,-0.38 0.148,-0.353C0.135,-0.325 0.128,-0.289 0.128,-0.244C0.128,-0.202 0.135,-0.168 0.149,-0.14C0.164,-0.112 0.183,-0.091 0.208,-0.077C0.233,-0.062 0.26,-0.055 0.289,-0.055C0.312,-0.055 0.334,-0.059 0.354,-0.065C0.375,-0.072 0.393,-0.08 0.41,-0.092L0.44,-0.038C0.419,-0.023 0.395,-0.011 0.369,-0.002C0.342,0.007 0.312,0.012 0.279,0.012Z" style="fill-rule:nonzero;"/>
            </g>
            <g transform="matrix(83.3333,0,0,83.3333,920.332,205.388)">
                <path d="M0.248,0.012C0.187,0.012 0.138,-0.01 0.102,-0.055C0.066,-0.099 0.047,-0.162 0.047,-0.242C0.047,-0.295 0.057,-0.34 0.077,-0.378C0.097,-0.417 0.122,-0.446 0.154,-0.467C0.186,-0.488 0.221,-0.498 0.258,-0.498C0.286,-0.498 0.311,-0.493 0.332,-0.483C0.352,-0.473 0.373,-0.46 0.394,-0.442L0.39,-0.525L0.39,-0.712L0.473,-0.712L0.473,-0L0.405,-0L0.398,-0.057L0.395,-0.057C0.376,-0.039 0.354,-0.022 0.329,-0.009C0.304,0.005 0.277,0.012 0.248,0.012ZM0.266,-0.057C0.288,-0.057 0.31,-0.063 0.33,-0.074C0.35,-0.085 0.37,-0.102 0.39,-0.124L0.39,-0.378C0.37,-0.397 0.35,-0.41 0.331,-0.418C0.312,-0.425 0.292,-0.429 0.272,-0.429C0.246,-0.429 0.223,-0.421 0.202,-0.406C0.181,-0.39 0.164,-0.369 0.151,-0.341C0.139,-0.313 0.132,-0.28 0.132,-0.243C0.132,-0.185 0.144,-0.139 0.167,-0.107C0.19,-0.074 0.223,-0.057 0.266,-0.057Z" style="fill-rule:nonzero;"/>
            </g>
            <g transform="matrix(83.3333,0,0,83.3333,966.558,205.388)">
                <path d="M0.209,0.012C0.174,0.012 0.14,0.006 0.109,-0.007C0.077,-0.019 0.05,-0.036 0.028,-0.058L0.066,-0.106C0.087,-0.088 0.109,-0.075 0.132,-0.066C0.155,-0.057 0.182,-0.052 0.212,-0.052C0.244,-0.052 0.268,-0.06 0.284,-0.074C0.3,-0.089 0.308,-0.107 0.308,-0.128C0.308,-0.144 0.302,-0.158 0.292,-0.169C0.281,-0.18 0.267,-0.19 0.251,-0.197C0.234,-0.205 0.216,-0.212 0.198,-0.219C0.174,-0.228 0.151,-0.238 0.129,-0.25C0.107,-0.261 0.089,-0.276 0.076,-0.294C0.062,-0.311 0.055,-0.334 0.055,-0.36C0.055,-0.399 0.07,-0.432 0.099,-0.459C0.129,-0.485 0.17,-0.498 0.223,-0.498C0.253,-0.498 0.281,-0.493 0.307,-0.483C0.333,-0.473 0.355,-0.459 0.374,-0.443L0.336,-0.396C0.319,-0.408 0.301,-0.417 0.283,-0.424C0.265,-0.431 0.245,-0.434 0.223,-0.434C0.193,-0.434 0.17,-0.427 0.156,-0.413C0.141,-0.399 0.134,-0.383 0.134,-0.364C0.134,-0.349 0.138,-0.337 0.147,-0.327C0.156,-0.318 0.168,-0.309 0.184,-0.302C0.199,-0.295 0.217,-0.288 0.237,-0.281C0.262,-0.271 0.287,-0.261 0.31,-0.249C0.332,-0.238 0.351,-0.223 0.365,-0.205C0.38,-0.186 0.387,-0.162 0.387,-0.133C0.387,-0.106 0.38,-0.082 0.366,-0.06C0.353,-0.038 0.333,-0.021 0.306,-0.008C0.28,0.005 0.248,0.012 0.209,0.012Z" style="fill-rule:nonzero;"/>
            </g>
            <g transform="matrix(83.3333,0,0,83.3333,1001.49,205.388)">
            </g>
            <g transform="matrix(83.3333,0,0,83.3333,1018.15,205.388)">
                <path d="M0.09,-0L0.09,-0.656L0.173,-0.656L0.173,-0.381L0.479,-0.381L0.479,-0.656L0.562,-0.656L0.562,-0L0.479,-0L0.479,-0.309L0.173,-0.309L0.173,-0L0.09,-0Z" style="fill-rule:nonzero;"/>
            </g>
            <g transform="matrix(83.3333,0,0,83.3333,1072.47,205.388)">
                <path d="M0.271,0.012C0.231,0.012 0.194,0.002 0.16,-0.018C0.126,-0.038 0.098,-0.067 0.077,-0.105C0.056,-0.143 0.046,-0.189 0.046,-0.242C0.046,-0.296 0.056,-0.343 0.077,-0.381C0.098,-0.419 0.126,-0.448 0.16,-0.468C0.194,-0.488 0.231,-0.498 0.271,-0.498C0.311,-0.498 0.348,-0.488 0.382,-0.468C0.416,-0.448 0.444,-0.419 0.465,-0.381C0.486,-0.343 0.496,-0.296 0.496,-0.242C0.496,-0.189 0.486,-0.143 0.465,-0.105C0.444,-0.067 0.416,-0.038 0.382,-0.018C0.348,0.002 0.311,0.012 0.271,0.012ZM0.271,-0.056C0.299,-0.056 0.324,-0.064 0.345,-0.08C0.366,-0.095 0.382,-0.117 0.394,-0.145C0.406,-0.173 0.411,-0.205 0.411,-0.242C0.411,-0.28 0.406,-0.312 0.394,-0.34C0.382,-0.368 0.366,-0.39 0.345,-0.406C0.324,-0.422 0.299,-0.43 0.271,-0.43C0.243,-0.43 0.219,-0.422 0.198,-0.406C0.177,-0.39 0.16,-0.368 0.149,-0.34C0.137,-0.312 0.131,-0.28 0.131,-0.242C0.131,-0.205 0.137,-0.173 0.149,-0.145C0.16,-0.117 0.177,-0.095 0.198,-0.08C0.219,-0.064 0.243,-0.056 0.271,-0.056Z" style="fill-rule:nonzero;"/>
            </g>
            <g transform="matrix(83.3333,0,0,83.3333,1117.49,205.388)">
                <path d="M0.209,0.012C0.174,0.012 0.14,0.006 0.109,-0.007C0.077,-0.019 0.05,-0.036 0.028,-0.058L0.066,-0.106C0.087,-0.088 0.109,-0.075 0.132,-0.066C0.155,-0.057 0.182,-0.052 0.212,-0.052C0.244,-0.052 0.268,-0.06 0.284,-0.074C0.3,-0.089 0.308,-0.107 0.308,-0.128C0.308,-0.144 0.302,-0.158 0.292,-0.169C0.281,-0.18 0.267,-0.19 0.251,-0.197C0.234,-0.205 0.216,-0.212 0.198,-0.219C0.174,-0.228 0.151,-0.238 0.129,-0.25C0.107,-0.261 0.089,-0.276 0.076,-0.294C0.062,-0.311 0.055,-0.334 0.055,-0.36C0.055,-0.399 0.07,-0.432 0.099,-0.459C0.129,-0.485 0.17,-0.498 0.223,-0.498C0.253,-0.498 0.281,-0.493 0.307,-0.483C0.333,-0.473 0.355,-0.459 0.374,-0.443L0.336,-0.396C0.319,-0.408 0.301,-0.417 0.283,-0.424C0.265,-0.431 0.245,-0.434 0.223,-0.434C0.193,-0.434 0.17,-0.427 0.156,-0.413C0.141,-0.399 0.134,-0.383 0.134,-0.364C0.134,-0.349 0.138,-0.337 0.147,-0.327C0.156,-0.318 0.168,-0.309 0.184,-0.302C0.199,-0.295 0.217,-0.288 0.237,-0.281C0.262,-0.271 0.287,-0.261 0.31,-0.249C0.332,-0.238 0.351,-0.223 0.365,-0.205C0.38,-0.186 0.387,-0.162 0.387,-0.133C0.387,-0.106 0.38,-0.082 0.366,-0.06C0.353,-0.038 0.333,-0.021 0.306,-0.008C0.28,0.005 0.248,0.012 0.209,0.012Z" style="fill-rule:nonzero;"/>
            </g>
            <g transform="matrix(83.3333,0,0,83.3333,1152.42,205.388)">
                <path d="M0.082,0.205L0.082,-0.486L0.15,-0.486L0.157,-0.43L0.16,-0.43C0.182,-0.449 0.206,-0.465 0.233,-0.478C0.259,-0.491 0.287,-0.498 0.315,-0.498C0.356,-0.498 0.392,-0.488 0.42,-0.468C0.449,-0.447 0.471,-0.418 0.485,-0.381C0.5,-0.344 0.507,-0.3 0.507,-0.25C0.507,-0.195 0.497,-0.148 0.478,-0.109C0.458,-0.07 0.432,-0.04 0.4,-0.019C0.368,0.002 0.334,0.012 0.297,0.012C0.275,0.012 0.253,0.007 0.23,-0.003C0.207,-0.013 0.184,-0.027 0.162,-0.044L0.164,0.041L0.164,0.205L0.082,0.205ZM0.283,-0.057C0.309,-0.057 0.333,-0.065 0.354,-0.08C0.375,-0.096 0.392,-0.118 0.404,-0.147C0.416,-0.175 0.422,-0.21 0.422,-0.25C0.422,-0.285 0.418,-0.317 0.409,-0.344C0.401,-0.371 0.387,-0.392 0.368,-0.406C0.349,-0.421 0.325,-0.429 0.294,-0.429C0.274,-0.429 0.253,-0.423 0.232,-0.412C0.211,-0.401 0.188,-0.385 0.164,-0.363L0.164,-0.108C0.186,-0.089 0.208,-0.076 0.228,-0.069C0.249,-0.061 0.267,-0.057 0.283,-0.057Z" style="fill-rule:nonzero;"/>
            </g>
            <g transform="matrix(83.3333,0,0,83.3333,1198.65,205.388)">
                <path d="M0.079,-0L0.079,-0.068L0.225,-0.068L0.225,-0.538L0.109,-0.538L0.109,-0.591C0.138,-0.596 0.163,-0.603 0.185,-0.61C0.207,-0.618 0.227,-0.627 0.244,-0.638L0.307,-0.638L0.307,-0.068L0.439,-0.068L0.439,-0L0.079,-0Z" style="fill-rule:nonzero;"/>
            </g>
            <g transform="matrix(83.3333,0,0,83.3333,1240.07,205.388)">
            </g>
        </g>
    </g>
</svg>
