<?xml version="1.0" encoding="UTF-8" standalone="no"?>
<!DOCTYPE svg PUBLIC "-//W3C//DTD SVG 1.1//EN" "http://www.w3.org/Graphics/SVG/1.1/DTD/svg11.dtd">
<svg width="100%" height="100%" viewBox="0 0 629 575" version="1.1" xmlns="http://www.w3.org/2000/svg" xmlns:xlink="http://www.w3.org/1999/xlink" xml:space="preserve" xmlns:serif="http://www.serif.com/" style="fill-rule:evenodd;clip-rule:evenodd;stroke-linecap:round;stroke-linejoin:round;stroke-miterlimit:1.5;">
    <g transform="matrix(1.03389,0,0,1.03389,-225.607,-339.104)">
        <path d="M228.287,338.063L228.287,874.016C924.398,874.016 846.05,874.016 764.24,874.016" style="fill:none;stroke:black;stroke-width:20.15px;"/>
    </g>
    <g transform="matrix(4.03635,0,0,4.03635,-1296.16,-2729.36)">
        <circle cx="346.213" cy="790.383" r="7.315" style="fill-opacity:0.5;"/>
    </g>
    <g transform="matrix(4.03635,0,0,4.03635,-1329.23,-2668.84)">
        <circle cx="346.213" cy="790.383" r="7.315" style="fill-opacity:0.5;"/>
    </g>
    <g transform="matrix(4.03635,0,0,4.03635,-1286.76,-2708.64)">
        <circle cx="346.213" cy="790.383" r="7.315" style="fill-opacity:0.5;"/>
    </g>
    <g transform="matrix(4.03635,0,0,4.03635,-1251.92,-2779.79)">
        <circle cx="346.213" cy="790.383" r="7.315" style="fill-opacity:0.5;"/>
    </g>
    <g transform="matrix(4.03635,0,0,4.03635,-1219.45,-2828.29)">
        <circle cx="346.213" cy="790.383" r="7.315" style="fill-opacity:0.5;"/>
    </g>
    <g transform="matrix(4.03635,0,0,4.03635,-1167.09,-2829.72)">
        <circle cx="346.213" cy="790.383" r="7.315" style="fill-opacity:0.5;"/>
    </g>
    <g transform="matrix(4.03635,0,0,4.03635,-1147.7,-2884.76)">
        <circle cx="346.213" cy="790.383" r="7.315" style="fill-opacity:0.5;"/>
    </g>
    <g transform="matrix(4.03635,0,0,4.03635,-1104.26,-2930.53)">
        <circle cx="346.213" cy="790.383" r="7.315" style="fill-opacity:0.5;"/>
    </g>
    <g transform="matrix(4.03635,0,0,4.03635,-1028.08,-3009.63)">
        <circle cx="346.213" cy="790.383" r="7.315" style="fill-opacity:0.5;"/>
    </g>
    <g transform="matrix(0.88068,0.132669,0.132669,0.852488,-324.723,-240.767)">
        <path d="M293.516,865.394L748.371,359.65" style="fill:none;stroke:rgb(49,115,201);stroke-width:25.02px;"/>
    </g>
</svg>
