<svg xmlns="http://www.w3.org/2000/svg" width="48" height="48" viewBox="0 0 48 48"><path fill="currentColor" fill-rule="evenodd" d="M2.5 2.5a2 2 0 0 1 2-2h39a2 2 0 1 1 0 4h-1.659c.33 6.235-1.879 10.508-4.284 13.634c-.87 1.131-1.836 2.19-2.627 3.058c-.35.385-.668.733-.926 1.032c-.465.537-.775.947-.968 1.283c-.188.33-.194.472-.194.493s.006.163.194.493c.193.336.503.746.968 1.283c.258.3.575.647.926 1.031c.791.868 1.757 1.928 2.627 3.059c2.405 3.126 4.614 7.399 4.284 13.634H43.5a2 2 0 1 1 0 4h-39a2 2 0 1 1 0-4h1.659c-.329-6.235 1.88-10.508 4.285-13.634c.87-1.131 1.836-2.19 2.627-3.058c.351-.385.668-.733.927-1.032c.465-.537.775-.947.967-1.283c.189-.33.195-.472.195-.493s-.006-.163-.195-.493c-.192-.336-.502-.746-.967-1.283c-.259-.3-.575-.647-.926-1.031c-.792-.868-1.758-1.928-2.628-3.059C8.039 15.008 5.83 10.735 6.159 4.5H4.5a2 2 0 0 1-2-2m7.666 41h27.669c.328-5.2-1.46-8.611-3.448-11.195c-.774-1.007-1.515-1.817-2.245-2.615a62 62 0 0 1-1.164-1.297c-.513-.593-1.027-1.237-1.415-1.916c-.392-.686-.721-1.52-.721-2.477s.33-1.792.721-2.477c.388-.68.902-1.323 1.415-1.916c.387-.447.774-.87 1.164-1.297c.73-.798 1.47-1.608 2.245-2.615c1.988-2.584 3.776-5.994 3.448-11.195h-27.67c-.327 5.2 1.461 8.611 3.45 11.195c.773 1.006 1.514 1.817 2.245 2.615c.39.426.776.85 1.163 1.297c.513.593 1.027 1.237 1.415 1.916c.392.685.722 1.52.722 2.477s-.33 1.792-.722 2.477c-.388.68-.902 1.323-1.415 1.916c-.387.447-.774.87-1.164 1.297c-.73.798-1.47 1.608-2.245 2.615c-1.988 2.584-3.776 5.994-3.448 11.195M24 29.352c-1.229 0-2.509.49-3.685 1.184c-1.19.703-2.359 1.664-3.385 2.723c-1.027 1.059-1.937 2.24-2.595 3.402c-.647 1.139-1.108 2.356-1.108 3.463a1 1 0 0 0 1 1h19.546a1 1 0 0 0 1-1c0-1.107-.462-2.324-1.108-3.463c-.659-1.161-1.568-2.343-2.595-3.402s-2.195-2.02-3.386-2.723c-1.176-.694-2.456-1.184-3.684-1.184m0-19.366c2.919 0 5.89.439 8.19 1.359a1 1 0 0 1 .577 1.244c-.568 1.703-2.05 3.554-3.637 4.954c-.807.712-1.678 1.34-2.532 1.797c-.836.446-1.742.774-2.596.774c-.853 0-1.76-.328-2.596-.774c-.854-.457-1.726-1.085-2.533-1.797c-1.588-1.4-3.072-3.25-3.64-4.954a1 1 0 0 1 .578-1.245c2.299-.918 5.27-1.357 8.19-1.358" clip-rule="evenodd"/></svg>