<?xml version="1.0" encoding="UTF-8"?>
<svg xmlns="http://www.w3.org/2000/svg" xmlns:xlink="http://www.w3.org/1999/xlink" width="720pt" height="360pt" viewBox="0 0 720 360">
<defs>
<g>
<g id="glyph-0-0">
<path d="M 0.71875 0 L 0.71875 -16.078125 L 13.484375 -16.078125 L 13.484375 0 Z M 11.46875 -2.015625 L 11.46875 -14.0625 L 2.734375 -14.0625 L 2.734375 -2.015625 Z M 11.46875 -2.015625 "/>
</g>
<g id="glyph-0-1">
<path d="M 0.9375 -7.25 L 6.421875 -7.25 L 6.421875 -5.234375 L 0.9375 -5.234375 Z M 0.9375 -7.25 "/>
</g>
<g id="glyph-0-2">
<path d="M 2.765625 -4 C 2.898438 -2.875 3.421875 -2.09375 4.328125 -1.65625 C 4.796875 -1.4375 5.335938 -1.328125 5.953125 -1.328125 C 7.117188 -1.328125 7.984375 -1.695312 8.546875 -2.4375 C 9.109375 -3.1875 9.390625 -4.015625 9.390625 -4.921875 C 9.390625 -6.015625 9.054688 -6.859375 8.390625 -7.453125 C 7.722656 -8.054688 6.921875 -8.359375 5.984375 -8.359375 C 5.304688 -8.359375 4.722656 -8.226562 4.234375 -7.96875 C 3.753906 -7.707031 3.34375 -7.34375 3 -6.875 L 1.296875 -6.96875 L 2.484375 -15.40625 L 10.625 -15.40625 L 10.625 -13.5 L 3.953125 -13.5 L 3.296875 -9.140625 C 3.660156 -9.421875 4.003906 -9.628906 4.328125 -9.765625 C 4.910156 -10.003906 5.585938 -10.125 6.359375 -10.125 C 7.796875 -10.125 9.015625 -9.660156 10.015625 -8.734375 C 11.015625 -7.816406 11.515625 -6.644531 11.515625 -5.21875 C 11.515625 -3.738281 11.054688 -2.429688 10.140625 -1.296875 C 9.222656 -0.171875 7.757812 0.390625 5.75 0.390625 C 4.476562 0.390625 3.347656 0.0273438 2.359375 -0.6875 C 1.378906 -1.40625 0.832031 -2.507812 0.71875 -4 Z M 2.765625 -4 "/>
</g>
<g id="glyph-0-3">
<path d="M 6.0625 -15.671875 C 8.09375 -15.671875 9.554688 -14.832031 10.453125 -13.15625 C 11.160156 -11.863281 11.515625 -10.097656 11.515625 -7.859375 C 11.515625 -5.722656 11.195312 -3.960938 10.5625 -2.578125 C 9.632812 -0.578125 8.128906 0.421875 6.046875 0.421875 C 4.171875 0.421875 2.769531 -0.394531 1.84375 -2.03125 C 1.082031 -3.382812 0.703125 -5.210938 0.703125 -7.515625 C 0.703125 -9.296875 0.929688 -10.820312 1.390625 -12.09375 C 2.253906 -14.476562 3.8125 -15.671875 6.0625 -15.671875 Z M 6.046875 -1.375 C 7.066406 -1.375 7.878906 -1.820312 8.484375 -2.71875 C 9.085938 -3.625 9.390625 -5.3125 9.390625 -7.78125 C 9.390625 -9.5625 9.171875 -11.023438 8.734375 -12.171875 C 8.296875 -13.316406 7.445312 -13.890625 6.1875 -13.890625 C 5.019531 -13.890625 4.164062 -13.34375 3.625 -12.25 C 3.09375 -11.164062 2.828125 -9.5625 2.828125 -7.4375 C 2.828125 -5.84375 3 -4.5625 3.34375 -3.59375 C 3.875 -2.113281 4.773438 -1.375 6.046875 -1.375 Z M 6.046875 -1.375 "/>
</g>
<g id="glyph-0-4">
<path d="M 2.140625 -11.09375 L 2.140625 -12.609375 C 3.566406 -12.742188 4.5625 -12.972656 5.125 -13.296875 C 5.6875 -13.617188 6.101562 -14.382812 6.375 -15.59375 L 7.9375 -15.59375 L 7.9375 0 L 5.828125 0 L 5.828125 -11.09375 Z M 2.140625 -11.09375 "/>
</g>
<g id="glyph-0-5">
<path d="M 0.703125 0 C 0.773438 -1.351562 1.050781 -2.523438 1.53125 -3.515625 C 2.019531 -4.515625 2.96875 -5.425781 4.375 -6.25 L 6.484375 -7.46875 C 7.421875 -8.007812 8.078125 -8.472656 8.453125 -8.859375 C 9.054688 -9.460938 9.359375 -10.15625 9.359375 -10.9375 C 9.359375 -11.851562 9.082031 -12.578125 8.53125 -13.109375 C 7.988281 -13.648438 7.257812 -13.921875 6.34375 -13.921875 C 5 -13.921875 4.066406 -13.410156 3.546875 -12.390625 C 3.265625 -11.835938 3.109375 -11.078125 3.078125 -10.109375 L 1.078125 -10.109375 C 1.097656 -11.472656 1.351562 -12.585938 1.84375 -13.453125 C 2.695312 -14.960938 4.203125 -15.71875 6.359375 -15.71875 C 8.148438 -15.71875 9.457031 -15.234375 10.28125 -14.265625 C 11.113281 -13.296875 11.53125 -12.21875 11.53125 -11.03125 C 11.53125 -9.769531 11.085938 -8.695312 10.203125 -7.8125 C 9.691406 -7.289062 8.78125 -6.664062 7.46875 -5.9375 L 5.96875 -5.09375 C 5.25 -4.695312 4.6875 -4.320312 4.28125 -3.96875 C 3.550781 -3.332031 3.09375 -2.628906 2.90625 -1.859375 L 11.453125 -1.859375 L 11.453125 0 Z M 0.703125 0 "/>
</g>
<g id="glyph-0-6">
<path d="M 5.828125 0.421875 C 3.972656 0.421875 2.625 -0.0820312 1.78125 -1.09375 C 0.945312 -2.113281 0.53125 -3.351562 0.53125 -4.8125 L 2.59375 -4.8125 C 2.675781 -3.800781 2.863281 -3.066406 3.15625 -2.609375 C 3.664062 -1.785156 4.59375 -1.375 5.9375 -1.375 C 6.96875 -1.375 7.796875 -1.648438 8.421875 -2.203125 C 9.046875 -2.753906 9.359375 -3.46875 9.359375 -4.34375 C 9.359375 -5.425781 9.03125 -6.179688 8.375 -6.609375 C 7.71875 -7.035156 6.800781 -7.25 5.625 -7.25 C 5.488281 -7.25 5.351562 -7.25 5.21875 -7.25 C 5.082031 -7.25 4.945312 -7.242188 4.8125 -7.234375 L 4.8125 -8.96875 C 5.019531 -8.945312 5.191406 -8.929688 5.328125 -8.921875 C 5.460938 -8.921875 5.613281 -8.921875 5.78125 -8.921875 C 6.507812 -8.921875 7.113281 -9.035156 7.59375 -9.265625 C 8.425781 -9.671875 8.84375 -10.398438 8.84375 -11.453125 C 8.84375 -12.234375 8.5625 -12.832031 8 -13.25 C 7.445312 -13.675781 6.804688 -13.890625 6.078125 -13.890625 C 4.765625 -13.890625 3.851562 -13.453125 3.34375 -12.578125 C 3.070312 -12.097656 2.914062 -11.414062 2.875 -10.53125 L 0.9375 -10.53125 C 0.9375 -11.695312 1.164062 -12.6875 1.625 -13.5 C 2.425781 -14.957031 3.835938 -15.6875 5.859375 -15.6875 C 7.460938 -15.6875 8.703125 -15.332031 9.578125 -14.625 C 10.453125 -13.914062 10.890625 -12.882812 10.890625 -11.53125 C 10.890625 -10.570312 10.628906 -9.789062 10.109375 -9.1875 C 9.785156 -8.8125 9.367188 -8.519531 8.859375 -8.3125 C 9.679688 -8.082031 10.320312 -7.644531 10.78125 -7 C 11.25 -6.363281 11.484375 -5.578125 11.484375 -4.640625 C 11.484375 -3.140625 10.988281 -1.921875 10 -0.984375 C 9.019531 -0.046875 7.628906 0.421875 5.828125 0.421875 Z M 5.828125 0.421875 "/>
</g>
<g id="glyph-1-0">
<path d="M 0.90625 0 L 0.90625 -20.078125 L 16.84375 -20.078125 L 16.84375 0 Z M 14.328125 -2.515625 L 14.328125 -17.5625 L 3.421875 -17.5625 L 3.421875 -2.515625 Z M 14.328125 -2.515625 "/>
</g>
<g id="glyph-1-1">
<path d="M 0.40625 -14.640625 L 3.59375 -14.640625 L 6.953125 -9.484375 L 10.359375 -14.640625 L 13.359375 -14.578125 L 8.421875 -7.5 L 13.578125 0 L 10.4375 0 L 6.796875 -5.5 L 3.265625 0 L 0.15625 0 L 5.3125 -7.5 Z M 0.40625 -14.640625 "/>
</g>
<g id="glyph-2-0">
<path d="M 0 -0.90625 L -20.078125 -0.90625 L -20.078125 -16.84375 L 0 -16.84375 Z M -2.515625 -14.328125 L -17.5625 -14.328125 L -17.5625 -3.421875 L -2.515625 -3.421875 Z M -2.515625 -14.328125 "/>
</g>
<g id="glyph-2-1">
<path d="M -14.640625 -10.953125 L -14.640625 -13.671875 C -13.703125 -13.328125 -11.5625 -12.554688 -8.21875 -11.359375 C -5.695312 -10.460938 -3.644531 -9.71875 -2.0625 -9.125 C 1.675781 -7.695312 3.953125 -6.691406 4.765625 -6.109375 C 5.585938 -5.523438 6 -4.523438 6 -3.109375 C 6 -2.753906 5.984375 -2.484375 5.953125 -2.296875 C 5.929688 -2.117188 5.882812 -1.890625 5.8125 -1.609375 L 3.5625 -1.609375 C 3.6875 -2.035156 3.757812 -2.34375 3.78125 -2.53125 C 3.8125 -2.726562 3.828125 -2.898438 3.828125 -3.046875 C 3.828125 -3.503906 3.75 -3.835938 3.59375 -4.046875 C 3.445312 -4.265625 3.265625 -4.445312 3.046875 -4.59375 C 2.972656 -4.632812 2.597656 -4.796875 1.921875 -5.078125 C 1.253906 -5.367188 0.753906 -5.578125 0.421875 -5.703125 L -14.640625 -0.28125 L -14.640625 -3.078125 L -2.71875 -7 Z M -15 -6.984375 Z M -15 -6.984375 "/>
</g>
</g>
<clipPath id="clip-0">
<path clip-rule="nonzero" d="M 85.472656 214 L 706.050781 214 L 706.050781 217 L 85.472656 217 Z M 85.472656 214 "/>
</clipPath>
<clipPath id="clip-1">
<path clip-rule="nonzero" d="M 85.472656 144 L 706.050781 144 L 706.050781 146 L 85.472656 146 Z M 85.472656 144 "/>
</clipPath>
<clipPath id="clip-2">
<path clip-rule="nonzero" d="M 85.472656 74 L 706.050781 74 L 706.050781 76 L 85.472656 76 Z M 85.472656 74 "/>
</clipPath>
<clipPath id="clip-3">
<path clip-rule="nonzero" d="M 131 13.949219 L 133 13.949219 L 133 276.527344 L 131 276.527344 Z M 131 13.949219 "/>
</clipPath>
<clipPath id="clip-4">
<path clip-rule="nonzero" d="M 233 13.949219 L 235 13.949219 L 235 276.527344 L 233 276.527344 Z M 233 13.949219 "/>
</clipPath>
<clipPath id="clip-5">
<path clip-rule="nonzero" d="M 335 13.949219 L 337 13.949219 L 337 276.527344 L 335 276.527344 Z M 335 13.949219 "/>
</clipPath>
<clipPath id="clip-6">
<path clip-rule="nonzero" d="M 436 13.949219 L 439 13.949219 L 439 276.527344 L 436 276.527344 Z M 436 13.949219 "/>
</clipPath>
<clipPath id="clip-7">
<path clip-rule="nonzero" d="M 538 13.949219 L 541 13.949219 L 541 276.527344 L 538 276.527344 Z M 538 13.949219 "/>
</clipPath>
<clipPath id="clip-8">
<path clip-rule="nonzero" d="M 640 13.949219 L 642 13.949219 L 642 276.527344 L 640 276.527344 Z M 640 13.949219 "/>
</clipPath>
<clipPath id="clip-9">
<path clip-rule="nonzero" d="M 85.472656 249 L 706.050781 249 L 706.050781 252 L 85.472656 252 Z M 85.472656 249 "/>
</clipPath>
<clipPath id="clip-10">
<path clip-rule="nonzero" d="M 85.472656 178 L 706.050781 178 L 706.050781 182 L 85.472656 182 Z M 85.472656 178 "/>
</clipPath>
<clipPath id="clip-11">
<path clip-rule="nonzero" d="M 85.472656 108 L 706.050781 108 L 706.050781 112 L 85.472656 112 Z M 85.472656 108 "/>
</clipPath>
<clipPath id="clip-12">
<path clip-rule="nonzero" d="M 85.472656 38 L 706.050781 38 L 706.050781 42 L 85.472656 42 Z M 85.472656 38 "/>
</clipPath>
<clipPath id="clip-13">
<path clip-rule="nonzero" d="M 181 13.949219 L 185 13.949219 L 185 276.527344 L 181 276.527344 Z M 181 13.949219 "/>
</clipPath>
<clipPath id="clip-14">
<path clip-rule="nonzero" d="M 283 13.949219 L 287 13.949219 L 287 276.527344 L 283 276.527344 Z M 283 13.949219 "/>
</clipPath>
<clipPath id="clip-15">
<path clip-rule="nonzero" d="M 385 13.949219 L 389 13.949219 L 389 276.527344 L 385 276.527344 Z M 385 13.949219 "/>
</clipPath>
<clipPath id="clip-16">
<path clip-rule="nonzero" d="M 487 13.949219 L 490 13.949219 L 490 276.527344 L 487 276.527344 Z M 487 13.949219 "/>
</clipPath>
<clipPath id="clip-17">
<path clip-rule="nonzero" d="M 588 13.949219 L 592 13.949219 L 592 276.527344 L 588 276.527344 Z M 588 13.949219 "/>
</clipPath>
<clipPath id="clip-18">
<path clip-rule="nonzero" d="M 690 13.949219 L 694 13.949219 L 694 276.527344 L 690 276.527344 Z M 690 13.949219 "/>
</clipPath>
</defs>
<rect x="-72" y="-36" width="864" height="432" fill="rgb(100%, 100%, 100%)" fill-opacity="1"/>
<rect x="-72" y="-36" width="864" height="432" fill="rgb(100%, 100%, 100%)" fill-opacity="1"/>
<g clip-path="url(#clip-0)">
<path fill="none" stroke-width="1.357972" stroke-linecap="butt" stroke-linejoin="round" stroke="rgb(92.156863%, 92.156863%, 92.156863%)" stroke-opacity="1" stroke-miterlimit="10" d="M 85.472656 215.445312 L 706.050781 215.445312 "/>
</g>
<g clip-path="url(#clip-1)">
<path fill="none" stroke-width="1.357972" stroke-linecap="butt" stroke-linejoin="round" stroke="rgb(92.156863%, 92.156863%, 92.156863%)" stroke-opacity="1" stroke-miterlimit="10" d="M 85.472656 145.238281 L 706.050781 145.238281 "/>
</g>
<g clip-path="url(#clip-2)">
<path fill="none" stroke-width="1.357972" stroke-linecap="butt" stroke-linejoin="round" stroke="rgb(92.156863%, 92.156863%, 92.156863%)" stroke-opacity="1" stroke-miterlimit="10" d="M 85.472656 75.027344 L 706.050781 75.027344 "/>
</g>
<g clip-path="url(#clip-3)">
<path fill="none" stroke-width="1.357972" stroke-linecap="butt" stroke-linejoin="round" stroke="rgb(92.156863%, 92.156863%, 92.156863%)" stroke-opacity="1" stroke-miterlimit="10" d="M 132.273438 276.527344 L 132.273438 13.949219 "/>
</g>
<g clip-path="url(#clip-4)">
<path fill="none" stroke-width="1.357972" stroke-linecap="butt" stroke-linejoin="round" stroke="rgb(92.156863%, 92.156863%, 92.156863%)" stroke-opacity="1" stroke-miterlimit="10" d="M 234.050781 276.527344 L 234.050781 13.949219 "/>
</g>
<g clip-path="url(#clip-5)">
<path fill="none" stroke-width="1.357972" stroke-linecap="butt" stroke-linejoin="round" stroke="rgb(92.156863%, 92.156863%, 92.156863%)" stroke-opacity="1" stroke-miterlimit="10" d="M 335.824219 276.527344 L 335.824219 13.949219 "/>
</g>
<g clip-path="url(#clip-6)">
<path fill="none" stroke-width="1.357972" stroke-linecap="butt" stroke-linejoin="round" stroke="rgb(92.156863%, 92.156863%, 92.156863%)" stroke-opacity="1" stroke-miterlimit="10" d="M 437.597656 276.527344 L 437.597656 13.949219 "/>
</g>
<g clip-path="url(#clip-7)">
<path fill="none" stroke-width="1.357972" stroke-linecap="butt" stroke-linejoin="round" stroke="rgb(92.156863%, 92.156863%, 92.156863%)" stroke-opacity="1" stroke-miterlimit="10" d="M 539.371094 276.527344 L 539.371094 13.949219 "/>
</g>
<g clip-path="url(#clip-8)">
<path fill="none" stroke-width="1.357972" stroke-linecap="butt" stroke-linejoin="round" stroke="rgb(92.156863%, 92.156863%, 92.156863%)" stroke-opacity="1" stroke-miterlimit="10" d="M 641.148438 276.527344 L 641.148438 13.949219 "/>
</g>
<g clip-path="url(#clip-9)">
<path fill="none" stroke-width="2.715945" stroke-linecap="butt" stroke-linejoin="round" stroke="rgb(92.156863%, 92.156863%, 92.156863%)" stroke-opacity="1" stroke-miterlimit="10" d="M 85.472656 250.546875 L 706.050781 250.546875 "/>
</g>
<g clip-path="url(#clip-10)">
<path fill="none" stroke-width="2.715945" stroke-linecap="butt" stroke-linejoin="round" stroke="rgb(92.156863%, 92.156863%, 92.156863%)" stroke-opacity="1" stroke-miterlimit="10" d="M 85.472656 180.339844 L 706.050781 180.339844 "/>
</g>
<g clip-path="url(#clip-11)">
<path fill="none" stroke-width="2.715945" stroke-linecap="butt" stroke-linejoin="round" stroke="rgb(92.156863%, 92.156863%, 92.156863%)" stroke-opacity="1" stroke-miterlimit="10" d="M 85.472656 110.132812 L 706.050781 110.132812 "/>
</g>
<g clip-path="url(#clip-12)">
<path fill="none" stroke-width="2.715945" stroke-linecap="butt" stroke-linejoin="round" stroke="rgb(92.156863%, 92.156863%, 92.156863%)" stroke-opacity="1" stroke-miterlimit="10" d="M 85.472656 39.925781 L 706.050781 39.925781 "/>
</g>
<g clip-path="url(#clip-13)">
<path fill="none" stroke-width="2.715945" stroke-linecap="butt" stroke-linejoin="round" stroke="rgb(92.156863%, 92.156863%, 92.156863%)" stroke-opacity="1" stroke-miterlimit="10" d="M 183.160156 276.527344 L 183.160156 13.949219 "/>
</g>
<g clip-path="url(#clip-14)">
<path fill="none" stroke-width="2.715945" stroke-linecap="butt" stroke-linejoin="round" stroke="rgb(92.156863%, 92.156863%, 92.156863%)" stroke-opacity="1" stroke-miterlimit="10" d="M 284.9375 276.527344 L 284.9375 13.949219 "/>
</g>
<g clip-path="url(#clip-15)">
<path fill="none" stroke-width="2.715945" stroke-linecap="butt" stroke-linejoin="round" stroke="rgb(92.156863%, 92.156863%, 92.156863%)" stroke-opacity="1" stroke-miterlimit="10" d="M 386.710938 276.527344 L 386.710938 13.949219 "/>
</g>
<g clip-path="url(#clip-16)">
<path fill="none" stroke-width="2.715945" stroke-linecap="butt" stroke-linejoin="round" stroke="rgb(92.156863%, 92.156863%, 92.156863%)" stroke-opacity="1" stroke-miterlimit="10" d="M 488.484375 276.527344 L 488.484375 13.949219 "/>
</g>
<g clip-path="url(#clip-17)">
<path fill="none" stroke-width="2.715945" stroke-linecap="butt" stroke-linejoin="round" stroke="rgb(92.156863%, 92.156863%, 92.156863%)" stroke-opacity="1" stroke-miterlimit="10" d="M 590.257812 276.527344 L 590.257812 13.949219 "/>
</g>
<g clip-path="url(#clip-18)">
<path fill="none" stroke-width="2.715945" stroke-linecap="butt" stroke-linejoin="round" stroke="rgb(92.156863%, 92.156863%, 92.156863%)" stroke-opacity="1" stroke-miterlimit="10" d="M 692.035156 276.527344 L 692.035156 13.949219 "/>
</g>
<path fill-rule="nonzero" fill="rgb(0%, 0%, 0%)" fill-opacity="1" stroke-width="1.803865" stroke-linecap="round" stroke-linejoin="round" stroke="rgb(0%, 0%, 0%)" stroke-opacity="1" stroke-miterlimit="10" d="M 493.699219 90.3125 C 493.699219 96.945312 483.746094 96.945312 483.746094 90.3125 C 483.746094 83.675781 493.699219 83.675781 493.699219 90.3125 "/>
<path fill-rule="nonzero" fill="rgb(0%, 0%, 0%)" fill-opacity="1" stroke-width="1.803865" stroke-linecap="round" stroke-linejoin="round" stroke="rgb(0%, 0%, 0%)" stroke-opacity="1" stroke-miterlimit="10" d="M 257.550781 204.332031 C 257.550781 210.96875 247.597656 210.96875 247.597656 204.332031 C 247.597656 197.699219 257.550781 197.699219 257.550781 204.332031 "/>
<path fill-rule="nonzero" fill="rgb(0%, 0%, 0%)" fill-opacity="1" stroke-width="1.803865" stroke-linecap="round" stroke-linejoin="round" stroke="rgb(0%, 0%, 0%)" stroke-opacity="1" stroke-miterlimit="10" d="M 439.679688 128.871094 C 439.679688 135.503906 429.730469 135.503906 429.730469 128.871094 C 429.730469 122.238281 439.679688 122.238281 439.679688 128.871094 "/>
<path fill-rule="nonzero" fill="rgb(0%, 0%, 0%)" fill-opacity="1" stroke-width="1.803865" stroke-linecap="round" stroke-linejoin="round" stroke="rgb(0%, 0%, 0%)" stroke-opacity="1" stroke-miterlimit="10" d="M 498.085938 56.914062 C 498.085938 63.550781 488.136719 63.550781 488.136719 56.914062 C 488.136719 50.28125 498.085938 50.28125 498.085938 56.914062 "/>
<path fill-rule="nonzero" fill="rgb(0%, 0%, 0%)" fill-opacity="1" stroke-width="1.803865" stroke-linecap="round" stroke-linejoin="round" stroke="rgb(0%, 0%, 0%)" stroke-opacity="1" stroke-miterlimit="10" d="M 470.007812 107.070312 C 470.007812 113.707031 460.058594 113.707031 460.058594 107.070312 C 460.058594 100.4375 470.007812 100.4375 470.007812 107.070312 "/>
<path fill-rule="nonzero" fill="rgb(0%, 0%, 0%)" fill-opacity="1" stroke-width="1.803865" stroke-linecap="round" stroke-linejoin="round" stroke="rgb(0%, 0%, 0%)" stroke-opacity="1" stroke-miterlimit="10" d="M 330.238281 158.40625 C 330.238281 165.039062 320.285156 165.039062 320.285156 158.40625 C 320.285156 151.769531 330.238281 151.769531 330.238281 158.40625 "/>
<path fill-rule="nonzero" fill="rgb(0%, 0%, 0%)" fill-opacity="1" stroke-width="1.803865" stroke-linecap="round" stroke-linejoin="round" stroke="rgb(0%, 0%, 0%)" stroke-opacity="1" stroke-miterlimit="10" d="M 478.226562 155.351562 C 478.226562 161.988281 468.273438 161.988281 468.273438 155.351562 C 468.273438 148.71875 478.226562 148.71875 478.226562 155.351562 "/>
<path fill-rule="nonzero" fill="rgb(0%, 0%, 0%)" fill-opacity="1" stroke-width="1.803865" stroke-linecap="round" stroke-linejoin="round" stroke="rgb(0%, 0%, 0%)" stroke-opacity="1" stroke-miterlimit="10" d="M 374.671875 148.917969 C 374.671875 155.554688 364.722656 155.554688 364.722656 148.917969 C 364.722656 142.285156 374.671875 142.285156 374.671875 148.917969 "/>
<path fill-rule="nonzero" fill="rgb(0%, 0%, 0%)" fill-opacity="1" stroke-width="1.803865" stroke-linecap="round" stroke-linejoin="round" stroke="rgb(0%, 0%, 0%)" stroke-opacity="1" stroke-miterlimit="10" d="M 412.964844 140.335938 C 412.964844 146.972656 403.015625 146.972656 403.015625 140.335938 C 403.015625 133.703125 412.964844 133.703125 412.964844 140.335938 "/>
<path fill-rule="nonzero" fill="rgb(0%, 0%, 0%)" fill-opacity="1" stroke-width="1.803865" stroke-linecap="round" stroke-linejoin="round" stroke="rgb(0%, 0%, 0%)" stroke-opacity="1" stroke-miterlimit="10" d="M 379.09375 172.316406 C 379.09375 178.949219 369.140625 178.949219 369.140625 172.316406 C 369.140625 165.679688 379.09375 165.679688 379.09375 172.316406 "/>
<path fill-rule="nonzero" fill="rgb(0%, 0%, 0%)" fill-opacity="1" stroke-width="1.803865" stroke-linecap="round" stroke-linejoin="round" stroke="rgb(0%, 0%, 0%)" stroke-opacity="1" stroke-miterlimit="10" d="M 618.652344 100.441406 C 618.652344 107.074219 608.703125 107.074219 608.703125 100.441406 C 608.703125 93.804688 618.652344 93.804688 618.652344 100.441406 "/>
<path fill-rule="nonzero" fill="rgb(0%, 0%, 0%)" fill-opacity="1" stroke-width="1.803865" stroke-linecap="round" stroke-linejoin="round" stroke="rgb(0%, 0%, 0%)" stroke-opacity="1" stroke-miterlimit="10" d="M 445.164062 144.800781 C 445.164062 151.4375 435.214844 151.4375 435.214844 144.800781 C 435.214844 138.167969 445.164062 138.167969 445.164062 144.800781 "/>
<path fill-rule="nonzero" fill="rgb(0%, 0%, 0%)" fill-opacity="1" stroke-width="1.803865" stroke-linecap="round" stroke-linejoin="round" stroke="rgb(0%, 0%, 0%)" stroke-opacity="1" stroke-miterlimit="10" d="M 285.703125 167.449219 C 285.703125 174.085938 275.75 174.085938 275.75 167.449219 C 275.75 160.816406 285.703125 160.816406 285.703125 167.449219 "/>
<path fill-rule="nonzero" fill="rgb(0%, 0%, 0%)" fill-opacity="1" stroke-width="1.803865" stroke-linecap="round" stroke-linejoin="round" stroke="rgb(0%, 0%, 0%)" stroke-opacity="1" stroke-miterlimit="10" d="M 250.753906 151.582031 C 250.753906 158.214844 240.800781 158.214844 240.800781 151.582031 C 240.800781 144.949219 250.753906 144.949219 250.753906 151.582031 "/>
<path fill-rule="nonzero" fill="rgb(0%, 0%, 0%)" fill-opacity="1" stroke-width="1.803865" stroke-linecap="round" stroke-linejoin="round" stroke="rgb(0%, 0%, 0%)" stroke-opacity="1" stroke-miterlimit="10" d="M 361.648438 140.003906 C 361.648438 146.636719 351.699219 146.636719 351.699219 140.003906 C 351.699219 133.367188 361.648438 133.367188 361.648438 140.003906 "/>
<path fill-rule="nonzero" fill="rgb(0%, 0%, 0%)" fill-opacity="1" stroke-width="1.803865" stroke-linecap="round" stroke-linejoin="round" stroke="rgb(0%, 0%, 0%)" stroke-opacity="1" stroke-miterlimit="10" d="M 394.53125 135.960938 C 394.53125 142.597656 384.578125 142.597656 384.578125 135.960938 C 384.578125 129.328125 394.53125 129.328125 394.53125 135.960938 "/>
<path fill-rule="nonzero" fill="rgb(0%, 0%, 0%)" fill-opacity="1" stroke-width="1.803865" stroke-linecap="round" stroke-linejoin="round" stroke="rgb(0%, 0%, 0%)" stroke-opacity="1" stroke-miterlimit="10" d="M 311.296875 157.625 C 311.296875 164.257812 301.34375 164.257812 301.34375 157.625 C 301.34375 150.988281 311.296875 150.988281 311.296875 157.625 "/>
<path fill-rule="nonzero" fill="rgb(0%, 0%, 0%)" fill-opacity="1" stroke-width="1.803865" stroke-linecap="round" stroke-linejoin="round" stroke="rgb(0%, 0%, 0%)" stroke-opacity="1" stroke-miterlimit="10" d="M 409.144531 122.332031 C 409.144531 128.96875 399.195312 128.96875 399.195312 122.332031 C 399.195312 115.699219 409.144531 115.699219 409.144531 122.332031 "/>
<path fill-rule="nonzero" fill="rgb(0%, 0%, 0%)" fill-opacity="1" stroke-width="1.803865" stroke-linecap="round" stroke-linejoin="round" stroke="rgb(0%, 0%, 0%)" stroke-opacity="1" stroke-miterlimit="10" d="M 443.046875 102.574219 C 443.046875 109.207031 433.097656 109.207031 433.097656 102.574219 C 433.097656 95.941406 443.046875 95.941406 443.046875 102.574219 "/>
<path fill-rule="nonzero" fill="rgb(0%, 0%, 0%)" fill-opacity="1" stroke-width="1.803865" stroke-linecap="round" stroke-linejoin="round" stroke="rgb(0%, 0%, 0%)" stroke-opacity="1" stroke-miterlimit="10" d="M 362.074219 148.683594 C 362.074219 155.316406 352.121094 155.316406 352.121094 148.683594 C 352.121094 142.046875 362.074219 142.046875 362.074219 148.683594 "/>
<path fill-rule="nonzero" fill="rgb(0%, 0%, 0%)" fill-opacity="1" stroke-width="1.803865" stroke-linecap="round" stroke-linejoin="round" stroke="rgb(0%, 0%, 0%)" stroke-opacity="1" stroke-miterlimit="10" d="M 405.839844 180.046875 C 405.839844 186.683594 395.890625 186.683594 395.890625 180.046875 C 395.890625 173.414062 405.839844 173.414062 405.839844 180.046875 "/>
<path fill-rule="nonzero" fill="rgb(0%, 0%, 0%)" fill-opacity="1" stroke-width="1.803865" stroke-linecap="round" stroke-linejoin="round" stroke="rgb(0%, 0%, 0%)" stroke-opacity="1" stroke-miterlimit="10" d="M 458.183594 147.761719 C 458.183594 154.394531 448.234375 154.394531 448.234375 147.761719 C 448.234375 141.125 458.183594 141.125 458.183594 147.761719 "/>
<path fill-rule="nonzero" fill="rgb(0%, 0%, 0%)" fill-opacity="1" stroke-width="1.803865" stroke-linecap="round" stroke-linejoin="round" stroke="rgb(0%, 0%, 0%)" stroke-opacity="1" stroke-miterlimit="10" d="M 330.421875 152.730469 C 330.421875 159.363281 320.472656 159.363281 320.472656 152.730469 C 320.472656 146.09375 330.421875 146.09375 330.421875 152.730469 "/>
<path fill-rule="nonzero" fill="rgb(0%, 0%, 0%)" fill-opacity="1" stroke-width="1.803865" stroke-linecap="round" stroke-linejoin="round" stroke="rgb(0%, 0%, 0%)" stroke-opacity="1" stroke-miterlimit="10" d="M 500.773438 130.117188 C 500.773438 136.75 490.820312 136.75 490.820312 130.117188 C 490.820312 123.480469 500.773438 123.480469 500.773438 130.117188 "/>
<path fill-rule="nonzero" fill="rgb(0%, 0%, 0%)" fill-opacity="1" stroke-width="1.803865" stroke-linecap="round" stroke-linejoin="round" stroke="rgb(0%, 0%, 0%)" stroke-opacity="1" stroke-miterlimit="10" d="M 307.734375 189.652344 C 307.734375 196.289062 297.78125 196.289062 297.78125 189.652344 C 297.78125 183.019531 307.734375 183.019531 307.734375 189.652344 "/>
<path fill-rule="nonzero" fill="rgb(0%, 0%, 0%)" fill-opacity="1" stroke-width="1.803865" stroke-linecap="round" stroke-linejoin="round" stroke="rgb(0%, 0%, 0%)" stroke-opacity="1" stroke-miterlimit="10" d="M 133.933594 196.273438 C 133.933594 202.90625 123.984375 202.90625 123.984375 196.273438 C 123.984375 189.636719 133.933594 189.636719 133.933594 196.273438 "/>
<path fill-rule="nonzero" fill="rgb(0%, 0%, 0%)" fill-opacity="1" stroke-width="1.803865" stroke-linecap="round" stroke-linejoin="round" stroke="rgb(0%, 0%, 0%)" stroke-opacity="1" stroke-miterlimit="10" d="M 307.195312 172.375 C 307.195312 179.007812 297.242188 179.007812 297.242188 172.375 C 297.242188 165.738281 307.195312 165.738281 307.195312 172.375 "/>
<path fill-rule="nonzero" fill="rgb(0%, 0%, 0%)" fill-opacity="1" stroke-width="1.803865" stroke-linecap="round" stroke-linejoin="round" stroke="rgb(0%, 0%, 0%)" stroke-opacity="1" stroke-miterlimit="10" d="M 220.628906 174.28125 C 220.628906 180.917969 210.675781 180.917969 210.675781 174.28125 C 210.675781 167.648438 220.628906 167.648438 220.628906 174.28125 "/>
<path fill-rule="nonzero" fill="rgb(0%, 0%, 0%)" fill-opacity="1" stroke-width="1.803865" stroke-linecap="round" stroke-linejoin="round" stroke="rgb(0%, 0%, 0%)" stroke-opacity="1" stroke-miterlimit="10" d="M 332.203125 150.4375 C 332.203125 157.074219 322.25 157.074219 322.25 150.4375 C 322.25 143.804688 332.203125 143.804688 332.203125 150.4375 "/>
<path fill-rule="nonzero" fill="rgb(0%, 0%, 0%)" fill-opacity="1" stroke-width="1.803865" stroke-linecap="round" stroke-linejoin="round" stroke="rgb(0%, 0%, 0%)" stroke-opacity="1" stroke-miterlimit="10" d="M 674.378906 46.332031 C 674.378906 52.964844 664.425781 52.964844 664.425781 46.332031 C 664.425781 39.695312 674.378906 39.695312 674.378906 46.332031 "/>
<path fill-rule="nonzero" fill="rgb(0%, 0%, 0%)" fill-opacity="1" stroke-width="1.803865" stroke-linecap="round" stroke-linejoin="round" stroke="rgb(0%, 0%, 0%)" stroke-opacity="1" stroke-miterlimit="10" d="M 383.355469 154.796875 C 383.355469 161.433594 373.40625 161.433594 373.40625 154.796875 C 373.40625 148.164062 383.355469 148.164062 383.355469 154.796875 "/>
<path fill-rule="nonzero" fill="rgb(0%, 0%, 0%)" fill-opacity="1" stroke-width="1.803865" stroke-linecap="round" stroke-linejoin="round" stroke="rgb(0%, 0%, 0%)" stroke-opacity="1" stroke-miterlimit="10" d="M 438.015625 119.34375 C 438.015625 125.976562 428.0625 125.976562 428.0625 119.34375 C 428.0625 112.707031 438.015625 112.707031 438.015625 119.34375 "/>
<path fill-rule="nonzero" fill="rgb(0%, 0%, 0%)" fill-opacity="1" stroke-width="1.803865" stroke-linecap="round" stroke-linejoin="round" stroke="rgb(0%, 0%, 0%)" stroke-opacity="1" stroke-miterlimit="10" d="M 189.367188 231.875 C 189.367188 238.507812 179.414062 238.507812 179.414062 231.875 C 179.414062 225.238281 189.367188 225.238281 189.367188 231.875 "/>
<path fill-rule="nonzero" fill="rgb(0%, 0%, 0%)" fill-opacity="1" stroke-width="1.803865" stroke-linecap="round" stroke-linejoin="round" stroke="rgb(0%, 0%, 0%)" stroke-opacity="1" stroke-miterlimit="10" d="M 590.726562 67.792969 C 590.726562 74.429688 580.773438 74.429688 580.773438 67.792969 C 580.773438 61.160156 590.726562 61.160156 590.726562 67.792969 "/>
<path fill-rule="nonzero" fill="rgb(0%, 0%, 0%)" fill-opacity="1" stroke-width="1.803865" stroke-linecap="round" stroke-linejoin="round" stroke="rgb(0%, 0%, 0%)" stroke-opacity="1" stroke-miterlimit="10" d="M 403.617188 94.324219 C 403.617188 100.957031 393.664062 100.957031 393.664062 94.324219 C 393.664062 87.691406 403.617188 87.691406 403.617188 94.324219 "/>
<path fill-rule="nonzero" fill="rgb(0%, 0%, 0%)" fill-opacity="1" stroke-width="1.803865" stroke-linecap="round" stroke-linejoin="round" stroke="rgb(0%, 0%, 0%)" stroke-opacity="1" stroke-miterlimit="10" d="M 548.085938 101.554688 C 548.085938 108.1875 538.136719 108.1875 538.136719 101.554688 C 538.136719 94.917969 548.085938 94.917969 548.085938 101.554688 "/>
<path fill-rule="nonzero" fill="rgb(0%, 0%, 0%)" fill-opacity="1" stroke-width="1.803865" stroke-linecap="round" stroke-linejoin="round" stroke="rgb(0%, 0%, 0%)" stroke-opacity="1" stroke-miterlimit="10" d="M 438.371094 153.699219 C 438.371094 160.332031 428.421875 160.332031 428.421875 153.699219 C 428.421875 147.0625 438.371094 147.0625 438.371094 153.699219 "/>
<path fill-rule="nonzero" fill="rgb(0%, 0%, 0%)" fill-opacity="1" stroke-width="1.803865" stroke-linecap="round" stroke-linejoin="round" stroke="rgb(0%, 0%, 0%)" stroke-opacity="1" stroke-miterlimit="10" d="M 296.1875 110.238281 C 296.1875 116.875 286.238281 116.875 286.238281 110.238281 C 286.238281 103.605469 296.1875 103.605469 296.1875 110.238281 "/>
<path fill-rule="nonzero" fill="rgb(0%, 0%, 0%)" fill-opacity="1" stroke-width="1.803865" stroke-linecap="round" stroke-linejoin="round" stroke="rgb(0%, 0%, 0%)" stroke-opacity="1" stroke-miterlimit="10" d="M 271.441406 159.46875 C 271.441406 166.101562 261.488281 166.101562 261.488281 159.46875 C 261.488281 152.835938 271.441406 152.835938 271.441406 159.46875 "/>
<path fill-rule="nonzero" fill="rgb(0%, 0%, 0%)" fill-opacity="1" stroke-width="1.803865" stroke-linecap="round" stroke-linejoin="round" stroke="rgb(0%, 0%, 0%)" stroke-opacity="1" stroke-miterlimit="10" d="M 505.523438 137 C 505.523438 143.632812 495.570312 143.632812 495.570312 137 C 495.570312 130.363281 505.523438 130.363281 505.523438 137 "/>
<path fill-rule="nonzero" fill="rgb(0%, 0%, 0%)" fill-opacity="1" stroke-width="1.803865" stroke-linecap="round" stroke-linejoin="round" stroke="rgb(0%, 0%, 0%)" stroke-opacity="1" stroke-miterlimit="10" d="M 499.144531 159.960938 C 499.144531 166.597656 489.191406 166.597656 489.191406 159.960938 C 489.191406 153.328125 499.144531 153.328125 499.144531 159.960938 "/>
<path fill-rule="nonzero" fill="rgb(0%, 0%, 0%)" fill-opacity="1" stroke-width="1.803865" stroke-linecap="round" stroke-linejoin="round" stroke="rgb(0%, 0%, 0%)" stroke-opacity="1" stroke-miterlimit="10" d="M 625.46875 45.414062 C 625.46875 52.050781 615.515625 52.050781 615.515625 45.414062 C 615.515625 38.78125 625.46875 38.78125 625.46875 45.414062 "/>
<path fill-rule="nonzero" fill="rgb(0%, 0%, 0%)" fill-opacity="1" stroke-width="1.803865" stroke-linecap="round" stroke-linejoin="round" stroke="rgb(0%, 0%, 0%)" stroke-opacity="1" stroke-miterlimit="10" d="M 371.792969 153.828125 C 371.792969 160.464844 361.839844 160.464844 361.839844 153.828125 C 361.839844 147.195312 371.792969 147.195312 371.792969 153.828125 "/>
<path fill-rule="nonzero" fill="rgb(0%, 0%, 0%)" fill-opacity="1" stroke-width="1.803865" stroke-linecap="round" stroke-linejoin="round" stroke="rgb(0%, 0%, 0%)" stroke-opacity="1" stroke-miterlimit="10" d="M 343.574219 178.734375 C 343.574219 185.371094 333.625 185.371094 333.625 178.734375 C 333.625 172.101562 343.574219 172.101562 343.574219 178.734375 "/>
<path fill-rule="nonzero" fill="rgb(0%, 0%, 0%)" fill-opacity="1" stroke-width="1.803865" stroke-linecap="round" stroke-linejoin="round" stroke="rgb(0%, 0%, 0%)" stroke-opacity="1" stroke-miterlimit="10" d="M 426.855469 113.003906 C 426.855469 119.640625 416.902344 119.640625 416.902344 113.003906 C 416.902344 106.371094 426.855469 106.371094 426.855469 113.003906 "/>
<path fill-rule="nonzero" fill="rgb(0%, 0%, 0%)" fill-opacity="1" stroke-width="1.803865" stroke-linecap="round" stroke-linejoin="round" stroke="rgb(0%, 0%, 0%)" stroke-opacity="1" stroke-miterlimit="10" d="M 298.863281 117.550781 C 298.863281 124.1875 288.910156 124.1875 288.910156 117.550781 C 288.910156 110.917969 298.863281 110.917969 298.863281 117.550781 "/>
<path fill-rule="nonzero" fill="rgb(0%, 0%, 0%)" fill-opacity="1" stroke-width="1.803865" stroke-linecap="round" stroke-linejoin="round" stroke="rgb(0%, 0%, 0%)" stroke-opacity="1" stroke-miterlimit="10" d="M 446.992188 98.640625 C 446.992188 105.273438 437.042969 105.273438 437.042969 98.640625 C 437.042969 92.007812 446.992188 92.007812 446.992188 98.640625 "/>
<path fill-rule="nonzero" fill="rgb(0%, 0%, 0%)" fill-opacity="1" stroke-width="1.803865" stroke-linecap="round" stroke-linejoin="round" stroke="rgb(0%, 0%, 0%)" stroke-opacity="1" stroke-miterlimit="10" d="M 503.085938 87.992188 C 503.085938 94.628906 493.132812 94.628906 493.132812 87.992188 C 493.132812 81.359375 503.085938 81.359375 503.085938 87.992188 "/>
<path fill-rule="nonzero" fill="rgb(0%, 0%, 0%)" fill-opacity="1" stroke-width="1.803865" stroke-linecap="round" stroke-linejoin="round" stroke="rgb(0%, 0%, 0%)" stroke-opacity="1" stroke-miterlimit="10" d="M 434.222656 141.148438 C 434.222656 147.78125 424.269531 147.78125 424.269531 141.148438 C 424.269531 134.511719 434.222656 134.511719 434.222656 141.148438 "/>
<path fill-rule="nonzero" fill="rgb(0%, 0%, 0%)" fill-opacity="1" stroke-width="1.803865" stroke-linecap="round" stroke-linejoin="round" stroke="rgb(0%, 0%, 0%)" stroke-opacity="1" stroke-miterlimit="10" d="M 498.144531 61.84375 C 498.144531 68.480469 488.191406 68.480469 488.191406 61.84375 C 488.191406 55.210938 498.144531 55.210938 498.144531 61.84375 "/>
<path fill-rule="nonzero" fill="rgb(0%, 0%, 0%)" fill-opacity="1" stroke-width="1.803865" stroke-linecap="round" stroke-linejoin="round" stroke="rgb(0%, 0%, 0%)" stroke-opacity="1" stroke-miterlimit="10" d="M 345.613281 184.515625 C 345.613281 191.152344 335.660156 191.152344 335.660156 184.515625 C 335.660156 177.882812 345.613281 177.882812 345.613281 184.515625 "/>
<path fill-rule="nonzero" fill="rgb(0%, 0%, 0%)" fill-opacity="1" stroke-width="1.803865" stroke-linecap="round" stroke-linejoin="round" stroke="rgb(0%, 0%, 0%)" stroke-opacity="1" stroke-miterlimit="10" d="M 632.980469 49.601562 C 632.980469 56.238281 623.027344 56.238281 623.027344 49.601562 C 623.027344 42.96875 632.980469 42.96875 632.980469 49.601562 "/>
<path fill-rule="nonzero" fill="rgb(0%, 0%, 0%)" fill-opacity="1" stroke-width="1.803865" stroke-linecap="round" stroke-linejoin="round" stroke="rgb(0%, 0%, 0%)" stroke-opacity="1" stroke-miterlimit="10" d="M 269.707031 206.234375 C 269.707031 212.867188 259.753906 212.867188 259.753906 206.234375 C 259.753906 199.597656 269.707031 199.597656 269.707031 206.234375 "/>
<path fill-rule="nonzero" fill="rgb(0%, 0%, 0%)" fill-opacity="1" stroke-width="1.803865" stroke-linecap="round" stroke-linejoin="round" stroke="rgb(0%, 0%, 0%)" stroke-opacity="1" stroke-miterlimit="10" d="M 315.730469 173.296875 C 315.730469 179.933594 305.777344 179.933594 305.777344 173.296875 C 305.777344 166.664062 315.730469 166.664062 315.730469 173.296875 "/>
<path fill-rule="nonzero" fill="rgb(0%, 0%, 0%)" fill-opacity="1" stroke-width="1.803865" stroke-linecap="round" stroke-linejoin="round" stroke="rgb(0%, 0%, 0%)" stroke-opacity="1" stroke-miterlimit="10" d="M 428.25 181.070312 C 428.25 187.707031 418.296875 187.707031 418.296875 181.070312 C 418.296875 174.4375 428.25 174.4375 428.25 181.070312 "/>
<path fill-rule="nonzero" fill="rgb(0%, 0%, 0%)" fill-opacity="1" stroke-width="1.803865" stroke-linecap="round" stroke-linejoin="round" stroke="rgb(0%, 0%, 0%)" stroke-opacity="1" stroke-miterlimit="10" d="M 501.242188 110.335938 C 501.242188 116.96875 491.289062 116.96875 491.289062 110.335938 C 491.289062 103.699219 501.242188 103.699219 501.242188 110.335938 "/>
<path fill-rule="nonzero" fill="rgb(0%, 0%, 0%)" fill-opacity="1" stroke-width="1.803865" stroke-linecap="round" stroke-linejoin="round" stroke="rgb(0%, 0%, 0%)" stroke-opacity="1" stroke-miterlimit="10" d="M 433.136719 154.738281 C 433.136719 161.371094 423.183594 161.371094 423.183594 154.738281 C 423.183594 148.101562 433.136719 148.101562 433.136719 154.738281 "/>
<path fill-rule="nonzero" fill="rgb(0%, 0%, 0%)" fill-opacity="1" stroke-width="1.803865" stroke-linecap="round" stroke-linejoin="round" stroke="rgb(0%, 0%, 0%)" stroke-opacity="1" stroke-miterlimit="10" d="M 451.339844 122.367188 C 451.339844 129 441.390625 129 441.390625 122.367188 C 441.390625 115.730469 451.339844 115.730469 451.339844 122.367188 "/>
<path fill-rule="nonzero" fill="rgb(0%, 0%, 0%)" fill-opacity="1" stroke-width="1.803865" stroke-linecap="round" stroke-linejoin="round" stroke="rgb(0%, 0%, 0%)" stroke-opacity="1" stroke-miterlimit="10" d="M 365.078125 159.972656 C 365.078125 166.605469 355.125 166.605469 355.125 159.972656 C 355.125 153.335938 365.078125 153.335938 365.078125 159.972656 "/>
<path fill-rule="nonzero" fill="rgb(0%, 0%, 0%)" fill-opacity="1" stroke-width="1.803865" stroke-linecap="round" stroke-linejoin="round" stroke="rgb(0%, 0%, 0%)" stroke-opacity="1" stroke-miterlimit="10" d="M 442.042969 140.613281 C 442.042969 147.246094 432.09375 147.246094 432.09375 140.613281 C 432.09375 133.976562 442.042969 133.976562 442.042969 140.613281 "/>
<path fill-rule="nonzero" fill="rgb(0%, 0%, 0%)" fill-opacity="1" stroke-width="1.803865" stroke-linecap="round" stroke-linejoin="round" stroke="rgb(0%, 0%, 0%)" stroke-opacity="1" stroke-miterlimit="10" d="M 399.59375 204.664062 C 399.59375 211.300781 389.640625 211.300781 389.640625 204.664062 C 389.640625 198.03125 399.59375 198.03125 399.59375 204.664062 "/>
<path fill-rule="nonzero" fill="rgb(0%, 0%, 0%)" fill-opacity="1" stroke-width="1.803865" stroke-linecap="round" stroke-linejoin="round" stroke="rgb(0%, 0%, 0%)" stroke-opacity="1" stroke-miterlimit="10" d="M 459.371094 146.140625 C 459.371094 152.777344 449.417969 152.777344 449.417969 146.140625 C 449.417969 139.507812 459.371094 139.507812 459.371094 146.140625 "/>
<path fill-rule="nonzero" fill="rgb(0%, 0%, 0%)" fill-opacity="1" stroke-width="1.803865" stroke-linecap="round" stroke-linejoin="round" stroke="rgb(0%, 0%, 0%)" stroke-opacity="1" stroke-miterlimit="10" d="M 419.207031 109.117188 C 419.207031 115.75 409.257812 115.75 409.257812 109.117188 C 409.257812 102.480469 419.207031 102.480469 419.207031 109.117188 "/>
<path fill-rule="nonzero" fill="rgb(0%, 0%, 0%)" fill-opacity="1" stroke-width="1.803865" stroke-linecap="round" stroke-linejoin="round" stroke="rgb(0%, 0%, 0%)" stroke-opacity="1" stroke-miterlimit="10" d="M 422.730469 188.125 C 422.730469 194.761719 412.78125 194.761719 412.78125 188.125 C 412.78125 181.492188 422.730469 181.492188 422.730469 188.125 "/>
<path fill-rule="nonzero" fill="rgb(0%, 0%, 0%)" fill-opacity="1" stroke-width="1.803865" stroke-linecap="round" stroke-linejoin="round" stroke="rgb(0%, 0%, 0%)" stroke-opacity="1" stroke-miterlimit="10" d="M 323.042969 210.792969 C 323.042969 217.425781 313.09375 217.425781 313.09375 210.792969 C 313.09375 204.15625 323.042969 204.15625 323.042969 210.792969 "/>
<path fill-rule="nonzero" fill="rgb(0%, 0%, 0%)" fill-opacity="1" stroke-width="1.803865" stroke-linecap="round" stroke-linejoin="round" stroke="rgb(0%, 0%, 0%)" stroke-opacity="1" stroke-miterlimit="10" d="M 362.324219 170.660156 C 362.324219 177.296875 352.375 177.296875 352.375 170.660156 C 352.375 164.027344 362.324219 164.027344 362.324219 170.660156 "/>
<path fill-rule="nonzero" fill="rgb(0%, 0%, 0%)" fill-opacity="1" stroke-width="1.803865" stroke-linecap="round" stroke-linejoin="round" stroke="rgb(0%, 0%, 0%)" stroke-opacity="1" stroke-miterlimit="10" d="M 352.90625 167.371094 C 352.90625 174.003906 342.953125 174.003906 342.953125 167.371094 C 342.953125 160.734375 352.90625 160.734375 352.90625 167.371094 "/>
<path fill-rule="nonzero" fill="rgb(0%, 0%, 0%)" fill-opacity="1" stroke-width="1.803865" stroke-linecap="round" stroke-linejoin="round" stroke="rgb(0%, 0%, 0%)" stroke-opacity="1" stroke-miterlimit="10" d="M 334.445312 184.949219 C 334.445312 191.582031 324.496094 191.582031 324.496094 184.949219 C 324.496094 178.316406 334.445312 178.316406 334.445312 184.949219 "/>
<path fill-rule="nonzero" fill="rgb(0%, 0%, 0%)" fill-opacity="1" stroke-width="1.803865" stroke-linecap="round" stroke-linejoin="round" stroke="rgb(0%, 0%, 0%)" stroke-opacity="1" stroke-miterlimit="10" d="M 539.527344 121.6875 C 539.527344 128.320312 529.574219 128.320312 529.574219 121.6875 C 529.574219 115.050781 539.527344 115.050781 539.527344 121.6875 "/>
<path fill-rule="nonzero" fill="rgb(0%, 0%, 0%)" fill-opacity="1" stroke-width="1.803865" stroke-linecap="round" stroke-linejoin="round" stroke="rgb(0%, 0%, 0%)" stroke-opacity="1" stroke-miterlimit="10" d="M 615.566406 63.730469 C 615.566406 70.367188 605.617188 70.367188 605.617188 63.730469 C 605.617188 57.097656 615.566406 57.097656 615.566406 63.730469 "/>
<path fill-rule="nonzero" fill="rgb(0%, 0%, 0%)" fill-opacity="1" stroke-width="1.803865" stroke-linecap="round" stroke-linejoin="round" stroke="rgb(0%, 0%, 0%)" stroke-opacity="1" stroke-miterlimit="10" d="M 505.816406 127.679688 C 505.816406 134.3125 495.863281 134.3125 495.863281 127.679688 C 495.863281 121.046875 505.816406 121.046875 505.816406 127.679688 "/>
<path fill-rule="nonzero" fill="rgb(0%, 0%, 0%)" fill-opacity="1" stroke-width="1.803865" stroke-linecap="round" stroke-linejoin="round" stroke="rgb(0%, 0%, 0%)" stroke-opacity="1" stroke-miterlimit="10" d="M 359.148438 134.402344 C 359.148438 141.035156 349.195312 141.035156 349.195312 134.402344 C 349.195312 127.769531 359.148438 127.769531 359.148438 134.402344 "/>
<path fill-rule="nonzero" fill="rgb(0%, 0%, 0%)" fill-opacity="1" stroke-width="1.803865" stroke-linecap="round" stroke-linejoin="round" stroke="rgb(0%, 0%, 0%)" stroke-opacity="1" stroke-miterlimit="10" d="M 588.4375 115.085938 C 588.4375 121.71875 578.484375 121.71875 578.484375 115.085938 C 578.484375 108.449219 588.4375 108.449219 588.4375 115.085938 "/>
<path fill-rule="nonzero" fill="rgb(0%, 0%, 0%)" fill-opacity="1" stroke-width="1.803865" stroke-linecap="round" stroke-linejoin="round" stroke="rgb(0%, 0%, 0%)" stroke-opacity="1" stroke-miterlimit="10" d="M 459.734375 130.09375 C 459.734375 136.726562 449.785156 136.726562 449.785156 130.09375 C 449.785156 123.457031 459.734375 123.457031 459.734375 130.09375 "/>
<path fill-rule="nonzero" fill="rgb(0%, 0%, 0%)" fill-opacity="1" stroke-width="1.803865" stroke-linecap="round" stroke-linejoin="round" stroke="rgb(0%, 0%, 0%)" stroke-opacity="1" stroke-miterlimit="10" d="M 312.621094 99.582031 C 312.621094 106.21875 302.671875 106.21875 302.671875 99.582031 C 302.671875 92.949219 312.621094 92.949219 312.621094 99.582031 "/>
<path fill-rule="nonzero" fill="rgb(0%, 0%, 0%)" fill-opacity="1" stroke-width="1.803865" stroke-linecap="round" stroke-linejoin="round" stroke="rgb(0%, 0%, 0%)" stroke-opacity="1" stroke-miterlimit="10" d="M 452.527344 99.648438 C 452.527344 106.28125 442.578125 106.28125 442.578125 99.648438 C 442.578125 93.015625 452.527344 93.015625 452.527344 99.648438 "/>
<path fill-rule="nonzero" fill="rgb(0%, 0%, 0%)" fill-opacity="1" stroke-width="1.803865" stroke-linecap="round" stroke-linejoin="round" stroke="rgb(0%, 0%, 0%)" stroke-opacity="1" stroke-miterlimit="10" d="M 151.238281 197.082031 C 151.238281 203.714844 141.285156 203.714844 141.285156 197.082031 C 141.285156 190.449219 151.238281 190.449219 151.238281 197.082031 "/>
<path fill-rule="nonzero" fill="rgb(0%, 0%, 0%)" fill-opacity="1" stroke-width="1.803865" stroke-linecap="round" stroke-linejoin="round" stroke="rgb(0%, 0%, 0%)" stroke-opacity="1" stroke-miterlimit="10" d="M 428.019531 173.003906 C 428.019531 179.640625 418.070312 179.640625 418.070312 173.003906 C 418.070312 166.371094 428.019531 166.371094 428.019531 173.003906 "/>
<path fill-rule="nonzero" fill="rgb(0%, 0%, 0%)" fill-opacity="1" stroke-width="1.803865" stroke-linecap="round" stroke-linejoin="round" stroke="rgb(0%, 0%, 0%)" stroke-opacity="1" stroke-miterlimit="10" d="M 442.640625 130.757812 C 442.640625 137.390625 432.691406 137.390625 432.691406 130.757812 C 432.691406 124.121094 442.640625 124.121094 442.640625 130.757812 "/>
<path fill-rule="nonzero" fill="rgb(0%, 0%, 0%)" fill-opacity="1" stroke-width="1.803865" stroke-linecap="round" stroke-linejoin="round" stroke="rgb(0%, 0%, 0%)" stroke-opacity="1" stroke-miterlimit="10" d="M 409.921875 192.804688 C 409.921875 199.4375 399.972656 199.4375 399.972656 192.804688 C 399.972656 186.167969 409.921875 186.167969 409.921875 192.804688 "/>
<path fill-rule="nonzero" fill="rgb(0%, 0%, 0%)" fill-opacity="1" stroke-width="1.803865" stroke-linecap="round" stroke-linejoin="round" stroke="rgb(0%, 0%, 0%)" stroke-opacity="1" stroke-miterlimit="10" d="M 396.683594 127.875 C 396.683594 134.511719 386.730469 134.511719 386.730469 127.875 C 386.730469 121.242188 396.683594 121.242188 396.683594 127.875 "/>
<path fill-rule="nonzero" fill="rgb(0%, 0%, 0%)" fill-opacity="1" stroke-width="1.803865" stroke-linecap="round" stroke-linejoin="round" stroke="rgb(0%, 0%, 0%)" stroke-opacity="1" stroke-miterlimit="10" d="M 313.054688 197.636719 C 313.054688 204.273438 303.101562 204.273438 303.101562 197.636719 C 303.101562 191.003906 313.054688 191.003906 313.054688 197.636719 "/>
<path fill-rule="nonzero" fill="rgb(0%, 0%, 0%)" fill-opacity="1" stroke-width="1.803865" stroke-linecap="round" stroke-linejoin="round" stroke="rgb(0%, 0%, 0%)" stroke-opacity="1" stroke-miterlimit="10" d="M 540.71875 92.539062 C 540.71875 99.171875 530.765625 99.171875 530.765625 92.539062 C 530.765625 85.902344 540.71875 85.902344 540.71875 92.539062 "/>
<path fill-rule="nonzero" fill="rgb(0%, 0%, 0%)" fill-opacity="1" stroke-width="1.803865" stroke-linecap="round" stroke-linejoin="round" stroke="rgb(0%, 0%, 0%)" stroke-opacity="1" stroke-miterlimit="10" d="M 423.144531 131.90625 C 423.144531 138.539062 413.191406 138.539062 413.191406 131.90625 C 413.191406 125.269531 423.144531 125.269531 423.144531 131.90625 "/>
<path fill-rule="nonzero" fill="rgb(0%, 0%, 0%)" fill-opacity="1" stroke-width="1.803865" stroke-linecap="round" stroke-linejoin="round" stroke="rgb(0%, 0%, 0%)" stroke-opacity="1" stroke-miterlimit="10" d="M 396.472656 102.84375 C 396.472656 109.480469 386.519531 109.480469 386.519531 102.84375 C 386.519531 96.210938 396.472656 96.210938 396.472656 102.84375 "/>
<path fill-rule="nonzero" fill="rgb(0%, 0%, 0%)" fill-opacity="1" stroke-width="1.803865" stroke-linecap="round" stroke-linejoin="round" stroke="rgb(0%, 0%, 0%)" stroke-opacity="1" stroke-miterlimit="10" d="M 390.882812 157.871094 C 390.882812 164.503906 380.929688 164.503906 380.929688 157.871094 C 380.929688 151.234375 390.882812 151.234375 390.882812 157.871094 "/>
<path fill-rule="nonzero" fill="rgb(0%, 0%, 0%)" fill-opacity="1" stroke-width="1.803865" stroke-linecap="round" stroke-linejoin="round" stroke="rgb(0%, 0%, 0%)" stroke-opacity="1" stroke-miterlimit="10" d="M 287.347656 130.410156 C 287.347656 137.046875 277.398438 137.046875 277.398438 130.410156 C 277.398438 123.777344 287.347656 123.777344 287.347656 130.410156 "/>
<path fill-rule="nonzero" fill="rgb(0%, 0%, 0%)" fill-opacity="1" stroke-width="1.803865" stroke-linecap="round" stroke-linejoin="round" stroke="rgb(0%, 0%, 0%)" stroke-opacity="1" stroke-miterlimit="10" d="M 419.980469 160.722656 C 419.980469 167.355469 410.027344 167.355469 410.027344 160.722656 C 410.027344 154.089844 419.980469 154.089844 419.980469 160.722656 "/>
<path fill-rule="nonzero" fill="rgb(0%, 0%, 0%)" fill-opacity="1" stroke-width="1.803865" stroke-linecap="round" stroke-linejoin="round" stroke="rgb(0%, 0%, 0%)" stroke-opacity="1" stroke-miterlimit="10" d="M 272.210938 168.769531 C 272.210938 175.402344 262.261719 175.402344 262.261719 168.769531 C 262.261719 162.132812 272.210938 162.132812 272.210938 168.769531 "/>
<path fill-rule="nonzero" fill="rgb(0%, 0%, 0%)" fill-opacity="1" stroke-width="1.803865" stroke-linecap="round" stroke-linejoin="round" stroke="rgb(0%, 0%, 0%)" stroke-opacity="1" stroke-miterlimit="10" d="M 407.410156 122.3125 C 407.410156 128.949219 397.460938 128.949219 397.460938 122.3125 C 397.460938 115.679688 407.410156 115.679688 407.410156 122.3125 "/>
<path fill-rule="nonzero" fill="rgb(0%, 0%, 0%)" fill-opacity="1" stroke-width="1.803865" stroke-linecap="round" stroke-linejoin="round" stroke="rgb(0%, 0%, 0%)" stroke-opacity="1" stroke-miterlimit="10" d="M 418.109375 76.113281 C 418.109375 82.746094 408.160156 82.746094 408.160156 76.113281 C 408.160156 69.476562 418.109375 69.476562 418.109375 76.113281 "/>
<path fill-rule="nonzero" fill="rgb(0%, 0%, 0%)" fill-opacity="1" stroke-width="1.803865" stroke-linecap="round" stroke-linejoin="round" stroke="rgb(0%, 0%, 0%)" stroke-opacity="1" stroke-miterlimit="10" d="M 448.273438 139.726562 C 448.273438 146.359375 438.320312 146.359375 438.320312 139.726562 C 438.320312 133.089844 448.273438 133.089844 448.273438 139.726562 "/>
<path fill-rule="nonzero" fill="rgb(0%, 0%, 0%)" fill-opacity="1" stroke-width="1.803865" stroke-linecap="round" stroke-linejoin="round" stroke="rgb(0%, 0%, 0%)" stroke-opacity="1" stroke-miterlimit="10" d="M 454.050781 110.386719 C 454.050781 117.019531 444.097656 117.019531 444.097656 110.386719 C 444.097656 103.75 454.050781 103.75 454.050781 110.386719 "/>
<path fill-rule="nonzero" fill="rgb(0%, 0%, 0%)" fill-opacity="1" stroke-width="1.803865" stroke-linecap="round" stroke-linejoin="round" stroke="rgb(0%, 0%, 0%)" stroke-opacity="1" stroke-miterlimit="10" d="M 413.878906 121.871094 C 413.878906 128.507812 403.925781 128.507812 403.925781 121.871094 C 403.925781 115.238281 413.878906 115.238281 413.878906 121.871094 "/>
<path fill-rule="nonzero" fill="rgb(0%, 0%, 0%)" fill-opacity="1" stroke-width="1.803865" stroke-linecap="round" stroke-linejoin="round" stroke="rgb(0%, 0%, 0%)" stroke-opacity="1" stroke-miterlimit="10" d="M 370.953125 163.394531 C 370.953125 170.03125 361 170.03125 361 163.394531 C 361 156.761719 370.953125 156.761719 370.953125 163.394531 "/>
<path fill-rule="nonzero" fill="rgb(0%, 0%, 0%)" fill-opacity="1" stroke-width="1.803865" stroke-linecap="round" stroke-linejoin="round" stroke="rgb(0%, 0%, 0%)" stroke-opacity="1" stroke-miterlimit="10" d="M 362.378906 172.496094 C 362.378906 179.128906 352.425781 179.128906 352.425781 172.496094 C 352.425781 165.859375 362.378906 165.859375 362.378906 172.496094 "/>
<path fill-rule="nonzero" fill="rgb(0%, 0%, 0%)" fill-opacity="1" stroke-width="1.803865" stroke-linecap="round" stroke-linejoin="round" stroke="rgb(0%, 0%, 0%)" stroke-opacity="1" stroke-miterlimit="10" d="M 396.753906 129.078125 C 396.753906 135.710938 386.804688 135.710938 386.804688 129.078125 C 386.804688 122.441406 396.753906 122.441406 396.753906 129.078125 "/>
<path fill-rule="nonzero" fill="rgb(0%, 0%, 0%)" fill-opacity="1" stroke-width="1.803865" stroke-linecap="round" stroke-linejoin="round" stroke="rgb(0%, 0%, 0%)" stroke-opacity="1" stroke-miterlimit="10" d="M 421.265625 133.804688 C 421.265625 140.4375 411.3125 140.4375 411.3125 133.804688 C 411.3125 127.171875 421.265625 127.171875 421.265625 133.804688 "/>
<path fill-rule="nonzero" fill="rgb(0%, 0%, 0%)" fill-opacity="1" stroke-width="1.803865" stroke-linecap="round" stroke-linejoin="round" stroke="rgb(0%, 0%, 0%)" stroke-opacity="1" stroke-miterlimit="10" d="M 348 161.554688 C 348 168.1875 338.050781 168.1875 338.050781 161.554688 C 338.050781 154.917969 348 154.917969 348 161.554688 "/>
<path fill-rule="nonzero" fill="rgb(0%, 0%, 0%)" fill-opacity="1" stroke-width="1.803865" stroke-linecap="round" stroke-linejoin="round" stroke="rgb(0%, 0%, 0%)" stroke-opacity="1" stroke-miterlimit="10" d="M 280.796875 183.015625 C 280.796875 189.652344 270.84375 189.652344 270.84375 183.015625 C 270.84375 176.382812 280.796875 176.382812 280.796875 183.015625 "/>
<path fill-rule="nonzero" fill="rgb(0%, 0%, 0%)" fill-opacity="1" stroke-width="1.803865" stroke-linecap="round" stroke-linejoin="round" stroke="rgb(0%, 0%, 0%)" stroke-opacity="1" stroke-miterlimit="10" d="M 558.890625 72.542969 C 558.890625 79.175781 548.9375 79.175781 548.9375 72.542969 C 548.9375 65.910156 558.890625 65.910156 558.890625 72.542969 "/>
<path fill-rule="nonzero" fill="rgb(0%, 0%, 0%)" fill-opacity="1" stroke-width="1.803865" stroke-linecap="round" stroke-linejoin="round" stroke="rgb(0%, 0%, 0%)" stroke-opacity="1" stroke-miterlimit="10" d="M 313.046875 219.660156 C 313.046875 226.292969 303.09375 226.292969 303.09375 219.660156 C 303.09375 213.023438 313.046875 213.023438 313.046875 219.660156 "/>
<path fill-rule="nonzero" fill="rgb(0%, 0%, 0%)" fill-opacity="1" stroke-width="1.803865" stroke-linecap="round" stroke-linejoin="round" stroke="rgb(0%, 0%, 0%)" stroke-opacity="1" stroke-miterlimit="10" d="M 301.644531 110.523438 C 301.644531 117.15625 291.695312 117.15625 291.695312 110.523438 C 291.695312 103.886719 301.644531 103.886719 301.644531 110.523438 "/>
<path fill-rule="nonzero" fill="rgb(0%, 0%, 0%)" fill-opacity="1" stroke-width="1.803865" stroke-linecap="round" stroke-linejoin="round" stroke="rgb(0%, 0%, 0%)" stroke-opacity="1" stroke-miterlimit="10" d="M 495.574219 133.003906 C 495.574219 139.640625 485.621094 139.640625 485.621094 133.003906 C 485.621094 126.371094 495.574219 126.371094 495.574219 133.003906 "/>
<path fill-rule="nonzero" fill="rgb(0%, 0%, 0%)" fill-opacity="1" stroke-width="1.803865" stroke-linecap="round" stroke-linejoin="round" stroke="rgb(0%, 0%, 0%)" stroke-opacity="1" stroke-miterlimit="10" d="M 368.652344 111.265625 C 368.652344 117.898438 358.703125 117.898438 358.703125 111.265625 C 358.703125 104.628906 368.652344 104.628906 368.652344 111.265625 "/>
<path fill-rule="nonzero" fill="rgb(0%, 0%, 0%)" fill-opacity="1" stroke-width="1.803865" stroke-linecap="round" stroke-linejoin="round" stroke="rgb(0%, 0%, 0%)" stroke-opacity="1" stroke-miterlimit="10" d="M 377.636719 130.078125 C 377.636719 136.714844 367.6875 136.714844 367.6875 130.078125 C 367.6875 123.445312 377.636719 123.445312 377.636719 130.078125 "/>
<path fill-rule="nonzero" fill="rgb(0%, 0%, 0%)" fill-opacity="1" stroke-width="1.803865" stroke-linecap="round" stroke-linejoin="round" stroke="rgb(0%, 0%, 0%)" stroke-opacity="1" stroke-miterlimit="10" d="M 474.460938 146.488281 C 474.460938 153.125 464.507812 153.125 464.507812 146.488281 C 464.507812 139.855469 474.460938 139.855469 474.460938 146.488281 "/>
<path fill-rule="nonzero" fill="rgb(0%, 0%, 0%)" fill-opacity="1" stroke-width="1.803865" stroke-linecap="round" stroke-linejoin="round" stroke="rgb(0%, 0%, 0%)" stroke-opacity="1" stroke-miterlimit="10" d="M 338.308594 177.835938 C 338.308594 184.46875 328.359375 184.46875 328.359375 177.835938 C 328.359375 171.199219 338.308594 171.199219 338.308594 177.835938 "/>
<path fill-rule="nonzero" fill="rgb(0%, 0%, 0%)" fill-opacity="1" stroke-width="1.803865" stroke-linecap="round" stroke-linejoin="round" stroke="rgb(0%, 0%, 0%)" stroke-opacity="1" stroke-miterlimit="10" d="M 301.175781 125.800781 C 301.175781 132.433594 291.222656 132.433594 291.222656 125.800781 C 291.222656 119.164062 301.175781 119.164062 301.175781 125.800781 "/>
<path fill-rule="nonzero" fill="rgb(0%, 0%, 0%)" fill-opacity="1" stroke-width="1.803865" stroke-linecap="round" stroke-linejoin="round" stroke="rgb(0%, 0%, 0%)" stroke-opacity="1" stroke-miterlimit="10" d="M 399.546875 129.085938 C 399.546875 135.71875 389.597656 135.71875 389.597656 129.085938 C 389.597656 122.449219 399.546875 122.449219 399.546875 129.085938 "/>
<path fill-rule="nonzero" fill="rgb(0%, 0%, 0%)" fill-opacity="1" stroke-width="1.803865" stroke-linecap="round" stroke-linejoin="round" stroke="rgb(0%, 0%, 0%)" stroke-opacity="1" stroke-miterlimit="10" d="M 446.160156 134.996094 C 446.160156 141.632812 436.210938 141.632812 436.210938 134.996094 C 436.210938 128.363281 446.160156 128.363281 446.160156 134.996094 "/>
<path fill-rule="nonzero" fill="rgb(0%, 0%, 0%)" fill-opacity="1" stroke-width="1.803865" stroke-linecap="round" stroke-linejoin="round" stroke="rgb(0%, 0%, 0%)" stroke-opacity="1" stroke-miterlimit="10" d="M 361.78125 155.796875 C 361.78125 162.429688 351.828125 162.429688 351.828125 155.796875 C 351.828125 149.164062 361.78125 149.164062 361.78125 155.796875 "/>
<path fill-rule="nonzero" fill="rgb(0%, 0%, 0%)" fill-opacity="1" stroke-width="1.803865" stroke-linecap="round" stroke-linejoin="round" stroke="rgb(0%, 0%, 0%)" stroke-opacity="1" stroke-miterlimit="10" d="M 399.441406 129.511719 C 399.441406 136.148438 389.488281 136.148438 389.488281 129.511719 C 389.488281 122.878906 399.441406 122.878906 399.441406 129.511719 "/>
<path fill-rule="nonzero" fill="rgb(0%, 0%, 0%)" fill-opacity="1" stroke-width="1.803865" stroke-linecap="round" stroke-linejoin="round" stroke="rgb(0%, 0%, 0%)" stroke-opacity="1" stroke-miterlimit="10" d="M 513.300781 125.3125 C 513.300781 131.949219 503.347656 131.949219 503.347656 125.3125 C 503.347656 118.679688 513.300781 118.679688 513.300781 125.3125 "/>
<path fill-rule="nonzero" fill="rgb(0%, 0%, 0%)" fill-opacity="1" stroke-width="1.803865" stroke-linecap="round" stroke-linejoin="round" stroke="rgb(0%, 0%, 0%)" stroke-opacity="1" stroke-miterlimit="10" d="M 465.328125 90.734375 C 465.328125 97.371094 455.375 97.371094 455.375 90.734375 C 455.375 84.101562 465.328125 84.101562 465.328125 90.734375 "/>
<path fill-rule="nonzero" fill="rgb(0%, 0%, 0%)" fill-opacity="1" stroke-width="1.803865" stroke-linecap="round" stroke-linejoin="round" stroke="rgb(0%, 0%, 0%)" stroke-opacity="1" stroke-miterlimit="10" d="M 530.398438 113.324219 C 530.398438 119.957031 520.449219 119.957031 520.449219 113.324219 C 520.449219 106.6875 530.398438 106.6875 530.398438 113.324219 "/>
<path fill-rule="nonzero" fill="rgb(0%, 0%, 0%)" fill-opacity="1" stroke-width="1.803865" stroke-linecap="round" stroke-linejoin="round" stroke="rgb(0%, 0%, 0%)" stroke-opacity="1" stroke-miterlimit="10" d="M 429.953125 92.816406 C 429.953125 99.449219 420 99.449219 420 92.816406 C 420 86.179688 429.953125 86.179688 429.953125 92.816406 "/>
<path fill-rule="nonzero" fill="rgb(0%, 0%, 0%)" fill-opacity="1" stroke-width="1.803865" stroke-linecap="round" stroke-linejoin="round" stroke="rgb(0%, 0%, 0%)" stroke-opacity="1" stroke-miterlimit="10" d="M 373.058594 123.859375 C 373.058594 130.496094 363.105469 130.496094 363.105469 123.859375 C 363.105469 117.226562 373.058594 117.226562 373.058594 123.859375 "/>
<path fill-rule="nonzero" fill="rgb(0%, 0%, 0%)" fill-opacity="1" stroke-width="1.803865" stroke-linecap="round" stroke-linejoin="round" stroke="rgb(0%, 0%, 0%)" stroke-opacity="1" stroke-miterlimit="10" d="M 232.851562 230.738281 C 232.851562 237.375 222.902344 237.375 222.902344 230.738281 C 222.902344 224.105469 232.851562 224.105469 232.851562 230.738281 "/>
<path fill-rule="nonzero" fill="rgb(0%, 0%, 0%)" fill-opacity="1" stroke-width="1.803865" stroke-linecap="round" stroke-linejoin="round" stroke="rgb(0%, 0%, 0%)" stroke-opacity="1" stroke-miterlimit="10" d="M 576.5625 119.066406 C 576.5625 125.699219 566.609375 125.699219 566.609375 119.066406 C 566.609375 112.433594 576.5625 112.433594 576.5625 119.066406 "/>
<path fill-rule="nonzero" fill="rgb(0%, 0%, 0%)" fill-opacity="1" stroke-width="1.803865" stroke-linecap="round" stroke-linejoin="round" stroke="rgb(0%, 0%, 0%)" stroke-opacity="1" stroke-miterlimit="10" d="M 501.148438 116.097656 C 501.148438 122.730469 491.195312 122.730469 491.195312 116.097656 C 491.195312 109.464844 501.148438 109.464844 501.148438 116.097656 "/>
<path fill-rule="nonzero" fill="rgb(0%, 0%, 0%)" fill-opacity="1" stroke-width="1.803865" stroke-linecap="round" stroke-linejoin="round" stroke="rgb(0%, 0%, 0%)" stroke-opacity="1" stroke-miterlimit="10" d="M 494.488281 159.804688 C 494.488281 166.4375 484.535156 166.4375 484.535156 159.804688 C 484.535156 153.171875 494.488281 153.171875 494.488281 159.804688 "/>
<path fill-rule="nonzero" fill="rgb(0%, 0%, 0%)" fill-opacity="1" stroke-width="1.803865" stroke-linecap="round" stroke-linejoin="round" stroke="rgb(0%, 0%, 0%)" stroke-opacity="1" stroke-miterlimit="10" d="M 361.285156 189.605469 C 361.285156 196.238281 351.332031 196.238281 351.332031 189.605469 C 351.332031 182.96875 361.285156 182.96875 361.285156 189.605469 "/>
<path fill-rule="nonzero" fill="rgb(0%, 0%, 0%)" fill-opacity="1" stroke-width="1.803865" stroke-linecap="round" stroke-linejoin="round" stroke="rgb(0%, 0%, 0%)" stroke-opacity="1" stroke-miterlimit="10" d="M 422.933594 103.949219 C 422.933594 110.582031 412.980469 110.582031 412.980469 103.949219 C 412.980469 97.3125 422.933594 97.3125 422.933594 103.949219 "/>
<path fill-rule="nonzero" fill="rgb(0%, 0%, 0%)" fill-opacity="1" stroke-width="1.803865" stroke-linecap="round" stroke-linejoin="round" stroke="rgb(0%, 0%, 0%)" stroke-opacity="1" stroke-miterlimit="10" d="M 330.441406 146.8125 C 330.441406 153.445312 320.492188 153.445312 320.492188 146.8125 C 320.492188 140.175781 330.441406 140.175781 330.441406 146.8125 "/>
<path fill-rule="nonzero" fill="rgb(0%, 0%, 0%)" fill-opacity="1" stroke-width="1.803865" stroke-linecap="round" stroke-linejoin="round" stroke="rgb(0%, 0%, 0%)" stroke-opacity="1" stroke-miterlimit="10" d="M 404.679688 106.859375 C 404.679688 113.492188 394.726562 113.492188 394.726562 106.859375 C 394.726562 100.226562 404.679688 100.226562 404.679688 106.859375 "/>
<path fill-rule="nonzero" fill="rgb(0%, 0%, 0%)" fill-opacity="1" stroke-width="1.803865" stroke-linecap="round" stroke-linejoin="round" stroke="rgb(0%, 0%, 0%)" stroke-opacity="1" stroke-miterlimit="10" d="M 455.921875 101.832031 C 455.921875 108.46875 445.972656 108.46875 445.972656 101.832031 C 445.972656 95.199219 455.921875 95.199219 455.921875 101.832031 "/>
<path fill-rule="nonzero" fill="rgb(0%, 0%, 0%)" fill-opacity="1" stroke-width="1.803865" stroke-linecap="round" stroke-linejoin="round" stroke="rgb(0%, 0%, 0%)" stroke-opacity="1" stroke-miterlimit="10" d="M 250.132812 217.644531 C 250.132812 224.28125 240.183594 224.28125 240.183594 217.644531 C 240.183594 211.011719 250.132812 211.011719 250.132812 217.644531 "/>
<path fill-rule="nonzero" fill="rgb(0%, 0%, 0%)" fill-opacity="1" stroke-width="1.803865" stroke-linecap="round" stroke-linejoin="round" stroke="rgb(0%, 0%, 0%)" stroke-opacity="1" stroke-miterlimit="10" d="M 418.699219 95.65625 C 418.699219 102.289062 408.746094 102.289062 408.746094 95.65625 C 408.746094 89.019531 418.699219 89.019531 418.699219 95.65625 "/>
<path fill-rule="nonzero" fill="rgb(0%, 0%, 0%)" fill-opacity="1" stroke-width="1.803865" stroke-linecap="round" stroke-linejoin="round" stroke="rgb(0%, 0%, 0%)" stroke-opacity="1" stroke-miterlimit="10" d="M 460.558594 91.902344 C 460.558594 98.535156 450.605469 98.535156 450.605469 91.902344 C 450.605469 85.269531 460.558594 85.269531 460.558594 91.902344 "/>
<path fill-rule="nonzero" fill="rgb(0%, 0%, 0%)" fill-opacity="1" stroke-width="1.803865" stroke-linecap="round" stroke-linejoin="round" stroke="rgb(0%, 0%, 0%)" stroke-opacity="1" stroke-miterlimit="10" d="M 241.238281 155.257812 C 241.238281 161.894531 231.285156 161.894531 231.285156 155.257812 C 231.285156 148.625 241.238281 148.625 241.238281 155.257812 "/>
<path fill-rule="nonzero" fill="rgb(0%, 0%, 0%)" fill-opacity="1" stroke-width="1.803865" stroke-linecap="round" stroke-linejoin="round" stroke="rgb(0%, 0%, 0%)" stroke-opacity="1" stroke-miterlimit="10" d="M 245.746094 174.351562 C 245.746094 180.984375 235.792969 180.984375 235.792969 174.351562 C 235.792969 167.714844 245.746094 167.714844 245.746094 174.351562 "/>
<path fill-rule="nonzero" fill="rgb(0%, 0%, 0%)" fill-opacity="1" stroke-width="1.803865" stroke-linecap="round" stroke-linejoin="round" stroke="rgb(0%, 0%, 0%)" stroke-opacity="1" stroke-miterlimit="10" d="M 517.503906 107.738281 C 517.503906 114.371094 507.550781 114.371094 507.550781 107.738281 C 507.550781 101.101562 517.503906 101.101562 517.503906 107.738281 "/>
<path fill-rule="nonzero" fill="rgb(0%, 0%, 0%)" fill-opacity="1" stroke-width="1.803865" stroke-linecap="round" stroke-linejoin="round" stroke="rgb(0%, 0%, 0%)" stroke-opacity="1" stroke-miterlimit="10" d="M 472.285156 88.402344 C 472.285156 95.035156 462.335938 95.035156 462.335938 88.402344 C 462.335938 81.765625 472.285156 81.765625 472.285156 88.402344 "/>
<path fill-rule="nonzero" fill="rgb(0%, 0%, 0%)" fill-opacity="1" stroke-width="1.803865" stroke-linecap="round" stroke-linejoin="round" stroke="rgb(0%, 0%, 0%)" stroke-opacity="1" stroke-miterlimit="10" d="M 614.324219 95.390625 C 614.324219 102.027344 604.375 102.027344 604.375 95.390625 C 604.375 88.757812 614.324219 88.757812 614.324219 95.390625 "/>
<path fill-rule="nonzero" fill="rgb(0%, 0%, 0%)" fill-opacity="1" stroke-width="1.803865" stroke-linecap="round" stroke-linejoin="round" stroke="rgb(0%, 0%, 0%)" stroke-opacity="1" stroke-miterlimit="10" d="M 390.523438 193.355469 C 390.523438 199.992188 380.570312 199.992188 380.570312 193.355469 C 380.570312 186.722656 390.523438 186.722656 390.523438 193.355469 "/>
<path fill-rule="nonzero" fill="rgb(0%, 0%, 0%)" fill-opacity="1" stroke-width="1.803865" stroke-linecap="round" stroke-linejoin="round" stroke="rgb(0%, 0%, 0%)" stroke-opacity="1" stroke-miterlimit="10" d="M 372.871094 99.578125 C 372.871094 106.210938 362.917969 106.210938 362.917969 99.578125 C 362.917969 92.941406 372.871094 92.941406 372.871094 99.578125 "/>
<path fill-rule="nonzero" fill="rgb(0%, 0%, 0%)" fill-opacity="1" stroke-width="1.803865" stroke-linecap="round" stroke-linejoin="round" stroke="rgb(0%, 0%, 0%)" stroke-opacity="1" stroke-miterlimit="10" d="M 478.492188 28.089844 C 478.492188 34.722656 468.542969 34.722656 468.542969 28.089844 C 468.542969 21.453125 478.492188 21.453125 478.492188 28.089844 "/>
<path fill-rule="nonzero" fill="rgb(0%, 0%, 0%)" fill-opacity="1" stroke-width="1.803865" stroke-linecap="round" stroke-linejoin="round" stroke="rgb(0%, 0%, 0%)" stroke-opacity="1" stroke-miterlimit="10" d="M 343.035156 192.671875 C 343.035156 199.304688 333.082031 199.304688 333.082031 192.671875 C 333.082031 186.035156 343.035156 186.035156 343.035156 192.671875 "/>
<path fill-rule="nonzero" fill="rgb(0%, 0%, 0%)" fill-opacity="1" stroke-width="1.803865" stroke-linecap="round" stroke-linejoin="round" stroke="rgb(0%, 0%, 0%)" stroke-opacity="1" stroke-miterlimit="10" d="M 255.90625 188.011719 C 255.90625 194.644531 245.953125 194.644531 245.953125 188.011719 C 245.953125 181.375 255.90625 181.375 255.90625 188.011719 "/>
<path fill-rule="nonzero" fill="rgb(0%, 0%, 0%)" fill-opacity="1" stroke-width="1.803865" stroke-linecap="round" stroke-linejoin="round" stroke="rgb(0%, 0%, 0%)" stroke-opacity="1" stroke-miterlimit="10" d="M 339.820312 132.152344 C 339.820312 138.785156 329.871094 138.785156 329.871094 132.152344 C 329.871094 125.519531 339.820312 125.519531 339.820312 132.152344 "/>
<path fill-rule="nonzero" fill="rgb(0%, 0%, 0%)" fill-opacity="1" stroke-width="1.803865" stroke-linecap="round" stroke-linejoin="round" stroke="rgb(0%, 0%, 0%)" stroke-opacity="1" stroke-miterlimit="10" d="M 306.320312 151.359375 C 306.320312 157.992188 296.371094 157.992188 296.371094 151.359375 C 296.371094 144.726562 306.320312 144.726562 306.320312 151.359375 "/>
<path fill-rule="nonzero" fill="rgb(0%, 0%, 0%)" fill-opacity="1" stroke-width="1.803865" stroke-linecap="round" stroke-linejoin="round" stroke="rgb(0%, 0%, 0%)" stroke-opacity="1" stroke-miterlimit="10" d="M 459.835938 138.808594 C 459.835938 145.445312 449.886719 145.445312 449.886719 138.808594 C 449.886719 132.175781 459.835938 132.175781 459.835938 138.808594 "/>
<path fill-rule="nonzero" fill="rgb(0%, 0%, 0%)" fill-opacity="1" stroke-width="1.803865" stroke-linecap="round" stroke-linejoin="round" stroke="rgb(0%, 0%, 0%)" stroke-opacity="1" stroke-miterlimit="10" d="M 354.53125 110.695312 C 354.53125 117.332031 344.578125 117.332031 344.578125 110.695312 C 344.578125 104.0625 354.53125 104.0625 354.53125 110.695312 "/>
<path fill-rule="nonzero" fill="rgb(0%, 0%, 0%)" fill-opacity="1" stroke-width="1.803865" stroke-linecap="round" stroke-linejoin="round" stroke="rgb(0%, 0%, 0%)" stroke-opacity="1" stroke-miterlimit="10" d="M 368.660156 169.226562 C 368.660156 175.859375 358.707031 175.859375 358.707031 169.226562 C 358.707031 162.589844 368.660156 162.589844 368.660156 169.226562 "/>
<path fill-rule="nonzero" fill="rgb(0%, 0%, 0%)" fill-opacity="1" stroke-width="1.803865" stroke-linecap="round" stroke-linejoin="round" stroke="rgb(0%, 0%, 0%)" stroke-opacity="1" stroke-miterlimit="10" d="M 434.871094 151.558594 C 434.871094 158.191406 424.921875 158.191406 424.921875 151.558594 C 424.921875 144.925781 434.871094 144.925781 434.871094 151.558594 "/>
<path fill-rule="nonzero" fill="rgb(0%, 0%, 0%)" fill-opacity="1" stroke-width="1.803865" stroke-linecap="round" stroke-linejoin="round" stroke="rgb(0%, 0%, 0%)" stroke-opacity="1" stroke-miterlimit="10" d="M 237.375 195.390625 C 237.375 202.027344 227.421875 202.027344 227.421875 195.390625 C 227.421875 188.757812 237.375 188.757812 237.375 195.390625 "/>
<path fill-rule="nonzero" fill="rgb(0%, 0%, 0%)" fill-opacity="1" stroke-width="1.803865" stroke-linecap="round" stroke-linejoin="round" stroke="rgb(0%, 0%, 0%)" stroke-opacity="1" stroke-miterlimit="10" d="M 290.695312 180.199219 C 290.695312 186.835938 280.746094 186.835938 280.746094 180.199219 C 280.746094 173.566406 290.695312 173.566406 290.695312 180.199219 "/>
<path fill-rule="nonzero" fill="rgb(0%, 0%, 0%)" fill-opacity="1" stroke-width="1.803865" stroke-linecap="round" stroke-linejoin="round" stroke="rgb(0%, 0%, 0%)" stroke-opacity="1" stroke-miterlimit="10" d="M 414.699219 121.09375 C 414.699219 127.730469 404.746094 127.730469 404.746094 121.09375 C 404.746094 114.460938 414.699219 114.460938 414.699219 121.09375 "/>
<path fill-rule="nonzero" fill="rgb(0%, 0%, 0%)" fill-opacity="1" stroke-width="1.803865" stroke-linecap="round" stroke-linejoin="round" stroke="rgb(0%, 0%, 0%)" stroke-opacity="1" stroke-miterlimit="10" d="M 415.488281 83.515625 C 415.488281 90.148438 405.535156 90.148438 405.535156 83.515625 C 405.535156 76.878906 415.488281 76.878906 415.488281 83.515625 "/>
<path fill-rule="nonzero" fill="rgb(0%, 0%, 0%)" fill-opacity="1" stroke-width="1.803865" stroke-linecap="round" stroke-linejoin="round" stroke="rgb(0%, 0%, 0%)" stroke-opacity="1" stroke-miterlimit="10" d="M 459.125 140.019531 C 459.125 146.652344 449.171875 146.652344 449.171875 140.019531 C 449.171875 133.382812 459.125 133.382812 459.125 140.019531 "/>
<path fill-rule="nonzero" fill="rgb(0%, 0%, 0%)" fill-opacity="1" stroke-width="1.803865" stroke-linecap="round" stroke-linejoin="round" stroke="rgb(0%, 0%, 0%)" stroke-opacity="1" stroke-miterlimit="10" d="M 369.355469 159.308594 C 369.355469 165.941406 359.402344 165.941406 359.402344 159.308594 C 359.402344 152.671875 369.355469 152.671875 369.355469 159.308594 "/>
<path fill-rule="nonzero" fill="rgb(0%, 0%, 0%)" fill-opacity="1" stroke-width="1.803865" stroke-linecap="round" stroke-linejoin="round" stroke="rgb(0%, 0%, 0%)" stroke-opacity="1" stroke-miterlimit="10" d="M 372.773438 193.144531 C 372.773438 199.78125 362.820312 199.78125 362.820312 193.144531 C 362.820312 186.511719 372.773438 186.511719 372.773438 193.144531 "/>
<path fill-rule="nonzero" fill="rgb(0%, 0%, 0%)" fill-opacity="1" stroke-width="1.803865" stroke-linecap="round" stroke-linejoin="round" stroke="rgb(0%, 0%, 0%)" stroke-opacity="1" stroke-miterlimit="10" d="M 294.097656 96.734375 C 294.097656 103.367188 284.144531 103.367188 284.144531 96.734375 C 284.144531 90.097656 294.097656 90.097656 294.097656 96.734375 "/>
<path fill-rule="nonzero" fill="rgb(0%, 0%, 0%)" fill-opacity="1" stroke-width="1.803865" stroke-linecap="round" stroke-linejoin="round" stroke="rgb(0%, 0%, 0%)" stroke-opacity="1" stroke-miterlimit="10" d="M 403.335938 90.261719 C 403.335938 96.894531 393.382812 96.894531 393.382812 90.261719 C 393.382812 83.628906 403.335938 83.628906 403.335938 90.261719 "/>
<path fill-rule="nonzero" fill="rgb(0%, 0%, 0%)" fill-opacity="1" stroke-width="1.803865" stroke-linecap="round" stroke-linejoin="round" stroke="rgb(0%, 0%, 0%)" stroke-opacity="1" stroke-miterlimit="10" d="M 506.976562 118.816406 C 506.976562 125.449219 497.023438 125.449219 497.023438 118.816406 C 497.023438 112.183594 506.976562 112.183594 506.976562 118.816406 "/>
<path fill-rule="nonzero" fill="rgb(0%, 0%, 0%)" fill-opacity="1" stroke-width="1.803865" stroke-linecap="round" stroke-linejoin="round" stroke="rgb(0%, 0%, 0%)" stroke-opacity="1" stroke-miterlimit="10" d="M 359.632812 145.242188 C 359.632812 151.875 349.679688 151.875 349.679688 145.242188 C 349.679688 138.605469 359.632812 138.605469 359.632812 145.242188 "/>
<path fill-rule="nonzero" fill="rgb(0%, 0%, 0%)" fill-opacity="1" stroke-width="1.803865" stroke-linecap="round" stroke-linejoin="round" stroke="rgb(0%, 0%, 0%)" stroke-opacity="1" stroke-miterlimit="10" d="M 496.558594 132.007812 C 496.558594 138.640625 486.609375 138.640625 486.609375 132.007812 C 486.609375 125.371094 496.558594 125.371094 496.558594 132.007812 "/>
<path fill-rule="nonzero" fill="rgb(0%, 0%, 0%)" fill-opacity="1" stroke-width="1.803865" stroke-linecap="round" stroke-linejoin="round" stroke="rgb(0%, 0%, 0%)" stroke-opacity="1" stroke-miterlimit="10" d="M 292.949219 183.179688 C 292.949219 189.816406 283 189.816406 283 183.179688 C 283 176.546875 292.949219 176.546875 292.949219 183.179688 "/>
<path fill-rule="nonzero" fill="rgb(0%, 0%, 0%)" fill-opacity="1" stroke-width="1.803865" stroke-linecap="round" stroke-linejoin="round" stroke="rgb(0%, 0%, 0%)" stroke-opacity="1" stroke-miterlimit="10" d="M 350.917969 198.398438 C 350.917969 205.03125 340.96875 205.03125 340.96875 198.398438 C 340.96875 191.761719 350.917969 191.761719 350.917969 198.398438 "/>
<path fill-rule="nonzero" fill="rgb(0%, 0%, 0%)" fill-opacity="1" stroke-width="1.803865" stroke-linecap="round" stroke-linejoin="round" stroke="rgb(0%, 0%, 0%)" stroke-opacity="1" stroke-miterlimit="10" d="M 378.171875 132.371094 C 378.171875 139.003906 368.222656 139.003906 368.222656 132.371094 C 368.222656 125.734375 378.171875 125.734375 378.171875 132.371094 "/>
<path fill-rule="nonzero" fill="rgb(0%, 0%, 0%)" fill-opacity="1" stroke-width="1.803865" stroke-linecap="round" stroke-linejoin="round" stroke="rgb(0%, 0%, 0%)" stroke-opacity="1" stroke-miterlimit="10" d="M 406.011719 124.039062 C 406.011719 130.675781 396.0625 130.675781 396.0625 124.039062 C 396.0625 117.40625 406.011719 117.40625 406.011719 124.039062 "/>
<path fill-rule="nonzero" fill="rgb(0%, 0%, 0%)" fill-opacity="1" stroke-width="1.803865" stroke-linecap="round" stroke-linejoin="round" stroke="rgb(0%, 0%, 0%)" stroke-opacity="1" stroke-miterlimit="10" d="M 378.96875 87.097656 C 378.96875 93.734375 369.019531 93.734375 369.019531 87.097656 C 369.019531 80.464844 378.96875 80.464844 378.96875 87.097656 "/>
<path fill-rule="nonzero" fill="rgb(0%, 0%, 0%)" fill-opacity="1" stroke-width="1.803865" stroke-linecap="round" stroke-linejoin="round" stroke="rgb(0%, 0%, 0%)" stroke-opacity="1" stroke-miterlimit="10" d="M 563.59375 58.59375 C 563.59375 65.226562 553.640625 65.226562 553.640625 58.59375 C 553.640625 51.957031 563.59375 51.957031 563.59375 58.59375 "/>
<path fill-rule="nonzero" fill="rgb(0%, 0%, 0%)" fill-opacity="1" stroke-width="1.803865" stroke-linecap="round" stroke-linejoin="round" stroke="rgb(0%, 0%, 0%)" stroke-opacity="1" stroke-miterlimit="10" d="M 399.59375 108.496094 C 399.59375 115.132812 389.640625 115.132812 389.640625 108.496094 C 389.640625 101.863281 399.59375 101.863281 399.59375 108.496094 "/>
<path fill-rule="nonzero" fill="rgb(0%, 0%, 0%)" fill-opacity="1" stroke-width="1.803865" stroke-linecap="round" stroke-linejoin="round" stroke="rgb(0%, 0%, 0%)" stroke-opacity="1" stroke-miterlimit="10" d="M 421.855469 151.691406 C 421.855469 158.328125 411.902344 158.328125 411.902344 151.691406 C 411.902344 145.058594 421.855469 145.058594 421.855469 151.691406 "/>
<path fill-rule="nonzero" fill="rgb(0%, 0%, 0%)" fill-opacity="1" stroke-width="1.803865" stroke-linecap="round" stroke-linejoin="round" stroke="rgb(0%, 0%, 0%)" stroke-opacity="1" stroke-miterlimit="10" d="M 348.917969 137.800781 C 348.917969 144.4375 338.96875 144.4375 338.96875 137.800781 C 338.96875 131.167969 348.917969 131.167969 348.917969 137.800781 "/>
<path fill-rule="nonzero" fill="rgb(0%, 0%, 0%)" fill-opacity="1" stroke-width="1.803865" stroke-linecap="round" stroke-linejoin="round" stroke="rgb(0%, 0%, 0%)" stroke-opacity="1" stroke-miterlimit="10" d="M 402.425781 103.34375 C 402.425781 109.976562 392.472656 109.976562 392.472656 103.34375 C 392.472656 96.707031 402.425781 96.707031 402.425781 103.34375 "/>
<path fill-rule="nonzero" fill="rgb(0%, 0%, 0%)" fill-opacity="1" stroke-width="1.803865" stroke-linecap="round" stroke-linejoin="round" stroke="rgb(0%, 0%, 0%)" stroke-opacity="1" stroke-miterlimit="10" d="M 484.476562 157.8125 C 484.476562 164.445312 474.523438 164.445312 474.523438 157.8125 C 474.523438 151.175781 484.476562 151.175781 484.476562 157.8125 "/>
<path fill-rule="nonzero" fill="rgb(0%, 0%, 0%)" fill-opacity="1" stroke-width="1.803865" stroke-linecap="round" stroke-linejoin="round" stroke="rgb(0%, 0%, 0%)" stroke-opacity="1" stroke-miterlimit="10" d="M 390.46875 83.351562 C 390.46875 89.984375 380.519531 89.984375 380.519531 83.351562 C 380.519531 76.71875 390.46875 76.71875 390.46875 83.351562 "/>
<path fill-rule="nonzero" fill="rgb(0%, 0%, 0%)" fill-opacity="1" stroke-width="1.803865" stroke-linecap="round" stroke-linejoin="round" stroke="rgb(0%, 0%, 0%)" stroke-opacity="1" stroke-miterlimit="10" d="M 374.273438 193.085938 C 374.273438 199.722656 364.320312 199.722656 364.320312 193.085938 C 364.320312 186.453125 374.273438 186.453125 374.273438 193.085938 "/>
<path fill-rule="nonzero" fill="rgb(0%, 0%, 0%)" fill-opacity="1" stroke-width="1.803865" stroke-linecap="round" stroke-linejoin="round" stroke="rgb(0%, 0%, 0%)" stroke-opacity="1" stroke-miterlimit="10" d="M 387.859375 143.1875 C 387.859375 149.820312 377.910156 149.820312 377.910156 143.1875 C 377.910156 136.554688 387.859375 136.554688 387.859375 143.1875 "/>
<path fill-rule="nonzero" fill="rgb(0%, 0%, 0%)" fill-opacity="1" stroke-width="1.803865" stroke-linecap="round" stroke-linejoin="round" stroke="rgb(0%, 0%, 0%)" stroke-opacity="1" stroke-miterlimit="10" d="M 453.339844 107.597656 C 453.339844 114.230469 443.386719 114.230469 443.386719 107.597656 C 443.386719 100.964844 453.339844 100.964844 453.339844 107.597656 "/>
<path fill-rule="nonzero" fill="rgb(0%, 0%, 0%)" fill-opacity="1" stroke-width="1.803865" stroke-linecap="round" stroke-linejoin="round" stroke="rgb(0%, 0%, 0%)" stroke-opacity="1" stroke-miterlimit="10" d="M 356.574219 96.785156 C 356.574219 103.417969 346.621094 103.417969 346.621094 96.785156 C 346.621094 90.152344 356.574219 90.152344 356.574219 96.785156 "/>
<path fill-rule="nonzero" fill="rgb(0%, 0%, 0%)" fill-opacity="1" stroke-width="1.803865" stroke-linecap="round" stroke-linejoin="round" stroke="rgb(0%, 0%, 0%)" stroke-opacity="1" stroke-miterlimit="10" d="M 682.820312 113.855469 C 682.820312 120.492188 672.867188 120.492188 672.867188 113.855469 C 672.867188 107.222656 682.820312 107.222656 682.820312 113.855469 "/>
<path fill-rule="nonzero" fill="rgb(0%, 0%, 0%)" fill-opacity="1" stroke-width="1.803865" stroke-linecap="round" stroke-linejoin="round" stroke="rgb(0%, 0%, 0%)" stroke-opacity="1" stroke-miterlimit="10" d="M 319.234375 141.984375 C 319.234375 148.617188 309.28125 148.617188 309.28125 141.984375 C 309.28125 135.347656 319.234375 135.347656 319.234375 141.984375 "/>
<path fill-rule="nonzero" fill="rgb(0%, 0%, 0%)" fill-opacity="1" stroke-width="1.803865" stroke-linecap="round" stroke-linejoin="round" stroke="rgb(0%, 0%, 0%)" stroke-opacity="1" stroke-miterlimit="10" d="M 475.730469 98.652344 C 475.730469 105.289062 465.78125 105.289062 465.78125 98.652344 C 465.78125 92.019531 475.730469 92.019531 475.730469 98.652344 "/>
<path fill-rule="nonzero" fill="rgb(0%, 0%, 0%)" fill-opacity="1" stroke-width="1.803865" stroke-linecap="round" stroke-linejoin="round" stroke="rgb(0%, 0%, 0%)" stroke-opacity="1" stroke-miterlimit="10" d="M 562.6875 38.714844 C 562.6875 45.347656 552.734375 45.347656 552.734375 38.714844 C 552.734375 32.078125 562.6875 32.078125 562.6875 38.714844 "/>
<path fill-rule="nonzero" fill="rgb(0%, 0%, 0%)" fill-opacity="1" stroke-width="1.803865" stroke-linecap="round" stroke-linejoin="round" stroke="rgb(0%, 0%, 0%)" stroke-opacity="1" stroke-miterlimit="10" d="M 486.972656 168.644531 C 486.972656 175.28125 477.019531 175.28125 477.019531 168.644531 C 477.019531 162.011719 486.972656 162.011719 486.972656 168.644531 "/>
<path fill-rule="nonzero" fill="rgb(0%, 0%, 0%)" fill-opacity="1" stroke-width="1.803865" stroke-linecap="round" stroke-linejoin="round" stroke="rgb(0%, 0%, 0%)" stroke-opacity="1" stroke-miterlimit="10" d="M 373.644531 165.609375 C 373.644531 172.242188 363.691406 172.242188 363.691406 165.609375 C 363.691406 158.976562 373.644531 158.976562 373.644531 165.609375 "/>
<path fill-rule="nonzero" fill="rgb(0%, 0%, 0%)" fill-opacity="1" stroke-width="1.803865" stroke-linecap="round" stroke-linejoin="round" stroke="rgb(0%, 0%, 0%)" stroke-opacity="1" stroke-miterlimit="10" d="M 392.894531 143.152344 C 392.894531 149.789062 382.941406 149.789062 382.941406 143.152344 C 382.941406 136.519531 392.894531 136.519531 392.894531 143.152344 "/>
<path fill-rule="nonzero" fill="rgb(0%, 0%, 0%)" fill-opacity="1" stroke-width="1.803865" stroke-linecap="round" stroke-linejoin="round" stroke="rgb(0%, 0%, 0%)" stroke-opacity="1" stroke-miterlimit="10" d="M 436.007812 135.207031 C 436.007812 141.839844 426.058594 141.839844 426.058594 135.207031 C 426.058594 128.570312 436.007812 128.570312 436.007812 135.207031 "/>
<path fill-rule="nonzero" fill="rgb(0%, 0%, 0%)" fill-opacity="1" stroke-width="1.803865" stroke-linecap="round" stroke-linejoin="round" stroke="rgb(0%, 0%, 0%)" stroke-opacity="1" stroke-miterlimit="10" d="M 386.6875 86.164062 C 386.6875 92.796875 376.734375 92.796875 376.734375 86.164062 C 376.734375 79.53125 386.6875 79.53125 386.6875 86.164062 "/>
<path fill-rule="nonzero" fill="rgb(0%, 0%, 0%)" fill-opacity="1" stroke-width="1.803865" stroke-linecap="round" stroke-linejoin="round" stroke="rgb(0%, 0%, 0%)" stroke-opacity="1" stroke-miterlimit="10" d="M 118.660156 197.5625 C 118.660156 204.195312 108.707031 204.195312 108.707031 197.5625 C 108.707031 190.929688 118.660156 190.929688 118.660156 197.5625 "/>
<path fill-rule="nonzero" fill="rgb(0%, 0%, 0%)" fill-opacity="1" stroke-width="1.803865" stroke-linecap="round" stroke-linejoin="round" stroke="rgb(0%, 0%, 0%)" stroke-opacity="1" stroke-miterlimit="10" d="M 551.082031 72.464844 C 551.082031 79.097656 541.132812 79.097656 541.132812 72.464844 C 541.132812 65.828125 551.082031 65.828125 551.082031 72.464844 "/>
<path fill-rule="nonzero" fill="rgb(0%, 0%, 0%)" fill-opacity="1" stroke-width="1.803865" stroke-linecap="round" stroke-linejoin="round" stroke="rgb(0%, 0%, 0%)" stroke-opacity="1" stroke-miterlimit="10" d="M 278.671875 130.964844 C 278.671875 137.597656 268.71875 137.597656 268.71875 130.964844 C 268.71875 124.332031 278.671875 124.332031 278.671875 130.964844 "/>
<path fill-rule="nonzero" fill="rgb(0%, 0%, 0%)" fill-opacity="1" stroke-width="1.803865" stroke-linecap="round" stroke-linejoin="round" stroke="rgb(0%, 0%, 0%)" stroke-opacity="1" stroke-miterlimit="10" d="M 152.097656 220.484375 C 152.097656 227.121094 142.144531 227.121094 142.144531 220.484375 C 142.144531 213.851562 152.097656 213.851562 152.097656 220.484375 "/>
<path fill-rule="nonzero" fill="rgb(0%, 0%, 0%)" fill-opacity="1" stroke-width="1.803865" stroke-linecap="round" stroke-linejoin="round" stroke="rgb(0%, 0%, 0%)" stroke-opacity="1" stroke-miterlimit="10" d="M 436.734375 150.140625 C 436.734375 156.773438 426.78125 156.773438 426.78125 150.140625 C 426.78125 143.503906 436.734375 143.503906 436.734375 150.140625 "/>
<path fill-rule="nonzero" fill="rgb(0%, 0%, 0%)" fill-opacity="1" stroke-width="1.803865" stroke-linecap="round" stroke-linejoin="round" stroke="rgb(0%, 0%, 0%)" stroke-opacity="1" stroke-miterlimit="10" d="M 280.589844 142.679688 C 280.589844 149.3125 270.640625 149.3125 270.640625 142.679688 C 270.640625 136.046875 280.589844 136.046875 280.589844 142.679688 "/>
<path fill-rule="nonzero" fill="rgb(0%, 0%, 0%)" fill-opacity="1" stroke-width="1.803865" stroke-linecap="round" stroke-linejoin="round" stroke="rgb(0%, 0%, 0%)" stroke-opacity="1" stroke-miterlimit="10" d="M 163.902344 223.507812 C 163.902344 230.144531 153.949219 230.144531 153.949219 223.507812 C 153.949219 216.875 163.902344 216.875 163.902344 223.507812 "/>
<path fill-rule="nonzero" fill="rgb(0%, 0%, 0%)" fill-opacity="1" stroke-width="1.803865" stroke-linecap="round" stroke-linejoin="round" stroke="rgb(0%, 0%, 0%)" stroke-opacity="1" stroke-miterlimit="10" d="M 308.746094 111.578125 C 308.746094 118.214844 298.796875 118.214844 298.796875 111.578125 C 298.796875 104.945312 308.746094 104.945312 308.746094 111.578125 "/>
<path fill-rule="nonzero" fill="rgb(0%, 0%, 0%)" fill-opacity="1" stroke-width="1.803865" stroke-linecap="round" stroke-linejoin="round" stroke="rgb(0%, 0%, 0%)" stroke-opacity="1" stroke-miterlimit="10" d="M 404.285156 127.351562 C 404.285156 133.984375 394.332031 133.984375 394.332031 127.351562 C 394.332031 120.71875 404.285156 120.71875 404.285156 127.351562 "/>
<path fill-rule="nonzero" fill="rgb(0%, 0%, 0%)" fill-opacity="1" stroke-width="1.803865" stroke-linecap="round" stroke-linejoin="round" stroke="rgb(0%, 0%, 0%)" stroke-opacity="1" stroke-miterlimit="10" d="M 431.570312 182.449219 C 431.570312 189.082031 421.621094 189.082031 421.621094 182.449219 C 421.621094 175.8125 431.570312 175.8125 431.570312 182.449219 "/>
<path fill-rule="nonzero" fill="rgb(0%, 0%, 0%)" fill-opacity="1" stroke-width="1.803865" stroke-linecap="round" stroke-linejoin="round" stroke="rgb(0%, 0%, 0%)" stroke-opacity="1" stroke-miterlimit="10" d="M 592.785156 39.851562 C 592.785156 46.484375 582.835938 46.484375 582.835938 39.851562 C 582.835938 33.214844 592.785156 33.214844 592.785156 39.851562 "/>
<path fill-rule="nonzero" fill="rgb(0%, 0%, 0%)" fill-opacity="1" stroke-width="1.803865" stroke-linecap="round" stroke-linejoin="round" stroke="rgb(0%, 0%, 0%)" stroke-opacity="1" stroke-miterlimit="10" d="M 412.46875 137.890625 C 412.46875 144.523438 402.519531 144.523438 402.519531 137.890625 C 402.519531 131.253906 412.46875 131.253906 412.46875 137.890625 "/>
<path fill-rule="nonzero" fill="rgb(0%, 0%, 0%)" fill-opacity="1" stroke-width="1.803865" stroke-linecap="round" stroke-linejoin="round" stroke="rgb(0%, 0%, 0%)" stroke-opacity="1" stroke-miterlimit="10" d="M 490.621094 78.324219 C 490.621094 84.957031 480.667969 84.957031 480.667969 78.324219 C 480.667969 71.6875 490.621094 71.6875 490.621094 78.324219 "/>
<path fill-rule="nonzero" fill="rgb(0%, 0%, 0%)" fill-opacity="1" stroke-width="1.803865" stroke-linecap="round" stroke-linejoin="round" stroke="rgb(0%, 0%, 0%)" stroke-opacity="1" stroke-miterlimit="10" d="M 531.703125 56.664062 C 531.703125 63.296875 521.753906 63.296875 521.753906 56.664062 C 521.753906 50.027344 531.703125 50.027344 531.703125 56.664062 "/>
<path fill-rule="nonzero" fill="rgb(0%, 0%, 0%)" fill-opacity="1" stroke-width="1.803865" stroke-linecap="round" stroke-linejoin="round" stroke="rgb(0%, 0%, 0%)" stroke-opacity="1" stroke-miterlimit="10" d="M 365.449219 163.34375 C 365.449219 169.980469 355.496094 169.980469 355.496094 163.34375 C 355.496094 156.710938 365.449219 156.710938 365.449219 163.34375 "/>
<path fill-rule="nonzero" fill="rgb(0%, 0%, 0%)" fill-opacity="1" stroke-width="1.803865" stroke-linecap="round" stroke-linejoin="round" stroke="rgb(0%, 0%, 0%)" stroke-opacity="1" stroke-miterlimit="10" d="M 404.890625 178.449219 C 404.890625 185.082031 394.941406 185.082031 394.941406 178.449219 C 394.941406 171.8125 404.890625 171.8125 404.890625 178.449219 "/>
<path fill-rule="nonzero" fill="rgb(0%, 0%, 0%)" fill-opacity="1" stroke-width="1.803865" stroke-linecap="round" stroke-linejoin="round" stroke="rgb(0%, 0%, 0%)" stroke-opacity="1" stroke-miterlimit="10" d="M 338.105469 186.203125 C 338.105469 192.835938 328.152344 192.835938 328.152344 186.203125 C 328.152344 179.570312 338.105469 179.570312 338.105469 186.203125 "/>
<path fill="none" stroke-width="5.43189" stroke-linecap="butt" stroke-linejoin="round" stroke="rgb(20%, 40%, 100%)" stroke-opacity="1" stroke-miterlimit="10" d="M 113.683594 215.214844 L 120.824219 213.246094 L 142.246094 207.328125 L 149.390625 205.359375 L 163.671875 201.414062 L 170.8125 199.445312 L 185.09375 195.5 L 192.238281 193.53125 L 206.519531 189.585938 L 213.660156 187.617188 L 227.941406 183.671875 L 235.085938 181.699219 L 242.226562 179.730469 L 256.507812 175.785156 L 263.648438 173.816406 L 270.789062 171.84375 L 277.933594 169.871094 L 285.074219 167.902344 L 299.355469 163.957031 L 306.496094 161.988281 L 313.636719 160.015625 L 320.78125 158.042969 L 327.921875 156.070312 L 335.0625 154.101562 L 349.34375 150.15625 L 356.484375 148.1875 L 363.628906 146.214844 L 370.769531 144.242188 L 377.910156 142.273438 L 392.191406 138.328125 L 399.335938 136.359375 L 420.757812 130.441406 L 427.898438 128.472656 L 435.039062 126.5 L 442.183594 124.527344 L 449.324219 122.558594 L 463.605469 118.613281 L 470.746094 116.644531 L 477.886719 114.671875 L 485.03125 112.699219 L 492.171875 110.726562 L 499.3125 108.757812 L 513.59375 104.8125 L 520.734375 102.84375 L 527.878906 100.871094 L 535.019531 98.898438 L 542.160156 96.929688 L 556.441406 92.984375 L 563.582031 91.015625 L 570.726562 89.042969 L 585.007812 85.097656 L 592.148438 83.128906 L 606.429688 79.183594 L 613.574219 77.214844 L 627.855469 73.269531 L 634.996094 71.300781 L 649.277344 67.355469 L 656.421875 65.386719 L 677.84375 59.46875 "/>
<g fill="rgb(30.196078%, 30.196078%, 30.196078%)" fill-opacity="1">
<use xlink:href="#glyph-0-1" x="53.921875" y="258.294922"/>
<use xlink:href="#glyph-0-2" x="60.921875" y="258.294922"/>
</g>
<g fill="rgb(30.196078%, 30.196078%, 30.196078%)" fill-opacity="1">
<use xlink:href="#glyph-0-3" x="60.921875" y="188.087891"/>
</g>
<g fill="rgb(30.196078%, 30.196078%, 30.196078%)" fill-opacity="1">
<use xlink:href="#glyph-0-2" x="60.921875" y="117.880859"/>
</g>
<g fill="rgb(30.196078%, 30.196078%, 30.196078%)" fill-opacity="1">
<use xlink:href="#glyph-0-4" x="48.921875" y="47.673828"/>
<use xlink:href="#glyph-0-3" x="60.921875" y="47.673828"/>
</g>
<g fill="rgb(30.196078%, 30.196078%, 30.196078%)" fill-opacity="1">
<use xlink:href="#glyph-0-1" x="173.660156" y="305.326172"/>
<use xlink:href="#glyph-0-5" x="180.660156" y="305.326172"/>
</g>
<g fill="rgb(30.196078%, 30.196078%, 30.196078%)" fill-opacity="1">
<use xlink:href="#glyph-0-1" x="275.4375" y="305.326172"/>
<use xlink:href="#glyph-0-4" x="282.4375" y="305.326172"/>
</g>
<g fill="rgb(30.196078%, 30.196078%, 30.196078%)" fill-opacity="1">
<use xlink:href="#glyph-0-3" x="380.710938" y="305.326172"/>
</g>
<g fill="rgb(30.196078%, 30.196078%, 30.196078%)" fill-opacity="1">
<use xlink:href="#glyph-0-4" x="482.484375" y="305.326172"/>
</g>
<g fill="rgb(30.196078%, 30.196078%, 30.196078%)" fill-opacity="1">
<use xlink:href="#glyph-0-5" x="584.257812" y="305.326172"/>
</g>
<g fill="rgb(30.196078%, 30.196078%, 30.196078%)" fill-opacity="1">
<use xlink:href="#glyph-0-6" x="686.035156" y="305.326172"/>
</g>
<g fill="rgb(0%, 0%, 0%)" fill-opacity="1">
<use xlink:href="#glyph-1-1" x="388.761719" y="338.611328"/>
</g>
<g fill="rgb(0%, 0%, 0%)" fill-opacity="1">
<use xlink:href="#glyph-2-1" x="34.509766" y="152.238281"/>
</g>
</svg>
