<?xml version="1.0" encoding="UTF-8"?>
<svg xmlns="http://www.w3.org/2000/svg" xmlns:xlink="http://www.w3.org/1999/xlink" width="720pt" height="576pt" viewBox="0 0 720 576">
<defs>
<g>
<g id="glyph-0-0">
<path d="M 0.453125 0 L 0.453125 -10.203125 L 8.546875 -10.203125 L 8.546875 0 Z M 7.28125 -1.28125 L 7.28125 -8.921875 L 1.734375 -8.921875 L 1.734375 -1.28125 Z M 7.28125 -1.28125 "/>
</g>
<g id="glyph-0-1">
<path d="M 1.703125 -3.625 C 1.703125 -2.832031 1.867188 -2.164062 2.203125 -1.625 C 2.546875 -1.09375 3.09375 -0.828125 3.84375 -0.828125 C 4.414062 -0.828125 4.890625 -1.070312 5.265625 -1.5625 C 5.640625 -2.0625 5.828125 -2.78125 5.828125 -3.71875 C 5.828125 -4.65625 5.632812 -5.347656 5.25 -5.796875 C 4.863281 -6.253906 4.390625 -6.484375 3.828125 -6.484375 C 3.191406 -6.484375 2.675781 -6.238281 2.28125 -5.75 C 1.894531 -5.269531 1.703125 -4.5625 1.703125 -3.625 Z M 3.59375 -7.5625 C 4.15625 -7.5625 4.628906 -7.441406 5.015625 -7.203125 C 5.242188 -7.066406 5.5 -6.828125 5.78125 -6.484375 L 5.78125 -10.234375 L 6.984375 -10.234375 L 6.984375 0 L 5.859375 0 L 5.859375 -1.03125 C 5.566406 -0.570312 5.21875 -0.238281 4.8125 -0.03125 C 4.414062 0.164062 3.960938 0.265625 3.453125 0.265625 C 2.617188 0.265625 1.898438 -0.0820312 1.296875 -0.78125 C 0.691406 -1.476562 0.390625 -2.40625 0.390625 -3.5625 C 0.390625 -4.644531 0.664062 -5.582031 1.21875 -6.375 C 1.769531 -7.164062 2.5625 -7.5625 3.59375 -7.5625 Z M 3.59375 -7.5625 "/>
</g>
<g id="glyph-0-2">
<path d="M 1.234375 -8.5625 C 1.242188 -9.082031 1.332031 -9.460938 1.5 -9.703125 C 1.789062 -10.128906 2.351562 -10.34375 3.1875 -10.34375 C 3.269531 -10.34375 3.351562 -10.335938 3.4375 -10.328125 C 3.519531 -10.328125 3.613281 -10.320312 3.71875 -10.3125 L 3.71875 -9.171875 C 3.582031 -9.179688 3.484375 -9.1875 3.421875 -9.1875 C 3.367188 -9.195312 3.316406 -9.203125 3.265625 -9.203125 C 2.890625 -9.203125 2.664062 -9.101562 2.59375 -8.90625 C 2.519531 -8.707031 2.484375 -8.207031 2.484375 -7.40625 L 3.71875 -7.40625 L 3.71875 -6.421875 L 2.46875 -6.421875 L 2.46875 0 L 1.234375 0 L 1.234375 -6.421875 L 0.1875 -6.421875 L 0.1875 -7.40625 L 1.234375 -7.40625 Z M 1.234375 -8.5625 "/>
</g>
<g id="glyph-0-3">
</g>
<g id="glyph-0-4">
<path d="M 7.875 -5.703125 L 7.875 -4.546875 L 0.640625 -4.546875 L 0.640625 -5.703125 Z M 7.875 -2.734375 L 7.875 -1.546875 L 0.640625 -1.546875 L 0.640625 -2.734375 Z M 7.875 -2.734375 "/>
</g>
<g id="glyph-0-5">
<path d="M 1.75 -2.53125 C 1.832031 -1.820312 2.164062 -1.332031 2.75 -1.0625 C 3.039062 -0.914062 3.382812 -0.84375 3.78125 -0.84375 C 4.519531 -0.84375 5.066406 -1.078125 5.421875 -1.546875 C 5.773438 -2.023438 5.953125 -2.550781 5.953125 -3.125 C 5.953125 -3.820312 5.738281 -4.359375 5.3125 -4.734375 C 4.894531 -5.109375 4.390625 -5.296875 3.796875 -5.296875 C 3.367188 -5.296875 3 -5.210938 2.6875 -5.046875 C 2.382812 -4.878906 2.125 -4.648438 1.90625 -4.359375 L 0.8125 -4.421875 L 1.578125 -9.78125 L 6.734375 -9.78125 L 6.734375 -8.5625 L 2.515625 -8.5625 L 2.09375 -5.796875 C 2.320312 -5.972656 2.539062 -6.109375 2.75 -6.203125 C 3.125 -6.347656 3.550781 -6.421875 4.03125 -6.421875 C 4.945312 -6.421875 5.71875 -6.128906 6.34375 -5.546875 C 6.976562 -4.960938 7.296875 -4.21875 7.296875 -3.3125 C 7.296875 -2.375 7.003906 -1.546875 6.421875 -0.828125 C 5.847656 -0.109375 4.925781 0.25 3.65625 0.25 C 2.84375 0.25 2.125 0.0195312 1.5 -0.4375 C 0.875 -0.894531 0.523438 -1.59375 0.453125 -2.53125 Z M 1.75 -2.53125 "/>
</g>
<g id="glyph-0-6">
<path d="M 1.359375 -7.046875 L 1.359375 -8 C 2.265625 -8.082031 2.894531 -8.226562 3.25 -8.4375 C 3.601562 -8.644531 3.867188 -9.132812 4.046875 -9.90625 L 5.03125 -9.90625 L 5.03125 0 L 3.703125 0 L 3.703125 -7.046875 Z M 1.359375 -7.046875 "/>
</g>
<g id="glyph-0-7">
<path d="M 3.84375 -9.9375 C 5.132812 -9.9375 6.066406 -9.410156 6.640625 -8.359375 C 7.078125 -7.535156 7.296875 -6.410156 7.296875 -4.984375 C 7.296875 -3.628906 7.097656 -2.507812 6.703125 -1.625 C 6.117188 -0.363281 5.164062 0.265625 3.84375 0.265625 C 2.644531 0.265625 1.753906 -0.25 1.171875 -1.28125 C 0.679688 -2.144531 0.4375 -3.304688 0.4375 -4.765625 C 0.4375 -5.898438 0.582031 -6.867188 0.875 -7.671875 C 1.425781 -9.179688 2.414062 -9.9375 3.84375 -9.9375 Z M 3.828125 -0.875 C 4.472656 -0.875 4.988281 -1.160156 5.375 -1.734375 C 5.757812 -2.304688 5.953125 -3.375 5.953125 -4.9375 C 5.953125 -6.0625 5.8125 -6.988281 5.53125 -7.71875 C 5.257812 -8.445312 4.722656 -8.8125 3.921875 -8.8125 C 3.179688 -8.8125 2.640625 -8.460938 2.296875 -7.765625 C 1.960938 -7.078125 1.796875 -6.0625 1.796875 -4.71875 C 1.796875 -3.707031 1.90625 -2.894531 2.125 -2.28125 C 2.457031 -1.34375 3.023438 -0.875 3.828125 -0.875 Z M 3.828125 -0.875 "/>
</g>
<g id="glyph-1-0">
<path d="M 0.671875 0 L 0.671875 -15.0625 L 12.640625 -15.0625 L 12.640625 0 Z M 10.75 -1.890625 L 10.75 -13.171875 L 2.5625 -13.171875 L 2.5625 -1.890625 Z M 10.75 -1.890625 "/>
</g>
<g id="glyph-1-1">
<path d="M 5.6875 -14.6875 C 7.582031 -14.6875 8.953125 -13.898438 9.796875 -12.328125 C 10.453125 -11.117188 10.78125 -9.460938 10.78125 -7.359375 C 10.78125 -5.367188 10.484375 -3.71875 9.890625 -2.40625 C 9.035156 -0.53125 7.628906 0.40625 5.671875 0.40625 C 3.910156 0.40625 2.597656 -0.359375 1.734375 -1.890625 C 1.015625 -3.171875 0.65625 -4.890625 0.65625 -7.046875 C 0.65625 -8.710938 0.867188 -10.144531 1.296875 -11.34375 C 2.109375 -13.570312 3.570312 -14.6875 5.6875 -14.6875 Z M 5.65625 -1.28125 C 6.613281 -1.28125 7.375 -1.703125 7.9375 -2.546875 C 8.507812 -3.398438 8.796875 -4.984375 8.796875 -7.296875 C 8.796875 -8.960938 8.585938 -10.332031 8.171875 -11.40625 C 7.765625 -12.476562 6.972656 -13.015625 5.796875 -13.015625 C 4.703125 -13.015625 3.90625 -12.503906 3.40625 -11.484375 C 2.90625 -10.460938 2.65625 -8.957031 2.65625 -6.96875 C 2.65625 -5.476562 2.816406 -4.273438 3.140625 -3.359375 C 3.628906 -1.972656 4.46875 -1.28125 5.65625 -1.28125 Z M 5.65625 -1.28125 "/>
</g>
<g id="glyph-1-2">
<path d="M 1.796875 -2.234375 L 3.9375 -2.234375 L 3.9375 0 L 1.796875 0 Z M 1.796875 -2.234375 "/>
</g>
<g id="glyph-1-3">
<path d="M 2.015625 -10.390625 L 2.015625 -11.8125 C 3.347656 -11.9375 4.273438 -12.148438 4.796875 -12.453125 C 5.328125 -12.765625 5.722656 -13.488281 5.984375 -14.625 L 7.4375 -14.625 L 7.4375 0 L 5.46875 0 L 5.46875 -10.390625 Z M 2.015625 -10.390625 "/>
</g>
<g id="glyph-1-4">
<path d="M 0.65625 0 C 0.726562 -1.257812 0.988281 -2.359375 1.4375 -3.296875 C 1.894531 -4.234375 2.785156 -5.085938 4.109375 -5.859375 L 6.078125 -7 C 6.953125 -7.507812 7.566406 -7.945312 7.921875 -8.3125 C 8.484375 -8.875 8.765625 -9.519531 8.765625 -10.25 C 8.765625 -11.101562 8.507812 -11.78125 8 -12.28125 C 7.488281 -12.789062 6.804688 -13.046875 5.953125 -13.046875 C 4.679688 -13.046875 3.804688 -12.566406 3.328125 -11.609375 C 3.066406 -11.097656 2.921875 -10.382812 2.890625 -9.46875 L 1.015625 -9.46875 C 1.035156 -10.75 1.269531 -11.796875 1.71875 -12.609375 C 2.519531 -14.023438 3.929688 -14.734375 5.953125 -14.734375 C 7.640625 -14.734375 8.867188 -14.273438 9.640625 -13.359375 C 10.421875 -12.453125 10.8125 -11.445312 10.8125 -10.34375 C 10.8125 -9.164062 10.394531 -8.160156 9.5625 -7.328125 C 9.082031 -6.835938 8.226562 -6.25 7 -5.5625 L 5.59375 -4.78125 C 4.914062 -4.40625 4.390625 -4.050781 4.015625 -3.71875 C 3.328125 -3.125 2.894531 -2.46875 2.71875 -1.75 L 10.734375 -1.75 L 10.734375 0 Z M 0.65625 0 "/>
</g>
<g id="glyph-1-5">
<path d="M 5.453125 0.40625 C 3.710938 0.40625 2.453125 -0.0703125 1.671875 -1.03125 C 0.890625 -1.988281 0.5 -3.148438 0.5 -4.515625 L 2.4375 -4.515625 C 2.507812 -3.566406 2.6875 -2.875 2.96875 -2.4375 C 3.445312 -1.664062 4.3125 -1.28125 5.5625 -1.28125 C 6.53125 -1.28125 7.304688 -1.539062 7.890625 -2.0625 C 8.484375 -2.582031 8.78125 -3.253906 8.78125 -4.078125 C 8.78125 -5.085938 8.46875 -5.789062 7.84375 -6.1875 C 7.226562 -6.59375 6.367188 -6.796875 5.265625 -6.796875 C 5.148438 -6.796875 5.023438 -6.789062 4.890625 -6.78125 C 4.765625 -6.78125 4.640625 -6.78125 4.515625 -6.78125 L 4.515625 -8.40625 C 4.703125 -8.382812 4.859375 -8.367188 4.984375 -8.359375 C 5.117188 -8.359375 5.265625 -8.359375 5.421875 -8.359375 C 6.109375 -8.359375 6.671875 -8.46875 7.109375 -8.6875 C 7.890625 -9.070312 8.28125 -9.753906 8.28125 -10.734375 C 8.28125 -11.460938 8.019531 -12.023438 7.5 -12.421875 C 6.988281 -12.816406 6.382812 -13.015625 5.6875 -13.015625 C 4.457031 -13.015625 3.609375 -12.609375 3.140625 -11.796875 C 2.878906 -11.335938 2.734375 -10.691406 2.703125 -9.859375 L 0.875 -9.859375 C 0.875 -10.953125 1.09375 -11.882812 1.53125 -12.65625 C 2.28125 -14.019531 3.601562 -14.703125 5.5 -14.703125 C 6.988281 -14.703125 8.144531 -14.367188 8.96875 -13.703125 C 9.789062 -13.035156 10.203125 -12.070312 10.203125 -10.8125 C 10.203125 -9.90625 9.957031 -9.171875 9.46875 -8.609375 C 9.175781 -8.265625 8.789062 -7.992188 8.3125 -7.796875 C 9.082031 -7.578125 9.679688 -7.164062 10.109375 -6.5625 C 10.546875 -5.957031 10.765625 -5.21875 10.765625 -4.34375 C 10.765625 -2.945312 10.300781 -1.804688 9.375 -0.921875 C 8.457031 -0.0351562 7.148438 0.40625 5.453125 0.40625 Z M 5.453125 0.40625 "/>
</g>
<g id="glyph-1-6">
<path d="M 6.9375 -5.203125 L 6.9375 -11.859375 L 2.234375 -5.203125 Z M 6.96875 0 L 6.96875 -3.59375 L 0.53125 -3.59375 L 0.53125 -5.390625 L 7.265625 -14.71875 L 8.8125 -14.71875 L 8.8125 -5.203125 L 10.984375 -5.203125 L 10.984375 -3.59375 L 8.8125 -3.59375 L 8.8125 0 Z M 6.96875 0 "/>
</g>
<g id="glyph-1-7">
<path d="M 0.875 -6.796875 L 6.015625 -6.796875 L 6.015625 -4.90625 L 0.875 -4.90625 Z M 0.875 -6.796875 "/>
</g>
<g id="glyph-2-0">
<path d="M 0.90625 -8.640625 L 7.859375 -8.640625 L 7.859375 0 L 0.90625 0 Z M 6.78125 -1.078125 L 6.78125 -7.5625 L 1.984375 -7.5625 L 1.984375 -1.078125 Z M 6.78125 -1.078125 "/>
</g>
<g id="glyph-2-1">
<path d="M 3.703125 -1.1875 L 3.703125 0.0625 L 2.90625 0.09375 C 2.125 0.113281 1.585938 -0.0234375 1.296875 -0.328125 C 1.109375 -0.515625 1.015625 -0.804688 1.015625 -1.203125 L 1.015625 -5.140625 L 0.125 -5.140625 L 0.125 -6.328125 L 1.015625 -6.328125 L 1.015625 -8.109375 L 2.671875 -8.109375 L 2.671875 -6.328125 L 3.703125 -6.328125 L 3.703125 -5.140625 L 2.671875 -5.140625 L 2.671875 -1.765625 C 2.671875 -1.503906 2.703125 -1.335938 2.765625 -1.265625 C 2.828125 -1.203125 3.03125 -1.171875 3.375 -1.171875 C 3.425781 -1.171875 3.476562 -1.171875 3.53125 -1.171875 C 3.59375 -1.179688 3.648438 -1.1875 3.703125 -1.1875 Z M 3.703125 -1.1875 "/>
</g>
</g>
<clipPath id="clip-0">
<path clip-rule="nonzero" d="M 55.152344 5.480469 L 714.523438 5.480469 L 714.523438 529.851562 L 55.152344 529.851562 Z M 55.152344 5.480469 "/>
</clipPath>
<clipPath id="clip-1">
<path clip-rule="nonzero" d="M 55.152344 445 L 714.523438 445 L 714.523438 447 L 55.152344 447 Z M 55.152344 445 "/>
</clipPath>
<clipPath id="clip-2">
<path clip-rule="nonzero" d="M 55.152344 325 L 714.523438 325 L 714.523438 327 L 55.152344 327 Z M 55.152344 325 "/>
</clipPath>
<clipPath id="clip-3">
<path clip-rule="nonzero" d="M 55.152344 205 L 714.523438 205 L 714.523438 207 L 55.152344 207 Z M 55.152344 205 "/>
</clipPath>
<clipPath id="clip-4">
<path clip-rule="nonzero" d="M 55.152344 85 L 714.523438 85 L 714.523438 87 L 55.152344 87 Z M 55.152344 85 "/>
</clipPath>
<clipPath id="clip-5">
<path clip-rule="nonzero" d="M 159 5.480469 L 161 5.480469 L 161 529.851562 L 159 529.851562 Z M 159 5.480469 "/>
</clipPath>
<clipPath id="clip-6">
<path clip-rule="nonzero" d="M 309 5.480469 L 311 5.480469 L 311 529.851562 L 309 529.851562 Z M 309 5.480469 "/>
</clipPath>
<clipPath id="clip-7">
<path clip-rule="nonzero" d="M 459 5.480469 L 461 5.480469 L 461 529.851562 L 459 529.851562 Z M 459 5.480469 "/>
</clipPath>
<clipPath id="clip-8">
<path clip-rule="nonzero" d="M 609 5.480469 L 611 5.480469 L 611 529.851562 L 609 529.851562 Z M 609 5.480469 "/>
</clipPath>
<clipPath id="clip-9">
<path clip-rule="nonzero" d="M 55.152344 505 L 714.523438 505 L 714.523438 507 L 55.152344 507 Z M 55.152344 505 "/>
</clipPath>
<clipPath id="clip-10">
<path clip-rule="nonzero" d="M 55.152344 385 L 714.523438 385 L 714.523438 387 L 55.152344 387 Z M 55.152344 385 "/>
</clipPath>
<clipPath id="clip-11">
<path clip-rule="nonzero" d="M 55.152344 265 L 714.523438 265 L 714.523438 267 L 55.152344 267 Z M 55.152344 265 "/>
</clipPath>
<clipPath id="clip-12">
<path clip-rule="nonzero" d="M 55.152344 145 L 714.523438 145 L 714.523438 147 L 55.152344 147 Z M 55.152344 145 "/>
</clipPath>
<clipPath id="clip-13">
<path clip-rule="nonzero" d="M 55.152344 25 L 714.523438 25 L 714.523438 27 L 55.152344 27 Z M 55.152344 25 "/>
</clipPath>
<clipPath id="clip-14">
<path clip-rule="nonzero" d="M 84 5.480469 L 86 5.480469 L 86 529.851562 L 84 529.851562 Z M 84 5.480469 "/>
</clipPath>
<clipPath id="clip-15">
<path clip-rule="nonzero" d="M 234 5.480469 L 236 5.480469 L 236 529.851562 L 234 529.851562 Z M 234 5.480469 "/>
</clipPath>
<clipPath id="clip-16">
<path clip-rule="nonzero" d="M 384 5.480469 L 386 5.480469 L 386 529.851562 L 384 529.851562 Z M 384 5.480469 "/>
</clipPath>
<clipPath id="clip-17">
<path clip-rule="nonzero" d="M 534 5.480469 L 536 5.480469 L 536 529.851562 L 534 529.851562 Z M 534 5.480469 "/>
</clipPath>
<clipPath id="clip-18">
<path clip-rule="nonzero" d="M 684 5.480469 L 686 5.480469 L 686 529.851562 L 684 529.851562 Z M 684 5.480469 "/>
</clipPath>
</defs>
<rect x="-72" y="-57.6" width="864" height="691.2" fill="rgb(100%, 100%, 100%)" fill-opacity="1"/>
<path fill="none" stroke-width="1.066978" stroke-linecap="round" stroke-linejoin="round" stroke="rgb(100%, 100%, 100%)" stroke-opacity="1" stroke-miterlimit="10" d="M 0 576 L 720 576 L 720 0 L 0 0 Z M 0 576 "/>
<g clip-path="url(#clip-0)">
<path fill-rule="nonzero" fill="rgb(100%, 100%, 100%)" fill-opacity="1" stroke-width="1.066978" stroke-linecap="round" stroke-linejoin="round" stroke="rgb(100%, 100%, 100%)" stroke-opacity="1" stroke-miterlimit="10" d="M 55.152344 529.847656 L 714.523438 529.847656 L 714.523438 5.476562 L 55.152344 5.476562 Z M 55.152344 529.847656 "/>
</g>
<g clip-path="url(#clip-1)">
<path fill="none" stroke-width="1.066978" stroke-linecap="butt" stroke-linejoin="round" stroke="rgb(90.196078%, 90.196078%, 90.196078%)" stroke-opacity="1" stroke-miterlimit="10" d="M 55.152344 446.320312 L 714.519531 446.320312 "/>
</g>
<g clip-path="url(#clip-2)">
<path fill="none" stroke-width="1.066978" stroke-linecap="butt" stroke-linejoin="round" stroke="rgb(90.196078%, 90.196078%, 90.196078%)" stroke-opacity="1" stroke-miterlimit="10" d="M 55.152344 326.128906 L 714.519531 326.128906 "/>
</g>
<g clip-path="url(#clip-3)">
<path fill="none" stroke-width="1.066978" stroke-linecap="butt" stroke-linejoin="round" stroke="rgb(90.196078%, 90.196078%, 90.196078%)" stroke-opacity="1" stroke-miterlimit="10" d="M 55.152344 205.9375 L 714.519531 205.9375 "/>
</g>
<g clip-path="url(#clip-4)">
<path fill="none" stroke-width="1.066978" stroke-linecap="butt" stroke-linejoin="round" stroke="rgb(90.196078%, 90.196078%, 90.196078%)" stroke-opacity="1" stroke-miterlimit="10" d="M 55.152344 85.746094 L 714.519531 85.746094 "/>
</g>
<g clip-path="url(#clip-5)">
<path fill="none" stroke-width="1.066978" stroke-linecap="butt" stroke-linejoin="round" stroke="rgb(90.196078%, 90.196078%, 90.196078%)" stroke-opacity="1" stroke-miterlimit="10" d="M 160.050781 529.847656 L 160.050781 5.480469 "/>
</g>
<g clip-path="url(#clip-6)">
<path fill="none" stroke-width="1.066978" stroke-linecap="butt" stroke-linejoin="round" stroke="rgb(90.196078%, 90.196078%, 90.196078%)" stroke-opacity="1" stroke-miterlimit="10" d="M 309.90625 529.847656 L 309.90625 5.480469 "/>
</g>
<g clip-path="url(#clip-7)">
<path fill="none" stroke-width="1.066978" stroke-linecap="butt" stroke-linejoin="round" stroke="rgb(90.196078%, 90.196078%, 90.196078%)" stroke-opacity="1" stroke-miterlimit="10" d="M 459.765625 529.847656 L 459.765625 5.480469 "/>
</g>
<g clip-path="url(#clip-8)">
<path fill="none" stroke-width="1.066978" stroke-linecap="butt" stroke-linejoin="round" stroke="rgb(90.196078%, 90.196078%, 90.196078%)" stroke-opacity="1" stroke-miterlimit="10" d="M 609.621094 529.847656 L 609.621094 5.480469 "/>
</g>
<g clip-path="url(#clip-9)">
<path fill="none" stroke-width="1.066978" stroke-linecap="butt" stroke-linejoin="round" stroke="rgb(80%, 80%, 80%)" stroke-opacity="1" stroke-miterlimit="10" d="M 55.152344 506.417969 L 714.519531 506.417969 "/>
</g>
<g clip-path="url(#clip-10)">
<path fill="none" stroke-width="1.066978" stroke-linecap="butt" stroke-linejoin="round" stroke="rgb(80%, 80%, 80%)" stroke-opacity="1" stroke-miterlimit="10" d="M 55.152344 386.226562 L 714.519531 386.226562 "/>
</g>
<g clip-path="url(#clip-11)">
<path fill="none" stroke-width="1.066978" stroke-linecap="butt" stroke-linejoin="round" stroke="rgb(80%, 80%, 80%)" stroke-opacity="1" stroke-miterlimit="10" d="M 55.152344 266.035156 L 714.519531 266.035156 "/>
</g>
<g clip-path="url(#clip-12)">
<path fill="none" stroke-width="1.066978" stroke-linecap="butt" stroke-linejoin="round" stroke="rgb(80%, 80%, 80%)" stroke-opacity="1" stroke-miterlimit="10" d="M 55.152344 145.84375 L 714.519531 145.84375 "/>
</g>
<g clip-path="url(#clip-13)">
<path fill="none" stroke-width="1.066978" stroke-linecap="butt" stroke-linejoin="round" stroke="rgb(80%, 80%, 80%)" stroke-opacity="1" stroke-miterlimit="10" d="M 55.152344 25.652344 L 714.519531 25.652344 "/>
</g>
<g clip-path="url(#clip-14)">
<path fill="none" stroke-width="1.066978" stroke-linecap="butt" stroke-linejoin="round" stroke="rgb(80%, 80%, 80%)" stroke-opacity="1" stroke-miterlimit="10" d="M 85.121094 529.847656 L 85.121094 5.480469 "/>
</g>
<g clip-path="url(#clip-15)">
<path fill="none" stroke-width="1.066978" stroke-linecap="butt" stroke-linejoin="round" stroke="rgb(80%, 80%, 80%)" stroke-opacity="1" stroke-miterlimit="10" d="M 234.980469 529.847656 L 234.980469 5.480469 "/>
</g>
<g clip-path="url(#clip-16)">
<path fill="none" stroke-width="1.066978" stroke-linecap="butt" stroke-linejoin="round" stroke="rgb(80%, 80%, 80%)" stroke-opacity="1" stroke-miterlimit="10" d="M 384.835938 529.847656 L 384.835938 5.480469 "/>
</g>
<g clip-path="url(#clip-17)">
<path fill="none" stroke-width="1.066978" stroke-linecap="butt" stroke-linejoin="round" stroke="rgb(80%, 80%, 80%)" stroke-opacity="1" stroke-miterlimit="10" d="M 534.691406 529.847656 L 534.691406 5.480469 "/>
</g>
<g clip-path="url(#clip-18)">
<path fill="none" stroke-width="1.066978" stroke-linecap="butt" stroke-linejoin="round" stroke="rgb(80%, 80%, 80%)" stroke-opacity="1" stroke-miterlimit="10" d="M 684.550781 529.847656 L 684.550781 5.480469 "/>
</g>
<path fill="none" stroke-width="2.133957" stroke-linecap="butt" stroke-linejoin="round" stroke="rgb(74.901961%, 9.803922%, 19.607843%)" stroke-opacity="1" stroke-miterlimit="10" d="M 85.121094 500.257812 L 91.117188 499.664062 L 97.109375 499.007812 L 103.105469 498.277344 L 109.097656 497.46875 L 115.09375 496.570312 L 121.085938 495.570312 L 127.082031 494.460938 L 133.078125 493.222656 L 139.070312 491.84375 L 145.066406 490.304688 L 151.058594 488.585938 L 157.054688 486.671875 L 163.046875 484.53125 L 169.042969 482.144531 L 175.035156 479.476562 L 181.03125 476.492188 L 187.023438 473.160156 L 193.019531 469.4375 L 199.011719 465.277344 L 205.007812 460.636719 L 211 455.457031 L 216.996094 449.683594 L 222.992188 443.257812 L 228.984375 436.113281 L 234.980469 428.183594 L 240.972656 419.402344 L 246.96875 409.695312 L 252.960938 399.003906 L 258.957031 387.265625 L 264.949219 374.421875 L 270.945312 360.4375 L 276.9375 345.28125 L 282.933594 328.949219 L 288.925781 311.464844 L 294.921875 292.886719 L 300.914062 273.308594 L 306.910156 252.867188 L 312.90625 231.753906 L 318.898438 210.210938 L 324.894531 188.523438 L 330.886719 167.042969 L 336.882812 146.152344 L 342.875 126.269531 L 348.871094 107.839844 L 354.863281 91.300781 L 360.859375 77.085938 L 366.851562 65.574219 L 372.847656 57.101562 L 378.839844 51.910156 L 384.835938 50.164062 L 390.828125 51.910156 L 396.824219 57.101562 L 402.820312 65.574219 L 408.8125 77.085938 L 414.808594 91.300781 L 420.800781 107.839844 L 426.796875 126.269531 L 432.789062 146.152344 L 438.785156 167.042969 L 444.777344 188.523438 L 450.773438 210.210938 L 456.765625 231.753906 L 462.761719 252.867188 L 468.753906 273.308594 L 474.75 292.886719 L 480.742188 311.464844 L 486.738281 328.949219 L 492.734375 345.28125 L 498.726562 360.4375 L 504.722656 374.421875 L 510.714844 387.265625 L 516.710938 399.003906 L 522.703125 409.695312 L 528.699219 419.402344 L 534.691406 428.183594 L 540.6875 436.113281 L 546.679688 443.257812 L 552.675781 449.683594 L 558.667969 455.457031 L 564.664062 460.636719 L 570.65625 465.277344 L 576.652344 469.4375 L 582.648438 473.160156 L 588.640625 476.492188 L 594.636719 479.476562 L 600.628906 482.144531 L 606.625 484.53125 L 612.617188 486.671875 L 618.613281 488.585938 L 624.605469 490.304688 L 630.601562 491.84375 L 636.59375 493.222656 L 642.589844 494.460938 L 648.582031 495.570312 L 654.578125 496.570312 L 660.570312 497.46875 L 666.566406 498.277344 L 672.5625 499.007812 L 678.554688 499.664062 L 684.550781 500.257812 "/>
<path fill="none" stroke-width="2.133957" stroke-linecap="butt" stroke-linejoin="round" stroke="rgb(5.882353%, 29.803922%, 50.588235%)" stroke-opacity="1" stroke-miterlimit="10" d="M 85.121094 503.976562 L 91.117188 503.621094 L 97.109375 503.210938 L 103.105469 502.742188 L 109.097656 502.203125 L 115.09375 501.578125 L 121.085938 500.863281 L 127.082031 500.035156 L 133.078125 499.085938 L 139.070312 497.996094 L 145.066406 496.738281 L 151.058594 495.292969 L 157.054688 493.632812 L 163.046875 491.726562 L 169.042969 489.542969 L 175.035156 487.039062 L 181.03125 484.175781 L 187.023438 480.902344 L 193.019531 477.171875 L 199.011719 472.925781 L 205.007812 468.101562 L 211 462.632812 L 216.996094 456.453125 L 222.992188 449.492188 L 228.984375 441.671875 L 234.980469 432.925781 L 240.972656 423.171875 L 246.96875 412.351562 L 252.960938 400.394531 L 258.957031 387.261719 L 264.949219 372.910156 L 270.945312 357.328125 L 276.9375 340.519531 L 282.933594 322.519531 L 288.925781 303.398438 L 294.921875 283.265625 L 300.914062 262.257812 L 306.910156 240.570312 L 312.90625 218.433594 L 318.898438 196.117188 L 324.894531 173.9375 L 330.886719 152.238281 L 336.882812 131.394531 L 342.875 111.789062 L 348.871094 93.8125 L 354.863281 77.839844 L 360.859375 64.226562 L 366.851562 53.285156 L 372.847656 45.273438 L 378.839844 40.386719 L 384.835938 38.742188 L 390.828125 40.386719 L 396.824219 45.273438 L 402.820312 53.285156 L 408.8125 64.226562 L 414.808594 77.839844 L 420.800781 93.8125 L 426.796875 111.789062 L 432.789062 131.394531 L 438.785156 152.238281 L 444.777344 173.9375 L 450.773438 196.117188 L 456.765625 218.433594 L 462.761719 240.570312 L 468.753906 262.257812 L 474.75 283.265625 L 480.742188 303.398438 L 486.738281 322.519531 L 492.734375 340.519531 L 498.726562 357.328125 L 504.722656 372.910156 L 510.714844 387.261719 L 516.710938 400.394531 L 522.703125 412.351562 L 528.699219 423.171875 L 534.691406 432.925781 L 540.6875 441.671875 L 546.679688 449.492188 L 552.675781 456.453125 L 558.667969 462.632812 L 564.664062 468.101562 L 570.65625 472.925781 L 576.652344 477.171875 L 582.648438 480.902344 L 588.640625 484.175781 L 594.636719 487.039062 L 600.628906 489.542969 L 606.625 491.726562 L 612.617188 493.632812 L 618.613281 495.292969 L 624.605469 496.738281 L 630.601562 497.996094 L 636.59375 499.085938 L 642.589844 500.035156 L 648.582031 500.863281 L 654.578125 501.578125 L 660.570312 502.203125 L 666.566406 502.742188 L 672.5625 503.210938 L 678.554688 503.621094 L 684.550781 503.976562 "/>
<path fill="none" stroke-width="2.133957" stroke-linecap="butt" stroke-linejoin="round" stroke="rgb(53.333333%, 69.019608%, 29.411765%)" stroke-opacity="1" stroke-miterlimit="10" d="M 85.121094 506.015625 L 91.117188 505.902344 L 97.109375 505.761719 L 103.105469 505.582031 L 109.097656 505.359375 L 115.09375 505.078125 L 121.085938 504.730469 L 127.082031 504.296875 L 133.078125 503.761719 L 139.070312 503.101562 L 145.066406 502.292969 L 151.058594 501.304688 L 157.054688 500.101562 L 163.046875 498.644531 L 169.042969 496.890625 L 175.035156 494.789062 L 181.03125 492.277344 L 187.023438 489.296875 L 193.019531 485.78125 L 199.011719 481.652344 L 205.007812 476.828125 L 211 471.230469 L 216.996094 464.773438 L 222.992188 457.367188 L 228.984375 448.929688 L 234.980469 439.378906 L 240.972656 428.648438 L 246.96875 416.667969 L 252.960938 403.394531 L 258.957031 388.796875 L 264.949219 372.867188 L 270.945312 355.632812 L 276.9375 337.140625 L 282.933594 317.46875 L 288.925781 296.746094 L 294.921875 275.117188 L 300.914062 252.785156 L 306.910156 229.976562 L 312.90625 206.953125 L 318.898438 184.007812 L 324.894531 161.464844 L 330.886719 139.65625 L 336.882812 118.929688 L 342.875 99.628906 L 348.871094 82.09375 L 354.863281 66.644531 L 360.859375 53.566406 L 366.851562 43.117188 L 372.847656 35.5 L 378.839844 30.867188 L 384.835938 29.3125 L 390.828125 30.867188 L 396.824219 35.5 L 402.820312 43.117188 L 408.8125 53.566406 L 414.808594 66.644531 L 420.800781 82.09375 L 426.796875 99.628906 L 432.789062 118.929688 L 438.785156 139.65625 L 444.777344 161.464844 L 450.773438 184.007812 L 456.765625 206.953125 L 462.761719 229.976562 L 468.753906 252.785156 L 474.75 275.117188 L 480.742188 296.746094 L 486.738281 317.46875 L 492.734375 337.140625 L 498.726562 355.632812 L 504.722656 372.867188 L 510.714844 388.796875 L 516.710938 403.394531 L 522.703125 416.667969 L 528.699219 428.648438 L 534.691406 439.378906 L 540.6875 448.929688 L 546.679688 457.367188 L 552.675781 464.773438 L 558.667969 471.230469 L 564.664062 476.828125 L 570.65625 481.652344 L 576.652344 485.78125 L 582.648438 489.296875 L 588.640625 492.277344 L 594.636719 494.789062 L 600.628906 496.890625 L 606.625 498.644531 L 612.617188 500.101562 L 618.613281 501.304688 L 624.605469 502.292969 L 630.601562 503.101562 L 636.59375 503.761719 L 642.589844 504.296875 L 648.582031 504.730469 L 654.578125 505.078125 L 660.570312 505.359375 L 666.566406 505.582031 L 672.5625 505.761719 L 678.554688 505.902344 L 684.550781 506.015625 "/>
<g fill="rgb(74.901961%, 9.803922%, 19.607843%)" fill-opacity="1">
<use xlink:href="#glyph-0-1" x="516.691406" y="151.297852"/>
<use xlink:href="#glyph-0-2" x="524.691406" y="151.297852"/>
<use xlink:href="#glyph-0-3" x="528.691406" y="151.297852"/>
<use xlink:href="#glyph-0-4" x="532.691406" y="151.297852"/>
<use xlink:href="#glyph-0-3" x="540.691406" y="151.297852"/>
<use xlink:href="#glyph-0-5" x="544.691406" y="151.297852"/>
</g>
<g fill="rgb(5.882353%, 29.803922%, 50.588235%)" fill-opacity="1">
<use xlink:href="#glyph-0-1" x="512.691406" y="115.239258"/>
<use xlink:href="#glyph-0-2" x="520.691406" y="115.239258"/>
<use xlink:href="#glyph-0-3" x="524.691406" y="115.239258"/>
<use xlink:href="#glyph-0-4" x="528.691406" y="115.239258"/>
<use xlink:href="#glyph-0-3" x="536.691406" y="115.239258"/>
<use xlink:href="#glyph-0-6" x="540.691406" y="115.239258"/>
<use xlink:href="#glyph-0-7" x="548.691406" y="115.239258"/>
</g>
<g fill="rgb(53.333333%, 69.019608%, 29.411765%)" fill-opacity="1">
<use xlink:href="#glyph-0-1" x="512.691406" y="79.180664"/>
<use xlink:href="#glyph-0-2" x="520.691406" y="79.180664"/>
<use xlink:href="#glyph-0-3" x="524.691406" y="79.180664"/>
<use xlink:href="#glyph-0-4" x="528.691406" y="79.180664"/>
<use xlink:href="#glyph-0-3" x="536.691406" y="79.180664"/>
<use xlink:href="#glyph-0-5" x="540.691406" y="79.180664"/>
<use xlink:href="#glyph-0-7" x="548.691406" y="79.180664"/>
</g>
<g fill="rgb(40%, 40%, 40%)" fill-opacity="1">
<use xlink:href="#glyph-1-1" x="20.21875" y="513.588867"/>
<use xlink:href="#glyph-1-2" x="32.21875" y="513.588867"/>
<use xlink:href="#glyph-1-1" x="38.21875" y="513.588867"/>
</g>
<g fill="rgb(40%, 40%, 40%)" fill-opacity="1">
<use xlink:href="#glyph-1-1" x="20.21875" y="393.397461"/>
<use xlink:href="#glyph-1-2" x="32.21875" y="393.397461"/>
<use xlink:href="#glyph-1-3" x="38.21875" y="393.397461"/>
</g>
<g fill="rgb(40%, 40%, 40%)" fill-opacity="1">
<use xlink:href="#glyph-1-1" x="20.21875" y="273.206055"/>
<use xlink:href="#glyph-1-2" x="32.21875" y="273.206055"/>
<use xlink:href="#glyph-1-4" x="38.21875" y="273.206055"/>
</g>
<g fill="rgb(40%, 40%, 40%)" fill-opacity="1">
<use xlink:href="#glyph-1-1" x="20.21875" y="153.014648"/>
<use xlink:href="#glyph-1-2" x="32.21875" y="153.014648"/>
<use xlink:href="#glyph-1-5" x="38.21875" y="153.014648"/>
</g>
<g fill="rgb(40%, 40%, 40%)" fill-opacity="1">
<use xlink:href="#glyph-1-1" x="20.21875" y="32.823242"/>
<use xlink:href="#glyph-1-2" x="32.21875" y="32.823242"/>
<use xlink:href="#glyph-1-6" x="38.21875" y="32.823242"/>
</g>
<path fill="none" stroke-width="1.066978" stroke-linecap="butt" stroke-linejoin="round" stroke="rgb(80%, 80%, 80%)" stroke-opacity="1" stroke-miterlimit="10" d="M 52.410156 506.417969 L 55.152344 506.417969 "/>
<path fill="none" stroke-width="1.066978" stroke-linecap="butt" stroke-linejoin="round" stroke="rgb(80%, 80%, 80%)" stroke-opacity="1" stroke-miterlimit="10" d="M 52.410156 386.226562 L 55.152344 386.226562 "/>
<path fill="none" stroke-width="1.066978" stroke-linecap="butt" stroke-linejoin="round" stroke="rgb(80%, 80%, 80%)" stroke-opacity="1" stroke-miterlimit="10" d="M 52.410156 266.035156 L 55.152344 266.035156 "/>
<path fill="none" stroke-width="1.066978" stroke-linecap="butt" stroke-linejoin="round" stroke="rgb(80%, 80%, 80%)" stroke-opacity="1" stroke-miterlimit="10" d="M 52.410156 145.84375 L 55.152344 145.84375 "/>
<path fill="none" stroke-width="1.066978" stroke-linecap="butt" stroke-linejoin="round" stroke="rgb(80%, 80%, 80%)" stroke-opacity="1" stroke-miterlimit="10" d="M 52.410156 25.652344 L 55.152344 25.652344 "/>
<path fill="none" stroke-width="1.066978" stroke-linecap="butt" stroke-linejoin="round" stroke="rgb(80%, 80%, 80%)" stroke-opacity="1" stroke-miterlimit="10" d="M 85.121094 532.589844 L 85.121094 529.847656 "/>
<path fill="none" stroke-width="1.066978" stroke-linecap="butt" stroke-linejoin="round" stroke="rgb(80%, 80%, 80%)" stroke-opacity="1" stroke-miterlimit="10" d="M 234.980469 532.589844 L 234.980469 529.847656 "/>
<path fill="none" stroke-width="1.066978" stroke-linecap="butt" stroke-linejoin="round" stroke="rgb(80%, 80%, 80%)" stroke-opacity="1" stroke-miterlimit="10" d="M 384.835938 532.589844 L 384.835938 529.847656 "/>
<path fill="none" stroke-width="1.066978" stroke-linecap="butt" stroke-linejoin="round" stroke="rgb(80%, 80%, 80%)" stroke-opacity="1" stroke-miterlimit="10" d="M 534.691406 532.589844 L 534.691406 529.847656 "/>
<path fill="none" stroke-width="1.066978" stroke-linecap="butt" stroke-linejoin="round" stroke="rgb(80%, 80%, 80%)" stroke-opacity="1" stroke-miterlimit="10" d="M 684.550781 532.589844 L 684.550781 529.847656 "/>
<g fill="rgb(40%, 40%, 40%)" fill-opacity="1">
<use xlink:href="#glyph-1-7" x="75.621094" y="549.952148"/>
<use xlink:href="#glyph-1-6" x="82.621094" y="549.952148"/>
</g>
<g fill="rgb(40%, 40%, 40%)" fill-opacity="1">
<use xlink:href="#glyph-1-7" x="225.480469" y="549.952148"/>
<use xlink:href="#glyph-1-4" x="232.480469" y="549.952148"/>
</g>
<g fill="rgb(40%, 40%, 40%)" fill-opacity="1">
<use xlink:href="#glyph-1-1" x="378.835938" y="549.952148"/>
</g>
<g fill="rgb(40%, 40%, 40%)" fill-opacity="1">
<use xlink:href="#glyph-1-4" x="528.691406" y="549.952148"/>
</g>
<g fill="rgb(40%, 40%, 40%)" fill-opacity="1">
<use xlink:href="#glyph-1-6" x="678.550781" y="549.952148"/>
</g>
<g fill="rgb(74.901961%, 9.803922%, 19.607843%)" fill-opacity="1">
<use xlink:href="#glyph-2-1" x="382.835938" y="566.759766"/>
</g>
</svg>
