<?xml version="1.0" encoding="UTF-8"?>
<svg xmlns="http://www.w3.org/2000/svg" xmlns:xlink="http://www.w3.org/1999/xlink" width="504pt" height="604pt" viewBox="0 0 504 604">
<defs>
<g>
<g id="glyph-0-0">
<path d="M 2.609375 0 L 2.609375 -19.40625 L 16.609375 -19.40625 L 16.609375 0 Z M 5.78125 -1.71875 L 13.34375 -1.71875 L 11.203125 -5.59375 L 9.671875 -8.609375 L 9.546875 -8.609375 L 7.96875 -5.59375 Z M 9.546875 -11.390625 L 9.671875 -11.390625 L 11.109375 -14.140625 L 13.046875 -17.65625 L 6.125 -17.65625 L 8.078125 -14.140625 Z M 4.515625 -3.234375 L 8.265625 -10 L 4.515625 -16.84375 Z M 14.65625 -3.234375 L 14.65625 -16.84375 L 10.9375 -10 Z M 14.65625 -3.234375 "/>
</g>
<g id="glyph-0-1">
<path d="M 7.3125 0.359375 C 5.4375 0.359375 3.960938 -0.488281 2.890625 -2.1875 C 1.828125 -3.882812 1.296875 -6.304688 1.296875 -9.453125 C 1.296875 -12.597656 1.828125 -14.992188 2.890625 -16.640625 C 3.960938 -18.285156 5.4375 -19.109375 7.3125 -19.109375 C 9.175781 -19.109375 10.640625 -18.28125 11.703125 -16.625 C 12.773438 -14.976562 13.3125 -12.585938 13.3125 -9.453125 C 13.3125 -6.304688 12.773438 -3.882812 11.703125 -2.1875 C 10.640625 -0.488281 9.175781 0.359375 7.3125 0.359375 Z M 7.3125 -1.59375 C 8.03125 -1.59375 8.664062 -1.863281 9.21875 -2.40625 C 9.769531 -2.945312 10.195312 -3.796875 10.5 -4.953125 C 10.8125 -6.117188 10.96875 -7.617188 10.96875 -9.453125 C 10.96875 -11.285156 10.8125 -12.769531 10.5 -13.90625 C 10.195312 -15.039062 9.769531 -15.863281 9.21875 -16.375 C 8.664062 -16.894531 8.03125 -17.15625 7.3125 -17.15625 C 6.582031 -17.15625 5.941406 -16.894531 5.390625 -16.375 C 4.835938 -15.863281 4.40625 -15.039062 4.09375 -13.90625 C 3.789062 -12.769531 3.640625 -11.285156 3.640625 -9.453125 C 3.640625 -7.617188 3.789062 -6.117188 4.09375 -4.953125 C 4.40625 -3.796875 4.835938 -2.945312 5.390625 -2.40625 C 5.941406 -1.863281 6.582031 -1.59375 7.3125 -1.59375 Z M 7.3125 -1.59375 "/>
</g>
<g id="glyph-0-2">
<path d="M 6.890625 0.359375 C 5.878906 0.359375 4.988281 0.238281 4.21875 0 C 3.457031 -0.25 2.789062 -0.570312 2.21875 -0.96875 C 1.65625 -1.363281 1.15625 -1.78125 0.71875 -2.21875 L 1.921875 -3.796875 C 2.484375 -3.242188 3.132812 -2.75 3.875 -2.3125 C 4.625 -1.875 5.546875 -1.65625 6.640625 -1.65625 C 7.398438 -1.65625 8.09375 -1.828125 8.71875 -2.171875 C 9.34375 -2.523438 9.835938 -3.019531 10.203125 -3.65625 C 10.566406 -4.300781 10.75 -5.0625 10.75 -5.9375 C 10.75 -7.226562 10.382812 -8.234375 9.65625 -8.953125 C 8.9375 -9.679688 7.972656 -10.046875 6.765625 -10.046875 C 6.128906 -10.046875 5.578125 -9.945312 5.109375 -9.75 C 4.640625 -9.5625 4.117188 -9.28125 3.546875 -8.90625 L 2.265625 -9.71875 L 2.890625 -18.75 L 12.265625 -18.75 L 12.265625 -16.671875 L 5 -16.671875 L 4.515625 -11.109375 C 4.953125 -11.347656 5.394531 -11.535156 5.84375 -11.671875 C 6.300781 -11.816406 6.816406 -11.890625 7.390625 -11.890625 C 8.453125 -11.890625 9.421875 -11.675781 10.296875 -11.25 C 11.179688 -10.832031 11.882812 -10.191406 12.40625 -9.328125 C 12.9375 -8.460938 13.203125 -7.359375 13.203125 -6.015625 C 13.203125 -4.660156 12.898438 -3.503906 12.296875 -2.546875 C 11.703125 -1.597656 10.921875 -0.875 9.953125 -0.375 C 8.992188 0.113281 7.972656 0.359375 6.890625 0.359375 Z M 6.890625 0.359375 "/>
</g>
<g id="glyph-0-3">
<path d="M 2.3125 0 L 2.3125 -2.015625 L 6.609375 -2.015625 L 6.609375 -15.828125 L 3.1875 -15.828125 L 3.1875 -17.375 C 4.050781 -17.53125 4.800781 -17.722656 5.4375 -17.953125 C 6.082031 -18.179688 6.664062 -18.445312 7.1875 -18.75 L 9.03125 -18.75 L 9.03125 -2.015625 L 12.90625 -2.015625 L 12.90625 0 Z M 2.3125 0 "/>
</g>
<g id="glyph-0-4">
<path d="M 1.21875 -6.453125 L 1.21875 -8.296875 L 7.96875 -8.296875 L 7.96875 -6.453125 Z M 1.21875 -6.453125 "/>
</g>
<g id="glyph-0-5">
<path d="M 3.671875 0.359375 C 3.191406 0.359375 2.773438 0.183594 2.421875 -0.15625 C 2.078125 -0.5 1.90625 -0.941406 1.90625 -1.484375 C 1.90625 -2.046875 2.078125 -2.492188 2.421875 -2.828125 C 2.773438 -3.171875 3.191406 -3.34375 3.671875 -3.34375 C 4.160156 -3.34375 4.570312 -3.171875 4.90625 -2.828125 C 5.25 -2.492188 5.421875 -2.046875 5.421875 -1.484375 C 5.421875 -0.941406 5.25 -0.5 4.90625 -0.15625 C 4.570312 0.183594 4.160156 0.359375 3.671875 0.359375 Z M 3.671875 0.359375 "/>
</g>
<g id="glyph-1-0">
<path d="M 2.984375 0 L 2.984375 -22.171875 L 18.96875 -22.171875 L 18.96875 0 Z M 6.609375 -1.96875 L 15.25 -1.96875 L 12.796875 -6.390625 L 11.046875 -9.828125 L 10.90625 -9.828125 L 9.109375 -6.390625 Z M 10.90625 -13.015625 L 11.046875 -13.015625 L 12.6875 -16.140625 L 14.90625 -20.171875 L 7 -20.171875 L 9.234375 -16.140625 Z M 5.15625 -3.703125 L 9.453125 -11.421875 L 5.15625 -19.234375 Z M 16.75 -3.703125 L 16.75 -19.234375 L 12.5 -11.421875 Z M 16.75 -3.703125 "/>
</g>
<g id="glyph-1-1">
<path d="M 3.015625 0 L 3.015625 -22.046875 L 9.5625 -22.046875 C 11.050781 -22.046875 12.363281 -21.863281 13.5 -21.5 C 14.644531 -21.132812 15.535156 -20.554688 16.171875 -19.765625 C 16.816406 -18.984375 17.140625 -17.941406 17.140625 -16.640625 C 17.140625 -15.515625 16.863281 -14.519531 16.3125 -13.65625 C 15.757812 -12.789062 14.960938 -12.191406 13.921875 -11.859375 L 13.921875 -11.71875 C 15.296875 -11.476562 16.382812 -10.925781 17.1875 -10.0625 C 18 -9.207031 18.40625 -8.035156 18.40625 -6.546875 C 18.40625 -5.078125 18.050781 -3.859375 17.34375 -2.890625 C 16.632812 -1.921875 15.648438 -1.195312 14.390625 -0.71875 C 13.140625 -0.238281 11.695312 0 10.0625 0 Z M 5.8125 -12.671875 L 9.078125 -12.671875 C 10.953125 -12.671875 12.304688 -12.992188 13.140625 -13.640625 C 13.972656 -14.296875 14.390625 -15.175781 14.390625 -16.28125 C 14.390625 -17.582031 13.953125 -18.5 13.078125 -19.03125 C 12.203125 -19.5625 10.914062 -19.828125 9.21875 -19.828125 L 5.8125 -19.828125 Z M 5.8125 -2.21875 L 9.65625 -2.21875 C 11.550781 -2.21875 13.023438 -2.566406 14.078125 -3.265625 C 15.128906 -3.972656 15.65625 -5.070312 15.65625 -6.5625 C 15.65625 -7.914062 15.140625 -8.910156 14.109375 -9.546875 C 13.078125 -10.191406 11.59375 -10.515625 9.65625 -10.515625 L 5.8125 -10.515625 Z M 5.8125 -2.21875 "/>
</g>
<g id="glyph-1-2">
<path d="M 9.109375 0.40625 C 7.773438 0.40625 6.53125 0.0703125 5.375 -0.59375 C 4.226562 -1.269531 3.300781 -2.242188 2.59375 -3.515625 C 1.894531 -4.796875 1.546875 -6.335938 1.546875 -8.140625 C 1.546875 -9.960938 1.894531 -11.515625 2.59375 -12.796875 C 3.300781 -14.078125 4.226562 -15.050781 5.375 -15.71875 C 6.53125 -16.394531 7.773438 -16.734375 9.109375 -16.734375 C 10.441406 -16.734375 11.679688 -16.394531 12.828125 -15.71875 C 13.972656 -15.050781 14.898438 -14.078125 15.609375 -12.796875 C 16.316406 -11.515625 16.671875 -9.960938 16.671875 -8.140625 C 16.671875 -6.335938 16.316406 -4.796875 15.609375 -3.515625 C 14.898438 -2.242188 13.972656 -1.269531 12.828125 -0.59375 C 11.679688 0.0703125 10.441406 0.40625 9.109375 0.40625 Z M 9.109375 -1.890625 C 10.046875 -1.890625 10.867188 -2.148438 11.578125 -2.671875 C 12.296875 -3.191406 12.847656 -3.921875 13.234375 -4.859375 C 13.628906 -5.796875 13.828125 -6.890625 13.828125 -8.140625 C 13.828125 -9.390625 13.628906 -10.484375 13.234375 -11.421875 C 12.847656 -12.367188 12.296875 -13.109375 11.578125 -13.640625 C 10.867188 -14.171875 10.046875 -14.4375 9.109375 -14.4375 C 8.171875 -14.4375 7.347656 -14.171875 6.640625 -13.640625 C 5.941406 -13.109375 5.390625 -12.367188 4.984375 -11.421875 C 4.585938 -10.484375 4.390625 -9.390625 4.390625 -8.140625 C 4.390625 -6.890625 4.585938 -5.796875 4.984375 -4.859375 C 5.390625 -3.921875 5.941406 -3.191406 6.640625 -2.671875 C 7.347656 -2.148438 8.171875 -1.890625 9.109375 -1.890625 Z M 9.109375 -1.890625 "/>
</g>
<g id="glyph-1-3">
<path d="M 7.90625 0.3125 C 6.164062 0.3125 4.953125 -0.191406 4.265625 -1.203125 C 3.578125 -2.222656 3.234375 -3.539062 3.234375 -5.15625 L 3.234375 -14.09375 L 0.796875 -14.09375 L 0.796875 -16.171875 L 3.359375 -16.328125 L 3.703125 -21.578125 L 6.015625 -21.578125 L 6.015625 -16.328125 L 10.4375 -16.328125 L 10.4375 -14.09375 L 6.015625 -14.09375 L 6.015625 -5.09375 C 6.015625 -4.101562 6.195312 -3.332031 6.5625 -2.78125 C 6.9375 -2.226562 7.59375 -1.953125 8.53125 -1.953125 C 8.820312 -1.953125 9.125 -1.976562 9.4375 -2.03125 C 9.75 -2.09375 10.0625 -2.203125 10.375 -2.359375 L 10.96875 -0.40625 C 10.539062 -0.195312 10.0625 -0.0234375 9.53125 0.109375 C 9 0.242188 8.457031 0.3125 7.90625 0.3125 Z M 7.90625 0.3125 "/>
</g>
<g id="glyph-1-4">
<path d="M 7.03125 0.40625 C 5.832031 0.40625 4.703125 0.195312 3.640625 -0.21875 C 2.585938 -0.632812 1.6875 -1.207031 0.9375 -1.9375 L 2.21875 -3.546875 C 2.925781 -2.972656 3.664062 -2.53125 4.4375 -2.21875 C 5.21875 -1.90625 6.113281 -1.75 7.125 -1.75 C 8.195312 -1.75 9 -2 9.53125 -2.5 C 10.070312 -3 10.34375 -3.59375 10.34375 -4.28125 C 10.34375 -4.84375 10.160156 -5.304688 9.796875 -5.671875 C 9.429688 -6.046875 8.96875 -6.363281 8.40625 -6.625 C 7.851562 -6.882812 7.269531 -7.128906 6.65625 -7.359375 C 5.84375 -7.648438 5.066406 -7.992188 4.328125 -8.390625 C 3.597656 -8.785156 3 -9.273438 2.53125 -9.859375 C 2.070312 -10.453125 1.84375 -11.195312 1.84375 -12.09375 C 1.84375 -13.414062 2.34375 -14.519531 3.34375 -15.40625 C 4.34375 -16.289062 5.71875 -16.734375 7.46875 -16.734375 C 8.5 -16.734375 9.445312 -16.5625 10.3125 -16.21875 C 11.175781 -15.875 11.921875 -15.429688 12.546875 -14.890625 L 11.28125 -13.28125 C 10.707031 -13.6875 10.117188 -14.003906 9.515625 -14.234375 C 8.910156 -14.460938 8.238281 -14.578125 7.5 -14.578125 C 6.46875 -14.578125 5.707031 -14.335938 5.21875 -13.859375 C 4.738281 -13.390625 4.5 -12.847656 4.5 -12.234375 C 4.5 -11.734375 4.644531 -11.316406 4.9375 -10.984375 C 5.238281 -10.660156 5.648438 -10.378906 6.171875 -10.140625 C 6.691406 -9.898438 7.289062 -9.664062 7.96875 -9.4375 C 8.820312 -9.125 9.632812 -8.769531 10.40625 -8.375 C 11.175781 -7.988281 11.800781 -7.484375 12.28125 -6.859375 C 12.757812 -6.242188 13 -5.441406 13 -4.453125 C 13 -3.566406 12.769531 -2.753906 12.3125 -2.015625 C 11.851562 -1.285156 11.179688 -0.695312 10.296875 -0.25 C 9.410156 0.183594 8.320312 0.40625 7.03125 0.40625 Z M 7.03125 0.40625 "/>
</g>
<g id="glyph-1-5">
<path d="M 2.75 0 L 2.75 -16.328125 L 5.03125 -16.328125 L 5.265625 -13.359375 L 5.359375 -13.359375 C 5.921875 -14.398438 6.597656 -15.222656 7.390625 -15.828125 C 8.191406 -16.429688 9.0625 -16.734375 10 -16.734375 C 10.363281 -16.734375 10.679688 -16.707031 10.953125 -16.65625 C 11.234375 -16.613281 11.5 -16.523438 11.75 -16.390625 L 11.140625 -14.046875 C 10.910156 -14.109375 10.6875 -14.15625 10.46875 -14.1875 C 10.257812 -14.21875 9.988281 -14.234375 9.65625 -14.234375 C 8.957031 -14.234375 8.234375 -13.957031 7.484375 -13.40625 C 6.734375 -12.851562 6.078125 -11.878906 5.515625 -10.484375 L 5.515625 0 Z M 2.75 0 "/>
</g>
<g id="glyph-1-6">
<path d="M 6.53125 0.40625 C 5.613281 0.40625 4.789062 0.222656 4.0625 -0.140625 C 3.34375 -0.503906 2.773438 -1.03125 2.359375 -1.71875 C 1.941406 -2.414062 1.734375 -3.253906 1.734375 -4.234375 C 1.734375 -6.066406 2.535156 -7.453125 4.140625 -8.390625 C 5.753906 -9.335938 8.300781 -10 11.78125 -10.375 C 11.78125 -11.0625 11.679688 -11.710938 11.484375 -12.328125 C 11.296875 -12.941406 10.953125 -13.441406 10.453125 -13.828125 C 9.960938 -14.210938 9.273438 -14.40625 8.390625 -14.40625 C 7.453125 -14.40625 6.566406 -14.226562 5.734375 -13.875 C 4.910156 -13.53125 4.175781 -13.148438 3.53125 -12.734375 L 2.453125 -14.625 C 2.953125 -14.957031 3.535156 -15.285156 4.203125 -15.609375 C 4.867188 -15.941406 5.59375 -16.210938 6.375 -16.421875 C 7.164062 -16.628906 8 -16.734375 8.875 -16.734375 C 10.195312 -16.734375 11.273438 -16.453125 12.109375 -15.890625 C 12.941406 -15.335938 13.554688 -14.554688 13.953125 -13.546875 C 14.347656 -12.546875 14.546875 -11.363281 14.546875 -10 L 14.546875 0 L 12.25 0 L 12.03125 -1.9375 L 11.921875 -1.9375 C 11.128906 -1.300781 10.285156 -0.75 9.390625 -0.28125 C 8.503906 0.175781 7.550781 0.40625 6.53125 0.40625 Z M 7.296875 -1.890625 C 8.085938 -1.890625 8.832031 -2.066406 9.53125 -2.421875 C 10.238281 -2.773438 10.988281 -3.300781 11.78125 -4 L 11.78125 -8.390625 C 9.945312 -8.179688 8.492188 -7.894531 7.421875 -7.53125 C 6.359375 -7.175781 5.597656 -6.742188 5.140625 -6.234375 C 4.679688 -5.722656 4.453125 -5.117188 4.453125 -4.421875 C 4.453125 -3.515625 4.726562 -2.863281 5.28125 -2.46875 C 5.84375 -2.082031 6.515625 -1.890625 7.296875 -1.890625 Z M 7.296875 -1.890625 "/>
</g>
<g id="glyph-1-7">
<path d="M 2.75 6.890625 L 2.75 -16.328125 L 5.03125 -16.328125 L 5.265625 -14.4375 L 5.359375 -14.4375 C 6.097656 -15.0625 6.914062 -15.597656 7.8125 -16.046875 C 8.707031 -16.503906 9.625 -16.734375 10.5625 -16.734375 C 11.96875 -16.734375 13.148438 -16.390625 14.109375 -15.703125 C 15.078125 -15.023438 15.804688 -14.0625 16.296875 -12.8125 C 16.796875 -11.5625 17.046875 -10.09375 17.046875 -8.40625 C 17.046875 -6.550781 16.710938 -4.96875 16.046875 -3.65625 C 15.378906 -2.34375 14.507812 -1.335938 13.4375 -0.640625 C 12.375 0.0546875 11.21875 0.40625 9.96875 0.40625 C 9.226562 0.40625 8.472656 0.238281 7.703125 -0.09375 C 6.941406 -0.425781 6.1875 -0.890625 5.4375 -1.484375 L 5.515625 1.359375 L 5.515625 6.890625 Z M 9.5 -1.921875 C 10.394531 -1.921875 11.195312 -2.175781 11.90625 -2.6875 C 12.613281 -3.207031 13.171875 -3.953125 13.578125 -4.921875 C 13.984375 -5.890625 14.1875 -7.046875 14.1875 -8.390625 C 14.1875 -9.585938 14.039062 -10.640625 13.75 -11.546875 C 13.457031 -12.453125 12.992188 -13.15625 12.359375 -13.65625 C 11.734375 -14.15625 10.910156 -14.40625 9.890625 -14.40625 C 9.203125 -14.40625 8.503906 -14.21875 7.796875 -13.84375 C 7.085938 -13.476562 6.328125 -12.921875 5.515625 -12.171875 L 5.515625 -3.625 C 6.265625 -3 6.984375 -2.554688 7.671875 -2.296875 C 8.359375 -2.046875 8.96875 -1.921875 9.5 -1.921875 Z M 9.5 -1.921875 "/>
</g>
<g id="glyph-1-8">
<path d="M 9.390625 0.40625 C 7.921875 0.40625 6.585938 0.0664062 5.390625 -0.609375 C 4.203125 -1.296875 3.257812 -2.273438 2.5625 -3.546875 C 1.875 -4.816406 1.53125 -6.351562 1.53125 -8.15625 C 1.53125 -9.9375 1.882812 -11.460938 2.59375 -12.734375 C 3.300781 -14.015625 4.210938 -15 5.328125 -15.6875 C 6.453125 -16.382812 7.644531 -16.734375 8.90625 -16.734375 C 10.300781 -16.734375 11.484375 -16.414062 12.453125 -15.78125 C 13.421875 -15.144531 14.15625 -14.253906 14.65625 -13.109375 C 15.15625 -11.960938 15.40625 -10.617188 15.40625 -9.078125 C 15.40625 -8.796875 15.394531 -8.515625 15.375 -8.234375 C 15.351562 -7.960938 15.3125 -7.691406 15.25 -7.421875 L 3.5 -7.421875 L 3.5 -9.59375 L 12.90625 -9.59375 C 12.90625 -11.175781 12.5625 -12.382812 11.875 -13.21875 C 11.195312 -14.0625 10.21875 -14.484375 8.9375 -14.484375 C 8.1875 -14.484375 7.457031 -14.273438 6.75 -13.859375 C 6.039062 -13.441406 5.453125 -12.769531 4.984375 -11.84375 C 4.523438 -10.925781 4.296875 -9.707031 4.296875 -8.1875 C 4.296875 -6.800781 4.535156 -5.640625 5.015625 -4.703125 C 5.503906 -3.765625 6.160156 -3.054688 6.984375 -2.578125 C 7.816406 -2.097656 8.722656 -1.859375 9.703125 -1.859375 C 10.492188 -1.859375 11.226562 -1.96875 11.90625 -2.1875 C 12.582031 -2.40625 13.203125 -2.703125 13.765625 -3.078125 L 14.765625 -1.265625 C 14.066406 -0.773438 13.269531 -0.375 12.375 -0.0625 C 11.488281 0.246094 10.492188 0.40625 9.390625 0.40625 Z M 9.390625 0.40625 "/>
</g>
<g id="glyph-1-9">
<path d="M 8.3125 0.40625 C 6.269531 0.40625 4.640625 -0.335938 3.421875 -1.828125 C 2.203125 -3.328125 1.59375 -5.429688 1.59375 -8.140625 C 1.59375 -9.910156 1.921875 -11.4375 2.578125 -12.71875 C 3.242188 -14 4.113281 -14.988281 5.1875 -15.6875 C 6.257812 -16.382812 7.414062 -16.734375 8.65625 -16.734375 C 9.613281 -16.734375 10.4375 -16.566406 11.125 -16.234375 C 11.820312 -15.898438 12.523438 -15.4375 13.234375 -14.84375 L 13.109375 -17.640625 L 13.109375 -23.9375 L 15.875 -23.9375 L 15.875 0 L 13.59375 0 L 13.359375 -1.921875 L 13.265625 -1.921875 C 12.640625 -1.296875 11.898438 -0.75 11.046875 -0.28125 C 10.203125 0.175781 9.289062 0.40625 8.3125 0.40625 Z M 8.921875 -1.921875 C 9.679688 -1.921875 10.398438 -2.109375 11.078125 -2.484375 C 11.765625 -2.859375 12.441406 -3.414062 13.109375 -4.15625 L 13.109375 -12.703125 C 12.421875 -13.328125 11.753906 -13.765625 11.109375 -14.015625 C 10.472656 -14.273438 9.816406 -14.40625 9.140625 -14.40625 C 8.265625 -14.40625 7.472656 -14.144531 6.765625 -13.625 C 6.066406 -13.101562 5.503906 -12.375 5.078125 -11.4375 C 4.660156 -10.5 4.453125 -9.410156 4.453125 -8.171875 C 4.453125 -6.210938 4.835938 -4.679688 5.609375 -3.578125 C 6.390625 -2.472656 7.492188 -1.921875 8.921875 -1.921875 Z M 8.921875 -1.921875 "/>
</g>
<g id="glyph-1-10">
</g>
<g id="glyph-1-11">
<path d="M 2.75 0 L 2.75 -16.328125 L 5.03125 -16.328125 L 5.265625 -13.96875 L 5.359375 -13.96875 C 6.078125 -14.738281 6.859375 -15.390625 7.703125 -15.921875 C 8.554688 -16.460938 9.46875 -16.734375 10.4375 -16.734375 C 11.695312 -16.734375 12.679688 -16.453125 13.390625 -15.890625 C 14.097656 -15.335938 14.617188 -14.582031 14.953125 -13.625 C 15.804688 -14.550781 16.671875 -15.300781 17.546875 -15.875 C 18.421875 -16.445312 19.351562 -16.734375 20.34375 -16.734375 C 22.03125 -16.734375 23.28125 -16.1875 24.09375 -15.09375 C 24.90625 -14.007812 25.3125 -12.425781 25.3125 -10.34375 L 25.3125 0 L 22.546875 0 L 22.546875 -9.984375 C 22.546875 -11.515625 22.300781 -12.617188 21.8125 -13.296875 C 21.320312 -13.984375 20.550781 -14.328125 19.5 -14.328125 C 18.875 -14.328125 18.222656 -14.117188 17.546875 -13.703125 C 16.878906 -13.296875 16.164062 -12.671875 15.40625 -11.828125 L 15.40625 0 L 12.65625 0 L 12.65625 -9.984375 C 12.65625 -11.515625 12.410156 -12.617188 11.921875 -13.296875 C 11.429688 -13.984375 10.660156 -14.328125 9.609375 -14.328125 C 8.378906 -14.328125 7.015625 -13.492188 5.515625 -11.828125 L 5.515625 0 Z M 2.75 0 "/>
</g>
<g id="glyph-1-12">
<path d="M 5.6875 0.3125 C 4.988281 0.3125 4.421875 0.167969 3.984375 -0.109375 C 3.554688 -0.398438 3.242188 -0.816406 3.046875 -1.359375 C 2.847656 -1.910156 2.75 -2.578125 2.75 -3.359375 L 2.75 -23.921875 L 5.515625 -23.921875 L 5.515625 -3.15625 C 5.515625 -2.71875 5.59375 -2.410156 5.75 -2.234375 C 5.914062 -2.066406 6.109375 -1.984375 6.328125 -1.984375 C 6.410156 -1.984375 6.488281 -1.988281 6.5625 -2 C 6.644531 -2.019531 6.753906 -2.039062 6.890625 -2.0625 L 7.28125 0.03125 C 7.09375 0.101562 6.863281 0.164062 6.59375 0.21875 C 6.332031 0.28125 6.03125 0.3125 5.6875 0.3125 Z M 5.6875 0.3125 "/>
</g>
<g id="glyph-2-0">
<path d="M 0 -2.984375 L -22.171875 -2.984375 L -22.171875 -18.96875 L 0 -18.96875 Z M -1.96875 -6.609375 L -1.96875 -15.25 L -6.390625 -12.796875 L -9.828125 -11.046875 L -9.828125 -10.90625 L -6.390625 -9.109375 Z M -13.015625 -10.90625 L -13.015625 -11.046875 L -16.140625 -12.6875 L -20.171875 -14.90625 L -20.171875 -7 L -16.140625 -9.234375 Z M -3.703125 -5.15625 L -11.421875 -9.453125 L -19.234375 -5.15625 Z M -3.703125 -16.75 L -19.234375 -16.75 L -11.421875 -12.5 Z M -3.703125 -16.75 "/>
</g>
<g id="glyph-2-1">
<path d="M 0.40625 -9.25 C 0.40625 -7.789062 0.0664062 -6.476562 -0.609375 -5.3125 C -1.285156 -4.15625 -2.257812 -3.238281 -3.53125 -2.5625 C -4.800781 -1.882812 -6.335938 -1.546875 -8.140625 -1.546875 C -9.960938 -1.546875 -11.507812 -1.910156 -12.78125 -2.640625 C -14.0625 -3.367188 -15.039062 -4.328125 -15.71875 -5.515625 C -16.394531 -6.710938 -16.734375 -8.003906 -16.734375 -9.390625 C -16.734375 -10.472656 -16.550781 -11.398438 -16.1875 -12.171875 C -15.832031 -12.941406 -15.375 -13.613281 -14.8125 -14.1875 L -13.09375 -12.8125 C -13.5 -12.40625 -13.820312 -11.925781 -14.0625 -11.375 C -14.300781 -10.832031 -14.421875 -10.210938 -14.421875 -9.515625 C -14.421875 -8.535156 -14.15625 -7.660156 -13.625 -6.890625 C -13.101562 -6.128906 -12.375 -5.519531 -11.4375 -5.0625 C -10.5 -4.613281 -9.398438 -4.390625 -8.140625 -4.390625 C -6.890625 -4.390625 -5.796875 -4.601562 -4.859375 -5.03125 C -3.929688 -5.457031 -3.203125 -6.050781 -2.671875 -6.8125 C -2.148438 -7.570312 -1.890625 -8.460938 -1.890625 -9.484375 C -1.890625 -10.234375 -2.03125 -10.929688 -2.3125 -11.578125 C -2.601562 -12.222656 -2.972656 -12.789062 -3.421875 -13.28125 L -1.734375 -14.484375 C -1.085938 -13.796875 -0.566406 -13.007812 -0.171875 -12.125 C 0.210938 -11.25 0.40625 -10.289062 0.40625 -9.25 Z M 0.40625 -9.25 "/>
</g>
<g id="glyph-2-2">
<path d="M 0.40625 -9.109375 C 0.40625 -7.773438 0.0703125 -6.53125 -0.59375 -5.375 C -1.269531 -4.226562 -2.242188 -3.300781 -3.515625 -2.59375 C -4.796875 -1.894531 -6.335938 -1.546875 -8.140625 -1.546875 C -9.960938 -1.546875 -11.515625 -1.894531 -12.796875 -2.59375 C -14.078125 -3.300781 -15.050781 -4.226562 -15.71875 -5.375 C -16.394531 -6.53125 -16.734375 -7.773438 -16.734375 -9.109375 C -16.734375 -10.441406 -16.394531 -11.679688 -15.71875 -12.828125 C -15.050781 -13.972656 -14.078125 -14.898438 -12.796875 -15.609375 C -11.515625 -16.316406 -9.960938 -16.671875 -8.140625 -16.671875 C -6.335938 -16.671875 -4.796875 -16.316406 -3.515625 -15.609375 C -2.242188 -14.898438 -1.269531 -13.972656 -0.59375 -12.828125 C 0.0703125 -11.679688 0.40625 -10.441406 0.40625 -9.109375 Z M -1.890625 -9.109375 C -1.890625 -10.046875 -2.148438 -10.867188 -2.671875 -11.578125 C -3.191406 -12.296875 -3.921875 -12.847656 -4.859375 -13.234375 C -5.796875 -13.628906 -6.890625 -13.828125 -8.140625 -13.828125 C -9.390625 -13.828125 -10.484375 -13.628906 -11.421875 -13.234375 C -12.367188 -12.847656 -13.109375 -12.296875 -13.640625 -11.578125 C -14.171875 -10.867188 -14.4375 -10.046875 -14.4375 -9.109375 C -14.4375 -8.171875 -14.171875 -7.347656 -13.640625 -6.640625 C -13.109375 -5.941406 -12.367188 -5.390625 -11.421875 -4.984375 C -10.484375 -4.585938 -9.390625 -4.390625 -8.140625 -4.390625 C -6.890625 -4.390625 -5.796875 -4.585938 -4.859375 -4.984375 C -3.921875 -5.390625 -3.191406 -5.941406 -2.671875 -6.640625 C -2.148438 -7.347656 -1.890625 -8.171875 -1.890625 -9.109375 Z M -1.890625 -9.109375 "/>
</g>
<g id="glyph-2-3">
<path d="M 0.40625 -7.53125 C 0.40625 -5.8125 -0.132812 -4.550781 -1.21875 -3.75 C -2.3125 -2.945312 -3.898438 -2.546875 -5.984375 -2.546875 L -16.328125 -2.546875 L -16.328125 -5.296875 L -6.34375 -5.296875 C -4.820312 -5.296875 -3.71875 -5.539062 -3.03125 -6.03125 C -2.34375 -6.519531 -2 -7.300781 -2 -8.375 C -2 -9.207031 -2.21875 -9.953125 -2.65625 -10.609375 C -3.09375 -11.265625 -3.789062 -11.976562 -4.75 -12.75 L -16.328125 -12.75 L -16.328125 -15.515625 L 0 -15.515625 L 0 -13.234375 L -2.546875 -13 L -2.546875 -12.90625 C -1.660156 -12.15625 -0.945312 -11.347656 -0.40625 -10.484375 C 0.132812 -9.628906 0.40625 -8.644531 0.40625 -7.53125 Z M 0.40625 -7.53125 "/>
</g>
<g id="glyph-2-4">
<path d="M 0 -2.75 L -16.328125 -2.75 L -16.328125 -5.03125 L -13.96875 -5.265625 L -13.96875 -5.359375 C -14.75 -6.148438 -15.40625 -6.984375 -15.9375 -7.859375 C -16.46875 -8.734375 -16.734375 -9.726562 -16.734375 -10.84375 C -16.734375 -12.570312 -16.1875 -13.832031 -15.09375 -14.625 C -14.007812 -15.425781 -12.425781 -15.828125 -10.34375 -15.828125 L 0 -15.828125 L 0 -13.0625 L -9.984375 -13.0625 C -11.515625 -13.0625 -12.617188 -12.820312 -13.296875 -12.34375 C -13.984375 -11.863281 -14.328125 -11.078125 -14.328125 -9.984375 C -14.328125 -9.148438 -14.113281 -8.40625 -13.6875 -7.75 C -13.269531 -7.09375 -12.648438 -6.347656 -11.828125 -5.515625 L 0 -5.515625 Z M 0 -2.75 "/>
</g>
<g id="glyph-2-5">
<path d="M 0.3125 -7.90625 C 0.3125 -6.164062 -0.191406 -4.953125 -1.203125 -4.265625 C -2.222656 -3.578125 -3.539062 -3.234375 -5.15625 -3.234375 L -14.09375 -3.234375 L -14.09375 -0.796875 L -16.171875 -0.796875 L -16.328125 -3.359375 L -21.578125 -3.703125 L -21.578125 -6.015625 L -16.328125 -6.015625 L -16.328125 -10.4375 L -14.09375 -10.4375 L -14.09375 -6.015625 L -5.09375 -6.015625 C -4.101562 -6.015625 -3.332031 -6.195312 -2.78125 -6.5625 C -2.226562 -6.9375 -1.953125 -7.59375 -1.953125 -8.53125 C -1.953125 -8.820312 -1.976562 -9.125 -2.03125 -9.4375 C -2.09375 -9.75 -2.203125 -10.0625 -2.359375 -10.375 L -0.40625 -10.96875 C -0.195312 -10.539062 -0.0234375 -10.0625 0.109375 -9.53125 C 0.242188 -9 0.3125 -8.457031 0.3125 -7.90625 Z M 0.3125 -7.90625 "/>
</g>
<g id="glyph-3-0">
<path d="M 2.125 0 L 2.125 -15.84375 L 13.5625 -15.84375 L 13.5625 0 Z M 4.71875 -1.40625 L 10.890625 -1.40625 L 9.140625 -4.5625 L 7.890625 -7.015625 L 7.796875 -7.015625 L 6.5 -4.5625 Z M 7.796875 -9.296875 L 7.890625 -9.296875 L 9.0625 -11.53125 L 10.640625 -14.40625 L 5 -14.40625 L 6.59375 -11.53125 Z M 3.6875 -2.640625 L 6.75 -8.15625 L 3.6875 -13.734375 Z M 11.96875 -2.640625 L 11.96875 -13.734375 L 8.9375 -8.15625 Z M 11.96875 -2.640625 "/>
</g>
<g id="glyph-3-1">
<path d="M 1.890625 0 L 1.890625 -1.640625 L 5.390625 -1.640625 L 5.390625 -12.90625 L 2.609375 -12.90625 L 2.609375 -14.1875 C 3.304688 -14.3125 3.914062 -14.46875 4.4375 -14.65625 C 4.957031 -14.84375 5.429688 -15.0625 5.859375 -15.3125 L 7.375 -15.3125 L 7.375 -1.640625 L 10.53125 -1.640625 L 10.53125 0 Z M 1.890625 0 "/>
</g>
<g id="glyph-3-2">
<path d="M 5.96875 0.28125 C 4.4375 0.28125 3.234375 -0.40625 2.359375 -1.78125 C 1.492188 -3.164062 1.0625 -5.140625 1.0625 -7.703125 C 1.0625 -10.273438 1.492188 -12.234375 2.359375 -13.578125 C 3.234375 -14.921875 4.4375 -15.59375 5.96875 -15.59375 C 7.488281 -15.59375 8.6875 -14.914062 9.5625 -13.5625 C 10.4375 -12.21875 10.875 -10.265625 10.875 -7.703125 C 10.875 -5.140625 10.4375 -3.164062 9.5625 -1.78125 C 8.6875 -0.40625 7.488281 0.28125 5.96875 0.28125 Z M 5.96875 -1.296875 C 6.5625 -1.296875 7.082031 -1.515625 7.53125 -1.953125 C 7.976562 -2.398438 8.328125 -3.097656 8.578125 -4.046875 C 8.828125 -4.992188 8.953125 -6.210938 8.953125 -7.703125 C 8.953125 -9.203125 8.828125 -10.414062 8.578125 -11.34375 C 8.328125 -12.269531 7.976562 -12.941406 7.53125 -13.359375 C 7.082031 -13.785156 6.5625 -14 5.96875 -14 C 5.375 -14 4.851562 -13.785156 4.40625 -13.359375 C 3.957031 -12.941406 3.601562 -12.269531 3.34375 -11.34375 C 3.09375 -10.414062 2.96875 -9.203125 2.96875 -7.703125 C 2.96875 -6.210938 3.09375 -4.992188 3.34375 -4.046875 C 3.601562 -3.097656 3.957031 -2.398438 4.40625 -1.953125 C 4.851562 -1.515625 5.375 -1.296875 5.96875 -1.296875 Z M 5.96875 -1.296875 "/>
</g>
<g id="glyph-3-3">
</g>
<g id="glyph-3-4">
<path d="M 1.96875 0 L 1.96875 -11.671875 L 3.59375 -11.671875 L 3.765625 -9.96875 L 3.828125 -9.96875 C 4.335938 -10.53125 4.894531 -11 5.5 -11.375 C 6.113281 -11.757812 6.769531 -11.953125 7.46875 -11.953125 C 8.363281 -11.953125 9.0625 -11.753906 9.5625 -11.359375 C 10.070312 -10.960938 10.445312 -10.421875 10.6875 -9.734375 C 11.289062 -10.398438 11.90625 -10.9375 12.53125 -11.34375 C 13.15625 -11.75 13.820312 -11.953125 14.53125 -11.953125 C 15.738281 -11.953125 16.628906 -11.5625 17.203125 -10.78125 C 17.785156 -10.007812 18.078125 -8.878906 18.078125 -7.390625 L 18.078125 0 L 16.109375 0 L 16.109375 -7.140625 C 16.109375 -8.234375 15.929688 -9.019531 15.578125 -9.5 C 15.234375 -9.988281 14.6875 -10.234375 13.9375 -10.234375 C 13.476562 -10.234375 13.007812 -10.085938 12.53125 -9.796875 C 12.0625 -9.503906 11.554688 -9.054688 11.015625 -8.453125 L 11.015625 0 L 9.03125 0 L 9.03125 -7.140625 C 9.03125 -8.234375 8.851562 -9.019531 8.5 -9.5 C 8.15625 -9.988281 7.609375 -10.234375 6.859375 -10.234375 C 5.984375 -10.234375 5.007812 -9.640625 3.9375 -8.453125 L 3.9375 0 Z M 1.96875 0 "/>
</g>
<g id="glyph-3-5">
<path d="M 4.65625 0.28125 C 4.007812 0.28125 3.425781 0.148438 2.90625 -0.109375 C 2.382812 -0.367188 1.972656 -0.742188 1.671875 -1.234375 C 1.378906 -1.734375 1.234375 -2.332031 1.234375 -3.03125 C 1.234375 -4.34375 1.804688 -5.332031 2.953125 -6 C 4.109375 -6.675781 5.929688 -7.148438 8.421875 -7.421875 C 8.410156 -7.898438 8.335938 -8.359375 8.203125 -8.796875 C 8.066406 -9.242188 7.820312 -9.601562 7.46875 -9.875 C 7.125 -10.15625 6.632812 -10.296875 6 -10.296875 C 5.332031 -10.296875 4.703125 -10.171875 4.109375 -9.921875 C 3.515625 -9.671875 2.984375 -9.394531 2.515625 -9.09375 L 1.75 -10.453125 C 2.101562 -10.691406 2.519531 -10.925781 3 -11.15625 C 3.476562 -11.382812 4 -11.570312 4.5625 -11.71875 C 5.125 -11.875 5.71875 -11.953125 6.34375 -11.953125 C 7.28125 -11.953125 8.046875 -11.753906 8.640625 -11.359375 C 9.242188 -10.960938 9.6875 -10.40625 9.96875 -9.6875 C 10.25 -8.96875 10.390625 -8.117188 10.390625 -7.140625 L 10.390625 0 L 8.75 0 L 8.59375 -1.390625 L 8.515625 -1.390625 C 7.953125 -0.929688 7.347656 -0.535156 6.703125 -0.203125 C 6.066406 0.117188 5.382812 0.28125 4.65625 0.28125 Z M 5.21875 -1.359375 C 5.78125 -1.359375 6.3125 -1.484375 6.8125 -1.734375 C 7.320312 -1.984375 7.859375 -2.359375 8.421875 -2.859375 L 8.421875 -6 C 7.109375 -5.84375 6.070312 -5.632812 5.3125 -5.375 C 4.550781 -5.125 4.003906 -4.816406 3.671875 -4.453125 C 3.347656 -4.085938 3.1875 -3.65625 3.1875 -3.15625 C 3.1875 -2.507812 3.382812 -2.046875 3.78125 -1.765625 C 4.175781 -1.492188 4.65625 -1.359375 5.21875 -1.359375 Z M 5.21875 -1.359375 "/>
</g>
<g id="glyph-3-6">
<path d="M 1.96875 0 L 1.96875 -11.671875 L 3.59375 -11.671875 L 3.765625 -9.984375 L 3.828125 -9.984375 C 4.390625 -10.535156 4.984375 -11 5.609375 -11.375 C 6.234375 -11.757812 6.945312 -11.953125 7.75 -11.953125 C 8.976562 -11.953125 9.878906 -11.5625 10.453125 -10.78125 C 11.023438 -10.007812 11.3125 -8.878906 11.3125 -7.390625 L 11.3125 0 L 9.328125 0 L 9.328125 -7.140625 C 9.328125 -8.234375 9.15625 -9.019531 8.8125 -9.5 C 8.46875 -9.988281 7.90625 -10.234375 7.125 -10.234375 C 6.53125 -10.234375 6 -10.082031 5.53125 -9.78125 C 5.0625 -9.476562 4.53125 -9.035156 3.9375 -8.453125 L 3.9375 0 Z M 1.96875 0 "/>
</g>
<g id="glyph-3-7">
<path d="M 5.375 0.28125 C 4.144531 0.28125 3.242188 -0.101562 2.671875 -0.875 C 2.097656 -1.65625 1.8125 -2.785156 1.8125 -4.265625 L 1.8125 -11.65625 L 3.796875 -11.65625 L 3.796875 -4.53125 C 3.796875 -3.445312 3.96875 -2.65625 4.3125 -2.15625 C 4.65625 -1.664062 5.210938 -1.421875 5.984375 -1.421875 C 6.578125 -1.421875 7.109375 -1.578125 7.578125 -1.890625 C 8.046875 -2.203125 8.554688 -2.703125 9.109375 -3.390625 L 9.109375 -11.65625 L 11.078125 -11.65625 L 11.078125 0 L 9.453125 0 L 9.28125 -1.828125 L 9.21875 -1.828125 C 8.6875 -1.191406 8.113281 -0.679688 7.5 -0.296875 C 6.882812 0.0859375 6.175781 0.28125 5.375 0.28125 Z M 5.375 0.28125 "/>
</g>
<g id="glyph-3-8">
<path d="M 4.0625 0.21875 C 3.5625 0.21875 3.15625 0.117188 2.84375 -0.078125 C 2.539062 -0.285156 2.316406 -0.582031 2.171875 -0.96875 C 2.035156 -1.363281 1.96875 -1.84375 1.96875 -2.40625 L 1.96875 -17.09375 L 3.9375 -17.09375 L 3.9375 -2.265625 C 3.9375 -1.941406 3.992188 -1.71875 4.109375 -1.59375 C 4.222656 -1.476562 4.363281 -1.421875 4.53125 -1.421875 C 4.582031 -1.421875 4.632812 -1.425781 4.6875 -1.4375 C 4.75 -1.445312 4.828125 -1.457031 4.921875 -1.46875 L 5.203125 0.015625 C 5.066406 0.078125 4.898438 0.125 4.703125 0.15625 C 4.515625 0.195312 4.300781 0.21875 4.0625 0.21875 Z M 4.0625 0.21875 "/>
</g>
<g id="glyph-3-9">
<path d="M 2.171875 5.03125 C 1.898438 5.03125 1.648438 5.003906 1.421875 4.953125 C 1.191406 4.910156 0.984375 4.847656 0.796875 4.765625 L 1.21875 3.234375 C 1.363281 3.273438 1.507812 3.3125 1.65625 3.34375 C 1.800781 3.375 1.941406 3.390625 2.078125 3.390625 C 2.734375 3.390625 3.273438 3.148438 3.703125 2.671875 C 4.140625 2.191406 4.472656 1.597656 4.703125 0.890625 L 4.96875 0.015625 L 0.28125 -11.671875 L 2.328125 -11.671875 L 4.703125 -5.203125 C 4.890625 -4.703125 5.078125 -4.164062 5.265625 -3.59375 C 5.460938 -3.019531 5.65625 -2.460938 5.84375 -1.921875 L 5.9375 -1.921875 C 6.101562 -2.453125 6.269531 -3.003906 6.4375 -3.578125 C 6.601562 -4.148438 6.765625 -4.691406 6.921875 -5.203125 L 9 -11.671875 L 10.9375 -11.671875 L 6.53125 0.953125 C 6.257812 1.722656 5.929688 2.414062 5.546875 3.03125 C 5.171875 3.644531 4.707031 4.128906 4.15625 4.484375 C 3.613281 4.847656 2.953125 5.03125 2.171875 5.03125 Z M 2.171875 5.03125 "/>
</g>
<g id="glyph-3-10">
<path d="M 7.125 0.28125 C 6.582031 0.28125 6.019531 0.148438 5.4375 -0.109375 C 4.863281 -0.367188 4.316406 -0.734375 3.796875 -1.203125 L 3.734375 -1.203125 L 3.546875 0 L 1.96875 0 L 1.96875 -17.09375 L 3.9375 -17.09375 L 3.9375 -12.421875 L 3.875 -10.328125 C 4.414062 -10.796875 5 -11.179688 5.625 -11.484375 C 6.25 -11.796875 6.890625 -11.953125 7.546875 -11.953125 C 8.546875 -11.953125 9.390625 -11.707031 10.078125 -11.21875 C 10.765625 -10.726562 11.285156 -10.039062 11.640625 -9.15625 C 11.992188 -8.269531 12.171875 -7.222656 12.171875 -6.015625 C 12.171875 -4.691406 11.929688 -3.554688 11.453125 -2.609375 C 10.984375 -1.671875 10.363281 -0.953125 9.59375 -0.453125 C 8.832031 0.0351562 8.007812 0.28125 7.125 0.28125 Z M 6.78125 -1.375 C 7.425781 -1.375 8 -1.554688 8.5 -1.921875 C 9.007812 -2.296875 9.410156 -2.828125 9.703125 -3.515625 C 9.992188 -4.203125 10.140625 -5.03125 10.140625 -6 C 10.140625 -6.851562 10.035156 -7.601562 9.828125 -8.25 C 9.617188 -8.894531 9.285156 -9.394531 8.828125 -9.75 C 8.378906 -10.113281 7.789062 -10.296875 7.0625 -10.296875 C 6.570312 -10.296875 6.066406 -10.160156 5.546875 -9.890625 C 5.035156 -9.628906 4.5 -9.234375 3.9375 -8.703125 L 3.9375 -2.59375 C 4.457031 -2.144531 4.96875 -1.828125 5.46875 -1.640625 C 5.96875 -1.460938 6.40625 -1.375 6.78125 -1.375 Z M 6.78125 -1.375 "/>
</g>
<g id="glyph-3-11">
<path d="M 6.515625 0.28125 C 5.554688 0.28125 4.664062 0.0390625 3.84375 -0.4375 C 3.019531 -0.914062 2.359375 -1.609375 1.859375 -2.515625 C 1.359375 -3.429688 1.109375 -4.53125 1.109375 -5.8125 C 1.109375 -7.113281 1.359375 -8.222656 1.859375 -9.140625 C 2.359375 -10.054688 3.019531 -10.753906 3.84375 -11.234375 C 4.664062 -11.710938 5.554688 -11.953125 6.515625 -11.953125 C 7.460938 -11.953125 8.34375 -11.710938 9.15625 -11.234375 C 9.976562 -10.753906 10.640625 -10.054688 11.140625 -9.140625 C 11.648438 -8.222656 11.90625 -7.113281 11.90625 -5.8125 C 11.90625 -4.53125 11.648438 -3.429688 11.140625 -2.515625 C 10.640625 -1.609375 9.976562 -0.914062 9.15625 -0.4375 C 8.34375 0.0390625 7.460938 0.28125 6.515625 0.28125 Z M 6.515625 -1.359375 C 7.179688 -1.359375 7.765625 -1.539062 8.265625 -1.90625 C 8.773438 -2.28125 9.171875 -2.800781 9.453125 -3.46875 C 9.734375 -4.144531 9.875 -4.925781 9.875 -5.8125 C 9.875 -6.707031 9.734375 -7.492188 9.453125 -8.171875 C 9.171875 -8.847656 8.773438 -9.375 8.265625 -9.75 C 7.765625 -10.125 7.179688 -10.3125 6.515625 -10.3125 C 5.835938 -10.3125 5.25 -10.125 4.75 -9.75 C 4.25 -9.375 3.851562 -8.847656 3.5625 -8.171875 C 3.28125 -7.492188 3.140625 -6.707031 3.140625 -5.8125 C 3.140625 -4.925781 3.28125 -4.144531 3.5625 -3.46875 C 3.851562 -2.800781 4.25 -2.28125 4.75 -1.90625 C 5.25 -1.539062 5.835938 -1.359375 6.515625 -1.359375 Z M 6.515625 -1.359375 "/>
</g>
<g id="glyph-3-12">
<path d="M 5.640625 0.21875 C 4.398438 0.21875 3.535156 -0.140625 3.046875 -0.859375 C 2.554688 -1.585938 2.3125 -2.523438 2.3125 -3.671875 L 2.3125 -10.0625 L 0.578125 -10.0625 L 0.578125 -11.546875 L 2.390625 -11.65625 L 2.640625 -15.421875 L 4.296875 -15.421875 L 4.296875 -11.65625 L 7.453125 -11.65625 L 7.453125 -10.0625 L 4.296875 -10.0625 L 4.296875 -3.640625 C 4.296875 -2.929688 4.425781 -2.378906 4.6875 -1.984375 C 4.957031 -1.585938 5.425781 -1.390625 6.09375 -1.390625 C 6.300781 -1.390625 6.515625 -1.410156 6.734375 -1.453125 C 6.960938 -1.492188 7.191406 -1.570312 7.421875 -1.6875 L 7.84375 -0.296875 C 7.53125 -0.140625 7.1875 -0.0117188 6.8125 0.078125 C 6.4375 0.171875 6.046875 0.21875 5.640625 0.21875 Z M 5.640625 0.21875 "/>
</g>
<g id="glyph-3-13">
<path d="M 5.03125 0.28125 C 4.164062 0.28125 3.351562 0.132812 2.59375 -0.15625 C 1.84375 -0.457031 1.203125 -0.867188 0.671875 -1.390625 L 1.578125 -2.53125 C 2.085938 -2.125 2.617188 -1.804688 3.171875 -1.578125 C 3.722656 -1.359375 4.363281 -1.25 5.09375 -1.25 C 5.851562 -1.25 6.425781 -1.425781 6.8125 -1.78125 C 7.195312 -2.144531 7.390625 -2.570312 7.390625 -3.0625 C 7.390625 -3.457031 7.257812 -3.785156 7 -4.046875 C 6.738281 -4.316406 6.410156 -4.546875 6.015625 -4.734375 C 5.617188 -4.921875 5.195312 -5.09375 4.75 -5.25 C 4.164062 -5.457031 3.613281 -5.703125 3.09375 -5.984375 C 2.570312 -6.273438 2.144531 -6.628906 1.8125 -7.046875 C 1.476562 -7.472656 1.3125 -8.003906 1.3125 -8.640625 C 1.3125 -9.578125 1.664062 -10.363281 2.375 -11 C 3.09375 -11.632812 4.082031 -11.953125 5.34375 -11.953125 C 6.070312 -11.953125 6.742188 -11.828125 7.359375 -11.578125 C 7.984375 -11.335938 8.519531 -11.023438 8.96875 -10.640625 L 8.0625 -9.484375 C 7.65625 -9.773438 7.234375 -10.003906 6.796875 -10.171875 C 6.367188 -10.335938 5.890625 -10.421875 5.359375 -10.421875 C 4.628906 -10.421875 4.085938 -10.25 3.734375 -9.90625 C 3.390625 -9.5625 3.21875 -9.175781 3.21875 -8.75 C 3.21875 -8.382812 3.320312 -8.082031 3.53125 -7.84375 C 3.738281 -7.613281 4.03125 -7.414062 4.40625 -7.25 C 4.78125 -7.082031 5.207031 -6.910156 5.6875 -6.734375 C 6.300781 -6.515625 6.878906 -6.265625 7.421875 -5.984375 C 7.972656 -5.710938 8.421875 -5.351562 8.765625 -4.90625 C 9.109375 -4.46875 9.28125 -3.894531 9.28125 -3.1875 C 9.28125 -2.550781 9.117188 -1.96875 8.796875 -1.4375 C 8.472656 -0.914062 7.992188 -0.5 7.359375 -0.1875 C 6.722656 0.121094 5.945312 0.28125 5.03125 0.28125 Z M 5.03125 0.28125 "/>
</g>
<g id="glyph-3-14">
<path d="M 1.96875 0 L 1.96875 -11.671875 L 3.59375 -11.671875 L 3.765625 -9.546875 L 3.828125 -9.546875 C 4.222656 -10.285156 4.707031 -10.867188 5.28125 -11.296875 C 5.851562 -11.734375 6.476562 -11.953125 7.15625 -11.953125 C 7.40625 -11.953125 7.628906 -11.929688 7.828125 -11.890625 C 8.023438 -11.859375 8.210938 -11.800781 8.390625 -11.71875 L 7.953125 -10.03125 C 7.785156 -10.082031 7.625 -10.117188 7.46875 -10.140625 C 7.320312 -10.160156 7.128906 -10.171875 6.890625 -10.171875 C 6.398438 -10.171875 5.882812 -9.972656 5.34375 -9.578125 C 4.8125 -9.179688 4.34375 -8.484375 3.9375 -7.484375 L 3.9375 0 Z M 1.96875 0 "/>
</g>
<g id="glyph-3-15">
<path d="M 1.96875 4.921875 L 1.96875 -11.671875 L 3.59375 -11.671875 L 3.765625 -10.3125 L 3.828125 -10.3125 C 4.359375 -10.757812 4.941406 -11.144531 5.578125 -11.46875 C 6.222656 -11.789062 6.878906 -11.953125 7.546875 -11.953125 C 8.554688 -11.953125 9.398438 -11.707031 10.078125 -11.21875 C 10.765625 -10.726562 11.285156 -10.035156 11.640625 -9.140625 C 11.992188 -8.253906 12.171875 -7.210938 12.171875 -6.015625 C 12.171875 -4.679688 11.929688 -3.546875 11.453125 -2.609375 C 10.984375 -1.671875 10.363281 -0.953125 9.59375 -0.453125 C 8.832031 0.0351562 8.007812 0.28125 7.125 0.28125 C 6.59375 0.28125 6.050781 0.164062 5.5 -0.0625 C 4.957031 -0.300781 4.421875 -0.632812 3.890625 -1.0625 L 3.9375 0.96875 L 3.9375 4.921875 Z M 6.78125 -1.375 C 7.425781 -1.375 8 -1.554688 8.5 -1.921875 C 9.007812 -2.296875 9.410156 -2.828125 9.703125 -3.515625 C 9.992188 -4.203125 10.140625 -5.03125 10.140625 -6 C 10.140625 -6.851562 10.035156 -7.601562 9.828125 -8.25 C 9.617188 -8.894531 9.285156 -9.394531 8.828125 -9.75 C 8.378906 -10.113281 7.789062 -10.296875 7.0625 -10.296875 C 6.570312 -10.296875 6.070312 -10.160156 5.5625 -9.890625 C 5.0625 -9.628906 4.519531 -9.234375 3.9375 -8.703125 L 3.9375 -2.59375 C 4.476562 -2.144531 4.992188 -1.828125 5.484375 -1.640625 C 5.972656 -1.460938 6.40625 -1.375 6.78125 -1.375 Z M 6.78125 -1.375 "/>
</g>
<g id="glyph-3-16">
<path d="M 6.703125 0.28125 C 5.648438 0.28125 4.695312 0.0390625 3.84375 -0.4375 C 3 -0.925781 2.328125 -1.625 1.828125 -2.53125 C 1.335938 -3.445312 1.09375 -4.546875 1.09375 -5.828125 C 1.09375 -7.097656 1.34375 -8.1875 1.84375 -9.09375 C 2.351562 -10.007812 3.007812 -10.710938 3.8125 -11.203125 C 4.613281 -11.703125 5.460938 -11.953125 6.359375 -11.953125 C 7.359375 -11.953125 8.203125 -11.722656 8.890625 -11.265625 C 9.585938 -10.816406 10.113281 -10.179688 10.46875 -9.359375 C 10.820312 -8.546875 11 -7.585938 11 -6.484375 C 11 -6.285156 10.988281 -6.085938 10.96875 -5.890625 C 10.957031 -5.691406 10.929688 -5.492188 10.890625 -5.296875 L 2.5 -5.296875 L 2.5 -6.859375 L 9.21875 -6.859375 C 9.21875 -7.984375 8.972656 -8.847656 8.484375 -9.453125 C 7.992188 -10.054688 7.296875 -10.359375 6.390625 -10.359375 C 5.847656 -10.359375 5.320312 -10.207031 4.8125 -9.90625 C 4.3125 -9.601562 3.894531 -9.125 3.5625 -8.46875 C 3.226562 -7.8125 3.0625 -6.9375 3.0625 -5.84375 C 3.0625 -4.851562 3.234375 -4.023438 3.578125 -3.359375 C 3.929688 -2.691406 4.398438 -2.1875 4.984375 -1.84375 C 5.578125 -1.5 6.222656 -1.328125 6.921875 -1.328125 C 7.492188 -1.328125 8.019531 -1.40625 8.5 -1.5625 C 8.988281 -1.71875 9.429688 -1.929688 9.828125 -2.203125 L 10.546875 -0.90625 C 10.046875 -0.5625 9.476562 -0.273438 8.84375 -0.046875 C 8.207031 0.171875 7.492188 0.28125 6.703125 0.28125 Z M 6.703125 0.28125 "/>
</g>
<g id="glyph-3-17">
<path d="M 5.9375 0.28125 C 4.476562 0.28125 3.3125 -0.25 2.4375 -1.3125 C 1.570312 -2.382812 1.140625 -3.882812 1.140625 -5.8125 C 1.140625 -7.070312 1.375 -8.160156 1.84375 -9.078125 C 2.3125 -9.992188 2.929688 -10.703125 3.703125 -11.203125 C 4.472656 -11.703125 5.300781 -11.953125 6.1875 -11.953125 C 6.875 -11.953125 7.460938 -11.832031 7.953125 -11.59375 C 8.453125 -11.363281 8.953125 -11.035156 9.453125 -10.609375 L 9.375 -12.609375 L 9.375 -17.09375 L 11.34375 -17.09375 L 11.34375 0 L 9.71875 0 L 9.546875 -1.375 L 9.484375 -1.375 C 9.035156 -0.925781 8.503906 -0.535156 7.890625 -0.203125 C 7.285156 0.117188 6.632812 0.28125 5.9375 0.28125 Z M 6.375 -1.375 C 6.914062 -1.375 7.429688 -1.503906 7.921875 -1.765625 C 8.410156 -2.035156 8.894531 -2.4375 9.375 -2.96875 L 9.375 -9.078125 C 8.875 -9.523438 8.394531 -9.835938 7.9375 -10.015625 C 7.476562 -10.203125 7.007812 -10.296875 6.53125 -10.296875 C 5.90625 -10.296875 5.335938 -10.109375 4.828125 -9.734375 C 4.328125 -9.367188 3.925781 -8.847656 3.625 -8.171875 C 3.320312 -7.503906 3.171875 -6.722656 3.171875 -5.828125 C 3.171875 -4.441406 3.445312 -3.351562 4 -2.5625 C 4.5625 -1.769531 5.351562 -1.375 6.375 -1.375 Z M 6.375 -1.375 "/>
</g>
<g id="glyph-3-18">
<path d="M 2.15625 0 L 2.15625 -15.75 L 4.671875 -15.75 L 7.640625 -7.328125 C 7.835938 -6.796875 8.019531 -6.265625 8.1875 -5.734375 C 8.363281 -5.203125 8.535156 -4.640625 8.703125 -4.046875 L 8.796875 -4.046875 C 8.972656 -4.640625 9.140625 -5.203125 9.296875 -5.734375 C 9.460938 -6.265625 9.632812 -6.796875 9.8125 -7.328125 L 12.78125 -15.75 L 15.296875 -15.75 L 15.296875 0 L 13.421875 0 L 13.421875 -8.65625 C 13.421875 -9.125 13.429688 -9.644531 13.453125 -10.21875 C 13.484375 -10.789062 13.519531 -11.363281 13.5625 -11.9375 C 13.613281 -12.507812 13.660156 -13.023438 13.703125 -13.484375 L 13.609375 -13.484375 L 12.375 -9.6875 L 9.4375 -1.5625 L 7.96875 -1.5625 L 5.015625 -9.6875 L 3.796875 -13.484375 L 3.703125 -13.484375 C 3.742188 -13.023438 3.785156 -12.507812 3.828125 -11.9375 C 3.867188 -11.363281 3.898438 -10.789062 3.921875 -10.21875 C 3.953125 -9.644531 3.96875 -9.125 3.96875 -8.65625 L 3.96875 0 Z M 2.15625 0 "/>
</g>
<g id="glyph-3-19">
<path d="M 0.8125 -9.734375 L 0.8125 -11.21875 L 11.109375 -11.21875 L 11.109375 -9.734375 Z M 0.8125 -4.609375 L 0.8125 -6.09375 L 11.109375 -6.09375 L 11.109375 -4.609375 Z M 0.8125 -4.609375 "/>
</g>
<g id="glyph-3-20">
<path d="M 1 -5.265625 L 1 -6.78125 L 6.5 -6.78125 L 6.5 -5.265625 Z M 1 -5.265625 "/>
</g>
<g id="glyph-3-21">
<path d="M 2.984375 0.28125 C 2.597656 0.28125 2.265625 0.144531 1.984375 -0.125 C 1.703125 -0.40625 1.5625 -0.765625 1.5625 -1.203125 C 1.5625 -1.671875 1.703125 -2.039062 1.984375 -2.3125 C 2.265625 -2.59375 2.597656 -2.734375 2.984375 -2.734375 C 3.390625 -2.734375 3.726562 -2.59375 4 -2.3125 C 4.28125 -2.039062 4.421875 -1.671875 4.421875 -1.203125 C 4.421875 -0.765625 4.28125 -0.40625 4 -0.125 C 3.726562 0.144531 3.390625 0.28125 2.984375 0.28125 Z M 2.984375 0.28125 "/>
</g>
<g id="glyph-3-22">
<path d="M 6 0.28125 C 5.039062 0.28125 4.179688 0.101562 3.421875 -0.25 C 2.660156 -0.613281 2.0625 -1.113281 1.625 -1.75 C 1.195312 -2.382812 0.984375 -3.109375 0.984375 -3.921875 C 0.984375 -4.578125 1.125 -5.164062 1.40625 -5.6875 C 1.6875 -6.207031 2.046875 -6.664062 2.484375 -7.0625 C 2.921875 -7.457031 3.382812 -7.78125 3.875 -8.03125 L 3.875 -8.125 C 3.3125 -8.53125 2.8125 -9.019531 2.375 -9.59375 C 1.945312 -10.175781 1.734375 -10.867188 1.734375 -11.671875 C 1.734375 -12.453125 1.921875 -13.140625 2.296875 -13.734375 C 2.679688 -14.328125 3.195312 -14.785156 3.84375 -15.109375 C 4.5 -15.429688 5.238281 -15.59375 6.0625 -15.59375 C 7.40625 -15.59375 8.460938 -15.210938 9.234375 -14.453125 C 10.003906 -13.691406 10.390625 -12.710938 10.390625 -11.515625 C 10.390625 -10.984375 10.273438 -10.484375 10.046875 -10.015625 C 9.828125 -9.546875 9.554688 -9.125 9.234375 -8.75 C 8.910156 -8.375 8.59375 -8.066406 8.28125 -7.828125 L 8.28125 -7.734375 C 8.726562 -7.460938 9.15625 -7.15625 9.5625 -6.8125 C 9.976562 -6.46875 10.3125 -6.050781 10.5625 -5.5625 C 10.8125 -5.070312 10.9375 -4.484375 10.9375 -3.796875 C 10.9375 -3.035156 10.734375 -2.347656 10.328125 -1.734375 C 9.921875 -1.117188 9.34375 -0.628906 8.59375 -0.265625 C 7.851562 0.0976562 6.988281 0.28125 6 0.28125 Z M 7.078125 -8.34375 C 7.597656 -8.8125 7.992188 -9.300781 8.265625 -9.8125 C 8.546875 -10.320312 8.6875 -10.859375 8.6875 -11.421875 C 8.6875 -11.921875 8.582031 -12.375 8.375 -12.78125 C 8.164062 -13.195312 7.863281 -13.523438 7.46875 -13.765625 C 7.070312 -14.003906 6.59375 -14.125 6.03125 -14.125 C 5.3125 -14.125 4.71875 -13.898438 4.25 -13.453125 C 3.78125 -13.003906 3.546875 -12.410156 3.546875 -11.671875 C 3.546875 -11.054688 3.710938 -10.546875 4.046875 -10.140625 C 4.378906 -9.742188 4.8125 -9.40625 5.34375 -9.125 C 5.882812 -8.84375 6.460938 -8.582031 7.078125 -8.34375 Z M 6.046875 -1.171875 C 6.640625 -1.171875 7.160156 -1.285156 7.609375 -1.515625 C 8.066406 -1.742188 8.421875 -2.054688 8.671875 -2.453125 C 8.921875 -2.859375 9.046875 -3.328125 9.046875 -3.859375 C 9.046875 -4.515625 8.851562 -5.050781 8.46875 -5.46875 C 8.09375 -5.894531 7.585938 -6.253906 6.953125 -6.546875 C 6.328125 -6.835938 5.644531 -7.132812 4.90625 -7.4375 C 4.289062 -7.039062 3.78125 -6.5625 3.375 -6 C 2.96875 -5.4375 2.765625 -4.800781 2.765625 -4.09375 C 2.765625 -3.53125 2.90625 -3.03125 3.1875 -2.59375 C 3.46875 -2.15625 3.859375 -1.804688 4.359375 -1.546875 C 4.859375 -1.296875 5.421875 -1.171875 6.046875 -1.171875 Z M 6.046875 -1.171875 "/>
</g>
<g id="glyph-3-23">
<path d="M 5.625 0.28125 C 4.800781 0.28125 4.078125 0.179688 3.453125 -0.015625 C 2.828125 -0.210938 2.28125 -0.472656 1.8125 -0.796875 C 1.351562 -1.117188 0.945312 -1.457031 0.59375 -1.8125 L 1.5625 -3.09375 C 2.03125 -2.644531 2.566406 -2.242188 3.171875 -1.890625 C 3.773438 -1.535156 4.523438 -1.359375 5.421875 -1.359375 C 6.046875 -1.359375 6.609375 -1.5 7.109375 -1.78125 C 7.617188 -2.070312 8.019531 -2.476562 8.3125 -3 C 8.613281 -3.519531 8.765625 -4.132812 8.765625 -4.84375 C 8.765625 -5.90625 8.46875 -6.726562 7.875 -7.3125 C 7.289062 -7.90625 6.507812 -8.203125 5.53125 -8.203125 C 5.007812 -8.203125 4.554688 -8.125 4.171875 -7.96875 C 3.785156 -7.8125 3.359375 -7.578125 2.890625 -7.265625 L 1.84375 -7.9375 L 2.359375 -15.3125 L 10.015625 -15.3125 L 10.015625 -13.609375 L 4.09375 -13.609375 L 3.6875 -9.0625 C 4.050781 -9.257812 4.414062 -9.414062 4.78125 -9.53125 C 5.144531 -9.644531 5.5625 -9.703125 6.03125 -9.703125 C 6.90625 -9.703125 7.703125 -9.53125 8.421875 -9.1875 C 9.140625 -8.84375 9.710938 -8.316406 10.140625 -7.609375 C 10.566406 -6.910156 10.78125 -6.007812 10.78125 -4.90625 C 10.78125 -3.800781 10.535156 -2.859375 10.046875 -2.078125 C 9.554688 -1.304688 8.914062 -0.71875 8.125 -0.3125 C 7.34375 0.0820312 6.507812 0.28125 5.625 0.28125 Z M 5.625 0.28125 "/>
</g>
<g id="glyph-3-24">
<path d="M 6.515625 0.28125 C 5.398438 0.28125 4.378906 0.0703125 3.453125 -0.34375 C 2.523438 -0.757812 1.710938 -1.332031 1.015625 -2.0625 L 2.140625 -3.34375 C 2.703125 -2.769531 3.367188 -2.3125 4.140625 -1.96875 C 4.910156 -1.632812 5.71875 -1.46875 6.5625 -1.46875 C 7.59375 -1.46875 8.394531 -1.703125 8.96875 -2.171875 C 9.550781 -2.648438 9.84375 -3.269531 9.84375 -4.03125 C 9.84375 -4.570312 9.722656 -5.003906 9.484375 -5.328125 C 9.253906 -5.648438 8.941406 -5.921875 8.546875 -6.140625 C 8.160156 -6.367188 7.71875 -6.59375 7.21875 -6.8125 L 4.953125 -7.796875 C 4.453125 -8.015625 3.957031 -8.296875 3.46875 -8.640625 C 2.976562 -8.984375 2.570312 -9.414062 2.25 -9.9375 C 1.925781 -10.457031 1.765625 -11.097656 1.765625 -11.859375 C 1.765625 -12.660156 1.976562 -13.375 2.40625 -14 C 2.832031 -14.632812 3.414062 -15.132812 4.15625 -15.5 C 4.90625 -15.863281 5.765625 -16.046875 6.734375 -16.046875 C 7.679688 -16.046875 8.550781 -15.863281 9.34375 -15.5 C 10.144531 -15.144531 10.816406 -14.6875 11.359375 -14.125 L 10.296875 -12.84375 C 9.796875 -13.28125 9.25 -13.628906 8.65625 -13.890625 C 8.0625 -14.148438 7.421875 -14.28125 6.734375 -14.28125 C 5.847656 -14.28125 5.132812 -14.070312 4.59375 -13.65625 C 4.0625 -13.238281 3.796875 -12.679688 3.796875 -11.984375 C 3.796875 -11.472656 3.925781 -11.054688 4.1875 -10.734375 C 4.445312 -10.421875 4.78125 -10.160156 5.1875 -9.953125 C 5.59375 -9.742188 5.992188 -9.550781 6.390625 -9.375 L 8.640625 -8.40625 C 9.265625 -8.132812 9.820312 -7.820312 10.3125 -7.46875 C 10.800781 -7.113281 11.1875 -6.671875 11.46875 -6.140625 C 11.75 -5.617188 11.890625 -4.96875 11.890625 -4.1875 C 11.890625 -3.351562 11.675781 -2.597656 11.25 -1.921875 C 10.820312 -1.242188 10.203125 -0.707031 9.390625 -0.3125 C 8.585938 0.0820312 7.628906 0.28125 6.515625 0.28125 Z M 6.515625 0.28125 "/>
</g>
<g id="glyph-3-25">
<path d="M 2.15625 0 L 2.15625 -15.75 L 6.09375 -15.75 C 7.707031 -15.75 9.066406 -15.445312 10.171875 -14.84375 C 11.273438 -14.238281 12.109375 -13.351562 12.671875 -12.1875 C 13.242188 -11.019531 13.53125 -9.601562 13.53125 -7.9375 C 13.53125 -6.269531 13.25 -4.84375 12.6875 -3.65625 C 12.125 -2.476562 11.296875 -1.570312 10.203125 -0.9375 C 9.109375 -0.3125 7.769531 0 6.1875 0 Z M 4.15625 -1.640625 L 5.9375 -1.640625 C 7.164062 -1.640625 8.191406 -1.890625 9.015625 -2.390625 C 9.835938 -2.890625 10.445312 -3.601562 10.84375 -4.53125 C 11.25 -5.46875 11.453125 -6.601562 11.453125 -7.9375 C 11.453125 -9.257812 11.25 -10.378906 10.84375 -11.296875 C 10.445312 -12.222656 9.835938 -12.921875 9.015625 -13.390625 C 8.191406 -13.867188 7.164062 -14.109375 5.9375 -14.109375 L 4.15625 -14.109375 Z M 4.15625 -1.640625 "/>
</g>
<g id="glyph-3-26">
<path d="M 6.4375 0.28125 C 5.6875 0.28125 4.988281 0.128906 4.34375 -0.171875 C 3.695312 -0.472656 3.132812 -0.929688 2.65625 -1.546875 C 2.1875 -2.160156 1.816406 -2.925781 1.546875 -3.84375 C 1.285156 -4.769531 1.15625 -5.847656 1.15625 -7.078125 C 1.15625 -8.609375 1.3125 -9.914062 1.625 -11 C 1.945312 -12.082031 2.378906 -12.957031 2.921875 -13.625 C 3.472656 -14.300781 4.097656 -14.796875 4.796875 -15.109375 C 5.492188 -15.429688 6.222656 -15.59375 6.984375 -15.59375 C 7.804688 -15.59375 8.519531 -15.4375 9.125 -15.125 C 9.738281 -14.820312 10.253906 -14.441406 10.671875 -13.984375 L 9.578125 -12.75 C 9.265625 -13.113281 8.882812 -13.40625 8.4375 -13.625 C 8 -13.84375 7.539062 -13.953125 7.0625 -13.953125 C 6.332031 -13.953125 5.660156 -13.734375 5.046875 -13.296875 C 4.429688 -12.859375 3.9375 -12.140625 3.5625 -11.140625 C 3.195312 -10.140625 3.015625 -8.785156 3.015625 -7.078125 C 3.015625 -5.816406 3.144531 -4.753906 3.40625 -3.890625 C 3.675781 -3.023438 4.066406 -2.367188 4.578125 -1.921875 C 5.085938 -1.484375 5.707031 -1.265625 6.4375 -1.265625 C 6.9375 -1.265625 7.390625 -1.40625 7.796875 -1.6875 C 8.203125 -1.96875 8.519531 -2.359375 8.75 -2.859375 C 8.976562 -3.367188 9.09375 -3.957031 9.09375 -4.625 C 9.09375 -5.289062 8.988281 -5.863281 8.78125 -6.34375 C 8.570312 -6.832031 8.257812 -7.207031 7.84375 -7.46875 C 7.425781 -7.738281 6.898438 -7.875 6.265625 -7.875 C 5.773438 -7.875 5.234375 -7.707031 4.640625 -7.375 C 4.054688 -7.050781 3.5 -6.492188 2.96875 -5.703125 L 2.90625 -7.265625 C 3.394531 -7.910156 3.96875 -8.421875 4.625 -8.796875 C 5.289062 -9.171875 5.945312 -9.359375 6.59375 -9.359375 C 7.476562 -9.359375 8.25 -9.179688 8.90625 -8.828125 C 9.5625 -8.472656 10.066406 -7.941406 10.421875 -7.234375 C 10.785156 -6.535156 10.96875 -5.664062 10.96875 -4.625 C 10.96875 -3.644531 10.757812 -2.785156 10.34375 -2.046875 C 9.925781 -1.316406 9.375 -0.742188 8.6875 -0.328125 C 8.007812 0.0742188 7.257812 0.28125 6.4375 0.28125 Z M 6.4375 0.28125 "/>
</g>
<g id="glyph-4-0">
<path d="M 4.46875 0 L 4.46875 -33.265625 L 28.46875 -33.265625 L 28.46875 0 Z M 9.921875 -2.9375 L 22.875 -2.9375 L 19.203125 -9.59375 L 16.5625 -14.75 L 16.375 -14.75 L 13.671875 -9.59375 Z M 16.375 -19.53125 L 16.5625 -19.53125 L 19.046875 -24.234375 L 22.359375 -30.25 L 10.5 -30.25 L 13.859375 -24.234375 Z M 7.75 -5.546875 L 14.171875 -17.140625 L 7.75 -28.859375 Z M 25.125 -5.546875 L 25.125 -28.859375 L 18.765625 -17.140625 Z M 25.125 -5.546875 "/>
</g>
<g id="glyph-4-1">
<path d="M 13.6875 0.609375 C 11.351562 0.609375 9.207031 0.164062 7.25 -0.71875 C 5.289062 -1.601562 3.582031 -2.804688 2.125 -4.328125 L 4.5 -7.03125 C 5.664062 -5.820312 7.0625 -4.863281 8.6875 -4.15625 C 10.320312 -3.445312 12.015625 -3.09375 13.765625 -3.09375 C 15.953125 -3.09375 17.648438 -3.585938 18.859375 -4.578125 C 20.078125 -5.566406 20.6875 -6.863281 20.6875 -8.46875 C 20.6875 -9.601562 20.441406 -10.507812 19.953125 -11.1875 C 19.460938 -11.875 18.800781 -12.445312 17.96875 -12.90625 C 17.144531 -13.375 16.210938 -13.835938 15.171875 -14.296875 L 10.40625 -16.375 C 9.363281 -16.832031 8.328125 -17.421875 7.296875 -18.140625 C 6.265625 -18.859375 5.410156 -19.765625 4.734375 -20.859375 C 4.054688 -21.953125 3.71875 -23.300781 3.71875 -24.90625 C 3.71875 -26.59375 4.160156 -28.09375 5.046875 -29.40625 C 5.941406 -30.726562 7.171875 -31.769531 8.734375 -32.53125 C 10.304688 -33.300781 12.101562 -33.6875 14.125 -33.6875 C 16.132812 -33.6875 17.972656 -33.3125 19.640625 -32.5625 C 21.316406 -31.8125 22.726562 -30.851562 23.875 -29.6875 L 21.625 -26.96875 C 20.582031 -27.882812 19.4375 -28.613281 18.1875 -29.15625 C 16.945312 -29.707031 15.59375 -29.984375 14.125 -29.984375 C 12.28125 -29.984375 10.789062 -29.546875 9.65625 -28.671875 C 8.53125 -27.804688 7.96875 -26.632812 7.96875 -25.15625 C 7.96875 -24.101562 8.238281 -23.238281 8.78125 -22.5625 C 9.320312 -21.894531 10.019531 -21.34375 10.875 -20.90625 C 11.738281 -20.46875 12.59375 -20.0625 13.4375 -19.6875 L 18.15625 -17.640625 C 19.46875 -17.078125 20.632812 -16.421875 21.65625 -15.671875 C 22.6875 -14.929688 23.492188 -14.007812 24.078125 -12.90625 C 24.671875 -11.800781 24.96875 -10.429688 24.96875 -8.796875 C 24.96875 -7.054688 24.519531 -5.472656 23.625 -4.046875 C 22.726562 -2.617188 21.429688 -1.484375 19.734375 -0.640625 C 18.046875 0.191406 16.03125 0.609375 13.6875 0.609375 Z M 13.6875 0.609375 "/>
</g>
<g id="glyph-4-2">
<path d="M 8.53125 0.46875 C 7.488281 0.46875 6.640625 0.253906 5.984375 -0.171875 C 5.335938 -0.597656 4.863281 -1.21875 4.5625 -2.03125 C 4.269531 -2.851562 4.125 -3.859375 4.125 -5.046875 L 4.125 -35.90625 L 8.265625 -35.90625 L 8.265625 -4.75 C 8.265625 -4.082031 8.382812 -3.617188 8.625 -3.359375 C 8.875 -3.109375 9.164062 -2.984375 9.5 -2.984375 C 9.625 -2.984375 9.742188 -2.988281 9.859375 -3 C 9.972656 -3.019531 10.132812 -3.050781 10.34375 -3.09375 L 10.921875 0.03125 C 10.640625 0.15625 10.296875 0.257812 9.890625 0.34375 C 9.492188 0.425781 9.039062 0.46875 8.53125 0.46875 Z M 8.53125 0.46875 "/>
</g>
<g id="glyph-4-3">
<path d="M 13.671875 0.609375 C 11.671875 0.609375 9.804688 0.101562 8.078125 -0.90625 C 6.347656 -1.914062 4.953125 -3.375 3.890625 -5.28125 C 2.835938 -7.195312 2.3125 -9.507812 2.3125 -12.21875 C 2.3125 -14.945312 2.835938 -17.269531 3.890625 -19.1875 C 4.953125 -21.113281 6.347656 -22.582031 8.078125 -23.59375 C 9.804688 -24.601562 11.671875 -25.109375 13.671875 -25.109375 C 15.671875 -25.109375 17.53125 -24.601562 19.25 -23.59375 C 20.96875 -22.582031 22.359375 -21.113281 23.421875 -19.1875 C 24.484375 -17.269531 25.015625 -14.945312 25.015625 -12.21875 C 25.015625 -9.507812 24.484375 -7.195312 23.421875 -5.28125 C 22.359375 -3.375 20.96875 -1.914062 19.25 -0.90625 C 17.53125 0.101562 15.671875 0.609375 13.671875 0.609375 Z M 13.671875 -2.84375 C 15.078125 -2.84375 16.3125 -3.234375 17.375 -4.015625 C 18.445312 -4.796875 19.273438 -5.890625 19.859375 -7.296875 C 20.441406 -8.703125 20.734375 -10.34375 20.734375 -12.21875 C 20.734375 -14.09375 20.441406 -15.738281 19.859375 -17.15625 C 19.273438 -18.570312 18.445312 -19.675781 17.375 -20.46875 C 16.3125 -21.257812 15.078125 -21.65625 13.671875 -21.65625 C 12.265625 -21.65625 11.03125 -21.257812 9.96875 -20.46875 C 8.914062 -19.675781 8.085938 -18.570312 7.484375 -17.15625 C 6.890625 -15.738281 6.59375 -14.09375 6.59375 -12.21875 C 6.59375 -10.34375 6.890625 -8.703125 7.484375 -7.296875 C 8.085938 -5.890625 8.914062 -4.796875 9.96875 -4.015625 C 11.03125 -3.234375 12.265625 -2.84375 13.671875 -2.84375 Z M 13.671875 -2.84375 "/>
</g>
<g id="glyph-4-4">
<path d="M 4.140625 10.34375 L 4.140625 -24.5 L 7.5625 -24.5 L 7.90625 -21.671875 L 8.046875 -21.671875 C 9.160156 -22.609375 10.382812 -23.414062 11.71875 -24.09375 C 13.0625 -24.769531 14.441406 -25.109375 15.859375 -25.109375 C 17.972656 -25.109375 19.75 -24.59375 21.1875 -23.5625 C 22.625 -22.539062 23.710938 -21.09375 24.453125 -19.21875 C 25.203125 -17.34375 25.578125 -15.144531 25.578125 -12.625 C 25.578125 -9.84375 25.078125 -7.46875 24.078125 -5.5 C 23.078125 -3.53125 21.773438 -2.019531 20.171875 -0.96875 C 18.566406 0.0820312 16.832031 0.609375 14.96875 0.609375 C 13.851562 0.609375 12.722656 0.359375 11.578125 -0.140625 C 10.429688 -0.640625 9.296875 -1.335938 8.171875 -2.234375 L 8.28125 2.046875 L 8.28125 10.34375 Z M 14.25 -2.890625 C 15.601562 -2.890625 16.804688 -3.273438 17.859375 -4.046875 C 18.921875 -4.816406 19.757812 -5.925781 20.375 -7.375 C 20.988281 -8.832031 21.296875 -10.566406 21.296875 -12.578125 C 21.296875 -14.378906 21.070312 -15.957031 20.625 -17.3125 C 20.1875 -18.675781 19.492188 -19.734375 18.546875 -20.484375 C 17.609375 -21.242188 16.367188 -21.625 14.828125 -21.625 C 13.804688 -21.625 12.757812 -21.34375 11.6875 -20.78125 C 10.625 -20.226562 9.488281 -19.394531 8.28125 -18.28125 L 8.28125 -5.4375 C 9.394531 -4.507812 10.46875 -3.851562 11.5 -3.46875 C 12.539062 -3.082031 13.457031 -2.890625 14.25 -2.890625 Z M 14.25 -2.890625 "/>
</g>
<g id="glyph-4-5">
<path d="M 14.078125 0.609375 C 11.878906 0.609375 9.882812 0.0976562 8.09375 -0.921875 C 6.3125 -1.941406 4.894531 -3.40625 3.84375 -5.3125 C 2.800781 -7.226562 2.28125 -9.539062 2.28125 -12.25 C 2.28125 -14.90625 2.8125 -17.191406 3.875 -19.109375 C 4.945312 -21.035156 6.320312 -22.515625 8 -23.546875 C 9.6875 -24.578125 11.472656 -25.09375 13.359375 -25.09375 C 15.453125 -25.09375 17.222656 -24.617188 18.671875 -23.671875 C 20.128906 -22.722656 21.234375 -21.390625 21.984375 -19.671875 C 22.734375 -17.953125 23.109375 -15.929688 23.109375 -13.609375 C 23.109375 -13.191406 23.09375 -12.773438 23.0625 -12.359375 C 23.03125 -11.941406 22.96875 -11.53125 22.875 -11.125 L 5.265625 -11.125 L 5.265625 -14.390625 L 19.375 -14.390625 C 19.375 -16.773438 18.859375 -18.59375 17.828125 -19.84375 C 16.796875 -21.101562 15.328125 -21.734375 13.421875 -21.734375 C 12.296875 -21.734375 11.195312 -21.421875 10.125 -20.796875 C 9.0625 -20.171875 8.179688 -19.164062 7.484375 -17.78125 C 6.785156 -16.394531 6.4375 -14.5625 6.4375 -12.28125 C 6.4375 -10.207031 6.800781 -8.460938 7.53125 -7.046875 C 8.257812 -5.640625 9.242188 -4.578125 10.484375 -3.859375 C 11.722656 -3.140625 13.078125 -2.78125 14.546875 -2.78125 C 15.742188 -2.78125 16.847656 -2.941406 17.859375 -3.265625 C 18.878906 -3.597656 19.8125 -4.046875 20.65625 -4.609375 L 22.15625 -1.90625 C 21.101562 -1.175781 19.910156 -0.570312 18.578125 -0.09375 C 17.253906 0.375 15.753906 0.609375 14.078125 0.609375 Z M 14.078125 0.609375 "/>
</g>
</g>
<clipPath id="clip-0">
<path clip-rule="nonzero" d="M 89.152344 130.800781 L 498.523438 130.800781 L 498.523438 532.851562 L 89.152344 532.851562 Z M 89.152344 130.800781 "/>
</clipPath>
<clipPath id="clip-1">
<path clip-rule="nonzero" d="M 89.152344 514 L 498.523438 514 L 498.523438 516 L 89.152344 516 Z M 89.152344 514 "/>
</clipPath>
<clipPath id="clip-2">
<path clip-rule="nonzero" d="M 89.152344 373 L 498.523438 373 L 498.523438 375 L 89.152344 375 Z M 89.152344 373 "/>
</clipPath>
<clipPath id="clip-3">
<path clip-rule="nonzero" d="M 89.152344 232 L 498.523438 232 L 498.523438 234 L 89.152344 234 Z M 89.152344 232 "/>
</clipPath>
<clipPath id="clip-4">
<path clip-rule="nonzero" d="M 104 130.800781 L 106 130.800781 L 106 532.851562 L 104 532.851562 Z M 104 130.800781 "/>
</clipPath>
<clipPath id="clip-5">
<path clip-rule="nonzero" d="M 241 130.800781 L 243 130.800781 L 243 532.851562 L 241 532.851562 Z M 241 130.800781 "/>
</clipPath>
<clipPath id="clip-6">
<path clip-rule="nonzero" d="M 378 130.800781 L 380 130.800781 L 380 532.851562 L 378 532.851562 Z M 378 130.800781 "/>
</clipPath>
<clipPath id="clip-7">
<path clip-rule="nonzero" d="M 290 130.800781 L 295 130.800781 L 295 532.851562 L 290 532.851562 Z M 290 130.800781 "/>
</clipPath>
<clipPath id="clip-8">
<path clip-rule="nonzero" d="M 335 130.800781 L 338 130.800781 L 338 532.851562 L 335 532.851562 Z M 335 130.800781 "/>
</clipPath>
<clipPath id="clip-9">
<path clip-rule="nonzero" d="M 247 130.800781 L 250 130.800781 L 250 532.851562 L 247 532.851562 Z M 247 130.800781 "/>
</clipPath>
</defs>
<rect x="-50.4" y="-60.4" width="604.8" height="724.8" fill="rgb(100%, 100%, 100%)" fill-opacity="1"/>
<path fill="none" stroke-width="1.066978" stroke-linecap="round" stroke-linejoin="round" stroke="rgb(100%, 100%, 100%)" stroke-opacity="1" stroke-miterlimit="10" d="M 0 604 L 504 604 L 504 0 L 0 0 Z M 0 604 "/>
<g clip-path="url(#clip-0)">
<path fill-rule="nonzero" fill="rgb(100%, 100%, 100%)" fill-opacity="1" stroke-width="1.066978" stroke-linecap="round" stroke-linejoin="round" stroke="rgb(100%, 100%, 100%)" stroke-opacity="1" stroke-miterlimit="10" d="M 89.152344 532.847656 L 498.523438 532.847656 L 498.523438 130.796875 L 89.152344 130.796875 Z M 89.152344 532.847656 "/>
</g>
<g clip-path="url(#clip-1)">
<path fill="none" stroke-width="1.066978" stroke-linecap="butt" stroke-linejoin="round" stroke="rgb(80%, 80%, 80%)" stroke-opacity="1" stroke-miterlimit="10" d="M 89.152344 514.574219 L 498.519531 514.574219 "/>
</g>
<g clip-path="url(#clip-2)">
<path fill="none" stroke-width="1.066978" stroke-linecap="butt" stroke-linejoin="round" stroke="rgb(80%, 80%, 80%)" stroke-opacity="1" stroke-miterlimit="10" d="M 89.152344 373.996094 L 498.519531 373.996094 "/>
</g>
<g clip-path="url(#clip-3)">
<path fill="none" stroke-width="1.066978" stroke-linecap="butt" stroke-linejoin="round" stroke="rgb(80%, 80%, 80%)" stroke-opacity="1" stroke-miterlimit="10" d="M 89.152344 233.421875 L 498.519531 233.421875 "/>
</g>
<g clip-path="url(#clip-4)">
<path fill="none" stroke-width="1.066978" stroke-linecap="butt" stroke-linejoin="round" stroke="rgb(80%, 80%, 80%)" stroke-opacity="1" stroke-miterlimit="10" d="M 105.023438 532.847656 L 105.023438 130.800781 "/>
</g>
<g clip-path="url(#clip-5)">
<path fill="none" stroke-width="1.066978" stroke-linecap="butt" stroke-linejoin="round" stroke="rgb(80%, 80%, 80%)" stroke-opacity="1" stroke-miterlimit="10" d="M 241.84375 532.847656 L 241.84375 130.800781 "/>
</g>
<g clip-path="url(#clip-6)">
<path fill="none" stroke-width="1.066978" stroke-linecap="butt" stroke-linejoin="round" stroke="rgb(80%, 80%, 80%)" stroke-opacity="1" stroke-miterlimit="10" d="M 378.664062 532.847656 L 378.664062 130.800781 "/>
</g>
<path fill-rule="nonzero" fill="rgb(66.27451%, 66.27451%, 66.27451%)" fill-opacity="1" d="M 127.007812 514.574219 L 139.839844 514.574219 L 139.839844 511.761719 L 127.007812 511.761719 Z M 127.007812 514.574219 "/>
<path fill-rule="nonzero" fill="rgb(66.27451%, 66.27451%, 66.27451%)" fill-opacity="1" d="M 139.839844 514.574219 L 152.671875 514.574219 L 152.671875 508.949219 L 139.839844 508.949219 Z M 139.839844 514.574219 "/>
<path fill-rule="nonzero" fill="rgb(66.27451%, 66.27451%, 66.27451%)" fill-opacity="1" d="M 152.671875 514.574219 L 165.503906 514.574219 L 165.503906 503.328125 L 152.671875 503.328125 Z M 152.671875 514.574219 "/>
<path fill-rule="nonzero" fill="rgb(66.27451%, 66.27451%, 66.27451%)" fill-opacity="1" d="M 165.507812 514.574219 L 178.339844 514.574219 L 178.339844 506.140625 L 165.507812 506.140625 Z M 165.507812 514.574219 "/>
<path fill-rule="nonzero" fill="rgb(66.27451%, 66.27451%, 66.27451%)" fill-opacity="1" d="M 178.339844 514.574219 L 191.171875 514.574219 L 191.171875 494.894531 L 178.339844 494.894531 Z M 178.339844 514.574219 "/>
<path fill-rule="nonzero" fill="rgb(66.27451%, 66.27451%, 66.27451%)" fill-opacity="1" d="M 191.171875 514.574219 L 204.003906 514.574219 L 204.003906 480.835938 L 191.171875 480.835938 Z M 191.171875 514.574219 "/>
<path fill-rule="nonzero" fill="rgb(66.27451%, 66.27451%, 66.27451%)" fill-opacity="1" d="M 204.003906 514.574219 L 216.835938 514.574219 L 216.835938 458.34375 L 204.003906 458.34375 Z M 204.003906 514.574219 "/>
<path fill-rule="nonzero" fill="rgb(66.27451%, 66.27451%, 66.27451%)" fill-opacity="1" d="M 216.839844 514.574219 L 229.671875 514.574219 L 229.671875 413.359375 L 216.839844 413.359375 Z M 216.839844 514.574219 "/>
<path fill-rule="nonzero" fill="rgb(66.27451%, 66.27451%, 66.27451%)" fill-opacity="1" d="M 229.671875 514.574219 L 242.503906 514.574219 L 242.503906 396.488281 L 229.671875 396.488281 Z M 229.671875 514.574219 "/>
<path fill-rule="nonzero" fill="rgb(66.27451%, 66.27451%, 66.27451%)" fill-opacity="1" d="M 242.503906 514.574219 L 255.335938 514.574219 L 255.335938 348.691406 L 242.503906 348.691406 Z M 242.503906 514.574219 "/>
<path fill-rule="nonzero" fill="rgb(66.27451%, 66.27451%, 66.27451%)" fill-opacity="1" d="M 255.335938 514.574219 L 268.167969 514.574219 L 268.167969 289.652344 L 255.335938 289.652344 Z M 255.335938 514.574219 "/>
<path fill-rule="nonzero" fill="rgb(66.27451%, 66.27451%, 66.27451%)" fill-opacity="1" d="M 268.167969 514.574219 L 281 514.574219 L 281 222.175781 L 268.167969 222.175781 Z M 268.167969 514.574219 "/>
<path fill-rule="nonzero" fill="rgb(66.27451%, 66.27451%, 66.27451%)" fill-opacity="1" d="M 281.003906 514.574219 L 293.835938 514.574219 L 293.835938 160.320312 L 281.003906 160.320312 Z M 281.003906 514.574219 "/>
<path fill-rule="nonzero" fill="rgb(66.27451%, 66.27451%, 66.27451%)" fill-opacity="1" d="M 293.835938 514.574219 L 306.667969 514.574219 L 306.667969 188.433594 L 293.835938 188.433594 Z M 293.835938 514.574219 "/>
<path fill-rule="nonzero" fill="rgb(66.27451%, 66.27451%, 66.27451%)" fill-opacity="1" d="M 306.667969 514.574219 L 319.5 514.574219 L 319.5 210.929688 L 306.667969 210.929688 Z M 306.667969 514.574219 "/>
<path fill-rule="nonzero" fill="rgb(66.27451%, 66.27451%, 66.27451%)" fill-opacity="1" d="M 319.5 514.574219 L 332.332031 514.574219 L 332.332031 230.609375 L 319.5 230.609375 Z M 319.5 514.574219 "/>
<path fill-rule="nonzero" fill="rgb(66.27451%, 66.27451%, 66.27451%)" fill-opacity="1" d="M 332.335938 514.574219 L 345.167969 514.574219 L 345.167969 317.765625 L 332.335938 317.765625 Z M 332.335938 514.574219 "/>
<path fill-rule="nonzero" fill="rgb(66.27451%, 66.27451%, 66.27451%)" fill-opacity="1" d="M 345.167969 514.574219 L 358 514.574219 L 358 359.9375 L 345.167969 359.9375 Z M 345.167969 514.574219 "/>
<path fill-rule="nonzero" fill="rgb(66.27451%, 66.27451%, 66.27451%)" fill-opacity="1" d="M 358 514.574219 L 370.832031 514.574219 L 370.832031 430.226562 L 358 430.226562 Z M 358 514.574219 "/>
<path fill-rule="nonzero" fill="rgb(66.27451%, 66.27451%, 66.27451%)" fill-opacity="1" d="M 370.832031 514.574219 L 383.664062 514.574219 L 383.664062 475.210938 L 370.832031 475.210938 Z M 370.832031 514.574219 "/>
<path fill-rule="nonzero" fill="rgb(66.27451%, 66.27451%, 66.27451%)" fill-opacity="1" d="M 383.664062 514.574219 L 396.496094 514.574219 L 396.496094 494.894531 L 383.664062 494.894531 Z M 383.664062 514.574219 "/>
<path fill-rule="nonzero" fill="rgb(66.27451%, 66.27451%, 66.27451%)" fill-opacity="1" d="M 396.5 514.574219 L 409.332031 514.574219 L 409.332031 511.761719 L 396.5 511.761719 Z M 396.5 514.574219 "/>
<path fill-rule="nonzero" fill="rgb(66.27451%, 66.27451%, 66.27451%)" fill-opacity="1" d="M 409.332031 514.574219 L 422.164062 514.574219 L 422.164062 511.761719 L 409.332031 511.761719 Z M 409.332031 514.574219 "/>
<path fill-rule="nonzero" fill="rgb(66.27451%, 66.27451%, 66.27451%)" fill-opacity="1" d="M 422.164062 514.574219 L 434.996094 514.574219 L 434.996094 511.761719 L 422.164062 511.761719 Z M 422.164062 514.574219 "/>
<g clip-path="url(#clip-7)">
<path fill="none" stroke-width="4.267913" stroke-linecap="butt" stroke-linejoin="round" stroke="rgb(0%, 0%, 0%)" stroke-opacity="1" stroke-miterlimit="10" d="M 292.511719 532.847656 L 292.511719 130.800781 "/>
</g>
<g clip-path="url(#clip-8)">
<path fill="none" stroke-width="2.133957" stroke-linecap="butt" stroke-linejoin="round" stroke="rgb(0%, 0%, 0%)" stroke-opacity="1" stroke-dasharray="2.133957 6.40187" stroke-miterlimit="10" d="M 336.203125 532.847656 L 336.203125 130.800781 "/>
</g>
<g clip-path="url(#clip-9)">
<path fill="none" stroke-width="2.133957" stroke-linecap="butt" stroke-linejoin="round" stroke="rgb(0%, 0%, 0%)" stroke-opacity="1" stroke-dasharray="2.133957 6.40187" stroke-miterlimit="10" d="M 248.816406 532.847656 L 248.816406 130.800781 "/>
</g>
<g fill="rgb(40%, 40%, 40%)" fill-opacity="1">
<use xlink:href="#glyph-0-1" x="69.21875" y="523.679688"/>
</g>
<g fill="rgb(40%, 40%, 40%)" fill-opacity="1">
<use xlink:href="#glyph-0-2" x="54.21875" y="383.101562"/>
<use xlink:href="#glyph-0-1" x="69.21875" y="383.101562"/>
</g>
<g fill="rgb(40%, 40%, 40%)" fill-opacity="1">
<use xlink:href="#glyph-0-3" x="39.21875" y="242.527344"/>
<use xlink:href="#glyph-0-1" x="54.21875" y="242.527344"/>
<use xlink:href="#glyph-0-1" x="69.21875" y="242.527344"/>
</g>
<path fill="none" stroke-width="1.066978" stroke-linecap="butt" stroke-linejoin="round" stroke="rgb(80%, 80%, 80%)" stroke-opacity="1" stroke-miterlimit="10" d="M 86.410156 514.574219 L 89.152344 514.574219 "/>
<path fill="none" stroke-width="1.066978" stroke-linecap="butt" stroke-linejoin="round" stroke="rgb(80%, 80%, 80%)" stroke-opacity="1" stroke-miterlimit="10" d="M 86.410156 373.996094 L 89.152344 373.996094 "/>
<path fill="none" stroke-width="1.066978" stroke-linecap="butt" stroke-linejoin="round" stroke="rgb(80%, 80%, 80%)" stroke-opacity="1" stroke-miterlimit="10" d="M 86.410156 233.421875 L 89.152344 233.421875 "/>
<path fill="none" stroke-width="1.066978" stroke-linecap="butt" stroke-linejoin="round" stroke="rgb(80%, 80%, 80%)" stroke-opacity="1" stroke-miterlimit="10" d="M 105.023438 535.589844 L 105.023438 532.847656 "/>
<path fill="none" stroke-width="1.066978" stroke-linecap="butt" stroke-linejoin="round" stroke="rgb(80%, 80%, 80%)" stroke-opacity="1" stroke-miterlimit="10" d="M 241.84375 535.589844 L 241.84375 532.847656 "/>
<path fill="none" stroke-width="1.066978" stroke-linecap="butt" stroke-linejoin="round" stroke="rgb(80%, 80%, 80%)" stroke-opacity="1" stroke-miterlimit="10" d="M 378.664062 535.589844 L 378.664062 532.847656 "/>
<g fill="rgb(40%, 40%, 40%)" fill-opacity="1">
<use xlink:href="#glyph-0-4" x="82.023438" y="556.886719"/>
<use xlink:href="#glyph-0-3" x="91.023438" y="556.886719"/>
<use xlink:href="#glyph-0-5" x="106.023438" y="556.886719"/>
<use xlink:href="#glyph-0-2" x="113.023438" y="556.886719"/>
</g>
<g fill="rgb(40%, 40%, 40%)" fill-opacity="1">
<use xlink:href="#glyph-0-4" x="218.84375" y="556.886719"/>
<use xlink:href="#glyph-0-3" x="227.84375" y="556.886719"/>
<use xlink:href="#glyph-0-5" x="242.84375" y="556.886719"/>
<use xlink:href="#glyph-0-1" x="249.84375" y="556.886719"/>
</g>
<g fill="rgb(40%, 40%, 40%)" fill-opacity="1">
<use xlink:href="#glyph-0-4" x="355.664062" y="556.886719"/>
<use xlink:href="#glyph-0-1" x="364.664062" y="556.886719"/>
<use xlink:href="#glyph-0-5" x="379.664062" y="556.886719"/>
<use xlink:href="#glyph-0-2" x="386.664062" y="556.886719"/>
</g>
<g fill="rgb(74.901961%, 9.803922%, 19.607843%)" fill-opacity="1">
<use xlink:href="#glyph-1-1" x="92.835938" y="589.924805"/>
<use xlink:href="#glyph-1-2" x="112.835938" y="589.924805"/>
<use xlink:href="#glyph-1-2" x="130.835938" y="589.924805"/>
<use xlink:href="#glyph-1-3" x="148.835938" y="589.924805"/>
<use xlink:href="#glyph-1-4" x="159.835938" y="589.924805"/>
<use xlink:href="#glyph-1-3" x="172.835938" y="589.924805"/>
<use xlink:href="#glyph-1-5" x="183.835938" y="589.924805"/>
<use xlink:href="#glyph-1-6" x="194.835938" y="589.924805"/>
<use xlink:href="#glyph-1-7" x="211.835938" y="589.924805"/>
<use xlink:href="#glyph-1-7" x="230.835938" y="589.924805"/>
<use xlink:href="#glyph-1-8" x="249.835938" y="589.924805"/>
<use xlink:href="#glyph-1-9" x="266.835938" y="589.924805"/>
<use xlink:href="#glyph-1-10" x="285.835938" y="589.924805"/>
<use xlink:href="#glyph-1-4" x="292.835938" y="589.924805"/>
<use xlink:href="#glyph-1-6" x="306.835938" y="589.924805"/>
<use xlink:href="#glyph-1-11" x="323.835938" y="589.924805"/>
<use xlink:href="#glyph-1-7" x="351.835938" y="589.924805"/>
<use xlink:href="#glyph-1-12" x="370.835938" y="589.924805"/>
<use xlink:href="#glyph-1-8" x="379.835938" y="589.924805"/>
<use xlink:href="#glyph-1-10" x="396.835938" y="589.924805"/>
<use xlink:href="#glyph-1-4" x="403.835938" y="589.924805"/>
<use xlink:href="#glyph-1-12" x="417.835938" y="589.924805"/>
<use xlink:href="#glyph-1-2" x="426.835938" y="589.924805"/>
<use xlink:href="#glyph-1-7" x="444.835938" y="589.924805"/>
<use xlink:href="#glyph-1-8" x="463.835938" y="589.924805"/>
<use xlink:href="#glyph-1-4" x="480.835938" y="589.924805"/>
</g>
<g fill="rgb(74.901961%, 9.803922%, 19.607843%)" fill-opacity="1">
<use xlink:href="#glyph-2-1" x="27.885742" y="371.824219"/>
<use xlink:href="#glyph-2-2" x="27.885742" y="356.824219"/>
<use xlink:href="#glyph-2-3" x="27.885742" y="338.824219"/>
<use xlink:href="#glyph-2-4" x="27.885742" y="320.824219"/>
<use xlink:href="#glyph-2-5" x="27.885742" y="302.824219"/>
</g>
<g fill="rgb(0%, 0%, 0%)" fill-opacity="1">
<use xlink:href="#glyph-3-1" x="89.152344" y="75.533203"/>
<use xlink:href="#glyph-3-2" x="101.152344" y="75.533203"/>
<use xlink:href="#glyph-3-2" x="113.152344" y="75.533203"/>
<use xlink:href="#glyph-3-2" x="125.152344" y="75.533203"/>
<use xlink:href="#glyph-3-3" x="137.152344" y="75.533203"/>
<use xlink:href="#glyph-3-4" x="142.152344" y="75.533203"/>
<use xlink:href="#glyph-3-5" x="162.152344" y="75.533203"/>
<use xlink:href="#glyph-3-6" x="174.152344" y="75.533203"/>
<use xlink:href="#glyph-3-7" x="187.152344" y="75.533203"/>
<use xlink:href="#glyph-3-5" x="200.152344" y="75.533203"/>
<use xlink:href="#glyph-3-8" x="212.152344" y="75.533203"/>
<use xlink:href="#glyph-3-8" x="218.152344" y="75.533203"/>
<use xlink:href="#glyph-3-9" x="224.152344" y="75.533203"/>
<use xlink:href="#glyph-3-3" x="235.152344" y="75.533203"/>
<use xlink:href="#glyph-3-10" x="240.152344" y="75.533203"/>
<use xlink:href="#glyph-3-11" x="253.152344" y="75.533203"/>
<use xlink:href="#glyph-3-11" x="266.152344" y="75.533203"/>
<use xlink:href="#glyph-3-12" x="279.152344" y="75.533203"/>
<use xlink:href="#glyph-3-13" x="287.152344" y="75.533203"/>
<use xlink:href="#glyph-3-12" x="297.152344" y="75.533203"/>
<use xlink:href="#glyph-3-14" x="305.152344" y="75.533203"/>
<use xlink:href="#glyph-3-5" x="313.152344" y="75.533203"/>
<use xlink:href="#glyph-3-15" x="325.152344" y="75.533203"/>
<use xlink:href="#glyph-3-15" x="338.152344" y="75.533203"/>
<use xlink:href="#glyph-3-16" x="351.152344" y="75.533203"/>
<use xlink:href="#glyph-3-17" x="363.152344" y="75.533203"/>
<use xlink:href="#glyph-3-3" x="376.152344" y="75.533203"/>
<use xlink:href="#glyph-3-13" x="381.152344" y="75.533203"/>
<use xlink:href="#glyph-3-5" x="391.152344" y="75.533203"/>
<use xlink:href="#glyph-3-4" x="403.152344" y="75.533203"/>
<use xlink:href="#glyph-3-15" x="423.152344" y="75.533203"/>
<use xlink:href="#glyph-3-8" x="436.152344" y="75.533203"/>
<use xlink:href="#glyph-3-16" x="442.152344" y="75.533203"/>
<use xlink:href="#glyph-3-13" x="454.152344" y="75.533203"/>
</g>
<g fill="rgb(0%, 0%, 0%)" fill-opacity="1">
<use xlink:href="#glyph-3-18" x="89.152344" y="101.455078"/>
<use xlink:href="#glyph-3-16" x="106.152344" y="101.455078"/>
<use xlink:href="#glyph-3-5" x="118.152344" y="101.455078"/>
<use xlink:href="#glyph-3-6" x="130.152344" y="101.455078"/>
<use xlink:href="#glyph-3-3" x="143.152344" y="101.455078"/>
<use xlink:href="#glyph-3-19" x="148.152344" y="101.455078"/>
<use xlink:href="#glyph-3-3" x="160.152344" y="101.455078"/>
<use xlink:href="#glyph-3-20" x="165.152344" y="101.455078"/>
<use xlink:href="#glyph-3-2" x="172.152344" y="101.455078"/>
<use xlink:href="#glyph-3-21" x="184.152344" y="101.455078"/>
<use xlink:href="#glyph-3-22" x="190.152344" y="101.455078"/>
<use xlink:href="#glyph-3-1" x="202.152344" y="101.455078"/>
<use xlink:href="#glyph-3-23" x="214.152344" y="101.455078"/>
</g>
<g fill="rgb(0%, 0%, 0%)" fill-opacity="1">
<use xlink:href="#glyph-3-24" x="89.152344" y="127.376953"/>
<use xlink:href="#glyph-3-25" x="102.152344" y="127.376953"/>
<use xlink:href="#glyph-3-3" x="117.152344" y="127.376953"/>
<use xlink:href="#glyph-3-19" x="122.152344" y="127.376953"/>
<use xlink:href="#glyph-3-3" x="134.152344" y="127.376953"/>
<use xlink:href="#glyph-3-2" x="139.152344" y="127.376953"/>
<use xlink:href="#glyph-3-21" x="151.152344" y="127.376953"/>
<use xlink:href="#glyph-3-1" x="157.152344" y="127.376953"/>
<use xlink:href="#glyph-3-26" x="169.152344" y="127.376953"/>
</g>
<g fill="rgb(74.901961%, 9.803922%, 19.607843%)" fill-opacity="1">
<use xlink:href="#glyph-4-1" x="89.152344" y="39.089844"/>
<use xlink:href="#glyph-4-2" x="116.152344" y="39.089844"/>
<use xlink:href="#glyph-4-3" x="129.152344" y="39.089844"/>
<use xlink:href="#glyph-4-4" x="156.152344" y="39.089844"/>
<use xlink:href="#glyph-4-5" x="184.152344" y="39.089844"/>
</g>
</svg>
