<?xml version="1.0" encoding="UTF-8"?>
<svg xmlns="http://www.w3.org/2000/svg" xmlns:xlink="http://www.w3.org/1999/xlink" width="720pt" height="432pt" viewBox="0 0 720 432">
<defs>
<g>
<g id="glyph-0-0">
<path d="M 2.609375 0 L 2.609375 -19.40625 L 16.609375 -19.40625 L 16.609375 0 Z M 5.78125 -1.71875 L 13.34375 -1.71875 L 11.203125 -5.59375 L 9.671875 -8.609375 L 9.546875 -8.609375 L 7.96875 -5.59375 Z M 9.546875 -11.390625 L 9.671875 -11.390625 L 11.109375 -14.140625 L 13.046875 -17.65625 L 6.125 -17.65625 L 8.078125 -14.140625 Z M 4.515625 -3.234375 L 8.265625 -10 L 4.515625 -16.84375 Z M 14.65625 -3.234375 L 14.65625 -16.84375 L 10.9375 -10 Z M 14.65625 -3.234375 "/>
</g>
<g id="glyph-0-1">
<path d="M 1.21875 -6.453125 L 1.21875 -8.296875 L 7.96875 -8.296875 L 7.96875 -6.453125 Z M 1.21875 -6.453125 "/>
</g>
<g id="glyph-0-2">
<path d="M 1.171875 0 L 1.171875 -1.484375 C 3.046875 -3.304688 4.640625 -4.929688 5.953125 -6.359375 C 7.265625 -7.796875 8.265625 -9.085938 8.953125 -10.234375 C 9.648438 -11.390625 10 -12.472656 10 -13.484375 C 10 -14.554688 9.707031 -15.429688 9.125 -16.109375 C 8.539062 -16.796875 7.644531 -17.140625 6.4375 -17.140625 C 5.65625 -17.140625 4.925781 -16.921875 4.25 -16.484375 C 3.582031 -16.054688 2.984375 -15.523438 2.453125 -14.890625 L 1.09375 -16.21875 C 1.875 -17.082031 2.707031 -17.78125 3.59375 -18.3125 C 4.476562 -18.84375 5.523438 -19.109375 6.734375 -19.109375 C 7.890625 -19.109375 8.890625 -18.878906 9.734375 -18.421875 C 10.578125 -17.960938 11.222656 -17.320312 11.671875 -16.5 C 12.128906 -15.675781 12.359375 -14.710938 12.359375 -13.609375 C 12.359375 -12.398438 12.019531 -11.195312 11.34375 -10 C 10.664062 -8.800781 9.734375 -7.539062 8.546875 -6.21875 C 7.367188 -4.90625 6.019531 -3.472656 4.5 -1.921875 C 5.007812 -1.960938 5.539062 -2 6.09375 -2.03125 C 6.644531 -2.0625 7.164062 -2.078125 7.65625 -2.078125 L 13.28125 -2.078125 L 13.28125 0 Z M 1.171875 0 "/>
</g>
<g id="glyph-0-3">
<path d="M 7.3125 0.359375 C 5.4375 0.359375 3.960938 -0.488281 2.890625 -2.1875 C 1.828125 -3.882812 1.296875 -6.304688 1.296875 -9.453125 C 1.296875 -12.597656 1.828125 -14.992188 2.890625 -16.640625 C 3.960938 -18.285156 5.4375 -19.109375 7.3125 -19.109375 C 9.175781 -19.109375 10.640625 -18.28125 11.703125 -16.625 C 12.773438 -14.976562 13.3125 -12.585938 13.3125 -9.453125 C 13.3125 -6.304688 12.773438 -3.882812 11.703125 -2.1875 C 10.640625 -0.488281 9.175781 0.359375 7.3125 0.359375 Z M 7.3125 -1.59375 C 8.03125 -1.59375 8.664062 -1.863281 9.21875 -2.40625 C 9.769531 -2.945312 10.195312 -3.796875 10.5 -4.953125 C 10.8125 -6.117188 10.96875 -7.617188 10.96875 -9.453125 C 10.96875 -11.285156 10.8125 -12.769531 10.5 -13.90625 C 10.195312 -15.039062 9.769531 -15.863281 9.21875 -16.375 C 8.664062 -16.894531 8.03125 -17.15625 7.3125 -17.15625 C 6.582031 -17.15625 5.941406 -16.894531 5.390625 -16.375 C 4.835938 -15.863281 4.40625 -15.039062 4.09375 -13.90625 C 3.789062 -12.769531 3.640625 -11.285156 3.640625 -9.453125 C 3.640625 -7.617188 3.789062 -6.117188 4.09375 -4.953125 C 4.40625 -3.796875 4.835938 -2.945312 5.390625 -2.40625 C 5.941406 -1.863281 6.582031 -1.59375 7.3125 -1.59375 Z M 7.3125 -1.59375 "/>
</g>
<g id="glyph-0-4">
<path d="M 8.9375 0 L 8.9375 -12.5625 C 8.9375 -13.0625 8.953125 -13.660156 8.984375 -14.359375 C 9.023438 -15.066406 9.054688 -15.664062 9.078125 -16.15625 L 8.953125 -16.15625 C 8.722656 -15.71875 8.476562 -15.285156 8.21875 -14.859375 C 7.96875 -14.429688 7.703125 -13.984375 7.421875 -13.515625 L 3.046875 -7.109375 L 13.78125 -7.109375 L 13.78125 -5.171875 L 0.515625 -5.171875 L 0.515625 -6.78125 L 8.53125 -18.75 L 11.21875 -18.75 L 11.21875 0 Z M 8.9375 0 "/>
</g>
<g id="glyph-0-5">
<path d="M 2.3125 0 L 2.3125 -2.015625 L 6.609375 -2.015625 L 6.609375 -15.828125 L 3.1875 -15.828125 L 3.1875 -17.375 C 4.050781 -17.53125 4.800781 -17.722656 5.4375 -17.953125 C 6.082031 -18.179688 6.664062 -18.445312 7.1875 -18.75 L 9.03125 -18.75 L 9.03125 -2.015625 L 12.90625 -2.015625 L 12.90625 0 Z M 2.3125 0 "/>
</g>
<g id="glyph-1-0">
<path d="M 2.984375 0 L 2.984375 -22.171875 L 18.96875 -22.171875 L 18.96875 0 Z M 6.609375 -1.96875 L 15.25 -1.96875 L 12.796875 -6.390625 L 11.046875 -9.828125 L 10.90625 -9.828125 L 9.109375 -6.390625 Z M 10.90625 -13.015625 L 11.046875 -13.015625 L 12.6875 -16.140625 L 14.90625 -20.171875 L 7 -20.171875 L 9.234375 -16.140625 Z M 5.15625 -3.703125 L 9.453125 -11.421875 L 5.15625 -19.234375 Z M 16.75 -3.703125 L 16.75 -19.234375 L 12.5 -11.421875 Z M 16.75 -3.703125 "/>
</g>
<g id="glyph-1-1">
<path d="M 0.46875 0 L 5.8125 -8.515625 L 0.859375 -16.328125 L 3.859375 -16.328125 L 6.046875 -12.75 C 6.296875 -12.300781 6.554688 -11.847656 6.828125 -11.390625 C 7.109375 -10.941406 7.378906 -10.488281 7.640625 -10.03125 L 7.78125 -10.03125 C 8.039062 -10.488281 8.289062 -10.941406 8.53125 -11.390625 C 8.769531 -11.847656 9.007812 -12.300781 9.25 -12.75 L 11.25 -16.328125 L 14.125 -16.328125 L 9.1875 -8.234375 L 14.53125 0 L 11.53125 0 L 9.125 -3.796875 C 8.851562 -4.296875 8.566406 -4.789062 8.265625 -5.28125 C 7.960938 -5.769531 7.65625 -6.253906 7.34375 -6.734375 L 7.21875 -6.734375 C 6.9375 -6.253906 6.660156 -5.769531 6.390625 -5.28125 C 6.117188 -4.800781 5.84375 -4.304688 5.5625 -3.796875 L 3.34375 0 Z M 0.46875 0 "/>
</g>
<g id="glyph-2-0">
<path d="M 0 -2.984375 L -22.171875 -2.984375 L -22.171875 -18.96875 L 0 -18.96875 Z M -1.96875 -6.609375 L -1.96875 -15.25 L -6.390625 -12.796875 L -9.828125 -11.046875 L -9.828125 -10.90625 L -6.390625 -9.109375 Z M -13.015625 -10.90625 L -13.015625 -11.046875 L -16.140625 -12.6875 L -20.171875 -14.90625 L -20.171875 -7 L -16.140625 -9.234375 Z M -3.703125 -5.15625 L -11.421875 -9.453125 L -19.234375 -5.15625 Z M -3.703125 -16.75 L -19.234375 -16.75 L -11.421875 -12.5 Z M -3.703125 -16.75 "/>
</g>
<g id="glyph-2-1">
<path d="M 7.03125 -3.03125 C 7.03125 -2.65625 6.992188 -2.304688 6.921875 -1.984375 C 6.859375 -1.671875 6.773438 -1.378906 6.671875 -1.109375 L 4.53125 -1.703125 C 4.59375 -1.910156 4.644531 -2.113281 4.6875 -2.3125 C 4.726562 -2.519531 4.75 -2.71875 4.75 -2.90625 C 4.75 -3.832031 4.410156 -4.59375 3.734375 -5.1875 C 3.066406 -5.789062 2.234375 -6.253906 1.234375 -6.578125 L 0.03125 -6.953125 L -16.328125 -0.40625 L -16.328125 -3.25 L -7.296875 -6.578125 C -6.585938 -6.835938 -5.832031 -7.101562 -5.03125 -7.375 C -4.238281 -7.644531 -3.457031 -7.910156 -2.6875 -8.171875 L -2.6875 -8.3125 C -3.4375 -8.539062 -4.207031 -8.769531 -5 -9 C -5.800781 -9.238281 -6.566406 -9.46875 -7.296875 -9.6875 L -16.328125 -12.59375 L -16.328125 -15.296875 L 1.34375 -9.140625 C 2.414062 -8.753906 3.382812 -8.296875 4.25 -7.765625 C 5.113281 -7.234375 5.789062 -6.582031 6.28125 -5.8125 C 6.78125 -5.050781 7.03125 -4.125 7.03125 -3.03125 Z M 7.03125 -3.03125 "/>
</g>
</g>
<clipPath id="clip-0">
<path clip-rule="nonzero" d="M 68.152344 5.480469 L 714.523438 5.480469 L 714.523438 360.851562 L 68.152344 360.851562 Z M 68.152344 5.480469 "/>
</clipPath>
<clipPath id="clip-1">
<path clip-rule="nonzero" d="M 68.152344 331 L 714.523438 331 L 714.523438 333 L 68.152344 333 Z M 68.152344 331 "/>
</clipPath>
<clipPath id="clip-2">
<path clip-rule="nonzero" d="M 68.152344 251 L 714.523438 251 L 714.523438 253 L 68.152344 253 Z M 68.152344 251 "/>
</clipPath>
<clipPath id="clip-3">
<path clip-rule="nonzero" d="M 68.152344 172 L 714.523438 172 L 714.523438 174 L 68.152344 174 Z M 68.152344 172 "/>
</clipPath>
<clipPath id="clip-4">
<path clip-rule="nonzero" d="M 68.152344 92 L 714.523438 92 L 714.523438 94 L 68.152344 94 Z M 68.152344 92 "/>
</clipPath>
<clipPath id="clip-5">
<path clip-rule="nonzero" d="M 68.152344 13 L 714.523438 13 L 714.523438 15 L 68.152344 15 Z M 68.152344 13 "/>
</clipPath>
<clipPath id="clip-6">
<path clip-rule="nonzero" d="M 170 5.480469 L 172 5.480469 L 172 360.851562 L 170 360.851562 Z M 170 5.480469 "/>
</clipPath>
<clipPath id="clip-7">
<path clip-rule="nonzero" d="M 317 5.480469 L 319 5.480469 L 319 360.851562 L 317 360.851562 Z M 317 5.480469 "/>
</clipPath>
<clipPath id="clip-8">
<path clip-rule="nonzero" d="M 464 5.480469 L 466 5.480469 L 466 360.851562 L 464 360.851562 Z M 464 5.480469 "/>
</clipPath>
<clipPath id="clip-9">
<path clip-rule="nonzero" d="M 611 5.480469 L 613 5.480469 L 613 360.851562 L 611 360.851562 Z M 611 5.480469 "/>
</clipPath>
<clipPath id="clip-10">
<path clip-rule="nonzero" d="M 68.152344 291 L 714.523438 291 L 714.523438 293 L 68.152344 293 Z M 68.152344 291 "/>
</clipPath>
<clipPath id="clip-11">
<path clip-rule="nonzero" d="M 68.152344 211 L 714.523438 211 L 714.523438 213 L 68.152344 213 Z M 68.152344 211 "/>
</clipPath>
<clipPath id="clip-12">
<path clip-rule="nonzero" d="M 68.152344 132 L 714.523438 132 L 714.523438 134 L 68.152344 134 Z M 68.152344 132 "/>
</clipPath>
<clipPath id="clip-13">
<path clip-rule="nonzero" d="M 68.152344 52 L 714.523438 52 L 714.523438 54 L 68.152344 54 Z M 68.152344 52 "/>
</clipPath>
<clipPath id="clip-14">
<path clip-rule="nonzero" d="M 96 5.480469 L 99 5.480469 L 99 360.851562 L 96 360.851562 Z M 96 5.480469 "/>
</clipPath>
<clipPath id="clip-15">
<path clip-rule="nonzero" d="M 243 5.480469 L 245 5.480469 L 245 360.851562 L 243 360.851562 Z M 243 5.480469 "/>
</clipPath>
<clipPath id="clip-16">
<path clip-rule="nonzero" d="M 390 5.480469 L 392 5.480469 L 392 360.851562 L 390 360.851562 Z M 390 5.480469 "/>
</clipPath>
<clipPath id="clip-17">
<path clip-rule="nonzero" d="M 537 5.480469 L 539 5.480469 L 539 360.851562 L 537 360.851562 Z M 537 5.480469 "/>
</clipPath>
<clipPath id="clip-18">
<path clip-rule="nonzero" d="M 684 5.480469 L 686 5.480469 L 686 360.851562 L 684 360.851562 Z M 684 5.480469 "/>
</clipPath>
</defs>
<rect x="-72" y="-43.2" width="864" height="518.4" fill="rgb(100%, 100%, 100%)" fill-opacity="1"/>
<path fill="none" stroke-width="1.066978" stroke-linecap="round" stroke-linejoin="round" stroke="rgb(100%, 100%, 100%)" stroke-opacity="1" stroke-miterlimit="10" d="M 0 432 L 720 432 L 720 0 L 0 0 Z M 0 432 "/>
<g clip-path="url(#clip-0)">
<path fill-rule="nonzero" fill="rgb(100%, 100%, 100%)" fill-opacity="1" stroke-width="1.066978" stroke-linecap="round" stroke-linejoin="round" stroke="rgb(100%, 100%, 100%)" stroke-opacity="1" stroke-miterlimit="10" d="M 68.152344 360.847656 L 714.523438 360.847656 L 714.523438 5.476562 L 68.152344 5.476562 Z M 68.152344 360.847656 "/>
</g>
<g clip-path="url(#clip-1)">
<path fill="none" stroke-width="1.066978" stroke-linecap="butt" stroke-linejoin="round" stroke="rgb(90.196078%, 90.196078%, 90.196078%)" stroke-opacity="1" stroke-miterlimit="10" d="M 68.152344 331.730469 L 714.519531 331.730469 "/>
</g>
<g clip-path="url(#clip-2)">
<path fill="none" stroke-width="1.066978" stroke-linecap="butt" stroke-linejoin="round" stroke="rgb(90.196078%, 90.196078%, 90.196078%)" stroke-opacity="1" stroke-miterlimit="10" d="M 68.152344 252.183594 L 714.519531 252.183594 "/>
</g>
<g clip-path="url(#clip-3)">
<path fill="none" stroke-width="1.066978" stroke-linecap="butt" stroke-linejoin="round" stroke="rgb(90.196078%, 90.196078%, 90.196078%)" stroke-opacity="1" stroke-miterlimit="10" d="M 68.152344 172.640625 L 714.519531 172.640625 "/>
</g>
<g clip-path="url(#clip-4)">
<path fill="none" stroke-width="1.066978" stroke-linecap="butt" stroke-linejoin="round" stroke="rgb(90.196078%, 90.196078%, 90.196078%)" stroke-opacity="1" stroke-miterlimit="10" d="M 68.152344 93.097656 L 714.519531 93.097656 "/>
</g>
<g clip-path="url(#clip-5)">
<path fill="none" stroke-width="1.066978" stroke-linecap="butt" stroke-linejoin="round" stroke="rgb(90.196078%, 90.196078%, 90.196078%)" stroke-opacity="1" stroke-miterlimit="10" d="M 68.152344 13.550781 L 714.519531 13.550781 "/>
</g>
<g clip-path="url(#clip-6)">
<path fill="none" stroke-width="1.066978" stroke-linecap="butt" stroke-linejoin="round" stroke="rgb(90.196078%, 90.196078%, 90.196078%)" stroke-opacity="1" stroke-miterlimit="10" d="M 170.980469 360.847656 L 170.980469 5.480469 "/>
</g>
<g clip-path="url(#clip-7)">
<path fill="none" stroke-width="1.066978" stroke-linecap="butt" stroke-linejoin="round" stroke="rgb(90.196078%, 90.196078%, 90.196078%)" stroke-opacity="1" stroke-miterlimit="10" d="M 317.882812 360.847656 L 317.882812 5.480469 "/>
</g>
<g clip-path="url(#clip-8)">
<path fill="none" stroke-width="1.066978" stroke-linecap="butt" stroke-linejoin="round" stroke="rgb(90.196078%, 90.196078%, 90.196078%)" stroke-opacity="1" stroke-miterlimit="10" d="M 464.785156 360.847656 L 464.785156 5.480469 "/>
</g>
<g clip-path="url(#clip-9)">
<path fill="none" stroke-width="1.066978" stroke-linecap="butt" stroke-linejoin="round" stroke="rgb(90.196078%, 90.196078%, 90.196078%)" stroke-opacity="1" stroke-miterlimit="10" d="M 611.6875 360.847656 L 611.6875 5.480469 "/>
</g>
<g clip-path="url(#clip-10)">
<path fill="none" stroke-width="1.066978" stroke-linecap="butt" stroke-linejoin="round" stroke="rgb(80%, 80%, 80%)" stroke-opacity="1" stroke-miterlimit="10" d="M 68.152344 291.957031 L 714.519531 291.957031 "/>
</g>
<g clip-path="url(#clip-11)">
<path fill="none" stroke-width="1.066978" stroke-linecap="butt" stroke-linejoin="round" stroke="rgb(80%, 80%, 80%)" stroke-opacity="1" stroke-miterlimit="10" d="M 68.152344 212.414062 L 714.519531 212.414062 "/>
</g>
<g clip-path="url(#clip-12)">
<path fill="none" stroke-width="1.066978" stroke-linecap="butt" stroke-linejoin="round" stroke="rgb(80%, 80%, 80%)" stroke-opacity="1" stroke-miterlimit="10" d="M 68.152344 132.867188 L 714.519531 132.867188 "/>
</g>
<g clip-path="url(#clip-13)">
<path fill="none" stroke-width="1.066978" stroke-linecap="butt" stroke-linejoin="round" stroke="rgb(80%, 80%, 80%)" stroke-opacity="1" stroke-miterlimit="10" d="M 68.152344 53.324219 L 714.519531 53.324219 "/>
</g>
<g clip-path="url(#clip-14)">
<path fill="none" stroke-width="1.066978" stroke-linecap="butt" stroke-linejoin="round" stroke="rgb(80%, 80%, 80%)" stroke-opacity="1" stroke-miterlimit="10" d="M 97.53125 360.847656 L 97.53125 5.480469 "/>
</g>
<g clip-path="url(#clip-15)">
<path fill="none" stroke-width="1.066978" stroke-linecap="butt" stroke-linejoin="round" stroke="rgb(80%, 80%, 80%)" stroke-opacity="1" stroke-miterlimit="10" d="M 244.433594 360.847656 L 244.433594 5.480469 "/>
</g>
<g clip-path="url(#clip-16)">
<path fill="none" stroke-width="1.066978" stroke-linecap="butt" stroke-linejoin="round" stroke="rgb(80%, 80%, 80%)" stroke-opacity="1" stroke-miterlimit="10" d="M 391.335938 360.847656 L 391.335938 5.480469 "/>
</g>
<g clip-path="url(#clip-17)">
<path fill="none" stroke-width="1.066978" stroke-linecap="butt" stroke-linejoin="round" stroke="rgb(80%, 80%, 80%)" stroke-opacity="1" stroke-miterlimit="10" d="M 538.238281 360.847656 L 538.238281 5.480469 "/>
</g>
<g clip-path="url(#clip-18)">
<path fill="none" stroke-width="1.066978" stroke-linecap="butt" stroke-linejoin="round" stroke="rgb(80%, 80%, 80%)" stroke-opacity="1" stroke-miterlimit="10" d="M 685.140625 360.847656 L 685.140625 5.480469 "/>
</g>
<path fill-rule="nonzero" fill="rgb(0%, 0%, 0%)" fill-opacity="1" stroke-width="0.708661" stroke-linecap="round" stroke-linejoin="round" stroke="rgb(0%, 0%, 0%)" stroke-opacity="1" stroke-miterlimit="10" d="M 103.21875 21.632812 C 103.21875 24.773438 100.671875 27.320312 97.53125 27.320312 C 94.390625 27.320312 91.84375 24.773438 91.84375 21.632812 C 91.84375 18.492188 94.390625 15.945312 97.53125 15.945312 C 100.671875 15.945312 103.21875 18.492188 103.21875 21.632812 "/>
<path fill-rule="nonzero" fill="rgb(0%, 0%, 0%)" fill-opacity="1" stroke-width="0.708661" stroke-linecap="round" stroke-linejoin="round" stroke="rgb(0%, 0%, 0%)" stroke-opacity="1" stroke-miterlimit="10" d="M 109.097656 59.605469 C 109.097656 62.75 106.550781 65.296875 103.40625 65.296875 C 100.265625 65.296875 97.71875 62.75 97.71875 59.605469 C 97.71875 56.464844 100.265625 53.917969 103.40625 53.917969 C 106.550781 53.917969 109.097656 56.464844 109.097656 59.605469 "/>
<path fill-rule="nonzero" fill="rgb(0%, 0%, 0%)" fill-opacity="1" stroke-width="0.708661" stroke-linecap="round" stroke-linejoin="round" stroke="rgb(0%, 0%, 0%)" stroke-opacity="1" stroke-miterlimit="10" d="M 114.972656 69.097656 C 114.972656 72.242188 112.425781 74.789062 109.285156 74.789062 C 106.140625 74.789062 103.59375 72.242188 103.59375 69.097656 C 103.59375 65.957031 106.140625 63.410156 109.285156 63.410156 C 112.425781 63.410156 114.972656 65.957031 114.972656 69.097656 "/>
<path fill-rule="nonzero" fill="rgb(0%, 0%, 0%)" fill-opacity="1" stroke-width="0.708661" stroke-linecap="round" stroke-linejoin="round" stroke="rgb(0%, 0%, 0%)" stroke-opacity="1" stroke-miterlimit="10" d="M 120.847656 22.050781 C 120.847656 25.191406 118.300781 27.738281 115.160156 27.738281 C 112.015625 27.738281 109.46875 25.191406 109.46875 22.050781 C 109.46875 18.910156 112.015625 16.359375 115.160156 16.359375 C 118.300781 16.359375 120.847656 18.910156 120.847656 22.050781 "/>
<path fill-rule="nonzero" fill="rgb(0%, 0%, 0%)" fill-opacity="1" stroke-width="0.708661" stroke-linecap="round" stroke-linejoin="round" stroke="rgb(0%, 0%, 0%)" stroke-opacity="1" stroke-miterlimit="10" d="M 126.726562 79.292969 C 126.726562 82.433594 124.175781 84.980469 121.035156 84.980469 C 117.894531 84.980469 115.347656 82.433594 115.347656 79.292969 C 115.347656 76.148438 117.894531 73.601562 121.035156 73.601562 C 124.175781 73.601562 126.726562 76.148438 126.726562 79.292969 "/>
<path fill-rule="nonzero" fill="rgb(0%, 0%, 0%)" fill-opacity="1" stroke-width="0.708661" stroke-linecap="round" stroke-linejoin="round" stroke="rgb(0%, 0%, 0%)" stroke-opacity="1" stroke-miterlimit="10" d="M 132.601562 85.386719 C 132.601562 88.527344 130.054688 91.078125 126.910156 91.078125 C 123.769531 91.078125 121.222656 88.527344 121.222656 85.386719 C 121.222656 82.246094 123.769531 79.699219 126.910156 79.699219 C 130.054688 79.699219 132.601562 82.246094 132.601562 85.386719 "/>
<path fill-rule="nonzero" fill="rgb(0%, 0%, 0%)" fill-opacity="1" stroke-width="0.708661" stroke-linecap="round" stroke-linejoin="round" stroke="rgb(0%, 0%, 0%)" stroke-opacity="1" stroke-miterlimit="10" d="M 138.476562 33.757812 C 138.476562 36.898438 135.929688 39.445312 132.789062 39.445312 C 129.644531 39.445312 127.097656 36.898438 127.097656 33.757812 C 127.097656 30.617188 129.644531 28.070312 132.789062 28.070312 C 135.929688 28.070312 138.476562 30.617188 138.476562 33.757812 "/>
<path fill-rule="nonzero" fill="rgb(0%, 0%, 0%)" fill-opacity="1" stroke-width="0.708661" stroke-linecap="round" stroke-linejoin="round" stroke="rgb(0%, 0%, 0%)" stroke-opacity="1" stroke-miterlimit="10" d="M 144.351562 92.59375 C 144.351562 95.738281 141.804688 98.285156 138.664062 98.285156 C 135.523438 98.285156 132.972656 95.738281 132.972656 92.59375 C 132.972656 89.453125 135.523438 86.90625 138.664062 86.90625 C 141.804688 86.90625 144.351562 89.453125 144.351562 92.59375 "/>
<path fill-rule="nonzero" fill="rgb(0%, 0%, 0%)" fill-opacity="1" stroke-width="0.708661" stroke-linecap="round" stroke-linejoin="round" stroke="rgb(0%, 0%, 0%)" stroke-opacity="1" stroke-miterlimit="10" d="M 150.230469 87.726562 C 150.230469 90.871094 147.683594 93.417969 144.539062 93.417969 C 141.398438 93.417969 138.851562 90.871094 138.851562 87.726562 C 138.851562 84.585938 141.398438 82.039062 144.539062 82.039062 C 147.683594 82.039062 150.230469 84.585938 150.230469 87.726562 "/>
<path fill-rule="nonzero" fill="rgb(0%, 0%, 0%)" fill-opacity="1" stroke-width="0.708661" stroke-linecap="round" stroke-linejoin="round" stroke="rgb(0%, 0%, 0%)" stroke-opacity="1" stroke-miterlimit="10" d="M 156.105469 26.769531 C 156.105469 29.914062 153.558594 32.460938 150.414062 32.460938 C 147.273438 32.460938 144.726562 29.914062 144.726562 26.769531 C 144.726562 23.628906 147.273438 21.082031 150.414062 21.082031 C 153.558594 21.082031 156.105469 23.628906 156.105469 26.769531 "/>
<path fill-rule="nonzero" fill="rgb(0%, 0%, 0%)" fill-opacity="1" stroke-width="0.708661" stroke-linecap="round" stroke-linejoin="round" stroke="rgb(0%, 0%, 0%)" stroke-opacity="1" stroke-miterlimit="10" d="M 161.980469 24.757812 C 161.980469 27.898438 159.433594 30.445312 156.292969 30.445312 C 153.148438 30.445312 150.601562 27.898438 150.601562 24.757812 C 150.601562 21.617188 153.148438 19.070312 156.292969 19.070312 C 159.433594 19.070312 161.980469 21.617188 161.980469 24.757812 "/>
<path fill-rule="nonzero" fill="rgb(0%, 0%, 0%)" fill-opacity="1" stroke-width="0.708661" stroke-linecap="round" stroke-linejoin="round" stroke="rgb(0%, 0%, 0%)" stroke-opacity="1" stroke-miterlimit="10" d="M 167.855469 104.644531 C 167.855469 107.789062 165.308594 110.335938 162.167969 110.335938 C 159.027344 110.335938 156.480469 107.789062 156.480469 104.644531 C 156.480469 101.503906 159.027344 98.957031 162.167969 98.957031 C 165.308594 98.957031 167.855469 101.503906 167.855469 104.644531 "/>
<path fill-rule="nonzero" fill="rgb(0%, 0%, 0%)" fill-opacity="1" stroke-width="0.708661" stroke-linecap="round" stroke-linejoin="round" stroke="rgb(0%, 0%, 0%)" stroke-opacity="1" stroke-miterlimit="10" d="M 173.734375 61.890625 C 173.734375 65.035156 171.1875 67.582031 168.042969 67.582031 C 164.902344 67.582031 162.355469 65.035156 162.355469 61.890625 C 162.355469 58.75 164.902344 56.203125 168.042969 56.203125 C 171.1875 56.203125 173.734375 58.75 173.734375 61.890625 "/>
<path fill-rule="nonzero" fill="rgb(0%, 0%, 0%)" fill-opacity="1" stroke-width="0.708661" stroke-linecap="round" stroke-linejoin="round" stroke="rgb(0%, 0%, 0%)" stroke-opacity="1" stroke-miterlimit="10" d="M 179.609375 66.714844 C 179.609375 69.859375 177.0625 72.40625 173.921875 72.40625 C 170.777344 72.40625 168.230469 69.859375 168.230469 66.714844 C 168.230469 63.574219 170.777344 61.027344 173.921875 61.027344 C 177.0625 61.027344 179.609375 63.574219 179.609375 66.714844 "/>
<path fill-rule="nonzero" fill="rgb(0%, 0%, 0%)" fill-opacity="1" stroke-width="0.708661" stroke-linecap="round" stroke-linejoin="round" stroke="rgb(0%, 0%, 0%)" stroke-opacity="1" stroke-miterlimit="10" d="M 185.484375 112.96875 C 185.484375 116.109375 182.9375 118.65625 179.796875 118.65625 C 176.65625 118.65625 174.105469 116.109375 174.105469 112.96875 C 174.105469 109.828125 176.65625 107.277344 179.796875 107.277344 C 182.9375 107.277344 185.484375 109.828125 185.484375 112.96875 "/>
<path fill-rule="nonzero" fill="rgb(0%, 0%, 0%)" fill-opacity="1" stroke-width="0.708661" stroke-linecap="round" stroke-linejoin="round" stroke="rgb(0%, 0%, 0%)" stroke-opacity="1" stroke-miterlimit="10" d="M 191.363281 113.484375 C 191.363281 116.628906 188.816406 119.175781 185.671875 119.175781 C 182.53125 119.175781 179.984375 116.628906 179.984375 113.484375 C 179.984375 110.34375 182.53125 107.796875 185.671875 107.796875 C 188.816406 107.796875 191.363281 110.34375 191.363281 113.484375 "/>
<path fill-rule="nonzero" fill="rgb(0%, 0%, 0%)" fill-opacity="1" stroke-width="0.708661" stroke-linecap="round" stroke-linejoin="round" stroke="rgb(0%, 0%, 0%)" stroke-opacity="1" stroke-miterlimit="10" d="M 197.238281 118.75 C 197.238281 121.890625 194.691406 124.4375 191.546875 124.4375 C 188.40625 124.4375 185.859375 121.890625 185.859375 118.75 C 185.859375 115.609375 188.40625 113.0625 191.546875 113.0625 C 194.691406 113.0625 197.238281 115.609375 197.238281 118.75 "/>
<path fill-rule="nonzero" fill="rgb(0%, 0%, 0%)" fill-opacity="1" stroke-width="0.708661" stroke-linecap="round" stroke-linejoin="round" stroke="rgb(0%, 0%, 0%)" stroke-opacity="1" stroke-miterlimit="10" d="M 203.113281 84.882812 C 203.113281 88.027344 200.566406 90.574219 197.425781 90.574219 C 194.28125 90.574219 191.734375 88.027344 191.734375 84.882812 C 191.734375 81.742188 194.28125 79.195312 197.425781 79.195312 C 200.566406 79.195312 203.113281 81.742188 203.113281 84.882812 "/>
<path fill-rule="nonzero" fill="rgb(0%, 0%, 0%)" fill-opacity="1" stroke-width="0.708661" stroke-linecap="round" stroke-linejoin="round" stroke="rgb(0%, 0%, 0%)" stroke-opacity="1" stroke-miterlimit="10" d="M 208.988281 70.125 C 208.988281 73.265625 206.441406 75.8125 203.300781 75.8125 C 200.160156 75.8125 197.613281 73.265625 197.613281 70.125 C 197.613281 66.984375 200.160156 64.4375 203.300781 64.4375 C 206.441406 64.4375 208.988281 66.984375 208.988281 70.125 "/>
<path fill-rule="nonzero" fill="rgb(0%, 0%, 0%)" fill-opacity="1" stroke-width="0.708661" stroke-linecap="round" stroke-linejoin="round" stroke="rgb(0%, 0%, 0%)" stroke-opacity="1" stroke-miterlimit="10" d="M 214.867188 59.46875 C 214.867188 62.613281 212.320312 65.160156 209.175781 65.160156 C 206.035156 65.160156 203.488281 62.613281 203.488281 59.46875 C 203.488281 56.328125 206.035156 53.78125 209.175781 53.78125 C 212.320312 53.78125 214.867188 56.328125 214.867188 59.46875 "/>
<path fill-rule="nonzero" fill="rgb(0%, 0%, 0%)" fill-opacity="1" stroke-width="0.708661" stroke-linecap="round" stroke-linejoin="round" stroke="rgb(0%, 0%, 0%)" stroke-opacity="1" stroke-miterlimit="10" d="M 220.742188 29.574219 C 220.742188 32.714844 218.195312 35.261719 215.054688 35.261719 C 211.910156 35.261719 209.363281 32.714844 209.363281 29.574219 C 209.363281 26.429688 211.910156 23.882812 215.054688 23.882812 C 218.195312 23.882812 220.742188 26.429688 220.742188 29.574219 "/>
<path fill-rule="nonzero" fill="rgb(0%, 0%, 0%)" fill-opacity="1" stroke-width="0.708661" stroke-linecap="round" stroke-linejoin="round" stroke="rgb(0%, 0%, 0%)" stroke-opacity="1" stroke-miterlimit="10" d="M 226.617188 37.515625 C 226.617188 40.65625 224.070312 43.203125 220.929688 43.203125 C 217.785156 43.203125 215.238281 40.65625 215.238281 37.515625 C 215.238281 34.371094 217.785156 31.824219 220.929688 31.824219 C 224.070312 31.824219 226.617188 34.371094 226.617188 37.515625 "/>
<path fill-rule="nonzero" fill="rgb(0%, 0%, 0%)" fill-opacity="1" stroke-width="0.708661" stroke-linecap="round" stroke-linejoin="round" stroke="rgb(0%, 0%, 0%)" stroke-opacity="1" stroke-miterlimit="10" d="M 232.496094 127.929688 C 232.496094 131.070312 229.945312 133.617188 226.804688 133.617188 C 223.664062 133.617188 221.117188 131.070312 221.117188 127.929688 C 221.117188 124.785156 223.664062 122.238281 226.804688 122.238281 C 229.945312 122.238281 232.496094 124.785156 232.496094 127.929688 "/>
<path fill-rule="nonzero" fill="rgb(0%, 0%, 0%)" fill-opacity="1" stroke-width="0.708661" stroke-linecap="round" stroke-linejoin="round" stroke="rgb(0%, 0%, 0%)" stroke-opacity="1" stroke-miterlimit="10" d="M 238.371094 141.292969 C 238.371094 144.433594 235.824219 146.980469 232.679688 146.980469 C 229.539062 146.980469 226.992188 144.433594 226.992188 141.292969 C 226.992188 138.148438 229.539062 135.601562 232.679688 135.601562 C 235.824219 135.601562 238.371094 138.148438 238.371094 141.292969 "/>
<path fill-rule="nonzero" fill="rgb(0%, 0%, 0%)" fill-opacity="1" stroke-width="0.708661" stroke-linecap="round" stroke-linejoin="round" stroke="rgb(0%, 0%, 0%)" stroke-opacity="1" stroke-miterlimit="10" d="M 244.246094 72.859375 C 244.246094 76 241.699219 78.550781 238.558594 78.550781 C 235.414062 78.550781 232.867188 76 232.867188 72.859375 C 232.867188 69.71875 235.414062 67.171875 238.558594 67.171875 C 241.699219 67.171875 244.246094 69.71875 244.246094 72.859375 "/>
<path fill-rule="nonzero" fill="rgb(0%, 0%, 0%)" fill-opacity="1" stroke-width="0.708661" stroke-linecap="round" stroke-linejoin="round" stroke="rgb(0%, 0%, 0%)" stroke-opacity="1" stroke-miterlimit="10" d="M 250.121094 134.558594 C 250.121094 137.703125 247.574219 140.25 244.433594 140.25 C 241.292969 140.25 238.746094 137.703125 238.746094 134.558594 C 238.746094 131.417969 241.292969 128.871094 244.433594 128.871094 C 247.574219 128.871094 250.121094 131.417969 250.121094 134.558594 "/>
<path fill-rule="nonzero" fill="rgb(0%, 0%, 0%)" fill-opacity="1" stroke-width="0.708661" stroke-linecap="round" stroke-linejoin="round" stroke="rgb(0%, 0%, 0%)" stroke-opacity="1" stroke-miterlimit="10" d="M 256 83.0625 C 256 86.203125 253.453125 88.75 250.308594 88.75 C 247.167969 88.75 244.621094 86.203125 244.621094 83.0625 C 244.621094 79.921875 247.167969 77.375 250.308594 77.375 C 253.453125 77.375 256 79.921875 256 83.0625 "/>
<path fill-rule="nonzero" fill="rgb(0%, 0%, 0%)" fill-opacity="1" stroke-width="0.708661" stroke-linecap="round" stroke-linejoin="round" stroke="rgb(0%, 0%, 0%)" stroke-opacity="1" stroke-miterlimit="10" d="M 261.875 45.925781 C 261.875 49.070312 259.328125 51.617188 256.1875 51.617188 C 253.042969 51.617188 250.496094 49.070312 250.496094 45.925781 C 250.496094 42.785156 253.042969 40.238281 256.1875 40.238281 C 259.328125 40.238281 261.875 42.785156 261.875 45.925781 "/>
<path fill-rule="nonzero" fill="rgb(0%, 0%, 0%)" fill-opacity="1" stroke-width="0.708661" stroke-linecap="round" stroke-linejoin="round" stroke="rgb(0%, 0%, 0%)" stroke-opacity="1" stroke-miterlimit="10" d="M 267.75 85.339844 C 267.75 88.480469 265.203125 91.03125 262.0625 91.03125 C 258.917969 91.03125 256.371094 88.480469 256.371094 85.339844 C 256.371094 82.199219 258.917969 79.652344 262.0625 79.652344 C 265.203125 79.652344 267.75 82.199219 267.75 85.339844 "/>
<path fill-rule="nonzero" fill="rgb(0%, 0%, 0%)" fill-opacity="1" stroke-width="0.708661" stroke-linecap="round" stroke-linejoin="round" stroke="rgb(0%, 0%, 0%)" stroke-opacity="1" stroke-miterlimit="10" d="M 273.628906 159.347656 C 273.628906 162.492188 271.078125 165.039062 267.9375 165.039062 C 264.796875 165.039062 262.25 162.492188 262.25 159.347656 C 262.25 156.207031 264.796875 153.660156 267.9375 153.660156 C 271.078125 153.660156 273.628906 156.207031 273.628906 159.347656 "/>
<path fill-rule="nonzero" fill="rgb(0%, 0%, 0%)" fill-opacity="1" stroke-width="0.708661" stroke-linecap="round" stroke-linejoin="round" stroke="rgb(0%, 0%, 0%)" stroke-opacity="1" stroke-miterlimit="10" d="M 279.503906 72.066406 C 279.503906 75.207031 276.957031 77.757812 273.8125 77.757812 C 270.671875 77.757812 268.125 75.207031 268.125 72.066406 C 268.125 68.925781 270.671875 66.378906 273.8125 66.378906 C 276.957031 66.378906 279.503906 68.925781 279.503906 72.066406 "/>
<path fill-rule="nonzero" fill="rgb(0%, 0%, 0%)" fill-opacity="1" stroke-width="0.708661" stroke-linecap="round" stroke-linejoin="round" stroke="rgb(0%, 0%, 0%)" stroke-opacity="1" stroke-miterlimit="10" d="M 285.378906 61.738281 C 285.378906 64.878906 282.832031 67.425781 279.691406 67.425781 C 276.546875 67.425781 274 64.878906 274 61.738281 C 274 58.59375 276.546875 56.046875 279.691406 56.046875 C 282.832031 56.046875 285.378906 58.59375 285.378906 61.738281 "/>
<path fill-rule="nonzero" fill="rgb(0%, 0%, 0%)" fill-opacity="1" stroke-width="0.708661" stroke-linecap="round" stroke-linejoin="round" stroke="rgb(0%, 0%, 0%)" stroke-opacity="1" stroke-miterlimit="10" d="M 291.253906 165.796875 C 291.253906 168.9375 288.707031 171.484375 285.566406 171.484375 C 282.425781 171.484375 279.875 168.9375 279.875 165.796875 C 279.875 162.65625 282.425781 160.109375 285.566406 160.109375 C 288.707031 160.109375 291.253906 162.65625 291.253906 165.796875 "/>
<path fill-rule="nonzero" fill="rgb(0%, 0%, 0%)" fill-opacity="1" stroke-width="0.708661" stroke-linecap="round" stroke-linejoin="round" stroke="rgb(0%, 0%, 0%)" stroke-opacity="1" stroke-miterlimit="10" d="M 297.132812 165.359375 C 297.132812 168.503906 294.585938 171.050781 291.441406 171.050781 C 288.300781 171.050781 285.753906 168.503906 285.753906 165.359375 C 285.753906 162.21875 288.300781 159.671875 291.441406 159.671875 C 294.585938 159.671875 297.132812 162.21875 297.132812 165.359375 "/>
<path fill-rule="nonzero" fill="rgb(0%, 0%, 0%)" fill-opacity="1" stroke-width="0.708661" stroke-linecap="round" stroke-linejoin="round" stroke="rgb(0%, 0%, 0%)" stroke-opacity="1" stroke-miterlimit="10" d="M 303.007812 39.472656 C 303.007812 42.617188 300.460938 45.164062 297.316406 45.164062 C 294.175781 45.164062 291.628906 42.617188 291.628906 39.472656 C 291.628906 36.332031 294.175781 33.785156 297.316406 33.785156 C 300.460938 33.785156 303.007812 36.332031 303.007812 39.472656 "/>
<path fill-rule="nonzero" fill="rgb(0%, 0%, 0%)" fill-opacity="1" stroke-width="0.708661" stroke-linecap="round" stroke-linejoin="round" stroke="rgb(0%, 0%, 0%)" stroke-opacity="1" stroke-miterlimit="10" d="M 308.882812 39.691406 C 308.882812 42.832031 306.335938 45.378906 303.195312 45.378906 C 300.050781 45.378906 297.503906 42.832031 297.503906 39.691406 C 297.503906 36.546875 300.050781 34 303.195312 34 C 306.335938 34 308.882812 36.546875 308.882812 39.691406 "/>
<path fill-rule="nonzero" fill="rgb(0%, 0%, 0%)" fill-opacity="1" stroke-width="0.708661" stroke-linecap="round" stroke-linejoin="round" stroke="rgb(0%, 0%, 0%)" stroke-opacity="1" stroke-miterlimit="10" d="M 314.757812 88.214844 C 314.757812 91.355469 312.210938 93.90625 309.070312 93.90625 C 305.929688 93.90625 303.382812 91.355469 303.382812 88.214844 C 303.382812 85.074219 305.929688 82.527344 309.070312 82.527344 C 312.210938 82.527344 314.757812 85.074219 314.757812 88.214844 "/>
<path fill-rule="nonzero" fill="rgb(0%, 0%, 0%)" fill-opacity="1" stroke-width="0.708661" stroke-linecap="round" stroke-linejoin="round" stroke="rgb(0%, 0%, 0%)" stroke-opacity="1" stroke-miterlimit="10" d="M 320.636719 168.480469 C 320.636719 171.621094 318.089844 174.167969 314.945312 174.167969 C 311.804688 174.167969 309.257812 171.621094 309.257812 168.480469 C 309.257812 165.339844 311.804688 162.792969 314.945312 162.792969 C 318.089844 162.792969 320.636719 165.339844 320.636719 168.480469 "/>
<path fill-rule="nonzero" fill="rgb(0%, 0%, 0%)" fill-opacity="1" stroke-width="0.708661" stroke-linecap="round" stroke-linejoin="round" stroke="rgb(0%, 0%, 0%)" stroke-opacity="1" stroke-miterlimit="10" d="M 326.511719 166.34375 C 326.511719 169.484375 323.964844 172.03125 320.824219 172.03125 C 317.679688 172.03125 315.132812 169.484375 315.132812 166.34375 C 315.132812 163.199219 317.679688 160.652344 320.824219 160.652344 C 323.964844 160.652344 326.511719 163.199219 326.511719 166.34375 "/>
<path fill-rule="nonzero" fill="rgb(0%, 0%, 0%)" fill-opacity="1" stroke-width="0.708661" stroke-linecap="round" stroke-linejoin="round" stroke="rgb(0%, 0%, 0%)" stroke-opacity="1" stroke-miterlimit="10" d="M 332.386719 38.929688 C 332.386719 42.070312 329.839844 44.617188 326.699219 44.617188 C 323.554688 44.617188 321.007812 42.070312 321.007812 38.929688 C 321.007812 35.785156 323.554688 33.238281 326.699219 33.238281 C 329.839844 33.238281 332.386719 35.785156 332.386719 38.929688 "/>
<path fill-rule="nonzero" fill="rgb(0%, 0%, 0%)" fill-opacity="1" stroke-width="0.708661" stroke-linecap="round" stroke-linejoin="round" stroke="rgb(0%, 0%, 0%)" stroke-opacity="1" stroke-miterlimit="10" d="M 338.265625 58.066406 C 338.265625 61.207031 335.714844 63.753906 332.574219 63.753906 C 329.433594 63.753906 326.886719 61.207031 326.886719 58.066406 C 326.886719 54.925781 329.433594 52.378906 332.574219 52.378906 C 335.714844 52.378906 338.265625 54.925781 338.265625 58.066406 "/>
<path fill-rule="nonzero" fill="rgb(0%, 0%, 0%)" fill-opacity="1" stroke-width="0.708661" stroke-linecap="round" stroke-linejoin="round" stroke="rgb(0%, 0%, 0%)" stroke-opacity="1" stroke-miterlimit="10" d="M 344.140625 40.082031 C 344.140625 43.226562 341.59375 45.773438 338.449219 45.773438 C 335.308594 45.773438 332.761719 43.226562 332.761719 40.082031 C 332.761719 36.941406 335.308594 34.394531 338.449219 34.394531 C 341.59375 34.394531 344.140625 36.941406 344.140625 40.082031 "/>
<path fill-rule="nonzero" fill="rgb(0%, 0%, 0%)" fill-opacity="1" stroke-width="0.708661" stroke-linecap="round" stroke-linejoin="round" stroke="rgb(0%, 0%, 0%)" stroke-opacity="1" stroke-miterlimit="10" d="M 350.015625 192.183594 C 350.015625 195.324219 347.46875 197.871094 344.328125 197.871094 C 341.183594 197.871094 338.636719 195.324219 338.636719 192.183594 C 338.636719 189.039062 341.183594 186.492188 344.328125 186.492188 C 347.46875 186.492188 350.015625 189.039062 350.015625 192.183594 "/>
<path fill-rule="nonzero" fill="rgb(0%, 0%, 0%)" fill-opacity="1" stroke-width="0.708661" stroke-linecap="round" stroke-linejoin="round" stroke="rgb(0%, 0%, 0%)" stroke-opacity="1" stroke-miterlimit="10" d="M 355.890625 93.546875 C 355.890625 96.691406 353.34375 99.238281 350.203125 99.238281 C 347.0625 99.238281 344.515625 96.691406 344.515625 93.546875 C 344.515625 90.40625 347.0625 87.859375 350.203125 87.859375 C 353.34375 87.859375 355.890625 90.40625 355.890625 93.546875 "/>
<path fill-rule="nonzero" fill="rgb(0%, 0%, 0%)" fill-opacity="1" stroke-width="0.708661" stroke-linecap="round" stroke-linejoin="round" stroke="rgb(0%, 0%, 0%)" stroke-opacity="1" stroke-miterlimit="10" d="M 361.769531 114.640625 C 361.769531 117.78125 359.222656 120.328125 356.078125 120.328125 C 352.9375 120.328125 350.390625 117.78125 350.390625 114.640625 C 350.390625 111.5 352.9375 108.949219 356.078125 108.949219 C 359.222656 108.949219 361.769531 111.5 361.769531 114.640625 "/>
<path fill-rule="nonzero" fill="rgb(0%, 0%, 0%)" fill-opacity="1" stroke-width="0.708661" stroke-linecap="round" stroke-linejoin="round" stroke="rgb(0%, 0%, 0%)" stroke-opacity="1" stroke-miterlimit="10" d="M 367.644531 204.503906 C 367.644531 207.644531 365.097656 210.191406 361.957031 210.191406 C 358.8125 210.191406 356.265625 207.644531 356.265625 204.503906 C 356.265625 201.359375 358.8125 198.8125 361.957031 198.8125 C 365.097656 198.8125 367.644531 201.359375 367.644531 204.503906 "/>
<path fill-rule="nonzero" fill="rgb(0%, 0%, 0%)" fill-opacity="1" stroke-width="0.708661" stroke-linecap="round" stroke-linejoin="round" stroke="rgb(0%, 0%, 0%)" stroke-opacity="1" stroke-miterlimit="10" d="M 373.519531 133 C 373.519531 136.144531 370.972656 138.691406 367.832031 138.691406 C 364.6875 138.691406 362.140625 136.144531 362.140625 133 C 362.140625 129.859375 364.6875 127.3125 367.832031 127.3125 C 370.972656 127.3125 373.519531 129.859375 373.519531 133 "/>
<path fill-rule="nonzero" fill="rgb(0%, 0%, 0%)" fill-opacity="1" stroke-width="0.708661" stroke-linecap="round" stroke-linejoin="round" stroke="rgb(0%, 0%, 0%)" stroke-opacity="1" stroke-miterlimit="10" d="M 379.398438 45.4375 C 379.398438 48.578125 376.847656 51.125 373.707031 51.125 C 370.566406 51.125 368.019531 48.578125 368.019531 45.4375 C 368.019531 42.296875 370.566406 39.75 373.707031 39.75 C 376.847656 39.75 379.398438 42.296875 379.398438 45.4375 "/>
<path fill-rule="nonzero" fill="rgb(0%, 0%, 0%)" fill-opacity="1" stroke-width="0.708661" stroke-linecap="round" stroke-linejoin="round" stroke="rgb(0%, 0%, 0%)" stroke-opacity="1" stroke-miterlimit="10" d="M 385.273438 170.75 C 385.273438 173.890625 382.726562 176.441406 379.582031 176.441406 C 376.441406 176.441406 373.894531 173.890625 373.894531 170.75 C 373.894531 167.609375 376.441406 165.0625 379.582031 165.0625 C 382.726562 165.0625 385.273438 167.609375 385.273438 170.75 "/>
<path fill-rule="nonzero" fill="rgb(0%, 0%, 0%)" fill-opacity="1" stroke-width="0.708661" stroke-linecap="round" stroke-linejoin="round" stroke="rgb(0%, 0%, 0%)" stroke-opacity="1" stroke-miterlimit="10" d="M 391.148438 166.238281 C 391.148438 169.378906 388.601562 171.925781 385.460938 171.925781 C 382.316406 171.925781 379.769531 169.378906 379.769531 166.238281 C 379.769531 163.09375 382.316406 160.546875 385.460938 160.546875 C 388.601562 160.546875 391.148438 163.09375 391.148438 166.238281 "/>
<path fill-rule="nonzero" fill="rgb(0%, 0%, 0%)" fill-opacity="1" stroke-width="0.708661" stroke-linecap="round" stroke-linejoin="round" stroke="rgb(0%, 0%, 0%)" stroke-opacity="1" stroke-miterlimit="10" d="M 397.023438 210.625 C 397.023438 213.769531 394.476562 216.316406 391.335938 216.316406 C 388.195312 216.316406 385.644531 213.769531 385.644531 210.625 C 385.644531 207.484375 388.195312 204.9375 391.335938 204.9375 C 394.476562 204.9375 397.023438 207.484375 397.023438 210.625 "/>
<path fill-rule="nonzero" fill="rgb(0%, 0%, 0%)" fill-opacity="1" stroke-width="0.708661" stroke-linecap="round" stroke-linejoin="round" stroke="rgb(0%, 0%, 0%)" stroke-opacity="1" stroke-miterlimit="10" d="M 402.902344 48.167969 C 402.902344 51.3125 400.355469 53.859375 397.210938 53.859375 C 394.070312 53.859375 391.523438 51.3125 391.523438 48.167969 C 391.523438 45.027344 394.070312 42.480469 397.210938 42.480469 C 400.355469 42.480469 402.902344 45.027344 402.902344 48.167969 "/>
<path fill-rule="nonzero" fill="rgb(0%, 0%, 0%)" fill-opacity="1" stroke-width="0.708661" stroke-linecap="round" stroke-linejoin="round" stroke="rgb(0%, 0%, 0%)" stroke-opacity="1" stroke-miterlimit="10" d="M 408.777344 223.113281 C 408.777344 226.253906 406.230469 228.804688 403.085938 228.804688 C 399.945312 228.804688 397.398438 226.253906 397.398438 223.113281 C 397.398438 219.972656 399.945312 217.425781 403.085938 217.425781 C 406.230469 217.425781 408.777344 219.972656 408.777344 223.113281 "/>
<path fill-rule="nonzero" fill="rgb(0%, 0%, 0%)" fill-opacity="1" stroke-width="0.708661" stroke-linecap="round" stroke-linejoin="round" stroke="rgb(0%, 0%, 0%)" stroke-opacity="1" stroke-miterlimit="10" d="M 414.652344 200.078125 C 414.652344 203.21875 412.105469 205.769531 408.964844 205.769531 C 405.820312 205.769531 403.273438 203.21875 403.273438 200.078125 C 403.273438 196.9375 405.820312 194.390625 408.964844 194.390625 C 412.105469 194.390625 414.652344 196.9375 414.652344 200.078125 "/>
<path fill-rule="nonzero" fill="rgb(0%, 0%, 0%)" fill-opacity="1" stroke-width="0.708661" stroke-linecap="round" stroke-linejoin="round" stroke="rgb(0%, 0%, 0%)" stroke-opacity="1" stroke-miterlimit="10" d="M 420.527344 61.960938 C 420.527344 65.101562 417.980469 67.648438 414.839844 67.648438 C 411.699219 67.648438 409.152344 65.101562 409.152344 61.960938 C 409.152344 58.816406 411.699219 56.269531 414.839844 56.269531 C 417.980469 56.269531 420.527344 58.816406 420.527344 61.960938 "/>
<path fill-rule="nonzero" fill="rgb(0%, 0%, 0%)" fill-opacity="1" stroke-width="0.708661" stroke-linecap="round" stroke-linejoin="round" stroke="rgb(0%, 0%, 0%)" stroke-opacity="1" stroke-miterlimit="10" d="M 426.40625 142.851562 C 426.40625 145.992188 423.859375 148.542969 420.714844 148.542969 C 417.574219 148.542969 415.027344 145.992188 415.027344 142.851562 C 415.027344 139.710938 417.574219 137.164062 420.714844 137.164062 C 423.859375 137.164062 426.40625 139.710938 426.40625 142.851562 "/>
<path fill-rule="nonzero" fill="rgb(0%, 0%, 0%)" fill-opacity="1" stroke-width="0.708661" stroke-linecap="round" stroke-linejoin="round" stroke="rgb(0%, 0%, 0%)" stroke-opacity="1" stroke-miterlimit="10" d="M 432.28125 163.371094 C 432.28125 166.511719 429.734375 169.058594 426.59375 169.058594 C 423.449219 169.058594 420.902344 166.511719 420.902344 163.371094 C 420.902344 160.226562 423.449219 157.679688 426.59375 157.679688 C 429.734375 157.679688 432.28125 160.226562 432.28125 163.371094 "/>
<path fill-rule="nonzero" fill="rgb(0%, 0%, 0%)" fill-opacity="1" stroke-width="0.708661" stroke-linecap="round" stroke-linejoin="round" stroke="rgb(0%, 0%, 0%)" stroke-opacity="1" stroke-miterlimit="10" d="M 438.15625 55.144531 C 438.15625 58.289062 435.609375 60.835938 432.46875 60.835938 C 429.328125 60.835938 426.777344 58.289062 426.777344 55.144531 C 426.777344 52.003906 429.328125 49.457031 432.46875 49.457031 C 435.609375 49.457031 438.15625 52.003906 438.15625 55.144531 "/>
<path fill-rule="nonzero" fill="rgb(0%, 0%, 0%)" fill-opacity="1" stroke-width="0.708661" stroke-linecap="round" stroke-linejoin="round" stroke="rgb(0%, 0%, 0%)" stroke-opacity="1" stroke-miterlimit="10" d="M 444.035156 113.324219 C 444.035156 116.464844 441.488281 119.011719 438.34375 119.011719 C 435.203125 119.011719 432.65625 116.464844 432.65625 113.324219 C 432.65625 110.183594 435.203125 107.632812 438.34375 107.632812 C 441.488281 107.632812 444.035156 110.183594 444.035156 113.324219 "/>
<path fill-rule="nonzero" fill="rgb(0%, 0%, 0%)" fill-opacity="1" stroke-width="0.708661" stroke-linecap="round" stroke-linejoin="round" stroke="rgb(0%, 0%, 0%)" stroke-opacity="1" stroke-miterlimit="10" d="M 449.910156 250.722656 C 449.910156 253.863281 447.363281 256.414062 444.21875 256.414062 C 441.078125 256.414062 438.53125 253.863281 438.53125 250.722656 C 438.53125 247.582031 441.078125 245.035156 444.21875 245.035156 C 447.363281 245.035156 449.910156 247.582031 449.910156 250.722656 "/>
<path fill-rule="nonzero" fill="rgb(0%, 0%, 0%)" fill-opacity="1" stroke-width="0.708661" stroke-linecap="round" stroke-linejoin="round" stroke="rgb(0%, 0%, 0%)" stroke-opacity="1" stroke-miterlimit="10" d="M 455.785156 48.761719 C 455.785156 51.90625 453.238281 54.453125 450.097656 54.453125 C 446.953125 54.453125 444.40625 51.90625 444.40625 48.761719 C 444.40625 45.621094 446.953125 43.074219 450.097656 43.074219 C 453.238281 43.074219 455.785156 45.621094 455.785156 48.761719 "/>
<path fill-rule="nonzero" fill="rgb(0%, 0%, 0%)" fill-opacity="1" stroke-width="0.708661" stroke-linecap="round" stroke-linejoin="round" stroke="rgb(0%, 0%, 0%)" stroke-opacity="1" stroke-miterlimit="10" d="M 461.660156 249.011719 C 461.660156 252.152344 459.113281 254.699219 455.972656 254.699219 C 452.832031 254.699219 450.285156 252.152344 450.285156 249.011719 C 450.285156 245.867188 452.832031 243.320312 455.972656 243.320312 C 459.113281 243.320312 461.660156 245.867188 461.660156 249.011719 "/>
<path fill-rule="nonzero" fill="rgb(0%, 0%, 0%)" fill-opacity="1" stroke-width="0.708661" stroke-linecap="round" stroke-linejoin="round" stroke="rgb(0%, 0%, 0%)" stroke-opacity="1" stroke-miterlimit="10" d="M 467.539062 229.753906 C 467.539062 232.894531 464.992188 235.441406 461.847656 235.441406 C 458.707031 235.441406 456.160156 232.894531 456.160156 229.753906 C 456.160156 226.613281 458.707031 224.066406 461.847656 224.066406 C 464.992188 224.066406 467.539062 226.613281 467.539062 229.753906 "/>
<path fill-rule="nonzero" fill="rgb(0%, 0%, 0%)" fill-opacity="1" stroke-width="0.708661" stroke-linecap="round" stroke-linejoin="round" stroke="rgb(0%, 0%, 0%)" stroke-opacity="1" stroke-miterlimit="10" d="M 473.414062 262.609375 C 473.414062 265.75 470.867188 268.296875 467.726562 268.296875 C 464.582031 268.296875 462.035156 265.75 462.035156 262.609375 C 462.035156 259.464844 464.582031 256.917969 467.726562 256.917969 C 470.867188 256.917969 473.414062 259.464844 473.414062 262.609375 "/>
<path fill-rule="nonzero" fill="rgb(0%, 0%, 0%)" fill-opacity="1" stroke-width="0.708661" stroke-linecap="round" stroke-linejoin="round" stroke="rgb(0%, 0%, 0%)" stroke-opacity="1" stroke-miterlimit="10" d="M 479.289062 240.070312 C 479.289062 243.214844 476.742188 245.761719 473.601562 245.761719 C 470.457031 245.761719 467.910156 243.214844 467.910156 240.070312 C 467.910156 236.929688 470.457031 234.382812 473.601562 234.382812 C 476.742188 234.382812 479.289062 236.929688 479.289062 240.070312 "/>
<path fill-rule="nonzero" fill="rgb(0%, 0%, 0%)" fill-opacity="1" stroke-width="0.708661" stroke-linecap="round" stroke-linejoin="round" stroke="rgb(0%, 0%, 0%)" stroke-opacity="1" stroke-miterlimit="10" d="M 485.167969 226.980469 C 485.167969 230.121094 482.617188 232.667969 479.476562 232.667969 C 476.335938 232.667969 473.789062 230.121094 473.789062 226.980469 C 473.789062 223.839844 476.335938 221.289062 479.476562 221.289062 C 482.617188 221.289062 485.167969 223.839844 485.167969 226.980469 "/>
<path fill-rule="nonzero" fill="rgb(0%, 0%, 0%)" fill-opacity="1" stroke-width="0.708661" stroke-linecap="round" stroke-linejoin="round" stroke="rgb(0%, 0%, 0%)" stroke-opacity="1" stroke-miterlimit="10" d="M 491.042969 62.859375 C 491.042969 66.003906 488.496094 68.550781 485.351562 68.550781 C 482.210938 68.550781 479.664062 66.003906 479.664062 62.859375 C 479.664062 59.71875 482.210938 57.171875 485.351562 57.171875 C 488.496094 57.171875 491.042969 59.71875 491.042969 62.859375 "/>
<path fill-rule="nonzero" fill="rgb(0%, 0%, 0%)" fill-opacity="1" stroke-width="0.708661" stroke-linecap="round" stroke-linejoin="round" stroke="rgb(0%, 0%, 0%)" stroke-opacity="1" stroke-miterlimit="10" d="M 496.917969 275.027344 C 496.917969 278.171875 494.371094 280.71875 491.230469 280.71875 C 488.085938 280.71875 485.539062 278.171875 485.539062 275.027344 C 485.539062 271.886719 488.085938 269.339844 491.230469 269.339844 C 494.371094 269.339844 496.917969 271.886719 496.917969 275.027344 "/>
<path fill-rule="nonzero" fill="rgb(0%, 0%, 0%)" fill-opacity="1" stroke-width="0.708661" stroke-linecap="round" stroke-linejoin="round" stroke="rgb(0%, 0%, 0%)" stroke-opacity="1" stroke-miterlimit="10" d="M 502.792969 267.816406 C 502.792969 270.957031 500.246094 273.503906 497.105469 273.503906 C 493.964844 273.503906 491.414062 270.957031 491.414062 267.816406 C 491.414062 264.671875 493.964844 262.125 497.105469 262.125 C 500.246094 262.125 502.792969 264.671875 502.792969 267.816406 "/>
<path fill-rule="nonzero" fill="rgb(0%, 0%, 0%)" fill-opacity="1" stroke-width="0.708661" stroke-linecap="round" stroke-linejoin="round" stroke="rgb(0%, 0%, 0%)" stroke-opacity="1" stroke-miterlimit="10" d="M 508.671875 62.945312 C 508.671875 66.089844 506.125 68.636719 502.980469 68.636719 C 499.839844 68.636719 497.292969 66.089844 497.292969 62.945312 C 497.292969 59.804688 499.839844 57.257812 502.980469 57.257812 C 506.125 57.257812 508.671875 59.804688 508.671875 62.945312 "/>
<path fill-rule="nonzero" fill="rgb(0%, 0%, 0%)" fill-opacity="1" stroke-width="0.708661" stroke-linecap="round" stroke-linejoin="round" stroke="rgb(0%, 0%, 0%)" stroke-opacity="1" stroke-miterlimit="10" d="M 514.546875 61.304688 C 514.546875 64.445312 512 66.992188 508.855469 66.992188 C 505.714844 66.992188 503.167969 64.445312 503.167969 61.304688 C 503.167969 58.160156 505.714844 55.613281 508.855469 55.613281 C 512 55.613281 514.546875 58.160156 514.546875 61.304688 "/>
<path fill-rule="nonzero" fill="rgb(0%, 0%, 0%)" fill-opacity="1" stroke-width="0.708661" stroke-linecap="round" stroke-linejoin="round" stroke="rgb(0%, 0%, 0%)" stroke-opacity="1" stroke-miterlimit="10" d="M 520.421875 183.796875 C 520.421875 186.9375 517.875 189.484375 514.734375 189.484375 C 511.589844 189.484375 509.042969 186.9375 509.042969 183.796875 C 509.042969 180.65625 511.589844 178.105469 514.734375 178.105469 C 517.875 178.105469 520.421875 180.65625 520.421875 183.796875 "/>
<path fill-rule="nonzero" fill="rgb(0%, 0%, 0%)" fill-opacity="1" stroke-width="0.708661" stroke-linecap="round" stroke-linejoin="round" stroke="rgb(0%, 0%, 0%)" stroke-opacity="1" stroke-miterlimit="10" d="M 526.296875 56.027344 C 526.296875 59.171875 523.75 61.71875 520.609375 61.71875 C 517.46875 61.71875 514.921875 59.171875 514.921875 56.027344 C 514.921875 52.886719 517.46875 50.339844 520.609375 50.339844 C 523.75 50.339844 526.296875 52.886719 526.296875 56.027344 "/>
<path fill-rule="nonzero" fill="rgb(0%, 0%, 0%)" fill-opacity="1" stroke-width="0.708661" stroke-linecap="round" stroke-linejoin="round" stroke="rgb(0%, 0%, 0%)" stroke-opacity="1" stroke-miterlimit="10" d="M 532.175781 221.738281 C 532.175781 224.878906 529.628906 227.425781 526.484375 227.425781 C 523.34375 227.425781 520.796875 224.878906 520.796875 221.738281 C 520.796875 218.597656 523.34375 216.050781 526.484375 216.050781 C 529.628906 216.050781 532.175781 218.597656 532.175781 221.738281 "/>
<path fill-rule="nonzero" fill="rgb(0%, 0%, 0%)" fill-opacity="1" stroke-width="0.708661" stroke-linecap="round" stroke-linejoin="round" stroke="rgb(0%, 0%, 0%)" stroke-opacity="1" stroke-miterlimit="10" d="M 538.050781 296.664062 C 538.050781 299.804688 535.503906 302.351562 532.363281 302.351562 C 529.21875 302.351562 526.671875 299.804688 526.671875 296.664062 C 526.671875 293.519531 529.21875 290.972656 532.363281 290.972656 C 535.503906 290.972656 538.050781 293.519531 538.050781 296.664062 "/>
<path fill-rule="nonzero" fill="rgb(0%, 0%, 0%)" fill-opacity="1" stroke-width="0.708661" stroke-linecap="round" stroke-linejoin="round" stroke="rgb(0%, 0%, 0%)" stroke-opacity="1" stroke-miterlimit="10" d="M 543.925781 298.121094 C 543.925781 301.261719 541.378906 303.808594 538.238281 303.808594 C 535.097656 303.808594 532.546875 301.261719 532.546875 298.121094 C 532.546875 294.976562 535.097656 292.429688 538.238281 292.429688 C 541.378906 292.429688 543.925781 294.976562 543.925781 298.121094 "/>
<path fill-rule="nonzero" fill="rgb(0%, 0%, 0%)" fill-opacity="1" stroke-width="0.708661" stroke-linecap="round" stroke-linejoin="round" stroke="rgb(0%, 0%, 0%)" stroke-opacity="1" stroke-miterlimit="10" d="M 549.804688 302.75 C 549.804688 305.890625 547.257812 308.4375 544.113281 308.4375 C 540.972656 308.4375 538.425781 305.890625 538.425781 302.75 C 538.425781 299.605469 540.972656 297.058594 544.113281 297.058594 C 547.257812 297.058594 549.804688 299.605469 549.804688 302.75 "/>
<path fill-rule="nonzero" fill="rgb(0%, 0%, 0%)" fill-opacity="1" stroke-width="0.708661" stroke-linecap="round" stroke-linejoin="round" stroke="rgb(0%, 0%, 0%)" stroke-opacity="1" stroke-miterlimit="10" d="M 555.679688 64.59375 C 555.679688 67.738281 553.132812 70.285156 549.988281 70.285156 C 546.847656 70.285156 544.300781 67.738281 544.300781 64.59375 C 544.300781 61.453125 546.847656 58.90625 549.988281 58.90625 C 553.132812 58.90625 555.679688 61.453125 555.679688 64.59375 "/>
<path fill-rule="nonzero" fill="rgb(0%, 0%, 0%)" fill-opacity="1" stroke-width="0.708661" stroke-linecap="round" stroke-linejoin="round" stroke="rgb(0%, 0%, 0%)" stroke-opacity="1" stroke-miterlimit="10" d="M 561.554688 76.8125 C 561.554688 79.953125 559.007812 82.5 555.867188 82.5 C 552.722656 82.5 550.175781 79.953125 550.175781 76.8125 C 550.175781 73.671875 552.722656 71.121094 555.867188 71.121094 C 559.007812 71.121094 561.554688 73.671875 561.554688 76.8125 "/>
<path fill-rule="nonzero" fill="rgb(0%, 0%, 0%)" fill-opacity="1" stroke-width="0.708661" stroke-linecap="round" stroke-linejoin="round" stroke="rgb(0%, 0%, 0%)" stroke-opacity="1" stroke-miterlimit="10" d="M 567.429688 65.097656 C 567.429688 68.238281 564.882812 70.785156 561.742188 70.785156 C 558.601562 70.785156 556.054688 68.238281 556.054688 65.097656 C 556.054688 61.953125 558.601562 59.40625 561.742188 59.40625 C 564.882812 59.40625 567.429688 61.953125 567.429688 65.097656 "/>
<path fill-rule="nonzero" fill="rgb(0%, 0%, 0%)" fill-opacity="1" stroke-width="0.708661" stroke-linecap="round" stroke-linejoin="round" stroke="rgb(0%, 0%, 0%)" stroke-opacity="1" stroke-miterlimit="10" d="M 573.308594 122.164062 C 573.308594 125.304688 570.761719 127.851562 567.617188 127.851562 C 564.476562 127.851562 561.929688 125.304688 561.929688 122.164062 C 561.929688 119.019531 564.476562 116.472656 567.617188 116.472656 C 570.761719 116.472656 573.308594 119.019531 573.308594 122.164062 "/>
<path fill-rule="nonzero" fill="rgb(0%, 0%, 0%)" fill-opacity="1" stroke-width="0.708661" stroke-linecap="round" stroke-linejoin="round" stroke="rgb(0%, 0%, 0%)" stroke-opacity="1" stroke-miterlimit="10" d="M 579.183594 86.980469 C 579.183594 90.121094 576.636719 92.667969 573.496094 92.667969 C 570.351562 92.667969 567.804688 90.121094 567.804688 86.980469 C 567.804688 83.839844 570.351562 81.292969 573.496094 81.292969 C 576.636719 81.292969 579.183594 83.839844 579.183594 86.980469 "/>
<path fill-rule="nonzero" fill="rgb(0%, 0%, 0%)" fill-opacity="1" stroke-width="0.708661" stroke-linecap="round" stroke-linejoin="round" stroke="rgb(0%, 0%, 0%)" stroke-opacity="1" stroke-miterlimit="10" d="M 585.058594 99.375 C 585.058594 102.519531 582.511719 105.066406 579.371094 105.066406 C 576.226562 105.066406 573.679688 102.519531 573.679688 99.375 C 573.679688 96.234375 576.226562 93.6875 579.371094 93.6875 C 582.511719 93.6875 585.058594 96.234375 585.058594 99.375 "/>
<path fill-rule="nonzero" fill="rgb(0%, 0%, 0%)" fill-opacity="1" stroke-width="0.708661" stroke-linecap="round" stroke-linejoin="round" stroke="rgb(0%, 0%, 0%)" stroke-opacity="1" stroke-miterlimit="10" d="M 590.9375 108.382812 C 590.9375 111.523438 588.386719 114.070312 585.246094 114.070312 C 582.105469 114.070312 579.558594 111.523438 579.558594 108.382812 C 579.558594 105.242188 582.105469 102.695312 585.246094 102.695312 C 588.386719 102.695312 590.9375 105.242188 590.9375 108.382812 "/>
<path fill-rule="nonzero" fill="rgb(0%, 0%, 0%)" fill-opacity="1" stroke-width="0.708661" stroke-linecap="round" stroke-linejoin="round" stroke="rgb(0%, 0%, 0%)" stroke-opacity="1" stroke-miterlimit="10" d="M 596.8125 309.644531 C 596.8125 312.785156 594.265625 315.332031 591.121094 315.332031 C 587.980469 315.332031 585.433594 312.785156 585.433594 309.644531 C 585.433594 306.503906 587.980469 303.953125 591.121094 303.953125 C 594.265625 303.953125 596.8125 306.503906 596.8125 309.644531 "/>
<path fill-rule="nonzero" fill="rgb(0%, 0%, 0%)" fill-opacity="1" stroke-width="0.708661" stroke-linecap="round" stroke-linejoin="round" stroke="rgb(0%, 0%, 0%)" stroke-opacity="1" stroke-miterlimit="10" d="M 602.6875 136.164062 C 602.6875 139.304688 600.140625 141.851562 597 141.851562 C 593.855469 141.851562 591.308594 139.304688 591.308594 136.164062 C 591.308594 133.019531 593.855469 130.472656 597 130.472656 C 600.140625 130.472656 602.6875 133.019531 602.6875 136.164062 "/>
<path fill-rule="nonzero" fill="rgb(0%, 0%, 0%)" fill-opacity="1" stroke-width="0.708661" stroke-linecap="round" stroke-linejoin="round" stroke="rgb(0%, 0%, 0%)" stroke-opacity="1" stroke-miterlimit="10" d="M 608.5625 77.976562 C 608.5625 81.117188 606.015625 83.664062 602.875 83.664062 C 599.734375 83.664062 597.1875 81.117188 597.1875 77.976562 C 597.1875 74.832031 599.734375 72.285156 602.875 72.285156 C 606.015625 72.285156 608.5625 74.832031 608.5625 77.976562 "/>
<path fill-rule="nonzero" fill="rgb(0%, 0%, 0%)" fill-opacity="1" stroke-width="0.708661" stroke-linecap="round" stroke-linejoin="round" stroke="rgb(0%, 0%, 0%)" stroke-opacity="1" stroke-miterlimit="10" d="M 614.441406 336.140625 C 614.441406 339.285156 611.894531 341.832031 608.75 341.832031 C 605.609375 341.832031 603.0625 339.285156 603.0625 336.140625 C 603.0625 333 605.609375 330.453125 608.75 330.453125 C 611.894531 330.453125 614.441406 333 614.441406 336.140625 "/>
<path fill-rule="nonzero" fill="rgb(0%, 0%, 0%)" fill-opacity="1" stroke-width="0.708661" stroke-linecap="round" stroke-linejoin="round" stroke="rgb(0%, 0%, 0%)" stroke-opacity="1" stroke-miterlimit="10" d="M 620.316406 129.128906 C 620.316406 132.273438 617.769531 134.820312 614.628906 134.820312 C 611.484375 134.820312 608.9375 132.273438 608.9375 129.128906 C 608.9375 125.988281 611.484375 123.441406 614.628906 123.441406 C 617.769531 123.441406 620.316406 125.988281 620.316406 129.128906 "/>
<path fill-rule="nonzero" fill="rgb(0%, 0%, 0%)" fill-opacity="1" stroke-width="0.708661" stroke-linecap="round" stroke-linejoin="round" stroke="rgb(0%, 0%, 0%)" stroke-opacity="1" stroke-miterlimit="10" d="M 626.191406 140.285156 C 626.191406 143.429688 623.644531 145.976562 620.503906 145.976562 C 617.359375 145.976562 614.8125 143.429688 614.8125 140.285156 C 614.8125 137.144531 617.359375 134.597656 620.503906 134.597656 C 623.644531 134.597656 626.191406 137.144531 626.191406 140.285156 "/>
<path fill-rule="nonzero" fill="rgb(0%, 0%, 0%)" fill-opacity="1" stroke-width="0.708661" stroke-linecap="round" stroke-linejoin="round" stroke="rgb(0%, 0%, 0%)" stroke-opacity="1" stroke-miterlimit="10" d="M 632.070312 167.503906 C 632.070312 170.644531 629.519531 173.191406 626.378906 173.191406 C 623.238281 173.191406 620.691406 170.644531 620.691406 167.503906 C 620.691406 164.359375 623.238281 161.8125 626.378906 161.8125 C 629.519531 161.8125 632.070312 164.359375 632.070312 167.503906 "/>
<path fill-rule="nonzero" fill="rgb(0%, 0%, 0%)" fill-opacity="1" stroke-width="0.708661" stroke-linecap="round" stroke-linejoin="round" stroke="rgb(0%, 0%, 0%)" stroke-opacity="1" stroke-miterlimit="10" d="M 637.945312 178.503906 C 637.945312 181.644531 635.398438 184.191406 632.253906 184.191406 C 629.113281 184.191406 626.566406 181.644531 626.566406 178.503906 C 626.566406 175.359375 629.113281 172.8125 632.253906 172.8125 C 635.398438 172.8125 637.945312 175.359375 637.945312 178.503906 "/>
<path fill-rule="nonzero" fill="rgb(0%, 0%, 0%)" fill-opacity="1" stroke-width="0.708661" stroke-linecap="round" stroke-linejoin="round" stroke="rgb(0%, 0%, 0%)" stroke-opacity="1" stroke-miterlimit="10" d="M 643.820312 193.449219 C 643.820312 196.59375 641.273438 199.140625 638.132812 199.140625 C 634.988281 199.140625 632.441406 196.59375 632.441406 193.449219 C 632.441406 190.308594 634.988281 187.761719 638.132812 187.761719 C 641.273438 187.761719 643.820312 190.308594 643.820312 193.449219 "/>
<path fill-rule="nonzero" fill="rgb(0%, 0%, 0%)" fill-opacity="1" stroke-width="0.708661" stroke-linecap="round" stroke-linejoin="round" stroke="rgb(0%, 0%, 0%)" stroke-opacity="1" stroke-miterlimit="10" d="M 649.695312 71.542969 C 649.695312 74.683594 647.148438 77.230469 644.007812 77.230469 C 640.867188 77.230469 638.316406 74.683594 638.316406 71.542969 C 638.316406 68.398438 640.867188 65.851562 644.007812 65.851562 C 647.148438 65.851562 649.695312 68.398438 649.695312 71.542969 "/>
<path fill-rule="nonzero" fill="rgb(0%, 0%, 0%)" fill-opacity="1" stroke-width="0.708661" stroke-linecap="round" stroke-linejoin="round" stroke="rgb(0%, 0%, 0%)" stroke-opacity="1" stroke-miterlimit="10" d="M 655.574219 234.523438 C 655.574219 237.664062 653.027344 240.210938 649.882812 240.210938 C 646.742188 240.210938 644.195312 237.664062 644.195312 234.523438 C 644.195312 231.378906 646.742188 228.832031 649.882812 228.832031 C 653.027344 228.832031 655.574219 231.378906 655.574219 234.523438 "/>
<path fill-rule="nonzero" fill="rgb(0%, 0%, 0%)" fill-opacity="1" stroke-width="0.708661" stroke-linecap="round" stroke-linejoin="round" stroke="rgb(0%, 0%, 0%)" stroke-opacity="1" stroke-miterlimit="10" d="M 661.449219 344.695312 C 661.449219 347.839844 658.902344 350.386719 655.757812 350.386719 C 652.617188 350.386719 650.070312 347.839844 650.070312 344.695312 C 650.070312 341.554688 652.617188 339.007812 655.757812 339.007812 C 658.902344 339.007812 661.449219 341.554688 661.449219 344.695312 "/>
<path fill-rule="nonzero" fill="rgb(0%, 0%, 0%)" fill-opacity="1" stroke-width="0.708661" stroke-linecap="round" stroke-linejoin="round" stroke="rgb(0%, 0%, 0%)" stroke-opacity="1" stroke-miterlimit="10" d="M 667.324219 315.214844 C 667.324219 318.359375 664.777344 320.90625 661.636719 320.90625 C 658.492188 320.90625 655.945312 318.359375 655.945312 315.214844 C 655.945312 312.074219 658.492188 309.527344 661.636719 309.527344 C 664.777344 309.527344 667.324219 312.074219 667.324219 315.214844 "/>
<path fill-rule="nonzero" fill="rgb(0%, 0%, 0%)" fill-opacity="1" stroke-width="0.708661" stroke-linecap="round" stroke-linejoin="round" stroke="rgb(0%, 0%, 0%)" stroke-opacity="1" stroke-miterlimit="10" d="M 673.199219 66.515625 C 673.199219 69.660156 670.652344 72.207031 667.511719 72.207031 C 664.371094 72.207031 661.824219 69.660156 661.824219 66.515625 C 661.824219 63.375 664.371094 60.828125 667.511719 60.828125 C 670.652344 60.828125 673.199219 63.375 673.199219 66.515625 "/>
<path fill-rule="nonzero" fill="rgb(0%, 0%, 0%)" fill-opacity="1" stroke-width="0.708661" stroke-linecap="round" stroke-linejoin="round" stroke="rgb(0%, 0%, 0%)" stroke-opacity="1" stroke-miterlimit="10" d="M 679.078125 117.507812 C 679.078125 120.648438 676.53125 123.195312 673.386719 123.195312 C 670.246094 123.195312 667.699219 120.648438 667.699219 117.507812 C 667.699219 114.363281 670.246094 111.816406 673.386719 111.816406 C 676.53125 111.816406 679.078125 114.363281 679.078125 117.507812 "/>
<path fill-rule="nonzero" fill="rgb(0%, 0%, 0%)" fill-opacity="1" stroke-width="0.708661" stroke-linecap="round" stroke-linejoin="round" stroke="rgb(0%, 0%, 0%)" stroke-opacity="1" stroke-miterlimit="10" d="M 684.953125 84.207031 C 684.953125 87.347656 682.40625 89.894531 679.265625 89.894531 C 676.121094 89.894531 673.574219 87.347656 673.574219 84.207031 C 673.574219 81.0625 676.121094 78.515625 679.265625 78.515625 C 682.40625 78.515625 684.953125 81.0625 684.953125 84.207031 "/>
<path fill-rule="nonzero" fill="rgb(0%, 0%, 0%)" fill-opacity="1" stroke-width="0.708661" stroke-linecap="round" stroke-linejoin="round" stroke="rgb(0%, 0%, 0%)" stroke-opacity="1" stroke-miterlimit="10" d="M 690.828125 76.636719 C 690.828125 79.78125 688.28125 82.328125 685.140625 82.328125 C 681.996094 82.328125 679.449219 79.78125 679.449219 76.636719 C 679.449219 73.496094 681.996094 70.949219 685.140625 70.949219 C 688.28125 70.949219 690.828125 73.496094 690.828125 76.636719 "/>
<path fill="none" stroke-width="6.40187" stroke-linecap="butt" stroke-linejoin="round" stroke="rgb(0%, 0%, 100%)" stroke-opacity="1" stroke-miterlimit="10" d="M 97.53125 63.609375 L 119.84375 68.519531 L 127.285156 70.15625 L 134.722656 71.792969 L 142.160156 73.433594 L 171.910156 79.980469 L 179.351562 81.617188 L 194.226562 84.890625 L 201.664062 86.53125 L 216.539062 89.804688 L 223.980469 91.441406 L 246.292969 96.351562 L 253.730469 97.992188 L 268.605469 101.265625 L 276.046875 102.902344 L 305.796875 109.449219 L 313.234375 111.089844 L 320.671875 112.726562 L 328.113281 114.363281 L 357.863281 120.910156 L 365.300781 122.550781 L 372.742188 124.1875 L 417.367188 134.007812 L 424.808594 135.648438 L 469.433594 145.46875 L 476.875 147.109375 L 514.0625 155.292969 L 521.503906 156.929688 L 528.941406 158.566406 L 536.378906 160.207031 L 566.128906 166.753906 L 573.570312 168.390625 L 588.445312 171.664062 L 595.882812 173.304688 L 610.757812 176.578125 L 618.199219 178.214844 L 640.511719 183.125 L 647.949219 184.765625 L 662.824219 188.039062 L 670.265625 189.675781 L 685.140625 192.949219 "/>
<path fill="none" stroke-width="6.40187" stroke-linecap="butt" stroke-linejoin="round" stroke="rgb(100%, 0%, 0%)" stroke-opacity="1" stroke-miterlimit="10" d="M 97.53125 54.652344 L 104.96875 56.234375 L 112.40625 57.84375 L 119.84375 59.476562 L 127.285156 61.132812 L 134.722656 62.808594 L 142.160156 64.496094 L 149.597656 66.199219 L 157.035156 67.90625 L 171.910156 71.335938 L 179.351562 73.046875 L 186.789062 74.757812 L 194.226562 76.480469 L 201.664062 78.214844 L 209.101562 79.976562 L 216.539062 81.773438 L 223.980469 83.605469 L 231.417969 85.488281 L 238.855469 87.425781 L 246.292969 89.421875 L 253.730469 91.347656 L 261.167969 93.179688 L 268.605469 94.953125 L 276.046875 96.703125 L 283.484375 98.472656 L 290.921875 100.296875 L 298.359375 102.210938 L 305.796875 104.253906 L 313.234375 106.460938 L 320.671875 108.871094 L 328.113281 111.652344 L 335.550781 114.894531 L 342.988281 118.484375 L 350.425781 122.296875 L 357.863281 126.222656 L 365.300781 130.144531 L 372.742188 133.949219 L 380.179688 137.515625 L 387.617188 140.734375 L 395.054688 143.585938 L 402.492188 146.597656 L 409.929688 149.777344 L 417.367188 153.046875 L 424.808594 156.308594 L 432.246094 159.484375 L 439.683594 162.484375 L 447.121094 165.222656 L 454.558594 167.613281 L 461.996094 169.566406 L 469.433594 171.007812 L 476.875 172.078125 L 484.3125 172.898438 L 491.75 173.5 L 499.1875 173.921875 L 506.625 174.203125 L 514.0625 174.375 L 521.503906 174.476562 L 536.378906 174.617188 L 543.816406 174.667969 L 551.253906 174.5625 L 558.691406 174.292969 L 566.128906 173.863281 L 573.570312 173.28125 L 581.007812 172.546875 L 588.445312 171.660156 L 595.882812 170.628906 L 603.320312 169.453125 L 610.757812 168.132812 L 618.199219 166.679688 L 625.636719 165.101562 L 633.074219 163.394531 L 640.511719 161.558594 L 647.949219 159.59375 L 655.386719 157.496094 L 662.824219 155.265625 L 670.265625 152.898438 L 677.703125 150.390625 L 685.140625 147.742188 "/>
<g fill="rgb(40%, 40%, 40%)" fill-opacity="1">
<use xlink:href="#glyph-0-1" x="39.21875" y="301.0625"/>
<use xlink:href="#glyph-0-2" x="48.21875" y="301.0625"/>
</g>
<g fill="rgb(40%, 40%, 40%)" fill-opacity="1">
<use xlink:href="#glyph-0-3" x="48.21875" y="221.519531"/>
</g>
<g fill="rgb(40%, 40%, 40%)" fill-opacity="1">
<use xlink:href="#glyph-0-2" x="48.21875" y="141.972656"/>
</g>
<g fill="rgb(40%, 40%, 40%)" fill-opacity="1">
<use xlink:href="#glyph-0-4" x="48.21875" y="62.429688"/>
</g>
<path fill="none" stroke-width="1.066978" stroke-linecap="butt" stroke-linejoin="round" stroke="rgb(80%, 80%, 80%)" stroke-opacity="1" stroke-miterlimit="10" d="M 65.410156 291.957031 L 68.152344 291.957031 "/>
<path fill="none" stroke-width="1.066978" stroke-linecap="butt" stroke-linejoin="round" stroke="rgb(80%, 80%, 80%)" stroke-opacity="1" stroke-miterlimit="10" d="M 65.410156 212.414062 L 68.152344 212.414062 "/>
<path fill="none" stroke-width="1.066978" stroke-linecap="butt" stroke-linejoin="round" stroke="rgb(80%, 80%, 80%)" stroke-opacity="1" stroke-miterlimit="10" d="M 65.410156 132.867188 L 68.152344 132.867188 "/>
<path fill="none" stroke-width="1.066978" stroke-linecap="butt" stroke-linejoin="round" stroke="rgb(80%, 80%, 80%)" stroke-opacity="1" stroke-miterlimit="10" d="M 65.410156 53.324219 L 68.152344 53.324219 "/>
<path fill="none" stroke-width="1.066978" stroke-linecap="butt" stroke-linejoin="round" stroke="rgb(80%, 80%, 80%)" stroke-opacity="1" stroke-miterlimit="10" d="M 97.53125 363.589844 L 97.53125 360.847656 "/>
<path fill="none" stroke-width="1.066978" stroke-linecap="butt" stroke-linejoin="round" stroke="rgb(80%, 80%, 80%)" stroke-opacity="1" stroke-miterlimit="10" d="M 244.433594 363.589844 L 244.433594 360.847656 "/>
<path fill="none" stroke-width="1.066978" stroke-linecap="butt" stroke-linejoin="round" stroke="rgb(80%, 80%, 80%)" stroke-opacity="1" stroke-miterlimit="10" d="M 391.335938 363.589844 L 391.335938 360.847656 "/>
<path fill="none" stroke-width="1.066978" stroke-linecap="butt" stroke-linejoin="round" stroke="rgb(80%, 80%, 80%)" stroke-opacity="1" stroke-miterlimit="10" d="M 538.238281 363.589844 L 538.238281 360.847656 "/>
<path fill="none" stroke-width="1.066978" stroke-linecap="butt" stroke-linejoin="round" stroke="rgb(80%, 80%, 80%)" stroke-opacity="1" stroke-miterlimit="10" d="M 685.140625 363.589844 L 685.140625 360.847656 "/>
<g fill="rgb(40%, 40%, 40%)" fill-opacity="1">
<use xlink:href="#glyph-0-1" x="85.53125" y="384.886719"/>
<use xlink:href="#glyph-0-2" x="94.53125" y="384.886719"/>
</g>
<g fill="rgb(40%, 40%, 40%)" fill-opacity="1">
<use xlink:href="#glyph-0-1" x="232.433594" y="384.886719"/>
<use xlink:href="#glyph-0-5" x="241.433594" y="384.886719"/>
</g>
<g fill="rgb(40%, 40%, 40%)" fill-opacity="1">
<use xlink:href="#glyph-0-3" x="383.835938" y="384.886719"/>
</g>
<g fill="rgb(40%, 40%, 40%)" fill-opacity="1">
<use xlink:href="#glyph-0-5" x="530.738281" y="384.886719"/>
</g>
<g fill="rgb(40%, 40%, 40%)" fill-opacity="1">
<use xlink:href="#glyph-0-2" x="677.640625" y="384.886719"/>
</g>
<g fill="rgb(74.901961%, 9.803922%, 19.607843%)" fill-opacity="1">
<use xlink:href="#glyph-1-1" x="383.835938" y="417.924805"/>
</g>
<g fill="rgb(74.901961%, 9.803922%, 19.607843%)" fill-opacity="1">
<use xlink:href="#glyph-2-1" x="27.885742" y="191.164062"/>
</g>
</svg>
