<?xml version="1.0" encoding="UTF-8" standalone="no"?>
<!DOCTYPE svg PUBLIC "-//W3C//DTD SVG 1.1//EN" "http://www.w3.org/Graphics/SVG/1.1/DTD/svg11.dtd">
<svg width="100%" height="100%" viewBox="0 0 576 288" version="1.1" xmlns="http://www.w3.org/2000/svg" xmlns:xlink="http://www.w3.org/1999/xlink" xml:space="preserve" xmlns:serif="http://www.serif.com/" style="fill-rule:evenodd;clip-rule:evenodd;">
    <g>
        <rect x="0" y="0" width="576" height="288" style="fill:white;"/>
        <g>
            <clipPath id="_clip1">
                <rect x="0" y="0" width="576" height="288"/>
            </clipPath>
            <g clip-path="url(#_clip1)">
                <rect x="0" y="0" width="576" height="288" style="fill:white;"/>
            </g>
        </g>
        <g transform="matrix(1,0,0,1,-64.2151,5.986)">
            <clipPath id="_clip2">
                <rect x="0" y="0" width="576" height="288"/>
            </clipPath>
            <g clip-path="url(#_clip2)">
                <rect x="0" y="0" width="576" height="288" style="fill:white;"/>
            </g>
        </g>
        <g transform="matrix(1,0,0,1,-100.053,5.986)">
            <clipPath id="_clip3">
                <rect x="0" y="0" width="576" height="288"/>
            </clipPath>
            <g clip-path="url(#_clip3)">
                <rect x="0" y="0" width="576" height="288" style="fill:white;"/>
            </g>
        </g>
        <g>
            <clipPath id="_clip4">
                <rect x="102.99" y="13.95" width="459.06" height="193.89"/>
            </clipPath>
            <g clip-path="url(#_clip4)">
                <path d="M102.99,183.6L562.05,183.6" style="fill:none;fill-rule:nonzero;stroke:rgb(235,235,235);stroke-width:1.36px;"/>
                <path d="M102.99,135.13L562.05,135.13" style="fill:none;fill-rule:nonzero;stroke:rgb(235,235,235);stroke-width:1.36px;"/>
                <path d="M102.99,86.65L562.05,86.65" style="fill:none;fill-rule:nonzero;stroke:rgb(235,235,235);stroke-width:1.36px;"/>
                <path d="M102.99,38.18L562.05,38.18" style="fill:none;fill-rule:nonzero;stroke:rgb(235,235,235);stroke-width:1.36px;"/>
                <path d="M102.99,207.83L562.05,207.83" style="fill:none;fill-rule:nonzero;stroke:rgb(235,235,235);stroke-width:2.72px;"/>
                <path d="M102.99,159.36L562.05,159.36" style="fill:none;fill-rule:nonzero;stroke:rgb(235,235,235);stroke-width:2.72px;"/>
                <path d="M102.99,110.89L562.05,110.89" style="fill:none;fill-rule:nonzero;stroke:rgb(235,235,235);stroke-width:2.72px;"/>
                <path d="M102.99,62.42L562.05,62.42" style="fill:none;fill-rule:nonzero;stroke:rgb(235,235,235);stroke-width:2.72px;"/>
                <path d="M102.99,13.95L562.05,13.95" style="fill:none;fill-rule:nonzero;stroke:rgb(235,235,235);stroke-width:2.72px;"/>
                <path d="M102.99,207.83L102.99,13.95" style="fill:none;fill-rule:nonzero;stroke:rgb(235,235,235);stroke-width:2.72px;"/>
                <path d="M148.9,207.83L148.9,13.95" style="fill:none;fill-rule:nonzero;stroke:rgb(235,235,235);stroke-width:2.72px;"/>
                <path d="M194.81,207.83L194.81,13.95" style="fill:none;fill-rule:nonzero;stroke:rgb(235,235,235);stroke-width:2.72px;"/>
                <path d="M240.71,207.83L240.71,13.95" style="fill:none;fill-rule:nonzero;stroke:rgb(235,235,235);stroke-width:2.72px;"/>
                <path d="M286.62,207.83L286.62,13.95" style="fill:none;fill-rule:nonzero;stroke:rgb(235,235,235);stroke-width:2.72px;"/>
                <path d="M332.52,207.83L332.52,13.95" style="fill:none;fill-rule:nonzero;stroke:rgb(235,235,235);stroke-width:2.72px;"/>
                <path d="M378.43,207.83L378.43,13.95" style="fill:none;fill-rule:nonzero;stroke:rgb(235,235,235);stroke-width:2.72px;"/>
                <path d="M424.33,207.83L424.33,13.95" style="fill:none;fill-rule:nonzero;stroke:rgb(235,235,235);stroke-width:2.72px;"/>
                <path d="M470.24,207.83L470.24,13.95" style="fill:none;fill-rule:nonzero;stroke:rgb(235,235,235);stroke-width:2.72px;"/>
                <path d="M516.15,207.83L516.15,13.95" style="fill:none;fill-rule:nonzero;stroke:rgb(235,235,235);stroke-width:2.72px;"/>
                <path d="M562.05,207.83L562.05,13.95" style="fill:none;fill-rule:nonzero;stroke:rgb(235,235,235);stroke-width:2.72px;"/>
                <path d="M102.99,206.54L107.63,206.4L112.27,206.25L116.91,206.08L121.54,205.9L126.18,205.69L130.82,205.47L135.45,205.22L140.09,204.95L144.73,204.64L149.36,204.31L154,203.94L158.64,203.54L163.27,203.1L167.91,202.61L172.55,202.07L177.19,201.47L181.82,200.82L186.46,200.11L191.1,199.32L195.73,198.46L200.37,197.52L205.01,196.48L209.64,195.36L214.28,194.12L218.92,192.78L223.55,191.31L228.19,189.72L232.83,188L237.47,186.12L242.1,184.1L246.74,181.91L251.38,179.56L256.01,177.03L260.65,174.32L265.29,171.43L269.92,168.35L274.56,165.08L279.2,161.62L283.84,157.97L288.47,154.14L293.11,150.13L297.75,145.95L302.38,141.62L307.02,137.15L311.66,132.55L316.29,127.85L320.93,123.07L325.57,118.22L330.2,113.34L334.84,108.44L339.48,103.56L344.12,98.71L348.75,93.93L353.39,89.23L358.03,84.63L362.66,80.16L367.3,75.83L371.94,71.65L376.57,67.65L381.21,63.81L385.85,60.16L390.49,56.7L395.12,53.43L399.76,50.35L404.4,47.46L409.03,44.75L413.67,42.22L418.31,39.87L422.94,37.68L427.58,35.66L432.22,33.79L436.85,32.06L441.49,30.47L446.13,29L450.77,27.66L455.4,26.43L460.04,25.3L464.68,24.26L469.31,23.32L473.95,22.46L478.59,21.68L483.22,20.96L487.86,20.31L492.5,19.72L497.13,19.18L501.77,18.69L506.41,18.24L511.05,17.84L515.68,17.47L520.32,17.14L524.96,16.84L529.59,16.56L534.23,16.31L538.87,16.09L543.5,15.88L548.14,15.7L552.78,15.53L557.42,15.38L562.05,15.25" style="fill:none;fill-rule:nonzero;stroke:black;stroke-width:3px;stroke-linejoin:round;stroke-miterlimit:2;"/>
            </g>
        </g>
        <g>
            <g transform="matrix(1,0,0,1,90.44,215.85)">
                <text x="-43.597px" y="0px" style="font-family:'ArialMT', 'Arial', sans-serif;font-size:22.4px;fill:rgb(77,77,77);">0.00</text>
            </g>
            <g transform="matrix(1,0,0,1,90.44,167.38)">
                <text x="-43.597px" y="0px" style="font-family:'ArialMT', 'Arial', sans-serif;font-size:22.4px;fill:rgb(77,77,77);">0.25</text>
            </g>
            <g transform="matrix(1,0,0,1,90.44,118.91)">
                <text x="-43.597px" y="0px" style="font-family:'ArialMT', 'Arial', sans-serif;font-size:22.4px;fill:rgb(187,55,37);">0.50</text>
            </g>
            <g transform="matrix(1,0,0,1,90.44,70.44)">
                <text x="-43.597px" y="0px" style="font-family:'ArialMT', 'Arial', sans-serif;font-size:22.4px;fill:rgb(77,77,77);">0.75</text>
            </g>
            <g transform="matrix(1,0,0,1,90.44,21.96)">
                <text x="-43.597px" y="0px" style="font-family:'ArialMT', 'Arial', sans-serif;font-size:22.4px;fill:rgb(77,77,77);">1.00</text>
            </g>
            <g transform="matrix(1,0,0,1,102.99,236.42)">
                <text x="-9.959px" y="0px" style="font-family:'ArialMT', 'Arial', sans-serif;font-size:22.4px;fill:rgb(77,77,77);">-5</text>
            </g>
            <g transform="matrix(1,0,0,1,148.9,236.42)">
                <text x="-9.959px" y="0px" style="font-family:'ArialMT', 'Arial', sans-serif;font-size:22.4px;fill:rgb(77,77,77);">-4</text>
            </g>
            <g transform="matrix(1,0,0,1,194.81,236.42)">
                <text x="-9.959px" y="0px" style="font-family:'ArialMT', 'Arial', sans-serif;font-size:22.4px;fill:rgb(77,77,77);">-3</text>
            </g>
            <g transform="matrix(1,0,0,1,240.71,236.42)">
                <text x="-9.959px" y="0px" style="font-family:'ArialMT', 'Arial', sans-serif;font-size:22.4px;fill:rgb(77,77,77);">-2</text>
            </g>
            <g transform="matrix(1,0,0,1,286.62,236.42)">
                <text x="-9.959px" y="0px" style="font-family:'ArialMT', 'Arial', sans-serif;font-size:22.4px;fill:rgb(77,77,77);">-1</text>
            </g>
            <g transform="matrix(1,0,0,1,332.52,236.42)">
                <text x="-6.229px" y="0px" style="font-family:'ArialMT', 'Arial', sans-serif;font-size:22.4px;fill:rgb(187,55,37);">0</text>
            </g>
            <g transform="matrix(1,0,0,1,378.43,236.42)">
                <text x="-6.229px" y="0px" style="font-family:'ArialMT', 'Arial', sans-serif;font-size:22.4px;fill:rgb(77,77,77);">1</text>
            </g>
            <g transform="matrix(1,0,0,1,424.33,236.42)">
                <text x="-6.229px" y="0px" style="font-family:'ArialMT', 'Arial', sans-serif;font-size:22.4px;fill:rgb(77,77,77);">2</text>
            </g>
            <g transform="matrix(1,0,0,1,470.24,236.42)">
                <text x="-6.229px" y="0px" style="font-family:'ArialMT', 'Arial', sans-serif;font-size:22.4px;fill:rgb(77,77,77);">3</text>
            </g>
            <g transform="matrix(1,0,0,1,516.15,236.42)">
                <text x="-6.229px" y="0px" style="font-family:'ArialMT', 'Arial', sans-serif;font-size:22.4px;fill:rgb(77,77,77);">4</text>
            </g>
            <g transform="matrix(1,0,0,1,562.05,236.42)">
                <text x="-6.229px" y="0px" style="font-family:'ArialMT', 'Arial', sans-serif;font-size:22.4px;fill:rgb(77,77,77);">5</text>
            </g>
            <g transform="matrix(1,0,0,1,332.52,268.16)">
                <text x="-58.379px" y="0px" style="font-family:'ArialMT', 'Arial', sans-serif;font-size:28px;">Log-odds</text>
            </g>
            <g transform="matrix(-3.82857e-16,-1,1,-3.82857e-16,33.99,110.89)">
                <text x="-65.365px" y="0px" style="font-family:'ArialMT', 'Arial', sans-serif;font-size:28px;">Probability</text>
            </g>
        </g>
    </g>
    <path d="M319.02,192.219L332.52,205.719L346.02,192.219" style="fill:none;stroke:rgb(187,55,37);stroke-width:3px;stroke-linecap:round;stroke-miterlimit:10;"/>
    <path d="M118.611,124.395L105.111,110.895L118.611,97.395" style="fill:none;stroke:rgb(187,55,37);stroke-width:3px;stroke-linecap:round;stroke-miterlimit:10;"/>
    <path d="M332.52,205.719L332.52,110.895L105.111,110.895" style="fill:none;stroke:rgb(187,55,37);stroke-width:3px;stroke-linecap:round;stroke-linejoin:round;stroke-miterlimit:1.5;"/>
</svg>
