<?xml version="1.0" encoding="UTF-8" standalone="no"?>
<!DOCTYPE svg PUBLIC "-//W3C//DTD SVG 1.1//EN" "http://www.w3.org/Graphics/SVG/1.1/DTD/svg11.dtd">
<svg width="100%" height="100%" viewBox="0 0 504 504" version="1.1" xmlns="http://www.w3.org/2000/svg" xmlns:xlink="http://www.w3.org/1999/xlink" xml:space="preserve" xmlns:serif="http://www.serif.com/" style="fill-rule:evenodd;clip-rule:evenodd;">
    <g>
        <g>
            <rect x="0" y="0" width="504" height="504" style="fill:white;"/>
        </g>
        <g>
            <clipPath id="_clip1">
                <rect x="102.99" y="13.95" width="387.06" height="409.89"/>
            </clipPath>
            <g clip-path="url(#_clip1)">
                <path d="M102.99,372.6L490.05,372.6" style="fill:none;fill-rule:nonzero;stroke:rgb(235,235,235);stroke-width:1.36px;"/>
                <path d="M102.99,270.13L490.05,270.13" style="fill:none;fill-rule:nonzero;stroke:rgb(235,235,235);stroke-width:1.36px;"/>
                <path d="M102.99,167.65L490.05,167.65" style="fill:none;fill-rule:nonzero;stroke:rgb(235,235,235);stroke-width:1.36px;"/>
                <path d="M102.99,65.18L490.05,65.18" style="fill:none;fill-rule:nonzero;stroke:rgb(235,235,235);stroke-width:1.36px;"/>
                <path d="M102.99,423.83L490.05,423.83" style="fill:none;fill-rule:nonzero;stroke:rgb(235,235,235);stroke-width:2.72px;"/>
                <path d="M102.99,321.36L490.05,321.36" style="fill:none;fill-rule:nonzero;stroke:rgb(235,235,235);stroke-width:2.72px;"/>
                <path d="M102.99,218.89L490.05,218.89" style="fill:none;fill-rule:nonzero;stroke:rgb(235,235,235);stroke-width:2.72px;"/>
                <path d="M102.99,116.42L490.05,116.42" style="fill:none;fill-rule:nonzero;stroke:rgb(235,235,235);stroke-width:2.72px;"/>
                <path d="M102.99,13.95L490.05,13.95" style="fill:none;fill-rule:nonzero;stroke:rgb(235,235,235);stroke-width:2.72px;"/>
                <path d="M102.99,423.83L102.99,13.95" style="fill:none;fill-rule:nonzero;stroke:rgb(235,235,235);stroke-width:2.72px;"/>
                <path d="M141.7,423.83L141.7,13.95" style="fill:none;fill-rule:nonzero;stroke:rgb(235,235,235);stroke-width:2.72px;"/>
                <path d="M180.41,423.83L180.41,13.95" style="fill:none;fill-rule:nonzero;stroke:rgb(235,235,235);stroke-width:2.72px;"/>
                <path d="M219.11,423.83L219.11,13.95" style="fill:none;fill-rule:nonzero;stroke:rgb(235,235,235);stroke-width:2.72px;"/>
                <path d="M257.82,423.83L257.82,13.95" style="fill:none;fill-rule:nonzero;stroke:rgb(235,235,235);stroke-width:2.72px;"/>
                <path d="M296.52,423.83L296.52,13.95" style="fill:none;fill-rule:nonzero;stroke:rgb(235,235,235);stroke-width:2.72px;"/>
                <path d="M335.23,423.83L335.23,13.95" style="fill:none;fill-rule:nonzero;stroke:rgb(235,235,235);stroke-width:2.72px;"/>
                <path d="M373.93,423.83L373.93,13.95" style="fill:none;fill-rule:nonzero;stroke:rgb(235,235,235);stroke-width:2.72px;"/>
                <path d="M412.64,423.83L412.64,13.95" style="fill:none;fill-rule:nonzero;stroke:rgb(235,235,235);stroke-width:2.72px;"/>
                <path d="M451.35,423.83L451.35,13.95" style="fill:none;fill-rule:nonzero;stroke:rgb(235,235,235);stroke-width:2.72px;"/>
                <path d="M490.05,423.83L490.05,13.95" style="fill:none;fill-rule:nonzero;stroke:rgb(235,235,235);stroke-width:2.72px;"/>
                <path d="M102.99,421.09L106.9,420.8L110.81,420.48L114.72,420.13L118.63,419.74L122.54,419.31L126.45,418.83L130.36,418.31L134.27,417.73L138.18,417.09L142.09,416.39L146,415.61L149.91,414.76L153.82,413.82L157.73,412.78L161.64,411.64L165.55,410.39L169.46,409.01L173.37,407.5L177.28,405.84L181.19,404.02L185.1,402.02L189.01,399.84L192.92,397.45L196.83,394.85L200.74,392.01L204.65,388.91L208.56,385.55L212.47,381.89L216.37,377.94L220.28,373.65L224.19,369.03L228.1,364.06L232.01,358.72L235.92,352.99L239.83,346.87L243.74,340.36L247.65,333.44L251.56,326.13L255.47,318.41L259.38,310.31L263.29,301.84L267.2,293.01L271.11,283.85L275.02,274.4L278.93,264.68L282.84,254.75L286.75,244.63L290.66,234.39L294.57,224.06L298.48,213.72L302.39,203.39L306.3,193.15L310.21,183.04L314.12,173.1L318.03,163.38L321.94,153.93L325.85,144.77L329.76,135.94L333.67,127.47L337.57,119.37L341.48,111.65L345.39,104.34L349.3,97.42L353.21,90.91L357.12,84.79L361.03,79.07L364.94,73.72L368.85,68.75L372.76,64.13L376.67,59.85L380.58,55.89L384.49,52.23L388.4,48.87L392.31,45.77L396.22,42.93L400.13,40.33L404.04,37.94L407.95,35.76L411.86,33.76L415.77,31.94L419.68,30.28L423.59,28.77L427.5,27.39L431.41,26.14L435.32,25L439.23,23.96L443.14,23.02L447.05,22.17L450.96,21.39L454.87,20.69L458.77,20.05L462.68,19.47L466.59,18.95L470.5,18.47L474.41,18.04L478.32,17.65L482.23,17.3L486.14,16.98L490.05,16.69" style="fill:none;fill-rule:nonzero;stroke:black;stroke-width:4.5px;stroke-linejoin:round;stroke-miterlimit:2;"/>
            </g>
        </g>
        <g>
            <g transform="matrix(1,0,0,1,90.44,431.85)">
                <text x="-43.597px" y="0px" style="font-family:'ArialMT', 'Arial', sans-serif;font-size:22.4px;fill:rgb(77,77,77);">0.00</text>
            </g>
            <g transform="matrix(1,0,0,1,90.44,329.38)">
                <text x="-43.597px" y="0px" style="font-family:'ArialMT', 'Arial', sans-serif;font-size:22.4px;fill:rgb(77,77,77);">0.25</text>
            </g>
            <g transform="matrix(1,0,0,1,90.44,226.91)">
                <text x="-43.597px" y="0px" style="font-family:'ArialMT', 'Arial', sans-serif;font-size:22.4px;fill:rgb(77,77,77);">0.50</text>
            </g>
            <g transform="matrix(1,0,0,1,90.44,124.44)">
                <text x="-43.597px" y="0px" style="font-family:'ArialMT', 'Arial', sans-serif;font-size:22.4px;fill:rgb(77,77,77);">0.75</text>
            </g>
            <g transform="matrix(1,0,0,1,90.44,21.96)">
                <text x="-43.597px" y="0px" style="font-family:'ArialMT', 'Arial', sans-serif;font-size:22.4px;fill:rgb(77,77,77);">1.00</text>
            </g>
            <g transform="matrix(1,0,0,1,102.99,452.42)">
                <text x="-9.959px" y="0px" style="font-family:'ArialMT', 'Arial', sans-serif;font-size:22.4px;fill:rgb(77,77,77);">-5</text>
            </g>
            <g transform="matrix(1,0,0,1,141.7,452.42)">
                <text x="-9.959px" y="0px" style="font-family:'ArialMT', 'Arial', sans-serif;font-size:22.4px;fill:rgb(77,77,77);">-4</text>
            </g>
            <g transform="matrix(1,0,0,1,180.41,452.42)">
                <text x="-9.959px" y="0px" style="font-family:'ArialMT', 'Arial', sans-serif;font-size:22.4px;fill:rgb(77,77,77);">-3</text>
            </g>
            <g transform="matrix(1,0,0,1,219.11,452.42)">
                <text x="-9.959px" y="0px" style="font-family:'ArialMT', 'Arial', sans-serif;font-size:22.4px;fill:rgb(77,77,77);">-2</text>
            </g>
            <g transform="matrix(1,0,0,1,257.82,452.42)">
                <text x="-9.959px" y="0px" style="font-family:'ArialMT', 'Arial', sans-serif;font-size:22.4px;fill:rgb(77,77,77);">-1</text>
            </g>
            <g transform="matrix(1,0,0,1,296.52,452.42)">
                <text x="-6.229px" y="0px" style="font-family:'ArialMT', 'Arial', sans-serif;font-size:22.4px;fill:rgb(77,77,77);">0</text>
            </g>
            <g transform="matrix(1,0,0,1,335.23,452.42)">
                <text x="-6.229px" y="0px" style="font-family:'ArialMT', 'Arial', sans-serif;font-size:22.4px;fill:rgb(77,77,77);">1</text>
            </g>
            <g transform="matrix(1,0,0,1,373.93,452.42)">
                <text x="-6.229px" y="0px" style="font-family:'ArialMT', 'Arial', sans-serif;font-size:22.4px;fill:rgb(77,77,77);">2</text>
            </g>
            <g transform="matrix(1,0,0,1,412.64,452.42)">
                <text x="-6.229px" y="0px" style="font-family:'ArialMT', 'Arial', sans-serif;font-size:22.4px;fill:rgb(77,77,77);">3</text>
            </g>
            <g transform="matrix(1,0,0,1,451.35,452.42)">
                <text x="-6.229px" y="0px" style="font-family:'ArialMT', 'Arial', sans-serif;font-size:22.4px;fill:rgb(77,77,77);">4</text>
            </g>
            <g transform="matrix(1,0,0,1,490.05,452.42)">
                <text x="-6.229px" y="0px" style="font-family:'ArialMT', 'Arial', sans-serif;font-size:22.4px;fill:rgb(77,77,77);">5</text>
            </g>
            <g transform="matrix(1,0,0,1,296.52,484.16)">
                <text x="-58.379px" y="0px" style="font-family:'ArialMT', 'Arial', sans-serif;font-size:28px;">Log-odds</text>
            </g>
            <g transform="matrix(-3.82857e-16,-1,1,-3.82857e-16,33.99,218.89)">
                <text x="-65.365px" y="0px" style="font-family:'ArialMT', 'Arial', sans-serif;font-size:28px;">Probability</text>
            </g>
        </g>
    </g>
    <g id="Layer1">
        <path d="M296.52,423.84L296.52,218.895L102.99,218.89" style="fill:none;stroke:rgb(187,55,37);stroke-width:4.5px;stroke-linejoin:round;stroke-miterlimit:1.5;"/>
    </g>
</svg>
