<?xml version="1.0" encoding="UTF-8" standalone="no"?>
<!DOCTYPE svg PUBLIC "-//W3C//DTD SVG 1.1//EN" "http://www.w3.org/Graphics/SVG/1.1/DTD/svg11.dtd">
<svg width="100%" height="100%" viewBox="0 0 2481 1749" version="1.1" xmlns="http://www.w3.org/2000/svg" xmlns:xlink="http://www.w3.org/1999/xlink" xml:space="preserve" xmlns:serif="http://www.serif.com/" style="fill-rule:evenodd;clip-rule:evenodd;stroke-linecap:round;stroke-linejoin:round;stroke-miterlimit:1.5;">
    <g transform="matrix(1,0,0,1,-13.7621,-193.984)">
        <g>
            <g transform="matrix(1,0,0,1,511.22,457.684)">
                <path d="M1098.74,314.597L1098.74,518.067C1098.74,574.216 1053.15,619.802 997.002,619.802L416.148,619.802C359.999,619.802 314.413,574.216 314.413,518.067L314.413,314.597C314.413,258.448 359.999,212.862 416.148,212.862L997.002,212.862C1053.15,212.862 1098.74,258.448 1098.74,314.597Z" style="fill:rgb(187,55,37);fill-opacity:0.2;"/>
            </g>
            <g>
                <g transform="matrix(1,0,0,1,608.569,541.106)">
                    <g transform="matrix(66.6667,0,0,66.6667,318.34,228.017)">
                        <path d="M0.083,-0L0.083,-0.654L0.199,-0.654L0.199,-0.391L0.464,-0.391L0.464,-0.654L0.58,-0.654L0.58,-0L0.464,-0L0.464,-0.29L0.199,-0.29L0.199,-0L0.083,-0Z" style="fill-rule:nonzero;"/>
                    </g>
                    <g transform="matrix(66.6667,0,0,66.6667,362.54,228.017)">
                        <path d="M0.192,0.012C0.163,0.012 0.138,0.006 0.116,-0.006C0.094,-0.018 0.077,-0.035 0.065,-0.057C0.052,-0.078 0.046,-0.103 0.046,-0.132C0.046,-0.187 0.069,-0.229 0.116,-0.258C0.162,-0.286 0.235,-0.305 0.336,-0.316C0.335,-0.333 0.332,-0.348 0.327,-0.362C0.321,-0.376 0.312,-0.387 0.299,-0.396C0.286,-0.404 0.268,-0.408 0.246,-0.408C0.222,-0.408 0.199,-0.404 0.176,-0.395C0.153,-0.386 0.13,-0.375 0.108,-0.362L0.066,-0.44C0.084,-0.451 0.104,-0.462 0.125,-0.472C0.146,-0.481 0.169,-0.489 0.193,-0.495C0.217,-0.5 0.242,-0.503 0.268,-0.503C0.309,-0.503 0.343,-0.495 0.37,-0.479C0.397,-0.462 0.417,-0.438 0.431,-0.407C0.444,-0.375 0.451,-0.336 0.451,-0.29L0.451,-0L0.356,-0L0.348,-0.054L0.344,-0.054C0.321,-0.035 0.298,-0.02 0.273,-0.007C0.248,0.006 0.221,0.012 0.192,0.012ZM0.228,-0.082C0.248,-0.082 0.267,-0.086 0.284,-0.095C0.301,-0.103 0.318,-0.115 0.336,-0.132L0.336,-0.236C0.291,-0.231 0.256,-0.224 0.23,-0.215C0.204,-0.206 0.186,-0.196 0.175,-0.184C0.164,-0.171 0.158,-0.157 0.158,-0.14C0.158,-0.119 0.165,-0.105 0.178,-0.096C0.191,-0.087 0.208,-0.082 0.228,-0.082Z" style="fill-rule:nonzero;"/>
                    </g>
                    <g transform="matrix(66.6667,0,0,66.6667,396.94,228.017)">
                        <path d="M0.245,0.012C0.184,0.012 0.135,-0.011 0.098,-0.056C0.062,-0.102 0.043,-0.165 0.043,-0.245C0.043,-0.299 0.053,-0.344 0.073,-0.383C0.092,-0.421 0.118,-0.451 0.15,-0.472C0.182,-0.493 0.215,-0.503 0.251,-0.503C0.279,-0.503 0.303,-0.498 0.323,-0.489C0.342,-0.479 0.361,-0.466 0.38,-0.449L0.376,-0.528L0.376,-0.706L0.491,-0.706L0.491,-0L0.396,-0L0.388,-0.053L0.384,-0.053C0.366,-0.035 0.345,-0.02 0.321,-0.007C0.297,0.006 0.271,0.012 0.245,0.012ZM0.273,-0.083C0.292,-0.083 0.31,-0.088 0.327,-0.097C0.343,-0.105 0.36,-0.119 0.376,-0.138L0.376,-0.367C0.359,-0.382 0.342,-0.393 0.326,-0.399C0.309,-0.405 0.293,-0.408 0.276,-0.408C0.255,-0.408 0.236,-0.402 0.219,-0.389C0.201,-0.377 0.188,-0.358 0.177,-0.334C0.167,-0.31 0.162,-0.281 0.162,-0.246C0.162,-0.193 0.171,-0.153 0.191,-0.125C0.211,-0.097 0.238,-0.083 0.273,-0.083Z" style="fill-rule:nonzero;"/>
                    </g>
                    <g transform="matrix(66.6667,0,0,66.6667,434.54,228.017)">
                    </g>
                    <g transform="matrix(66.6667,0,0,66.6667,447.874,228.017)">
                        <path d="M0.311,0.012C0.289,0.012 0.266,0.007 0.243,-0.005C0.22,-0.016 0.198,-0.031 0.177,-0.052L0.174,-0.052L0.164,-0L0.073,-0L0.073,-0.706L0.188,-0.706L0.188,-0.524L0.185,-0.442C0.206,-0.46 0.228,-0.475 0.253,-0.486C0.277,-0.498 0.302,-0.503 0.327,-0.503C0.368,-0.503 0.403,-0.493 0.432,-0.472C0.461,-0.452 0.483,-0.423 0.498,-0.386C0.513,-0.348 0.521,-0.304 0.521,-0.254C0.521,-0.198 0.511,-0.15 0.491,-0.11C0.471,-0.07 0.445,-0.04 0.414,-0.019C0.382,0.002 0.348,0.012 0.311,0.012ZM0.287,-0.083C0.309,-0.083 0.328,-0.09 0.346,-0.102C0.363,-0.115 0.377,-0.134 0.387,-0.159C0.397,-0.184 0.402,-0.215 0.402,-0.252C0.402,-0.285 0.399,-0.313 0.391,-0.336C0.384,-0.359 0.372,-0.377 0.357,-0.389C0.341,-0.402 0.321,-0.408 0.296,-0.408C0.278,-0.408 0.261,-0.404 0.243,-0.395C0.225,-0.386 0.207,-0.372 0.188,-0.353L0.188,-0.124C0.206,-0.109 0.223,-0.099 0.24,-0.093C0.257,-0.086 0.273,-0.083 0.287,-0.083Z" style="fill-rule:nonzero;"/>
                    </g>
                    <g transform="matrix(66.6667,0,0,66.6667,485.42,228.017)">
                        <path d="M0.073,-0L0.073,-0.491L0.168,-0.491L0.176,-0.404L0.18,-0.404C0.197,-0.436 0.218,-0.46 0.242,-0.478C0.267,-0.495 0.292,-0.503 0.319,-0.503C0.332,-0.503 0.342,-0.502 0.351,-0.501C0.36,-0.499 0.368,-0.497 0.375,-0.493L0.352,-0.395C0.344,-0.397 0.337,-0.399 0.33,-0.4C0.324,-0.401 0.315,-0.401 0.304,-0.401C0.285,-0.401 0.264,-0.394 0.243,-0.379C0.221,-0.364 0.203,-0.337 0.188,-0.3L0.188,-0L0.073,-0Z" style="fill-rule:nonzero;"/>
                    </g>
                    <g transform="matrix(66.6667,0,0,66.6667,509.633,228.017)">
                        <path d="M0.284,0.012C0.238,0.012 0.197,0.002 0.16,-0.019C0.123,-0.039 0.093,-0.068 0.072,-0.107C0.051,-0.145 0.04,-0.191 0.04,-0.246C0.04,-0.299 0.051,-0.345 0.073,-0.384C0.095,-0.422 0.123,-0.451 0.158,-0.472C0.193,-0.493 0.229,-0.503 0.268,-0.503C0.313,-0.503 0.35,-0.493 0.38,-0.473C0.41,-0.453 0.432,-0.426 0.448,-0.391C0.463,-0.356 0.47,-0.315 0.47,-0.27C0.47,-0.259 0.47,-0.249 0.469,-0.239C0.468,-0.229 0.466,-0.219 0.464,-0.21L0.126,-0.21L0.126,-0.298L0.368,-0.298C0.368,-0.333 0.36,-0.361 0.344,-0.382C0.328,-0.402 0.303,-0.412 0.27,-0.412C0.251,-0.412 0.233,-0.407 0.216,-0.397C0.198,-0.387 0.183,-0.37 0.172,-0.346C0.16,-0.322 0.154,-0.289 0.154,-0.246C0.154,-0.207 0.161,-0.176 0.174,-0.152C0.187,-0.127 0.205,-0.109 0.227,-0.098C0.249,-0.086 0.273,-0.08 0.298,-0.08C0.319,-0.08 0.339,-0.083 0.359,-0.089C0.378,-0.095 0.395,-0.103 0.412,-0.114L0.452,-0.04C0.429,-0.024 0.403,-0.011 0.375,-0.002C0.345,0.007 0.315,0.012 0.284,0.012Z" style="fill-rule:nonzero;"/>
                    </g>
                    <g transform="matrix(66.6667,0,0,66.6667,542.633,228.017)">
                        <path d="M0.192,0.012C0.163,0.012 0.138,0.006 0.116,-0.006C0.094,-0.018 0.077,-0.035 0.065,-0.057C0.052,-0.078 0.046,-0.103 0.046,-0.132C0.046,-0.187 0.069,-0.229 0.116,-0.258C0.162,-0.286 0.235,-0.305 0.336,-0.316C0.335,-0.333 0.332,-0.348 0.327,-0.362C0.321,-0.376 0.312,-0.387 0.299,-0.396C0.286,-0.404 0.268,-0.408 0.246,-0.408C0.222,-0.408 0.199,-0.404 0.176,-0.395C0.153,-0.386 0.13,-0.375 0.108,-0.362L0.066,-0.44C0.084,-0.451 0.104,-0.462 0.125,-0.472C0.146,-0.481 0.169,-0.489 0.193,-0.495C0.217,-0.5 0.242,-0.503 0.268,-0.503C0.309,-0.503 0.343,-0.495 0.37,-0.479C0.397,-0.462 0.417,-0.438 0.431,-0.407C0.444,-0.375 0.451,-0.336 0.451,-0.29L0.451,-0L0.356,-0L0.348,-0.054L0.344,-0.054C0.321,-0.035 0.298,-0.02 0.273,-0.007C0.248,0.006 0.221,0.012 0.192,0.012ZM0.228,-0.082C0.248,-0.082 0.267,-0.086 0.284,-0.095C0.301,-0.103 0.318,-0.115 0.336,-0.132L0.336,-0.236C0.291,-0.231 0.256,-0.224 0.23,-0.215C0.204,-0.206 0.186,-0.196 0.175,-0.184C0.164,-0.171 0.158,-0.157 0.158,-0.14C0.158,-0.119 0.165,-0.105 0.178,-0.096C0.191,-0.087 0.208,-0.082 0.228,-0.082Z" style="fill-rule:nonzero;"/>
                    </g>
                    <g transform="matrix(66.6667,0,0,66.6667,577.033,228.017)">
                        <path d="M0.073,-0L0.073,-0.706L0.187,-0.706L0.187,-0.266L0.19,-0.266L0.37,-0.491L0.497,-0.491L0.33,-0.29L0.514,-0L0.389,-0L0.263,-0.213L0.187,-0.126L0.187,-0L0.073,-0Z" style="fill-rule:nonzero;"/>
                    </g>
                    <g transform="matrix(66.6667,0,0,66.6667,611.807,228.017)">
                        <path d="M0.093,-0L0.093,-0.542C0.093,-0.576 0.098,-0.606 0.109,-0.633C0.12,-0.66 0.138,-0.68 0.162,-0.696C0.186,-0.711 0.217,-0.718 0.256,-0.718C0.274,-0.718 0.29,-0.717 0.306,-0.713C0.322,-0.71 0.335,-0.706 0.346,-0.701L0.322,-0.618C0.305,-0.624 0.287,-0.627 0.27,-0.627C0.25,-0.627 0.235,-0.62 0.224,-0.607C0.213,-0.593 0.208,-0.572 0.208,-0.544L0.208,-0L0.093,-0ZM0.02,-0.4L0.02,-0.486L0.1,-0.491L0.304,-0.491L0.304,-0.4L0.02,-0.4Z" style="fill-rule:nonzero;"/>
                    </g>
                    <g transform="matrix(66.6667,0,0,66.6667,631.593,228.017)">
                        <path d="M0.192,0.012C0.163,0.012 0.138,0.006 0.116,-0.006C0.094,-0.018 0.077,-0.035 0.065,-0.057C0.052,-0.078 0.046,-0.103 0.046,-0.132C0.046,-0.187 0.069,-0.229 0.116,-0.258C0.162,-0.286 0.235,-0.305 0.336,-0.316C0.335,-0.333 0.332,-0.348 0.327,-0.362C0.321,-0.376 0.312,-0.387 0.299,-0.396C0.286,-0.404 0.268,-0.408 0.246,-0.408C0.222,-0.408 0.199,-0.404 0.176,-0.395C0.153,-0.386 0.13,-0.375 0.108,-0.362L0.066,-0.44C0.084,-0.451 0.104,-0.462 0.125,-0.472C0.146,-0.481 0.169,-0.489 0.193,-0.495C0.217,-0.5 0.242,-0.503 0.268,-0.503C0.309,-0.503 0.343,-0.495 0.37,-0.479C0.397,-0.462 0.417,-0.438 0.431,-0.407C0.444,-0.375 0.451,-0.336 0.451,-0.29L0.451,-0L0.356,-0L0.348,-0.054L0.344,-0.054C0.321,-0.035 0.298,-0.02 0.273,-0.007C0.248,0.006 0.221,0.012 0.192,0.012ZM0.228,-0.082C0.248,-0.082 0.267,-0.086 0.284,-0.095C0.301,-0.103 0.318,-0.115 0.336,-0.132L0.336,-0.236C0.291,-0.231 0.256,-0.224 0.23,-0.215C0.204,-0.206 0.186,-0.196 0.175,-0.184C0.164,-0.171 0.158,-0.157 0.158,-0.14C0.158,-0.119 0.165,-0.105 0.178,-0.096C0.191,-0.087 0.208,-0.082 0.228,-0.082Z" style="fill-rule:nonzero;"/>
                    </g>
                    <g transform="matrix(66.6667,0,0,66.6667,665.993,228.017)">
                        <path d="M0.21,0.012C0.176,0.012 0.142,0.006 0.109,-0.007C0.076,-0.019 0.048,-0.037 0.024,-0.06L0.075,-0.126C0.097,-0.108 0.119,-0.095 0.142,-0.087C0.164,-0.079 0.188,-0.075 0.214,-0.075C0.24,-0.075 0.26,-0.08 0.273,-0.092C0.286,-0.103 0.292,-0.117 0.292,-0.134C0.292,-0.147 0.288,-0.159 0.278,-0.168C0.268,-0.177 0.255,-0.185 0.24,-0.192C0.224,-0.199 0.207,-0.205 0.189,-0.212C0.165,-0.221 0.143,-0.231 0.122,-0.244C0.101,-0.256 0.084,-0.272 0.071,-0.29C0.058,-0.308 0.052,-0.33 0.052,-0.356C0.052,-0.399 0.068,-0.435 0.1,-0.462C0.132,-0.489 0.176,-0.503 0.23,-0.503C0.264,-0.503 0.294,-0.498 0.322,-0.487C0.35,-0.476 0.374,-0.462 0.394,-0.444L0.343,-0.379C0.326,-0.391 0.308,-0.401 0.29,-0.407C0.272,-0.413 0.253,-0.416 0.233,-0.416C0.208,-0.416 0.19,-0.411 0.178,-0.4C0.166,-0.39 0.16,-0.377 0.16,-0.362C0.16,-0.35 0.164,-0.34 0.172,-0.332C0.18,-0.323 0.191,-0.316 0.205,-0.31C0.22,-0.304 0.237,-0.297 0.258,-0.29C0.283,-0.281 0.307,-0.271 0.329,-0.258C0.351,-0.246 0.368,-0.23 0.381,-0.212C0.395,-0.193 0.401,-0.169 0.401,-0.14C0.401,-0.112 0.394,-0.087 0.379,-0.064C0.365,-0.041 0.343,-0.022 0.315,-0.009C0.287,0.005 0.252,0.012 0.21,0.012Z" style="fill-rule:nonzero;"/>
                    </g>
                    <g transform="matrix(66.6667,0,0,66.6667,693.406,228.017)">
                        <path d="M0.246,0.01C0.189,0.01 0.149,-0.007 0.126,-0.04C0.102,-0.073 0.09,-0.115 0.09,-0.168L0.09,-0.4L0.02,-0.4L0.02,-0.486L0.096,-0.491L0.11,-0.645L0.206,-0.645L0.206,-0.491L0.331,-0.491L0.331,-0.4L0.206,-0.4L0.206,-0.168C0.206,-0.139 0.212,-0.118 0.223,-0.104C0.234,-0.089 0.252,-0.082 0.275,-0.082C0.284,-0.082 0.292,-0.083 0.301,-0.084C0.31,-0.085 0.318,-0.088 0.326,-0.092L0.347,-0.011C0.334,-0.005 0.319,0 0.302,0.004C0.285,0.008 0.266,0.01 0.246,0.01Z" style="fill-rule:nonzero;"/>
                    </g>
                    <g transform="matrix(66.6667,0,0,66.6667,717.473,228.017)">
                    </g>
                    <g transform="matrix(66.6667,0,0,66.6667,730.806,228.017)">
                        <path d="M0.246,0.01C0.189,0.01 0.149,-0.007 0.126,-0.04C0.102,-0.073 0.09,-0.115 0.09,-0.168L0.09,-0.4L0.02,-0.4L0.02,-0.486L0.096,-0.491L0.11,-0.645L0.206,-0.645L0.206,-0.491L0.331,-0.491L0.331,-0.4L0.206,-0.4L0.206,-0.168C0.206,-0.139 0.212,-0.118 0.223,-0.104C0.234,-0.089 0.252,-0.082 0.275,-0.082C0.284,-0.082 0.292,-0.083 0.301,-0.084C0.31,-0.085 0.318,-0.088 0.326,-0.092L0.347,-0.011C0.334,-0.005 0.319,0 0.302,0.004C0.285,0.008 0.266,0.01 0.246,0.01Z" style="fill-rule:nonzero;"/>
                    </g>
                    <g transform="matrix(66.6667,0,0,66.6667,753.806,228.017)">
                        <path d="M0.274,0.012C0.234,0.012 0.195,0.002 0.16,-0.018C0.124,-0.039 0.096,-0.068 0.074,-0.106C0.052,-0.145 0.041,-0.191 0.041,-0.245C0.041,-0.3 0.052,-0.346 0.074,-0.385C0.096,-0.423 0.124,-0.453 0.16,-0.473C0.195,-0.493 0.234,-0.503 0.274,-0.503C0.315,-0.503 0.353,-0.493 0.389,-0.473C0.424,-0.453 0.453,-0.423 0.475,-0.385C0.497,-0.346 0.508,-0.3 0.508,-0.245C0.508,-0.191 0.497,-0.145 0.475,-0.106C0.453,-0.068 0.424,-0.039 0.389,-0.018C0.353,0.002 0.315,0.012 0.274,0.012ZM0.274,-0.082C0.298,-0.082 0.319,-0.089 0.336,-0.102C0.354,-0.116 0.367,-0.135 0.376,-0.159C0.385,-0.184 0.39,-0.212 0.39,-0.245C0.39,-0.278 0.385,-0.307 0.376,-0.331C0.367,-0.356 0.354,-0.375 0.336,-0.389C0.319,-0.402 0.298,-0.409 0.274,-0.409C0.25,-0.409 0.23,-0.402 0.213,-0.389C0.195,-0.375 0.182,-0.356 0.173,-0.331C0.164,-0.307 0.159,-0.278 0.159,-0.245C0.159,-0.212 0.164,-0.184 0.173,-0.159C0.182,-0.135 0.195,-0.116 0.213,-0.102C0.23,-0.089 0.25,-0.082 0.274,-0.082Z" style="fill-rule:nonzero;"/>
                    </g>
                    <g transform="matrix(66.6667,0,0,66.6667,790.393,228.017)">
                        <path d="M0.245,0.012C0.184,0.012 0.135,-0.011 0.098,-0.056C0.062,-0.102 0.043,-0.165 0.043,-0.245C0.043,-0.299 0.053,-0.344 0.073,-0.383C0.092,-0.421 0.118,-0.451 0.15,-0.472C0.182,-0.493 0.215,-0.503 0.251,-0.503C0.279,-0.503 0.303,-0.498 0.323,-0.489C0.342,-0.479 0.361,-0.466 0.38,-0.449L0.376,-0.528L0.376,-0.706L0.491,-0.706L0.491,-0L0.396,-0L0.388,-0.053L0.384,-0.053C0.366,-0.035 0.345,-0.02 0.321,-0.007C0.297,0.006 0.271,0.012 0.245,0.012ZM0.273,-0.083C0.292,-0.083 0.31,-0.088 0.327,-0.097C0.343,-0.105 0.36,-0.119 0.376,-0.138L0.376,-0.367C0.359,-0.382 0.342,-0.393 0.326,-0.399C0.309,-0.405 0.293,-0.408 0.276,-0.408C0.255,-0.408 0.236,-0.402 0.219,-0.389C0.201,-0.377 0.188,-0.358 0.177,-0.334C0.167,-0.31 0.162,-0.281 0.162,-0.246C0.162,-0.193 0.171,-0.153 0.191,-0.125C0.211,-0.097 0.238,-0.083 0.273,-0.083Z" style="fill-rule:nonzero;"/>
                    </g>
                    <g transform="matrix(66.6667,0,0,66.6667,827.993,228.017)">
                        <path d="M0.192,0.012C0.163,0.012 0.138,0.006 0.116,-0.006C0.094,-0.018 0.077,-0.035 0.065,-0.057C0.052,-0.078 0.046,-0.103 0.046,-0.132C0.046,-0.187 0.069,-0.229 0.116,-0.258C0.162,-0.286 0.235,-0.305 0.336,-0.316C0.335,-0.333 0.332,-0.348 0.327,-0.362C0.321,-0.376 0.312,-0.387 0.299,-0.396C0.286,-0.404 0.268,-0.408 0.246,-0.408C0.222,-0.408 0.199,-0.404 0.176,-0.395C0.153,-0.386 0.13,-0.375 0.108,-0.362L0.066,-0.44C0.084,-0.451 0.104,-0.462 0.125,-0.472C0.146,-0.481 0.169,-0.489 0.193,-0.495C0.217,-0.5 0.242,-0.503 0.268,-0.503C0.309,-0.503 0.343,-0.495 0.37,-0.479C0.397,-0.462 0.417,-0.438 0.431,-0.407C0.444,-0.375 0.451,-0.336 0.451,-0.29L0.451,-0L0.356,-0L0.348,-0.054L0.344,-0.054C0.321,-0.035 0.298,-0.02 0.273,-0.007C0.248,0.006 0.221,0.012 0.192,0.012ZM0.228,-0.082C0.248,-0.082 0.267,-0.086 0.284,-0.095C0.301,-0.103 0.318,-0.115 0.336,-0.132L0.336,-0.236C0.291,-0.231 0.256,-0.224 0.23,-0.215C0.204,-0.206 0.186,-0.196 0.175,-0.184C0.164,-0.171 0.158,-0.157 0.158,-0.14C0.158,-0.119 0.165,-0.105 0.178,-0.096C0.191,-0.087 0.208,-0.082 0.228,-0.082Z" style="fill-rule:nonzero;"/>
                    </g>
                    <g transform="matrix(66.6667,0,0,66.6667,862.393,228.017)">
                        <path d="M0.106,0.202C0.092,0.202 0.081,0.201 0.071,0.199C0.06,0.197 0.051,0.194 0.042,0.19L0.064,0.104C0.071,0.106 0.077,0.107 0.082,0.108C0.088,0.109 0.093,0.109 0.098,0.109C0.124,0.109 0.145,0.101 0.161,0.085C0.176,0.069 0.188,0.049 0.196,0.025L0.205,-0.006L0.012,-0.491L0.129,-0.491L0.214,-0.25C0.221,-0.229 0.229,-0.206 0.236,-0.183C0.243,-0.159 0.25,-0.135 0.257,-0.112L0.261,-0.112C0.267,-0.135 0.274,-0.158 0.28,-0.181C0.286,-0.205 0.292,-0.228 0.298,-0.25L0.372,-0.491L0.483,-0.491L0.305,0.022C0.292,0.059 0.276,0.091 0.259,0.118C0.242,0.145 0.221,0.165 0.196,0.18C0.172,0.194 0.141,0.202 0.106,0.202Z" style="fill-rule:nonzero;"/>
                    </g>
                    <g transform="matrix(66.6667,0,0,66.6667,895.379,228.017)">
                    </g>
                </g>
                <g transform="matrix(1,0,0,1,796.704,785.18)">
                    <g transform="matrix(66.6667,0,0,66.6667,570.563,228.017)">
                        <path d="M0.082,-0L0.082,-0.486L0.15,-0.486L0.157,-0.416L0.16,-0.416C0.183,-0.439 0.208,-0.459 0.234,-0.474C0.26,-0.49 0.29,-0.498 0.323,-0.498C0.374,-0.498 0.412,-0.482 0.436,-0.45C0.459,-0.417 0.471,-0.37 0.471,-0.308L0.471,-0L0.389,-0L0.389,-0.297C0.389,-0.343 0.382,-0.376 0.367,-0.396C0.353,-0.416 0.33,-0.427 0.297,-0.427C0.272,-0.427 0.25,-0.42 0.231,-0.408C0.211,-0.395 0.189,-0.377 0.164,-0.352L0.164,-0L0.082,-0Z" style="fill-rule:nonzero;"/>
                    </g>
                    <g transform="matrix(66.6667,0,0,66.6667,607.003,228.017)">
                        <path d="M0.271,0.012C0.231,0.012 0.194,0.002 0.16,-0.018C0.126,-0.038 0.098,-0.067 0.077,-0.105C0.056,-0.143 0.046,-0.189 0.046,-0.242C0.046,-0.296 0.056,-0.343 0.077,-0.381C0.098,-0.419 0.126,-0.448 0.16,-0.468C0.194,-0.488 0.231,-0.498 0.271,-0.498C0.311,-0.498 0.348,-0.488 0.382,-0.468C0.416,-0.448 0.444,-0.419 0.465,-0.381C0.486,-0.343 0.496,-0.296 0.496,-0.242C0.496,-0.189 0.486,-0.143 0.465,-0.105C0.444,-0.067 0.416,-0.038 0.382,-0.018C0.348,0.002 0.311,0.012 0.271,0.012ZM0.271,-0.056C0.299,-0.056 0.324,-0.064 0.345,-0.08C0.366,-0.095 0.382,-0.117 0.394,-0.145C0.406,-0.173 0.411,-0.205 0.411,-0.242C0.411,-0.28 0.406,-0.312 0.394,-0.34C0.382,-0.368 0.366,-0.39 0.345,-0.406C0.324,-0.422 0.299,-0.43 0.271,-0.43C0.243,-0.43 0.219,-0.422 0.198,-0.406C0.177,-0.39 0.16,-0.368 0.149,-0.34C0.137,-0.312 0.131,-0.28 0.131,-0.242C0.131,-0.205 0.137,-0.173 0.149,-0.145C0.16,-0.117 0.177,-0.095 0.198,-0.08C0.219,-0.064 0.243,-0.056 0.271,-0.056Z" style="fill-rule:nonzero;"/>
                    </g>
                    <g transform="matrix(66.6667,0,0,66.6667,643.157,228.017)">
                    </g>
                </g>
                <g transform="matrix(1,0,0,1,690.54,706.459)">
                    <g transform="matrix(66.6667,0,0,66.6667,308.165,306.738)">
                        <path d="M0.09,0.209C0.079,0.209 0.069,0.208 0.059,0.206C0.05,0.204 0.041,0.202 0.033,0.199L0.051,0.135C0.057,0.137 0.063,0.138 0.069,0.139C0.075,0.141 0.081,0.141 0.086,0.141C0.114,0.141 0.137,0.131 0.155,0.111C0.172,0.092 0.186,0.067 0.196,0.037L0.207,0.001L0.012,-0.486L0.097,-0.486L0.196,-0.217C0.204,-0.196 0.212,-0.174 0.22,-0.15C0.228,-0.126 0.236,-0.103 0.243,-0.08L0.247,-0.08C0.254,-0.102 0.261,-0.125 0.268,-0.149C0.275,-0.173 0.282,-0.196 0.288,-0.217L0.375,-0.486L0.455,-0.486L0.272,0.04C0.261,0.072 0.247,0.101 0.231,0.127C0.215,0.152 0.196,0.172 0.173,0.187C0.15,0.202 0.123,0.209 0.09,0.209Z" style="fill-rule:nonzero;"/>
                    </g>
                    <g transform="matrix(66.6667,0,0,66.6667,339.06,306.738)">
                        <path d="M0.279,0.012C0.236,0.012 0.196,0.002 0.161,-0.018C0.125,-0.039 0.097,-0.068 0.076,-0.106C0.056,-0.143 0.045,-0.189 0.045,-0.243C0.045,-0.296 0.056,-0.341 0.077,-0.379C0.098,-0.417 0.125,-0.447 0.159,-0.467C0.192,-0.488 0.228,-0.498 0.265,-0.498C0.306,-0.498 0.342,-0.489 0.371,-0.47C0.399,-0.451 0.421,-0.424 0.436,-0.39C0.451,-0.356 0.458,-0.316 0.458,-0.27C0.458,-0.262 0.458,-0.253 0.457,-0.245C0.457,-0.237 0.456,-0.229 0.454,-0.221L0.104,-0.221L0.104,-0.286L0.384,-0.286C0.384,-0.333 0.374,-0.369 0.354,-0.394C0.333,-0.419 0.304,-0.431 0.266,-0.431C0.244,-0.431 0.222,-0.425 0.201,-0.413C0.18,-0.4 0.162,-0.38 0.148,-0.353C0.135,-0.325 0.128,-0.289 0.128,-0.244C0.128,-0.202 0.135,-0.168 0.149,-0.14C0.164,-0.112 0.183,-0.091 0.208,-0.077C0.233,-0.062 0.26,-0.055 0.289,-0.055C0.312,-0.055 0.334,-0.059 0.354,-0.065C0.375,-0.072 0.393,-0.08 0.41,-0.092L0.44,-0.038C0.419,-0.023 0.395,-0.011 0.369,-0.002C0.342,0.007 0.312,0.012 0.279,0.012Z" style="fill-rule:nonzero;"/>
                    </g>
                    <g transform="matrix(66.6667,0,0,66.6667,372.112,306.738)">
                        <path d="M0.209,0.012C0.174,0.012 0.14,0.006 0.109,-0.007C0.077,-0.019 0.05,-0.036 0.028,-0.058L0.066,-0.106C0.087,-0.088 0.109,-0.075 0.132,-0.066C0.155,-0.057 0.182,-0.052 0.212,-0.052C0.244,-0.052 0.268,-0.06 0.284,-0.074C0.3,-0.089 0.308,-0.107 0.308,-0.128C0.308,-0.144 0.302,-0.158 0.292,-0.169C0.281,-0.18 0.267,-0.19 0.251,-0.197C0.234,-0.205 0.216,-0.212 0.198,-0.219C0.174,-0.228 0.151,-0.238 0.129,-0.25C0.107,-0.261 0.089,-0.276 0.076,-0.294C0.062,-0.311 0.055,-0.334 0.055,-0.36C0.055,-0.399 0.07,-0.432 0.099,-0.459C0.129,-0.485 0.17,-0.498 0.223,-0.498C0.253,-0.498 0.281,-0.493 0.307,-0.483C0.333,-0.473 0.355,-0.459 0.374,-0.443L0.336,-0.396C0.319,-0.408 0.301,-0.417 0.283,-0.424C0.265,-0.431 0.245,-0.434 0.223,-0.434C0.193,-0.434 0.17,-0.427 0.156,-0.413C0.141,-0.399 0.134,-0.383 0.134,-0.364C0.134,-0.349 0.138,-0.337 0.147,-0.327C0.156,-0.318 0.168,-0.309 0.184,-0.302C0.199,-0.295 0.217,-0.288 0.237,-0.281C0.262,-0.271 0.287,-0.261 0.31,-0.249C0.332,-0.238 0.351,-0.223 0.365,-0.205C0.38,-0.186 0.387,-0.162 0.387,-0.133C0.387,-0.106 0.38,-0.082 0.366,-0.06C0.353,-0.038 0.333,-0.021 0.306,-0.008C0.28,0.005 0.248,0.012 0.209,0.012Z" style="fill-rule:nonzero;"/>
                    </g>
                    <g transform="matrix(66.6667,0,0,66.6667,400.055,306.738)">
                    </g>
                </g>
                <g transform="matrix(1,0,0,1,514.368,457.218)">
                    <path d="M549.688,472.528L702.601,345.796L855.513,472.528" style="fill:none;stroke:black;stroke-width:8.33px;"/>
                </g>
            </g>
        </g>
        <g>
            <g transform="matrix(1,0,0,1,1090.87,410.342)">
                <g transform="matrix(66.6667,0,0,66.6667,-128.936,176.224)">
                    <path d="M0.13,-0L0.059,-0.486L0.135,-0.486L0.171,-0.205C0.174,-0.182 0.176,-0.157 0.178,-0.133C0.18,-0.108 0.183,-0.084 0.185,-0.06L0.189,-0.06C0.201,-0.084 0.213,-0.108 0.225,-0.133C0.237,-0.157 0.249,-0.181 0.261,-0.205L0.404,-0.486L0.481,-0.486L0.222,-0L0.13,-0Z" style="fill-rule:nonzero;"/>
                </g>
                <g transform="matrix(66.6667,0,0,66.6667,-99.3046,176.224)">
                    <path d="M0.179,0.012C0.137,0.012 0.103,-0.003 0.077,-0.034C0.052,-0.064 0.039,-0.107 0.039,-0.164C0.039,-0.211 0.047,-0.255 0.061,-0.295C0.076,-0.336 0.095,-0.371 0.12,-0.401C0.145,-0.431 0.173,-0.455 0.204,-0.472C0.236,-0.489 0.268,-0.498 0.302,-0.498C0.328,-0.498 0.351,-0.491 0.372,-0.478C0.392,-0.465 0.408,-0.447 0.42,-0.425L0.423,-0.425L0.442,-0.486L0.504,-0.486L0.407,-0L0.344,-0L0.352,-0.072L0.348,-0.072C0.325,-0.047 0.298,-0.027 0.269,-0.011C0.239,0.004 0.21,0.012 0.179,0.012ZM0.207,-0.052C0.233,-0.052 0.259,-0.06 0.285,-0.075C0.311,-0.09 0.336,-0.114 0.36,-0.145L0.404,-0.362C0.39,-0.388 0.375,-0.406 0.358,-0.417C0.341,-0.428 0.323,-0.434 0.305,-0.434C0.28,-0.434 0.257,-0.427 0.235,-0.413C0.212,-0.399 0.192,-0.379 0.175,-0.355C0.158,-0.331 0.144,-0.303 0.133,-0.273C0.123,-0.242 0.118,-0.209 0.118,-0.176C0.118,-0.134 0.126,-0.103 0.142,-0.083C0.158,-0.062 0.18,-0.052 0.207,-0.052Z" style="fill-rule:nonzero;"/>
                </g>
                <g transform="matrix(66.6667,0,0,66.6667,-63.5535,176.224)">
                    <path d="M0.031,-0L0.128,-0.486L0.191,-0.486L0.18,-0.393L0.184,-0.393C0.203,-0.423 0.226,-0.447 0.251,-0.468C0.276,-0.488 0.304,-0.498 0.334,-0.498C0.343,-0.498 0.351,-0.497 0.359,-0.496C0.367,-0.495 0.374,-0.493 0.38,-0.489L0.353,-0.422C0.348,-0.425 0.342,-0.427 0.335,-0.428C0.328,-0.428 0.32,-0.429 0.311,-0.429C0.287,-0.429 0.263,-0.419 0.237,-0.398C0.212,-0.377 0.189,-0.347 0.168,-0.307L0.107,-0L0.031,-0Z" style="fill-rule:nonzero;"/>
                </g>
                <g transform="matrix(66.6667,0,0,66.6667,-40.7632,176.224)">
                    <path d="M0.031,-0L0.128,-0.486L0.205,-0.486L0.108,-0L0.031,-0ZM0.191,-0.587C0.178,-0.587 0.167,-0.591 0.157,-0.599C0.147,-0.606 0.142,-0.617 0.142,-0.632C0.142,-0.648 0.148,-0.662 0.16,-0.673C0.172,-0.684 0.185,-0.69 0.2,-0.69C0.213,-0.69 0.225,-0.686 0.235,-0.678C0.244,-0.67 0.249,-0.659 0.249,-0.644C0.249,-0.627 0.243,-0.614 0.232,-0.603C0.221,-0.592 0.207,-0.587 0.191,-0.587Z" style="fill-rule:nonzero;"/>
                </g>
                <g transform="matrix(66.6667,0,0,66.6667,-24.9756,176.224)">
                    <path d="M0.179,0.012C0.137,0.012 0.103,-0.003 0.077,-0.034C0.052,-0.064 0.039,-0.107 0.039,-0.164C0.039,-0.211 0.047,-0.255 0.061,-0.295C0.076,-0.336 0.095,-0.371 0.12,-0.401C0.145,-0.431 0.173,-0.455 0.204,-0.472C0.236,-0.489 0.268,-0.498 0.302,-0.498C0.328,-0.498 0.351,-0.491 0.372,-0.478C0.392,-0.465 0.408,-0.447 0.42,-0.425L0.423,-0.425L0.442,-0.486L0.504,-0.486L0.407,-0L0.344,-0L0.352,-0.072L0.348,-0.072C0.325,-0.047 0.298,-0.027 0.269,-0.011C0.239,0.004 0.21,0.012 0.179,0.012ZM0.207,-0.052C0.233,-0.052 0.259,-0.06 0.285,-0.075C0.311,-0.09 0.336,-0.114 0.36,-0.145L0.404,-0.362C0.39,-0.388 0.375,-0.406 0.358,-0.417C0.341,-0.428 0.323,-0.434 0.305,-0.434C0.28,-0.434 0.257,-0.427 0.235,-0.413C0.212,-0.399 0.192,-0.379 0.175,-0.355C0.158,-0.331 0.144,-0.303 0.133,-0.273C0.123,-0.242 0.118,-0.209 0.118,-0.176C0.118,-0.134 0.126,-0.103 0.142,-0.083C0.158,-0.062 0.18,-0.052 0.207,-0.052Z" style="fill-rule:nonzero;"/>
                </g>
                <g transform="matrix(66.6667,0,0,66.6667,10.7755,176.224)">
                    <path d="M0.234,0.012C0.208,0.012 0.185,0.005 0.165,-0.008C0.145,-0.022 0.129,-0.039 0.117,-0.061L0.114,-0.061L0.095,-0L0.031,-0L0.173,-0.712L0.25,-0.712L0.211,-0.522L0.189,-0.426L0.191,-0.426C0.215,-0.446 0.241,-0.463 0.269,-0.477C0.297,-0.491 0.326,-0.498 0.356,-0.498C0.399,-0.498 0.433,-0.483 0.458,-0.453C0.483,-0.423 0.496,-0.379 0.496,-0.322C0.496,-0.275 0.489,-0.232 0.474,-0.191C0.46,-0.151 0.44,-0.115 0.415,-0.085C0.39,-0.055 0.362,-0.031 0.331,-0.014C0.3,0.003 0.267,0.012 0.234,0.012ZM0.231,-0.052C0.255,-0.052 0.278,-0.059 0.301,-0.074C0.323,-0.088 0.343,-0.107 0.36,-0.131C0.378,-0.155 0.392,-0.182 0.402,-0.214C0.412,-0.245 0.417,-0.277 0.417,-0.311C0.417,-0.352 0.409,-0.383 0.393,-0.403C0.377,-0.424 0.356,-0.434 0.328,-0.434C0.306,-0.434 0.281,-0.427 0.254,-0.413C0.226,-0.399 0.201,-0.38 0.178,-0.355L0.132,-0.124C0.146,-0.099 0.161,-0.081 0.178,-0.069C0.194,-0.058 0.212,-0.052 0.231,-0.052Z" style="fill-rule:nonzero;"/>
                </g>
                <g transform="matrix(66.6667,0,0,66.6667,46.5077,176.224)">
                    <path d="M0.112,0.009C0.089,0.009 0.072,0.004 0.061,-0.007C0.05,-0.019 0.044,-0.034 0.044,-0.054C0.044,-0.06 0.044,-0.066 0.045,-0.073C0.046,-0.079 0.048,-0.087 0.05,-0.095L0.173,-0.712L0.25,-0.712L0.126,-0.092C0.125,-0.087 0.124,-0.083 0.124,-0.079C0.124,-0.076 0.124,-0.073 0.124,-0.07C0.124,-0.059 0.129,-0.054 0.139,-0.054C0.141,-0.054 0.143,-0.054 0.145,-0.055C0.146,-0.055 0.149,-0.056 0.153,-0.056L0.159,-0C0.152,0.002 0.145,0.005 0.137,0.007C0.13,0.008 0.122,0.009 0.112,0.009Z" style="fill-rule:nonzero;"/>
                </g>
                <g transform="matrix(66.6667,0,0,66.6667,63.0464,176.224)">
                    <path d="M0.231,0.012C0.172,0.012 0.125,-0.006 0.09,-0.041C0.055,-0.076 0.037,-0.126 0.037,-0.191C0.037,-0.237 0.045,-0.279 0.06,-0.316C0.075,-0.353 0.095,-0.386 0.12,-0.413C0.145,-0.44 0.172,-0.461 0.203,-0.476C0.234,-0.491 0.265,-0.498 0.296,-0.498C0.333,-0.498 0.363,-0.49 0.385,-0.475C0.407,-0.46 0.423,-0.439 0.433,-0.412C0.443,-0.386 0.448,-0.355 0.448,-0.322C0.448,-0.309 0.447,-0.296 0.446,-0.285C0.444,-0.273 0.442,-0.262 0.439,-0.252C0.437,-0.242 0.434,-0.233 0.431,-0.225L0.094,-0.225L0.102,-0.284L0.377,-0.284C0.379,-0.292 0.38,-0.3 0.381,-0.306C0.382,-0.312 0.382,-0.32 0.382,-0.328C0.382,-0.347 0.379,-0.364 0.373,-0.38C0.367,-0.397 0.357,-0.41 0.344,-0.42C0.33,-0.431 0.311,-0.436 0.288,-0.436C0.269,-0.436 0.249,-0.43 0.228,-0.42C0.208,-0.409 0.189,-0.394 0.172,-0.373C0.154,-0.353 0.14,-0.329 0.13,-0.3C0.119,-0.271 0.114,-0.239 0.114,-0.203C0.114,-0.164 0.119,-0.133 0.131,-0.111C0.142,-0.089 0.158,-0.074 0.178,-0.064C0.198,-0.055 0.22,-0.051 0.246,-0.051C0.267,-0.051 0.287,-0.054 0.305,-0.061C0.324,-0.069 0.341,-0.078 0.356,-0.089L0.385,-0.041C0.366,-0.026 0.343,-0.013 0.318,-0.003C0.292,0.007 0.263,0.012 0.231,0.012Z" style="fill-rule:nonzero;"/>
                </g>
                <g transform="matrix(66.6667,0,0,66.6667,95.0642,176.224)">
                    <path d="M-0.02,0.164L-0.031,0.118C0.001,0.106 0.026,0.09 0.045,0.069C0.065,0.049 0.076,0.027 0.08,0.002L0.087,-0.073L0.113,-0.01C0.109,-0.005 0.103,-0.002 0.096,0.001C0.09,0.003 0.084,0.004 0.078,0.004C0.063,0.004 0.051,-0 0.041,-0.009C0.031,-0.018 0.026,-0.03 0.026,-0.044C0.026,-0.06 0.032,-0.075 0.043,-0.088C0.055,-0.102 0.07,-0.108 0.09,-0.108C0.107,-0.108 0.121,-0.102 0.13,-0.09C0.14,-0.078 0.144,-0.062 0.144,-0.042C0.144,-0.009 0.137,0.021 0.124,0.049C0.11,0.076 0.091,0.1 0.066,0.12C0.041,0.14 0.013,0.155 -0.02,0.164Z" style="fill-rule:nonzero;"/>
                </g>
                <g transform="matrix(66.6667,0,0,66.6667,111.18,176.224)">
                </g>
                <g transform="matrix(66.6667,0,0,66.6667,124.514,176.224)">
                    <path d="M-0.01,0.205L0.128,-0.486L0.191,-0.486L0.185,-0.422L0.189,-0.422C0.214,-0.443 0.24,-0.461 0.268,-0.476C0.296,-0.491 0.326,-0.498 0.356,-0.498C0.399,-0.498 0.433,-0.483 0.458,-0.452C0.483,-0.422 0.496,-0.378 0.496,-0.322C0.496,-0.275 0.489,-0.232 0.474,-0.191C0.46,-0.151 0.44,-0.115 0.415,-0.085C0.39,-0.055 0.362,-0.031 0.331,-0.014C0.3,0.003 0.267,0.012 0.234,0.012C0.209,0.012 0.186,0.005 0.166,-0.008C0.146,-0.021 0.129,-0.038 0.117,-0.058L0.115,-0.058L0.097,0.046L0.066,0.205L-0.01,0.205ZM0.231,-0.052C0.255,-0.052 0.278,-0.059 0.301,-0.074C0.323,-0.088 0.343,-0.107 0.36,-0.131C0.378,-0.155 0.392,-0.182 0.402,-0.214C0.412,-0.245 0.417,-0.277 0.417,-0.311C0.417,-0.352 0.409,-0.383 0.393,-0.403C0.377,-0.424 0.356,-0.434 0.328,-0.434C0.306,-0.434 0.281,-0.427 0.254,-0.413C0.226,-0.399 0.201,-0.379 0.178,-0.354L0.132,-0.122C0.146,-0.097 0.161,-0.079 0.178,-0.068C0.194,-0.058 0.212,-0.052 0.231,-0.052Z" style="fill-rule:nonzero;"/>
                </g>
                <g transform="matrix(66.6667,0,0,66.6667,160.162,176.224)">
                    <path d="M0.031,-0L0.128,-0.486L0.191,-0.486L0.18,-0.393L0.184,-0.393C0.203,-0.423 0.226,-0.447 0.251,-0.468C0.276,-0.488 0.304,-0.498 0.334,-0.498C0.343,-0.498 0.351,-0.497 0.359,-0.496C0.367,-0.495 0.374,-0.493 0.38,-0.489L0.353,-0.422C0.348,-0.425 0.342,-0.427 0.335,-0.428C0.328,-0.428 0.32,-0.429 0.311,-0.429C0.287,-0.429 0.263,-0.419 0.237,-0.398C0.212,-0.377 0.189,-0.347 0.168,-0.307L0.107,-0L0.031,-0Z" style="fill-rule:nonzero;"/>
                </g>
                <g transform="matrix(66.6667,0,0,66.6667,182.285,176.224)">
                    <path d="M0.231,0.012C0.172,0.012 0.125,-0.006 0.09,-0.041C0.055,-0.076 0.037,-0.126 0.037,-0.191C0.037,-0.237 0.045,-0.279 0.06,-0.316C0.075,-0.353 0.095,-0.386 0.12,-0.413C0.145,-0.44 0.172,-0.461 0.203,-0.476C0.234,-0.491 0.265,-0.498 0.296,-0.498C0.333,-0.498 0.363,-0.49 0.385,-0.475C0.407,-0.46 0.423,-0.439 0.433,-0.412C0.443,-0.386 0.448,-0.355 0.448,-0.322C0.448,-0.309 0.447,-0.296 0.446,-0.285C0.444,-0.273 0.442,-0.262 0.439,-0.252C0.437,-0.242 0.434,-0.233 0.431,-0.225L0.094,-0.225L0.102,-0.284L0.377,-0.284C0.379,-0.292 0.38,-0.3 0.381,-0.306C0.382,-0.312 0.382,-0.32 0.382,-0.328C0.382,-0.347 0.379,-0.364 0.373,-0.38C0.367,-0.397 0.357,-0.41 0.344,-0.42C0.33,-0.431 0.311,-0.436 0.288,-0.436C0.269,-0.436 0.249,-0.43 0.228,-0.42C0.208,-0.409 0.189,-0.394 0.172,-0.373C0.154,-0.353 0.14,-0.329 0.13,-0.3C0.119,-0.271 0.114,-0.239 0.114,-0.203C0.114,-0.164 0.119,-0.133 0.131,-0.111C0.142,-0.089 0.158,-0.074 0.178,-0.064C0.198,-0.055 0.22,-0.051 0.246,-0.051C0.267,-0.051 0.287,-0.054 0.305,-0.061C0.324,-0.069 0.341,-0.078 0.356,-0.089L0.385,-0.041C0.366,-0.026 0.343,-0.013 0.318,-0.003C0.292,0.007 0.263,0.012 0.231,0.012Z" style="fill-rule:nonzero;"/>
                </g>
                <g transform="matrix(66.6667,0,0,66.6667,214.303,176.224)">
                    <path d="M0.179,0.012C0.137,0.012 0.103,-0.003 0.077,-0.033C0.052,-0.064 0.039,-0.107 0.039,-0.164C0.039,-0.211 0.047,-0.254 0.061,-0.295C0.076,-0.335 0.095,-0.371 0.12,-0.401C0.145,-0.432 0.173,-0.455 0.205,-0.472C0.236,-0.49 0.268,-0.498 0.302,-0.498C0.328,-0.498 0.351,-0.492 0.37,-0.479C0.39,-0.466 0.405,-0.448 0.417,-0.427L0.42,-0.427L0.436,-0.522L0.474,-0.712L0.551,-0.712L0.407,-0L0.344,-0L0.352,-0.072L0.348,-0.072C0.325,-0.047 0.298,-0.027 0.269,-0.011C0.24,0.004 0.21,0.012 0.179,0.012ZM0.207,-0.052C0.233,-0.052 0.259,-0.06 0.285,-0.075C0.311,-0.09 0.335,-0.114 0.36,-0.145L0.404,-0.362C0.39,-0.388 0.375,-0.406 0.358,-0.417C0.341,-0.428 0.323,-0.434 0.305,-0.434C0.28,-0.434 0.257,-0.427 0.235,-0.413C0.212,-0.398 0.192,-0.379 0.175,-0.355C0.158,-0.331 0.144,-0.304 0.133,-0.273C0.123,-0.242 0.118,-0.209 0.118,-0.176C0.118,-0.134 0.126,-0.103 0.142,-0.083C0.158,-0.062 0.18,-0.052 0.207,-0.052Z" style="fill-rule:nonzero;"/>
                </g>
                <g transform="matrix(66.6667,0,0,66.6667,249.958,176.224)">
                    <path d="M0.031,-0L0.128,-0.486L0.205,-0.486L0.108,-0L0.031,-0ZM0.191,-0.587C0.178,-0.587 0.167,-0.591 0.157,-0.599C0.147,-0.606 0.142,-0.617 0.142,-0.632C0.142,-0.648 0.148,-0.662 0.16,-0.673C0.172,-0.684 0.185,-0.69 0.2,-0.69C0.213,-0.69 0.225,-0.686 0.235,-0.678C0.244,-0.67 0.249,-0.659 0.249,-0.644C0.249,-0.627 0.243,-0.614 0.232,-0.603C0.221,-0.592 0.207,-0.587 0.191,-0.587Z" style="fill-rule:nonzero;"/>
                </g>
                <g transform="matrix(66.6667,0,0,66.6667,265.746,176.224)">
                    <path d="M0.216,0.012C0.181,0.012 0.15,0.004 0.123,-0.011C0.096,-0.026 0.075,-0.048 0.06,-0.077C0.045,-0.106 0.037,-0.142 0.037,-0.183C0.037,-0.229 0.045,-0.27 0.06,-0.308C0.074,-0.347 0.094,-0.38 0.12,-0.408C0.145,-0.437 0.174,-0.459 0.206,-0.475C0.239,-0.49 0.273,-0.498 0.308,-0.498C0.338,-0.498 0.363,-0.492 0.384,-0.481C0.405,-0.47 0.422,-0.456 0.434,-0.439L0.391,-0.396C0.38,-0.409 0.367,-0.419 0.354,-0.425C0.34,-0.431 0.323,-0.435 0.303,-0.435C0.279,-0.435 0.256,-0.428 0.233,-0.415C0.211,-0.402 0.191,-0.384 0.173,-0.361C0.156,-0.338 0.142,-0.312 0.131,-0.282C0.121,-0.253 0.116,-0.221 0.116,-0.188C0.116,-0.145 0.125,-0.111 0.144,-0.087C0.164,-0.063 0.192,-0.051 0.23,-0.051C0.25,-0.051 0.27,-0.056 0.29,-0.064C0.309,-0.073 0.326,-0.083 0.339,-0.093L0.372,-0.049C0.354,-0.033 0.333,-0.019 0.306,-0.007C0.28,0.006 0.25,0.012 0.216,0.012Z" style="fill-rule:nonzero;"/>
                </g>
                <g transform="matrix(66.6667,0,0,66.6667,294.729,176.224)">
                    <path d="M0.183,0.009C0.142,0.009 0.113,-0.001 0.095,-0.023C0.078,-0.044 0.069,-0.07 0.069,-0.101C0.069,-0.109 0.07,-0.118 0.07,-0.126C0.071,-0.135 0.073,-0.143 0.074,-0.153L0.131,-0.424L0.059,-0.424L0.072,-0.481L0.147,-0.486L0.188,-0.641L0.252,-0.641L0.222,-0.486L0.345,-0.486L0.332,-0.424L0.207,-0.424L0.15,-0.149C0.149,-0.143 0.149,-0.138 0.148,-0.132C0.147,-0.126 0.147,-0.12 0.147,-0.113C0.147,-0.094 0.151,-0.079 0.16,-0.069C0.169,-0.059 0.184,-0.054 0.206,-0.054C0.216,-0.054 0.225,-0.055 0.234,-0.057C0.243,-0.06 0.251,-0.062 0.258,-0.066L0.276,-0.015C0.266,-0.009 0.252,-0.003 0.236,0.002C0.22,0.007 0.202,0.009 0.183,0.009Z" style="fill-rule:nonzero;"/>
                </g>
                <g transform="matrix(66.6667,0,0,66.6667,315.619,176.224)">
                    <path d="M0.212,0.012C0.177,0.012 0.146,0.004 0.12,-0.011C0.094,-0.027 0.074,-0.05 0.06,-0.079C0.046,-0.108 0.039,-0.143 0.039,-0.183C0.039,-0.229 0.046,-0.272 0.061,-0.31C0.076,-0.348 0.096,-0.381 0.121,-0.409C0.146,-0.438 0.174,-0.459 0.205,-0.475C0.237,-0.49 0.269,-0.498 0.301,-0.498C0.337,-0.498 0.367,-0.49 0.393,-0.475C0.419,-0.459 0.439,-0.437 0.453,-0.407C0.468,-0.378 0.475,-0.343 0.475,-0.303C0.475,-0.257 0.467,-0.214 0.452,-0.176C0.437,-0.138 0.418,-0.105 0.393,-0.077C0.367,-0.049 0.339,-0.027 0.308,-0.011C0.277,0.004 0.245,0.012 0.212,0.012ZM0.22,-0.052C0.243,-0.052 0.265,-0.058 0.286,-0.071C0.307,-0.084 0.326,-0.102 0.342,-0.124C0.359,-0.147 0.372,-0.173 0.382,-0.203C0.392,-0.233 0.397,-0.264 0.397,-0.298C0.397,-0.343 0.388,-0.376 0.371,-0.4C0.353,-0.423 0.327,-0.435 0.293,-0.435C0.271,-0.435 0.249,-0.428 0.228,-0.415C0.207,-0.403 0.188,-0.385 0.171,-0.362C0.154,-0.34 0.141,-0.314 0.131,-0.284C0.121,-0.254 0.116,-0.222 0.116,-0.188C0.116,-0.144 0.125,-0.111 0.143,-0.087C0.161,-0.063 0.187,-0.052 0.22,-0.052Z" style="fill-rule:nonzero;"/>
                </g>
                <g transform="matrix(66.6667,0,0,66.6667,349.884,176.224)">
                    <path d="M0.031,-0L0.128,-0.486L0.191,-0.486L0.18,-0.393L0.184,-0.393C0.203,-0.423 0.226,-0.447 0.251,-0.468C0.276,-0.488 0.304,-0.498 0.334,-0.498C0.343,-0.498 0.351,-0.497 0.359,-0.496C0.367,-0.495 0.374,-0.493 0.38,-0.489L0.353,-0.422C0.348,-0.425 0.342,-0.427 0.335,-0.428C0.328,-0.428 0.32,-0.429 0.311,-0.429C0.287,-0.429 0.263,-0.419 0.237,-0.398C0.212,-0.377 0.189,-0.347 0.168,-0.307L0.107,-0L0.031,-0Z" style="fill-rule:nonzero;"/>
                </g>
                <g transform="matrix(66.6667,0,0,66.6667,372.675,176.224)">
                </g>
            </g>
            <g transform="matrix(1,0,0,1,919.111,1031.94)">
                <g transform="matrix(66.6667,0,0,66.6667,58.9634,176.224)">
                    <path d="M0.112,0.009C0.089,0.009 0.072,0.004 0.061,-0.007C0.05,-0.019 0.044,-0.034 0.044,-0.054C0.044,-0.06 0.044,-0.066 0.045,-0.073C0.046,-0.079 0.048,-0.087 0.05,-0.095L0.173,-0.712L0.25,-0.712L0.126,-0.092C0.125,-0.087 0.124,-0.083 0.124,-0.079C0.124,-0.076 0.124,-0.073 0.124,-0.07C0.124,-0.059 0.129,-0.054 0.139,-0.054C0.141,-0.054 0.143,-0.054 0.145,-0.055C0.146,-0.055 0.149,-0.056 0.153,-0.056L0.159,-0C0.152,0.002 0.145,0.005 0.137,0.007C0.13,0.008 0.122,0.009 0.112,0.009Z" style="fill-rule:nonzero;"/>
                </g>
                <g transform="matrix(66.6667,0,0,66.6667,75.5021,176.224)">
                    <path d="M0.231,0.012C0.172,0.012 0.125,-0.006 0.09,-0.041C0.055,-0.076 0.037,-0.126 0.037,-0.191C0.037,-0.237 0.045,-0.279 0.06,-0.316C0.075,-0.353 0.095,-0.386 0.12,-0.413C0.145,-0.44 0.172,-0.461 0.203,-0.476C0.234,-0.491 0.265,-0.498 0.296,-0.498C0.333,-0.498 0.363,-0.49 0.385,-0.475C0.407,-0.46 0.423,-0.439 0.433,-0.412C0.443,-0.386 0.448,-0.355 0.448,-0.322C0.448,-0.309 0.447,-0.296 0.446,-0.285C0.444,-0.273 0.442,-0.262 0.439,-0.252C0.437,-0.242 0.434,-0.233 0.431,-0.225L0.094,-0.225L0.102,-0.284L0.377,-0.284C0.379,-0.292 0.38,-0.3 0.381,-0.306C0.382,-0.312 0.382,-0.32 0.382,-0.328C0.382,-0.347 0.379,-0.364 0.373,-0.38C0.367,-0.397 0.357,-0.41 0.344,-0.42C0.33,-0.431 0.311,-0.436 0.288,-0.436C0.269,-0.436 0.249,-0.43 0.228,-0.42C0.208,-0.409 0.189,-0.394 0.172,-0.373C0.154,-0.353 0.14,-0.329 0.13,-0.3C0.119,-0.271 0.114,-0.239 0.114,-0.203C0.114,-0.164 0.119,-0.133 0.131,-0.111C0.142,-0.089 0.158,-0.074 0.178,-0.064C0.198,-0.055 0.22,-0.051 0.246,-0.051C0.267,-0.051 0.287,-0.054 0.305,-0.061C0.324,-0.069 0.341,-0.078 0.356,-0.089L0.385,-0.041C0.366,-0.026 0.343,-0.013 0.318,-0.003C0.292,0.007 0.263,0.012 0.231,0.012Z" style="fill-rule:nonzero;"/>
                </g>
                <g transform="matrix(66.6667,0,0,66.6667,106.587,176.224)">
                    <path d="M0.13,-0L0.059,-0.486L0.135,-0.486L0.171,-0.205C0.174,-0.182 0.176,-0.157 0.178,-0.133C0.18,-0.108 0.183,-0.084 0.185,-0.06L0.189,-0.06C0.201,-0.084 0.213,-0.108 0.225,-0.133C0.237,-0.157 0.249,-0.181 0.261,-0.205L0.404,-0.486L0.481,-0.486L0.222,-0L0.13,-0Z" style="fill-rule:nonzero;"/>
                </g>
                <g transform="matrix(66.6667,0,0,66.6667,136.218,176.224)">
                    <path d="M0.231,0.012C0.172,0.012 0.125,-0.006 0.09,-0.041C0.055,-0.076 0.037,-0.126 0.037,-0.191C0.037,-0.237 0.045,-0.279 0.06,-0.316C0.075,-0.353 0.095,-0.386 0.12,-0.413C0.145,-0.44 0.172,-0.461 0.203,-0.476C0.234,-0.491 0.265,-0.498 0.296,-0.498C0.333,-0.498 0.363,-0.49 0.385,-0.475C0.407,-0.46 0.423,-0.439 0.433,-0.412C0.443,-0.386 0.448,-0.355 0.448,-0.322C0.448,-0.309 0.447,-0.296 0.446,-0.285C0.444,-0.273 0.442,-0.262 0.439,-0.252C0.437,-0.242 0.434,-0.233 0.431,-0.225L0.094,-0.225L0.102,-0.284L0.377,-0.284C0.379,-0.292 0.38,-0.3 0.381,-0.306C0.382,-0.312 0.382,-0.32 0.382,-0.328C0.382,-0.347 0.379,-0.364 0.373,-0.38C0.367,-0.397 0.357,-0.41 0.344,-0.42C0.33,-0.431 0.311,-0.436 0.288,-0.436C0.269,-0.436 0.249,-0.43 0.228,-0.42C0.208,-0.409 0.189,-0.394 0.172,-0.373C0.154,-0.353 0.14,-0.329 0.13,-0.3C0.119,-0.271 0.114,-0.239 0.114,-0.203C0.114,-0.164 0.119,-0.133 0.131,-0.111C0.142,-0.089 0.158,-0.074 0.178,-0.064C0.198,-0.055 0.22,-0.051 0.246,-0.051C0.267,-0.051 0.287,-0.054 0.305,-0.061C0.324,-0.069 0.341,-0.078 0.356,-0.089L0.385,-0.041C0.366,-0.026 0.343,-0.013 0.318,-0.003C0.292,0.007 0.263,0.012 0.231,0.012Z" style="fill-rule:nonzero;"/>
                </g>
                <g transform="matrix(66.6667,0,0,66.6667,168.236,176.224)">
                    <path d="M0.112,0.009C0.089,0.009 0.072,0.004 0.061,-0.007C0.05,-0.019 0.044,-0.034 0.044,-0.054C0.044,-0.06 0.044,-0.066 0.045,-0.073C0.046,-0.079 0.048,-0.087 0.05,-0.095L0.173,-0.712L0.25,-0.712L0.126,-0.092C0.125,-0.087 0.124,-0.083 0.124,-0.079C0.124,-0.076 0.124,-0.073 0.124,-0.07C0.124,-0.059 0.129,-0.054 0.139,-0.054C0.141,-0.054 0.143,-0.054 0.145,-0.055C0.146,-0.055 0.149,-0.056 0.153,-0.056L0.159,-0C0.152,0.002 0.145,0.005 0.137,0.007C0.13,0.008 0.122,0.009 0.112,0.009Z" style="fill-rule:nonzero;"/>
                </g>
                <g transform="matrix(66.6667,0,0,66.6667,184.775,176.224)">
                </g>
            </g>
            <g transform="matrix(1,0,0,1,1277.94,1031.94)">
                <g transform="matrix(66.6667,0,0,66.6667,58.9634,176.224)">
                    <path d="M0.112,0.009C0.089,0.009 0.072,0.004 0.061,-0.007C0.05,-0.019 0.044,-0.034 0.044,-0.054C0.044,-0.06 0.044,-0.066 0.045,-0.073C0.046,-0.079 0.048,-0.087 0.05,-0.095L0.173,-0.712L0.25,-0.712L0.126,-0.092C0.125,-0.087 0.124,-0.083 0.124,-0.079C0.124,-0.076 0.124,-0.073 0.124,-0.07C0.124,-0.059 0.129,-0.054 0.139,-0.054C0.141,-0.054 0.143,-0.054 0.145,-0.055C0.146,-0.055 0.149,-0.056 0.153,-0.056L0.159,-0C0.152,0.002 0.145,0.005 0.137,0.007C0.13,0.008 0.122,0.009 0.112,0.009Z" style="fill-rule:nonzero;"/>
                </g>
                <g transform="matrix(66.6667,0,0,66.6667,75.5021,176.224)">
                    <path d="M0.231,0.012C0.172,0.012 0.125,-0.006 0.09,-0.041C0.055,-0.076 0.037,-0.126 0.037,-0.191C0.037,-0.237 0.045,-0.279 0.06,-0.316C0.075,-0.353 0.095,-0.386 0.12,-0.413C0.145,-0.44 0.172,-0.461 0.203,-0.476C0.234,-0.491 0.265,-0.498 0.296,-0.498C0.333,-0.498 0.363,-0.49 0.385,-0.475C0.407,-0.46 0.423,-0.439 0.433,-0.412C0.443,-0.386 0.448,-0.355 0.448,-0.322C0.448,-0.309 0.447,-0.296 0.446,-0.285C0.444,-0.273 0.442,-0.262 0.439,-0.252C0.437,-0.242 0.434,-0.233 0.431,-0.225L0.094,-0.225L0.102,-0.284L0.377,-0.284C0.379,-0.292 0.38,-0.3 0.381,-0.306C0.382,-0.312 0.382,-0.32 0.382,-0.328C0.382,-0.347 0.379,-0.364 0.373,-0.38C0.367,-0.397 0.357,-0.41 0.344,-0.42C0.33,-0.431 0.311,-0.436 0.288,-0.436C0.269,-0.436 0.249,-0.43 0.228,-0.42C0.208,-0.409 0.189,-0.394 0.172,-0.373C0.154,-0.353 0.14,-0.329 0.13,-0.3C0.119,-0.271 0.114,-0.239 0.114,-0.203C0.114,-0.164 0.119,-0.133 0.131,-0.111C0.142,-0.089 0.158,-0.074 0.178,-0.064C0.198,-0.055 0.22,-0.051 0.246,-0.051C0.267,-0.051 0.287,-0.054 0.305,-0.061C0.324,-0.069 0.341,-0.078 0.356,-0.089L0.385,-0.041C0.366,-0.026 0.343,-0.013 0.318,-0.003C0.292,0.007 0.263,0.012 0.231,0.012Z" style="fill-rule:nonzero;"/>
                </g>
                <g transform="matrix(66.6667,0,0,66.6667,106.587,176.224)">
                    <path d="M0.13,-0L0.059,-0.486L0.135,-0.486L0.171,-0.205C0.174,-0.182 0.176,-0.157 0.178,-0.133C0.18,-0.108 0.183,-0.084 0.185,-0.06L0.189,-0.06C0.201,-0.084 0.213,-0.108 0.225,-0.133C0.237,-0.157 0.249,-0.181 0.261,-0.205L0.404,-0.486L0.481,-0.486L0.222,-0L0.13,-0Z" style="fill-rule:nonzero;"/>
                </g>
                <g transform="matrix(66.6667,0,0,66.6667,136.218,176.224)">
                    <path d="M0.231,0.012C0.172,0.012 0.125,-0.006 0.09,-0.041C0.055,-0.076 0.037,-0.126 0.037,-0.191C0.037,-0.237 0.045,-0.279 0.06,-0.316C0.075,-0.353 0.095,-0.386 0.12,-0.413C0.145,-0.44 0.172,-0.461 0.203,-0.476C0.234,-0.491 0.265,-0.498 0.296,-0.498C0.333,-0.498 0.363,-0.49 0.385,-0.475C0.407,-0.46 0.423,-0.439 0.433,-0.412C0.443,-0.386 0.448,-0.355 0.448,-0.322C0.448,-0.309 0.447,-0.296 0.446,-0.285C0.444,-0.273 0.442,-0.262 0.439,-0.252C0.437,-0.242 0.434,-0.233 0.431,-0.225L0.094,-0.225L0.102,-0.284L0.377,-0.284C0.379,-0.292 0.38,-0.3 0.381,-0.306C0.382,-0.312 0.382,-0.32 0.382,-0.328C0.382,-0.347 0.379,-0.364 0.373,-0.38C0.367,-0.397 0.357,-0.41 0.344,-0.42C0.33,-0.431 0.311,-0.436 0.288,-0.436C0.269,-0.436 0.249,-0.43 0.228,-0.42C0.208,-0.409 0.189,-0.394 0.172,-0.373C0.154,-0.353 0.14,-0.329 0.13,-0.3C0.119,-0.271 0.114,-0.239 0.114,-0.203C0.114,-0.164 0.119,-0.133 0.131,-0.111C0.142,-0.089 0.158,-0.074 0.178,-0.064C0.198,-0.055 0.22,-0.051 0.246,-0.051C0.267,-0.051 0.287,-0.054 0.305,-0.061C0.324,-0.069 0.341,-0.078 0.356,-0.089L0.385,-0.041C0.366,-0.026 0.343,-0.013 0.318,-0.003C0.292,0.007 0.263,0.012 0.231,0.012Z" style="fill-rule:nonzero;"/>
                </g>
                <g transform="matrix(66.6667,0,0,66.6667,168.236,176.224)">
                    <path d="M0.112,0.009C0.089,0.009 0.072,0.004 0.061,-0.007C0.05,-0.019 0.044,-0.034 0.044,-0.054C0.044,-0.06 0.044,-0.066 0.045,-0.073C0.046,-0.079 0.048,-0.087 0.05,-0.095L0.173,-0.712L0.25,-0.712L0.126,-0.092C0.125,-0.087 0.124,-0.083 0.124,-0.079C0.124,-0.076 0.124,-0.073 0.124,-0.07C0.124,-0.059 0.129,-0.054 0.139,-0.054C0.141,-0.054 0.143,-0.054 0.145,-0.055C0.146,-0.055 0.149,-0.056 0.153,-0.056L0.159,-0C0.152,0.002 0.145,0.005 0.137,0.007C0.13,0.008 0.122,0.009 0.112,0.009Z" style="fill-rule:nonzero;"/>
                </g>
                <g transform="matrix(66.6667,0,0,66.6667,184.775,176.224)">
                </g>
            </g>
            <g transform="matrix(1,0,0,1,514.368,457.995)">
                <g transform="matrix(1,-0,-0,1,-500.606,-264.012)">
                    <path d="M1217.84,494.374L1202.21,509.999L1186.59,494.374" style="fill:none;stroke:black;stroke-width:4.17px;stroke-linejoin:miter;stroke-miterlimit:10;"/>
                    <path d="M1202.21,420.715L1202.21,509.999" style="fill:none;stroke:black;stroke-width:4.17px;"/>
                </g>
            </g>
            <g transform="matrix(1,0,0,-1.16029,701.433,1321.08)">
                <g transform="matrix(1,0,0,-0.861854,-687.671,971.392)">
                    <path d="M1374.65,863.542L1390.27,847.917L1405.9,863.542" style="fill:none;stroke:black;stroke-width:4.17px;stroke-linejoin:miter;stroke-miterlimit:10;"/>
                    <path d="M1390.27,951.675L1390.27,847.917" style="fill:none;stroke:black;stroke-width:4.17px;"/>
                </g>
            </g>
            <g transform="matrix(1,0,0,-1.16029,336.734,1321.08)">
                <g transform="matrix(1,0,0,-0.861854,-322.972,971.392)">
                    <path d="M1009.95,863.542L1025.57,847.917L1041.2,863.542" style="fill:none;stroke:black;stroke-width:4.17px;stroke-linejoin:miter;stroke-miterlimit:10;"/>
                    <path d="M1025.57,951.675L1025.57,847.917" style="fill:none;stroke:black;stroke-width:4.17px;"/>
                </g>
            </g>
        </g>
    </g>
</svg>
