<?xml version="1.0" encoding="UTF-8" standalone="no"?>
<!DOCTYPE svg PUBLIC "-//W3C//DTD SVG 1.1//EN" "http://www.w3.org/Graphics/SVG/1.1/DTD/svg11.dtd">
<svg width="100%" height="100%" viewBox="0 0 615 615" version="1.1" xmlns="http://www.w3.org/2000/svg" xmlns:xlink="http://www.w3.org/1999/xlink" xml:space="preserve" xmlns:serif="http://www.serif.com/" style="fill-rule:evenodd;clip-rule:evenodd;stroke-linecap:round;stroke-linejoin:round;stroke-miterlimit:1.5;">
    <g id="nonlin" transform="matrix(1,0,0,1,-810.905,-55.3999)">
        <g transform="matrix(1.0764,0,0,1.0764,583.927,-289.741)">
            <path d="M228.287,338.063L228.287,874.016L764.24,874.016" style="fill:none;stroke:black;stroke-width:34.84px;"/>
        </g>
        <g transform="matrix(7.26543,0,0,7.26543,-1568.04,-5270.49)">
            <circle cx="346.213" cy="790.383" r="7.315"/>
        </g>
        <g transform="matrix(7.26543,0,0,7.26543,-1614.89,-5405.02)">
            <circle cx="346.213" cy="790.383" r="7.315"/>
        </g>
        <g transform="matrix(7.26543,0,0,7.26543,-1460.7,-5202.52)">
            <circle cx="346.213" cy="790.383" r="7.315"/>
        </g>
        <g transform="matrix(7.26543,0,0,7.26543,-1253.18,-5239.95)">
            <circle cx="346.213" cy="790.383" r="7.315"/>
        </g>
        <g transform="matrix(7.26543,0,0,7.26543,-1345.47,-5264.67)">
            <circle cx="346.213" cy="790.383" r="7.315"/>
        </g>
        <g transform="matrix(7.26543,0,0,7.26543,-1172.05,-5448.5)">
            <circle cx="346.213" cy="790.383" r="7.315"/>
        </g>
        <g transform="matrix(7.26543,0,0,7.26543,-1240.43,-5342.97)">
            <circle cx="346.213" cy="790.383" r="7.315"/>
        </g>
        <g transform="matrix(7.26543,0,0,7.26543,-1247.43,-5508.29)">
            <circle cx="346.213" cy="790.383" r="7.315"/>
        </g>
        <g transform="matrix(7.26543,0,0,7.26543,-1167.85,-5616.58)">
            <circle cx="346.213" cy="790.383" r="7.315"/>
        </g>
        <g transform="matrix(0.840013,0.244954,0.0522101,0.851651,598.922,-217.625)">
            <path d="M318.237,832.595L939.343,203.762" style="fill:none;stroke:rgb(49,115,201);stroke-width:37.51px;"/>
        </g>
    </g>
</svg>
