<?xml version="1.0" encoding="UTF-8" standalone="no"?>
<!DOCTYPE svg PUBLIC "-//W3C//DTD SVG 1.1//EN" "http://www.w3.org/Graphics/SVG/1.1/DTD/svg11.dtd">
<svg width="100%" height="100%" viewBox="0 0 615 615" version="1.1" xmlns="http://www.w3.org/2000/svg" xmlns:xlink="http://www.w3.org/1999/xlink" xml:space="preserve" xmlns:serif="http://www.serif.com/" style="fill-rule:evenodd;clip-rule:evenodd;stroke-linecap:round;stroke-linejoin:round;stroke-miterlimit:1.5;">
    <g id="nonnormal" transform="matrix(1,0,0,1,-96.9318,-58.2058)">
        <g transform="matrix(1.0764,0,0,1.0764,-130.047,-286.935)">
            <path d="M228.287,338.063L228.287,874.016L764.24,874.016" style="fill:none;stroke:black;stroke-width:34.84px;"/>
        </g>
        <g transform="matrix(7.26543,0,0,7.26543,-2270.4,-5285.31)">
            <circle cx="346.213" cy="790.383" r="7.315"/>
        </g>
        <g transform="matrix(7.26543,0,0,7.26543,-2318.33,-5165.73)">
            <circle cx="346.213" cy="790.383" r="7.315"/>
        </g>
        <g transform="matrix(7.26543,0,0,7.26543,-2256.78,-5418.06)">
            <circle cx="346.213" cy="790.383" r="7.315"/>
        </g>
        <g transform="matrix(7.26543,0,0,7.26543,-2206.28,-5291.6)">
            <circle cx="346.213" cy="790.383" r="7.315"/>
        </g>
        <g transform="matrix(7.26543,0,0,7.26543,-2159.22,-5515.38)">
            <circle cx="346.213" cy="790.383" r="7.315"/>
        </g>
        <g transform="matrix(7.26543,0,0,7.26543,-2083.31,-5377.24)">
            <circle cx="346.213" cy="790.383" r="7.315"/>
        </g>
        <g transform="matrix(7.26543,0,0,7.26543,-2055.22,-5449.61)">
            <circle cx="346.213" cy="790.383" r="7.315"/>
        </g>
        <g transform="matrix(7.26543,0,0,7.26543,-1992.25,-5589.79)">
            <circle cx="346.213" cy="790.383" r="7.315"/>
        </g>
        <g transform="matrix(7.26543,0,0,7.26543,-1881.83,-5613.78)">
            <circle cx="346.213" cy="790.383" r="7.315"/>
        </g>
        <g transform="matrix(0.862343,0.148286,0.148286,0.840266,-216.027,-173.521)">
            <path d="M311.006,837.375L952.126,192.485" style="fill:none;stroke:rgb(49,115,201);stroke-width:37.51px;"/>
        </g>
    </g>
</svg>
