<?xml version="1.0" encoding="UTF-8" standalone="no"?>
<!DOCTYPE svg PUBLIC "-//W3C//DTD SVG 1.1//EN" "http://www.w3.org/Graphics/SVG/1.1/DTD/svg11.dtd">
<svg width="100%" height="100%" viewBox="0 0 785 600" version="1.1" xmlns="http://www.w3.org/2000/svg" xmlns:xlink="http://www.w3.org/1999/xlink" xml:space="preserve" xmlns:serif="http://www.serif.com/" style="fill-rule:evenodd;clip-rule:evenodd;stroke-linecap:round;stroke-linejoin:round;stroke-miterlimit:1.5;">
    <g transform="matrix(1,0,0,1,-314.413,-212.862)">
        <path d="M1098.74,314.597L1098.74,518.067C1098.74,574.216 1053.15,619.802 997.002,619.802L416.148,619.802C359.999,619.802 314.413,574.216 314.413,518.067L314.413,314.597C314.413,258.448 359.999,212.862 416.148,212.862L997.002,212.862C1053.15,212.862 1098.74,258.448 1098.74,314.597Z" style="fill:rgb(187,55,37);fill-opacity:0.2;"/>
    </g>
    <g transform="matrix(1,0,0,1,-216.238,-131.316)">
        <g transform="matrix(66.6667,0,0,66.6667,455.413,228.017)">
            <path d="M0.274,0.012C0.229,0.012 0.186,0.004 0.146,-0.013C0.106,-0.029 0.07,-0.053 0.038,-0.084L0.101,-0.16C0.125,-0.137 0.152,-0.12 0.183,-0.108C0.214,-0.095 0.245,-0.089 0.276,-0.089C0.313,-0.089 0.342,-0.096 0.361,-0.112C0.381,-0.127 0.39,-0.148 0.39,-0.173C0.39,-0.191 0.386,-0.206 0.377,-0.217C0.369,-0.228 0.357,-0.237 0.342,-0.245C0.326,-0.253 0.309,-0.261 0.289,-0.269L0.199,-0.308C0.178,-0.317 0.157,-0.329 0.136,-0.344C0.116,-0.359 0.1,-0.378 0.087,-0.401C0.074,-0.423 0.067,-0.45 0.067,-0.482C0.067,-0.517 0.077,-0.548 0.095,-0.576C0.114,-0.603 0.14,-0.625 0.173,-0.642C0.206,-0.658 0.244,-0.666 0.287,-0.666C0.326,-0.666 0.364,-0.659 0.399,-0.644C0.433,-0.63 0.463,-0.61 0.488,-0.586L0.427,-0.51C0.406,-0.528 0.384,-0.541 0.36,-0.551C0.337,-0.56 0.312,-0.565 0.287,-0.565C0.256,-0.565 0.231,-0.558 0.212,-0.545C0.194,-0.531 0.184,-0.512 0.184,-0.488C0.184,-0.471 0.189,-0.458 0.199,-0.447C0.209,-0.436 0.221,-0.426 0.238,-0.419C0.254,-0.411 0.271,-0.404 0.288,-0.396L0.377,-0.359C0.403,-0.348 0.426,-0.335 0.446,-0.319C0.466,-0.304 0.481,-0.285 0.492,-0.263C0.503,-0.241 0.509,-0.214 0.509,-0.182C0.509,-0.147 0.5,-0.115 0.481,-0.085C0.463,-0.056 0.436,-0.032 0.401,-0.014C0.365,0.003 0.323,0.012 0.274,0.012Z" style="fill-rule:nonzero;"/>
        </g>
        <g transform="matrix(66.6667,0,0,66.6667,490,228.017)">
            <path d="M0.246,0.01C0.189,0.01 0.149,-0.007 0.126,-0.04C0.102,-0.073 0.09,-0.115 0.09,-0.168L0.09,-0.4L0.02,-0.4L0.02,-0.486L0.096,-0.491L0.11,-0.645L0.206,-0.645L0.206,-0.491L0.331,-0.491L0.331,-0.4L0.206,-0.4L0.206,-0.168C0.206,-0.139 0.212,-0.118 0.223,-0.104C0.234,-0.089 0.252,-0.082 0.275,-0.082C0.284,-0.082 0.292,-0.083 0.301,-0.084C0.31,-0.085 0.318,-0.088 0.326,-0.092L0.347,-0.011C0.334,-0.005 0.319,0 0.302,0.004C0.285,0.008 0.266,0.01 0.246,0.01Z" style="fill-rule:nonzero;"/>
        </g>
        <g transform="matrix(66.6667,0,0,66.6667,514.067,228.017)">
            <path d="M0.219,0.012C0.166,0.012 0.128,-0.005 0.104,-0.039C0.08,-0.073 0.068,-0.121 0.068,-0.183L0.068,-0.491L0.183,-0.491L0.183,-0.198C0.183,-0.157 0.189,-0.129 0.201,-0.112C0.213,-0.095 0.232,-0.087 0.259,-0.087C0.28,-0.087 0.299,-0.092 0.316,-0.103C0.332,-0.114 0.349,-0.131 0.368,-0.155L0.368,-0.491L0.483,-0.491L0.483,-0L0.389,-0L0.38,-0.072L0.377,-0.072C0.356,-0.047 0.332,-0.026 0.307,-0.011C0.282,0.004 0.252,0.012 0.219,0.012Z" style="fill-rule:nonzero;"/>
        </g>
        <g transform="matrix(66.6667,0,0,66.6667,551.133,228.017)">
            <path d="M0.245,0.012C0.184,0.012 0.135,-0.011 0.098,-0.056C0.062,-0.102 0.043,-0.165 0.043,-0.245C0.043,-0.299 0.053,-0.344 0.073,-0.383C0.092,-0.421 0.118,-0.451 0.15,-0.472C0.182,-0.493 0.215,-0.503 0.251,-0.503C0.279,-0.503 0.303,-0.498 0.323,-0.489C0.342,-0.479 0.361,-0.466 0.38,-0.449L0.376,-0.528L0.376,-0.706L0.491,-0.706L0.491,-0L0.396,-0L0.388,-0.053L0.384,-0.053C0.366,-0.035 0.345,-0.02 0.321,-0.007C0.297,0.006 0.271,0.012 0.245,0.012ZM0.273,-0.083C0.292,-0.083 0.31,-0.088 0.327,-0.097C0.343,-0.105 0.36,-0.119 0.376,-0.138L0.376,-0.367C0.359,-0.382 0.342,-0.393 0.326,-0.399C0.309,-0.405 0.293,-0.408 0.276,-0.408C0.255,-0.408 0.236,-0.402 0.219,-0.389C0.201,-0.377 0.188,-0.358 0.177,-0.334C0.167,-0.31 0.162,-0.281 0.162,-0.246C0.162,-0.193 0.171,-0.153 0.191,-0.125C0.211,-0.097 0.238,-0.083 0.273,-0.083Z" style="fill-rule:nonzero;"/>
        </g>
        <g transform="matrix(66.6667,0,0,66.6667,588.733,228.017)">
            <path d="M0.106,0.202C0.092,0.202 0.081,0.201 0.071,0.199C0.06,0.197 0.051,0.194 0.042,0.19L0.064,0.104C0.071,0.106 0.077,0.107 0.082,0.108C0.088,0.109 0.093,0.109 0.098,0.109C0.124,0.109 0.145,0.101 0.161,0.085C0.176,0.069 0.188,0.049 0.196,0.025L0.205,-0.006L0.012,-0.491L0.129,-0.491L0.214,-0.25C0.221,-0.229 0.229,-0.206 0.236,-0.183C0.243,-0.159 0.25,-0.135 0.257,-0.112L0.261,-0.112C0.267,-0.135 0.274,-0.158 0.28,-0.181C0.286,-0.205 0.292,-0.228 0.298,-0.25L0.372,-0.491L0.483,-0.491L0.305,0.022C0.292,0.059 0.276,0.091 0.259,0.118C0.242,0.145 0.221,0.165 0.196,0.18C0.172,0.194 0.141,0.202 0.106,0.202Z" style="fill-rule:nonzero;"/>
        </g>
        <g transform="matrix(66.6667,0,0,66.6667,621.72,228.017)">
        </g>
        <g transform="matrix(66.6667,0,0,66.6667,635.053,228.017)">
            <path d="M0.073,-0L0.073,-0.706L0.188,-0.706L0.188,-0.524L0.184,-0.429C0.204,-0.448 0.227,-0.466 0.253,-0.481C0.278,-0.496 0.307,-0.503 0.341,-0.503C0.394,-0.503 0.432,-0.486 0.456,-0.452C0.48,-0.418 0.492,-0.37 0.492,-0.308L0.492,-0L0.377,-0L0.377,-0.293C0.377,-0.334 0.371,-0.362 0.359,-0.379C0.347,-0.396 0.327,-0.404 0.3,-0.404C0.279,-0.404 0.26,-0.399 0.244,-0.389C0.227,-0.378 0.209,-0.363 0.188,-0.343L0.188,-0L0.073,-0Z" style="fill-rule:nonzero;"/>
        </g>
        <g transform="matrix(66.6667,0,0,66.6667,672.253,228.017)">
            <path d="M0.274,0.012C0.234,0.012 0.195,0.002 0.16,-0.018C0.124,-0.039 0.096,-0.068 0.074,-0.106C0.052,-0.145 0.041,-0.191 0.041,-0.245C0.041,-0.3 0.052,-0.346 0.074,-0.385C0.096,-0.423 0.124,-0.453 0.16,-0.473C0.195,-0.493 0.234,-0.503 0.274,-0.503C0.315,-0.503 0.353,-0.493 0.389,-0.473C0.424,-0.453 0.453,-0.423 0.475,-0.385C0.497,-0.346 0.508,-0.3 0.508,-0.245C0.508,-0.191 0.497,-0.145 0.475,-0.106C0.453,-0.068 0.424,-0.039 0.389,-0.018C0.353,0.002 0.315,0.012 0.274,0.012ZM0.274,-0.082C0.298,-0.082 0.319,-0.089 0.336,-0.102C0.354,-0.116 0.367,-0.135 0.376,-0.159C0.385,-0.184 0.39,-0.212 0.39,-0.245C0.39,-0.278 0.385,-0.307 0.376,-0.331C0.367,-0.356 0.354,-0.375 0.336,-0.389C0.319,-0.402 0.298,-0.409 0.274,-0.409C0.25,-0.409 0.23,-0.402 0.213,-0.389C0.195,-0.375 0.182,-0.356 0.173,-0.331C0.164,-0.307 0.159,-0.278 0.159,-0.245C0.159,-0.212 0.164,-0.184 0.173,-0.159C0.182,-0.135 0.195,-0.116 0.213,-0.102C0.23,-0.089 0.25,-0.082 0.274,-0.082Z" style="fill-rule:nonzero;"/>
        </g>
        <g transform="matrix(66.6667,0,0,66.6667,708.44,228.017)">
            <path d="M0.154,-0L0.024,-0.491L0.142,-0.491L0.2,-0.236C0.205,-0.214 0.21,-0.192 0.214,-0.169C0.218,-0.146 0.222,-0.119 0.225,-0.09L0.229,-0.09C0.234,-0.119 0.238,-0.146 0.243,-0.169C0.247,-0.192 0.251,-0.214 0.256,-0.236L0.316,-0.491L0.436,-0.491L0.498,-0.236C0.503,-0.214 0.508,-0.192 0.513,-0.169C0.518,-0.146 0.522,-0.119 0.527,-0.09L0.531,-0.09C0.536,-0.119 0.54,-0.146 0.544,-0.169C0.547,-0.192 0.551,-0.214 0.556,-0.236L0.614,-0.491L0.724,-0.491L0.599,-0L0.452,-0L0.402,-0.228C0.397,-0.25 0.393,-0.272 0.389,-0.295C0.384,-0.317 0.38,-0.344 0.376,-0.376L0.372,-0.376C0.368,-0.344 0.364,-0.317 0.36,-0.295C0.356,-0.272 0.351,-0.25 0.346,-0.228L0.296,-0L0.154,-0Z" style="fill-rule:nonzero;"/>
        </g>
        <g transform="matrix(66.6667,0,0,66.6667,758.306,228.017)">
        </g>
    </g>
    <g transform="matrix(1,0,0,1,-28.1026,112.758)">
        <g transform="matrix(66.6667,0,0,66.6667,449.764,228.017)">
            <path d="M0.159,-0L0.024,-0.486L0.11,-0.486L0.181,-0.205C0.186,-0.183 0.191,-0.161 0.196,-0.139C0.201,-0.117 0.205,-0.093 0.209,-0.067L0.213,-0.067C0.218,-0.093 0.223,-0.117 0.228,-0.139C0.233,-0.161 0.238,-0.183 0.244,-0.205L0.316,-0.486L0.406,-0.486L0.479,-0.205C0.485,-0.183 0.49,-0.161 0.496,-0.139C0.501,-0.117 0.506,-0.093 0.511,-0.067L0.515,-0.067C0.52,-0.093 0.525,-0.117 0.53,-0.139C0.534,-0.161 0.539,-0.183 0.544,-0.205L0.615,-0.486L0.695,-0.486L0.564,-0L0.457,-0L0.392,-0.26C0.387,-0.283 0.381,-0.305 0.377,-0.328C0.372,-0.35 0.367,-0.375 0.361,-0.404L0.357,-0.404C0.353,-0.375 0.348,-0.35 0.343,-0.327C0.338,-0.305 0.332,-0.282 0.326,-0.26L0.261,-0L0.159,-0Z" style="fill-rule:nonzero;"/>
        </g>
        <g transform="matrix(66.6667,0,0,66.6667,497.672,228.017)">
            <path d="M0.082,-0L0.082,-0.486L0.164,-0.486L0.164,-0L0.082,-0ZM0.123,-0.586C0.107,-0.586 0.094,-0.591 0.084,-0.601C0.073,-0.611 0.068,-0.624 0.068,-0.64C0.068,-0.656 0.073,-0.669 0.084,-0.679C0.094,-0.689 0.107,-0.694 0.123,-0.694C0.139,-0.694 0.152,-0.689 0.163,-0.679C0.173,-0.669 0.178,-0.656 0.178,-0.64C0.178,-0.624 0.173,-0.611 0.163,-0.601C0.152,-0.591 0.139,-0.586 0.123,-0.586Z" style="fill-rule:nonzero;"/>
        </g>
        <g transform="matrix(66.6667,0,0,66.6667,514.091,228.017)">
            <path d="M0.235,0.009C0.183,0.009 0.147,-0.006 0.127,-0.036C0.106,-0.066 0.096,-0.105 0.096,-0.153L0.096,-0.419L0.024,-0.419L0.024,-0.481L0.1,-0.486L0.11,-0.642L0.179,-0.642L0.179,-0.486L0.311,-0.486L0.311,-0.419L0.179,-0.419L0.179,-0.152C0.179,-0.122 0.184,-0.099 0.196,-0.083C0.207,-0.066 0.226,-0.058 0.254,-0.058C0.263,-0.058 0.272,-0.059 0.281,-0.061C0.29,-0.062 0.299,-0.066 0.309,-0.07L0.327,-0.012C0.314,-0.006 0.3,-0.001 0.284,0.003C0.268,0.007 0.252,0.009 0.235,0.009Z" style="fill-rule:nonzero;"/>
        </g>
        <g transform="matrix(66.6667,0,0,66.6667,536.637,228.017)">
            <path d="M0.082,-0L0.082,-0.712L0.164,-0.712L0.164,-0.518L0.161,-0.418C0.184,-0.44 0.208,-0.459 0.234,-0.474C0.26,-0.49 0.29,-0.498 0.323,-0.498C0.374,-0.498 0.412,-0.482 0.436,-0.45C0.459,-0.417 0.471,-0.37 0.471,-0.308L0.471,-0L0.389,-0L0.389,-0.297C0.389,-0.343 0.382,-0.376 0.367,-0.396C0.353,-0.416 0.33,-0.427 0.297,-0.427C0.272,-0.427 0.25,-0.42 0.231,-0.408C0.211,-0.395 0.189,-0.377 0.164,-0.352L0.164,-0L0.082,-0Z" style="fill-rule:nonzero;"/>
        </g>
        <g transform="matrix(66.6667,0,0,66.6667,572.909,228.017)">
        </g>
        <g transform="matrix(66.6667,0,0,66.6667,586.242,228.017)">
            <path d="M0.271,0.012C0.231,0.012 0.194,0.002 0.16,-0.018C0.126,-0.038 0.098,-0.067 0.077,-0.105C0.056,-0.143 0.046,-0.189 0.046,-0.242C0.046,-0.296 0.056,-0.343 0.077,-0.381C0.098,-0.419 0.126,-0.448 0.16,-0.468C0.194,-0.488 0.231,-0.498 0.271,-0.498C0.311,-0.498 0.348,-0.488 0.382,-0.468C0.416,-0.448 0.444,-0.419 0.465,-0.381C0.486,-0.343 0.496,-0.296 0.496,-0.242C0.496,-0.189 0.486,-0.143 0.465,-0.105C0.444,-0.067 0.416,-0.038 0.382,-0.018C0.348,0.002 0.311,0.012 0.271,0.012ZM0.271,-0.056C0.299,-0.056 0.324,-0.064 0.345,-0.08C0.366,-0.095 0.382,-0.117 0.394,-0.145C0.406,-0.173 0.411,-0.205 0.411,-0.242C0.411,-0.28 0.406,-0.312 0.394,-0.34C0.382,-0.368 0.366,-0.39 0.345,-0.406C0.324,-0.422 0.299,-0.43 0.271,-0.43C0.243,-0.43 0.219,-0.422 0.198,-0.406C0.177,-0.39 0.16,-0.368 0.149,-0.34C0.137,-0.312 0.131,-0.28 0.131,-0.242C0.131,-0.205 0.137,-0.173 0.149,-0.145C0.16,-0.117 0.177,-0.095 0.198,-0.08C0.219,-0.064 0.243,-0.056 0.271,-0.056Z" style="fill-rule:nonzero;"/>
        </g>
        <g transform="matrix(66.6667,0,0,66.6667,621.262,228.017)">
            <path d="M0.235,0.009C0.183,0.009 0.147,-0.006 0.127,-0.036C0.106,-0.066 0.096,-0.105 0.096,-0.153L0.096,-0.419L0.024,-0.419L0.024,-0.481L0.1,-0.486L0.11,-0.642L0.179,-0.642L0.179,-0.486L0.311,-0.486L0.311,-0.419L0.179,-0.419L0.179,-0.152C0.179,-0.122 0.184,-0.099 0.196,-0.083C0.207,-0.066 0.226,-0.058 0.254,-0.058C0.263,-0.058 0.272,-0.059 0.281,-0.061C0.29,-0.062 0.299,-0.066 0.309,-0.07L0.327,-0.012C0.314,-0.006 0.3,-0.001 0.284,0.003C0.268,0.007 0.252,0.009 0.235,0.009Z" style="fill-rule:nonzero;"/>
        </g>
        <g transform="matrix(66.6667,0,0,66.6667,643.808,228.017)">
            <path d="M0.082,-0L0.082,-0.712L0.164,-0.712L0.164,-0.518L0.161,-0.418C0.184,-0.44 0.208,-0.459 0.234,-0.474C0.26,-0.49 0.29,-0.498 0.323,-0.498C0.374,-0.498 0.412,-0.482 0.436,-0.45C0.459,-0.417 0.471,-0.37 0.471,-0.308L0.471,-0L0.389,-0L0.389,-0.297C0.389,-0.343 0.382,-0.376 0.367,-0.396C0.353,-0.416 0.33,-0.427 0.297,-0.427C0.272,-0.427 0.25,-0.42 0.231,-0.408C0.211,-0.395 0.189,-0.377 0.164,-0.352L0.164,-0L0.082,-0Z" style="fill-rule:nonzero;"/>
        </g>
        <g transform="matrix(66.6667,0,0,66.6667,680.08,228.017)">
            <path d="M0.279,0.012C0.236,0.012 0.196,0.002 0.161,-0.018C0.125,-0.039 0.097,-0.068 0.076,-0.106C0.056,-0.143 0.045,-0.189 0.045,-0.243C0.045,-0.296 0.056,-0.341 0.077,-0.379C0.098,-0.417 0.125,-0.447 0.159,-0.467C0.192,-0.488 0.228,-0.498 0.265,-0.498C0.306,-0.498 0.342,-0.489 0.371,-0.47C0.399,-0.451 0.421,-0.424 0.436,-0.39C0.451,-0.356 0.458,-0.316 0.458,-0.27C0.458,-0.262 0.458,-0.253 0.457,-0.245C0.457,-0.237 0.456,-0.229 0.454,-0.221L0.104,-0.221L0.104,-0.286L0.384,-0.286C0.384,-0.333 0.374,-0.369 0.354,-0.394C0.333,-0.419 0.304,-0.431 0.266,-0.431C0.244,-0.431 0.222,-0.425 0.201,-0.413C0.18,-0.4 0.162,-0.38 0.148,-0.353C0.135,-0.325 0.128,-0.289 0.128,-0.244C0.128,-0.202 0.135,-0.168 0.149,-0.14C0.164,-0.112 0.183,-0.091 0.208,-0.077C0.233,-0.062 0.26,-0.055 0.289,-0.055C0.312,-0.055 0.334,-0.059 0.354,-0.065C0.375,-0.072 0.393,-0.08 0.41,-0.092L0.44,-0.038C0.419,-0.023 0.395,-0.011 0.369,-0.002C0.342,0.007 0.312,0.012 0.279,0.012Z" style="fill-rule:nonzero;"/>
        </g>
        <g transform="matrix(66.6667,0,0,66.6667,713.132,228.017)">
            <path d="M0.082,-0L0.082,-0.486L0.15,-0.486L0.157,-0.398L0.16,-0.398C0.176,-0.429 0.196,-0.453 0.22,-0.471C0.244,-0.489 0.27,-0.498 0.298,-0.498C0.309,-0.498 0.318,-0.497 0.326,-0.496C0.334,-0.494 0.342,-0.492 0.35,-0.488L0.332,-0.418C0.325,-0.42 0.318,-0.421 0.312,-0.422C0.305,-0.423 0.297,-0.424 0.287,-0.424C0.267,-0.424 0.245,-0.416 0.223,-0.399C0.2,-0.383 0.181,-0.354 0.164,-0.312L0.164,-0L0.082,-0Z" style="fill-rule:nonzero;"/>
        </g>
        <g transform="matrix(66.6667,0,0,66.6667,736.013,228.017)">
            <path d="M0.209,0.012C0.174,0.012 0.14,0.006 0.109,-0.007C0.077,-0.019 0.05,-0.036 0.028,-0.058L0.066,-0.106C0.087,-0.088 0.109,-0.075 0.132,-0.066C0.155,-0.057 0.182,-0.052 0.212,-0.052C0.244,-0.052 0.268,-0.06 0.284,-0.074C0.3,-0.089 0.308,-0.107 0.308,-0.128C0.308,-0.144 0.302,-0.158 0.292,-0.169C0.281,-0.18 0.267,-0.19 0.251,-0.197C0.234,-0.205 0.216,-0.212 0.198,-0.219C0.174,-0.228 0.151,-0.238 0.129,-0.25C0.107,-0.261 0.089,-0.276 0.076,-0.294C0.062,-0.311 0.055,-0.334 0.055,-0.36C0.055,-0.399 0.07,-0.432 0.099,-0.459C0.129,-0.485 0.17,-0.498 0.223,-0.498C0.253,-0.498 0.281,-0.493 0.307,-0.483C0.333,-0.473 0.355,-0.459 0.374,-0.443L0.336,-0.396C0.319,-0.408 0.301,-0.417 0.283,-0.424C0.265,-0.431 0.245,-0.434 0.223,-0.434C0.193,-0.434 0.17,-0.427 0.156,-0.413C0.141,-0.399 0.134,-0.383 0.134,-0.364C0.134,-0.349 0.138,-0.337 0.147,-0.327C0.156,-0.318 0.168,-0.309 0.184,-0.302C0.199,-0.295 0.217,-0.288 0.237,-0.281C0.262,-0.271 0.287,-0.261 0.31,-0.249C0.332,-0.238 0.351,-0.223 0.365,-0.205C0.38,-0.186 0.387,-0.162 0.387,-0.133C0.387,-0.106 0.38,-0.082 0.366,-0.06C0.353,-0.038 0.333,-0.021 0.306,-0.008C0.28,0.005 0.248,0.012 0.209,0.012Z" style="fill-rule:nonzero;"/>
        </g>
        <g transform="matrix(66.6667,0,0,66.6667,763.956,228.017)">
        </g>
    </g>
    <g transform="matrix(1,0,0,1,-134.267,34.0374)">
        <g transform="matrix(66.6667,0,0,66.6667,275.969,306.738)">
            <path d="M0.194,0.012C0.167,0.012 0.143,0.007 0.121,-0.004C0.1,-0.015 0.083,-0.031 0.07,-0.051C0.058,-0.072 0.051,-0.097 0.051,-0.126C0.051,-0.181 0.075,-0.222 0.123,-0.25C0.171,-0.278 0.247,-0.298 0.351,-0.309C0.351,-0.329 0.348,-0.349 0.342,-0.367C0.336,-0.385 0.326,-0.4 0.311,-0.412C0.297,-0.423 0.276,-0.429 0.25,-0.429C0.222,-0.429 0.196,-0.424 0.171,-0.413C0.146,-0.403 0.124,-0.392 0.105,-0.379L0.073,-0.435C0.088,-0.445 0.105,-0.455 0.125,-0.465C0.145,-0.475 0.166,-0.483 0.19,-0.489C0.213,-0.495 0.238,-0.498 0.264,-0.498C0.304,-0.498 0.336,-0.49 0.36,-0.473C0.385,-0.457 0.403,-0.434 0.415,-0.404C0.427,-0.374 0.433,-0.338 0.433,-0.298L0.433,-0L0.365,-0L0.358,-0.058L0.355,-0.058C0.331,-0.039 0.306,-0.022 0.28,-0.009C0.253,0.005 0.225,0.012 0.194,0.012ZM0.217,-0.056C0.241,-0.056 0.263,-0.062 0.284,-0.072C0.305,-0.083 0.327,-0.098 0.351,-0.119L0.351,-0.25C0.296,-0.244 0.253,-0.235 0.221,-0.224C0.189,-0.214 0.167,-0.201 0.153,-0.186C0.139,-0.17 0.132,-0.152 0.132,-0.132C0.132,-0.105 0.141,-0.085 0.157,-0.074C0.174,-0.062 0.194,-0.056 0.217,-0.056Z" style="fill-rule:nonzero;"/>
        </g>
        <g transform="matrix(66.6667,0,0,66.6667,309.595,306.738)">
            <path d="M0.169,0.009C0.149,0.009 0.132,0.005 0.119,-0.003C0.106,-0.012 0.097,-0.024 0.091,-0.04C0.085,-0.057 0.082,-0.077 0.082,-0.1L0.082,-0.712L0.164,-0.712L0.164,-0.094C0.164,-0.081 0.166,-0.072 0.171,-0.067C0.176,-0.062 0.182,-0.059 0.188,-0.059C0.191,-0.059 0.193,-0.059 0.196,-0.06C0.198,-0.06 0.201,-0.061 0.205,-0.061L0.217,0.001C0.211,0.003 0.204,0.005 0.196,0.007C0.188,0.008 0.179,0.009 0.169,0.009Z" style="fill-rule:nonzero;"/>
        </g>
        <g transform="matrix(66.6667,0,0,66.6667,326.605,306.738)">
            <path d="M0.271,0.012C0.231,0.012 0.194,0.002 0.16,-0.018C0.126,-0.038 0.098,-0.067 0.077,-0.105C0.056,-0.143 0.046,-0.189 0.046,-0.242C0.046,-0.296 0.056,-0.343 0.077,-0.381C0.098,-0.419 0.126,-0.448 0.16,-0.468C0.194,-0.488 0.231,-0.498 0.271,-0.498C0.311,-0.498 0.348,-0.488 0.382,-0.468C0.416,-0.448 0.444,-0.419 0.465,-0.381C0.486,-0.343 0.496,-0.296 0.496,-0.242C0.496,-0.189 0.486,-0.143 0.465,-0.105C0.444,-0.067 0.416,-0.038 0.382,-0.018C0.348,0.002 0.311,0.012 0.271,0.012ZM0.271,-0.056C0.299,-0.056 0.324,-0.064 0.345,-0.08C0.366,-0.095 0.382,-0.117 0.394,-0.145C0.406,-0.173 0.411,-0.205 0.411,-0.242C0.411,-0.28 0.406,-0.312 0.394,-0.34C0.382,-0.368 0.366,-0.39 0.345,-0.406C0.324,-0.422 0.299,-0.43 0.271,-0.43C0.243,-0.43 0.219,-0.422 0.198,-0.406C0.177,-0.39 0.16,-0.368 0.149,-0.34C0.137,-0.312 0.131,-0.28 0.131,-0.242C0.131,-0.205 0.137,-0.173 0.149,-0.145C0.16,-0.117 0.177,-0.095 0.198,-0.08C0.219,-0.064 0.243,-0.056 0.271,-0.056Z" style="fill-rule:nonzero;"/>
        </g>
        <g transform="matrix(66.6667,0,0,66.6667,362.759,306.738)">
            <path d="M0.082,-0L0.082,-0.486L0.15,-0.486L0.157,-0.416L0.16,-0.416C0.183,-0.439 0.208,-0.459 0.234,-0.474C0.26,-0.49 0.29,-0.498 0.323,-0.498C0.374,-0.498 0.412,-0.482 0.436,-0.45C0.459,-0.417 0.471,-0.37 0.471,-0.308L0.471,-0L0.389,-0L0.389,-0.297C0.389,-0.343 0.382,-0.376 0.367,-0.396C0.353,-0.416 0.33,-0.427 0.297,-0.427C0.272,-0.427 0.25,-0.42 0.231,-0.408C0.211,-0.395 0.189,-0.377 0.164,-0.352L0.164,-0L0.082,-0Z" style="fill-rule:nonzero;"/>
        </g>
        <g transform="matrix(66.6667,0,0,66.6667,399.199,306.738)">
            <path d="M0.279,0.012C0.236,0.012 0.196,0.002 0.161,-0.018C0.125,-0.039 0.097,-0.068 0.076,-0.106C0.056,-0.143 0.045,-0.189 0.045,-0.243C0.045,-0.296 0.056,-0.341 0.077,-0.379C0.098,-0.417 0.125,-0.447 0.159,-0.467C0.192,-0.488 0.228,-0.498 0.265,-0.498C0.306,-0.498 0.342,-0.489 0.371,-0.47C0.399,-0.451 0.421,-0.424 0.436,-0.39C0.451,-0.356 0.458,-0.316 0.458,-0.27C0.458,-0.262 0.458,-0.253 0.457,-0.245C0.457,-0.237 0.456,-0.229 0.454,-0.221L0.104,-0.221L0.104,-0.286L0.384,-0.286C0.384,-0.333 0.374,-0.369 0.354,-0.394C0.333,-0.419 0.304,-0.431 0.266,-0.431C0.244,-0.431 0.222,-0.425 0.201,-0.413C0.18,-0.4 0.162,-0.38 0.148,-0.353C0.135,-0.325 0.128,-0.289 0.128,-0.244C0.128,-0.202 0.135,-0.168 0.149,-0.14C0.164,-0.112 0.183,-0.091 0.208,-0.077C0.233,-0.062 0.26,-0.055 0.289,-0.055C0.312,-0.055 0.334,-0.059 0.354,-0.065C0.375,-0.072 0.393,-0.08 0.41,-0.092L0.44,-0.038C0.419,-0.023 0.395,-0.011 0.369,-0.002C0.342,0.007 0.312,0.012 0.279,0.012Z" style="fill-rule:nonzero;"/>
        </g>
        <g transform="matrix(66.6667,0,0,66.6667,432.251,306.738)">
        </g>
    </g>
    <g transform="matrix(1,0,0,1,-310.439,-215.203)">
        <path d="M549.688,472.528L702.601,345.796L855.513,472.528" style="fill:none;stroke:black;stroke-width:8.33px;"/>
    </g>
    <g transform="matrix(1,0,0,1,8.1599,76.4434)">
        <g transform="matrix(85.3333,0,0,85.3333,237.793,482.477)">
        </g>
        <text x="186.593px" y="482.477px" style="font-family:'PTMono-Regular', 'PT Mono', monospace;font-size:85.333px;">0</text>
    </g>
    <g transform="matrix(1,0,0,1,366.286,76.4434)">
        <g transform="matrix(85.3333,0,0,85.3333,237.793,482.477)">
        </g>
        <text x="186.593px" y="482.477px" style="font-family:'PTMono-Regular', 'PT Mono', monospace;font-size:85.333px;">1</text>
    </g>
    <g transform="matrix(1.34002,0,0,1.08614,-363.02,205.091)">
        <g transform="matrix(0.746257,-0,-0,0.920691,270.906,-188.826)">
            <path d="M598.48,445.416L578.48,465.416L558.48,445.416" style="fill:none;stroke:black;stroke-width:5.33px;stroke-linejoin:miter;stroke-miterlimit:10;"/>
            <path d="M578.48,369.302L578.48,465.416" style="fill:none;stroke:black;stroke-width:5.33px;"/>
        </g>
    </g>
    <g transform="matrix(1.32628,0,0,1.07501,-711.537,206.775)">
        <g transform="matrix(0.753987,-0,-0,0.930227,536.49,-192.348)">
            <path d="M240.311,444.392L220.311,464.392L200.311,444.392" style="fill:none;stroke:black;stroke-width:5.33px;stroke-linejoin:miter;stroke-miterlimit:10;"/>
            <path d="M220.311,369.302L220.311,464.392" style="fill:none;stroke:black;stroke-width:5.33px;"/>
        </g>
    </g>
</svg>
