<?xml version="1.0" encoding="UTF-8"?>
<svg xmlns="http://www.w3.org/2000/svg" xmlns:xlink="http://www.w3.org/1999/xlink" width="864pt" height="576pt" viewBox="0 0 864 576">
<defs>
<g>
<g id="glyph-0-0">
<path d="M 0.71875 0 L 0.71875 -16.078125 L 13.484375 -16.078125 L 13.484375 0 Z M 11.46875 -2.015625 L 11.46875 -14.0625 L 2.734375 -14.0625 L 2.734375 -2.015625 Z M 11.46875 -2.015625 "/>
</g>
<g id="glyph-0-1">
<path d="M 6.0625 -15.671875 C 8.09375 -15.671875 9.554688 -14.832031 10.453125 -13.15625 C 11.160156 -11.863281 11.515625 -10.097656 11.515625 -7.859375 C 11.515625 -5.722656 11.195312 -3.960938 10.5625 -2.578125 C 9.632812 -0.578125 8.128906 0.421875 6.046875 0.421875 C 4.171875 0.421875 2.769531 -0.394531 1.84375 -2.03125 C 1.082031 -3.382812 0.703125 -5.210938 0.703125 -7.515625 C 0.703125 -9.296875 0.929688 -10.820312 1.390625 -12.09375 C 2.253906 -14.476562 3.8125 -15.671875 6.0625 -15.671875 Z M 6.046875 -1.375 C 7.066406 -1.375 7.878906 -1.820312 8.484375 -2.71875 C 9.085938 -3.625 9.390625 -5.3125 9.390625 -7.78125 C 9.390625 -9.5625 9.171875 -11.023438 8.734375 -12.171875 C 8.296875 -13.316406 7.445312 -13.890625 6.1875 -13.890625 C 5.019531 -13.890625 4.164062 -13.34375 3.625 -12.25 C 3.09375 -11.164062 2.828125 -9.5625 2.828125 -7.4375 C 2.828125 -5.84375 3 -4.5625 3.34375 -3.59375 C 3.875 -2.113281 4.773438 -1.375 6.046875 -1.375 Z M 6.046875 -1.375 "/>
</g>
<g id="glyph-0-2">
<path d="M 2.140625 -11.09375 L 2.140625 -12.609375 C 3.566406 -12.742188 4.5625 -12.972656 5.125 -13.296875 C 5.6875 -13.617188 6.101562 -14.382812 6.375 -15.59375 L 7.9375 -15.59375 L 7.9375 0 L 5.828125 0 L 5.828125 -11.09375 Z M 2.140625 -11.09375 "/>
</g>
<g id="glyph-0-3">
<path d="M 7.40625 -5.546875 L 7.40625 -12.640625 L 2.390625 -5.546875 Z M 7.4375 0 L 7.4375 -3.828125 L 0.5625 -3.828125 L 0.5625 -5.75 L 7.75 -15.703125 L 9.40625 -15.703125 L 9.40625 -5.546875 L 11.71875 -5.546875 L 11.71875 -3.828125 L 9.40625 -3.828125 L 9.40625 0 Z M 7.4375 0 "/>
</g>
<g id="glyph-0-4">
<path d="M 6.546875 -15.734375 C 8.296875 -15.734375 9.515625 -15.28125 10.203125 -14.375 C 10.898438 -13.46875 11.25 -12.53125 11.25 -11.5625 L 9.296875 -11.5625 C 9.179688 -12.1875 8.992188 -12.671875 8.734375 -13.015625 C 8.265625 -13.671875 7.550781 -14 6.59375 -14 C 5.488281 -14 4.609375 -13.488281 3.953125 -12.46875 C 3.304688 -11.457031 2.945312 -10.003906 2.875 -8.109375 C 3.332031 -8.773438 3.898438 -9.269531 4.578125 -9.59375 C 5.210938 -9.882812 5.914062 -10.03125 6.6875 -10.03125 C 8 -10.03125 9.144531 -9.609375 10.125 -8.765625 C 11.101562 -7.929688 11.59375 -6.679688 11.59375 -5.015625 C 11.59375 -3.597656 11.128906 -2.335938 10.203125 -1.234375 C 9.273438 -0.140625 7.953125 0.40625 6.234375 0.40625 C 4.765625 0.40625 3.5 -0.148438 2.4375 -1.265625 C 1.375 -2.378906 0.84375 -4.25 0.84375 -6.875 C 0.84375 -8.820312 1.078125 -10.476562 1.546875 -11.84375 C 2.460938 -14.4375 4.128906 -15.734375 6.546875 -15.734375 Z M 6.40625 -1.34375 C 7.445312 -1.34375 8.222656 -1.691406 8.734375 -2.390625 C 9.242188 -3.085938 9.5 -3.910156 9.5 -4.859375 C 9.5 -5.660156 9.269531 -6.421875 8.8125 -7.140625 C 8.351562 -7.867188 7.519531 -8.234375 6.3125 -8.234375 C 5.46875 -8.234375 4.722656 -7.953125 4.078125 -7.390625 C 3.441406 -6.828125 3.125 -5.984375 3.125 -4.859375 C 3.125 -3.867188 3.414062 -3.035156 4 -2.359375 C 4.582031 -1.679688 5.382812 -1.34375 6.40625 -1.34375 Z M 6.40625 -1.34375 "/>
</g>
<g id="glyph-0-5">
<path d="M 6.09375 -9.109375 C 6.957031 -9.109375 7.632812 -9.347656 8.125 -9.828125 C 8.613281 -10.316406 8.859375 -10.894531 8.859375 -11.5625 C 8.859375 -12.144531 8.625 -12.679688 8.15625 -13.171875 C 7.695312 -13.660156 6.988281 -13.90625 6.03125 -13.90625 C 5.082031 -13.90625 4.394531 -13.660156 3.96875 -13.171875 C 3.550781 -12.679688 3.34375 -12.109375 3.34375 -11.453125 C 3.34375 -10.710938 3.613281 -10.132812 4.15625 -9.71875 C 4.707031 -9.3125 5.351562 -9.109375 6.09375 -9.109375 Z M 6.21875 -1.34375 C 7.125 -1.34375 7.878906 -1.585938 8.484375 -2.078125 C 9.085938 -2.578125 9.390625 -3.3125 9.390625 -4.28125 C 9.390625 -5.300781 9.078125 -6.070312 8.453125 -6.59375 C 7.835938 -7.125 7.046875 -7.390625 6.078125 -7.390625 C 5.128906 -7.390625 4.359375 -7.117188 3.765625 -6.578125 C 3.171875 -6.046875 2.875 -5.304688 2.875 -4.359375 C 2.875 -3.535156 3.144531 -2.828125 3.6875 -2.234375 C 4.226562 -1.640625 5.070312 -1.34375 6.21875 -1.34375 Z M 3.40625 -8.34375 C 2.863281 -8.582031 2.441406 -8.859375 2.140625 -9.171875 C 1.554688 -9.753906 1.265625 -10.507812 1.265625 -11.4375 C 1.265625 -12.601562 1.6875 -13.601562 2.53125 -14.4375 C 3.382812 -15.28125 4.585938 -15.703125 6.140625 -15.703125 C 7.640625 -15.703125 8.816406 -15.304688 9.671875 -14.515625 C 10.523438 -13.734375 10.953125 -12.8125 10.953125 -11.75 C 10.953125 -10.769531 10.703125 -9.976562 10.203125 -9.375 C 9.929688 -9.03125 9.503906 -8.695312 8.921875 -8.375 C 9.566406 -8.070312 10.078125 -7.726562 10.453125 -7.34375 C 11.140625 -6.613281 11.484375 -5.664062 11.484375 -4.5 C 11.484375 -3.113281 11.019531 -1.941406 10.09375 -0.984375 C 9.164062 -0.0234375 7.859375 0.453125 6.171875 0.453125 C 4.648438 0.453125 3.359375 0.0390625 2.296875 -0.78125 C 1.242188 -1.613281 0.71875 -2.816406 0.71875 -4.390625 C 0.71875 -5.316406 0.941406 -6.117188 1.390625 -6.796875 C 1.847656 -7.472656 2.519531 -7.988281 3.40625 -8.34375 Z M 3.40625 -8.34375 "/>
</g>
<g id="glyph-1-0">
<path d="M 0.90625 0 L 0.90625 -20.078125 L 16.84375 -20.078125 L 16.84375 0 Z M 14.328125 -2.515625 L 14.328125 -17.5625 L 3.421875 -17.5625 L 3.421875 -2.515625 Z M 14.328125 -2.515625 "/>
</g>
<g id="glyph-1-1">
<path d="M 12.4375 -8.234375 L 9.390625 -17.109375 L 6.15625 -8.234375 Z M 7.96875 -20.078125 L 11.046875 -20.078125 L 18.328125 0 L 15.359375 0 L 13.3125 -6.015625 L 5.375 -6.015625 L 3.203125 0 L 0.40625 0 Z M 7.96875 -20.078125 "/>
</g>
<g id="glyph-1-2">
<path d="M 6.96875 -14.90625 C 8.125 -14.90625 9.128906 -14.625 9.984375 -14.0625 C 10.441406 -13.738281 10.914062 -13.269531 11.40625 -12.65625 L 11.40625 -14.5 L 13.671875 -14.5 L 13.671875 -1.1875 C 13.671875 0.664062 13.398438 2.132812 12.859375 3.21875 C 11.835938 5.195312 9.90625 6.1875 7.0625 6.1875 C 5.488281 6.1875 4.164062 5.832031 3.09375 5.125 C 2.019531 4.425781 1.414062 3.320312 1.28125 1.8125 L 3.78125 1.8125 C 3.90625 2.46875 4.144531 2.976562 4.5 3.34375 C 5.050781 3.882812 5.925781 4.15625 7.125 4.15625 C 9.007812 4.15625 10.242188 3.488281 10.828125 2.15625 C 11.171875 1.375 11.332031 -0.0195312 11.3125 -2.03125 C 10.8125 -1.289062 10.210938 -0.738281 9.515625 -0.375 C 8.828125 -0.0078125 7.914062 0.171875 6.78125 0.171875 C 5.195312 0.171875 3.804688 -0.390625 2.609375 -1.515625 C 1.421875 -2.640625 0.828125 -4.5 0.828125 -7.09375 C 0.828125 -9.550781 1.425781 -11.46875 2.625 -12.84375 C 3.832031 -14.21875 5.28125 -14.90625 6.96875 -14.90625 Z M 11.40625 -7.390625 C 11.40625 -9.203125 11.03125 -10.546875 10.28125 -11.421875 C 9.53125 -12.296875 8.578125 -12.734375 7.421875 -12.734375 C 5.691406 -12.734375 4.507812 -11.921875 3.875 -10.296875 C 3.53125 -9.429688 3.359375 -8.296875 3.359375 -6.890625 C 3.359375 -5.242188 3.691406 -3.988281 4.359375 -3.125 C 5.035156 -2.257812 5.9375 -1.828125 7.0625 -1.828125 C 8.832031 -1.828125 10.078125 -2.625 10.796875 -4.21875 C 11.203125 -5.125 11.40625 -6.179688 11.40625 -7.390625 Z M 7.265625 -15 Z M 7.265625 -15 "/>
</g>
<g id="glyph-1-3">
<path d="M 7.90625 -14.96875 C 8.945312 -14.96875 9.953125 -14.722656 10.921875 -14.234375 C 11.898438 -13.753906 12.644531 -13.125 13.15625 -12.34375 C 13.644531 -11.601562 13.972656 -10.742188 14.140625 -9.765625 C 14.285156 -9.085938 14.359375 -8.007812 14.359375 -6.53125 L 3.625 -6.53125 C 3.664062 -5.050781 4.015625 -3.859375 4.671875 -2.953125 C 5.328125 -2.054688 6.34375 -1.609375 7.71875 -1.609375 C 9.007812 -1.609375 10.035156 -2.035156 10.796875 -2.890625 C 11.234375 -3.378906 11.546875 -3.945312 11.734375 -4.59375 L 14.15625 -4.59375 C 14.09375 -4.050781 13.878906 -3.453125 13.515625 -2.796875 C 13.148438 -2.140625 12.75 -1.597656 12.3125 -1.171875 C 11.5625 -0.441406 10.632812 0.046875 9.53125 0.296875 C 8.9375 0.441406 8.265625 0.515625 7.515625 0.515625 C 5.691406 0.515625 4.144531 -0.144531 2.875 -1.46875 C 1.613281 -2.789062 0.984375 -4.648438 0.984375 -7.046875 C 0.984375 -9.390625 1.617188 -11.296875 2.890625 -12.765625 C 4.171875 -14.234375 5.84375 -14.96875 7.90625 -14.96875 Z M 11.828125 -8.484375 C 11.722656 -9.554688 11.488281 -10.410156 11.125 -11.046875 C 10.457031 -12.234375 9.332031 -12.828125 7.75 -12.828125 C 6.625 -12.828125 5.675781 -12.414062 4.90625 -11.59375 C 4.144531 -10.78125 3.738281 -9.742188 3.6875 -8.484375 Z M 7.671875 -15 Z M 7.671875 -15 "/>
</g>
<g id="glyph-1-4">
</g>
<g id="glyph-1-5">
<path d="M 8.28125 -20.40625 C 6.851562 -17.632812 5.925781 -15.59375 5.5 -14.28125 C 4.851562 -12.28125 4.53125 -9.972656 4.53125 -7.359375 C 4.53125 -4.710938 4.898438 -2.296875 5.640625 -0.109375 C 6.085938 1.242188 6.984375 3.1875 8.328125 5.71875 L 6.671875 5.71875 C 5.335938 3.632812 4.507812 2.304688 4.1875 1.734375 C 3.875 1.160156 3.53125 0.378906 3.15625 -0.609375 C 2.644531 -1.953125 2.289062 -3.390625 2.09375 -4.921875 C 1.988281 -5.710938 1.9375 -6.46875 1.9375 -7.1875 C 1.9375 -9.882812 2.363281 -12.285156 3.21875 -14.390625 C 3.75 -15.734375 4.867188 -17.738281 6.578125 -20.40625 Z M 8.28125 -20.40625 "/>
</g>
<g id="glyph-1-6">
<path d="M 10.953125 -14.640625 L 13.671875 -14.640625 C 13.328125 -13.703125 12.554688 -11.5625 11.359375 -8.21875 C 10.460938 -5.695312 9.71875 -3.644531 9.125 -2.0625 C 7.695312 1.675781 6.691406 3.953125 6.109375 4.765625 C 5.523438 5.585938 4.523438 6 3.109375 6 C 2.753906 6 2.484375 5.984375 2.296875 5.953125 C 2.117188 5.929688 1.890625 5.882812 1.609375 5.8125 L 1.609375 3.5625 C 2.035156 3.6875 2.34375 3.757812 2.53125 3.78125 C 2.726562 3.8125 2.898438 3.828125 3.046875 3.828125 C 3.503906 3.828125 3.835938 3.75 4.046875 3.59375 C 4.265625 3.445312 4.445312 3.265625 4.59375 3.046875 C 4.632812 2.972656 4.796875 2.597656 5.078125 1.921875 C 5.367188 1.253906 5.578125 0.753906 5.703125 0.421875 L 0.28125 -14.640625 L 3.078125 -14.640625 L 7 -2.71875 Z M 6.984375 -15 Z M 6.984375 -15 "/>
</g>
<g id="glyph-1-7">
<path d="M 3.6875 -3.890625 C 3.6875 -3.179688 3.945312 -2.617188 4.46875 -2.203125 C 4.988281 -1.796875 5.601562 -1.59375 6.3125 -1.59375 C 7.175781 -1.59375 8.015625 -1.796875 8.828125 -2.203125 C 10.203125 -2.867188 10.890625 -3.957031 10.890625 -5.46875 L 10.890625 -7.453125 C 10.585938 -7.265625 10.195312 -7.101562 9.71875 -6.96875 C 9.25 -6.84375 8.785156 -6.753906 8.328125 -6.703125 L 6.84375 -6.515625 C 5.945312 -6.390625 5.273438 -6.203125 4.828125 -5.953125 C 4.066406 -5.523438 3.6875 -4.835938 3.6875 -3.890625 Z M 9.65625 -8.875 C 10.21875 -8.945312 10.59375 -9.179688 10.78125 -9.578125 C 10.894531 -9.796875 10.953125 -10.113281 10.953125 -10.53125 C 10.953125 -11.363281 10.648438 -11.96875 10.046875 -12.34375 C 9.453125 -12.726562 8.601562 -12.921875 7.5 -12.921875 C 6.207031 -12.921875 5.296875 -12.570312 4.765625 -11.875 C 4.460938 -11.5 4.265625 -10.929688 4.171875 -10.171875 L 1.875 -10.171875 C 1.914062 -11.972656 2.5 -13.226562 3.625 -13.9375 C 4.75 -14.644531 6.054688 -15 7.546875 -15 C 9.265625 -15 10.664062 -14.671875 11.75 -14.015625 C 12.8125 -13.359375 13.34375 -12.335938 13.34375 -10.953125 L 13.34375 -2.515625 C 13.34375 -2.265625 13.394531 -2.0625 13.5 -1.90625 C 13.601562 -1.75 13.828125 -1.671875 14.171875 -1.671875 C 14.273438 -1.671875 14.394531 -1.675781 14.53125 -1.6875 C 14.664062 -1.695312 14.8125 -1.71875 14.96875 -1.75 L 14.96875 0.0625 C 14.582031 0.175781 14.289062 0.242188 14.09375 0.265625 C 13.894531 0.296875 13.625 0.3125 13.28125 0.3125 C 12.425781 0.3125 11.8125 0.0078125 11.4375 -0.59375 C 11.226562 -0.90625 11.082031 -1.351562 11 -1.9375 C 10.5 -1.28125 9.78125 -0.707031 8.84375 -0.21875 C 7.90625 0.257812 6.875 0.5 5.75 0.5 C 4.382812 0.5 3.269531 0.0859375 2.40625 -0.734375 C 1.550781 -1.566406 1.125 -2.601562 1.125 -3.84375 C 1.125 -5.195312 1.546875 -6.25 2.390625 -7 C 3.242188 -7.75 4.359375 -8.207031 5.734375 -8.375 Z M 7.609375 -15 Z M 7.609375 -15 "/>
</g>
<g id="glyph-1-8">
<path d="M 1.875 -14.640625 L 4.21875 -14.640625 L 4.21875 -12.109375 C 4.40625 -12.609375 4.867188 -13.207031 5.609375 -13.90625 C 6.359375 -14.613281 7.222656 -14.96875 8.203125 -14.96875 C 8.242188 -14.96875 8.316406 -14.960938 8.421875 -14.953125 C 8.535156 -14.941406 8.726562 -14.925781 9 -14.90625 L 9 -12.3125 C 8.851562 -12.332031 8.71875 -12.347656 8.59375 -12.359375 C 8.46875 -12.367188 8.332031 -12.375 8.1875 -12.375 C 6.945312 -12.375 5.992188 -11.972656 5.328125 -11.171875 C 4.660156 -10.378906 4.328125 -9.460938 4.328125 -8.421875 L 4.328125 0 L 1.875 0 Z M 1.875 -14.640625 "/>
</g>
<g id="glyph-1-9">
<path d="M 3.265625 -4.59375 C 3.335938 -3.769531 3.546875 -3.140625 3.890625 -2.703125 C 4.503906 -1.910156 5.578125 -1.515625 7.109375 -1.515625 C 8.023438 -1.515625 8.828125 -1.710938 9.515625 -2.109375 C 10.210938 -2.503906 10.5625 -3.117188 10.5625 -3.953125 C 10.5625 -4.578125 10.28125 -5.054688 9.71875 -5.390625 C 9.363281 -5.585938 8.660156 -5.816406 7.609375 -6.078125 L 5.65625 -6.578125 C 4.40625 -6.890625 3.488281 -7.234375 2.90625 -7.609375 C 1.84375 -8.273438 1.3125 -9.195312 1.3125 -10.375 C 1.3125 -11.757812 1.8125 -12.878906 2.8125 -13.734375 C 3.8125 -14.597656 5.15625 -15.03125 6.84375 -15.03125 C 9.039062 -15.03125 10.628906 -14.378906 11.609375 -13.078125 C 12.222656 -12.265625 12.519531 -11.382812 12.5 -10.4375 L 10.171875 -10.4375 C 10.128906 -10.988281 9.929688 -11.492188 9.578125 -11.953125 C 9.015625 -12.597656 8.035156 -12.921875 6.640625 -12.921875 C 5.710938 -12.921875 5.007812 -12.742188 4.53125 -12.390625 C 4.050781 -12.035156 3.8125 -11.566406 3.8125 -10.984375 C 3.8125 -10.335938 4.128906 -9.828125 4.765625 -9.453125 C 5.128906 -9.222656 5.664062 -9.019531 6.375 -8.84375 L 8 -8.453125 C 9.769531 -8.023438 10.953125 -7.609375 11.546875 -7.203125 C 12.503906 -6.578125 12.984375 -5.585938 12.984375 -4.234375 C 12.984375 -2.929688 12.488281 -1.804688 11.5 -0.859375 C 10.507812 0.0859375 9.003906 0.5625 6.984375 0.5625 C 4.804688 0.5625 3.265625 0.0664062 2.359375 -0.921875 C 1.453125 -1.910156 0.96875 -3.132812 0.90625 -4.59375 Z M 6.90625 -15 Z M 6.90625 -15 "/>
</g>
<g id="glyph-1-10">
<path d="M 0.96875 5.71875 C 2.414062 2.894531 3.351562 0.832031 3.78125 -0.46875 C 4.414062 -2.425781 4.734375 -4.722656 4.734375 -7.359375 C 4.734375 -9.992188 4.363281 -12.40625 3.625 -14.59375 C 3.164062 -15.9375 2.269531 -17.875 0.9375 -20.40625 L 2.578125 -20.40625 C 3.984375 -18.164062 4.832031 -16.785156 5.125 -16.265625 C 5.425781 -15.742188 5.75 -15.019531 6.09375 -14.09375 C 6.53125 -12.957031 6.84375 -11.832031 7.03125 -10.71875 C 7.21875 -9.601562 7.3125 -8.53125 7.3125 -7.5 C 7.3125 -4.800781 6.882812 -2.394531 6.03125 -0.28125 C 5.488281 1.070312 4.375 3.070312 2.6875 5.71875 Z M 0.96875 5.71875 "/>
</g>
<g id="glyph-2-0">
<path d="M 0 -0.90625 L -20.078125 -0.90625 L -20.078125 -16.84375 L 0 -16.84375 Z M -2.515625 -14.328125 L -17.5625 -14.328125 L -17.5625 -3.421875 L -2.515625 -3.421875 Z M -2.515625 -14.328125 "/>
</g>
<g id="glyph-2-1">
<path d="M -20.078125 -16.75 L -17.6875 -16.75 L -17.6875 -9.984375 L 0 -9.984375 L 0 -7.21875 L -17.6875 -7.21875 L -17.6875 -0.453125 L -20.078125 -0.453125 Z M -20.078125 -16.75 "/>
</g>
<g id="glyph-2-2">
<path d="M -1.59375 -7.609375 C -1.59375 -9.242188 -2.207031 -10.363281 -3.4375 -10.96875 C -4.675781 -11.570312 -6.050781 -11.875 -7.5625 -11.875 C -8.925781 -11.875 -10.035156 -11.65625 -10.890625 -11.21875 C -12.242188 -10.53125 -12.921875 -9.335938 -12.921875 -7.640625 C -12.921875 -6.140625 -12.34375 -5.046875 -11.1875 -4.359375 C -10.039062 -3.679688 -8.660156 -3.34375 -7.046875 -3.34375 C -5.484375 -3.34375 -4.179688 -3.679688 -3.140625 -4.359375 C -2.109375 -5.046875 -1.59375 -6.128906 -1.59375 -7.609375 Z M -15.0625 -7.71875 C -15.0625 -9.601562 -14.429688 -11.195312 -13.171875 -12.5 C -11.921875 -13.800781 -10.070312 -14.453125 -7.625 -14.453125 C -5.269531 -14.453125 -3.320312 -13.875 -1.78125 -12.71875 C -0.238281 -11.570312 0.53125 -9.796875 0.53125 -7.390625 C 0.53125 -5.367188 -0.148438 -3.765625 -1.515625 -2.578125 C -2.878906 -1.398438 -4.707031 -0.8125 -7 -0.8125 C -9.457031 -0.8125 -11.414062 -1.429688 -12.875 -2.671875 C -14.332031 -3.921875 -15.0625 -5.601562 -15.0625 -7.71875 Z M -15 -7.625 Z M -15 -7.625 "/>
</g>
<g id="glyph-2-3">
<path d="M -20.078125 -1.75 L -20.078125 -4.109375 L -8.421875 -4.109375 L -14.640625 -10.4375 L -14.640625 -13.578125 L -9.15625 -7.96875 L 0 -13.890625 L 0 -10.75 L -7.390625 -6.1875 L -5.5 -4.109375 L 0 -4.109375 L 0 -1.75 Z M -20.078125 -1.75 "/>
</g>
<g id="glyph-2-4">
</g>
<g id="glyph-2-5">
<path d="M -14.640625 -1.8125 L -14.640625 -4.234375 L -12.5625 -4.234375 C -13.28125 -4.816406 -13.804688 -5.347656 -14.140625 -5.828125 C -14.691406 -6.640625 -14.96875 -7.5625 -14.96875 -8.59375 C -14.96875 -9.757812 -14.679688 -10.695312 -14.109375 -11.40625 C -13.785156 -11.800781 -13.300781 -12.164062 -12.65625 -12.5 C -13.445312 -13.039062 -14.03125 -13.679688 -14.40625 -14.421875 C -14.78125 -15.160156 -14.96875 -15.988281 -14.96875 -16.90625 C -14.96875 -18.875 -14.257812 -20.21875 -12.84375 -20.9375 C -12.070312 -21.3125 -11.039062 -21.5 -9.75 -21.5 L 0 -21.5 L 0 -18.953125 L -10.171875 -18.953125 C -11.148438 -18.953125 -11.820312 -18.707031 -12.1875 -18.21875 C -12.550781 -17.726562 -12.734375 -17.132812 -12.734375 -16.4375 C -12.734375 -15.46875 -12.40625 -14.632812 -11.75 -13.9375 C -11.101562 -13.238281 -10.023438 -12.890625 -8.515625 -12.890625 L 0 -12.890625 L 0 -10.390625 L -9.5625 -10.390625 C -10.550781 -10.390625 -11.273438 -10.269531 -11.734375 -10.03125 C -12.410156 -9.65625 -12.75 -8.957031 -12.75 -7.9375 C -12.75 -7.007812 -12.390625 -6.164062 -11.671875 -5.40625 C -10.953125 -4.644531 -9.648438 -4.265625 -7.765625 -4.265625 L 0 -4.265625 L 0 -1.8125 Z M -14.640625 -1.8125 "/>
</g>
<g id="glyph-2-6">
<path d="M -3.890625 -3.6875 C -3.179688 -3.6875 -2.617188 -3.945312 -2.203125 -4.46875 C -1.796875 -4.988281 -1.59375 -5.601562 -1.59375 -6.3125 C -1.59375 -7.175781 -1.796875 -8.015625 -2.203125 -8.828125 C -2.867188 -10.203125 -3.957031 -10.890625 -5.46875 -10.890625 L -7.453125 -10.890625 C -7.265625 -10.585938 -7.101562 -10.195312 -6.96875 -9.71875 C -6.84375 -9.25 -6.753906 -8.785156 -6.703125 -8.328125 L -6.515625 -6.84375 C -6.390625 -5.945312 -6.203125 -5.273438 -5.953125 -4.828125 C -5.523438 -4.066406 -4.835938 -3.6875 -3.890625 -3.6875 Z M -8.875 -9.65625 C -8.945312 -10.21875 -9.179688 -10.59375 -9.578125 -10.78125 C -9.796875 -10.894531 -10.113281 -10.953125 -10.53125 -10.953125 C -11.363281 -10.953125 -11.96875 -10.648438 -12.34375 -10.046875 C -12.726562 -9.453125 -12.921875 -8.601562 -12.921875 -7.5 C -12.921875 -6.207031 -12.570312 -5.296875 -11.875 -4.765625 C -11.5 -4.460938 -10.929688 -4.265625 -10.171875 -4.171875 L -10.171875 -1.875 C -11.972656 -1.914062 -13.226562 -2.5 -13.9375 -3.625 C -14.644531 -4.75 -15 -6.054688 -15 -7.546875 C -15 -9.265625 -14.671875 -10.664062 -14.015625 -11.75 C -13.359375 -12.8125 -12.335938 -13.34375 -10.953125 -13.34375 L -2.515625 -13.34375 C -2.265625 -13.34375 -2.0625 -13.394531 -1.90625 -13.5 C -1.75 -13.601562 -1.671875 -13.828125 -1.671875 -14.171875 C -1.671875 -14.273438 -1.675781 -14.394531 -1.6875 -14.53125 C -1.695312 -14.664062 -1.71875 -14.8125 -1.75 -14.96875 L 0.0625 -14.96875 C 0.175781 -14.582031 0.242188 -14.289062 0.265625 -14.09375 C 0.296875 -13.894531 0.3125 -13.625 0.3125 -13.28125 C 0.3125 -12.425781 0.0078125 -11.8125 -0.59375 -11.4375 C -0.90625 -11.226562 -1.351562 -11.082031 -1.9375 -11 C -1.28125 -10.5 -0.707031 -9.78125 -0.21875 -8.84375 C 0.257812 -7.90625 0.5 -6.875 0.5 -5.75 C 0.5 -4.382812 0.0859375 -3.269531 -0.734375 -2.40625 C -1.566406 -1.550781 -2.601562 -1.125 -3.84375 -1.125 C -5.195312 -1.125 -6.25 -1.546875 -7 -2.390625 C -7.75 -3.242188 -8.207031 -4.359375 -8.375 -5.734375 Z M -15 -7.609375 Z M -15 -7.609375 "/>
</g>
<g id="glyph-2-7">
<path d="M -14.640625 -1.875 L -14.640625 -4.21875 L -12.109375 -4.21875 C -12.609375 -4.40625 -13.207031 -4.867188 -13.90625 -5.609375 C -14.613281 -6.359375 -14.96875 -7.222656 -14.96875 -8.203125 C -14.96875 -8.242188 -14.960938 -8.316406 -14.953125 -8.421875 C -14.941406 -8.535156 -14.925781 -8.726562 -14.90625 -9 L -12.3125 -9 C -12.332031 -8.851562 -12.347656 -8.71875 -12.359375 -8.59375 C -12.367188 -8.46875 -12.375 -8.332031 -12.375 -8.1875 C -12.375 -6.945312 -11.972656 -5.992188 -11.171875 -5.328125 C -10.378906 -4.660156 -9.460938 -4.328125 -8.421875 -4.328125 L 0 -4.328125 L 0 -1.875 Z M -14.640625 -1.875 "/>
</g>
<g id="glyph-2-8">
<path d="M -4.59375 -3.265625 C -3.769531 -3.335938 -3.140625 -3.546875 -2.703125 -3.890625 C -1.910156 -4.503906 -1.515625 -5.578125 -1.515625 -7.109375 C -1.515625 -8.023438 -1.710938 -8.828125 -2.109375 -9.515625 C -2.503906 -10.210938 -3.117188 -10.5625 -3.953125 -10.5625 C -4.578125 -10.5625 -5.054688 -10.28125 -5.390625 -9.71875 C -5.585938 -9.363281 -5.816406 -8.660156 -6.078125 -7.609375 L -6.578125 -5.65625 C -6.890625 -4.40625 -7.234375 -3.488281 -7.609375 -2.90625 C -8.273438 -1.84375 -9.195312 -1.3125 -10.375 -1.3125 C -11.757812 -1.3125 -12.878906 -1.8125 -13.734375 -2.8125 C -14.597656 -3.8125 -15.03125 -5.15625 -15.03125 -6.84375 C -15.03125 -9.039062 -14.378906 -10.628906 -13.078125 -11.609375 C -12.265625 -12.222656 -11.382812 -12.519531 -10.4375 -12.5 L -10.4375 -10.171875 C -10.988281 -10.128906 -11.492188 -9.929688 -11.953125 -9.578125 C -12.597656 -9.015625 -12.921875 -8.035156 -12.921875 -6.640625 C -12.921875 -5.710938 -12.742188 -5.007812 -12.390625 -4.53125 C -12.035156 -4.050781 -11.566406 -3.8125 -10.984375 -3.8125 C -10.335938 -3.8125 -9.828125 -4.128906 -9.453125 -4.765625 C -9.222656 -5.128906 -9.019531 -5.664062 -8.84375 -6.375 L -8.453125 -8 C -8.023438 -9.769531 -7.609375 -10.953125 -7.203125 -11.546875 C -6.578125 -12.503906 -5.585938 -12.984375 -4.234375 -12.984375 C -2.929688 -12.984375 -1.804688 -12.488281 -0.859375 -11.5 C 0.0859375 -10.507812 0.5625 -9.003906 0.5625 -6.984375 C 0.5625 -4.804688 0.0664062 -3.265625 -0.921875 -2.359375 C -1.910156 -1.453125 -3.132812 -0.96875 -4.59375 -0.90625 Z M -15 -6.90625 Z M -15 -6.90625 "/>
</g>
<g id="glyph-2-9">
<path d="M -20.15625 -1.8125 L -20.15625 -4.265625 L -12.65625 -4.265625 C -13.394531 -4.847656 -13.914062 -5.375 -14.21875 -5.84375 C -14.738281 -6.632812 -15 -7.625 -15 -8.8125 C -15 -10.925781 -14.253906 -12.363281 -12.765625 -13.125 C -11.953125 -13.53125 -10.828125 -13.734375 -9.390625 -13.734375 L 0 -13.734375 L 0 -11.21875 L -9.234375 -11.21875 C -10.304688 -11.21875 -11.09375 -11.078125 -11.59375 -10.796875 C -12.394531 -10.347656 -12.796875 -9.507812 -12.796875 -8.28125 C -12.796875 -7.257812 -12.441406 -6.332031 -11.734375 -5.5 C -11.035156 -4.675781 -9.710938 -4.265625 -7.765625 -4.265625 L 0 -4.265625 L 0 -1.8125 Z M -20.15625 -1.8125 "/>
</g>
<g id="glyph-2-10">
<path d="M -20.078125 -1.875 L -20.078125 -4.328125 L 0 -4.328125 L 0 -1.875 Z M -20.078125 -1.875 "/>
</g>
<g id="glyph-2-11">
<path d="M -14.640625 -2.9375 L -3.109375 -5.75 L -14.640625 -8.609375 L -14.640625 -11.375 L -3.171875 -14.25 L -14.640625 -17.234375 L -14.640625 -19.703125 L 0 -15.453125 L 0 -12.890625 L -11.328125 -9.90625 L 0 -7.03125 L 0 -4.46875 L -14.640625 -0.25 Z M -14.640625 -2.9375 "/>
</g>
<g id="glyph-2-12">
<path d="M -14.578125 -1.8125 L -14.578125 -4.3125 L 0 -4.3125 L 0 -1.8125 Z M -20.078125 -1.8125 L -20.078125 -4.3125 L -17.296875 -4.3125 L -17.296875 -1.8125 Z M -20.078125 -1.8125 "/>
</g>
<g id="glyph-2-13">
<path d="M -14.96875 -7.90625 C -14.96875 -8.945312 -14.722656 -9.953125 -14.234375 -10.921875 C -13.753906 -11.898438 -13.125 -12.644531 -12.34375 -13.15625 C -11.601562 -13.644531 -10.742188 -13.972656 -9.765625 -14.140625 C -9.085938 -14.285156 -8.007812 -14.359375 -6.53125 -14.359375 L -6.53125 -3.625 C -5.050781 -3.664062 -3.859375 -4.015625 -2.953125 -4.671875 C -2.054688 -5.328125 -1.609375 -6.34375 -1.609375 -7.71875 C -1.609375 -9.007812 -2.035156 -10.035156 -2.890625 -10.796875 C -3.378906 -11.234375 -3.945312 -11.546875 -4.59375 -11.734375 L -4.59375 -14.15625 C -4.050781 -14.09375 -3.453125 -13.878906 -2.796875 -13.515625 C -2.140625 -13.148438 -1.597656 -12.75 -1.171875 -12.3125 C -0.441406 -11.5625 0.046875 -10.632812 0.296875 -9.53125 C 0.441406 -8.9375 0.515625 -8.265625 0.515625 -7.515625 C 0.515625 -5.691406 -0.144531 -4.144531 -1.46875 -2.875 C -2.789062 -1.613281 -4.648438 -0.984375 -7.046875 -0.984375 C -9.390625 -0.984375 -11.296875 -1.617188 -12.765625 -2.890625 C -14.234375 -4.171875 -14.96875 -5.84375 -14.96875 -7.90625 Z M -8.484375 -11.828125 C -9.554688 -11.722656 -10.410156 -11.488281 -11.046875 -11.125 C -12.234375 -10.457031 -12.828125 -9.332031 -12.828125 -7.75 C -12.828125 -6.625 -12.414062 -5.675781 -11.59375 -4.90625 C -10.78125 -4.144531 -9.742188 -3.738281 -8.484375 -3.6875 Z M -15 -7.671875 Z M -15 -7.671875 "/>
</g>
<g id="glyph-2-14">
<path d="M -7.15625 -3.359375 C -5.582031 -3.359375 -4.265625 -3.691406 -3.203125 -4.359375 C -2.148438 -5.023438 -1.625 -6.09375 -1.625 -7.5625 C -1.625 -8.695312 -2.113281 -9.628906 -3.09375 -10.359375 C -4.070312 -11.097656 -5.476562 -11.46875 -7.3125 -11.46875 C -9.164062 -11.46875 -10.535156 -11.085938 -11.421875 -10.328125 C -12.304688 -9.578125 -12.75 -8.644531 -12.75 -7.53125 C -12.75 -6.289062 -12.273438 -5.285156 -11.328125 -4.515625 C -10.378906 -3.742188 -8.988281 -3.359375 -7.15625 -3.359375 Z M -14.90625 -7.0625 C -14.90625 -8.1875 -14.664062 -9.128906 -14.1875 -9.890625 C -13.914062 -10.328125 -13.4375 -10.820312 -12.75 -11.375 L -20.15625 -11.375 L -20.15625 -13.734375 L 0 -13.734375 L 0 -11.53125 L -2.03125 -11.53125 C -1.132812 -10.957031 -0.484375 -10.273438 -0.078125 -9.484375 C 0.316406 -8.703125 0.515625 -7.804688 0.515625 -6.796875 C 0.515625 -5.160156 -0.164062 -3.742188 -1.53125 -2.546875 C -2.90625 -1.359375 -4.734375 -0.765625 -7.015625 -0.765625 C -9.148438 -0.765625 -11 -1.304688 -12.5625 -2.390625 C -14.125 -3.484375 -14.90625 -5.039062 -14.90625 -7.0625 Z M -14.90625 -7.0625 "/>
</g>
<g id="glyph-2-15">
<path d="M -18.734375 -2.296875 L -18.734375 -4.78125 L -14.640625 -4.78125 L -14.640625 -7.125 L -12.640625 -7.125 L -12.640625 -4.78125 L -3.078125 -4.78125 C -2.566406 -4.78125 -2.222656 -4.957031 -2.046875 -5.3125 C -1.953125 -5.5 -1.90625 -5.816406 -1.90625 -6.265625 C -1.90625 -6.378906 -1.90625 -6.503906 -1.90625 -6.640625 C -1.914062 -6.773438 -1.925781 -6.9375 -1.9375 -7.125 L 0 -7.125 C 0.0820312 -6.84375 0.140625 -6.546875 0.171875 -6.234375 C 0.210938 -5.929688 0.234375 -5.601562 0.234375 -5.25 C 0.234375 -4.101562 -0.0546875 -3.320312 -0.640625 -2.90625 C -1.234375 -2.5 -2 -2.296875 -2.9375 -2.296875 L -12.640625 -2.296875 L -12.640625 -0.3125 L -14.640625 -0.3125 L -14.640625 -2.296875 Z M -18.734375 -2.296875 "/>
</g>
<g id="glyph-2-16">
<path d="M -14.640625 -10.953125 L -14.640625 -13.671875 C -13.703125 -13.328125 -11.5625 -12.554688 -8.21875 -11.359375 C -5.695312 -10.460938 -3.644531 -9.71875 -2.0625 -9.125 C 1.675781 -7.695312 3.953125 -6.691406 4.765625 -6.109375 C 5.585938 -5.523438 6 -4.523438 6 -3.109375 C 6 -2.753906 5.984375 -2.484375 5.953125 -2.296875 C 5.929688 -2.117188 5.882812 -1.890625 5.8125 -1.609375 L 3.5625 -1.609375 C 3.6875 -2.035156 3.757812 -2.34375 3.78125 -2.53125 C 3.8125 -2.726562 3.828125 -2.898438 3.828125 -3.046875 C 3.828125 -3.503906 3.75 -3.835938 3.59375 -4.046875 C 3.445312 -4.265625 3.265625 -4.445312 3.046875 -4.59375 C 2.972656 -4.632812 2.597656 -4.796875 1.921875 -5.078125 C 1.253906 -5.367188 0.753906 -5.578125 0.421875 -5.703125 L -14.640625 -0.28125 L -14.640625 -3.078125 L -2.71875 -7 Z M -15 -6.984375 Z M -15 -6.984375 "/>
</g>
<g id="glyph-2-17">
<path d="M -20.40625 -8.28125 C -17.632812 -6.851562 -15.59375 -5.925781 -14.28125 -5.5 C -12.28125 -4.851562 -9.972656 -4.53125 -7.359375 -4.53125 C -4.710938 -4.53125 -2.296875 -4.898438 -0.109375 -5.640625 C 1.242188 -6.085938 3.1875 -6.984375 5.71875 -8.328125 L 5.71875 -6.671875 C 3.632812 -5.335938 2.304688 -4.507812 1.734375 -4.1875 C 1.160156 -3.875 0.378906 -3.53125 -0.609375 -3.15625 C -1.953125 -2.644531 -3.390625 -2.289062 -4.921875 -2.09375 C -5.710938 -1.988281 -6.46875 -1.9375 -7.1875 -1.9375 C -9.882812 -1.9375 -12.285156 -2.363281 -14.390625 -3.21875 C -15.734375 -3.75 -17.738281 -4.867188 -20.40625 -6.578125 Z M -20.40625 -8.28125 "/>
</g>
<g id="glyph-2-18">
<path d="M -19.578125 -7.578125 C -19.578125 -10.109375 -18.535156 -11.941406 -16.453125 -13.078125 C -14.835938 -13.953125 -12.625 -14.390625 -9.8125 -14.390625 C -7.15625 -14.390625 -4.957031 -13.988281 -3.21875 -13.1875 C -0.71875 -12.039062 0.53125 -10.164062 0.53125 -7.5625 C 0.53125 -5.207031 -0.488281 -3.457031 -2.53125 -2.3125 C -4.238281 -1.351562 -6.523438 -0.875 -9.390625 -0.875 C -11.617188 -0.875 -13.53125 -1.160156 -15.125 -1.734375 C -18.09375 -2.804688 -19.578125 -4.753906 -19.578125 -7.578125 Z M -1.703125 -7.546875 C -1.703125 -8.828125 -2.265625 -9.84375 -3.390625 -10.59375 C -4.523438 -11.351562 -6.632812 -11.734375 -9.71875 -11.734375 C -11.945312 -11.734375 -13.773438 -11.457031 -15.203125 -10.90625 C -16.640625 -10.363281 -17.359375 -9.300781 -17.359375 -7.71875 C -17.359375 -6.269531 -16.675781 -5.210938 -15.3125 -4.546875 C -13.957031 -3.878906 -11.953125 -3.546875 -9.296875 -3.546875 C -7.296875 -3.546875 -5.691406 -3.757812 -4.484375 -4.1875 C -2.628906 -4.84375 -1.703125 -5.960938 -1.703125 -7.546875 Z M -1.703125 -7.546875 "/>
</g>
<g id="glyph-2-19">
<path d="M -11.234375 -15.515625 L -8.9375 -15.515625 L -8.9375 -1.265625 L -11.234375 -1.265625 Z M -5.375 -15.515625 L -3.03125 -15.515625 L -3.03125 -1.265625 L -5.375 -1.265625 Z M -5.375 -15.515625 "/>
</g>
<g id="glyph-2-20">
<path d="M -20.078125 -2.140625 L -20.078125 -5.34375 L -3.8125 -15.484375 L -20.078125 -15.484375 L -20.078125 -18.078125 L 0 -18.078125 L 0 -15.03125 L -16.25 -4.734375 L 0 -4.734375 L 0 -2.140625 Z M -20.078125 -9.921875 Z M -20.078125 -9.921875 "/>
</g>
<g id="glyph-2-21">
<path d="M 2.859375 -2.328125 C 2.742188 -2.953125 2.300781 -3.394531 1.53125 -3.65625 C 1.125 -3.789062 0.726562 -3.859375 0.34375 -3.859375 C 0.28125 -3.859375 0.222656 -3.851562 0.171875 -3.84375 C 0.117188 -3.84375 0.0625 -3.832031 0 -3.8125 L 0 -2.328125 L -2.984375 -2.328125 L -2.984375 -5.25 L -0.21875 -5.25 C 0.863281 -5.25 1.816406 -5.03125 2.640625 -4.59375 C 3.460938 -4.15625 3.96875 -3.398438 4.15625 -2.328125 Z M 2.859375 -2.328125 "/>
</g>
<g id="glyph-2-22">
<path d="M -13.859375 -2.6875 L -15.75 -2.6875 C -15.925781 -4.457031 -16.21875 -5.691406 -16.625 -6.390625 C -17.03125 -7.097656 -17.988281 -7.625 -19.5 -7.96875 L -19.5 -9.90625 L 0 -9.90625 L 0 -7.28125 L -13.859375 -7.28125 Z M -13.859375 -2.6875 "/>
</g>
<g id="glyph-2-23">
<path d="M -20.078125 -0.578125 L -20.078125 -3.75 L -10.4375 -9.515625 L -20.078125 -15.28125 L -20.078125 -18.46875 L -8.09375 -10.890625 L 0 -10.890625 L 0 -8.15625 L -8.09375 -8.15625 Z M -20.078125 -9.5625 Z M -20.078125 -9.5625 "/>
</g>
<g id="glyph-2-24">
<path d="M 5.71875 -0.96875 C 2.894531 -2.414062 0.832031 -3.351562 -0.46875 -3.78125 C -2.425781 -4.414062 -4.722656 -4.734375 -7.359375 -4.734375 C -9.992188 -4.734375 -12.40625 -4.363281 -14.59375 -3.625 C -15.9375 -3.164062 -17.875 -2.269531 -20.40625 -0.9375 L -20.40625 -2.578125 C -18.164062 -3.984375 -16.785156 -4.832031 -16.265625 -5.125 C -15.742188 -5.425781 -15.019531 -5.75 -14.09375 -6.09375 C -12.957031 -6.53125 -11.832031 -6.84375 -10.71875 -7.03125 C -9.601562 -7.21875 -8.53125 -7.3125 -7.5 -7.3125 C -4.800781 -7.3125 -2.394531 -6.882812 -0.28125 -6.03125 C 1.070312 -5.488281 3.070312 -4.375 5.71875 -2.6875 Z M 5.71875 -0.96875 "/>
</g>
</g>
<clipPath id="clip-0">
<path clip-rule="nonzero" d="M 103.714844 252 L 850.050781 252 L 850.050781 254 L 103.714844 254 Z M 103.714844 252 "/>
</clipPath>
<clipPath id="clip-1">
<path clip-rule="nonzero" d="M 128 13.949219 L 131 13.949219 L 131 492.527344 L 128 492.527344 Z M 128 13.949219 "/>
</clipPath>
<clipPath id="clip-2">
<path clip-rule="nonzero" d="M 326 13.949219 L 329 13.949219 L 329 492.527344 L 326 492.527344 Z M 326 13.949219 "/>
</clipPath>
<clipPath id="clip-3">
<path clip-rule="nonzero" d="M 524 13.949219 L 527 13.949219 L 527 492.527344 L 524 492.527344 Z M 524 13.949219 "/>
</clipPath>
<clipPath id="clip-4">
<path clip-rule="nonzero" d="M 722 13.949219 L 725 13.949219 L 725 492.527344 L 722 492.527344 Z M 722 13.949219 "/>
</clipPath>
<clipPath id="clip-5">
<path clip-rule="nonzero" d="M 103.714844 465 L 850.050781 465 L 850.050781 469 L 103.714844 469 Z M 103.714844 465 "/>
</clipPath>
<clipPath id="clip-6">
<path clip-rule="nonzero" d="M 103.714844 38 L 850.050781 38 L 850.050781 42 L 103.714844 42 Z M 103.714844 38 "/>
</clipPath>
<clipPath id="clip-7">
<path clip-rule="nonzero" d="M 227 13.949219 L 230 13.949219 L 230 492.527344 L 227 492.527344 Z M 227 13.949219 "/>
</clipPath>
<clipPath id="clip-8">
<path clip-rule="nonzero" d="M 425 13.949219 L 428 13.949219 L 428 492.527344 L 425 492.527344 Z M 425 13.949219 "/>
</clipPath>
<clipPath id="clip-9">
<path clip-rule="nonzero" d="M 623 13.949219 L 626 13.949219 L 626 492.527344 L 623 492.527344 Z M 623 13.949219 "/>
</clipPath>
<clipPath id="clip-10">
<path clip-rule="nonzero" d="M 821 13.949219 L 824 13.949219 L 824 492.527344 L 821 492.527344 Z M 821 13.949219 "/>
</clipPath>
</defs>
<rect x="-86.4" y="-57.6" width="1036.8" height="691.2" fill="rgb(100%, 100%, 100%)" fill-opacity="1"/>
<rect x="-86.4" y="-57.6" width="1036.8" height="691.2" fill="rgb(100%, 100%, 100%)" fill-opacity="1"/>
<g clip-path="url(#clip-0)">
<path fill="none" stroke-width="1.357972" stroke-linecap="butt" stroke-linejoin="round" stroke="rgb(92.156863%, 92.156863%, 92.156863%)" stroke-opacity="1" stroke-miterlimit="10" d="M 103.714844 253.292969 L 850.050781 253.292969 "/>
</g>
<g clip-path="url(#clip-1)">
<path fill="none" stroke-width="1.357972" stroke-linecap="butt" stroke-linejoin="round" stroke="rgb(92.156863%, 92.156863%, 92.156863%)" stroke-opacity="1" stroke-miterlimit="10" d="M 129.390625 492.527344 L 129.390625 13.949219 "/>
</g>
<g clip-path="url(#clip-2)">
<path fill="none" stroke-width="1.357972" stroke-linecap="butt" stroke-linejoin="round" stroke="rgb(92.156863%, 92.156863%, 92.156863%)" stroke-opacity="1" stroke-miterlimit="10" d="M 327.390625 492.527344 L 327.390625 13.949219 "/>
</g>
<g clip-path="url(#clip-3)">
<path fill="none" stroke-width="1.357972" stroke-linecap="butt" stroke-linejoin="round" stroke="rgb(92.156863%, 92.156863%, 92.156863%)" stroke-opacity="1" stroke-miterlimit="10" d="M 525.394531 492.527344 L 525.394531 13.949219 "/>
</g>
<g clip-path="url(#clip-4)">
<path fill="none" stroke-width="1.357972" stroke-linecap="butt" stroke-linejoin="round" stroke="rgb(92.156863%, 92.156863%, 92.156863%)" stroke-opacity="1" stroke-miterlimit="10" d="M 723.394531 492.527344 L 723.394531 13.949219 "/>
</g>
<g clip-path="url(#clip-5)">
<path fill="none" stroke-width="2.715945" stroke-linecap="butt" stroke-linejoin="round" stroke="rgb(92.156863%, 92.156863%, 92.156863%)" stroke-opacity="1" stroke-miterlimit="10" d="M 103.714844 466.652344 L 850.050781 466.652344 "/>
</g>
<g clip-path="url(#clip-6)">
<path fill="none" stroke-width="2.715945" stroke-linecap="butt" stroke-linejoin="round" stroke="rgb(92.156863%, 92.156863%, 92.156863%)" stroke-opacity="1" stroke-miterlimit="10" d="M 103.714844 39.9375 L 850.050781 39.9375 "/>
</g>
<g clip-path="url(#clip-7)">
<path fill="none" stroke-width="2.715945" stroke-linecap="butt" stroke-linejoin="round" stroke="rgb(92.156863%, 92.156863%, 92.156863%)" stroke-opacity="1" stroke-miterlimit="10" d="M 228.390625 492.527344 L 228.390625 13.949219 "/>
</g>
<g clip-path="url(#clip-8)">
<path fill="none" stroke-width="2.715945" stroke-linecap="butt" stroke-linejoin="round" stroke="rgb(92.156863%, 92.156863%, 92.156863%)" stroke-opacity="1" stroke-miterlimit="10" d="M 426.390625 492.527344 L 426.390625 13.949219 "/>
</g>
<g clip-path="url(#clip-9)">
<path fill="none" stroke-width="2.715945" stroke-linecap="butt" stroke-linejoin="round" stroke="rgb(92.156863%, 92.156863%, 92.156863%)" stroke-opacity="1" stroke-miterlimit="10" d="M 624.394531 492.527344 L 624.394531 13.949219 "/>
</g>
<g clip-path="url(#clip-10)">
<path fill="none" stroke-width="2.715945" stroke-linecap="butt" stroke-linejoin="round" stroke="rgb(92.156863%, 92.156863%, 92.156863%)" stroke-opacity="1" stroke-miterlimit="10" d="M 822.394531 492.527344 L 822.394531 13.949219 "/>
</g>
<path fill-rule="nonzero" fill="rgb(0%, 0%, 0%)" fill-opacity="1" stroke-width="1.803865" stroke-linecap="round" stroke-linejoin="round" stroke="rgb(0%, 0%, 0%)" stroke-opacity="1" stroke-miterlimit="10" d="M 421.992188 463.203125 C 421.992188 469.835938 412.042969 469.835938 412.042969 463.203125 C 412.042969 456.570312 421.992188 456.570312 421.992188 463.203125 "/>
<path fill-rule="nonzero" fill="rgb(0%, 0%, 0%)" fill-opacity="1" stroke-width="1.803865" stroke-linecap="round" stroke-linejoin="round" stroke="rgb(0%, 0%, 0%)" stroke-opacity="1" stroke-miterlimit="10" d="M 610.289062 463.480469 C 610.289062 470.113281 600.339844 470.113281 600.339844 463.480469 C 600.339844 456.84375 610.289062 456.84375 610.289062 463.480469 "/>
<path fill-rule="nonzero" fill="rgb(0%, 0%, 0%)" fill-opacity="1" stroke-width="1.803865" stroke-linecap="round" stroke-linejoin="round" stroke="rgb(0%, 0%, 0%)" stroke-opacity="1" stroke-miterlimit="10" d="M 234.050781 37.960938 C 234.050781 44.59375 224.097656 44.59375 224.097656 37.960938 C 224.097656 31.324219 234.050781 31.324219 234.050781 37.960938 "/>
<path fill-rule="nonzero" fill="rgb(0%, 0%, 0%)" fill-opacity="1" stroke-width="1.803865" stroke-linecap="round" stroke-linejoin="round" stroke="rgb(0%, 0%, 0%)" stroke-opacity="1" stroke-miterlimit="10" d="M 750.621094 463.957031 C 750.621094 470.59375 740.671875 470.59375 740.671875 463.957031 C 740.671875 457.324219 750.621094 457.324219 750.621094 463.957031 "/>
<path fill-rule="nonzero" fill="rgb(0%, 0%, 0%)" fill-opacity="1" stroke-width="1.803865" stroke-linecap="round" stroke-linejoin="round" stroke="rgb(0%, 0%, 0%)" stroke-opacity="1" stroke-miterlimit="10" d="M 214.855469 35.789062 C 214.855469 42.425781 204.902344 42.425781 204.902344 35.789062 C 204.902344 29.15625 214.855469 29.15625 214.855469 35.789062 "/>
<path fill-rule="nonzero" fill="rgb(0%, 0%, 0%)" fill-opacity="1" stroke-width="1.803865" stroke-linecap="round" stroke-linejoin="round" stroke="rgb(0%, 0%, 0%)" stroke-opacity="1" stroke-miterlimit="10" d="M 816.167969 465.824219 C 816.167969 472.457031 806.21875 472.457031 806.21875 465.824219 C 806.21875 459.1875 816.167969 459.1875 816.167969 465.824219 "/>
<path fill-rule="nonzero" fill="rgb(0%, 0%, 0%)" fill-opacity="1" stroke-width="1.803865" stroke-linecap="round" stroke-linejoin="round" stroke="rgb(0%, 0%, 0%)" stroke-opacity="1" stroke-miterlimit="10" d="M 573.679688 470.589844 C 573.679688 477.226562 563.726562 477.226562 563.726562 470.589844 C 563.726562 463.957031 573.679688 463.957031 573.679688 470.589844 "/>
<path fill-rule="nonzero" fill="rgb(0%, 0%, 0%)" fill-opacity="1" stroke-width="1.803865" stroke-linecap="round" stroke-linejoin="round" stroke="rgb(0%, 0%, 0%)" stroke-opacity="1" stroke-miterlimit="10" d="M 363.394531 40.257812 C 363.394531 46.894531 353.445312 46.894531 353.445312 40.257812 C 353.445312 33.625 363.394531 33.625 363.394531 40.257812 "/>
<path fill-rule="nonzero" fill="rgb(0%, 0%, 0%)" fill-opacity="1" stroke-width="1.803865" stroke-linecap="round" stroke-linejoin="round" stroke="rgb(0%, 0%, 0%)" stroke-opacity="1" stroke-miterlimit="10" d="M 183.914062 467.789062 C 183.914062 474.421875 173.960938 474.421875 173.960938 467.789062 C 173.960938 461.152344 183.914062 461.152344 183.914062 467.789062 "/>
<path fill-rule="nonzero" fill="rgb(0%, 0%, 0%)" fill-opacity="1" stroke-width="1.803865" stroke-linecap="round" stroke-linejoin="round" stroke="rgb(0%, 0%, 0%)" stroke-opacity="1" stroke-miterlimit="10" d="M 332.222656 35.703125 C 332.222656 42.335938 322.273438 42.335938 322.273438 35.703125 C 322.273438 29.066406 332.222656 29.066406 332.222656 35.703125 "/>
<path fill-rule="nonzero" fill="rgb(0%, 0%, 0%)" fill-opacity="1" stroke-width="1.803865" stroke-linecap="round" stroke-linejoin="round" stroke="rgb(0%, 0%, 0%)" stroke-opacity="1" stroke-miterlimit="10" d="M 366.425781 42.101562 C 366.425781 48.734375 356.472656 48.734375 356.472656 42.101562 C 356.472656 35.464844 366.425781 35.464844 366.425781 42.101562 "/>
<path fill-rule="nonzero" fill="rgb(0%, 0%, 0%)" fill-opacity="1" stroke-width="1.803865" stroke-linecap="round" stroke-linejoin="round" stroke="rgb(0%, 0%, 0%)" stroke-opacity="1" stroke-miterlimit="10" d="M 392.433594 44.113281 C 392.433594 50.746094 382.484375 50.746094 382.484375 44.113281 C 382.484375 37.476562 392.433594 37.476562 392.433594 44.113281 "/>
<path fill-rule="nonzero" fill="rgb(0%, 0%, 0%)" fill-opacity="1" stroke-width="1.803865" stroke-linecap="round" stroke-linejoin="round" stroke="rgb(0%, 0%, 0%)" stroke-opacity="1" stroke-miterlimit="10" d="M 800.210938 467.144531 C 800.210938 473.777344 790.257812 473.777344 790.257812 467.144531 C 790.257812 460.507812 800.210938 460.507812 800.210938 467.144531 "/>
<path fill-rule="nonzero" fill="rgb(0%, 0%, 0%)" fill-opacity="1" stroke-width="1.803865" stroke-linecap="round" stroke-linejoin="round" stroke="rgb(0%, 0%, 0%)" stroke-opacity="1" stroke-miterlimit="10" d="M 535.824219 469.1875 C 535.824219 475.820312 525.871094 475.820312 525.871094 469.1875 C 525.871094 462.550781 535.824219 462.550781 535.824219 469.1875 "/>
<path fill-rule="nonzero" fill="rgb(0%, 0%, 0%)" fill-opacity="1" stroke-width="1.803865" stroke-linecap="round" stroke-linejoin="round" stroke="rgb(0%, 0%, 0%)" stroke-opacity="1" stroke-miterlimit="10" d="M 610.1875 466.328125 C 610.1875 472.964844 600.238281 472.964844 600.238281 466.328125 C 600.238281 459.695312 610.1875 459.695312 610.1875 466.328125 "/>
<path fill-rule="nonzero" fill="rgb(0%, 0%, 0%)" fill-opacity="1" stroke-width="1.803865" stroke-linecap="round" stroke-linejoin="round" stroke="rgb(0%, 0%, 0%)" stroke-opacity="1" stroke-miterlimit="10" d="M 234.742188 42.335938 C 234.742188 48.96875 224.789062 48.96875 224.789062 42.335938 C 224.789062 35.699219 234.742188 35.699219 234.742188 42.335938 "/>
<path fill-rule="nonzero" fill="rgb(0%, 0%, 0%)" fill-opacity="1" stroke-width="1.803865" stroke-linecap="round" stroke-linejoin="round" stroke="rgb(0%, 0%, 0%)" stroke-opacity="1" stroke-miterlimit="10" d="M 504.203125 38.367188 C 504.203125 45 494.25 45 494.25 38.367188 C 494.25 31.734375 504.203125 31.734375 504.203125 38.367188 "/>
<path fill-rule="nonzero" fill="rgb(0%, 0%, 0%)" fill-opacity="1" stroke-width="1.803865" stroke-linecap="round" stroke-linejoin="round" stroke="rgb(0%, 0%, 0%)" stroke-opacity="1" stroke-miterlimit="10" d="M 636.511719 464.363281 C 636.511719 471 626.558594 471 626.558594 464.363281 C 626.558594 457.730469 636.511719 457.730469 636.511719 464.363281 "/>
<path fill-rule="nonzero" fill="rgb(0%, 0%, 0%)" fill-opacity="1" stroke-width="1.803865" stroke-linecap="round" stroke-linejoin="round" stroke="rgb(0%, 0%, 0%)" stroke-opacity="1" stroke-miterlimit="10" d="M 463.980469 465.136719 C 463.980469 471.769531 454.03125 471.769531 454.03125 465.136719 C 454.03125 458.5 463.980469 458.5 463.980469 465.136719 "/>
<path fill-rule="nonzero" fill="rgb(0%, 0%, 0%)" fill-opacity="1" stroke-width="1.803865" stroke-linecap="round" stroke-linejoin="round" stroke="rgb(0%, 0%, 0%)" stroke-opacity="1" stroke-miterlimit="10" d="M 637.300781 463.207031 C 637.300781 469.84375 627.347656 469.84375 627.347656 463.207031 C 627.347656 456.574219 637.300781 456.574219 637.300781 463.207031 "/>
<path fill-rule="nonzero" fill="rgb(0%, 0%, 0%)" fill-opacity="1" stroke-width="1.803865" stroke-linecap="round" stroke-linejoin="round" stroke="rgb(0%, 0%, 0%)" stroke-opacity="1" stroke-miterlimit="10" d="M 156.351562 41.675781 C 156.351562 48.308594 146.398438 48.308594 146.398438 41.675781 C 146.398438 35.039062 156.351562 35.039062 156.351562 41.675781 "/>
<path fill-rule="nonzero" fill="rgb(0%, 0%, 0%)" fill-opacity="1" stroke-width="1.803865" stroke-linecap="round" stroke-linejoin="round" stroke="rgb(0%, 0%, 0%)" stroke-opacity="1" stroke-miterlimit="10" d="M 449.617188 466.386719 C 449.617188 473.023438 439.667969 473.023438 439.667969 466.386719 C 439.667969 459.753906 449.617188 459.753906 449.617188 466.386719 "/>
<path fill-rule="nonzero" fill="rgb(0%, 0%, 0%)" fill-opacity="1" stroke-width="1.803865" stroke-linecap="round" stroke-linejoin="round" stroke="rgb(0%, 0%, 0%)" stroke-opacity="1" stroke-miterlimit="10" d="M 201.578125 43.261719 C 201.578125 49.894531 191.625 49.894531 191.625 43.261719 C 191.625 36.628906 201.578125 36.628906 201.578125 43.261719 "/>
<path fill-rule="nonzero" fill="rgb(0%, 0%, 0%)" fill-opacity="1" stroke-width="1.803865" stroke-linecap="round" stroke-linejoin="round" stroke="rgb(0%, 0%, 0%)" stroke-opacity="1" stroke-miterlimit="10" d="M 243.515625 38.90625 C 243.515625 45.542969 233.566406 45.542969 233.566406 38.90625 C 233.566406 32.273438 243.515625 32.273438 243.515625 38.90625 "/>
<path fill-rule="nonzero" fill="rgb(0%, 0%, 0%)" fill-opacity="1" stroke-width="1.803865" stroke-linecap="round" stroke-linejoin="round" stroke="rgb(0%, 0%, 0%)" stroke-opacity="1" stroke-miterlimit="10" d="M 342.417969 36.597656 C 342.417969 43.230469 332.464844 43.230469 332.464844 36.597656 C 332.464844 29.960938 342.417969 29.960938 342.417969 36.597656 "/>
<path fill-rule="nonzero" fill="rgb(0%, 0%, 0%)" fill-opacity="1" stroke-width="1.803865" stroke-linecap="round" stroke-linejoin="round" stroke="rgb(0%, 0%, 0%)" stroke-opacity="1" stroke-miterlimit="10" d="M 338.253906 466.425781 C 338.253906 473.058594 328.304688 473.058594 328.304688 466.425781 C 328.304688 459.789062 338.253906 459.789062 338.253906 466.425781 "/>
<path fill-rule="nonzero" fill="rgb(0%, 0%, 0%)" fill-opacity="1" stroke-width="1.803865" stroke-linecap="round" stroke-linejoin="round" stroke="rgb(0%, 0%, 0%)" stroke-opacity="1" stroke-miterlimit="10" d="M 181.214844 37.683594 C 181.214844 44.320312 171.261719 44.320312 171.261719 37.683594 C 171.261719 31.050781 181.214844 31.050781 181.214844 37.683594 "/>
<path fill-rule="nonzero" fill="rgb(0%, 0%, 0%)" fill-opacity="1" stroke-width="1.803865" stroke-linecap="round" stroke-linejoin="round" stroke="rgb(0%, 0%, 0%)" stroke-opacity="1" stroke-miterlimit="10" d="M 549.746094 41.609375 C 549.746094 48.242188 539.792969 48.242188 539.792969 41.609375 C 539.792969 34.972656 549.746094 34.972656 549.746094 41.609375 "/>
<path fill-rule="nonzero" fill="rgb(0%, 0%, 0%)" fill-opacity="1" stroke-width="1.803865" stroke-linecap="round" stroke-linejoin="round" stroke="rgb(0%, 0%, 0%)" stroke-opacity="1" stroke-miterlimit="10" d="M 502.648438 43.636719 C 502.648438 50.269531 492.695312 50.269531 492.695312 43.636719 C 492.695312 37 502.648438 37 502.648438 43.636719 "/>
<path fill-rule="nonzero" fill="rgb(0%, 0%, 0%)" fill-opacity="1" stroke-width="1.803865" stroke-linecap="round" stroke-linejoin="round" stroke="rgb(0%, 0%, 0%)" stroke-opacity="1" stroke-miterlimit="10" d="M 297.746094 42.71875 C 297.746094 49.351562 287.792969 49.351562 287.792969 42.71875 C 287.792969 36.082031 297.746094 36.082031 297.746094 42.71875 "/>
<path fill-rule="nonzero" fill="rgb(0%, 0%, 0%)" fill-opacity="1" stroke-width="1.803865" stroke-linecap="round" stroke-linejoin="round" stroke="rgb(0%, 0%, 0%)" stroke-opacity="1" stroke-miterlimit="10" d="M 701.664062 464.976562 C 701.664062 471.609375 691.714844 471.609375 691.714844 464.976562 C 691.714844 458.339844 701.664062 458.339844 701.664062 464.976562 "/>
<path fill-rule="nonzero" fill="rgb(0%, 0%, 0%)" fill-opacity="1" stroke-width="1.803865" stroke-linecap="round" stroke-linejoin="round" stroke="rgb(0%, 0%, 0%)" stroke-opacity="1" stroke-miterlimit="10" d="M 376.628906 469.949219 C 376.628906 476.585938 366.679688 476.585938 366.679688 469.949219 C 366.679688 463.316406 376.628906 463.316406 376.628906 469.949219 "/>
<path fill-rule="nonzero" fill="rgb(0%, 0%, 0%)" fill-opacity="1" stroke-width="1.803865" stroke-linecap="round" stroke-linejoin="round" stroke="rgb(0%, 0%, 0%)" stroke-opacity="1" stroke-miterlimit="10" d="M 299.851562 36.011719 C 299.851562 42.648438 289.902344 42.648438 289.902344 36.011719 C 289.902344 29.378906 299.851562 29.378906 299.851562 36.011719 "/>
<path fill-rule="nonzero" fill="rgb(0%, 0%, 0%)" fill-opacity="1" stroke-width="1.803865" stroke-linecap="round" stroke-linejoin="round" stroke="rgb(0%, 0%, 0%)" stroke-opacity="1" stroke-miterlimit="10" d="M 209.832031 465.347656 C 209.832031 471.984375 199.878906 471.984375 199.878906 465.347656 C 199.878906 458.714844 209.832031 458.714844 209.832031 465.347656 "/>
<path fill-rule="nonzero" fill="rgb(0%, 0%, 0%)" fill-opacity="1" stroke-width="1.803865" stroke-linecap="round" stroke-linejoin="round" stroke="rgb(0%, 0%, 0%)" stroke-opacity="1" stroke-miterlimit="10" d="M 710.597656 36.714844 C 710.597656 43.347656 700.644531 43.347656 700.644531 36.714844 C 700.644531 30.082031 710.597656 30.082031 710.597656 36.714844 "/>
<path fill-rule="nonzero" fill="rgb(0%, 0%, 0%)" fill-opacity="1" stroke-width="1.803865" stroke-linecap="round" stroke-linejoin="round" stroke="rgb(0%, 0%, 0%)" stroke-opacity="1" stroke-miterlimit="10" d="M 416.964844 35.78125 C 416.964844 42.414062 407.015625 42.414062 407.015625 35.78125 C 407.015625 29.148438 416.964844 29.148438 416.964844 35.78125 "/>
<path fill-rule="nonzero" fill="rgb(0%, 0%, 0%)" fill-opacity="1" stroke-width="1.803865" stroke-linecap="round" stroke-linejoin="round" stroke="rgb(0%, 0%, 0%)" stroke-opacity="1" stroke-miterlimit="10" d="M 787.449219 468.144531 C 787.449219 474.777344 777.496094 474.777344 777.496094 468.144531 C 777.496094 461.507812 787.449219 461.507812 787.449219 468.144531 "/>
<path fill-rule="nonzero" fill="rgb(0%, 0%, 0%)" fill-opacity="1" stroke-width="1.803865" stroke-linecap="round" stroke-linejoin="round" stroke="rgb(0%, 0%, 0%)" stroke-opacity="1" stroke-miterlimit="10" d="M 387.742188 462.8125 C 387.742188 469.445312 377.789062 469.445312 377.789062 462.8125 C 377.789062 456.175781 387.742188 456.175781 387.742188 462.8125 "/>
<path fill-rule="nonzero" fill="rgb(0%, 0%, 0%)" fill-opacity="1" stroke-width="1.803865" stroke-linecap="round" stroke-linejoin="round" stroke="rgb(0%, 0%, 0%)" stroke-opacity="1" stroke-miterlimit="10" d="M 243.84375 39.519531 C 243.84375 46.152344 233.890625 46.152344 233.890625 39.519531 C 233.890625 32.882812 243.84375 32.882812 243.84375 39.519531 "/>
<path fill-rule="nonzero" fill="rgb(0%, 0%, 0%)" fill-opacity="1" stroke-width="1.803865" stroke-linecap="round" stroke-linejoin="round" stroke="rgb(0%, 0%, 0%)" stroke-opacity="1" stroke-miterlimit="10" d="M 219.816406 39.21875 C 219.816406 45.855469 209.863281 45.855469 209.863281 39.21875 C 209.863281 32.585938 219.816406 32.585938 219.816406 39.21875 "/>
<path fill-rule="nonzero" fill="rgb(0%, 0%, 0%)" fill-opacity="1" stroke-width="1.803865" stroke-linecap="round" stroke-linejoin="round" stroke="rgb(0%, 0%, 0%)" stroke-opacity="1" stroke-miterlimit="10" d="M 626.261719 39.066406 C 626.261719 45.703125 616.308594 45.703125 616.308594 39.066406 C 616.308594 32.433594 626.261719 32.433594 626.261719 39.066406 "/>
<path fill-rule="nonzero" fill="rgb(0%, 0%, 0%)" fill-opacity="1" stroke-width="1.803865" stroke-linecap="round" stroke-linejoin="round" stroke="rgb(0%, 0%, 0%)" stroke-opacity="1" stroke-miterlimit="10" d="M 307.878906 463.007812 C 307.878906 469.640625 297.925781 469.640625 297.925781 463.007812 C 297.925781 456.371094 307.878906 456.371094 307.878906 463.007812 "/>
<path fill-rule="nonzero" fill="rgb(0%, 0%, 0%)" fill-opacity="1" stroke-width="1.803865" stroke-linecap="round" stroke-linejoin="round" stroke="rgb(0%, 0%, 0%)" stroke-opacity="1" stroke-miterlimit="10" d="M 531.601562 467.691406 C 531.601562 474.324219 521.648438 474.324219 521.648438 467.691406 C 521.648438 461.054688 531.601562 461.054688 531.601562 467.691406 "/>
<path fill-rule="nonzero" fill="rgb(0%, 0%, 0%)" fill-opacity="1" stroke-width="1.803865" stroke-linecap="round" stroke-linejoin="round" stroke="rgb(0%, 0%, 0%)" stroke-opacity="1" stroke-miterlimit="10" d="M 656.664062 463.625 C 656.664062 470.261719 646.714844 470.261719 646.714844 463.625 C 646.714844 456.992188 656.664062 456.992188 656.664062 463.625 "/>
<path fill-rule="nonzero" fill="rgb(0%, 0%, 0%)" fill-opacity="1" stroke-width="1.803865" stroke-linecap="round" stroke-linejoin="round" stroke="rgb(0%, 0%, 0%)" stroke-opacity="1" stroke-miterlimit="10" d="M 523.742188 467.378906 C 523.742188 474.015625 513.792969 474.015625 513.792969 467.378906 C 513.792969 460.746094 523.742188 460.746094 523.742188 467.378906 "/>
<path fill-rule="nonzero" fill="rgb(0%, 0%, 0%)" fill-opacity="1" stroke-width="1.803865" stroke-linecap="round" stroke-linejoin="round" stroke="rgb(0%, 0%, 0%)" stroke-opacity="1" stroke-miterlimit="10" d="M 335.488281 42.214844 C 335.488281 48.851562 325.535156 48.851562 325.535156 42.214844 C 325.535156 35.582031 335.488281 35.582031 335.488281 42.214844 "/>
<path fill-rule="nonzero" fill="rgb(0%, 0%, 0%)" fill-opacity="1" stroke-width="1.803865" stroke-linecap="round" stroke-linejoin="round" stroke="rgb(0%, 0%, 0%)" stroke-opacity="1" stroke-miterlimit="10" d="M 821.105469 464.652344 C 821.105469 471.289062 811.152344 471.289062 811.152344 464.652344 C 811.152344 458.019531 821.105469 458.019531 821.105469 464.652344 "/>
<path fill-rule="nonzero" fill="rgb(0%, 0%, 0%)" fill-opacity="1" stroke-width="1.803865" stroke-linecap="round" stroke-linejoin="round" stroke="rgb(0%, 0%, 0%)" stroke-opacity="1" stroke-miterlimit="10" d="M 619.753906 469.972656 C 619.753906 476.605469 609.804688 476.605469 609.804688 469.972656 C 609.804688 463.339844 619.753906 463.339844 619.753906 469.972656 "/>
<path fill-rule="nonzero" fill="rgb(0%, 0%, 0%)" fill-opacity="1" stroke-width="1.803865" stroke-linecap="round" stroke-linejoin="round" stroke="rgb(0%, 0%, 0%)" stroke-opacity="1" stroke-miterlimit="10" d="M 174.203125 465.492188 C 174.203125 472.128906 164.25 472.128906 164.25 465.492188 C 164.25 458.859375 174.203125 458.859375 174.203125 465.492188 "/>
<path fill-rule="nonzero" fill="rgb(0%, 0%, 0%)" fill-opacity="1" stroke-width="1.803865" stroke-linecap="round" stroke-linejoin="round" stroke="rgb(0%, 0%, 0%)" stroke-opacity="1" stroke-miterlimit="10" d="M 626.640625 462.667969 C 626.640625 469.300781 616.6875 469.300781 616.6875 462.667969 C 616.6875 456.03125 626.640625 456.03125 626.640625 462.667969 "/>
<path fill-rule="nonzero" fill="rgb(0%, 0%, 0%)" fill-opacity="1" stroke-width="1.803865" stroke-linecap="round" stroke-linejoin="round" stroke="rgb(0%, 0%, 0%)" stroke-opacity="1" stroke-miterlimit="10" d="M 222.96875 44.0625 C 222.96875 50.695312 213.015625 50.695312 213.015625 44.0625 C 213.015625 37.429688 222.96875 37.429688 222.96875 44.0625 "/>
<path fill-rule="nonzero" fill="rgb(0%, 0%, 0%)" fill-opacity="1" stroke-width="1.803865" stroke-linecap="round" stroke-linejoin="round" stroke="rgb(0%, 0%, 0%)" stroke-opacity="1" stroke-miterlimit="10" d="M 640.910156 462.71875 C 640.910156 469.351562 630.957031 469.351562 630.957031 462.71875 C 630.957031 456.082031 640.910156 456.082031 640.910156 462.71875 "/>
<path fill-rule="nonzero" fill="rgb(0%, 0%, 0%)" fill-opacity="1" stroke-width="1.803865" stroke-linecap="round" stroke-linejoin="round" stroke="rgb(0%, 0%, 0%)" stroke-opacity="1" stroke-miterlimit="10" d="M 705.542969 464.054688 C 705.542969 470.691406 695.59375 470.691406 695.59375 464.054688 C 695.59375 457.421875 705.542969 457.421875 705.542969 464.054688 "/>
<path fill-rule="nonzero" fill="rgb(0%, 0%, 0%)" fill-opacity="1" stroke-width="1.803865" stroke-linecap="round" stroke-linejoin="round" stroke="rgb(0%, 0%, 0%)" stroke-opacity="1" stroke-miterlimit="10" d="M 469.59375 464.019531 C 469.59375 470.65625 459.640625 470.65625 459.640625 464.019531 C 459.640625 457.386719 469.59375 457.386719 469.59375 464.019531 "/>
<path fill-rule="nonzero" fill="rgb(0%, 0%, 0%)" fill-opacity="1" stroke-width="1.803865" stroke-linecap="round" stroke-linejoin="round" stroke="rgb(0%, 0%, 0%)" stroke-opacity="1" stroke-miterlimit="10" d="M 495.578125 468.902344 C 495.578125 475.535156 485.625 475.535156 485.625 468.902344 C 485.625 462.265625 495.578125 462.265625 495.578125 468.902344 "/>
<path fill-rule="nonzero" fill="rgb(0%, 0%, 0%)" fill-opacity="1" stroke-width="1.803865" stroke-linecap="round" stroke-linejoin="round" stroke="rgb(0%, 0%, 0%)" stroke-opacity="1" stroke-miterlimit="10" d="M 218.683594 38.511719 C 218.683594 45.144531 208.730469 45.144531 208.730469 38.511719 C 208.730469 31.875 218.683594 31.875 218.683594 38.511719 "/>
<path fill-rule="nonzero" fill="rgb(0%, 0%, 0%)" fill-opacity="1" stroke-width="1.803865" stroke-linecap="round" stroke-linejoin="round" stroke="rgb(0%, 0%, 0%)" stroke-opacity="1" stroke-miterlimit="10" d="M 224.152344 36.871094 C 224.152344 43.507812 214.199219 43.507812 214.199219 36.871094 C 214.199219 30.238281 224.152344 30.238281 224.152344 36.871094 "/>
<path fill-rule="nonzero" fill="rgb(0%, 0%, 0%)" fill-opacity="1" stroke-width="1.803865" stroke-linecap="round" stroke-linejoin="round" stroke="rgb(0%, 0%, 0%)" stroke-opacity="1" stroke-miterlimit="10" d="M 515.78125 469.085938 C 515.78125 475.71875 505.828125 475.71875 505.828125 469.085938 C 505.828125 462.449219 515.78125 462.449219 515.78125 469.085938 "/>
<path fill-rule="nonzero" fill="rgb(0%, 0%, 0%)" fill-opacity="1" stroke-width="1.803865" stroke-linecap="round" stroke-linejoin="round" stroke="rgb(0%, 0%, 0%)" stroke-opacity="1" stroke-miterlimit="10" d="M 258.785156 42.289062 C 258.785156 48.925781 248.835938 48.925781 248.835938 42.289062 C 248.835938 35.65625 258.785156 35.65625 258.785156 42.289062 "/>
<path fill-rule="nonzero" fill="rgb(0%, 0%, 0%)" fill-opacity="1" stroke-width="1.803865" stroke-linecap="round" stroke-linejoin="round" stroke="rgb(0%, 0%, 0%)" stroke-opacity="1" stroke-miterlimit="10" d="M 227.703125 468.945312 C 227.703125 475.578125 217.75 475.578125 217.75 468.945312 C 217.75 462.308594 227.703125 462.308594 227.703125 468.945312 "/>
<path fill-rule="nonzero" fill="rgb(0%, 0%, 0%)" fill-opacity="1" stroke-width="1.803865" stroke-linecap="round" stroke-linejoin="round" stroke="rgb(0%, 0%, 0%)" stroke-opacity="1" stroke-miterlimit="10" d="M 214.460938 470.636719 C 214.460938 477.273438 204.511719 477.273438 204.511719 470.636719 C 204.511719 464.003906 214.460938 464.003906 214.460938 470.636719 "/>
<path fill-rule="nonzero" fill="rgb(0%, 0%, 0%)" fill-opacity="1" stroke-width="1.803865" stroke-linecap="round" stroke-linejoin="round" stroke="rgb(0%, 0%, 0%)" stroke-opacity="1" stroke-miterlimit="10" d="M 299.714844 41.960938 C 299.714844 48.59375 289.765625 48.59375 289.765625 41.960938 C 289.765625 35.324219 299.714844 35.324219 299.714844 41.960938 "/>
<path fill-rule="nonzero" fill="rgb(0%, 0%, 0%)" fill-opacity="1" stroke-width="1.803865" stroke-linecap="round" stroke-linejoin="round" stroke="rgb(0%, 0%, 0%)" stroke-opacity="1" stroke-miterlimit="10" d="M 345.839844 37.621094 C 345.839844 44.253906 335.890625 44.253906 335.890625 37.621094 C 335.890625 30.988281 345.839844 30.988281 345.839844 37.621094 "/>
<path fill-rule="nonzero" fill="rgb(0%, 0%, 0%)" fill-opacity="1" stroke-width="1.803865" stroke-linecap="round" stroke-linejoin="round" stroke="rgb(0%, 0%, 0%)" stroke-opacity="1" stroke-miterlimit="10" d="M 603.023438 468.507812 C 603.023438 475.140625 593.074219 475.140625 593.074219 468.507812 C 593.074219 461.871094 603.023438 461.871094 603.023438 468.507812 "/>
<path fill-rule="nonzero" fill="rgb(0%, 0%, 0%)" fill-opacity="1" stroke-width="1.803865" stroke-linecap="round" stroke-linejoin="round" stroke="rgb(0%, 0%, 0%)" stroke-opacity="1" stroke-miterlimit="10" d="M 564.761719 463.691406 C 564.761719 470.328125 554.8125 470.328125 554.8125 463.691406 C 554.8125 457.058594 564.761719 457.058594 564.761719 463.691406 "/>
<path fill-rule="nonzero" fill="rgb(0%, 0%, 0%)" fill-opacity="1" stroke-width="1.803865" stroke-linecap="round" stroke-linejoin="round" stroke="rgb(0%, 0%, 0%)" stroke-opacity="1" stroke-miterlimit="10" d="M 717.929688 470.734375 C 717.929688 477.371094 707.980469 477.371094 707.980469 470.734375 C 707.980469 464.101562 717.929688 464.101562 717.929688 470.734375 "/>
<path fill-rule="nonzero" fill="rgb(0%, 0%, 0%)" fill-opacity="1" stroke-width="1.803865" stroke-linecap="round" stroke-linejoin="round" stroke="rgb(0%, 0%, 0%)" stroke-opacity="1" stroke-miterlimit="10" d="M 462.046875 464.328125 C 462.046875 470.960938 452.097656 470.960938 452.097656 464.328125 C 452.097656 457.691406 462.046875 457.691406 462.046875 464.328125 "/>
<path fill-rule="nonzero" fill="rgb(0%, 0%, 0%)" fill-opacity="1" stroke-width="1.803865" stroke-linecap="round" stroke-linejoin="round" stroke="rgb(0%, 0%, 0%)" stroke-opacity="1" stroke-miterlimit="10" d="M 754.703125 463.734375 C 754.703125 470.367188 744.753906 470.367188 744.753906 463.734375 C 744.753906 457.101562 754.703125 457.101562 754.703125 463.734375 "/>
<path fill-rule="nonzero" fill="rgb(0%, 0%, 0%)" fill-opacity="1" stroke-width="1.803865" stroke-linecap="round" stroke-linejoin="round" stroke="rgb(0%, 0%, 0%)" stroke-opacity="1" stroke-miterlimit="10" d="M 580.957031 470.773438 C 580.957031 477.40625 571.003906 477.40625 571.003906 470.773438 C 571.003906 464.136719 580.957031 464.136719 580.957031 470.773438 "/>
<path fill-rule="nonzero" fill="rgb(0%, 0%, 0%)" fill-opacity="1" stroke-width="1.803865" stroke-linecap="round" stroke-linejoin="round" stroke="rgb(0%, 0%, 0%)" stroke-opacity="1" stroke-miterlimit="10" d="M 310.617188 464.738281 C 310.617188 471.375 300.664062 471.375 300.664062 464.738281 C 300.664062 458.105469 310.617188 458.105469 310.617188 464.738281 "/>
<path fill-rule="nonzero" fill="rgb(0%, 0%, 0%)" fill-opacity="1" stroke-width="1.803865" stroke-linecap="round" stroke-linejoin="round" stroke="rgb(0%, 0%, 0%)" stroke-opacity="1" stroke-miterlimit="10" d="M 735.339844 465.570312 C 735.339844 472.203125 725.386719 472.203125 725.386719 465.570312 C 725.386719 458.9375 735.339844 458.9375 735.339844 465.570312 "/>
<path fill-rule="nonzero" fill="rgb(0%, 0%, 0%)" fill-opacity="1" stroke-width="1.803865" stroke-linecap="round" stroke-linejoin="round" stroke="rgb(0%, 0%, 0%)" stroke-opacity="1" stroke-miterlimit="10" d="M 232.589844 43.21875 C 232.589844 49.851562 222.640625 49.851562 222.640625 43.21875 C 222.640625 36.585938 232.589844 36.585938 232.589844 43.21875 "/>
<path fill-rule="nonzero" fill="rgb(0%, 0%, 0%)" fill-opacity="1" stroke-width="1.803865" stroke-linecap="round" stroke-linejoin="round" stroke="rgb(0%, 0%, 0%)" stroke-opacity="1" stroke-miterlimit="10" d="M 181.628906 40.730469 C 181.628906 47.367188 171.675781 47.367188 171.675781 40.730469 C 171.675781 34.097656 181.628906 34.097656 181.628906 40.730469 "/>
<path fill-rule="nonzero" fill="rgb(0%, 0%, 0%)" fill-opacity="1" stroke-width="1.803865" stroke-linecap="round" stroke-linejoin="round" stroke="rgb(0%, 0%, 0%)" stroke-opacity="1" stroke-miterlimit="10" d="M 673.175781 42.109375 C 673.175781 48.746094 663.226562 48.746094 663.226562 42.109375 C 663.226562 35.476562 673.175781 35.476562 673.175781 42.109375 "/>
<path fill-rule="nonzero" fill="rgb(0%, 0%, 0%)" fill-opacity="1" stroke-width="1.803865" stroke-linecap="round" stroke-linejoin="round" stroke="rgb(0%, 0%, 0%)" stroke-opacity="1" stroke-miterlimit="10" d="M 293.222656 36.054688 C 293.222656 42.691406 283.269531 42.691406 283.269531 36.054688 C 283.269531 29.421875 293.222656 29.421875 293.222656 36.054688 "/>
<path fill-rule="nonzero" fill="rgb(0%, 0%, 0%)" fill-opacity="1" stroke-width="1.803865" stroke-linecap="round" stroke-linejoin="round" stroke="rgb(0%, 0%, 0%)" stroke-opacity="1" stroke-miterlimit="10" d="M 457.070312 39.929688 C 457.070312 46.5625 447.117188 46.5625 447.117188 39.929688 C 447.117188 33.292969 457.070312 33.292969 457.070312 39.929688 "/>
<path fill-rule="nonzero" fill="rgb(0%, 0%, 0%)" fill-opacity="1" stroke-width="1.803865" stroke-linecap="round" stroke-linejoin="round" stroke="rgb(0%, 0%, 0%)" stroke-opacity="1" stroke-miterlimit="10" d="M 230.441406 42.070312 C 230.441406 48.703125 220.492188 48.703125 220.492188 42.070312 C 220.492188 35.433594 230.441406 35.433594 230.441406 42.070312 "/>
<path fill-rule="nonzero" fill="rgb(0%, 0%, 0%)" fill-opacity="1" stroke-width="1.803865" stroke-linecap="round" stroke-linejoin="round" stroke="rgb(0%, 0%, 0%)" stroke-opacity="1" stroke-miterlimit="10" d="M 718.300781 43.097656 C 718.300781 49.734375 708.351562 49.734375 708.351562 43.097656 C 708.351562 36.464844 718.300781 36.464844 718.300781 43.097656 "/>
<path fill-rule="nonzero" fill="rgb(0%, 0%, 0%)" fill-opacity="1" stroke-width="1.803865" stroke-linecap="round" stroke-linejoin="round" stroke="rgb(0%, 0%, 0%)" stroke-opacity="1" stroke-miterlimit="10" d="M 256.660156 43.671875 C 256.660156 50.308594 246.707031 50.308594 246.707031 43.671875 C 246.707031 37.039062 256.660156 37.039062 256.660156 43.671875 "/>
<path fill-rule="nonzero" fill="rgb(0%, 0%, 0%)" fill-opacity="1" stroke-width="1.803865" stroke-linecap="round" stroke-linejoin="round" stroke="rgb(0%, 0%, 0%)" stroke-opacity="1" stroke-miterlimit="10" d="M 259.179688 41.300781 C 259.179688 47.933594 249.230469 47.933594 249.230469 41.300781 C 249.230469 34.664062 259.179688 34.664062 259.179688 41.300781 "/>
<path fill-rule="nonzero" fill="rgb(0%, 0%, 0%)" fill-opacity="1" stroke-width="1.803865" stroke-linecap="round" stroke-linejoin="round" stroke="rgb(0%, 0%, 0%)" stroke-opacity="1" stroke-miterlimit="10" d="M 547.292969 43.1875 C 547.292969 49.820312 537.339844 49.820312 537.339844 43.1875 C 537.339844 36.550781 547.292969 36.550781 547.292969 43.1875 "/>
<path fill-rule="nonzero" fill="rgb(0%, 0%, 0%)" fill-opacity="1" stroke-width="1.803865" stroke-linecap="round" stroke-linejoin="round" stroke="rgb(0%, 0%, 0%)" stroke-opacity="1" stroke-miterlimit="10" d="M 374.324219 39.144531 C 374.324219 45.777344 364.371094 45.777344 364.371094 39.144531 C 364.371094 32.507812 374.324219 32.507812 374.324219 39.144531 "/>
<path fill-rule="nonzero" fill="rgb(0%, 0%, 0%)" fill-opacity="1" stroke-width="1.803865" stroke-linecap="round" stroke-linejoin="round" stroke="rgb(0%, 0%, 0%)" stroke-opacity="1" stroke-miterlimit="10" d="M 499.785156 37.621094 C 499.785156 44.253906 489.832031 44.253906 489.832031 37.621094 C 489.832031 30.984375 499.785156 30.984375 499.785156 37.621094 "/>
<path fill-rule="nonzero" fill="rgb(0%, 0%, 0%)" fill-opacity="1" stroke-width="1.803865" stroke-linecap="round" stroke-linejoin="round" stroke="rgb(0%, 0%, 0%)" stroke-opacity="1" stroke-miterlimit="10" d="M 177.40625 43.597656 C 177.40625 50.230469 167.453125 50.230469 167.453125 43.597656 C 167.453125 36.960938 177.40625 36.960938 177.40625 43.597656 "/>
<path fill-rule="nonzero" fill="rgb(0%, 0%, 0%)" fill-opacity="1" stroke-width="1.803865" stroke-linecap="round" stroke-linejoin="round" stroke="rgb(0%, 0%, 0%)" stroke-opacity="1" stroke-miterlimit="10" d="M 697.792969 470.082031 C 697.792969 476.714844 687.839844 476.714844 687.839844 470.082031 C 687.839844 463.449219 697.792969 463.449219 697.792969 470.082031 "/>
<path fill-rule="nonzero" fill="rgb(0%, 0%, 0%)" fill-opacity="1" stroke-width="1.803865" stroke-linecap="round" stroke-linejoin="round" stroke="rgb(0%, 0%, 0%)" stroke-opacity="1" stroke-miterlimit="10" d="M 659.359375 466.859375 C 659.359375 473.492188 649.40625 473.492188 649.40625 466.859375 C 649.40625 460.226562 659.359375 460.226562 659.359375 466.859375 "/>
<path fill-rule="nonzero" fill="rgb(0%, 0%, 0%)" fill-opacity="1" stroke-width="1.803865" stroke-linecap="round" stroke-linejoin="round" stroke="rgb(0%, 0%, 0%)" stroke-opacity="1" stroke-miterlimit="10" d="M 350.222656 43.121094 C 350.222656 49.757812 340.269531 49.757812 340.269531 43.121094 C 340.269531 36.488281 350.222656 36.488281 350.222656 43.121094 "/>
<path fill-rule="nonzero" fill="rgb(0%, 0%, 0%)" fill-opacity="1" stroke-width="1.803865" stroke-linecap="round" stroke-linejoin="round" stroke="rgb(0%, 0%, 0%)" stroke-opacity="1" stroke-miterlimit="10" d="M 404.386719 469.761719 C 404.386719 476.398438 394.433594 476.398438 394.433594 469.761719 C 394.433594 463.128906 404.386719 463.128906 404.386719 469.761719 "/>
<path fill-rule="nonzero" fill="rgb(0%, 0%, 0%)" fill-opacity="1" stroke-width="1.803865" stroke-linecap="round" stroke-linejoin="round" stroke="rgb(0%, 0%, 0%)" stroke-opacity="1" stroke-miterlimit="10" d="M 678.582031 465.800781 C 678.582031 472.4375 668.628906 472.4375 668.628906 465.800781 C 668.628906 459.167969 678.582031 459.167969 678.582031 465.800781 "/>
<path fill-rule="nonzero" fill="rgb(0%, 0%, 0%)" fill-opacity="1" stroke-width="1.803865" stroke-linecap="round" stroke-linejoin="round" stroke="rgb(0%, 0%, 0%)" stroke-opacity="1" stroke-miterlimit="10" d="M 522.203125 469.265625 C 522.203125 475.902344 512.253906 475.902344 512.253906 469.265625 C 512.253906 462.632812 522.203125 462.632812 522.203125 469.265625 "/>
<path fill-rule="nonzero" fill="rgb(0%, 0%, 0%)" fill-opacity="1" stroke-width="1.803865" stroke-linecap="round" stroke-linejoin="round" stroke="rgb(0%, 0%, 0%)" stroke-opacity="1" stroke-miterlimit="10" d="M 466.214844 38.445312 C 466.214844 45.078125 456.261719 45.078125 456.261719 38.445312 C 456.261719 31.808594 466.214844 31.808594 466.214844 38.445312 "/>
<path fill-rule="nonzero" fill="rgb(0%, 0%, 0%)" fill-opacity="1" stroke-width="1.803865" stroke-linecap="round" stroke-linejoin="round" stroke="rgb(0%, 0%, 0%)" stroke-opacity="1" stroke-miterlimit="10" d="M 280.050781 38.792969 C 280.050781 45.425781 270.101562 45.425781 270.101562 38.792969 C 270.101562 32.160156 280.050781 32.160156 280.050781 38.792969 "/>
<path fill-rule="nonzero" fill="rgb(0%, 0%, 0%)" fill-opacity="1" stroke-width="1.803865" stroke-linecap="round" stroke-linejoin="round" stroke="rgb(0%, 0%, 0%)" stroke-opacity="1" stroke-miterlimit="10" d="M 554.304688 36.269531 C 554.304688 42.902344 544.351562 42.902344 544.351562 36.269531 C 544.351562 29.632812 554.304688 29.632812 554.304688 36.269531 "/>
<path fill-rule="nonzero" fill="rgb(0%, 0%, 0%)" fill-opacity="1" stroke-width="1.803865" stroke-linecap="round" stroke-linejoin="round" stroke="rgb(0%, 0%, 0%)" stroke-opacity="1" stroke-miterlimit="10" d="M 563.910156 38.410156 C 563.910156 45.042969 553.957031 45.042969 553.957031 38.410156 C 553.957031 31.773438 563.910156 31.773438 563.910156 38.410156 "/>
<path fill-rule="nonzero" fill="rgb(0%, 0%, 0%)" fill-opacity="1" stroke-width="1.803865" stroke-linecap="round" stroke-linejoin="round" stroke="rgb(0%, 0%, 0%)" stroke-opacity="1" stroke-miterlimit="10" d="M 143.027344 36.566406 C 143.027344 43.199219 133.078125 43.199219 133.078125 36.566406 C 133.078125 29.929688 143.027344 29.929688 143.027344 36.566406 "/>
<path fill-rule="nonzero" fill="rgb(0%, 0%, 0%)" fill-opacity="1" stroke-width="1.803865" stroke-linecap="round" stroke-linejoin="round" stroke="rgb(0%, 0%, 0%)" stroke-opacity="1" stroke-miterlimit="10" d="M 403.621094 470.535156 C 403.621094 477.167969 393.667969 477.167969 393.667969 470.535156 C 393.667969 463.898438 403.621094 463.898438 403.621094 470.535156 "/>
<path fill-rule="nonzero" fill="rgb(0%, 0%, 0%)" fill-opacity="1" stroke-width="1.803865" stroke-linecap="round" stroke-linejoin="round" stroke="rgb(0%, 0%, 0%)" stroke-opacity="1" stroke-miterlimit="10" d="M 579.195312 469.722656 C 579.195312 476.355469 569.246094 476.355469 569.246094 469.722656 C 569.246094 463.085938 579.195312 463.085938 579.195312 469.722656 "/>
<path fill-rule="nonzero" fill="rgb(0%, 0%, 0%)" fill-opacity="1" stroke-width="1.803865" stroke-linecap="round" stroke-linejoin="round" stroke="rgb(0%, 0%, 0%)" stroke-opacity="1" stroke-miterlimit="10" d="M 759.675781 465.628906 C 759.675781 472.261719 749.722656 472.261719 749.722656 465.628906 C 749.722656 458.992188 759.675781 458.992188 759.675781 465.628906 "/>
<path fill-rule="nonzero" fill="rgb(0%, 0%, 0%)" fill-opacity="1" stroke-width="1.803865" stroke-linecap="round" stroke-linejoin="round" stroke="rgb(0%, 0%, 0%)" stroke-opacity="1" stroke-miterlimit="10" d="M 292.054688 38.847656 C 292.054688 45.484375 282.105469 45.484375 282.105469 38.847656 C 282.105469 32.214844 292.054688 32.214844 292.054688 38.847656 "/>
<path fill-rule="nonzero" fill="rgb(0%, 0%, 0%)" fill-opacity="1" stroke-width="1.803865" stroke-linecap="round" stroke-linejoin="round" stroke="rgb(0%, 0%, 0%)" stroke-opacity="1" stroke-miterlimit="10" d="M 252.828125 470.140625 C 252.828125 476.773438 242.875 476.773438 242.875 470.140625 C 242.875 463.503906 252.828125 463.503906 252.828125 470.140625 "/>
<path fill="none" stroke-width="5.43189" stroke-linecap="butt" stroke-linejoin="round" stroke="rgb(20%, 40%, 100%)" stroke-opacity="1" stroke-miterlimit="10" d="M 137.640625 98.519531 L 146.203125 101.300781 L 154.765625 104.195312 L 163.328125 107.203125 L 171.890625 110.320312 L 180.457031 113.554688 L 189.019531 116.90625 L 197.582031 120.371094 L 206.144531 123.960938 L 214.710938 127.664062 L 223.273438 131.492188 L 231.835938 135.4375 L 240.398438 139.503906 L 248.960938 143.6875 L 257.527344 147.988281 L 266.089844 152.40625 L 274.652344 156.9375 L 283.214844 161.582031 L 291.78125 166.335938 L 300.34375 171.195312 L 308.90625 176.15625 L 317.46875 181.214844 L 326.03125 186.367188 L 334.597656 191.609375 L 343.160156 196.933594 L 351.722656 202.332031 L 360.285156 207.800781 L 368.851562 213.332031 L 377.414062 218.921875 L 385.976562 224.5625 L 394.539062 230.238281 L 403.101562 235.953125 L 411.667969 241.691406 L 420.230469 247.445312 L 428.792969 253.207031 L 437.355469 258.972656 L 445.921875 264.726562 L 454.484375 270.464844 L 463.046875 276.175781 L 471.609375 281.859375 L 480.175781 287.496094 L 488.738281 293.085938 L 497.300781 298.621094 L 505.863281 304.09375 L 514.425781 309.496094 L 522.992188 314.820312 L 531.554688 320.0625 L 540.117188 325.21875 L 548.679688 330.28125 L 557.246094 335.246094 L 565.808594 340.109375 L 574.371094 344.863281 L 582.933594 349.511719 L 591.496094 354.046875 L 600.0625 358.46875 L 608.625 362.773438 L 617.1875 366.960938 L 625.75 371.03125 L 634.316406 374.980469 L 642.878906 378.808594 L 651.441406 382.519531 L 660.003906 386.109375 L 668.566406 389.582031 L 677.132812 392.933594 L 685.695312 396.171875 L 694.257812 399.292969 L 702.820312 402.300781 L 711.386719 405.199219 L 719.949219 407.988281 L 728.511719 410.667969 L 737.074219 413.246094 L 745.636719 415.71875 L 754.203125 418.09375 L 762.765625 420.371094 L 771.328125 422.554688 L 779.890625 424.644531 L 788.457031 426.648438 L 797.019531 428.5625 L 805.582031 430.398438 L 814.144531 432.148438 "/>
<g fill="rgb(30.196078%, 30.196078%, 30.196078%)" fill-opacity="1">
<use xlink:href="#glyph-0-1" x="79.160156" y="474.400391"/>
</g>
<g fill="rgb(30.196078%, 30.196078%, 30.196078%)" fill-opacity="1">
<use xlink:href="#glyph-0-2" x="79.160156" y="47.685547"/>
</g>
<g fill="rgb(30.196078%, 30.196078%, 30.196078%)" fill-opacity="1">
<use xlink:href="#glyph-0-3" x="222.390625" y="521.326172"/>
</g>
<g fill="rgb(30.196078%, 30.196078%, 30.196078%)" fill-opacity="1">
<use xlink:href="#glyph-0-4" x="420.390625" y="521.326172"/>
</g>
<g fill="rgb(30.196078%, 30.196078%, 30.196078%)" fill-opacity="1">
<use xlink:href="#glyph-0-5" x="618.394531" y="521.326172"/>
</g>
<g fill="rgb(30.196078%, 30.196078%, 30.196078%)" fill-opacity="1">
<use xlink:href="#glyph-0-2" x="810.394531" y="521.326172"/>
<use xlink:href="#glyph-0-1" x="822.394531" y="521.326172"/>
</g>
<g fill="rgb(0%, 0%, 0%)" fill-opacity="1">
<use xlink:href="#glyph-1-1" x="403.882812" y="554.611328"/>
<use xlink:href="#glyph-1-2" x="422.882812" y="554.611328"/>
<use xlink:href="#glyph-1-3" x="438.882812" y="554.611328"/>
<use xlink:href="#glyph-1-4" x="454.882812" y="554.611328"/>
<use xlink:href="#glyph-1-5" x="462.882812" y="554.611328"/>
<use xlink:href="#glyph-1-6" x="471.882812" y="554.611328"/>
<use xlink:href="#glyph-1-3" x="485.882812" y="554.611328"/>
<use xlink:href="#glyph-1-7" x="501.882812" y="554.611328"/>
<use xlink:href="#glyph-1-8" x="517.882812" y="554.611328"/>
<use xlink:href="#glyph-1-9" x="526.882812" y="554.611328"/>
<use xlink:href="#glyph-1-10" x="540.882812" y="554.611328"/>
</g>
<g fill="rgb(0%, 0%, 0%)" fill-opacity="1">
<use xlink:href="#glyph-2-1" x="34.509766" y="448.738281"/>
<use xlink:href="#glyph-2-2" x="34.509766" y="434.738281"/>
<use xlink:href="#glyph-2-2" x="34.509766" y="418.738281"/>
<use xlink:href="#glyph-2-3" x="34.509766" y="402.738281"/>
<use xlink:href="#glyph-2-4" x="34.509766" y="388.738281"/>
<use xlink:href="#glyph-2-5" x="34.509766" y="380.738281"/>
<use xlink:href="#glyph-2-6" x="34.509766" y="357.738281"/>
<use xlink:href="#glyph-2-7" x="34.509766" y="341.738281"/>
<use xlink:href="#glyph-2-8" x="34.509766" y="332.738281"/>
<use xlink:href="#glyph-2-9" x="34.509766" y="318.738281"/>
<use xlink:href="#glyph-2-5" x="34.509766" y="302.738281"/>
<use xlink:href="#glyph-2-6" x="34.509766" y="279.738281"/>
<use xlink:href="#glyph-2-10" x="34.509766" y="263.738281"/>
<use xlink:href="#glyph-2-10" x="34.509766" y="257.738281"/>
<use xlink:href="#glyph-2-2" x="34.509766" y="251.738281"/>
<use xlink:href="#glyph-2-11" x="34.509766" y="235.738281"/>
<use xlink:href="#glyph-2-4" x="34.509766" y="215.738281"/>
<use xlink:href="#glyph-2-12" x="34.509766" y="207.738281"/>
<use xlink:href="#glyph-2-5" x="34.509766" y="201.738281"/>
<use xlink:href="#glyph-2-5" x="34.509766" y="178.738281"/>
<use xlink:href="#glyph-2-13" x="34.509766" y="155.738281"/>
<use xlink:href="#glyph-2-14" x="34.509766" y="139.738281"/>
<use xlink:href="#glyph-2-12" x="34.509766" y="123.738281"/>
<use xlink:href="#glyph-2-6" x="34.509766" y="117.738281"/>
<use xlink:href="#glyph-2-15" x="34.509766" y="101.738281"/>
<use xlink:href="#glyph-2-13" x="34.509766" y="93.738281"/>
<use xlink:href="#glyph-2-10" x="34.509766" y="77.738281"/>
<use xlink:href="#glyph-2-16" x="34.509766" y="71.738281"/>
</g>
<g fill="rgb(0%, 0%, 0%)" fill-opacity="1">
<use xlink:href="#glyph-2-17" x="64.748047" y="358.738281"/>
<use xlink:href="#glyph-2-18" x="64.748047" y="349.738281"/>
<use xlink:href="#glyph-2-4" x="64.748047" y="333.738281"/>
<use xlink:href="#glyph-2-19" x="64.748047" y="325.738281"/>
<use xlink:href="#glyph-2-4" x="64.748047" y="309.738281"/>
<use xlink:href="#glyph-2-20" x="64.748047" y="301.738281"/>
<use xlink:href="#glyph-2-2" x="64.748047" y="281.738281"/>
<use xlink:href="#glyph-2-21" x="64.748047" y="265.738281"/>
<use xlink:href="#glyph-2-4" x="64.748047" y="257.738281"/>
<use xlink:href="#glyph-2-22" x="64.748047" y="249.738281"/>
<use xlink:href="#glyph-2-4" x="64.748047" y="233.738281"/>
<use xlink:href="#glyph-2-19" x="64.748047" y="225.738281"/>
<use xlink:href="#glyph-2-4" x="64.748047" y="209.738281"/>
<use xlink:href="#glyph-2-23" x="64.748047" y="201.738281"/>
<use xlink:href="#glyph-2-13" x="64.748047" y="185.738281"/>
<use xlink:href="#glyph-2-8" x="64.748047" y="170.738281"/>
<use xlink:href="#glyph-2-24" x="64.748047" y="156.738281"/>
</g>
</svg>
