<?xml version="1.0" encoding="UTF-8" standalone="no"?>
<!DOCTYPE svg PUBLIC "-//W3C//DTD SVG 1.1//EN" "http://www.w3.org/Graphics/SVG/1.1/DTD/svg11.dtd">
<svg width="100%" height="100%" viewBox="0 0 2429 1250" version="1.1" xmlns="http://www.w3.org/2000/svg" xmlns:xlink="http://www.w3.org/1999/xlink" xml:space="preserve" xmlns:serif="http://www.serif.com/" style="fill-rule:evenodd;clip-rule:evenodd;stroke-linejoin:round;stroke-miterlimit:1.5;">
    <rect x="0" y="0" width="2428.39" height="1249.6" style="fill:white;"/>
    <g transform="matrix(1,0,0,2.67683,-1140.46,-2357.04)">
        <path d="M1553.52,1300.04L1553.52,1313.28" style="fill:none;stroke:black;stroke-width:4.12px;"/>
    </g>
    <g transform="matrix(1.35684,0,0,1.35684,-855.284,-641.013)">
        <path d="M702.888,1300.04L1877.76,1300.04L702.888,1300.04Z" style="fill:none;stroke:black;stroke-width:6.14px;stroke-linecap:square;"/>
    </g>
    <g transform="matrix(1,0,0,1.0276,-604.465,-212.985)">
        <path d="M702.888,213L702.888,1300.04" style="fill:none;stroke:black;stroke-width:8.22px;stroke-linecap:square;"/>
    </g>
    <g transform="matrix(1.31074,0,0,1.31074,-51.6975,846.348)">
        <g transform="matrix(76.293,0,0,76.293,264.685,306.738)">
            <path d="M0.194,0.012C0.167,0.012 0.143,0.007 0.121,-0.004C0.1,-0.015 0.083,-0.031 0.07,-0.051C0.058,-0.072 0.051,-0.097 0.051,-0.126C0.051,-0.181 0.075,-0.222 0.123,-0.25C0.171,-0.278 0.247,-0.298 0.351,-0.309C0.351,-0.329 0.348,-0.349 0.342,-0.367C0.336,-0.385 0.326,-0.4 0.311,-0.412C0.297,-0.423 0.276,-0.429 0.25,-0.429C0.222,-0.429 0.196,-0.424 0.171,-0.413C0.146,-0.403 0.124,-0.392 0.105,-0.379L0.073,-0.435C0.088,-0.445 0.105,-0.455 0.125,-0.465C0.145,-0.475 0.166,-0.483 0.19,-0.489C0.213,-0.495 0.238,-0.498 0.264,-0.498C0.304,-0.498 0.336,-0.49 0.36,-0.473C0.385,-0.457 0.403,-0.434 0.415,-0.404C0.427,-0.374 0.433,-0.338 0.433,-0.298L0.433,-0L0.365,-0L0.358,-0.058L0.355,-0.058C0.331,-0.039 0.306,-0.022 0.28,-0.009C0.253,0.005 0.225,0.012 0.194,0.012ZM0.217,-0.056C0.241,-0.056 0.263,-0.062 0.284,-0.072C0.305,-0.083 0.327,-0.098 0.351,-0.119L0.351,-0.25C0.296,-0.244 0.253,-0.235 0.221,-0.224C0.189,-0.214 0.167,-0.201 0.153,-0.186C0.139,-0.17 0.132,-0.152 0.132,-0.132C0.132,-0.105 0.141,-0.085 0.157,-0.074C0.174,-0.062 0.194,-0.056 0.217,-0.056Z" style="fill-rule:nonzero;"/>
        </g>
        <g transform="matrix(76.293,0,0,76.293,303.167,306.738)">
            <path d="M0.169,0.009C0.149,0.009 0.132,0.005 0.119,-0.003C0.106,-0.012 0.097,-0.024 0.091,-0.04C0.085,-0.057 0.082,-0.077 0.082,-0.1L0.082,-0.712L0.164,-0.712L0.164,-0.094C0.164,-0.081 0.166,-0.072 0.171,-0.067C0.176,-0.062 0.182,-0.059 0.188,-0.059C0.191,-0.059 0.193,-0.059 0.196,-0.06C0.198,-0.06 0.201,-0.061 0.205,-0.061L0.217,0.001C0.211,0.003 0.204,0.005 0.196,0.007C0.188,0.008 0.179,0.009 0.169,0.009Z" style="fill-rule:nonzero;"/>
        </g>
        <g transform="matrix(76.293,0,0,76.293,322.633,306.738)">
            <path d="M0.271,0.012C0.231,0.012 0.194,0.002 0.16,-0.018C0.126,-0.038 0.098,-0.067 0.077,-0.105C0.056,-0.143 0.046,-0.189 0.046,-0.242C0.046,-0.296 0.056,-0.343 0.077,-0.381C0.098,-0.419 0.126,-0.448 0.16,-0.468C0.194,-0.488 0.231,-0.498 0.271,-0.498C0.311,-0.498 0.348,-0.488 0.382,-0.468C0.416,-0.448 0.444,-0.419 0.465,-0.381C0.486,-0.343 0.496,-0.296 0.496,-0.242C0.496,-0.189 0.486,-0.143 0.465,-0.105C0.444,-0.067 0.416,-0.038 0.382,-0.018C0.348,0.002 0.311,0.012 0.271,0.012ZM0.271,-0.056C0.299,-0.056 0.324,-0.064 0.345,-0.08C0.366,-0.095 0.382,-0.117 0.394,-0.145C0.406,-0.173 0.411,-0.205 0.411,-0.242C0.411,-0.28 0.406,-0.312 0.394,-0.34C0.382,-0.368 0.366,-0.39 0.345,-0.406C0.324,-0.422 0.299,-0.43 0.271,-0.43C0.243,-0.43 0.219,-0.422 0.198,-0.406C0.177,-0.39 0.16,-0.368 0.149,-0.34C0.137,-0.312 0.131,-0.28 0.131,-0.242C0.131,-0.205 0.137,-0.173 0.149,-0.145C0.16,-0.117 0.177,-0.095 0.198,-0.08C0.219,-0.064 0.243,-0.056 0.271,-0.056Z" style="fill-rule:nonzero;"/>
        </g>
        <g transform="matrix(76.293,0,0,76.293,364.007,306.738)">
            <path d="M0.082,-0L0.082,-0.486L0.15,-0.486L0.157,-0.416L0.16,-0.416C0.183,-0.439 0.208,-0.459 0.234,-0.474C0.26,-0.49 0.29,-0.498 0.323,-0.498C0.374,-0.498 0.412,-0.482 0.436,-0.45C0.459,-0.417 0.471,-0.37 0.471,-0.308L0.471,-0L0.389,-0L0.389,-0.297C0.389,-0.343 0.382,-0.376 0.367,-0.396C0.353,-0.416 0.33,-0.427 0.297,-0.427C0.272,-0.427 0.25,-0.42 0.231,-0.408C0.211,-0.395 0.189,-0.377 0.164,-0.352L0.164,-0L0.082,-0Z" style="fill-rule:nonzero;"/>
        </g>
        <g transform="matrix(76.293,0,0,76.293,405.71,306.738)">
            <path d="M0.279,0.012C0.236,0.012 0.196,0.002 0.161,-0.018C0.125,-0.039 0.097,-0.068 0.076,-0.106C0.056,-0.143 0.045,-0.189 0.045,-0.243C0.045,-0.296 0.056,-0.341 0.077,-0.379C0.098,-0.417 0.125,-0.447 0.159,-0.467C0.192,-0.488 0.228,-0.498 0.265,-0.498C0.306,-0.498 0.342,-0.489 0.371,-0.47C0.399,-0.451 0.421,-0.424 0.436,-0.39C0.451,-0.356 0.458,-0.316 0.458,-0.27C0.458,-0.262 0.458,-0.253 0.457,-0.245C0.457,-0.237 0.456,-0.229 0.454,-0.221L0.104,-0.221L0.104,-0.286L0.384,-0.286C0.384,-0.333 0.374,-0.369 0.354,-0.394C0.333,-0.419 0.304,-0.431 0.266,-0.431C0.244,-0.431 0.222,-0.425 0.201,-0.413C0.18,-0.4 0.162,-0.38 0.148,-0.353C0.135,-0.325 0.128,-0.289 0.128,-0.244C0.128,-0.202 0.135,-0.168 0.149,-0.14C0.164,-0.112 0.183,-0.091 0.208,-0.077C0.233,-0.062 0.26,-0.055 0.289,-0.055C0.312,-0.055 0.334,-0.059 0.354,-0.065C0.375,-0.072 0.393,-0.08 0.41,-0.092L0.44,-0.038C0.419,-0.023 0.395,-0.011 0.369,-0.002C0.342,0.007 0.312,0.012 0.279,0.012Z" style="fill-rule:nonzero;"/>
        </g>
        <g transform="matrix(76.293,0,0,76.293,443.535,306.738)">
        </g>
    </g>
    <g transform="matrix(8.02594e-17,-1.31074,1.31074,8.02594e-17,-352.243,1036.11)">
        <g transform="matrix(76.293,0,0,76.293,269.072,306.738)">
            <path d="M0.209,0.012C0.174,0.012 0.14,0.006 0.109,-0.007C0.077,-0.019 0.05,-0.036 0.028,-0.058L0.066,-0.106C0.087,-0.088 0.109,-0.075 0.132,-0.066C0.155,-0.057 0.182,-0.052 0.212,-0.052C0.244,-0.052 0.268,-0.06 0.284,-0.074C0.3,-0.089 0.308,-0.107 0.308,-0.128C0.308,-0.144 0.302,-0.158 0.292,-0.169C0.281,-0.18 0.267,-0.19 0.251,-0.197C0.234,-0.205 0.216,-0.212 0.198,-0.219C0.174,-0.228 0.151,-0.238 0.129,-0.25C0.107,-0.261 0.089,-0.276 0.076,-0.294C0.062,-0.311 0.055,-0.334 0.055,-0.36C0.055,-0.399 0.07,-0.432 0.099,-0.459C0.129,-0.485 0.17,-0.498 0.223,-0.498C0.253,-0.498 0.281,-0.493 0.307,-0.483C0.333,-0.473 0.355,-0.459 0.374,-0.443L0.336,-0.396C0.319,-0.408 0.301,-0.417 0.283,-0.424C0.265,-0.431 0.245,-0.434 0.223,-0.434C0.193,-0.434 0.17,-0.427 0.156,-0.413C0.141,-0.399 0.134,-0.383 0.134,-0.364C0.134,-0.349 0.138,-0.337 0.147,-0.327C0.156,-0.318 0.168,-0.309 0.184,-0.302C0.199,-0.295 0.217,-0.288 0.237,-0.281C0.262,-0.271 0.287,-0.261 0.31,-0.249C0.332,-0.238 0.351,-0.223 0.365,-0.205C0.38,-0.186 0.387,-0.162 0.387,-0.133C0.387,-0.106 0.38,-0.082 0.366,-0.06C0.353,-0.038 0.333,-0.021 0.306,-0.008C0.28,0.005 0.248,0.012 0.209,0.012Z" style="fill-rule:nonzero;"/>
        </g>
        <g transform="matrix(76.293,0,0,76.293,301.049,306.738)">
            <path d="M0.275,0.012C0.232,0.012 0.193,0.002 0.158,-0.018C0.124,-0.038 0.096,-0.067 0.076,-0.105C0.056,-0.143 0.046,-0.189 0.046,-0.242C0.046,-0.296 0.057,-0.343 0.078,-0.381C0.1,-0.419 0.129,-0.448 0.164,-0.468C0.2,-0.488 0.238,-0.498 0.28,-0.498C0.312,-0.498 0.339,-0.493 0.362,-0.482C0.385,-0.471 0.405,-0.458 0.422,-0.441L0.381,-0.39C0.369,-0.402 0.355,-0.412 0.339,-0.419C0.322,-0.426 0.304,-0.43 0.283,-0.43C0.254,-0.43 0.228,-0.422 0.205,-0.406C0.183,-0.39 0.164,-0.368 0.151,-0.34C0.138,-0.312 0.131,-0.28 0.131,-0.242C0.131,-0.205 0.137,-0.173 0.15,-0.145C0.163,-0.117 0.18,-0.095 0.203,-0.08C0.226,-0.064 0.252,-0.056 0.282,-0.056C0.305,-0.056 0.325,-0.061 0.345,-0.069C0.364,-0.078 0.381,-0.089 0.395,-0.102L0.431,-0.052C0.411,-0.032 0.387,-0.017 0.361,-0.005C0.335,0.006 0.306,0.012 0.275,0.012Z" style="fill-rule:nonzero;"/>
        </g>
        <g transform="matrix(76.293,0,0,76.293,334.222,306.738)">
            <path d="M0.271,0.012C0.231,0.012 0.194,0.002 0.16,-0.018C0.126,-0.038 0.098,-0.067 0.077,-0.105C0.056,-0.143 0.046,-0.189 0.046,-0.242C0.046,-0.296 0.056,-0.343 0.077,-0.381C0.098,-0.419 0.126,-0.448 0.16,-0.468C0.194,-0.488 0.231,-0.498 0.271,-0.498C0.311,-0.498 0.348,-0.488 0.382,-0.468C0.416,-0.448 0.444,-0.419 0.465,-0.381C0.486,-0.343 0.496,-0.296 0.496,-0.242C0.496,-0.189 0.486,-0.143 0.465,-0.105C0.444,-0.067 0.416,-0.038 0.382,-0.018C0.348,0.002 0.311,0.012 0.271,0.012ZM0.271,-0.056C0.299,-0.056 0.324,-0.064 0.345,-0.08C0.366,-0.095 0.382,-0.117 0.394,-0.145C0.406,-0.173 0.411,-0.205 0.411,-0.242C0.411,-0.28 0.406,-0.312 0.394,-0.34C0.382,-0.368 0.366,-0.39 0.345,-0.406C0.324,-0.422 0.299,-0.43 0.271,-0.43C0.243,-0.43 0.219,-0.422 0.198,-0.406C0.177,-0.39 0.16,-0.368 0.149,-0.34C0.137,-0.312 0.131,-0.28 0.131,-0.242C0.131,-0.205 0.137,-0.173 0.149,-0.145C0.16,-0.117 0.177,-0.095 0.198,-0.08C0.219,-0.064 0.243,-0.056 0.271,-0.056Z" style="fill-rule:nonzero;"/>
        </g>
        <g transform="matrix(76.293,0,0,76.293,375.596,306.738)">
            <path d="M0.082,-0L0.082,-0.486L0.15,-0.486L0.157,-0.398L0.16,-0.398C0.176,-0.429 0.196,-0.453 0.22,-0.471C0.244,-0.489 0.27,-0.498 0.298,-0.498C0.309,-0.498 0.318,-0.497 0.326,-0.496C0.334,-0.494 0.342,-0.492 0.35,-0.488L0.332,-0.418C0.325,-0.42 0.318,-0.421 0.312,-0.422C0.305,-0.423 0.297,-0.424 0.287,-0.424C0.267,-0.424 0.245,-0.416 0.223,-0.399C0.2,-0.383 0.181,-0.354 0.164,-0.312L0.164,-0L0.082,-0Z" style="fill-rule:nonzero;"/>
        </g>
        <g transform="matrix(76.293,0,0,76.293,401.323,306.738)">
            <path d="M0.279,0.012C0.236,0.012 0.196,0.002 0.161,-0.018C0.125,-0.039 0.097,-0.068 0.076,-0.106C0.056,-0.143 0.045,-0.189 0.045,-0.243C0.045,-0.296 0.056,-0.341 0.077,-0.379C0.098,-0.417 0.125,-0.447 0.159,-0.467C0.192,-0.488 0.228,-0.498 0.265,-0.498C0.306,-0.498 0.342,-0.489 0.371,-0.47C0.399,-0.451 0.421,-0.424 0.436,-0.39C0.451,-0.356 0.458,-0.316 0.458,-0.27C0.458,-0.262 0.458,-0.253 0.457,-0.245C0.457,-0.237 0.456,-0.229 0.454,-0.221L0.104,-0.221L0.104,-0.286L0.384,-0.286C0.384,-0.333 0.374,-0.369 0.354,-0.394C0.333,-0.419 0.304,-0.431 0.266,-0.431C0.244,-0.431 0.222,-0.425 0.201,-0.413C0.18,-0.4 0.162,-0.38 0.148,-0.353C0.135,-0.325 0.128,-0.289 0.128,-0.244C0.128,-0.202 0.135,-0.168 0.149,-0.14C0.164,-0.112 0.183,-0.091 0.208,-0.077C0.233,-0.062 0.26,-0.055 0.289,-0.055C0.312,-0.055 0.334,-0.059 0.354,-0.065C0.375,-0.072 0.393,-0.08 0.41,-0.092L0.44,-0.038C0.419,-0.023 0.395,-0.011 0.369,-0.002C0.342,0.007 0.312,0.012 0.279,0.012Z" style="fill-rule:nonzero;"/>
        </g>
        <g transform="matrix(76.293,0,0,76.293,439.148,306.738)">
        </g>
    </g>
    <g transform="matrix(1,0,0,2.67683,-203.208,-2357.04)">
        <path d="M1553.52,1300.04L1553.52,1313.28" style="fill:none;stroke:black;stroke-width:4.12px;"/>
    </g>
    <g transform="matrix(1.31074,0,0,1.31074,885.578,846.348)">
        <g transform="matrix(76.293,0,0,76.293,252.423,306.738)">
            <path d="M0.271,0.012C0.231,0.012 0.194,0.002 0.16,-0.018C0.126,-0.038 0.098,-0.067 0.077,-0.105C0.056,-0.143 0.046,-0.189 0.046,-0.242C0.046,-0.296 0.056,-0.343 0.077,-0.381C0.098,-0.419 0.126,-0.448 0.16,-0.468C0.194,-0.488 0.231,-0.498 0.271,-0.498C0.311,-0.498 0.348,-0.488 0.382,-0.468C0.416,-0.448 0.444,-0.419 0.465,-0.381C0.486,-0.343 0.496,-0.296 0.496,-0.242C0.496,-0.189 0.486,-0.143 0.465,-0.105C0.444,-0.067 0.416,-0.038 0.382,-0.018C0.348,0.002 0.311,0.012 0.271,0.012ZM0.271,-0.056C0.299,-0.056 0.324,-0.064 0.345,-0.08C0.366,-0.095 0.382,-0.117 0.394,-0.145C0.406,-0.173 0.411,-0.205 0.411,-0.242C0.411,-0.28 0.406,-0.312 0.394,-0.34C0.382,-0.368 0.366,-0.39 0.345,-0.406C0.324,-0.422 0.299,-0.43 0.271,-0.43C0.243,-0.43 0.219,-0.422 0.198,-0.406C0.177,-0.39 0.16,-0.368 0.149,-0.34C0.137,-0.312 0.131,-0.28 0.131,-0.242C0.131,-0.205 0.137,-0.173 0.149,-0.145C0.16,-0.117 0.177,-0.095 0.198,-0.08C0.219,-0.064 0.243,-0.056 0.271,-0.056Z" style="fill-rule:nonzero;"/>
        </g>
        <g transform="matrix(76.293,0,0,76.293,292.5,306.738)">
            <path d="M0.235,0.009C0.183,0.009 0.147,-0.006 0.127,-0.036C0.106,-0.066 0.096,-0.105 0.096,-0.153L0.096,-0.419L0.024,-0.419L0.024,-0.481L0.1,-0.486L0.11,-0.642L0.179,-0.642L0.179,-0.486L0.311,-0.486L0.311,-0.419L0.179,-0.419L0.179,-0.152C0.179,-0.122 0.184,-0.099 0.196,-0.083C0.207,-0.066 0.226,-0.058 0.254,-0.058C0.263,-0.058 0.272,-0.059 0.281,-0.061C0.29,-0.062 0.299,-0.066 0.309,-0.07L0.327,-0.012C0.314,-0.006 0.3,-0.001 0.284,0.003C0.268,0.007 0.252,0.009 0.235,0.009Z" style="fill-rule:nonzero;"/>
        </g>
        <g transform="matrix(76.293,0,0,76.293,318.301,306.738)">
            <path d="M0.082,-0L0.082,-0.712L0.164,-0.712L0.164,-0.518L0.161,-0.418C0.184,-0.44 0.208,-0.459 0.234,-0.474C0.26,-0.49 0.29,-0.498 0.323,-0.498C0.374,-0.498 0.412,-0.482 0.436,-0.45C0.459,-0.417 0.471,-0.37 0.471,-0.308L0.471,-0L0.389,-0L0.389,-0.297C0.389,-0.343 0.382,-0.376 0.367,-0.396C0.353,-0.416 0.33,-0.427 0.297,-0.427C0.272,-0.427 0.25,-0.42 0.231,-0.408C0.211,-0.395 0.189,-0.377 0.164,-0.352L0.164,-0L0.082,-0Z" style="fill-rule:nonzero;"/>
        </g>
        <g transform="matrix(76.293,0,0,76.293,359.81,306.738)">
            <path d="M0.279,0.012C0.236,0.012 0.196,0.002 0.161,-0.018C0.125,-0.039 0.097,-0.068 0.076,-0.106C0.056,-0.143 0.045,-0.189 0.045,-0.243C0.045,-0.296 0.056,-0.341 0.077,-0.379C0.098,-0.417 0.125,-0.447 0.159,-0.467C0.192,-0.488 0.228,-0.498 0.265,-0.498C0.306,-0.498 0.342,-0.489 0.371,-0.47C0.399,-0.451 0.421,-0.424 0.436,-0.39C0.451,-0.356 0.458,-0.316 0.458,-0.27C0.458,-0.262 0.458,-0.253 0.457,-0.245C0.457,-0.237 0.456,-0.229 0.454,-0.221L0.104,-0.221L0.104,-0.286L0.384,-0.286C0.384,-0.333 0.374,-0.369 0.354,-0.394C0.333,-0.419 0.304,-0.431 0.266,-0.431C0.244,-0.431 0.222,-0.425 0.201,-0.413C0.18,-0.4 0.162,-0.38 0.148,-0.353C0.135,-0.325 0.128,-0.289 0.128,-0.244C0.128,-0.202 0.135,-0.168 0.149,-0.14C0.164,-0.112 0.183,-0.091 0.208,-0.077C0.233,-0.062 0.26,-0.055 0.289,-0.055C0.312,-0.055 0.334,-0.059 0.354,-0.065C0.375,-0.072 0.393,-0.08 0.41,-0.092L0.44,-0.038C0.419,-0.023 0.395,-0.011 0.369,-0.002C0.342,0.007 0.312,0.012 0.279,0.012Z" style="fill-rule:nonzero;"/>
        </g>
        <g transform="matrix(76.293,0,0,76.293,397.635,306.738)">
            <path d="M0.082,-0L0.082,-0.486L0.15,-0.486L0.157,-0.398L0.16,-0.398C0.176,-0.429 0.196,-0.453 0.22,-0.471C0.244,-0.489 0.27,-0.498 0.298,-0.498C0.309,-0.498 0.318,-0.497 0.326,-0.496C0.334,-0.494 0.342,-0.492 0.35,-0.488L0.332,-0.418C0.325,-0.42 0.318,-0.421 0.312,-0.422C0.305,-0.423 0.297,-0.424 0.287,-0.424C0.267,-0.424 0.245,-0.416 0.223,-0.399C0.2,-0.383 0.181,-0.354 0.164,-0.312L0.164,-0L0.082,-0Z" style="fill-rule:nonzero;"/>
        </g>
        <g transform="matrix(76.293,0,0,76.293,423.82,306.738)">
            <path d="M0.209,0.012C0.174,0.012 0.14,0.006 0.109,-0.007C0.077,-0.019 0.05,-0.036 0.028,-0.058L0.066,-0.106C0.087,-0.088 0.109,-0.075 0.132,-0.066C0.155,-0.057 0.182,-0.052 0.212,-0.052C0.244,-0.052 0.268,-0.06 0.284,-0.074C0.3,-0.089 0.308,-0.107 0.308,-0.128C0.308,-0.144 0.302,-0.158 0.292,-0.169C0.281,-0.18 0.267,-0.19 0.251,-0.197C0.234,-0.205 0.216,-0.212 0.198,-0.219C0.174,-0.228 0.151,-0.238 0.129,-0.25C0.107,-0.261 0.089,-0.276 0.076,-0.294C0.062,-0.311 0.055,-0.334 0.055,-0.36C0.055,-0.399 0.07,-0.432 0.099,-0.459C0.129,-0.485 0.17,-0.498 0.223,-0.498C0.253,-0.498 0.281,-0.493 0.307,-0.483C0.333,-0.473 0.355,-0.459 0.374,-0.443L0.336,-0.396C0.319,-0.408 0.301,-0.417 0.283,-0.424C0.265,-0.431 0.245,-0.434 0.223,-0.434C0.193,-0.434 0.17,-0.427 0.156,-0.413C0.141,-0.399 0.134,-0.383 0.134,-0.364C0.134,-0.349 0.138,-0.337 0.147,-0.327C0.156,-0.318 0.168,-0.309 0.184,-0.302C0.199,-0.295 0.217,-0.288 0.237,-0.281C0.262,-0.271 0.287,-0.261 0.31,-0.249C0.332,-0.238 0.351,-0.223 0.365,-0.205C0.38,-0.186 0.387,-0.162 0.387,-0.133C0.387,-0.106 0.38,-0.082 0.366,-0.06C0.353,-0.038 0.333,-0.021 0.306,-0.008C0.28,0.005 0.248,0.012 0.209,0.012Z" style="fill-rule:nonzero;"/>
        </g>
        <g transform="matrix(76.293,0,0,76.293,455.797,306.738)">
        </g>
    </g>
</svg>
