<?xml version="1.0" encoding="UTF-8" standalone="no"?>
<!DOCTYPE svg PUBLIC "-//W3C//DTD SVG 1.1//EN" "http://www.w3.org/Graphics/SVG/1.1/DTD/svg11.dtd">
<svg width="100%" height="100%" viewBox="0 0 593 706" version="1.1" xmlns="http://www.w3.org/2000/svg" xmlns:xlink="http://www.w3.org/1999/xlink" xml:space="preserve" xmlns:serif="http://www.serif.com/" style="fill-rule:evenodd;clip-rule:evenodd;stroke-linecap:round;stroke-linejoin:round;stroke-miterlimit:1.5;">
    <g transform="matrix(1,0,0,1,-1336.15,-1076.31)">
        <g transform="matrix(1,0,0,1,1182.55,921.26)">
            <path d="M472.441,425.197L519.685,425.197L519.685,472.441" style="fill:none;stroke:rgb(187,55,37);stroke-width:8.33px;"/>
        </g>
        <g transform="matrix(1,0,0,1,0,921.26)">
            <path d="M1417.32,472.441L1889.76,472.441" style="fill:none;"/>
            <g transform="matrix(1,-0,-0,1,1336.15,155.048)">
                <path d="M99.565,304.893L87.065,317.393L99.565,329.893" style="fill:none;stroke:black;stroke-width:8.33px;stroke-linejoin:miter;stroke-miterlimit:10;"/>
                <path d="M535.221,304.893L547.721,317.393L535.221,329.893" style="fill:none;stroke:black;stroke-width:8.33px;stroke-linejoin:miter;stroke-miterlimit:10;"/>
                <path d="M87.065,317.393L547.721,317.393" style="fill:none;stroke:black;stroke-width:8.33px;"/>
            </g>
        </g>
        <g transform="matrix(1,0,0,1,0,921.26)">
            <path d="M1653.54,236.22L1653.54,708.661" style="fill:none;"/>
            <g transform="matrix(1,-0,-0,1,1336.15,155.048)">
                <path d="M329.893,99.565L317.393,87.065L304.893,99.565" style="fill:none;stroke:black;stroke-width:8.33px;stroke-linejoin:miter;stroke-miterlimit:10;"/>
                <path d="M329.893,535.221L317.393,547.721L304.893,535.221" style="fill:none;stroke:black;stroke-width:8.33px;stroke-linejoin:miter;stroke-miterlimit:10;"/>
                <path d="M317.393,87.065L317.393,547.721" style="fill:none;stroke:black;stroke-width:8.33px;"/>
            </g>
        </g>
    </g>
    <g transform="matrix(1,0,0,1,-145.466,-76.9574)">
        <g transform="matrix(66.6667,0,0,66.6667,543.965,370.728)">
            <path d="M0.205,0.012C0.171,0.012 0.141,0.006 0.116,-0.007C0.09,-0.02 0.069,-0.036 0.051,-0.055L0.097,-0.107C0.11,-0.091 0.126,-0.079 0.145,-0.07C0.163,-0.061 0.182,-0.056 0.202,-0.056C0.233,-0.056 0.261,-0.066 0.286,-0.084C0.312,-0.102 0.332,-0.132 0.347,-0.174C0.363,-0.215 0.371,-0.272 0.371,-0.343C0.371,-0.395 0.365,-0.44 0.354,-0.475C0.343,-0.511 0.327,-0.539 0.306,-0.557C0.285,-0.576 0.259,-0.585 0.228,-0.585C0.207,-0.585 0.189,-0.579 0.172,-0.568C0.155,-0.556 0.142,-0.54 0.132,-0.519C0.122,-0.498 0.117,-0.473 0.117,-0.445C0.117,-0.418 0.122,-0.394 0.13,-0.373C0.139,-0.353 0.152,-0.337 0.17,-0.326C0.187,-0.315 0.209,-0.31 0.235,-0.31C0.256,-0.31 0.279,-0.317 0.303,-0.331C0.327,-0.344 0.35,-0.368 0.372,-0.4L0.375,-0.335C0.356,-0.309 0.332,-0.287 0.304,-0.272C0.276,-0.256 0.249,-0.248 0.221,-0.248C0.185,-0.248 0.153,-0.255 0.125,-0.27C0.098,-0.285 0.077,-0.307 0.062,-0.336C0.047,-0.365 0.04,-0.402 0.04,-0.445C0.04,-0.486 0.048,-0.522 0.065,-0.553C0.083,-0.583 0.106,-0.607 0.134,-0.624C0.163,-0.641 0.194,-0.65 0.228,-0.65C0.259,-0.65 0.289,-0.643 0.315,-0.631C0.342,-0.618 0.365,-0.599 0.385,-0.573C0.405,-0.548 0.42,-0.516 0.431,-0.477C0.443,-0.439 0.448,-0.394 0.448,-0.343C0.448,-0.279 0.442,-0.224 0.428,-0.179C0.415,-0.134 0.397,-0.097 0.374,-0.069C0.351,-0.041 0.326,-0.021 0.296,-0.008C0.267,0.005 0.237,0.012 0.205,0.012Z" style="fill:rgb(187,55,37);fill-rule:nonzero;"/>
        </g>
        <g transform="matrix(66.6667,0,0,66.6667,577.1,370.728)">
            <path d="M0.249,0.012C0.185,0.012 0.135,-0.017 0.099,-0.074C0.062,-0.132 0.044,-0.214 0.044,-0.321C0.044,-0.428 0.062,-0.51 0.099,-0.566C0.135,-0.622 0.185,-0.65 0.249,-0.65C0.312,-0.65 0.362,-0.622 0.398,-0.566C0.435,-0.509 0.453,-0.428 0.453,-0.321C0.453,-0.214 0.435,-0.132 0.398,-0.074C0.362,-0.017 0.312,0.012 0.249,0.012ZM0.249,-0.054C0.273,-0.054 0.295,-0.063 0.314,-0.082C0.332,-0.1 0.347,-0.129 0.357,-0.169C0.368,-0.208 0.373,-0.259 0.373,-0.321C0.373,-0.384 0.368,-0.434 0.357,-0.473C0.347,-0.511 0.332,-0.539 0.314,-0.557C0.295,-0.575 0.273,-0.584 0.249,-0.584C0.224,-0.584 0.202,-0.575 0.183,-0.557C0.165,-0.539 0.15,-0.511 0.14,-0.473C0.129,-0.434 0.124,-0.384 0.124,-0.321C0.124,-0.259 0.129,-0.208 0.14,-0.169C0.15,-0.129 0.165,-0.1 0.183,-0.082C0.202,-0.063 0.224,-0.054 0.249,-0.054Z" style="fill:rgb(187,55,37);fill-rule:nonzero;"/>
        </g>
        <g transform="matrix(66.6667,0,0,66.6667,610.235,370.728)">
            <path d="M0.166,-0.429C0.144,-0.429 0.123,-0.434 0.104,-0.445C0.085,-0.455 0.07,-0.47 0.058,-0.489C0.046,-0.508 0.041,-0.531 0.041,-0.556C0.041,-0.582 0.046,-0.605 0.058,-0.624C0.07,-0.644 0.085,-0.659 0.104,-0.669C0.123,-0.679 0.144,-0.685 0.166,-0.685C0.188,-0.685 0.209,-0.679 0.228,-0.669C0.247,-0.659 0.262,-0.644 0.274,-0.624C0.286,-0.605 0.291,-0.582 0.291,-0.556C0.291,-0.531 0.286,-0.508 0.274,-0.489C0.262,-0.47 0.247,-0.455 0.228,-0.445C0.209,-0.434 0.188,-0.429 0.166,-0.429ZM0.166,-0.475C0.188,-0.475 0.206,-0.483 0.22,-0.498C0.234,-0.514 0.241,-0.533 0.241,-0.556C0.241,-0.581 0.234,-0.6 0.22,-0.616C0.206,-0.631 0.188,-0.639 0.166,-0.639C0.144,-0.639 0.126,-0.631 0.112,-0.616C0.098,-0.6 0.091,-0.581 0.091,-0.556C0.091,-0.533 0.098,-0.514 0.112,-0.498C0.126,-0.483 0.144,-0.475 0.166,-0.475Z" style="fill:rgb(187,55,37);fill-rule:nonzero;"/>
        </g>
        <g transform="matrix(66.6667,0,0,66.6667,632.317,370.728)">
        </g>
    </g>
</svg>
