<?xml version="1.0" encoding="UTF-8" standalone="no"?>
<!DOCTYPE svg PUBLIC "-//W3C//DTD SVG 1.1//EN" "http://www.w3.org/Graphics/SVG/1.1/DTD/svg11.dtd">
<svg width="100%" height="100%" viewBox="0 0 2366 1038" version="1.1" xmlns="http://www.w3.org/2000/svg" xmlns:xlink="http://www.w3.org/1999/xlink" xml:space="preserve" xmlns:serif="http://www.serif.com/" style="fill-rule:evenodd;clip-rule:evenodd;stroke-linejoin:round;stroke-miterlimit:2;">
    <g transform="matrix(1,0,0,1,807.492,-69.9388)">
        <g transform="matrix(0.995795,0,0,0.900729,883.171,875.908)">
            <path d="M677.657,116.408L677.657,210.214C677.657,236.1 658.647,257.116 635.232,257.116L76.808,257.116C53.393,257.116 34.383,236.1 34.383,210.214L34.383,116.408C34.383,90.522 53.393,69.505 76.808,69.505L635.232,69.505C658.647,69.505 677.657,90.522 677.657,116.408Z" style="fill:rgb(191,25,50);fill-opacity:0.2;"/>
        </g>
        <g transform="matrix(1,0,0,1,748.691,684.55)">
            <text x="203.109px" y="325.956px" style="font-family:'FiraSans-Regular', 'Fira Sans', sans-serif;font-size:50px;">r<tspan x="220.909px " y="325.956px ">e</tspan>port model limit<tspan x="618.159px " y="325.956px ">a</tspan>tions,</text>
            <g transform="matrix(50,0,0,50,768.409,388.456)">
            </g>
            <text x="203.109px" y="388.456px" style="font-family:'FiraSans-Regular', 'Fira Sans', sans-serif;font-size:50px;">bootstr<tspan x="368.209px " y="388.456px ">a</tspan>p c<tspan x="461.259px " y="388.456px ">o</tspan>ef estimat<tspan x="717.809px " y="388.456px ">e</tspan>s</text>
        </g>
    </g>
    <g transform="matrix(1,0,0,1,604.19,-51.0109)">
        <g transform="matrix(0.587819,0,0,0.900729,474.38,800.505)">
            <path d="M677.657,116.408L677.657,210.214C677.657,236.1 645.453,257.116 605.786,257.116L106.254,257.116C66.587,257.116 34.383,236.1 34.383,210.214L34.383,116.408C34.383,90.522 66.587,69.505 106.254,69.505L605.786,69.505C645.453,69.505 677.657,90.522 677.657,116.408Z" style="fill:rgb(191,25,50);fill-opacity:0.2;"/>
        </g>
        <g transform="matrix(1,0,0,1,336.271,609.148)">
            <text x="203.109px" y="325.956px" style="font-family:'FiraSans-Regular', 'Fira Sans', sans-serif;font-size:50px;">check model</text>
            <g transform="matrix(50,0,0,50,491.659,388.456)">
            </g>
            <text x="203.109px" y="388.456px" style="font-family:'FiraSans-Regular', 'Fira Sans', sans-serif;font-size:50px;">a<tspan x="229.809px 252.659px " y="388.456px 388.456px ">ss</tspan>umptions</text>
        </g>
    </g>
    <g transform="matrix(4.16667,0,0,4.16667,1520.35,803.997)">
        <path d="M8.347,0.631C8.502,0.357 8.813,0.208 9.123,0.26L9.361,0.3C10.922,0.56 12.077,1.924 12.077,3.506C12.077,3.808 12.035,4.108 11.952,4.398L11.494,6C11.494,6 12.159,6 12.159,6C13.942,6 15.409,7.467 15.409,9.25C15.409,9.56 15.365,9.869 15.277,10.167L14.142,14.026C13.799,15.193 12.72,16 11.503,16L6.586,16C5.803,16 5.039,15.754 4.402,15.298C4.072,15.74 3.551,16 3,16L1.75,16C0.79,16 0,15.21 0,14.25L0,7.75C0,6.784 0.784,6 1.75,6L5.167,6C5.257,6 5.34,5.951 5.384,5.873L8.347,0.631ZM4.75,13.649L5.146,13.979C5.55,14.316 6.06,14.5 6.586,14.5L11.503,14.5C12.056,14.5 12.547,14.134 12.703,13.603L13.838,9.744C13.885,9.584 13.909,9.417 13.909,9.25C13.909,8.29 13.119,7.5 12.159,7.5C12.159,7.5 10.5,7.5 10.5,7.5C10.089,7.5 9.75,7.161 9.75,6.75C9.75,6.68 9.76,6.611 9.779,6.544L10.51,3.986C10.765,3.091 10.265,2.141 9.383,1.846L6.69,6.611C6.38,7.159 5.797,7.5 5.167,7.5L4.75,7.5L4.75,13.649ZM3.25,7.5L1.75,7.5C1.613,7.5 1.5,7.613 1.5,7.75L1.5,14.25C1.5,14.388 1.612,14.5 1.75,14.5L3,14.5C3.137,14.5 3.25,14.387 3.25,14.25L3.25,7.5Z" style="fill:rgb(136,176,75);fill-rule:nonzero;stroke:rgb(136,176,75);stroke-width:0.24px;"/>
    </g>
    <g transform="matrix(4.16667,0,0,-4.16667,1520.35,995.971)">
        <path d="M8.347,0.631C8.502,0.357 8.813,0.208 9.123,0.26L9.361,0.3C10.922,0.56 12.077,1.924 12.077,3.506C12.077,3.808 12.035,4.108 11.952,4.398L11.494,6C11.494,6 12.159,6 12.159,6C13.942,6 15.409,7.467 15.409,9.25C15.409,9.56 15.365,9.869 15.277,10.167L14.142,14.026C13.799,15.193 12.72,16 11.503,16L6.586,16C5.803,16 5.039,15.754 4.402,15.298C4.072,15.74 3.551,16 3,16L1.75,16C0.79,16 0,15.21 0,14.25L0,7.75C0,6.784 0.784,6 1.75,6L5.167,6C5.257,6 5.34,5.951 5.384,5.873L8.347,0.631ZM4.75,13.649L5.146,13.979C5.55,14.316 6.06,14.5 6.586,14.5L11.503,14.5C12.056,14.5 12.547,14.134 12.703,13.603L13.838,9.744C13.885,9.584 13.909,9.417 13.909,9.25C13.909,8.29 13.119,7.5 12.159,7.5C12.159,7.5 10.5,7.5 10.5,7.5C10.089,7.5 9.75,7.161 9.75,6.75C9.75,6.68 9.76,6.611 9.779,6.544L10.51,3.986C10.765,3.091 10.265,2.141 9.383,1.846L6.69,6.611C6.38,7.159 5.797,7.5 5.167,7.5L4.75,7.5L4.75,13.649ZM3.25,7.5L1.75,7.5C1.613,7.5 1.5,7.613 1.5,7.75L1.5,14.25C1.5,14.388 1.612,14.5 1.75,14.5L3,14.5C3.137,14.5 3.25,14.387 3.25,14.25L3.25,7.5Z" style="fill:rgb(15,76,129);fill-rule:nonzero;stroke:rgb(15,76,129);stroke-width:0.24px;"/>
    </g>
    <g transform="matrix(0.472645,1.15213,1.37003,0.0332298,864.265,120.152)">
        <g transform="matrix(-0.0212637,0.737245,0.876682,-0.302445,-86.9578,-600.836)">
            <path d="M1671.49,924.307L1689.47,952.931L1669.96,980.536" style="fill:none;stroke:rgb(15,76,129);stroke-width:8.33px;stroke-linecap:round;stroke-linejoin:miter;stroke-miterlimit:10;"/>
            <path d="M1520.35,896.593C1595.98,910.108 1623.37,950.167 1689.47,952.931" style="fill:none;stroke:rgb(15,76,129);stroke-width:8.33px;stroke-linecap:round;stroke-miterlimit:1.5;"/>
        </g>
    </g>
    <g transform="matrix(-0.783356,0.964932,0.621671,1.19517,1943.3,-584.852)">
        <g transform="matrix(-0.778048,0.628164,0.404703,0.50996,1748.68,-922.464)">
            <path d="M1038.58,868.071L1056.85,896.509L1037.63,924.313" style="fill:none;stroke:rgb(191,25,50);stroke-width:8.33px;stroke-linecap:round;stroke-linejoin:miter;stroke-miterlimit:10;"/>
            <path d="M979.817,284.815C979.817,360.606 655.605,397.573 655.825,558.226C656.122,775.768 947.886,892.93 1056.85,896.509" style="fill:none;stroke:rgb(191,25,50);stroke-width:8.33px;stroke-linecap:round;stroke-miterlimit:1.5;"/>
        </g>
    </g>
    <g transform="matrix(0.783356,0.964932,-0.621671,1.19517,696.097,-584.852)">
        <g transform="matrix(0.778048,-0.628164,0.404703,0.50996,-304.905,735.514)">
            <path d="M1694.11,323.788L1661.29,315.702L1641.2,342.888" style="fill:none;stroke:rgb(136,176,75);stroke-width:8.33px;stroke-linecap:round;stroke-linejoin:miter;stroke-miterlimit:10;"/>
            <path d="M1661.29,315.702C1701.56,414.343 1983.58,361.472 1983.58,558.226C1983.58,779.192 1625.06,896.593 1520.35,896.593" style="fill:none;stroke:rgb(136,176,75);stroke-width:8.33px;stroke-linecap:round;stroke-miterlimit:1.5;"/>
        </g>
    </g>
    <g transform="matrix(1,0,0,1,159.342,-46.9395)">
        <g transform="matrix(0.99667,0,0,0.900255,1090.49,462.555)">
            <path d="M677.657,116.408L677.657,210.214C677.657,236.1 658.673,257.116 635.291,257.116L76.749,257.116C53.367,257.116 34.383,236.1 34.383,210.214L34.383,116.408C34.383,90.522 53.367,69.505 76.749,69.505L635.291,69.505C658.673,69.505 677.657,90.522 677.657,116.408Z" style="fill:rgb(191,25,50);fill-opacity:0.2;"/>
        </g>
        <g transform="matrix(1,0,0,1,958.232,271.12)">
            <text x="203.109px" y="325.956px" style="font-family:'FiraSans-Regular', 'Fira Sans', sans-serif;font-size:50px;">run sensitivit<tspan x="500.059px " y="325.956px ">y</tspan> ana<tspan x="621.109px 635.259px 659.509px " y="325.956px 325.956px 325.956px ">lys</tspan>is,</text>
            <g transform="matrix(50,0,0,50,759.359,388.456)">
            </g>
            <text x="203.109px" y="388.456px" style="font-family:'FiraSans-Regular', 'Fira Sans', sans-serif;font-size:50px;">r<tspan x="220.909px " y="388.456px ">e</tspan>port model limit<tspan x="618.159px " y="388.456px ">a</tspan>tions</text>
        </g>
    </g>
    <g transform="matrix(1,0,0,1,39.1485,-49.1116)">
        <g transform="matrix(0.640268,0,0,0.556068,652.384,516.526)">
            <path d="M677.657,116.408L677.657,210.214C677.657,236.1 659.404,257.116 636.922,257.116L75.118,257.116C52.636,257.116 34.383,236.1 34.383,210.214L34.383,116.408C34.383,90.522 52.636,69.505 75.118,69.505L636.922,69.505C659.404,69.505 677.657,90.522 677.657,116.408Z" style="fill:rgb(191,25,50);fill-opacity:0.2;"/>
        </g>
        <g transform="matrix(1,0,0,1,502.773,300.132)">
            <g transform="matrix(50,0,0,50,552.009,325.956)">
            </g>
            <text x="203.109px" y="325.956px" style="font-family:'FiraSans-Regular', 'Fira Sans', sans-serif;font-size:50px;">run dia<tspan x="364.759px " y="325.956px ">g</tspan>nostics</text>
        </g>
    </g>
    <g transform="matrix(4.16667,0,0,4.16667,1154.41,444.506)">
        <path d="M8.347,0.631C8.502,0.357 8.813,0.208 9.123,0.26L9.361,0.3C10.922,0.56 12.077,1.924 12.077,3.506C12.077,3.808 12.035,4.108 11.952,4.398L11.494,6C11.494,6 12.159,6 12.159,6C13.942,6 15.409,7.467 15.409,9.25C15.409,9.56 15.365,9.869 15.277,10.167L14.142,14.026C13.799,15.193 12.72,16 11.503,16L6.586,16C5.803,16 5.039,15.754 4.402,15.298C4.072,15.74 3.551,16 3,16L1.75,16C0.79,16 0,15.21 0,14.25L0,7.75C0,6.784 0.784,6 1.75,6L5.167,6C5.257,6 5.34,5.951 5.384,5.873L8.347,0.631ZM4.75,13.649L5.146,13.979C5.55,14.316 6.06,14.5 6.586,14.5L11.503,14.5C12.056,14.5 12.547,14.134 12.703,13.603L13.838,9.744C13.885,9.584 13.909,9.417 13.909,9.25C13.909,8.29 13.119,7.5 12.159,7.5C12.159,7.5 10.5,7.5 10.5,7.5C10.089,7.5 9.75,7.161 9.75,6.75C9.75,6.68 9.76,6.611 9.779,6.544L10.51,3.986C10.765,3.091 10.265,2.141 9.383,1.846L6.69,6.611C6.38,7.159 5.797,7.5 5.167,7.5L4.75,7.5L4.75,13.649ZM3.25,7.5L1.75,7.5C1.613,7.5 1.5,7.613 1.5,7.75L1.5,14.25C1.5,14.388 1.612,14.5 1.75,14.5L3,14.5C3.137,14.5 3.25,14.387 3.25,14.25L3.25,7.5Z" style="fill:rgb(136,176,75);fill-rule:nonzero;stroke:rgb(136,176,75);stroke-width:0.24px;"/>
    </g>
    <g transform="matrix(4.16667,0,0,-4.16667,1154.41,657.205)">
        <path d="M8.347,0.631C8.502,0.357 8.813,0.208 9.123,0.26L9.361,0.3C10.922,0.56 12.077,1.924 12.077,3.506C12.077,3.808 12.035,4.108 11.952,4.398L11.494,6C11.494,6 12.159,6 12.159,6C13.942,6 15.409,7.467 15.409,9.25C15.409,9.56 15.365,9.869 15.277,10.167L14.142,14.026C13.799,15.193 12.72,16 11.503,16L6.586,16C5.803,16 5.039,15.754 4.402,15.298C4.072,15.74 3.551,16 3,16L1.75,16C0.79,16 0,15.21 0,14.25L0,7.75C0,6.784 0.784,6 1.75,6L5.167,6C5.257,6 5.34,5.951 5.384,5.873L8.347,0.631ZM4.75,13.649L5.146,13.979C5.55,14.316 6.06,14.5 6.586,14.5L11.503,14.5C12.056,14.5 12.547,14.134 12.703,13.603L13.838,9.744C13.885,9.584 13.909,9.417 13.909,9.25C13.909,8.29 13.119,7.5 12.159,7.5C12.159,7.5 10.5,7.5 10.5,7.5C10.089,7.5 9.75,7.161 9.75,6.75C9.75,6.68 9.76,6.611 9.779,6.544L10.51,3.986C10.765,3.091 10.265,2.141 9.383,1.846L6.69,6.611C6.38,7.159 5.797,7.5 5.167,7.5L4.75,7.5L4.75,13.649ZM3.25,7.5L1.75,7.5C1.613,7.5 1.5,7.613 1.5,7.75L1.5,14.25C1.5,14.388 1.612,14.5 1.75,14.5L3,14.5C3.137,14.5 3.25,14.387 3.25,14.25L3.25,7.5Z" style="fill:rgb(15,76,129);fill-rule:nonzero;stroke:rgb(15,76,129);stroke-width:0.24px;"/>
    </g>
    <g transform="matrix(1,0,0,1,-22.0242,-76.4241)">
        <g transform="matrix(1,0,0,1,43.5841,0)">
            <g transform="matrix(1,0,0,0.900255,-2.96662,13.8516)">
                <path d="M677.657,116.408L677.657,210.214C677.657,236.1 658.737,257.116 635.432,257.116L76.608,257.116C53.304,257.116 34.383,236.1 34.383,210.214L34.383,116.408C34.383,90.522 53.304,69.505 76.608,69.505L635.432,69.505C658.737,69.505 677.657,90.522 677.657,116.408Z" style="fill:rgb(191,25,50);fill-opacity:0.2;"/>
            </g>
            <g transform="matrix(1,0,0,1,-137.455,-177.583)">
                <text x="203.109px" y="325.956px" style="font-family:'FiraSans-Regular', 'Fira Sans', sans-serif;font-size:50px;">set up (e<tspan x="400.009px 411.509px " y="325.956px 325.956px ">.g</tspan>., st<tspan x="515.809px " y="325.956px ">a</tspan>ndar<tspan x="647.209px " y="325.956px ">d</tspan>ise)</text>
                <g transform="matrix(50,0,0,50,734.159,388.456)">
                </g>
                <text x="203.109px" y="388.456px" style="font-family:'FiraSans-Regular', 'Fira Sans', sans-serif;font-size:50px;">c<tspan x="226.009px " y="388.456px ">o</tspan>ntinuous pr<tspan x="517.459px " y="388.456px ">e</tspan>dict<tspan x="629.909px " y="388.456px ">o</tspan>r(s)</text>
            </g>
        </g>
        <g>
            <g transform="matrix(1.08235,0,0,0.900255,-15.1909,236.981)">
                <path d="M677.657,116.408L677.657,210.214C677.657,236.1 660.176,257.116 638.645,257.116L73.395,257.116C51.864,257.116 34.383,236.1 34.383,210.214L34.383,116.408C34.383,90.522 51.864,69.505 73.395,69.505L638.645,69.505C660.176,69.505 677.657,90.522 677.657,116.408Z" style="fill:rgb(191,25,50);fill-opacity:0.2;"/>
            </g>
            <g transform="matrix(1,0,0,1,-143.665,45.5465)">
                <text x="203.109px" y="325.956px" style="font-family:'FiraSans-Regular', 'Fira Sans', sans-serif;font-size:50px;">set up a priori c<tspan x="559.359px " y="325.956px ">o</tspan>ntr<tspan x="653.459px 680.159px " y="325.956px 325.956px ">as</tspan>ts f<tspan x="774.409px " y="325.956px ">o</tspan>r</text>
                <g transform="matrix(50,0,0,50,728.259,388.456)">
                </g>
                <text x="203.109px" y="388.456px" style="font-family:'FiraSans-Regular', 'Fira Sans', sans-serif;font-size:50px;">c<tspan x="226.509px 253.709px 271.009px 298.259px 323.459px " y="388.456px 388.456px 388.456px 388.456px 388.456px ">atego</tspan>ric<tspan x="409.459px 436.159px " y="388.456px 388.456px ">al</tspan> pr<tspan x="511.559px " y="388.456px ">e</tspan>dict<tspan x="624.009px " y="388.456px ">o</tspan>r(s)</text>
            </g>
        </g>
    </g>
    <g transform="matrix(1,0,0,1,-22.0242,-83.5541)">
        <g transform="matrix(0.65748,0,0,0.900255,1941.95,132.546)">
            <path d="M677.657,116.408L677.657,210.214C677.657,236.1 648.88,257.116 613.435,257.116L98.605,257.116C63.16,257.116 34.383,236.1 34.383,210.214L34.383,116.408C34.383,90.522 63.16,69.505 98.605,69.505L613.435,69.505C648.88,69.505 677.657,90.522 677.657,116.408Z" style="fill:rgb(191,25,50);fill-opacity:0.2;"/>
        </g>
        <g transform="matrix(1,0,0,1,598.054,-19.4274)">
            <text x="1404.79px" y="286.495px" style="font-family:'FiraSans-Regular', 'Fira Sans', sans-serif;font-size:50px;">manua<tspan x="1559.94px 1574.59px 1588.74px 1613.34px 1627.59px 1644.89px 1672.14px 1694.99px " y="286.495px 286.495px 286.495px 286.495px 286.495px 286.495px 286.495px 286.495px ">lly test</tspan></text>
            <g transform="matrix(50,0,0,50,1749.59,348.995)">
            </g>
            <text x="1404.79px" y="348.995px" style="font-family:'FiraSans-Regular', 'Fira Sans', sans-serif;font-size:50px;">other c<tspan x="1564.04px " y="348.995px ">o</tspan>ntr<tspan x="1658.14px 1684.84px " y="348.995px 348.995px ">as</tspan>ts</text>
        </g>
    </g>
    <g transform="matrix(1,0,0,1,-22.0242,-92.9779)">
        <g transform="matrix(1,0,0,1,10.482,12.7482)">
            <g transform="matrix(0.409258,0,0,0.556068,845.655,185.432)">
                <path d="M677.657,116.408L677.657,210.214C677.657,236.1 649.101,257.116 613.929,257.116L98.111,257.116C62.939,257.116 34.383,236.1 34.383,210.214L34.383,116.408C34.383,90.522 62.939,69.505 98.111,69.505L613.929,69.505C649.101,69.505 677.657,90.522 677.657,116.408Z" style="fill:rgb(191,25,50);fill-opacity:0.2;"/>
            </g>
            <g transform="matrix(1,0,0,1,686.3,-30.9629)">
                <g transform="matrix(50,0,0,50,203.109,325.956)">
                </g>
                <g transform="matrix(50,0,0,50,218.718,325.956)">
                </g>
                <g transform="matrix(50,0,0,50,407.009,325.956)">
                </g>
                <text x="203.109px" y="325.956px" style="font-family:'FiraSans-Regular', 'Fira Sans', sans-serif;font-size:50px;">ﬁt model</text>
            </g>
        </g>
        <g transform="matrix(1.04127,0,0,1,-146.377,-9.42377)">
            <g transform="matrix(0.787093,0,0,0.900255,1347.97,151.394)">
                <path d="M677.657,116.408L677.657,210.214C677.657,236.1 654.571,257.116 626.137,257.116L85.903,257.116C57.469,257.116 34.383,236.1 34.383,210.214L34.383,116.408C34.383,90.522 57.469,69.505 85.903,69.505L626.137,69.505C654.571,69.505 677.657,90.522 677.657,116.408Z" style="fill:rgb(191,25,50);fill-opacity:0.2;"/>
            </g>
            <g transform="matrix(0.960363,0,0,1,53.293,-4.5924)">
                <text x="1404.79px" y="290.508px" style="font-family:'FiraSans-Regular', 'Fira Sans', sans-serif;font-size:50px;">g<tspan x="1429.99px " y="290.508px ">e</tspan>t mar<tspan x="1577.14px " y="290.508px ">g</tspan>ina<tspan x="1673.24px " y="290.508px ">l</tspan> me<tspan x="1770.74px " y="290.508px ">a</tspan>ns</text>
                <g transform="matrix(50,0,0,50,1570.54,353.008)">
                </g>
                <text x="1404.79px" y="353.008px" style="font-family:'FiraSans-Regular', 'Fira Sans', sans-serif;font-size:50px;">and CIs</text>
            </g>
        </g>
    </g>
    <g transform="matrix(0.87189,0.305119,0.101328,-0.877646,61.9026,218.538)">
        <g transform="matrix(1.10239,0.383254,0.127276,-1.09516,-96.0557,215.61)">
            <path d="M793.61,226.941L826.784,233.428L833.556,266.544" style="fill:none;stroke:rgb(191,25,50);stroke-width:8.33px;stroke-linecap:round;stroke-linejoin:miter;stroke-miterlimit:10;"/>
            <path d="M732.406,307.579C756.464,292.851 788.112,272.435 826.784,233.428" style="fill:none;stroke:rgb(191,25,50);stroke-width:8.33px;stroke-linecap:round;stroke-miterlimit:1.5;"/>
        </g>
    </g>
    <g transform="matrix(0.87189,-0.305119,0.101328,0.877646,61.9026,173.49)">
        <g transform="matrix(1.10239,0.383254,-0.127276,1.09516,-46.1599,-213.724)">
            <path d="M833.556,125.483L826.784,158.6L793.61,165.086" style="fill:none;stroke:rgb(191,25,50);stroke-width:8.33px;stroke-linecap:round;stroke-linejoin:miter;stroke-miterlimit:10;"/>
            <path d="M732.406,84.449C756.464,99.176 788.112,119.593 826.784,158.6" style="fill:none;stroke:rgb(191,25,50);stroke-width:8.33px;stroke-linecap:round;stroke-miterlimit:1.5;"/>
        </g>
    </g>
    <g transform="matrix(0.352465,0.774178,0.431096,-0.632968,812.659,-283.011)">
        <g transform="matrix(1.13671,1.3903,0.774178,-0.632968,-704.655,-1308.97)">
            <path d="M1211.12,167.889L1229.87,196.014L1211.12,224.139" style="fill:none;stroke:rgb(191,25,50);stroke-width:8.33px;stroke-linecap:round;stroke-linejoin:miter;stroke-miterlimit:10;"/>
            <path d="M1144.96,196.014L1229.87,196.014" style="fill:none;stroke:rgb(191,25,50);stroke-width:8.33px;stroke-linecap:round;stroke-miterlimit:1.5;"/>
        </g>
    </g>
    <g transform="matrix(0.352465,0.774178,0.431096,-0.632968,830.001,86.831)">
        <g transform="matrix(1.13671,1.3903,0.774178,-0.632968,-1010.69,-1098.99)">
            <path d="M1231.46,537.73L1250.21,565.855L1231.46,593.98" style="fill:none;stroke:rgb(15,76,129);stroke-width:8.33px;stroke-linecap:round;stroke-linejoin:miter;stroke-miterlimit:10;"/>
            <path d="M1162.31,565.855L1250.21,565.855" style="fill:none;stroke:rgb(15,76,129);stroke-width:8.33px;stroke-linecap:round;stroke-miterlimit:1.5;"/>
        </g>
    </g>
    <g transform="matrix(0.352465,0.774178,0.431096,-0.632968,1491.81,-280.476)">
        <g transform="matrix(1.13671,1.3903,0.774178,-0.632968,-1478.61,-2251.59)">
            <path d="M1890.27,170.423L1909.02,198.548L1890.27,226.673" style="fill:none;stroke:rgb(191,25,50);stroke-width:8.33px;stroke-linecap:round;stroke-linejoin:miter;stroke-miterlimit:10;"/>
            <path d="M1824.11,198.548L1909.02,198.548" style="fill:none;stroke:rgb(191,25,50);stroke-width:8.33px;stroke-linecap:round;stroke-miterlimit:1.5;"/>
        </g>
    </g>
    <g transform="matrix(-0.783356,0.964932,0.621671,1.19517,1465.56,-653.4)">
        <g transform="matrix(-0.778048,0.628164,0.404703,0.50996,1404.71,-587.406)">
            <path d="M1007.94,456.205L979.817,474.955L951.692,456.205" style="fill:none;stroke:rgb(191,25,50);stroke-width:8.33px;stroke-linecap:round;stroke-linejoin:miter;stroke-miterlimit:10;"/>
            <path d="M1066.73,280.463C1066.73,365.503 979.817,389.915 979.817,474.955" style="fill:none;stroke:rgb(191,25,50);stroke-width:8.33px;stroke-linecap:round;stroke-miterlimit:1.5;"/>
        </g>
    </g>
    <g transform="matrix(1.23793,-0.110789,0.423766,-1.2788,109.611,940.064)">
        <g transform="matrix(0.83249,-0.0721226,0.275869,-0.805883,-350.584,765.487)">
            <path d="M1539.86,328.749L1567.98,309.999L1596.11,328.749" style="fill:none;stroke:rgb(15,76,129);stroke-width:8.33px;stroke-linecap:round;stroke-linejoin:miter;stroke-miterlimit:10;"/>
            <path d="M1550.28,445.547C1556.2,430.672 1567.98,391.665 1567.98,309.999" style="fill:none;stroke:rgb(15,76,129);stroke-width:8.33px;stroke-linecap:round;stroke-miterlimit:1.5;"/>
        </g>
    </g>
    <g transform="matrix(0.627575,-0.0561649,0.307238,-0.927153,722.354,748.319)">
        <g transform="matrix(1.64214,-0.0994771,0.544167,-1.11154,-1593.41,903.641)">
            <path d="M1293.41,329.409L1320.68,309.438L1349.61,326.93" style="fill:none;stroke:rgb(136,176,75);stroke-width:8.33px;stroke-linecap:round;stroke-linejoin:miter;stroke-miterlimit:10;"/>
            <path d="M1162.31,565.855C1204.54,556.183 1325.1,409.554 1320.68,309.438" style="fill:none;stroke:rgb(136,176,75);stroke-width:8.33px;stroke-linecap:round;stroke-miterlimit:1.5;"/>
        </g>
    </g>
</svg>
