<?xml version="1.0" encoding="UTF-8" standalone="no"?>
<!DOCTYPE svg PUBLIC "-//W3C//DTD SVG 1.1//EN" "http://www.w3.org/Graphics/SVG/1.1/DTD/svg11.dtd">
<svg width="100%" height="100%" viewBox="0 0 1711 393" version="1.1" xmlns="http://www.w3.org/2000/svg" xmlns:xlink="http://www.w3.org/1999/xlink" xml:space="preserve" xmlns:serif="http://www.serif.com/" style="fill-rule:evenodd;clip-rule:evenodd;stroke-linecap:round;stroke-miterlimit:10;">
    <g id="from-block-1" serif:id="from block 1">
        <g transform="matrix(0.87189,-0.305119,0.101328,0.877646,1.53025,173.49)">
            <g transform="matrix(1.10239,0.383254,-0.127276,1.09516,20.3942,-190.586)">
                <path d="M773.183,125.483L766.411,158.6L733.237,165.086" style="fill:none;stroke:rgb(191,25,50);stroke-width:8.33px;"/>
                <path d="M672.033,84.449C696.092,99.176 727.739,119.593 766.411,158.6" style="fill:none;stroke:rgb(191,25,50);stroke-width:8.33px;stroke-linejoin:round;stroke-miterlimit:1.5;"/>
            </g>
        </g>
        <g transform="matrix(1,0,0,1,-87.0786,-92.9779)">
            <g transform="matrix(0.899347,0,0,0.900255,108.826,30.4053)">
                <path d="M677.657,116.408L677.657,210.214C677.657,236.1 656.619,257.116 630.707,257.116L81.334,257.116C55.421,257.116 34.383,236.1 34.383,210.214L34.383,116.408C34.383,90.522 55.421,69.505 81.334,69.505L630.707,69.505C656.619,69.505 677.657,90.522 677.657,116.408Z" style="fill:rgb(242,209,214);"/>
            </g>
            <g transform="matrix(1,0,0,1,-29.0904,-161.03)">
                <g transform="matrix(50,0,0,50,203.109,325.011)">
                    <path d="M0.209,0.012C0.174,0.012 0.14,0.006 0.109,-0.007C0.077,-0.019 0.05,-0.036 0.028,-0.058L0.066,-0.106C0.087,-0.088 0.109,-0.075 0.132,-0.066C0.155,-0.057 0.182,-0.052 0.212,-0.052C0.244,-0.052 0.268,-0.06 0.284,-0.074C0.3,-0.089 0.308,-0.107 0.308,-0.128C0.308,-0.144 0.302,-0.158 0.292,-0.169C0.281,-0.18 0.267,-0.19 0.251,-0.197C0.234,-0.205 0.216,-0.212 0.198,-0.219C0.174,-0.228 0.151,-0.238 0.129,-0.25C0.107,-0.261 0.089,-0.276 0.076,-0.294C0.062,-0.311 0.055,-0.334 0.055,-0.36C0.055,-0.399 0.07,-0.432 0.099,-0.459C0.129,-0.485 0.17,-0.498 0.223,-0.498C0.253,-0.498 0.281,-0.493 0.307,-0.483C0.333,-0.473 0.355,-0.459 0.374,-0.443L0.336,-0.396C0.319,-0.408 0.301,-0.417 0.283,-0.424C0.265,-0.431 0.245,-0.434 0.223,-0.434C0.193,-0.434 0.17,-0.427 0.156,-0.413C0.141,-0.399 0.134,-0.383 0.134,-0.364C0.134,-0.349 0.138,-0.337 0.147,-0.327C0.156,-0.318 0.168,-0.309 0.184,-0.302C0.199,-0.295 0.217,-0.288 0.237,-0.281C0.262,-0.271 0.287,-0.261 0.31,-0.249C0.332,-0.238 0.351,-0.223 0.365,-0.205C0.38,-0.186 0.387,-0.162 0.387,-0.133C0.387,-0.106 0.38,-0.082 0.366,-0.06C0.353,-0.038 0.333,-0.021 0.306,-0.008C0.28,0.005 0.248,0.012 0.209,0.012Z" style="fill-rule:nonzero;"/>
                </g>
                <g transform="matrix(50,0,0,50,224.065,325.011)">
                    <path d="M0.279,0.012C0.236,0.012 0.196,0.002 0.161,-0.018C0.125,-0.039 0.097,-0.068 0.076,-0.106C0.056,-0.143 0.045,-0.189 0.045,-0.243C0.045,-0.296 0.056,-0.341 0.077,-0.379C0.098,-0.417 0.125,-0.447 0.159,-0.467C0.192,-0.488 0.228,-0.498 0.265,-0.498C0.306,-0.498 0.342,-0.489 0.371,-0.47C0.399,-0.451 0.421,-0.424 0.436,-0.39C0.451,-0.356 0.458,-0.316 0.458,-0.27C0.458,-0.262 0.458,-0.253 0.457,-0.245C0.457,-0.237 0.456,-0.229 0.454,-0.221L0.104,-0.221L0.104,-0.286L0.384,-0.286C0.384,-0.333 0.374,-0.369 0.354,-0.394C0.333,-0.419 0.304,-0.431 0.266,-0.431C0.244,-0.431 0.222,-0.425 0.201,-0.413C0.18,-0.4 0.162,-0.38 0.148,-0.353C0.135,-0.325 0.128,-0.289 0.128,-0.244C0.128,-0.202 0.135,-0.168 0.149,-0.14C0.164,-0.112 0.183,-0.091 0.208,-0.077C0.233,-0.062 0.26,-0.055 0.289,-0.055C0.312,-0.055 0.334,-0.059 0.354,-0.065C0.375,-0.072 0.393,-0.08 0.41,-0.092L0.44,-0.038C0.419,-0.023 0.395,-0.011 0.369,-0.002C0.342,0.007 0.312,0.012 0.279,0.012Z" style="fill-rule:nonzero;"/>
                </g>
                <g transform="matrix(50,0,0,50,248.355,325.011)">
                    <path d="M0.235,0.009C0.183,0.009 0.147,-0.006 0.127,-0.036C0.106,-0.066 0.096,-0.105 0.096,-0.153L0.096,-0.419L0.024,-0.419L0.024,-0.481L0.1,-0.486L0.11,-0.642L0.179,-0.642L0.179,-0.486L0.311,-0.486L0.311,-0.419L0.179,-0.419L0.179,-0.152C0.179,-0.122 0.184,-0.099 0.196,-0.083C0.207,-0.066 0.226,-0.058 0.254,-0.058C0.263,-0.058 0.272,-0.059 0.281,-0.061C0.29,-0.062 0.299,-0.066 0.309,-0.07L0.327,-0.012C0.314,-0.006 0.3,-0.001 0.284,0.003C0.268,0.007 0.252,0.009 0.235,0.009Z" style="fill-rule:nonzero;"/>
                </g>
                <g transform="matrix(50,0,0,50,265.264,325.011)">
                </g>
                <g transform="matrix(50,0,0,50,275.264,325.011)">
                    <path d="M0.224,0.012C0.173,0.012 0.135,-0.004 0.112,-0.036C0.088,-0.069 0.076,-0.116 0.076,-0.178L0.076,-0.486L0.158,-0.486L0.158,-0.189C0.158,-0.143 0.165,-0.111 0.18,-0.09C0.194,-0.07 0.217,-0.06 0.249,-0.06C0.274,-0.06 0.296,-0.066 0.316,-0.079C0.335,-0.092 0.357,-0.113 0.38,-0.141L0.38,-0.486L0.462,-0.486L0.462,-0L0.394,-0L0.387,-0.076L0.384,-0.076C0.362,-0.049 0.338,-0.028 0.312,-0.012C0.287,0.004 0.257,0.012 0.224,0.012Z" style="fill-rule:nonzero;"/>
                </g>
                <g transform="matrix(50,0,0,50,302.445,325.011)">
                    <path d="M0.082,0.205L0.082,-0.486L0.15,-0.486L0.157,-0.43L0.16,-0.43C0.182,-0.449 0.206,-0.465 0.233,-0.478C0.259,-0.491 0.287,-0.498 0.315,-0.498C0.356,-0.498 0.392,-0.488 0.42,-0.468C0.449,-0.447 0.471,-0.418 0.485,-0.381C0.5,-0.344 0.507,-0.3 0.507,-0.25C0.507,-0.195 0.497,-0.148 0.478,-0.109C0.458,-0.07 0.432,-0.04 0.4,-0.019C0.368,0.002 0.334,0.012 0.297,0.012C0.275,0.012 0.253,0.007 0.23,-0.003C0.207,-0.013 0.184,-0.027 0.162,-0.044L0.164,0.041L0.164,0.205L0.082,0.205ZM0.283,-0.057C0.309,-0.057 0.333,-0.065 0.354,-0.08C0.375,-0.096 0.392,-0.118 0.404,-0.147C0.416,-0.175 0.422,-0.21 0.422,-0.25C0.422,-0.285 0.418,-0.317 0.409,-0.344C0.401,-0.371 0.387,-0.392 0.368,-0.406C0.349,-0.421 0.325,-0.429 0.294,-0.429C0.274,-0.429 0.253,-0.423 0.232,-0.412C0.211,-0.401 0.188,-0.385 0.164,-0.363L0.164,-0.108C0.186,-0.089 0.208,-0.076 0.228,-0.069C0.249,-0.061 0.267,-0.057 0.283,-0.057Z" style="fill-rule:nonzero;"/>
                </g>
                <g transform="matrix(50,0,0,50,330.181,325.011)">
                </g>
                <g transform="matrix(50,0,0,50,340.181,325.011)">
                    <path d="M0.214,0.176C0.173,0.109 0.14,0.038 0.117,-0.035C0.094,-0.109 0.082,-0.19 0.082,-0.278C0.082,-0.366 0.094,-0.447 0.117,-0.521C0.14,-0.595 0.173,-0.665 0.214,-0.732L0.265,-0.708C0.226,-0.645 0.198,-0.576 0.179,-0.503C0.16,-0.429 0.15,-0.354 0.15,-0.278C0.15,-0.202 0.16,-0.127 0.179,-0.054C0.198,0.02 0.226,0.088 0.265,0.152L0.214,0.176Z" style="fill-rule:nonzero;"/>
                </g>
                <g transform="matrix(50,0,0,50,355.337,325.011)">
                    <path d="M0.279,0.012C0.236,0.012 0.196,0.002 0.161,-0.018C0.125,-0.039 0.097,-0.068 0.076,-0.106C0.056,-0.143 0.045,-0.189 0.045,-0.243C0.045,-0.296 0.056,-0.341 0.077,-0.379C0.098,-0.417 0.125,-0.447 0.159,-0.467C0.192,-0.488 0.228,-0.498 0.265,-0.498C0.306,-0.498 0.342,-0.489 0.371,-0.47C0.399,-0.451 0.421,-0.424 0.436,-0.39C0.451,-0.356 0.458,-0.316 0.458,-0.27C0.458,-0.262 0.458,-0.253 0.457,-0.245C0.457,-0.237 0.456,-0.229 0.454,-0.221L0.104,-0.221L0.104,-0.286L0.384,-0.286C0.384,-0.333 0.374,-0.369 0.354,-0.394C0.333,-0.419 0.304,-0.431 0.266,-0.431C0.244,-0.431 0.222,-0.425 0.201,-0.413C0.18,-0.4 0.162,-0.38 0.148,-0.353C0.135,-0.325 0.128,-0.289 0.128,-0.244C0.128,-0.202 0.135,-0.168 0.149,-0.14C0.164,-0.112 0.183,-0.091 0.208,-0.077C0.233,-0.062 0.26,-0.055 0.289,-0.055C0.312,-0.055 0.334,-0.059 0.354,-0.065C0.375,-0.072 0.393,-0.08 0.41,-0.092L0.44,-0.038C0.419,-0.023 0.395,-0.011 0.369,-0.002C0.342,0.007 0.312,0.012 0.279,0.012Z" style="fill-rule:nonzero;"/>
                </g>
                <g transform="matrix(50,0,0,50,380.126,325.011)">
                    <path d="M0.125,0.012C0.109,0.012 0.095,0.006 0.083,-0.006C0.071,-0.017 0.065,-0.032 0.065,-0.05C0.065,-0.07 0.071,-0.085 0.083,-0.096C0.095,-0.108 0.109,-0.114 0.125,-0.114C0.141,-0.114 0.155,-0.108 0.167,-0.096C0.178,-0.085 0.184,-0.07 0.184,-0.05C0.184,-0.032 0.178,-0.017 0.167,-0.006C0.155,0.006 0.141,0.012 0.125,0.012Z" style="fill-rule:nonzero;"/>
                </g>
                <g transform="matrix(50,0,0,50,392.587,325.011)">
                    <path d="M0.246,0.224C0.207,0.224 0.172,0.219 0.141,0.208C0.111,0.198 0.087,0.183 0.071,0.164C0.054,0.145 0.045,0.121 0.045,0.093C0.045,0.072 0.051,0.052 0.064,0.034C0.077,0.015 0.094,-0.002 0.116,-0.017L0.116,-0.021C0.104,-0.029 0.094,-0.039 0.086,-0.052C0.077,-0.065 0.073,-0.081 0.073,-0.1C0.073,-0.12 0.079,-0.138 0.09,-0.154C0.102,-0.17 0.114,-0.182 0.126,-0.19L0.126,-0.194C0.111,-0.207 0.096,-0.225 0.083,-0.248C0.07,-0.271 0.063,-0.296 0.063,-0.325C0.063,-0.36 0.072,-0.391 0.089,-0.417C0.105,-0.443 0.128,-0.463 0.155,-0.477C0.183,-0.491 0.213,-0.498 0.246,-0.498C0.259,-0.498 0.272,-0.497 0.284,-0.495C0.296,-0.493 0.306,-0.49 0.315,-0.486L0.484,-0.486L0.484,-0.423L0.383,-0.423L0.383,-0.419C0.395,-0.408 0.404,-0.395 0.412,-0.379C0.42,-0.363 0.424,-0.344 0.424,-0.322C0.424,-0.288 0.416,-0.258 0.4,-0.233C0.384,-0.208 0.363,-0.188 0.336,-0.175C0.309,-0.161 0.279,-0.154 0.246,-0.154C0.234,-0.154 0.222,-0.156 0.209,-0.159C0.197,-0.161 0.185,-0.165 0.173,-0.171C0.165,-0.163 0.158,-0.156 0.152,-0.147C0.146,-0.138 0.143,-0.127 0.143,-0.113C0.143,-0.098 0.149,-0.085 0.161,-0.075C0.173,-0.065 0.195,-0.061 0.228,-0.061L0.322,-0.061C0.379,-0.061 0.422,-0.051 0.45,-0.033C0.478,-0.014 0.492,0.015 0.492,0.056C0.492,0.086 0.482,0.113 0.462,0.139C0.442,0.164 0.413,0.185 0.377,0.2C0.34,0.216 0.296,0.224 0.246,0.224ZM0.246,-0.209C0.265,-0.209 0.282,-0.214 0.297,-0.224C0.313,-0.233 0.325,-0.246 0.335,-0.264C0.344,-0.281 0.349,-0.301 0.349,-0.325C0.349,-0.361 0.339,-0.389 0.319,-0.409C0.299,-0.429 0.275,-0.438 0.246,-0.438C0.217,-0.438 0.193,-0.429 0.173,-0.409C0.153,-0.389 0.143,-0.361 0.143,-0.325C0.143,-0.301 0.147,-0.281 0.157,-0.264C0.166,-0.246 0.179,-0.233 0.195,-0.224C0.21,-0.214 0.227,-0.209 0.246,-0.209ZM0.258,0.167C0.289,0.167 0.316,0.162 0.339,0.153C0.361,0.144 0.379,0.131 0.392,0.116C0.405,0.101 0.412,0.085 0.412,0.068C0.412,0.045 0.403,0.03 0.386,0.021C0.37,0.012 0.345,0.008 0.314,0.008L0.23,0.008C0.221,0.008 0.211,0.007 0.2,0.006C0.189,0.005 0.178,0.003 0.167,0C0.149,0.013 0.137,0.026 0.129,0.04C0.121,0.054 0.117,0.068 0.117,0.082C0.117,0.108 0.129,0.129 0.155,0.144C0.18,0.159 0.214,0.167 0.258,0.167Z" style="fill-rule:nonzero;"/>
                </g>
                <g transform="matrix(50,0,0,50,417.801,325.011)">
                    <path d="M0.125,0.012C0.109,0.012 0.095,0.006 0.083,-0.006C0.071,-0.017 0.065,-0.032 0.065,-0.05C0.065,-0.07 0.071,-0.085 0.083,-0.096C0.095,-0.108 0.109,-0.114 0.125,-0.114C0.141,-0.114 0.155,-0.108 0.167,-0.096C0.178,-0.085 0.184,-0.07 0.184,-0.05C0.184,-0.032 0.178,-0.017 0.167,-0.006C0.155,0.006 0.141,0.012 0.125,0.012Z" style="fill-rule:nonzero;"/>
                </g>
                <g transform="matrix(50,0,0,50,430.262,325.011)">
                    <path d="M0.067,0.17L0.047,0.122C0.076,0.109 0.098,0.092 0.114,0.071C0.13,0.049 0.138,0.025 0.137,-0.002L0.128,-0.076L0.169,-0.016C0.163,-0.01 0.157,-0.005 0.15,-0.003C0.143,-0 0.135,0.001 0.127,0.001C0.111,0.001 0.097,-0.004 0.085,-0.014C0.074,-0.024 0.068,-0.038 0.068,-0.057C0.068,-0.074 0.074,-0.088 0.086,-0.099C0.098,-0.109 0.113,-0.114 0.129,-0.114C0.151,-0.114 0.168,-0.105 0.18,-0.088C0.192,-0.071 0.198,-0.048 0.198,-0.017C0.198,0.026 0.187,0.064 0.163,0.096C0.14,0.129 0.108,0.153 0.067,0.17Z" style="fill-rule:nonzero;"/>
                </g>
                <g transform="matrix(50,0,0,50,442.723,325.011)">
                </g>
                <g transform="matrix(50,0,0,50,452.723,325.011)">
                    <path d="M0.209,0.012C0.174,0.012 0.14,0.006 0.109,-0.007C0.077,-0.019 0.05,-0.036 0.028,-0.058L0.066,-0.106C0.087,-0.088 0.109,-0.075 0.132,-0.066C0.155,-0.057 0.182,-0.052 0.212,-0.052C0.244,-0.052 0.268,-0.06 0.284,-0.074C0.3,-0.089 0.308,-0.107 0.308,-0.128C0.308,-0.144 0.302,-0.158 0.292,-0.169C0.281,-0.18 0.267,-0.19 0.251,-0.197C0.234,-0.205 0.216,-0.212 0.198,-0.219C0.174,-0.228 0.151,-0.238 0.129,-0.25C0.107,-0.261 0.089,-0.276 0.076,-0.294C0.062,-0.311 0.055,-0.334 0.055,-0.36C0.055,-0.399 0.07,-0.432 0.099,-0.459C0.129,-0.485 0.17,-0.498 0.223,-0.498C0.253,-0.498 0.281,-0.493 0.307,-0.483C0.333,-0.473 0.355,-0.459 0.374,-0.443L0.336,-0.396C0.319,-0.408 0.301,-0.417 0.283,-0.424C0.265,-0.431 0.245,-0.434 0.223,-0.434C0.193,-0.434 0.17,-0.427 0.156,-0.413C0.141,-0.399 0.134,-0.383 0.134,-0.364C0.134,-0.349 0.138,-0.337 0.147,-0.327C0.156,-0.318 0.168,-0.309 0.184,-0.302C0.199,-0.295 0.217,-0.288 0.237,-0.281C0.262,-0.271 0.287,-0.261 0.31,-0.249C0.332,-0.238 0.351,-0.223 0.365,-0.205C0.38,-0.186 0.387,-0.162 0.387,-0.133C0.387,-0.106 0.38,-0.082 0.366,-0.06C0.353,-0.038 0.333,-0.021 0.306,-0.008C0.28,0.005 0.248,0.012 0.209,0.012Z" style="fill-rule:nonzero;"/>
                </g>
                <g transform="matrix(50,0,0,50,472.68,325.011)">
                    <path d="M0.235,0.009C0.183,0.009 0.147,-0.006 0.127,-0.036C0.106,-0.066 0.096,-0.105 0.096,-0.153L0.096,-0.419L0.024,-0.419L0.024,-0.481L0.1,-0.486L0.11,-0.642L0.179,-0.642L0.179,-0.486L0.311,-0.486L0.311,-0.419L0.179,-0.419L0.179,-0.152C0.179,-0.122 0.184,-0.099 0.196,-0.083C0.207,-0.066 0.226,-0.058 0.254,-0.058C0.263,-0.058 0.272,-0.059 0.281,-0.061C0.29,-0.062 0.299,-0.066 0.309,-0.07L0.327,-0.012C0.314,-0.006 0.3,-0.001 0.284,0.003C0.268,0.007 0.252,0.009 0.235,0.009Z" style="fill-rule:nonzero;"/>
                </g>
                <g transform="matrix(50,0,0,50,488.539,325.011)">
                    <path d="M0.194,0.012C0.167,0.012 0.143,0.007 0.121,-0.004C0.1,-0.015 0.083,-0.031 0.07,-0.051C0.058,-0.072 0.051,-0.097 0.051,-0.126C0.051,-0.181 0.075,-0.222 0.123,-0.25C0.171,-0.278 0.247,-0.298 0.351,-0.309C0.351,-0.329 0.348,-0.349 0.342,-0.367C0.336,-0.385 0.326,-0.4 0.311,-0.412C0.297,-0.423 0.276,-0.429 0.25,-0.429C0.222,-0.429 0.196,-0.424 0.171,-0.413C0.146,-0.403 0.124,-0.392 0.105,-0.379L0.073,-0.435C0.088,-0.445 0.105,-0.455 0.125,-0.465C0.145,-0.475 0.166,-0.483 0.19,-0.489C0.213,-0.495 0.238,-0.498 0.264,-0.498C0.304,-0.498 0.336,-0.49 0.36,-0.473C0.385,-0.457 0.403,-0.434 0.415,-0.404C0.427,-0.374 0.433,-0.338 0.433,-0.298L0.433,-0L0.365,-0L0.358,-0.058L0.355,-0.058C0.331,-0.039 0.306,-0.022 0.28,-0.009C0.253,0.005 0.225,0.012 0.194,0.012ZM0.217,-0.056C0.241,-0.056 0.263,-0.062 0.284,-0.072C0.305,-0.083 0.327,-0.098 0.351,-0.119L0.351,-0.25C0.296,-0.244 0.253,-0.235 0.221,-0.224C0.189,-0.214 0.167,-0.201 0.153,-0.186C0.139,-0.17 0.132,-0.152 0.132,-0.132C0.132,-0.105 0.141,-0.085 0.157,-0.074C0.174,-0.062 0.194,-0.056 0.217,-0.056Z" style="fill-rule:nonzero;"/>
                </g>
                <g transform="matrix(50,0,0,50,513.759,325.011)">
                    <path d="M0.082,-0L0.082,-0.486L0.15,-0.486L0.157,-0.416L0.16,-0.416C0.183,-0.439 0.208,-0.459 0.234,-0.474C0.26,-0.49 0.29,-0.498 0.323,-0.498C0.374,-0.498 0.412,-0.482 0.436,-0.45C0.459,-0.417 0.471,-0.37 0.471,-0.308L0.471,-0L0.389,-0L0.389,-0.297C0.389,-0.343 0.382,-0.376 0.367,-0.396C0.353,-0.416 0.33,-0.427 0.297,-0.427C0.272,-0.427 0.25,-0.42 0.231,-0.408C0.211,-0.395 0.189,-0.377 0.164,-0.352L0.164,-0L0.082,-0Z" style="fill-rule:nonzero;"/>
                </g>
                <g transform="matrix(50,0,0,50,541.089,325.011)">
                    <path d="M0.248,0.012C0.187,0.012 0.138,-0.01 0.102,-0.055C0.066,-0.099 0.047,-0.162 0.047,-0.242C0.047,-0.295 0.057,-0.34 0.077,-0.378C0.097,-0.417 0.122,-0.446 0.154,-0.467C0.186,-0.488 0.221,-0.498 0.258,-0.498C0.286,-0.498 0.311,-0.493 0.332,-0.483C0.352,-0.473 0.373,-0.46 0.394,-0.442L0.39,-0.525L0.39,-0.712L0.473,-0.712L0.473,-0L0.405,-0L0.398,-0.057L0.395,-0.057C0.376,-0.039 0.354,-0.022 0.329,-0.009C0.304,0.005 0.277,0.012 0.248,0.012ZM0.266,-0.057C0.288,-0.057 0.31,-0.063 0.33,-0.074C0.35,-0.085 0.37,-0.102 0.39,-0.124L0.39,-0.378C0.37,-0.397 0.35,-0.41 0.331,-0.418C0.312,-0.425 0.292,-0.429 0.272,-0.429C0.246,-0.429 0.223,-0.421 0.202,-0.406C0.181,-0.39 0.164,-0.369 0.151,-0.341C0.139,-0.313 0.132,-0.28 0.132,-0.243C0.132,-0.185 0.144,-0.139 0.167,-0.107C0.19,-0.074 0.223,-0.057 0.266,-0.057Z" style="fill-rule:nonzero;"/>
                </g>
                <g transform="matrix(50,0,0,50,568.825,325.011)">
                    <path d="M0.194,0.012C0.167,0.012 0.143,0.007 0.121,-0.004C0.1,-0.015 0.083,-0.031 0.07,-0.051C0.058,-0.072 0.051,-0.097 0.051,-0.126C0.051,-0.181 0.075,-0.222 0.123,-0.25C0.171,-0.278 0.247,-0.298 0.351,-0.309C0.351,-0.329 0.348,-0.349 0.342,-0.367C0.336,-0.385 0.326,-0.4 0.311,-0.412C0.297,-0.423 0.276,-0.429 0.25,-0.429C0.222,-0.429 0.196,-0.424 0.171,-0.413C0.146,-0.403 0.124,-0.392 0.105,-0.379L0.073,-0.435C0.088,-0.445 0.105,-0.455 0.125,-0.465C0.145,-0.475 0.166,-0.483 0.19,-0.489C0.213,-0.495 0.238,-0.498 0.264,-0.498C0.304,-0.498 0.336,-0.49 0.36,-0.473C0.385,-0.457 0.403,-0.434 0.415,-0.404C0.427,-0.374 0.433,-0.338 0.433,-0.298L0.433,-0L0.365,-0L0.358,-0.058L0.355,-0.058C0.331,-0.039 0.306,-0.022 0.28,-0.009C0.253,0.005 0.225,0.012 0.194,0.012ZM0.217,-0.056C0.241,-0.056 0.263,-0.062 0.284,-0.072C0.305,-0.083 0.327,-0.098 0.351,-0.119L0.351,-0.25C0.296,-0.244 0.253,-0.235 0.221,-0.224C0.189,-0.214 0.167,-0.201 0.153,-0.186C0.139,-0.17 0.132,-0.152 0.132,-0.132C0.132,-0.105 0.141,-0.085 0.157,-0.074C0.174,-0.062 0.194,-0.056 0.217,-0.056Z" style="fill-rule:nonzero;"/>
                </g>
                <g transform="matrix(50,0,0,50,594.045,325.011)">
                    <path d="M0.082,-0L0.082,-0.486L0.15,-0.486L0.157,-0.398L0.16,-0.398C0.176,-0.429 0.196,-0.453 0.22,-0.471C0.244,-0.489 0.27,-0.498 0.298,-0.498C0.309,-0.498 0.318,-0.497 0.326,-0.496C0.334,-0.494 0.342,-0.492 0.35,-0.488L0.332,-0.418C0.325,-0.42 0.318,-0.421 0.312,-0.422C0.305,-0.423 0.297,-0.424 0.287,-0.424C0.267,-0.424 0.245,-0.416 0.223,-0.399C0.2,-0.383 0.181,-0.354 0.164,-0.312L0.164,-0L0.082,-0Z" style="fill-rule:nonzero;"/>
                </g>
                <g transform="matrix(50,0,0,50,610.906,325.011)">
                    <path d="M0.248,0.012C0.187,0.012 0.138,-0.01 0.102,-0.055C0.066,-0.099 0.047,-0.162 0.047,-0.242C0.047,-0.295 0.057,-0.34 0.077,-0.378C0.097,-0.417 0.122,-0.446 0.154,-0.467C0.186,-0.488 0.221,-0.498 0.258,-0.498C0.286,-0.498 0.311,-0.493 0.332,-0.483C0.352,-0.473 0.373,-0.46 0.394,-0.442L0.39,-0.525L0.39,-0.712L0.473,-0.712L0.473,-0L0.405,-0L0.398,-0.057L0.395,-0.057C0.376,-0.039 0.354,-0.022 0.329,-0.009C0.304,0.005 0.277,0.012 0.248,0.012ZM0.266,-0.057C0.288,-0.057 0.31,-0.063 0.33,-0.074C0.35,-0.085 0.37,-0.102 0.39,-0.124L0.39,-0.378C0.37,-0.397 0.35,-0.41 0.331,-0.418C0.312,-0.425 0.292,-0.429 0.272,-0.429C0.246,-0.429 0.223,-0.421 0.202,-0.406C0.181,-0.39 0.164,-0.369 0.151,-0.341C0.139,-0.313 0.132,-0.28 0.132,-0.243C0.132,-0.185 0.144,-0.139 0.167,-0.107C0.19,-0.074 0.223,-0.057 0.266,-0.057Z" style="fill-rule:nonzero;"/>
                </g>
                <g transform="matrix(50,0,0,50,638.642,325.011)">
                    <path d="M0.082,-0L0.082,-0.486L0.164,-0.486L0.164,-0L0.082,-0ZM0.123,-0.586C0.107,-0.586 0.094,-0.591 0.084,-0.601C0.073,-0.611 0.068,-0.624 0.068,-0.64C0.068,-0.656 0.073,-0.669 0.084,-0.679C0.094,-0.689 0.107,-0.694 0.123,-0.694C0.139,-0.694 0.152,-0.689 0.163,-0.679C0.173,-0.669 0.178,-0.656 0.178,-0.64C0.178,-0.624 0.173,-0.611 0.163,-0.601C0.152,-0.591 0.139,-0.586 0.123,-0.586Z" style="fill-rule:nonzero;"/>
                </g>
                <g transform="matrix(50,0,0,50,650.956,325.011)">
                    <path d="M0.209,0.012C0.174,0.012 0.14,0.006 0.109,-0.007C0.077,-0.019 0.05,-0.036 0.028,-0.058L0.066,-0.106C0.087,-0.088 0.109,-0.075 0.132,-0.066C0.155,-0.057 0.182,-0.052 0.212,-0.052C0.244,-0.052 0.268,-0.06 0.284,-0.074C0.3,-0.089 0.308,-0.107 0.308,-0.128C0.308,-0.144 0.302,-0.158 0.292,-0.169C0.281,-0.18 0.267,-0.19 0.251,-0.197C0.234,-0.205 0.216,-0.212 0.198,-0.219C0.174,-0.228 0.151,-0.238 0.129,-0.25C0.107,-0.261 0.089,-0.276 0.076,-0.294C0.062,-0.311 0.055,-0.334 0.055,-0.36C0.055,-0.399 0.07,-0.432 0.099,-0.459C0.129,-0.485 0.17,-0.498 0.223,-0.498C0.253,-0.498 0.281,-0.493 0.307,-0.483C0.333,-0.473 0.355,-0.459 0.374,-0.443L0.336,-0.396C0.319,-0.408 0.301,-0.417 0.283,-0.424C0.265,-0.431 0.245,-0.434 0.223,-0.434C0.193,-0.434 0.17,-0.427 0.156,-0.413C0.141,-0.399 0.134,-0.383 0.134,-0.364C0.134,-0.349 0.138,-0.337 0.147,-0.327C0.156,-0.318 0.168,-0.309 0.184,-0.302C0.199,-0.295 0.217,-0.288 0.237,-0.281C0.262,-0.271 0.287,-0.261 0.31,-0.249C0.332,-0.238 0.351,-0.223 0.365,-0.205C0.38,-0.186 0.387,-0.162 0.387,-0.133C0.387,-0.106 0.38,-0.082 0.366,-0.06C0.353,-0.038 0.333,-0.021 0.306,-0.008C0.28,0.005 0.248,0.012 0.209,0.012Z" style="fill-rule:nonzero;"/>
                </g>
                <g transform="matrix(50,0,0,50,671.913,325.011)">
                    <path d="M0.279,0.012C0.236,0.012 0.196,0.002 0.161,-0.018C0.125,-0.039 0.097,-0.068 0.076,-0.106C0.056,-0.143 0.045,-0.189 0.045,-0.243C0.045,-0.296 0.056,-0.341 0.077,-0.379C0.098,-0.417 0.125,-0.447 0.159,-0.467C0.192,-0.488 0.228,-0.498 0.265,-0.498C0.306,-0.498 0.342,-0.489 0.371,-0.47C0.399,-0.451 0.421,-0.424 0.436,-0.39C0.451,-0.356 0.458,-0.316 0.458,-0.27C0.458,-0.262 0.458,-0.253 0.457,-0.245C0.457,-0.237 0.456,-0.229 0.454,-0.221L0.104,-0.221L0.104,-0.286L0.384,-0.286C0.384,-0.333 0.374,-0.369 0.354,-0.394C0.333,-0.419 0.304,-0.431 0.266,-0.431C0.244,-0.431 0.222,-0.425 0.201,-0.413C0.18,-0.4 0.162,-0.38 0.148,-0.353C0.135,-0.325 0.128,-0.289 0.128,-0.244C0.128,-0.202 0.135,-0.168 0.149,-0.14C0.164,-0.112 0.183,-0.091 0.208,-0.077C0.233,-0.062 0.26,-0.055 0.289,-0.055C0.312,-0.055 0.334,-0.059 0.354,-0.065C0.375,-0.072 0.393,-0.08 0.41,-0.092L0.44,-0.038C0.419,-0.023 0.395,-0.011 0.369,-0.002C0.342,0.007 0.312,0.012 0.279,0.012Z" style="fill-rule:nonzero;"/>
                </g>
                <g transform="matrix(50,0,0,50,696.702,325.011)">
                    <path d="M0.089,0.176L0.038,0.152C0.077,0.088 0.105,0.02 0.124,-0.054C0.143,-0.127 0.153,-0.202 0.153,-0.278C0.153,-0.354 0.143,-0.429 0.124,-0.503C0.105,-0.576 0.077,-0.645 0.038,-0.708L0.089,-0.732C0.131,-0.665 0.163,-0.595 0.186,-0.521C0.21,-0.447 0.221,-0.366 0.221,-0.278C0.221,-0.19 0.21,-0.109 0.186,-0.035C0.163,0.038 0.131,0.109 0.089,0.176Z" style="fill-rule:nonzero;"/>
                </g>
                <g transform="matrix(50,0,0,50,711.858,325.011)">
                </g>
                <g transform="matrix(50,0,0,50,203.109,387.511)">
                    <path d="M0.275,0.012C0.232,0.012 0.193,0.002 0.158,-0.018C0.124,-0.038 0.096,-0.067 0.076,-0.105C0.056,-0.143 0.046,-0.189 0.046,-0.242C0.046,-0.296 0.057,-0.343 0.078,-0.381C0.1,-0.419 0.129,-0.448 0.164,-0.468C0.2,-0.488 0.238,-0.498 0.28,-0.498C0.312,-0.498 0.339,-0.493 0.362,-0.482C0.385,-0.471 0.405,-0.458 0.422,-0.441L0.381,-0.39C0.369,-0.402 0.355,-0.412 0.339,-0.419C0.322,-0.426 0.304,-0.43 0.283,-0.43C0.254,-0.43 0.228,-0.422 0.205,-0.406C0.183,-0.39 0.164,-0.368 0.151,-0.34C0.138,-0.312 0.131,-0.28 0.131,-0.242C0.131,-0.205 0.137,-0.173 0.15,-0.145C0.163,-0.117 0.18,-0.095 0.203,-0.08C0.226,-0.064 0.252,-0.056 0.282,-0.056C0.305,-0.056 0.325,-0.061 0.345,-0.069C0.364,-0.078 0.381,-0.089 0.395,-0.102L0.431,-0.052C0.411,-0.032 0.387,-0.017 0.361,-0.005C0.335,0.006 0.306,0.012 0.275,0.012Z" style="fill-rule:nonzero;"/>
                </g>
                <g transform="matrix(50,0,0,50,224.849,387.511)">
                    <path d="M0.271,0.012C0.231,0.012 0.194,0.002 0.16,-0.018C0.126,-0.038 0.098,-0.067 0.077,-0.105C0.056,-0.143 0.046,-0.189 0.046,-0.242C0.046,-0.296 0.056,-0.343 0.077,-0.381C0.098,-0.419 0.126,-0.448 0.16,-0.468C0.194,-0.488 0.231,-0.498 0.271,-0.498C0.311,-0.498 0.348,-0.488 0.382,-0.468C0.416,-0.448 0.444,-0.419 0.465,-0.381C0.486,-0.343 0.496,-0.296 0.496,-0.242C0.496,-0.189 0.486,-0.143 0.465,-0.105C0.444,-0.067 0.416,-0.038 0.382,-0.018C0.348,0.002 0.311,0.012 0.271,0.012ZM0.271,-0.056C0.299,-0.056 0.324,-0.064 0.345,-0.08C0.366,-0.095 0.382,-0.117 0.394,-0.145C0.406,-0.173 0.411,-0.205 0.411,-0.242C0.411,-0.28 0.406,-0.312 0.394,-0.34C0.382,-0.368 0.366,-0.39 0.345,-0.406C0.324,-0.422 0.299,-0.43 0.271,-0.43C0.243,-0.43 0.219,-0.422 0.198,-0.406C0.177,-0.39 0.16,-0.368 0.149,-0.34C0.137,-0.312 0.131,-0.28 0.131,-0.242C0.131,-0.205 0.137,-0.173 0.149,-0.145C0.16,-0.117 0.177,-0.095 0.198,-0.08C0.219,-0.064 0.243,-0.056 0.271,-0.056Z" style="fill-rule:nonzero;"/>
                </g>
                <g transform="matrix(50,0,0,50,251.964,387.511)">
                    <path d="M0.082,-0L0.082,-0.486L0.15,-0.486L0.157,-0.416L0.16,-0.416C0.183,-0.439 0.208,-0.459 0.234,-0.474C0.26,-0.49 0.29,-0.498 0.323,-0.498C0.374,-0.498 0.412,-0.482 0.436,-0.45C0.459,-0.417 0.471,-0.37 0.471,-0.308L0.471,-0L0.389,-0L0.389,-0.297C0.389,-0.343 0.382,-0.376 0.367,-0.396C0.353,-0.416 0.33,-0.427 0.297,-0.427C0.272,-0.427 0.25,-0.42 0.231,-0.408C0.211,-0.395 0.189,-0.377 0.164,-0.352L0.164,-0L0.082,-0Z" style="fill-rule:nonzero;"/>
                </g>
                <g transform="matrix(50,0,0,50,279.295,387.511)">
                    <path d="M0.235,0.009C0.183,0.009 0.147,-0.006 0.127,-0.036C0.106,-0.066 0.096,-0.105 0.096,-0.153L0.096,-0.419L0.024,-0.419L0.024,-0.481L0.1,-0.486L0.11,-0.642L0.179,-0.642L0.179,-0.486L0.311,-0.486L0.311,-0.419L0.179,-0.419L0.179,-0.152C0.179,-0.122 0.184,-0.099 0.196,-0.083C0.207,-0.066 0.226,-0.058 0.254,-0.058C0.263,-0.058 0.272,-0.059 0.281,-0.061C0.29,-0.062 0.299,-0.066 0.309,-0.07L0.327,-0.012C0.314,-0.006 0.3,-0.001 0.284,0.003C0.268,0.007 0.252,0.009 0.235,0.009Z" style="fill-rule:nonzero;"/>
                </g>
                <g transform="matrix(50,0,0,50,296.204,387.511)">
                    <path d="M0.082,-0L0.082,-0.486L0.164,-0.486L0.164,-0L0.082,-0ZM0.123,-0.586C0.107,-0.586 0.094,-0.591 0.084,-0.601C0.073,-0.611 0.068,-0.624 0.068,-0.64C0.068,-0.656 0.073,-0.669 0.084,-0.679C0.094,-0.689 0.107,-0.694 0.123,-0.694C0.139,-0.694 0.152,-0.689 0.163,-0.679C0.173,-0.669 0.178,-0.656 0.178,-0.64C0.178,-0.624 0.173,-0.611 0.163,-0.601C0.152,-0.591 0.139,-0.586 0.123,-0.586Z" style="fill-rule:nonzero;"/>
                </g>
                <g transform="matrix(50,0,0,50,308.518,387.511)">
                    <path d="M0.082,-0L0.082,-0.486L0.15,-0.486L0.157,-0.416L0.16,-0.416C0.183,-0.439 0.208,-0.459 0.234,-0.474C0.26,-0.49 0.29,-0.498 0.323,-0.498C0.374,-0.498 0.412,-0.482 0.436,-0.45C0.459,-0.417 0.471,-0.37 0.471,-0.308L0.471,-0L0.389,-0L0.389,-0.297C0.389,-0.343 0.382,-0.376 0.367,-0.396C0.353,-0.416 0.33,-0.427 0.297,-0.427C0.272,-0.427 0.25,-0.42 0.231,-0.408C0.211,-0.395 0.189,-0.377 0.164,-0.352L0.164,-0L0.082,-0Z" style="fill-rule:nonzero;"/>
                </g>
                <g transform="matrix(50,0,0,50,335.849,387.511)">
                    <path d="M0.224,0.012C0.173,0.012 0.135,-0.004 0.112,-0.036C0.088,-0.069 0.076,-0.116 0.076,-0.178L0.076,-0.486L0.158,-0.486L0.158,-0.189C0.158,-0.143 0.165,-0.111 0.18,-0.09C0.194,-0.07 0.217,-0.06 0.249,-0.06C0.274,-0.06 0.296,-0.066 0.316,-0.079C0.335,-0.092 0.357,-0.113 0.38,-0.141L0.38,-0.486L0.462,-0.486L0.462,-0L0.394,-0L0.387,-0.076L0.384,-0.076C0.362,-0.049 0.338,-0.028 0.312,-0.012C0.287,0.004 0.257,0.012 0.224,0.012Z" style="fill-rule:nonzero;"/>
                </g>
                <g transform="matrix(50,0,0,50,363.03,387.511)">
                    <path d="M0.271,0.012C0.231,0.012 0.194,0.002 0.16,-0.018C0.126,-0.038 0.098,-0.067 0.077,-0.105C0.056,-0.143 0.046,-0.189 0.046,-0.242C0.046,-0.296 0.056,-0.343 0.077,-0.381C0.098,-0.419 0.126,-0.448 0.16,-0.468C0.194,-0.488 0.231,-0.498 0.271,-0.498C0.311,-0.498 0.348,-0.488 0.382,-0.468C0.416,-0.448 0.444,-0.419 0.465,-0.381C0.486,-0.343 0.496,-0.296 0.496,-0.242C0.496,-0.189 0.486,-0.143 0.465,-0.105C0.444,-0.067 0.416,-0.038 0.382,-0.018C0.348,0.002 0.311,0.012 0.271,0.012ZM0.271,-0.056C0.299,-0.056 0.324,-0.064 0.345,-0.08C0.366,-0.095 0.382,-0.117 0.394,-0.145C0.406,-0.173 0.411,-0.205 0.411,-0.242C0.411,-0.28 0.406,-0.312 0.394,-0.34C0.382,-0.368 0.366,-0.39 0.345,-0.406C0.324,-0.422 0.299,-0.43 0.271,-0.43C0.243,-0.43 0.219,-0.422 0.198,-0.406C0.177,-0.39 0.16,-0.368 0.149,-0.34C0.137,-0.312 0.131,-0.28 0.131,-0.242C0.131,-0.205 0.137,-0.173 0.149,-0.145C0.16,-0.117 0.177,-0.095 0.198,-0.08C0.219,-0.064 0.243,-0.056 0.271,-0.056Z" style="fill-rule:nonzero;"/>
                </g>
                <g transform="matrix(50,0,0,50,390.145,387.511)">
                    <path d="M0.224,0.012C0.173,0.012 0.135,-0.004 0.112,-0.036C0.088,-0.069 0.076,-0.116 0.076,-0.178L0.076,-0.486L0.158,-0.486L0.158,-0.189C0.158,-0.143 0.165,-0.111 0.18,-0.09C0.194,-0.07 0.217,-0.06 0.249,-0.06C0.274,-0.06 0.296,-0.066 0.316,-0.079C0.335,-0.092 0.357,-0.113 0.38,-0.141L0.38,-0.486L0.462,-0.486L0.462,-0L0.394,-0L0.387,-0.076L0.384,-0.076C0.362,-0.049 0.338,-0.028 0.312,-0.012C0.287,0.004 0.257,0.012 0.224,0.012Z" style="fill-rule:nonzero;"/>
                </g>
                <g transform="matrix(50,0,0,50,417.327,387.511)">
                    <path d="M0.209,0.012C0.174,0.012 0.14,0.006 0.109,-0.007C0.077,-0.019 0.05,-0.036 0.028,-0.058L0.066,-0.106C0.087,-0.088 0.109,-0.075 0.132,-0.066C0.155,-0.057 0.182,-0.052 0.212,-0.052C0.244,-0.052 0.268,-0.06 0.284,-0.074C0.3,-0.089 0.308,-0.107 0.308,-0.128C0.308,-0.144 0.302,-0.158 0.292,-0.169C0.281,-0.18 0.267,-0.19 0.251,-0.197C0.234,-0.205 0.216,-0.212 0.198,-0.219C0.174,-0.228 0.151,-0.238 0.129,-0.25C0.107,-0.261 0.089,-0.276 0.076,-0.294C0.062,-0.311 0.055,-0.334 0.055,-0.36C0.055,-0.399 0.07,-0.432 0.099,-0.459C0.129,-0.485 0.17,-0.498 0.223,-0.498C0.253,-0.498 0.281,-0.493 0.307,-0.483C0.333,-0.473 0.355,-0.459 0.374,-0.443L0.336,-0.396C0.319,-0.408 0.301,-0.417 0.283,-0.424C0.265,-0.431 0.245,-0.434 0.223,-0.434C0.193,-0.434 0.17,-0.427 0.156,-0.413C0.141,-0.399 0.134,-0.383 0.134,-0.364C0.134,-0.349 0.138,-0.337 0.147,-0.327C0.156,-0.318 0.168,-0.309 0.184,-0.302C0.199,-0.295 0.217,-0.288 0.237,-0.281C0.262,-0.271 0.287,-0.261 0.31,-0.249C0.332,-0.238 0.351,-0.223 0.365,-0.205C0.38,-0.186 0.387,-0.162 0.387,-0.133C0.387,-0.106 0.38,-0.082 0.366,-0.06C0.353,-0.038 0.333,-0.021 0.306,-0.008C0.28,0.005 0.248,0.012 0.209,0.012Z" style="fill-rule:nonzero;"/>
                </g>
                <g transform="matrix(50,0,0,50,438.283,387.511)">
                </g>
                <g transform="matrix(50,0,0,50,448.283,387.511)">
                    <path d="M0.082,0.205L0.082,-0.486L0.15,-0.486L0.157,-0.43L0.16,-0.43C0.182,-0.449 0.206,-0.465 0.233,-0.478C0.259,-0.491 0.287,-0.498 0.315,-0.498C0.356,-0.498 0.392,-0.488 0.42,-0.468C0.449,-0.447 0.471,-0.418 0.485,-0.381C0.5,-0.344 0.507,-0.3 0.507,-0.25C0.507,-0.195 0.497,-0.148 0.478,-0.109C0.458,-0.07 0.432,-0.04 0.4,-0.019C0.368,0.002 0.334,0.012 0.297,0.012C0.275,0.012 0.253,0.007 0.23,-0.003C0.207,-0.013 0.184,-0.027 0.162,-0.044L0.164,0.041L0.164,0.205L0.082,0.205ZM0.283,-0.057C0.309,-0.057 0.333,-0.065 0.354,-0.08C0.375,-0.096 0.392,-0.118 0.404,-0.147C0.416,-0.175 0.422,-0.21 0.422,-0.25C0.422,-0.285 0.418,-0.317 0.409,-0.344C0.401,-0.371 0.387,-0.392 0.368,-0.406C0.349,-0.421 0.325,-0.429 0.294,-0.429C0.274,-0.429 0.253,-0.423 0.232,-0.412C0.211,-0.401 0.188,-0.385 0.164,-0.363L0.164,-0.108C0.186,-0.089 0.208,-0.076 0.228,-0.069C0.249,-0.061 0.267,-0.057 0.283,-0.057Z" style="fill-rule:nonzero;"/>
                </g>
                <g transform="matrix(50,0,0,50,476.019,387.511)">
                    <path d="M0.082,-0L0.082,-0.486L0.15,-0.486L0.157,-0.398L0.16,-0.398C0.176,-0.429 0.196,-0.453 0.22,-0.471C0.244,-0.489 0.27,-0.498 0.298,-0.498C0.309,-0.498 0.318,-0.497 0.326,-0.496C0.334,-0.494 0.342,-0.492 0.35,-0.488L0.332,-0.418C0.325,-0.42 0.318,-0.421 0.312,-0.422C0.305,-0.423 0.297,-0.424 0.287,-0.424C0.267,-0.424 0.245,-0.416 0.223,-0.399C0.2,-0.383 0.181,-0.354 0.164,-0.312L0.164,-0L0.082,-0Z" style="fill-rule:nonzero;"/>
                </g>
                <g transform="matrix(50,0,0,50,492.88,387.511)">
                    <path d="M0.279,0.012C0.236,0.012 0.196,0.002 0.161,-0.018C0.125,-0.039 0.097,-0.068 0.076,-0.106C0.056,-0.143 0.045,-0.189 0.045,-0.243C0.045,-0.296 0.056,-0.341 0.077,-0.379C0.098,-0.417 0.125,-0.447 0.159,-0.467C0.192,-0.488 0.228,-0.498 0.265,-0.498C0.306,-0.498 0.342,-0.489 0.371,-0.47C0.399,-0.451 0.421,-0.424 0.436,-0.39C0.451,-0.356 0.458,-0.316 0.458,-0.27C0.458,-0.262 0.458,-0.253 0.457,-0.245C0.457,-0.237 0.456,-0.229 0.454,-0.221L0.104,-0.221L0.104,-0.286L0.384,-0.286C0.384,-0.333 0.374,-0.369 0.354,-0.394C0.333,-0.419 0.304,-0.431 0.266,-0.431C0.244,-0.431 0.222,-0.425 0.201,-0.413C0.18,-0.4 0.162,-0.38 0.148,-0.353C0.135,-0.325 0.128,-0.289 0.128,-0.244C0.128,-0.202 0.135,-0.168 0.149,-0.14C0.164,-0.112 0.183,-0.091 0.208,-0.077C0.233,-0.062 0.26,-0.055 0.289,-0.055C0.312,-0.055 0.334,-0.059 0.354,-0.065C0.375,-0.072 0.393,-0.08 0.41,-0.092L0.44,-0.038C0.419,-0.023 0.395,-0.011 0.369,-0.002C0.342,0.007 0.312,0.012 0.279,0.012Z" style="fill-rule:nonzero;"/>
                </g>
                <g transform="matrix(50,0,0,50,517.669,387.511)">
                    <path d="M0.248,0.012C0.187,0.012 0.138,-0.01 0.102,-0.055C0.066,-0.099 0.047,-0.162 0.047,-0.242C0.047,-0.295 0.057,-0.34 0.077,-0.378C0.097,-0.417 0.122,-0.446 0.154,-0.467C0.186,-0.488 0.221,-0.498 0.258,-0.498C0.286,-0.498 0.311,-0.493 0.332,-0.483C0.352,-0.473 0.373,-0.46 0.394,-0.442L0.39,-0.525L0.39,-0.712L0.473,-0.712L0.473,-0L0.405,-0L0.398,-0.057L0.395,-0.057C0.376,-0.039 0.354,-0.022 0.329,-0.009C0.304,0.005 0.277,0.012 0.248,0.012ZM0.266,-0.057C0.288,-0.057 0.31,-0.063 0.33,-0.074C0.35,-0.085 0.37,-0.102 0.39,-0.124L0.39,-0.378C0.37,-0.397 0.35,-0.41 0.331,-0.418C0.312,-0.425 0.292,-0.429 0.272,-0.429C0.246,-0.429 0.223,-0.421 0.202,-0.406C0.181,-0.39 0.164,-0.369 0.151,-0.341C0.139,-0.313 0.132,-0.28 0.132,-0.243C0.132,-0.185 0.144,-0.139 0.167,-0.107C0.19,-0.074 0.223,-0.057 0.266,-0.057Z" style="fill-rule:nonzero;"/>
                </g>
                <g transform="matrix(50,0,0,50,545.405,387.511)">
                    <path d="M0.082,-0L0.082,-0.486L0.164,-0.486L0.164,-0L0.082,-0ZM0.123,-0.586C0.107,-0.586 0.094,-0.591 0.084,-0.601C0.073,-0.611 0.068,-0.624 0.068,-0.64C0.068,-0.656 0.073,-0.669 0.084,-0.679C0.094,-0.689 0.107,-0.694 0.123,-0.694C0.139,-0.694 0.152,-0.689 0.163,-0.679C0.173,-0.669 0.178,-0.656 0.178,-0.64C0.178,-0.624 0.173,-0.611 0.163,-0.601C0.152,-0.591 0.139,-0.586 0.123,-0.586Z" style="fill-rule:nonzero;"/>
                </g>
                <g transform="matrix(50,0,0,50,557.72,387.511)">
                    <path d="M0.275,0.012C0.232,0.012 0.193,0.002 0.158,-0.018C0.124,-0.038 0.096,-0.067 0.076,-0.105C0.056,-0.143 0.046,-0.189 0.046,-0.242C0.046,-0.296 0.057,-0.343 0.078,-0.381C0.1,-0.419 0.129,-0.448 0.164,-0.468C0.2,-0.488 0.238,-0.498 0.28,-0.498C0.312,-0.498 0.339,-0.493 0.362,-0.482C0.385,-0.471 0.405,-0.458 0.422,-0.441L0.381,-0.39C0.369,-0.402 0.355,-0.412 0.339,-0.419C0.322,-0.426 0.304,-0.43 0.283,-0.43C0.254,-0.43 0.228,-0.422 0.205,-0.406C0.183,-0.39 0.164,-0.368 0.151,-0.34C0.138,-0.312 0.131,-0.28 0.131,-0.242C0.131,-0.205 0.137,-0.173 0.15,-0.145C0.163,-0.117 0.18,-0.095 0.203,-0.08C0.226,-0.064 0.252,-0.056 0.282,-0.056C0.305,-0.056 0.325,-0.061 0.345,-0.069C0.364,-0.078 0.381,-0.089 0.395,-0.102L0.431,-0.052C0.411,-0.032 0.387,-0.017 0.361,-0.005C0.335,0.006 0.306,0.012 0.275,0.012Z" style="fill-rule:nonzero;"/>
                </g>
                <g transform="matrix(50,0,0,50,580.01,387.511)">
                    <path d="M0.235,0.009C0.183,0.009 0.147,-0.006 0.127,-0.036C0.106,-0.066 0.096,-0.105 0.096,-0.153L0.096,-0.419L0.024,-0.419L0.024,-0.481L0.1,-0.486L0.11,-0.642L0.179,-0.642L0.179,-0.486L0.311,-0.486L0.311,-0.419L0.179,-0.419L0.179,-0.152C0.179,-0.122 0.184,-0.099 0.196,-0.083C0.207,-0.066 0.226,-0.058 0.254,-0.058C0.263,-0.058 0.272,-0.059 0.281,-0.061C0.29,-0.062 0.299,-0.066 0.309,-0.07L0.327,-0.012C0.314,-0.006 0.3,-0.001 0.284,0.003C0.268,0.007 0.252,0.009 0.235,0.009Z" style="fill-rule:nonzero;"/>
                </g>
                <g transform="matrix(50,0,0,50,596.22,387.511)">
                    <path d="M0.271,0.012C0.231,0.012 0.194,0.002 0.16,-0.018C0.126,-0.038 0.098,-0.067 0.077,-0.105C0.056,-0.143 0.046,-0.189 0.046,-0.242C0.046,-0.296 0.056,-0.343 0.077,-0.381C0.098,-0.419 0.126,-0.448 0.16,-0.468C0.194,-0.488 0.231,-0.498 0.271,-0.498C0.311,-0.498 0.348,-0.488 0.382,-0.468C0.416,-0.448 0.444,-0.419 0.465,-0.381C0.486,-0.343 0.496,-0.296 0.496,-0.242C0.496,-0.189 0.486,-0.143 0.465,-0.105C0.444,-0.067 0.416,-0.038 0.382,-0.018C0.348,0.002 0.311,0.012 0.271,0.012ZM0.271,-0.056C0.299,-0.056 0.324,-0.064 0.345,-0.08C0.366,-0.095 0.382,-0.117 0.394,-0.145C0.406,-0.173 0.411,-0.205 0.411,-0.242C0.411,-0.28 0.406,-0.312 0.394,-0.34C0.382,-0.368 0.366,-0.39 0.345,-0.406C0.324,-0.422 0.299,-0.43 0.271,-0.43C0.243,-0.43 0.219,-0.422 0.198,-0.406C0.177,-0.39 0.16,-0.368 0.149,-0.34C0.137,-0.312 0.131,-0.28 0.131,-0.242C0.131,-0.205 0.137,-0.173 0.149,-0.145C0.16,-0.117 0.177,-0.095 0.198,-0.08C0.219,-0.064 0.243,-0.056 0.271,-0.056Z" style="fill-rule:nonzero;"/>
                </g>
                <g transform="matrix(50,0,0,50,623.335,387.511)">
                    <path d="M0.082,-0L0.082,-0.486L0.15,-0.486L0.157,-0.398L0.16,-0.398C0.176,-0.429 0.196,-0.453 0.22,-0.471C0.244,-0.489 0.27,-0.498 0.298,-0.498C0.309,-0.498 0.318,-0.497 0.326,-0.496C0.334,-0.494 0.342,-0.492 0.35,-0.488L0.332,-0.418C0.325,-0.42 0.318,-0.421 0.312,-0.422C0.305,-0.423 0.297,-0.424 0.287,-0.424C0.267,-0.424 0.245,-0.416 0.223,-0.399C0.2,-0.383 0.181,-0.354 0.164,-0.312L0.164,-0L0.082,-0Z" style="fill-rule:nonzero;"/>
                </g>
                <g transform="matrix(50,0,0,50,640.695,387.511)">
                    <path d="M0.214,0.176C0.173,0.109 0.14,0.038 0.117,-0.035C0.094,-0.109 0.082,-0.19 0.082,-0.278C0.082,-0.366 0.094,-0.447 0.117,-0.521C0.14,-0.595 0.173,-0.665 0.214,-0.732L0.265,-0.708C0.226,-0.645 0.198,-0.576 0.179,-0.503C0.16,-0.429 0.15,-0.354 0.15,-0.278C0.15,-0.202 0.16,-0.127 0.179,-0.054C0.198,0.02 0.226,0.088 0.265,0.152L0.214,0.176Z" style="fill-rule:nonzero;"/>
                </g>
                <g transform="matrix(50,0,0,50,655.851,387.511)">
                    <path d="M0.209,0.012C0.174,0.012 0.14,0.006 0.109,-0.007C0.077,-0.019 0.05,-0.036 0.028,-0.058L0.066,-0.106C0.087,-0.088 0.109,-0.075 0.132,-0.066C0.155,-0.057 0.182,-0.052 0.212,-0.052C0.244,-0.052 0.268,-0.06 0.284,-0.074C0.3,-0.089 0.308,-0.107 0.308,-0.128C0.308,-0.144 0.302,-0.158 0.292,-0.169C0.281,-0.18 0.267,-0.19 0.251,-0.197C0.234,-0.205 0.216,-0.212 0.198,-0.219C0.174,-0.228 0.151,-0.238 0.129,-0.25C0.107,-0.261 0.089,-0.276 0.076,-0.294C0.062,-0.311 0.055,-0.334 0.055,-0.36C0.055,-0.399 0.07,-0.432 0.099,-0.459C0.129,-0.485 0.17,-0.498 0.223,-0.498C0.253,-0.498 0.281,-0.493 0.307,-0.483C0.333,-0.473 0.355,-0.459 0.374,-0.443L0.336,-0.396C0.319,-0.408 0.301,-0.417 0.283,-0.424C0.265,-0.431 0.245,-0.434 0.223,-0.434C0.193,-0.434 0.17,-0.427 0.156,-0.413C0.141,-0.399 0.134,-0.383 0.134,-0.364C0.134,-0.349 0.138,-0.337 0.147,-0.327C0.156,-0.318 0.168,-0.309 0.184,-0.302C0.199,-0.295 0.217,-0.288 0.237,-0.281C0.262,-0.271 0.287,-0.261 0.31,-0.249C0.332,-0.238 0.351,-0.223 0.365,-0.205C0.38,-0.186 0.387,-0.162 0.387,-0.133C0.387,-0.106 0.38,-0.082 0.366,-0.06C0.353,-0.038 0.333,-0.021 0.306,-0.008C0.28,0.005 0.248,0.012 0.209,0.012Z" style="fill-rule:nonzero;"/>
                </g>
                <g transform="matrix(50,0,0,50,676.808,387.511)">
                    <path d="M0.089,0.176L0.038,0.152C0.077,0.088 0.105,0.02 0.124,-0.054C0.143,-0.127 0.153,-0.202 0.153,-0.278C0.153,-0.354 0.143,-0.429 0.124,-0.503C0.105,-0.576 0.077,-0.645 0.038,-0.708L0.089,-0.732C0.131,-0.665 0.163,-0.595 0.186,-0.521C0.21,-0.447 0.221,-0.366 0.221,-0.278C0.221,-0.19 0.21,-0.109 0.186,-0.035C0.163,0.038 0.131,0.109 0.089,0.176Z" style="fill-rule:nonzero;"/>
                </g>
                <g transform="matrix(50,0,0,50,691.964,387.511)">
                </g>
            </g>
        </g>
        <g transform="matrix(1,0,0,1,-62.9594,-92.9779)">
            <g transform="matrix(0.409258,0,0,0.556068,856.137,198.18)">
                <path d="M677.657,116.408L677.657,210.214C677.657,236.1 649.101,257.116 613.929,257.116L98.111,257.116C62.939,257.116 34.383,236.1 34.383,210.214L34.383,116.408C34.383,90.522 62.939,69.505 98.111,69.505L613.929,69.505C649.101,69.505 677.657,90.522 677.657,116.408Z" style="fill:rgb(242,209,214);"/>
            </g>
            <g transform="matrix(1,0,0,1,701.322,-18.2147)">
                <g transform="matrix(50,0,0,50,203.109,324.066)">
                    <path d="M0.096,-0L0.096,-0.563C0.096,-0.596 0.101,-0.625 0.111,-0.649C0.121,-0.673 0.137,-0.691 0.158,-0.705C0.179,-0.718 0.205,-0.724 0.238,-0.724C0.253,-0.724 0.267,-0.723 0.282,-0.72C0.296,-0.717 0.308,-0.713 0.319,-0.708L0.301,-0.648C0.282,-0.654 0.264,-0.657 0.246,-0.657C0.224,-0.657 0.206,-0.649 0.195,-0.633C0.184,-0.618 0.178,-0.594 0.178,-0.563L0.178,-0L0.096,-0ZM0.024,-0.419L0.024,-0.481L0.1,-0.486L0.281,-0.486L0.281,-0.419L0.024,-0.419Z" style="fill-rule:nonzero;"/>
                </g>
                <g transform="matrix(50,0,0,50,217.696,324.066)">
                    <path d="M0.082,-0L0.082,-0.486L0.164,-0.486L0.164,-0L0.082,-0ZM0.123,-0.586C0.107,-0.586 0.094,-0.591 0.084,-0.601C0.073,-0.611 0.068,-0.624 0.068,-0.64C0.068,-0.656 0.073,-0.669 0.084,-0.679C0.094,-0.689 0.107,-0.694 0.123,-0.694C0.139,-0.694 0.152,-0.689 0.163,-0.679C0.173,-0.669 0.178,-0.656 0.178,-0.64C0.178,-0.624 0.173,-0.611 0.163,-0.601C0.152,-0.591 0.139,-0.586 0.123,-0.586Z" style="fill-rule:nonzero;"/>
                </g>
                <g transform="matrix(50,0,0,50,230.01,324.066)">
                    <path d="M0.235,0.009C0.183,0.009 0.147,-0.006 0.127,-0.036C0.106,-0.066 0.096,-0.105 0.096,-0.153L0.096,-0.419L0.024,-0.419L0.024,-0.481L0.1,-0.486L0.11,-0.642L0.179,-0.642L0.179,-0.486L0.311,-0.486L0.311,-0.419L0.179,-0.419L0.179,-0.152C0.179,-0.122 0.184,-0.099 0.196,-0.083C0.207,-0.066 0.226,-0.058 0.254,-0.058C0.263,-0.058 0.272,-0.059 0.281,-0.061C0.29,-0.062 0.299,-0.066 0.309,-0.07L0.327,-0.012C0.314,-0.006 0.3,-0.001 0.284,0.003C0.268,0.007 0.252,0.009 0.235,0.009Z" style="fill-rule:nonzero;"/>
                </g>
                <g transform="matrix(50,0,0,50,246.919,324.066)">
                </g>
                <g transform="matrix(50,0,0,50,256.919,324.066)">
                    <path d="M0.082,-0L0.082,-0.486L0.15,-0.486L0.157,-0.416L0.16,-0.416C0.181,-0.439 0.204,-0.458 0.23,-0.474C0.255,-0.49 0.282,-0.498 0.311,-0.498C0.348,-0.498 0.378,-0.49 0.399,-0.473C0.42,-0.457 0.435,-0.434 0.445,-0.405C0.47,-0.433 0.496,-0.455 0.522,-0.473C0.548,-0.49 0.576,-0.498 0.605,-0.498C0.656,-0.498 0.693,-0.482 0.717,-0.45C0.741,-0.417 0.753,-0.37 0.753,-0.308L0.753,-0L0.671,-0L0.671,-0.297C0.671,-0.343 0.664,-0.376 0.649,-0.396C0.635,-0.416 0.612,-0.427 0.581,-0.427C0.562,-0.427 0.542,-0.421 0.523,-0.408C0.503,-0.396 0.481,-0.377 0.459,-0.352L0.459,-0L0.377,-0L0.377,-0.297C0.377,-0.343 0.369,-0.376 0.355,-0.396C0.34,-0.416 0.317,-0.427 0.286,-0.427C0.25,-0.427 0.209,-0.402 0.164,-0.352L0.164,-0L0.082,-0Z" style="fill-rule:nonzero;"/>
                </g>
                <g transform="matrix(50,0,0,50,298.36,324.066)">
                    <path d="M0.271,0.012C0.231,0.012 0.194,0.002 0.16,-0.018C0.126,-0.038 0.098,-0.067 0.077,-0.105C0.056,-0.143 0.046,-0.189 0.046,-0.242C0.046,-0.296 0.056,-0.343 0.077,-0.381C0.098,-0.419 0.126,-0.448 0.16,-0.468C0.194,-0.488 0.231,-0.498 0.271,-0.498C0.311,-0.498 0.348,-0.488 0.382,-0.468C0.416,-0.448 0.444,-0.419 0.465,-0.381C0.486,-0.343 0.496,-0.296 0.496,-0.242C0.496,-0.189 0.486,-0.143 0.465,-0.105C0.444,-0.067 0.416,-0.038 0.382,-0.018C0.348,0.002 0.311,0.012 0.271,0.012ZM0.271,-0.056C0.299,-0.056 0.324,-0.064 0.345,-0.08C0.366,-0.095 0.382,-0.117 0.394,-0.145C0.406,-0.173 0.411,-0.205 0.411,-0.242C0.411,-0.28 0.406,-0.312 0.394,-0.34C0.382,-0.368 0.366,-0.39 0.345,-0.406C0.324,-0.422 0.299,-0.43 0.271,-0.43C0.243,-0.43 0.219,-0.422 0.198,-0.406C0.177,-0.39 0.16,-0.368 0.149,-0.34C0.137,-0.312 0.131,-0.28 0.131,-0.242C0.131,-0.205 0.137,-0.173 0.149,-0.145C0.16,-0.117 0.177,-0.095 0.198,-0.08C0.219,-0.064 0.243,-0.056 0.271,-0.056Z" style="fill-rule:nonzero;"/>
                </g>
                <g transform="matrix(50,0,0,50,325.475,324.066)">
                    <path d="M0.248,0.012C0.187,0.012 0.138,-0.01 0.102,-0.055C0.066,-0.099 0.047,-0.162 0.047,-0.242C0.047,-0.295 0.057,-0.34 0.077,-0.378C0.097,-0.417 0.122,-0.446 0.154,-0.467C0.186,-0.488 0.221,-0.498 0.258,-0.498C0.286,-0.498 0.311,-0.493 0.332,-0.483C0.352,-0.473 0.373,-0.46 0.394,-0.442L0.39,-0.525L0.39,-0.712L0.473,-0.712L0.473,-0L0.405,-0L0.398,-0.057L0.395,-0.057C0.376,-0.039 0.354,-0.022 0.329,-0.009C0.304,0.005 0.277,0.012 0.248,0.012ZM0.266,-0.057C0.288,-0.057 0.31,-0.063 0.33,-0.074C0.35,-0.085 0.37,-0.102 0.39,-0.124L0.39,-0.378C0.37,-0.397 0.35,-0.41 0.331,-0.418C0.312,-0.425 0.292,-0.429 0.272,-0.429C0.246,-0.429 0.223,-0.421 0.202,-0.406C0.181,-0.39 0.164,-0.369 0.151,-0.341C0.139,-0.313 0.132,-0.28 0.132,-0.243C0.132,-0.185 0.144,-0.139 0.167,-0.107C0.19,-0.074 0.223,-0.057 0.266,-0.057Z" style="fill-rule:nonzero;"/>
                </g>
                <g transform="matrix(50,0,0,50,353.211,324.066)">
                    <path d="M0.279,0.012C0.236,0.012 0.196,0.002 0.161,-0.018C0.125,-0.039 0.097,-0.068 0.076,-0.106C0.056,-0.143 0.045,-0.189 0.045,-0.243C0.045,-0.296 0.056,-0.341 0.077,-0.379C0.098,-0.417 0.125,-0.447 0.159,-0.467C0.192,-0.488 0.228,-0.498 0.265,-0.498C0.306,-0.498 0.342,-0.489 0.371,-0.47C0.399,-0.451 0.421,-0.424 0.436,-0.39C0.451,-0.356 0.458,-0.316 0.458,-0.27C0.458,-0.262 0.458,-0.253 0.457,-0.245C0.457,-0.237 0.456,-0.229 0.454,-0.221L0.104,-0.221L0.104,-0.286L0.384,-0.286C0.384,-0.333 0.374,-0.369 0.354,-0.394C0.333,-0.419 0.304,-0.431 0.266,-0.431C0.244,-0.431 0.222,-0.425 0.201,-0.413C0.18,-0.4 0.162,-0.38 0.148,-0.353C0.135,-0.325 0.128,-0.289 0.128,-0.244C0.128,-0.202 0.135,-0.168 0.149,-0.14C0.164,-0.112 0.183,-0.091 0.208,-0.077C0.233,-0.062 0.26,-0.055 0.289,-0.055C0.312,-0.055 0.334,-0.059 0.354,-0.065C0.375,-0.072 0.393,-0.08 0.41,-0.092L0.44,-0.038C0.419,-0.023 0.395,-0.011 0.369,-0.002C0.342,0.007 0.312,0.012 0.279,0.012Z" style="fill-rule:nonzero;"/>
                </g>
                <g transform="matrix(50,0,0,50,378,324.066)">
                    <path d="M0.169,0.009C0.149,0.009 0.132,0.005 0.119,-0.003C0.106,-0.012 0.097,-0.024 0.091,-0.04C0.085,-0.057 0.082,-0.077 0.082,-0.1L0.082,-0.712L0.164,-0.712L0.164,-0.094C0.164,-0.081 0.166,-0.072 0.171,-0.067C0.176,-0.062 0.182,-0.059 0.188,-0.059C0.191,-0.059 0.193,-0.059 0.196,-0.06C0.198,-0.06 0.201,-0.061 0.205,-0.061L0.217,0.001C0.211,0.003 0.204,0.005 0.196,0.007C0.188,0.008 0.179,0.009 0.169,0.009Z" style="fill-rule:nonzero;"/>
                </g>
                <g transform="matrix(50,0,0,50,390.758,324.066)">
                </g>
            </g>
        </g>
    </g>
</svg>
