<?xml version="1.0" encoding="UTF-8" standalone="no"?>
<!DOCTYPE svg PUBLIC "-//W3C//DTD SVG 1.1//EN" "http://www.w3.org/Graphics/SVG/1.1/DTD/svg11.dtd">
<svg width="100%" height="100%" viewBox="0 0 1289 1482" version="1.1" xmlns="http://www.w3.org/2000/svg" xmlns:xlink="http://www.w3.org/1999/xlink" xml:space="preserve" xmlns:serif="http://www.serif.com/" style="fill-rule:evenodd;clip-rule:evenodd;stroke-linecap:round;stroke-linejoin:round;stroke-miterlimit:1.5;">
    <g transform="matrix(0.549385,0,0,0.549385,422.558,11.0802)">
        <path d="M290.115,197.684L290.115,1112.8L1336.51,1112.8" style="fill:none;stroke:black;stroke-width:30.34px;"/>
    </g>
    <g transform="matrix(0.538947,0.00144647,0.00144647,0.549184,436.51,36.3211)">
        <g transform="matrix(1.85548,-0.00488708,-0.00488708,1.8209,-809.758,-64.0037)">
            <path d="M1044.49,441.561L1114.98,494.89L1061.65,565.378" style="fill:none;stroke:black;stroke-width:16.67px;stroke-linejoin:miter;stroke-miterlimit:10;"/>
            <path d="M620.295,563.448C620.295,563.448 1039.21,505.39 1114.98,494.89" style="fill:none;stroke:black;stroke-width:16.67px;"/>
        </g>
    </g>
    <g transform="matrix(3.64204e-17,-0.59479,0.59479,3.64204e-17,325.702,452.33)">
        <g transform="matrix(107.506,0,0,107.506,-82.5422,370.046)">
            <path d="M0.159,-0L0.024,-0.486L0.11,-0.486L0.181,-0.205C0.186,-0.183 0.191,-0.161 0.196,-0.139C0.201,-0.117 0.205,-0.093 0.209,-0.067L0.213,-0.067C0.218,-0.093 0.223,-0.117 0.228,-0.139C0.233,-0.161 0.238,-0.183 0.244,-0.205L0.316,-0.486L0.406,-0.486L0.479,-0.205C0.485,-0.183 0.49,-0.161 0.496,-0.139C0.501,-0.117 0.506,-0.093 0.511,-0.067L0.515,-0.067C0.52,-0.093 0.525,-0.117 0.53,-0.139C0.534,-0.161 0.539,-0.183 0.544,-0.205L0.615,-0.486L0.695,-0.486L0.564,-0L0.457,-0L0.392,-0.26C0.387,-0.283 0.381,-0.305 0.377,-0.328C0.372,-0.35 0.367,-0.375 0.361,-0.404L0.357,-0.404C0.353,-0.375 0.348,-0.35 0.343,-0.327C0.338,-0.305 0.332,-0.282 0.326,-0.26L0.261,-0L0.159,-0Z" style="fill-rule:nonzero;"/>
        </g>
        <g transform="matrix(107.506,0,0,107.506,-5.71719,370.046)">
            <path d="M0.279,0.012C0.236,0.012 0.196,0.002 0.161,-0.018C0.125,-0.039 0.097,-0.068 0.076,-0.106C0.056,-0.143 0.045,-0.189 0.045,-0.243C0.045,-0.296 0.056,-0.341 0.077,-0.379C0.098,-0.417 0.125,-0.447 0.159,-0.467C0.192,-0.488 0.228,-0.498 0.265,-0.498C0.306,-0.498 0.342,-0.489 0.371,-0.47C0.399,-0.451 0.421,-0.424 0.436,-0.39C0.451,-0.356 0.458,-0.316 0.458,-0.27C0.458,-0.262 0.458,-0.253 0.457,-0.245C0.457,-0.237 0.456,-0.229 0.454,-0.221L0.104,-0.221L0.104,-0.286L0.384,-0.286C0.384,-0.333 0.374,-0.369 0.354,-0.394C0.333,-0.419 0.304,-0.431 0.266,-0.431C0.244,-0.431 0.222,-0.425 0.201,-0.413C0.18,-0.4 0.162,-0.38 0.148,-0.353C0.135,-0.325 0.128,-0.289 0.128,-0.244C0.128,-0.202 0.135,-0.168 0.149,-0.14C0.164,-0.112 0.183,-0.091 0.208,-0.077C0.233,-0.062 0.26,-0.055 0.289,-0.055C0.312,-0.055 0.334,-0.059 0.354,-0.065C0.375,-0.072 0.393,-0.08 0.41,-0.092L0.44,-0.038C0.419,-0.023 0.395,-0.011 0.369,-0.002C0.342,0.007 0.312,0.012 0.279,0.012Z" style="fill-rule:nonzero;"/>
        </g>
        <g transform="matrix(107.506,0,0,107.506,47.5827,370.046)">
            <path d="M0.169,0.009C0.149,0.009 0.132,0.005 0.119,-0.003C0.106,-0.012 0.097,-0.024 0.091,-0.04C0.085,-0.057 0.082,-0.077 0.082,-0.1L0.082,-0.712L0.164,-0.712L0.164,-0.094C0.164,-0.081 0.166,-0.072 0.171,-0.067C0.176,-0.062 0.182,-0.059 0.188,-0.059C0.191,-0.059 0.193,-0.059 0.196,-0.06C0.198,-0.06 0.201,-0.061 0.205,-0.061L0.217,0.001C0.211,0.003 0.204,0.005 0.196,0.007C0.188,0.008 0.179,0.009 0.169,0.009Z" style="fill-rule:nonzero;"/>
        </g>
        <g transform="matrix(107.506,0,0,107.506,75.0124,370.046)">
            <path d="M0.169,0.009C0.149,0.009 0.132,0.005 0.119,-0.003C0.106,-0.012 0.097,-0.024 0.091,-0.04C0.085,-0.057 0.082,-0.077 0.082,-0.1L0.082,-0.712L0.164,-0.712L0.164,-0.094C0.164,-0.081 0.166,-0.072 0.171,-0.067C0.176,-0.062 0.182,-0.059 0.188,-0.059C0.191,-0.059 0.193,-0.059 0.196,-0.06C0.198,-0.06 0.201,-0.061 0.205,-0.061L0.217,0.001C0.211,0.003 0.204,0.005 0.196,0.007C0.188,0.008 0.179,0.009 0.169,0.009Z" style="fill-rule:nonzero;"/>
        </g>
        <g transform="matrix(107.506,0,0,107.506,102.442,370.046)">
            <path d="M0.297,0.012C0.274,0.012 0.251,0.007 0.227,-0.005C0.203,-0.016 0.18,-0.031 0.158,-0.05L0.155,-0.05L0.148,-0L0.082,-0L0.082,-0.712L0.164,-0.712L0.164,-0.518L0.162,-0.43C0.184,-0.45 0.208,-0.466 0.234,-0.479C0.261,-0.492 0.287,-0.498 0.314,-0.498C0.356,-0.498 0.391,-0.488 0.42,-0.468C0.449,-0.447 0.471,-0.418 0.485,-0.381C0.5,-0.344 0.507,-0.301 0.507,-0.251C0.507,-0.196 0.497,-0.148 0.478,-0.109C0.458,-0.07 0.432,-0.04 0.4,-0.019C0.368,0.002 0.334,0.012 0.297,0.012ZM0.283,-0.057C0.309,-0.057 0.333,-0.065 0.354,-0.08C0.375,-0.096 0.392,-0.118 0.404,-0.147C0.416,-0.175 0.422,-0.21 0.422,-0.25C0.422,-0.285 0.418,-0.317 0.409,-0.344C0.401,-0.371 0.387,-0.392 0.368,-0.406C0.349,-0.421 0.325,-0.429 0.294,-0.429C0.274,-0.429 0.253,-0.423 0.231,-0.412C0.21,-0.401 0.187,-0.385 0.164,-0.363L0.164,-0.108C0.186,-0.089 0.207,-0.076 0.228,-0.069C0.249,-0.061 0.267,-0.057 0.283,-0.057Z" style="fill-rule:nonzero;"/>
        </g>
        <g transform="matrix(107.506,0,0,107.506,161.942,370.046)">
            <path d="M0.279,0.012C0.236,0.012 0.196,0.002 0.161,-0.018C0.125,-0.039 0.097,-0.068 0.076,-0.106C0.056,-0.143 0.045,-0.189 0.045,-0.243C0.045,-0.296 0.056,-0.341 0.077,-0.379C0.098,-0.417 0.125,-0.447 0.159,-0.467C0.192,-0.488 0.228,-0.498 0.265,-0.498C0.306,-0.498 0.342,-0.489 0.371,-0.47C0.399,-0.451 0.421,-0.424 0.436,-0.39C0.451,-0.356 0.458,-0.316 0.458,-0.27C0.458,-0.262 0.458,-0.253 0.457,-0.245C0.457,-0.237 0.456,-0.229 0.454,-0.221L0.104,-0.221L0.104,-0.286L0.384,-0.286C0.384,-0.333 0.374,-0.369 0.354,-0.394C0.333,-0.419 0.304,-0.431 0.266,-0.431C0.244,-0.431 0.222,-0.425 0.201,-0.413C0.18,-0.4 0.162,-0.38 0.148,-0.353C0.135,-0.325 0.128,-0.289 0.128,-0.244C0.128,-0.202 0.135,-0.168 0.149,-0.14C0.164,-0.112 0.183,-0.091 0.208,-0.077C0.233,-0.062 0.26,-0.055 0.289,-0.055C0.312,-0.055 0.334,-0.059 0.354,-0.065C0.375,-0.072 0.393,-0.08 0.41,-0.092L0.44,-0.038C0.419,-0.023 0.395,-0.011 0.369,-0.002C0.342,0.007 0.312,0.012 0.279,0.012Z" style="fill-rule:nonzero;"/>
        </g>
        <g transform="matrix(107.506,0,0,107.506,215.242,370.046)">
            <path d="M0.082,-0L0.082,-0.486L0.164,-0.486L0.164,-0L0.082,-0ZM0.123,-0.586C0.107,-0.586 0.094,-0.591 0.084,-0.601C0.073,-0.611 0.068,-0.624 0.068,-0.64C0.068,-0.656 0.073,-0.669 0.084,-0.679C0.094,-0.689 0.107,-0.694 0.123,-0.694C0.139,-0.694 0.152,-0.689 0.163,-0.679C0.173,-0.669 0.178,-0.656 0.178,-0.64C0.178,-0.624 0.173,-0.611 0.163,-0.601C0.152,-0.591 0.139,-0.586 0.123,-0.586Z" style="fill-rule:nonzero;"/>
        </g>
        <g transform="matrix(107.506,0,0,107.506,241.719,370.046)">
            <path d="M0.082,-0L0.082,-0.486L0.15,-0.486L0.157,-0.416L0.16,-0.416C0.183,-0.439 0.208,-0.459 0.234,-0.474C0.26,-0.49 0.29,-0.498 0.323,-0.498C0.374,-0.498 0.412,-0.482 0.436,-0.45C0.459,-0.417 0.471,-0.37 0.471,-0.308L0.471,-0L0.389,-0L0.389,-0.297C0.389,-0.343 0.382,-0.376 0.367,-0.396C0.353,-0.416 0.33,-0.427 0.297,-0.427C0.272,-0.427 0.25,-0.42 0.231,-0.408C0.211,-0.395 0.189,-0.377 0.164,-0.352L0.164,-0L0.082,-0Z" style="fill-rule:nonzero;"/>
        </g>
        <g transform="matrix(107.506,0,0,107.506,300.482,370.046)">
            <path d="M0.246,0.224C0.207,0.224 0.172,0.219 0.141,0.208C0.111,0.198 0.087,0.183 0.071,0.164C0.054,0.145 0.045,0.121 0.045,0.093C0.045,0.072 0.051,0.052 0.064,0.034C0.077,0.015 0.094,-0.002 0.116,-0.017L0.116,-0.021C0.104,-0.029 0.094,-0.039 0.086,-0.052C0.077,-0.065 0.073,-0.081 0.073,-0.1C0.073,-0.12 0.079,-0.138 0.09,-0.154C0.102,-0.17 0.114,-0.182 0.126,-0.19L0.126,-0.194C0.111,-0.207 0.096,-0.225 0.083,-0.248C0.07,-0.271 0.063,-0.296 0.063,-0.325C0.063,-0.36 0.072,-0.391 0.089,-0.417C0.105,-0.443 0.128,-0.463 0.155,-0.477C0.183,-0.491 0.213,-0.498 0.246,-0.498C0.259,-0.498 0.272,-0.497 0.284,-0.495C0.296,-0.493 0.306,-0.49 0.315,-0.486L0.484,-0.486L0.484,-0.423L0.383,-0.423L0.383,-0.419C0.395,-0.408 0.404,-0.395 0.412,-0.379C0.42,-0.363 0.424,-0.344 0.424,-0.322C0.424,-0.288 0.416,-0.258 0.4,-0.233C0.384,-0.208 0.363,-0.188 0.336,-0.175C0.309,-0.161 0.279,-0.154 0.246,-0.154C0.234,-0.154 0.222,-0.156 0.209,-0.159C0.197,-0.161 0.185,-0.165 0.173,-0.171C0.165,-0.163 0.158,-0.156 0.152,-0.147C0.146,-0.138 0.143,-0.127 0.143,-0.113C0.143,-0.098 0.149,-0.085 0.161,-0.075C0.173,-0.065 0.195,-0.061 0.228,-0.061L0.322,-0.061C0.379,-0.061 0.422,-0.051 0.45,-0.033C0.478,-0.014 0.492,0.015 0.492,0.056C0.492,0.086 0.482,0.113 0.462,0.139C0.442,0.164 0.413,0.185 0.377,0.2C0.34,0.216 0.296,0.224 0.246,0.224ZM0.246,-0.209C0.265,-0.209 0.282,-0.214 0.297,-0.224C0.313,-0.233 0.325,-0.246 0.335,-0.264C0.344,-0.281 0.349,-0.301 0.349,-0.325C0.349,-0.361 0.339,-0.389 0.319,-0.409C0.299,-0.429 0.275,-0.438 0.246,-0.438C0.217,-0.438 0.193,-0.429 0.173,-0.409C0.153,-0.389 0.143,-0.361 0.143,-0.325C0.143,-0.301 0.147,-0.281 0.157,-0.264C0.166,-0.246 0.179,-0.233 0.195,-0.224C0.21,-0.214 0.227,-0.209 0.246,-0.209ZM0.258,0.167C0.289,0.167 0.316,0.162 0.339,0.153C0.361,0.144 0.379,0.131 0.392,0.116C0.405,0.101 0.412,0.085 0.412,0.068C0.412,0.045 0.403,0.03 0.386,0.021C0.37,0.012 0.345,0.008 0.314,0.008L0.23,0.008C0.221,0.008 0.211,0.007 0.2,0.006C0.189,0.005 0.178,0.003 0.167,0C0.149,0.013 0.137,0.026 0.129,0.04C0.121,0.054 0.117,0.068 0.117,0.082C0.117,0.108 0.129,0.129 0.155,0.144C0.18,0.159 0.214,0.167 0.258,0.167Z" style="fill-rule:nonzero;"/>
        </g>
        <g transform="matrix(107.506,0,0,107.506,354.696,370.046)">
        </g>
    </g>
    <g transform="matrix(0.59479,0,0,0.59479,766.811,463.062)">
        <g transform="matrix(107.506,0,0,107.506,-123.907,370.046)">
            <path d="M0.271,0.012C0.231,0.012 0.194,0.002 0.16,-0.018C0.126,-0.038 0.098,-0.067 0.077,-0.105C0.056,-0.143 0.046,-0.189 0.046,-0.242C0.046,-0.296 0.056,-0.343 0.077,-0.381C0.098,-0.419 0.126,-0.448 0.16,-0.468C0.194,-0.488 0.231,-0.498 0.271,-0.498C0.311,-0.498 0.348,-0.488 0.382,-0.468C0.416,-0.448 0.444,-0.419 0.465,-0.381C0.486,-0.343 0.496,-0.296 0.496,-0.242C0.496,-0.189 0.486,-0.143 0.465,-0.105C0.444,-0.067 0.416,-0.038 0.382,-0.018C0.348,0.002 0.311,0.012 0.271,0.012ZM0.271,-0.056C0.299,-0.056 0.324,-0.064 0.345,-0.08C0.366,-0.095 0.382,-0.117 0.394,-0.145C0.406,-0.173 0.411,-0.205 0.411,-0.242C0.411,-0.28 0.406,-0.312 0.394,-0.34C0.382,-0.368 0.366,-0.39 0.345,-0.406C0.324,-0.422 0.299,-0.43 0.271,-0.43C0.243,-0.43 0.219,-0.422 0.198,-0.406C0.177,-0.39 0.16,-0.368 0.149,-0.34C0.137,-0.312 0.131,-0.28 0.131,-0.242C0.131,-0.205 0.137,-0.173 0.149,-0.145C0.16,-0.117 0.177,-0.095 0.198,-0.08C0.219,-0.064 0.243,-0.056 0.271,-0.056Z" style="fill-rule:nonzero;"/>
        </g>
        <g transform="matrix(107.506,0,0,107.506,-65.6058,370.046)">
            <path d="M0.224,0.012C0.173,0.012 0.135,-0.004 0.112,-0.036C0.088,-0.069 0.076,-0.116 0.076,-0.178L0.076,-0.486L0.158,-0.486L0.158,-0.189C0.158,-0.143 0.165,-0.111 0.18,-0.09C0.194,-0.07 0.217,-0.06 0.249,-0.06C0.274,-0.06 0.296,-0.066 0.316,-0.079C0.335,-0.092 0.357,-0.113 0.38,-0.141L0.38,-0.486L0.462,-0.486L0.462,-0L0.394,-0L0.387,-0.076L0.384,-0.076C0.362,-0.049 0.338,-0.028 0.312,-0.012C0.287,0.004 0.257,0.012 0.224,0.012Z" style="fill-rule:nonzero;"/>
        </g>
        <g transform="matrix(107.506,0,0,107.506,-7.16284,370.046)">
            <path d="M0.235,0.009C0.183,0.009 0.147,-0.006 0.127,-0.036C0.106,-0.066 0.096,-0.105 0.096,-0.153L0.096,-0.419L0.024,-0.419L0.024,-0.481L0.1,-0.486L0.11,-0.642L0.179,-0.642L0.179,-0.486L0.311,-0.486L0.311,-0.419L0.179,-0.419L0.179,-0.152C0.179,-0.122 0.184,-0.099 0.196,-0.083C0.207,-0.066 0.226,-0.058 0.254,-0.058C0.263,-0.058 0.272,-0.059 0.281,-0.061C0.29,-0.062 0.299,-0.066 0.309,-0.07L0.327,-0.012C0.314,-0.006 0.3,-0.001 0.284,0.003C0.268,0.007 0.252,0.009 0.235,0.009Z" style="fill-rule:nonzero;"/>
        </g>
        <g transform="matrix(107.506,0,0,107.506,27.6891,370.046)">
            <path d="M0.248,0.012C0.187,0.012 0.138,-0.01 0.102,-0.055C0.066,-0.099 0.047,-0.162 0.047,-0.242C0.047,-0.295 0.057,-0.34 0.077,-0.378C0.097,-0.417 0.122,-0.446 0.154,-0.467C0.186,-0.488 0.221,-0.498 0.258,-0.498C0.286,-0.498 0.311,-0.493 0.332,-0.483C0.352,-0.473 0.373,-0.46 0.394,-0.442L0.39,-0.525L0.39,-0.712L0.473,-0.712L0.473,-0L0.405,-0L0.398,-0.057L0.395,-0.057C0.376,-0.039 0.354,-0.022 0.329,-0.009C0.304,0.005 0.277,0.012 0.248,0.012ZM0.266,-0.057C0.288,-0.057 0.31,-0.063 0.33,-0.074C0.35,-0.085 0.37,-0.102 0.39,-0.124L0.39,-0.378C0.37,-0.397 0.35,-0.41 0.331,-0.418C0.312,-0.425 0.292,-0.429 0.272,-0.429C0.246,-0.429 0.223,-0.421 0.202,-0.406C0.181,-0.39 0.164,-0.369 0.151,-0.341C0.139,-0.313 0.132,-0.28 0.132,-0.243C0.132,-0.185 0.144,-0.139 0.167,-0.107C0.19,-0.074 0.223,-0.057 0.266,-0.057Z" style="fill-rule:nonzero;"/>
        </g>
        <g transform="matrix(107.506,0,0,107.506,87.3246,370.046)">
            <path d="M0.271,0.012C0.231,0.012 0.194,0.002 0.16,-0.018C0.126,-0.038 0.098,-0.067 0.077,-0.105C0.056,-0.143 0.046,-0.189 0.046,-0.242C0.046,-0.296 0.056,-0.343 0.077,-0.381C0.098,-0.419 0.126,-0.448 0.16,-0.468C0.194,-0.488 0.231,-0.498 0.271,-0.498C0.311,-0.498 0.348,-0.488 0.382,-0.468C0.416,-0.448 0.444,-0.419 0.465,-0.381C0.486,-0.343 0.496,-0.296 0.496,-0.242C0.496,-0.189 0.486,-0.143 0.465,-0.105C0.444,-0.067 0.416,-0.038 0.382,-0.018C0.348,0.002 0.311,0.012 0.271,0.012ZM0.271,-0.056C0.299,-0.056 0.324,-0.064 0.345,-0.08C0.366,-0.095 0.382,-0.117 0.394,-0.145C0.406,-0.173 0.411,-0.205 0.411,-0.242C0.411,-0.28 0.406,-0.312 0.394,-0.34C0.382,-0.368 0.366,-0.39 0.345,-0.406C0.324,-0.422 0.299,-0.43 0.271,-0.43C0.243,-0.43 0.219,-0.422 0.198,-0.406C0.177,-0.39 0.16,-0.368 0.149,-0.34C0.137,-0.312 0.131,-0.28 0.131,-0.242C0.131,-0.205 0.137,-0.173 0.149,-0.145C0.16,-0.117 0.177,-0.095 0.198,-0.08C0.219,-0.064 0.243,-0.056 0.271,-0.056Z" style="fill-rule:nonzero;"/>
        </g>
        <g transform="matrix(107.506,0,0,107.506,145.625,370.046)">
            <path d="M0.271,0.012C0.231,0.012 0.194,0.002 0.16,-0.018C0.126,-0.038 0.098,-0.067 0.077,-0.105C0.056,-0.143 0.046,-0.189 0.046,-0.242C0.046,-0.296 0.056,-0.343 0.077,-0.381C0.098,-0.419 0.126,-0.448 0.16,-0.468C0.194,-0.488 0.231,-0.498 0.271,-0.498C0.311,-0.498 0.348,-0.488 0.382,-0.468C0.416,-0.448 0.444,-0.419 0.465,-0.381C0.486,-0.343 0.496,-0.296 0.496,-0.242C0.496,-0.189 0.486,-0.143 0.465,-0.105C0.444,-0.067 0.416,-0.038 0.382,-0.018C0.348,0.002 0.311,0.012 0.271,0.012ZM0.271,-0.056C0.299,-0.056 0.324,-0.064 0.345,-0.08C0.366,-0.095 0.382,-0.117 0.394,-0.145C0.406,-0.173 0.411,-0.205 0.411,-0.242C0.411,-0.28 0.406,-0.312 0.394,-0.34C0.382,-0.368 0.366,-0.39 0.345,-0.406C0.324,-0.422 0.299,-0.43 0.271,-0.43C0.243,-0.43 0.219,-0.422 0.198,-0.406C0.177,-0.39 0.16,-0.368 0.149,-0.34C0.137,-0.312 0.131,-0.28 0.131,-0.242C0.131,-0.205 0.137,-0.173 0.149,-0.145C0.16,-0.117 0.177,-0.095 0.198,-0.08C0.219,-0.064 0.243,-0.056 0.271,-0.056Z" style="fill-rule:nonzero;"/>
        </g>
        <g transform="matrix(107.506,0,0,107.506,203.926,370.046)">
            <path d="M0.082,-0L0.082,-0.486L0.15,-0.486L0.157,-0.398L0.16,-0.398C0.176,-0.429 0.196,-0.453 0.22,-0.471C0.244,-0.489 0.27,-0.498 0.298,-0.498C0.309,-0.498 0.318,-0.497 0.326,-0.496C0.334,-0.494 0.342,-0.492 0.35,-0.488L0.332,-0.418C0.325,-0.42 0.318,-0.421 0.312,-0.422C0.305,-0.423 0.297,-0.424 0.287,-0.424C0.267,-0.424 0.245,-0.416 0.223,-0.399C0.2,-0.383 0.181,-0.354 0.164,-0.312L0.164,-0L0.082,-0Z" style="fill-rule:nonzero;"/>
        </g>
        <g transform="matrix(107.506,0,0,107.506,241.254,370.046)">
        </g>
        <g transform="matrix(107.506,0,0,107.506,262.755,370.046)">
            <path d="M0.235,0.009C0.183,0.009 0.147,-0.006 0.127,-0.036C0.106,-0.066 0.096,-0.105 0.096,-0.153L0.096,-0.419L0.024,-0.419L0.024,-0.481L0.1,-0.486L0.11,-0.642L0.179,-0.642L0.179,-0.486L0.311,-0.486L0.311,-0.419L0.179,-0.419L0.179,-0.152C0.179,-0.122 0.184,-0.099 0.196,-0.083C0.207,-0.066 0.226,-0.058 0.254,-0.058C0.263,-0.058 0.272,-0.059 0.281,-0.061C0.29,-0.062 0.299,-0.066 0.309,-0.07L0.327,-0.012C0.314,-0.006 0.3,-0.001 0.284,0.003C0.268,0.007 0.252,0.009 0.235,0.009Z" style="fill-rule:nonzero;"/>
        </g>
        <g transform="matrix(107.506,0,0,107.506,299.112,370.046)">
            <path d="M0.082,-0L0.082,-0.486L0.164,-0.486L0.164,-0L0.082,-0ZM0.123,-0.586C0.107,-0.586 0.094,-0.591 0.084,-0.601C0.073,-0.611 0.068,-0.624 0.068,-0.64C0.068,-0.656 0.073,-0.669 0.084,-0.679C0.094,-0.689 0.107,-0.694 0.123,-0.694C0.139,-0.694 0.152,-0.689 0.163,-0.679C0.173,-0.669 0.178,-0.656 0.178,-0.64C0.178,-0.624 0.173,-0.611 0.163,-0.601C0.152,-0.591 0.139,-0.586 0.123,-0.586Z" style="fill-rule:nonzero;"/>
        </g>
        <g transform="matrix(107.506,0,0,107.506,325.589,370.046)">
            <path d="M0.082,-0L0.082,-0.486L0.15,-0.486L0.157,-0.416L0.16,-0.416C0.181,-0.439 0.204,-0.458 0.23,-0.474C0.255,-0.49 0.282,-0.498 0.311,-0.498C0.348,-0.498 0.378,-0.49 0.399,-0.473C0.42,-0.457 0.435,-0.434 0.445,-0.405C0.47,-0.433 0.496,-0.455 0.522,-0.473C0.548,-0.49 0.576,-0.498 0.605,-0.498C0.656,-0.498 0.693,-0.482 0.717,-0.45C0.741,-0.417 0.753,-0.37 0.753,-0.308L0.753,-0L0.671,-0L0.671,-0.297C0.671,-0.343 0.664,-0.376 0.649,-0.396C0.635,-0.416 0.612,-0.427 0.581,-0.427C0.562,-0.427 0.542,-0.421 0.523,-0.408C0.503,-0.396 0.481,-0.377 0.459,-0.352L0.459,-0L0.377,-0L0.377,-0.297C0.377,-0.343 0.369,-0.376 0.355,-0.396C0.34,-0.416 0.317,-0.427 0.286,-0.427C0.25,-0.427 0.209,-0.402 0.164,-0.352L0.164,-0L0.082,-0Z" style="fill-rule:nonzero;"/>
        </g>
        <g transform="matrix(107.506,0,0,107.506,414.691,370.046)">
            <path d="M0.279,0.012C0.236,0.012 0.196,0.002 0.161,-0.018C0.125,-0.039 0.097,-0.068 0.076,-0.106C0.056,-0.143 0.045,-0.189 0.045,-0.243C0.045,-0.296 0.056,-0.341 0.077,-0.379C0.098,-0.417 0.125,-0.447 0.159,-0.467C0.192,-0.488 0.228,-0.498 0.265,-0.498C0.306,-0.498 0.342,-0.489 0.371,-0.47C0.399,-0.451 0.421,-0.424 0.436,-0.39C0.451,-0.356 0.458,-0.316 0.458,-0.27C0.458,-0.262 0.458,-0.253 0.457,-0.245C0.457,-0.237 0.456,-0.229 0.454,-0.221L0.104,-0.221L0.104,-0.286L0.384,-0.286C0.384,-0.333 0.374,-0.369 0.354,-0.394C0.333,-0.419 0.304,-0.431 0.266,-0.431C0.244,-0.431 0.222,-0.425 0.201,-0.413C0.18,-0.4 0.162,-0.38 0.148,-0.353C0.135,-0.325 0.128,-0.289 0.128,-0.244C0.128,-0.202 0.135,-0.168 0.149,-0.14C0.164,-0.112 0.183,-0.091 0.208,-0.077C0.233,-0.062 0.26,-0.055 0.289,-0.055C0.312,-0.055 0.334,-0.059 0.354,-0.065C0.375,-0.072 0.393,-0.08 0.41,-0.092L0.44,-0.038C0.419,-0.023 0.395,-0.011 0.369,-0.002C0.342,0.007 0.312,0.012 0.279,0.012Z" style="fill-rule:nonzero;"/>
        </g>
        <g transform="matrix(107.506,0,0,107.506,467.991,370.046)">
        </g>
    </g>
    <g transform="matrix(0.59479,0,0,0.59479,-25.3739,-173.869)">
        <g transform="matrix(107.506,0,0,107.506,34.3991,370.046)">
            <rect x="0.077" y="-0.652" width="0.147" height="0.652" style="fill-rule:nonzero;"/>
        </g>
        <g transform="matrix(107.506,0,0,107.506,66.7625,370.046)">
            <path d="M0.065,-0L0.065,-0.496L0.185,-0.496L0.195,-0.433L0.199,-0.433C0.22,-0.454 0.243,-0.471 0.269,-0.486C0.295,-0.501 0.325,-0.508 0.358,-0.508C0.413,-0.508 0.452,-0.49 0.476,-0.455C0.5,-0.419 0.512,-0.37 0.512,-0.308L0.512,-0L0.365,-0L0.365,-0.289C0.365,-0.325 0.36,-0.349 0.351,-0.363C0.341,-0.376 0.325,-0.383 0.304,-0.383C0.285,-0.383 0.269,-0.379 0.256,-0.37C0.243,-0.362 0.228,-0.35 0.212,-0.335L0.212,-0L0.065,-0Z" style="fill-rule:nonzero;"/>
        </g>
        <g transform="matrix(107.506,0,0,107.506,128.271,370.046)">
        </g>
        <g transform="matrix(107.506,0,0,107.506,149.772,370.046)">
            <path d="M0.19,0.012C0.16,0.012 0.133,0.005 0.111,-0.008C0.089,-0.021 0.072,-0.039 0.06,-0.062C0.048,-0.084 0.042,-0.11 0.042,-0.138C0.042,-0.191 0.064,-0.232 0.108,-0.261C0.152,-0.291 0.223,-0.31 0.321,-0.32C0.32,-0.335 0.317,-0.347 0.312,-0.357C0.306,-0.368 0.298,-0.376 0.286,-0.382C0.275,-0.387 0.261,-0.39 0.243,-0.39C0.222,-0.39 0.201,-0.386 0.18,-0.379C0.158,-0.372 0.136,-0.361 0.111,-0.347L0.059,-0.443C0.08,-0.456 0.102,-0.468 0.125,-0.477C0.148,-0.487 0.171,-0.495 0.196,-0.5C0.22,-0.505 0.245,-0.508 0.271,-0.508C0.314,-0.508 0.349,-0.5 0.378,-0.484C0.408,-0.467 0.43,-0.442 0.445,-0.409C0.461,-0.376 0.468,-0.334 0.468,-0.283L0.468,-0L0.348,-0L0.338,-0.051L0.334,-0.051C0.313,-0.032 0.29,-0.017 0.267,-0.006C0.244,0.006 0.218,0.012 0.19,0.012ZM0.239,-0.103C0.256,-0.103 0.271,-0.107 0.283,-0.114C0.296,-0.121 0.309,-0.131 0.321,-0.144L0.321,-0.228C0.286,-0.224 0.259,-0.218 0.239,-0.21C0.218,-0.202 0.204,-0.194 0.196,-0.183C0.187,-0.173 0.183,-0.162 0.183,-0.149C0.183,-0.134 0.188,-0.122 0.198,-0.115C0.209,-0.107 0.222,-0.103 0.239,-0.103Z" style="fill-rule:nonzero;"/>
        </g>
        <g transform="matrix(107.506,0,0,107.506,206.449,370.046)">
            <path d="M0.065,-0L0.065,-0.496L0.185,-0.496L0.195,-0.433L0.199,-0.433C0.22,-0.454 0.243,-0.471 0.269,-0.486C0.295,-0.501 0.325,-0.508 0.358,-0.508C0.413,-0.508 0.452,-0.49 0.476,-0.455C0.5,-0.419 0.512,-0.37 0.512,-0.308L0.512,-0L0.365,-0L0.365,-0.289C0.365,-0.325 0.36,-0.349 0.351,-0.363C0.341,-0.376 0.325,-0.383 0.304,-0.383C0.285,-0.383 0.269,-0.379 0.256,-0.37C0.243,-0.362 0.228,-0.35 0.212,-0.335L0.212,-0L0.065,-0Z" style="fill-rule:nonzero;"/>
        </g>
        <g transform="matrix(107.506,0,0,107.506,267.958,370.046)">
        </g>
        <g transform="matrix(107.506,0,0,107.506,289.459,370.046)">
            <path d="M0.214,0.012C0.16,0.012 0.121,-0.006 0.097,-0.042C0.072,-0.077 0.06,-0.126 0.06,-0.188L0.06,-0.496L0.207,-0.496L0.207,-0.207C0.207,-0.171 0.212,-0.147 0.222,-0.133C0.232,-0.12 0.247,-0.113 0.269,-0.113C0.287,-0.113 0.303,-0.118 0.316,-0.126C0.329,-0.134 0.343,-0.148 0.357,-0.168L0.357,-0.496L0.504,-0.496L0.504,-0L0.384,-0L0.373,-0.069L0.37,-0.069C0.349,-0.044 0.326,-0.024 0.302,-0.01C0.277,0.005 0.248,0.012 0.214,0.012Z" style="fill-rule:nonzero;"/>
        </g>
        <g transform="matrix(107.506,0,0,107.506,350.557,370.046)">
            <path d="M0.065,-0L0.065,-0.496L0.185,-0.496L0.195,-0.409L0.199,-0.409C0.217,-0.443 0.239,-0.467 0.264,-0.484C0.289,-0.5 0.314,-0.508 0.34,-0.508C0.354,-0.508 0.366,-0.507 0.375,-0.506C0.384,-0.504 0.392,-0.502 0.399,-0.498L0.371,-0.373C0.363,-0.375 0.355,-0.377 0.348,-0.378C0.341,-0.379 0.332,-0.379 0.321,-0.379C0.302,-0.379 0.283,-0.372 0.262,-0.359C0.242,-0.345 0.225,-0.322 0.212,-0.288L0.212,-0L0.065,-0Z" style="fill-rule:nonzero;"/>
        </g>
        <g transform="matrix(107.506,0,0,107.506,393.375,370.046)">
            <path d="M0.325,0.012C0.303,0.012 0.281,0.007 0.259,-0.005C0.237,-0.016 0.216,-0.032 0.196,-0.053L0.192,-0.053L0.18,-0L0.065,-0L0.065,-0.701L0.212,-0.701L0.212,-0.529L0.208,-0.453C0.227,-0.47 0.247,-0.484 0.27,-0.493C0.293,-0.503 0.316,-0.508 0.339,-0.508C0.379,-0.508 0.414,-0.498 0.443,-0.477C0.472,-0.456 0.495,-0.427 0.51,-0.389C0.526,-0.352 0.534,-0.308 0.534,-0.257C0.534,-0.2 0.524,-0.151 0.504,-0.111C0.484,-0.071 0.458,-0.04 0.426,-0.019C0.395,0.002 0.361,0.012 0.325,0.012ZM0.291,-0.108C0.308,-0.108 0.323,-0.113 0.338,-0.123C0.352,-0.133 0.363,-0.149 0.371,-0.171C0.379,-0.192 0.383,-0.22 0.383,-0.254C0.383,-0.284 0.38,-0.309 0.374,-0.328C0.367,-0.348 0.358,-0.363 0.345,-0.373C0.333,-0.383 0.317,-0.388 0.297,-0.388C0.282,-0.388 0.268,-0.384 0.254,-0.377C0.24,-0.371 0.226,-0.359 0.212,-0.343L0.212,-0.14C0.225,-0.128 0.238,-0.12 0.252,-0.115C0.266,-0.111 0.279,-0.108 0.291,-0.108Z" style="fill-rule:nonzero;"/>
        </g>
        <g transform="matrix(107.506,0,0,107.506,453.751,370.046)">
            <path d="M0.19,0.012C0.16,0.012 0.133,0.005 0.111,-0.008C0.089,-0.021 0.072,-0.039 0.06,-0.062C0.048,-0.084 0.042,-0.11 0.042,-0.138C0.042,-0.191 0.064,-0.232 0.108,-0.261C0.152,-0.291 0.223,-0.31 0.321,-0.32C0.32,-0.335 0.317,-0.347 0.312,-0.357C0.306,-0.368 0.298,-0.376 0.286,-0.382C0.275,-0.387 0.261,-0.39 0.243,-0.39C0.222,-0.39 0.201,-0.386 0.18,-0.379C0.158,-0.372 0.136,-0.361 0.111,-0.347L0.059,-0.443C0.08,-0.456 0.102,-0.468 0.125,-0.477C0.148,-0.487 0.171,-0.495 0.196,-0.5C0.22,-0.505 0.245,-0.508 0.271,-0.508C0.314,-0.508 0.349,-0.5 0.378,-0.484C0.408,-0.467 0.43,-0.442 0.445,-0.409C0.461,-0.376 0.468,-0.334 0.468,-0.283L0.468,-0L0.348,-0L0.338,-0.051L0.334,-0.051C0.313,-0.032 0.29,-0.017 0.267,-0.006C0.244,0.006 0.218,0.012 0.19,0.012ZM0.239,-0.103C0.256,-0.103 0.271,-0.107 0.283,-0.114C0.296,-0.121 0.309,-0.131 0.321,-0.144L0.321,-0.228C0.286,-0.224 0.259,-0.218 0.239,-0.21C0.218,-0.202 0.204,-0.194 0.196,-0.183C0.187,-0.173 0.183,-0.162 0.183,-0.149C0.183,-0.134 0.188,-0.122 0.198,-0.115C0.209,-0.107 0.222,-0.103 0.239,-0.103Z" style="fill-rule:nonzero;"/>
        </g>
        <g transform="matrix(107.506,0,0,107.506,510.428,370.046)">
            <path d="M0.065,-0L0.065,-0.496L0.185,-0.496L0.195,-0.433L0.199,-0.433C0.22,-0.454 0.243,-0.471 0.269,-0.486C0.295,-0.501 0.325,-0.508 0.358,-0.508C0.413,-0.508 0.452,-0.49 0.476,-0.455C0.5,-0.419 0.512,-0.37 0.512,-0.308L0.512,-0L0.365,-0L0.365,-0.289C0.365,-0.325 0.36,-0.349 0.351,-0.363C0.341,-0.376 0.325,-0.383 0.304,-0.383C0.285,-0.383 0.269,-0.379 0.256,-0.37C0.243,-0.362 0.228,-0.35 0.212,-0.335L0.212,-0L0.065,-0Z" style="fill-rule:nonzero;"/>
        </g>
        <g transform="matrix(107.506,0,0,107.506,571.936,370.046)">
        </g>
        <g transform="matrix(107.506,0,0,107.506,593.437,370.046)">
            <path d="M0.287,0.012C0.24,0.012 0.197,0.002 0.159,-0.019C0.121,-0.039 0.091,-0.069 0.069,-0.108C0.047,-0.146 0.036,-0.193 0.036,-0.248C0.036,-0.302 0.047,-0.348 0.069,-0.387C0.092,-0.426 0.121,-0.455 0.157,-0.476C0.193,-0.498 0.23,-0.508 0.27,-0.508C0.318,-0.508 0.357,-0.498 0.388,-0.477C0.419,-0.456 0.443,-0.427 0.458,-0.391C0.474,-0.355 0.481,-0.315 0.481,-0.27C0.481,-0.257 0.481,-0.245 0.479,-0.233C0.478,-0.221 0.476,-0.211 0.475,-0.203L0.15,-0.203L0.148,-0.305L0.355,-0.305C0.355,-0.331 0.348,-0.353 0.336,-0.37C0.323,-0.387 0.303,-0.395 0.273,-0.395C0.257,-0.395 0.242,-0.391 0.226,-0.382C0.211,-0.373 0.198,-0.358 0.188,-0.337C0.178,-0.316 0.173,-0.286 0.174,-0.248C0.175,-0.211 0.182,-0.181 0.195,-0.16C0.208,-0.139 0.224,-0.123 0.244,-0.115C0.264,-0.106 0.285,-0.101 0.307,-0.101C0.326,-0.101 0.345,-0.104 0.362,-0.109C0.38,-0.115 0.398,-0.123 0.415,-0.133L0.463,-0.043C0.438,-0.026 0.41,-0.012 0.379,-0.003C0.347,0.007 0.317,0.012 0.287,0.012Z" style="fill-rule:nonzero;"/>
        </g>
        <g transform="matrix(107.506,0,0,107.506,649.087,370.046)">
            <path d="M0.065,-0L0.065,-0.496L0.185,-0.496L0.195,-0.433L0.199,-0.433C0.22,-0.454 0.243,-0.471 0.269,-0.486C0.295,-0.501 0.325,-0.508 0.358,-0.508C0.413,-0.508 0.452,-0.49 0.476,-0.455C0.5,-0.419 0.512,-0.37 0.512,-0.308L0.512,-0L0.365,-0L0.365,-0.289C0.365,-0.325 0.36,-0.349 0.351,-0.363C0.341,-0.376 0.325,-0.383 0.304,-0.383C0.285,-0.383 0.269,-0.379 0.256,-0.37C0.243,-0.362 0.228,-0.35 0.212,-0.335L0.212,-0L0.065,-0Z" style="fill-rule:nonzero;"/>
        </g>
        <g transform="matrix(107.506,0,0,107.506,710.595,370.046)">
            <path d="M0.179,-0L0.012,-0.496L0.16,-0.496L0.224,-0.262C0.231,-0.238 0.237,-0.213 0.244,-0.187C0.25,-0.162 0.256,-0.136 0.263,-0.109L0.267,-0.109C0.273,-0.136 0.28,-0.162 0.286,-0.187C0.292,-0.213 0.299,-0.238 0.305,-0.262L0.37,-0.496L0.511,-0.496L0.349,-0L0.179,-0Z" style="fill-rule:nonzero;"/>
        </g>
        <g transform="matrix(107.506,0,0,107.506,766.77,370.046)">
            <path d="M0.065,-0L0.065,-0.496L0.212,-0.496L0.212,-0L0.065,-0ZM0.138,-0.569C0.113,-0.569 0.093,-0.576 0.078,-0.59C0.063,-0.604 0.055,-0.623 0.055,-0.646C0.055,-0.669 0.063,-0.688 0.078,-0.702C0.093,-0.716 0.113,-0.723 0.138,-0.723C0.163,-0.723 0.183,-0.716 0.198,-0.702C0.213,-0.688 0.221,-0.669 0.221,-0.646C0.221,-0.623 0.213,-0.604 0.198,-0.59C0.183,-0.576 0.163,-0.569 0.138,-0.569Z" style="fill-rule:nonzero;"/>
        </g>
        <g transform="matrix(107.506,0,0,107.506,796.482,370.046)">
            <path d="M0.065,-0L0.065,-0.496L0.185,-0.496L0.195,-0.409L0.199,-0.409C0.217,-0.443 0.239,-0.467 0.264,-0.484C0.289,-0.5 0.314,-0.508 0.34,-0.508C0.354,-0.508 0.366,-0.507 0.375,-0.506C0.384,-0.504 0.392,-0.502 0.399,-0.498L0.371,-0.373C0.363,-0.375 0.355,-0.377 0.348,-0.378C0.341,-0.379 0.332,-0.379 0.321,-0.379C0.302,-0.379 0.283,-0.372 0.262,-0.359C0.242,-0.345 0.225,-0.322 0.212,-0.288L0.212,-0L0.065,-0Z" style="fill-rule:nonzero;"/>
        </g>
        <g transform="matrix(107.506,0,0,107.506,838.225,370.046)">
            <path d="M0.278,0.012C0.236,0.012 0.196,0.002 0.16,-0.019C0.123,-0.039 0.093,-0.069 0.07,-0.108C0.047,-0.146 0.036,-0.193 0.036,-0.248C0.036,-0.303 0.047,-0.35 0.07,-0.389C0.093,-0.427 0.123,-0.457 0.16,-0.477C0.196,-0.498 0.236,-0.508 0.278,-0.508C0.319,-0.508 0.359,-0.498 0.395,-0.477C0.432,-0.457 0.462,-0.427 0.485,-0.389C0.508,-0.35 0.519,-0.303 0.519,-0.248C0.519,-0.193 0.508,-0.146 0.485,-0.108C0.462,-0.069 0.432,-0.039 0.395,-0.019C0.359,0.002 0.319,0.012 0.278,0.012ZM0.278,-0.107C0.298,-0.107 0.315,-0.112 0.328,-0.124C0.342,-0.135 0.352,-0.152 0.359,-0.173C0.365,-0.194 0.369,-0.219 0.369,-0.248C0.369,-0.277 0.365,-0.301 0.359,-0.323C0.352,-0.344 0.342,-0.361 0.328,-0.372C0.315,-0.384 0.298,-0.389 0.278,-0.389C0.257,-0.389 0.24,-0.384 0.227,-0.372C0.213,-0.361 0.203,-0.344 0.197,-0.323C0.19,-0.301 0.187,-0.277 0.187,-0.248C0.187,-0.219 0.19,-0.194 0.197,-0.173C0.203,-0.152 0.213,-0.135 0.227,-0.124C0.24,-0.112 0.257,-0.107 0.278,-0.107Z" style="fill-rule:nonzero;"/>
        </g>
        <g transform="matrix(107.506,0,0,107.506,897.899,370.046)">
            <path d="M0.065,-0L0.065,-0.496L0.185,-0.496L0.195,-0.433L0.199,-0.433C0.22,-0.454 0.243,-0.471 0.269,-0.486C0.295,-0.501 0.325,-0.508 0.358,-0.508C0.413,-0.508 0.452,-0.49 0.476,-0.455C0.5,-0.419 0.512,-0.37 0.512,-0.308L0.512,-0L0.365,-0L0.365,-0.289C0.365,-0.325 0.36,-0.349 0.351,-0.363C0.341,-0.376 0.325,-0.383 0.304,-0.383C0.285,-0.383 0.269,-0.379 0.256,-0.37C0.243,-0.362 0.228,-0.35 0.212,-0.335L0.212,-0L0.065,-0Z" style="fill-rule:nonzero;"/>
        </g>
        <g transform="matrix(107.506,0,0,107.506,959.407,370.046)">
            <path d="M0.065,-0L0.065,-0.496L0.185,-0.496L0.195,-0.432L0.199,-0.432C0.219,-0.453 0.241,-0.471 0.265,-0.486C0.289,-0.501 0.317,-0.508 0.349,-0.508C0.384,-0.508 0.413,-0.501 0.435,-0.486C0.457,-0.472 0.474,-0.451 0.486,-0.425C0.508,-0.448 0.531,-0.467 0.556,-0.484C0.581,-0.5 0.609,-0.508 0.642,-0.508C0.696,-0.508 0.735,-0.49 0.76,-0.455C0.785,-0.419 0.797,-0.37 0.797,-0.308L0.797,-0L0.65,-0L0.65,-0.289C0.65,-0.325 0.645,-0.349 0.635,-0.363C0.626,-0.376 0.61,-0.383 0.589,-0.383C0.576,-0.383 0.563,-0.379 0.549,-0.371C0.535,-0.364 0.52,-0.351 0.504,-0.335L0.504,-0L0.357,-0L0.357,-0.289C0.357,-0.325 0.352,-0.349 0.343,-0.363C0.333,-0.376 0.317,-0.383 0.296,-0.383C0.271,-0.383 0.242,-0.367 0.212,-0.335L0.212,-0L0.065,-0Z" style="fill-rule:nonzero;"/>
        </g>
        <g transform="matrix(107.506,0,0,107.506,1051.55,370.046)">
            <path d="M0.287,0.012C0.24,0.012 0.197,0.002 0.159,-0.019C0.121,-0.039 0.091,-0.069 0.069,-0.108C0.047,-0.146 0.036,-0.193 0.036,-0.248C0.036,-0.302 0.047,-0.348 0.069,-0.387C0.092,-0.426 0.121,-0.455 0.157,-0.476C0.193,-0.498 0.23,-0.508 0.27,-0.508C0.318,-0.508 0.357,-0.498 0.388,-0.477C0.419,-0.456 0.443,-0.427 0.458,-0.391C0.474,-0.355 0.481,-0.315 0.481,-0.27C0.481,-0.257 0.481,-0.245 0.479,-0.233C0.478,-0.221 0.476,-0.211 0.475,-0.203L0.15,-0.203L0.148,-0.305L0.355,-0.305C0.355,-0.331 0.348,-0.353 0.336,-0.37C0.323,-0.387 0.303,-0.395 0.273,-0.395C0.257,-0.395 0.242,-0.391 0.226,-0.382C0.211,-0.373 0.198,-0.358 0.188,-0.337C0.178,-0.316 0.173,-0.286 0.174,-0.248C0.175,-0.211 0.182,-0.181 0.195,-0.16C0.208,-0.139 0.224,-0.123 0.244,-0.115C0.264,-0.106 0.285,-0.101 0.307,-0.101C0.326,-0.101 0.345,-0.104 0.362,-0.109C0.38,-0.115 0.398,-0.123 0.415,-0.133L0.463,-0.043C0.438,-0.026 0.41,-0.012 0.379,-0.003C0.347,0.007 0.317,0.012 0.287,0.012Z" style="fill-rule:nonzero;"/>
        </g>
        <g transform="matrix(107.506,0,0,107.506,1107.2,370.046)">
            <path d="M0.065,-0L0.065,-0.496L0.185,-0.496L0.195,-0.433L0.199,-0.433C0.22,-0.454 0.243,-0.471 0.269,-0.486C0.295,-0.501 0.325,-0.508 0.358,-0.508C0.413,-0.508 0.452,-0.49 0.476,-0.455C0.5,-0.419 0.512,-0.37 0.512,-0.308L0.512,-0L0.365,-0L0.365,-0.289C0.365,-0.325 0.36,-0.349 0.351,-0.363C0.341,-0.376 0.325,-0.383 0.304,-0.383C0.285,-0.383 0.269,-0.379 0.256,-0.37C0.243,-0.362 0.228,-0.35 0.212,-0.335L0.212,-0L0.065,-0Z" style="fill-rule:nonzero;"/>
        </g>
        <g transform="matrix(107.506,0,0,107.506,1168.71,370.046)">
            <path d="M0.256,0.011C0.195,0.011 0.151,-0.007 0.124,-0.042C0.098,-0.078 0.084,-0.124 0.084,-0.181L0.084,-0.381L0.017,-0.381L0.017,-0.49L0.093,-0.496L0.11,-0.648L0.232,-0.648L0.232,-0.496L0.351,-0.496L0.351,-0.381L0.232,-0.381L0.232,-0.183C0.232,-0.155 0.238,-0.135 0.249,-0.123C0.261,-0.111 0.276,-0.104 0.296,-0.104C0.304,-0.104 0.312,-0.105 0.32,-0.106C0.328,-0.107 0.336,-0.109 0.343,-0.112L0.367,-0.009C0.354,-0.004 0.338,0.001 0.319,0.005C0.301,0.009 0.279,0.011 0.256,0.011Z" style="fill-rule:nonzero;"/>
        </g>
        <g transform="matrix(107.506,0,0,107.506,1210.29,370.046)">
            <path d="M0.15,-0.312C0.125,-0.312 0.103,-0.321 0.087,-0.339C0.07,-0.357 0.061,-0.379 0.061,-0.404C0.061,-0.431 0.07,-0.453 0.087,-0.471C0.103,-0.488 0.125,-0.497 0.15,-0.497C0.176,-0.497 0.197,-0.488 0.214,-0.471C0.231,-0.453 0.239,-0.431 0.239,-0.404C0.239,-0.379 0.231,-0.357 0.214,-0.339C0.197,-0.321 0.176,-0.312 0.15,-0.312ZM0.15,0.012C0.125,0.012 0.103,0.003 0.087,-0.015C0.07,-0.033 0.061,-0.055 0.061,-0.08C0.061,-0.107 0.07,-0.129 0.087,-0.147C0.103,-0.164 0.125,-0.173 0.15,-0.173C0.176,-0.173 0.197,-0.164 0.214,-0.147C0.231,-0.129 0.239,-0.107 0.239,-0.08C0.239,-0.055 0.231,-0.033 0.214,-0.015C0.197,0.003 0.176,0.012 0.15,0.012Z" style="fill-rule:nonzero;"/>
        </g>
        <g transform="matrix(107.506,0,0,107.506,1242.58,370.046)">
        </g>
    </g>
    <g transform="matrix(2.28437,0,0,2.28437,228.557,394.267)">
        <g transform="matrix(1,0,0,1,-100,-100)">
            <g transform="matrix(4.16667,0,0,4.16667,0,0)">
                <path d="M31,30L34,30L34,28L31,28L31,30ZM34,34L31,34L31,32L34,32L34,34ZM31,38L34,38L34,36L31,36L31,38Z" style="fill-rule:nonzero;"/>
                <path d="M17,4L33,10L33,24L37,24C37.549,24 38,24.451 38,25L38,42L39,42C39.549,42 40,42.451 40,43C40,43.549 39.549,44 39,44L9,44C8.451,44 8,43.549 8,43C8,42.451 8.451,42 9,42L10,42L10,21C10,20.451 10.451,20 11,20L13,20L13,13L15,13L15,20L17,20L17,4ZM36,42L34,42L34,40L31,40L31,42L29,42L29,26L36,26L36,42ZM17,22L12,22L12,42L17,42L17,22ZM22,13L20,13L20,15L22,15L22,13ZM24,13L26,13L26,15L24,15L24,13ZM30,13L28,13L28,15L30,15L30,13ZM20,17L22,17L22,19L20,19L20,17ZM26,17L24,17L24,19L26,19L26,17ZM28,17L30,17L30,19L28,19L28,17ZM22,21L20,21L20,23L22,23L22,21ZM24,21L26,21L26,23L24,23L24,21ZM30,21L28,21L28,23L30,23L30,21ZM20,25L22,25L22,27L20,27L20,25ZM26,25L24,25L24,27L26,27L26,25ZM22,29L20,29L20,31L22,31L22,29ZM24,29L26,29L26,31L24,31L24,29ZM20,33L22,33L22,35L20,35L20,33ZM26,33L24,33L24,35L26,35L26,33ZM22,37L20,37L20,39L22,39L22,37ZM24,37L26,37L26,39L24,39L24,37Z"/>
            </g>
        </g>
    </g>
    <g transform="matrix(0.549385,0,0,0.549385,422.558,799.207)">
        <path d="M290.115,197.684L290.115,1112.8L1336.51,1112.8" style="fill:none;stroke:black;stroke-width:30.34px;"/>
    </g>
    <g transform="matrix(0.540193,0.00552958,0.00552958,0.546058,432.173,793.423)">
        <g transform="matrix(1.85138,-0.0187478,-0.0187478,1.8315,-785.242,-1445.05)">
            <path d="M1030.78,999.057L1116.56,1020.39L1095.22,1106.17" style="fill:none;stroke:black;stroke-width:16.67px;stroke-linejoin:miter;stroke-miterlimit:10;"/>
            <path d="M620.295,1318.93C620.295,1318.93 1045.24,1063.3 1116.56,1020.39" style="fill:none;stroke:black;stroke-width:16.67px;"/>
        </g>
    </g>
    <g transform="matrix(3.64204e-17,-0.59479,0.59479,3.64204e-17,325.702,1240.46)">
        <g transform="matrix(107.506,0,0,107.506,-82.5422,370.046)">
            <path d="M0.159,-0L0.024,-0.486L0.11,-0.486L0.181,-0.205C0.186,-0.183 0.191,-0.161 0.196,-0.139C0.201,-0.117 0.205,-0.093 0.209,-0.067L0.213,-0.067C0.218,-0.093 0.223,-0.117 0.228,-0.139C0.233,-0.161 0.238,-0.183 0.244,-0.205L0.316,-0.486L0.406,-0.486L0.479,-0.205C0.485,-0.183 0.49,-0.161 0.496,-0.139C0.501,-0.117 0.506,-0.093 0.511,-0.067L0.515,-0.067C0.52,-0.093 0.525,-0.117 0.53,-0.139C0.534,-0.161 0.539,-0.183 0.544,-0.205L0.615,-0.486L0.695,-0.486L0.564,-0L0.457,-0L0.392,-0.26C0.387,-0.283 0.381,-0.305 0.377,-0.328C0.372,-0.35 0.367,-0.375 0.361,-0.404L0.357,-0.404C0.353,-0.375 0.348,-0.35 0.343,-0.327C0.338,-0.305 0.332,-0.282 0.326,-0.26L0.261,-0L0.159,-0Z" style="fill-rule:nonzero;"/>
        </g>
        <g transform="matrix(107.506,0,0,107.506,-5.71719,370.046)">
            <path d="M0.279,0.012C0.236,0.012 0.196,0.002 0.161,-0.018C0.125,-0.039 0.097,-0.068 0.076,-0.106C0.056,-0.143 0.045,-0.189 0.045,-0.243C0.045,-0.296 0.056,-0.341 0.077,-0.379C0.098,-0.417 0.125,-0.447 0.159,-0.467C0.192,-0.488 0.228,-0.498 0.265,-0.498C0.306,-0.498 0.342,-0.489 0.371,-0.47C0.399,-0.451 0.421,-0.424 0.436,-0.39C0.451,-0.356 0.458,-0.316 0.458,-0.27C0.458,-0.262 0.458,-0.253 0.457,-0.245C0.457,-0.237 0.456,-0.229 0.454,-0.221L0.104,-0.221L0.104,-0.286L0.384,-0.286C0.384,-0.333 0.374,-0.369 0.354,-0.394C0.333,-0.419 0.304,-0.431 0.266,-0.431C0.244,-0.431 0.222,-0.425 0.201,-0.413C0.18,-0.4 0.162,-0.38 0.148,-0.353C0.135,-0.325 0.128,-0.289 0.128,-0.244C0.128,-0.202 0.135,-0.168 0.149,-0.14C0.164,-0.112 0.183,-0.091 0.208,-0.077C0.233,-0.062 0.26,-0.055 0.289,-0.055C0.312,-0.055 0.334,-0.059 0.354,-0.065C0.375,-0.072 0.393,-0.08 0.41,-0.092L0.44,-0.038C0.419,-0.023 0.395,-0.011 0.369,-0.002C0.342,0.007 0.312,0.012 0.279,0.012Z" style="fill-rule:nonzero;"/>
        </g>
        <g transform="matrix(107.506,0,0,107.506,47.5827,370.046)">
            <path d="M0.169,0.009C0.149,0.009 0.132,0.005 0.119,-0.003C0.106,-0.012 0.097,-0.024 0.091,-0.04C0.085,-0.057 0.082,-0.077 0.082,-0.1L0.082,-0.712L0.164,-0.712L0.164,-0.094C0.164,-0.081 0.166,-0.072 0.171,-0.067C0.176,-0.062 0.182,-0.059 0.188,-0.059C0.191,-0.059 0.193,-0.059 0.196,-0.06C0.198,-0.06 0.201,-0.061 0.205,-0.061L0.217,0.001C0.211,0.003 0.204,0.005 0.196,0.007C0.188,0.008 0.179,0.009 0.169,0.009Z" style="fill-rule:nonzero;"/>
        </g>
        <g transform="matrix(107.506,0,0,107.506,75.0124,370.046)">
            <path d="M0.169,0.009C0.149,0.009 0.132,0.005 0.119,-0.003C0.106,-0.012 0.097,-0.024 0.091,-0.04C0.085,-0.057 0.082,-0.077 0.082,-0.1L0.082,-0.712L0.164,-0.712L0.164,-0.094C0.164,-0.081 0.166,-0.072 0.171,-0.067C0.176,-0.062 0.182,-0.059 0.188,-0.059C0.191,-0.059 0.193,-0.059 0.196,-0.06C0.198,-0.06 0.201,-0.061 0.205,-0.061L0.217,0.001C0.211,0.003 0.204,0.005 0.196,0.007C0.188,0.008 0.179,0.009 0.169,0.009Z" style="fill-rule:nonzero;"/>
        </g>
        <g transform="matrix(107.506,0,0,107.506,102.442,370.046)">
            <path d="M0.297,0.012C0.274,0.012 0.251,0.007 0.227,-0.005C0.203,-0.016 0.18,-0.031 0.158,-0.05L0.155,-0.05L0.148,-0L0.082,-0L0.082,-0.712L0.164,-0.712L0.164,-0.518L0.162,-0.43C0.184,-0.45 0.208,-0.466 0.234,-0.479C0.261,-0.492 0.287,-0.498 0.314,-0.498C0.356,-0.498 0.391,-0.488 0.42,-0.468C0.449,-0.447 0.471,-0.418 0.485,-0.381C0.5,-0.344 0.507,-0.301 0.507,-0.251C0.507,-0.196 0.497,-0.148 0.478,-0.109C0.458,-0.07 0.432,-0.04 0.4,-0.019C0.368,0.002 0.334,0.012 0.297,0.012ZM0.283,-0.057C0.309,-0.057 0.333,-0.065 0.354,-0.08C0.375,-0.096 0.392,-0.118 0.404,-0.147C0.416,-0.175 0.422,-0.21 0.422,-0.25C0.422,-0.285 0.418,-0.317 0.409,-0.344C0.401,-0.371 0.387,-0.392 0.368,-0.406C0.349,-0.421 0.325,-0.429 0.294,-0.429C0.274,-0.429 0.253,-0.423 0.231,-0.412C0.21,-0.401 0.187,-0.385 0.164,-0.363L0.164,-0.108C0.186,-0.089 0.207,-0.076 0.228,-0.069C0.249,-0.061 0.267,-0.057 0.283,-0.057Z" style="fill-rule:nonzero;"/>
        </g>
        <g transform="matrix(107.506,0,0,107.506,161.942,370.046)">
            <path d="M0.279,0.012C0.236,0.012 0.196,0.002 0.161,-0.018C0.125,-0.039 0.097,-0.068 0.076,-0.106C0.056,-0.143 0.045,-0.189 0.045,-0.243C0.045,-0.296 0.056,-0.341 0.077,-0.379C0.098,-0.417 0.125,-0.447 0.159,-0.467C0.192,-0.488 0.228,-0.498 0.265,-0.498C0.306,-0.498 0.342,-0.489 0.371,-0.47C0.399,-0.451 0.421,-0.424 0.436,-0.39C0.451,-0.356 0.458,-0.316 0.458,-0.27C0.458,-0.262 0.458,-0.253 0.457,-0.245C0.457,-0.237 0.456,-0.229 0.454,-0.221L0.104,-0.221L0.104,-0.286L0.384,-0.286C0.384,-0.333 0.374,-0.369 0.354,-0.394C0.333,-0.419 0.304,-0.431 0.266,-0.431C0.244,-0.431 0.222,-0.425 0.201,-0.413C0.18,-0.4 0.162,-0.38 0.148,-0.353C0.135,-0.325 0.128,-0.289 0.128,-0.244C0.128,-0.202 0.135,-0.168 0.149,-0.14C0.164,-0.112 0.183,-0.091 0.208,-0.077C0.233,-0.062 0.26,-0.055 0.289,-0.055C0.312,-0.055 0.334,-0.059 0.354,-0.065C0.375,-0.072 0.393,-0.08 0.41,-0.092L0.44,-0.038C0.419,-0.023 0.395,-0.011 0.369,-0.002C0.342,0.007 0.312,0.012 0.279,0.012Z" style="fill-rule:nonzero;"/>
        </g>
        <g transform="matrix(107.506,0,0,107.506,215.242,370.046)">
            <path d="M0.082,-0L0.082,-0.486L0.164,-0.486L0.164,-0L0.082,-0ZM0.123,-0.586C0.107,-0.586 0.094,-0.591 0.084,-0.601C0.073,-0.611 0.068,-0.624 0.068,-0.64C0.068,-0.656 0.073,-0.669 0.084,-0.679C0.094,-0.689 0.107,-0.694 0.123,-0.694C0.139,-0.694 0.152,-0.689 0.163,-0.679C0.173,-0.669 0.178,-0.656 0.178,-0.64C0.178,-0.624 0.173,-0.611 0.163,-0.601C0.152,-0.591 0.139,-0.586 0.123,-0.586Z" style="fill-rule:nonzero;"/>
        </g>
        <g transform="matrix(107.506,0,0,107.506,241.719,370.046)">
            <path d="M0.082,-0L0.082,-0.486L0.15,-0.486L0.157,-0.416L0.16,-0.416C0.183,-0.439 0.208,-0.459 0.234,-0.474C0.26,-0.49 0.29,-0.498 0.323,-0.498C0.374,-0.498 0.412,-0.482 0.436,-0.45C0.459,-0.417 0.471,-0.37 0.471,-0.308L0.471,-0L0.389,-0L0.389,-0.297C0.389,-0.343 0.382,-0.376 0.367,-0.396C0.353,-0.416 0.33,-0.427 0.297,-0.427C0.272,-0.427 0.25,-0.42 0.231,-0.408C0.211,-0.395 0.189,-0.377 0.164,-0.352L0.164,-0L0.082,-0Z" style="fill-rule:nonzero;"/>
        </g>
        <g transform="matrix(107.506,0,0,107.506,300.482,370.046)">
            <path d="M0.246,0.224C0.207,0.224 0.172,0.219 0.141,0.208C0.111,0.198 0.087,0.183 0.071,0.164C0.054,0.145 0.045,0.121 0.045,0.093C0.045,0.072 0.051,0.052 0.064,0.034C0.077,0.015 0.094,-0.002 0.116,-0.017L0.116,-0.021C0.104,-0.029 0.094,-0.039 0.086,-0.052C0.077,-0.065 0.073,-0.081 0.073,-0.1C0.073,-0.12 0.079,-0.138 0.09,-0.154C0.102,-0.17 0.114,-0.182 0.126,-0.19L0.126,-0.194C0.111,-0.207 0.096,-0.225 0.083,-0.248C0.07,-0.271 0.063,-0.296 0.063,-0.325C0.063,-0.36 0.072,-0.391 0.089,-0.417C0.105,-0.443 0.128,-0.463 0.155,-0.477C0.183,-0.491 0.213,-0.498 0.246,-0.498C0.259,-0.498 0.272,-0.497 0.284,-0.495C0.296,-0.493 0.306,-0.49 0.315,-0.486L0.484,-0.486L0.484,-0.423L0.383,-0.423L0.383,-0.419C0.395,-0.408 0.404,-0.395 0.412,-0.379C0.42,-0.363 0.424,-0.344 0.424,-0.322C0.424,-0.288 0.416,-0.258 0.4,-0.233C0.384,-0.208 0.363,-0.188 0.336,-0.175C0.309,-0.161 0.279,-0.154 0.246,-0.154C0.234,-0.154 0.222,-0.156 0.209,-0.159C0.197,-0.161 0.185,-0.165 0.173,-0.171C0.165,-0.163 0.158,-0.156 0.152,-0.147C0.146,-0.138 0.143,-0.127 0.143,-0.113C0.143,-0.098 0.149,-0.085 0.161,-0.075C0.173,-0.065 0.195,-0.061 0.228,-0.061L0.322,-0.061C0.379,-0.061 0.422,-0.051 0.45,-0.033C0.478,-0.014 0.492,0.015 0.492,0.056C0.492,0.086 0.482,0.113 0.462,0.139C0.442,0.164 0.413,0.185 0.377,0.2C0.34,0.216 0.296,0.224 0.246,0.224ZM0.246,-0.209C0.265,-0.209 0.282,-0.214 0.297,-0.224C0.313,-0.233 0.325,-0.246 0.335,-0.264C0.344,-0.281 0.349,-0.301 0.349,-0.325C0.349,-0.361 0.339,-0.389 0.319,-0.409C0.299,-0.429 0.275,-0.438 0.246,-0.438C0.217,-0.438 0.193,-0.429 0.173,-0.409C0.153,-0.389 0.143,-0.361 0.143,-0.325C0.143,-0.301 0.147,-0.281 0.157,-0.264C0.166,-0.246 0.179,-0.233 0.195,-0.224C0.21,-0.214 0.227,-0.209 0.246,-0.209ZM0.258,0.167C0.289,0.167 0.316,0.162 0.339,0.153C0.361,0.144 0.379,0.131 0.392,0.116C0.405,0.101 0.412,0.085 0.412,0.068C0.412,0.045 0.403,0.03 0.386,0.021C0.37,0.012 0.345,0.008 0.314,0.008L0.23,0.008C0.221,0.008 0.211,0.007 0.2,0.006C0.189,0.005 0.178,0.003 0.167,0C0.149,0.013 0.137,0.026 0.129,0.04C0.121,0.054 0.117,0.068 0.117,0.082C0.117,0.108 0.129,0.129 0.155,0.144C0.18,0.159 0.214,0.167 0.258,0.167Z" style="fill-rule:nonzero;"/>
        </g>
        <g transform="matrix(107.506,0,0,107.506,354.696,370.046)">
        </g>
    </g>
    <g transform="matrix(0.59479,0,0,0.59479,766.811,1251.19)">
        <g transform="matrix(107.506,0,0,107.506,-123.907,370.046)">
            <path d="M0.271,0.012C0.231,0.012 0.194,0.002 0.16,-0.018C0.126,-0.038 0.098,-0.067 0.077,-0.105C0.056,-0.143 0.046,-0.189 0.046,-0.242C0.046,-0.296 0.056,-0.343 0.077,-0.381C0.098,-0.419 0.126,-0.448 0.16,-0.468C0.194,-0.488 0.231,-0.498 0.271,-0.498C0.311,-0.498 0.348,-0.488 0.382,-0.468C0.416,-0.448 0.444,-0.419 0.465,-0.381C0.486,-0.343 0.496,-0.296 0.496,-0.242C0.496,-0.189 0.486,-0.143 0.465,-0.105C0.444,-0.067 0.416,-0.038 0.382,-0.018C0.348,0.002 0.311,0.012 0.271,0.012ZM0.271,-0.056C0.299,-0.056 0.324,-0.064 0.345,-0.08C0.366,-0.095 0.382,-0.117 0.394,-0.145C0.406,-0.173 0.411,-0.205 0.411,-0.242C0.411,-0.28 0.406,-0.312 0.394,-0.34C0.382,-0.368 0.366,-0.39 0.345,-0.406C0.324,-0.422 0.299,-0.43 0.271,-0.43C0.243,-0.43 0.219,-0.422 0.198,-0.406C0.177,-0.39 0.16,-0.368 0.149,-0.34C0.137,-0.312 0.131,-0.28 0.131,-0.242C0.131,-0.205 0.137,-0.173 0.149,-0.145C0.16,-0.117 0.177,-0.095 0.198,-0.08C0.219,-0.064 0.243,-0.056 0.271,-0.056Z" style="fill-rule:nonzero;"/>
        </g>
        <g transform="matrix(107.506,0,0,107.506,-65.6058,370.046)">
            <path d="M0.224,0.012C0.173,0.012 0.135,-0.004 0.112,-0.036C0.088,-0.069 0.076,-0.116 0.076,-0.178L0.076,-0.486L0.158,-0.486L0.158,-0.189C0.158,-0.143 0.165,-0.111 0.18,-0.09C0.194,-0.07 0.217,-0.06 0.249,-0.06C0.274,-0.06 0.296,-0.066 0.316,-0.079C0.335,-0.092 0.357,-0.113 0.38,-0.141L0.38,-0.486L0.462,-0.486L0.462,-0L0.394,-0L0.387,-0.076L0.384,-0.076C0.362,-0.049 0.338,-0.028 0.312,-0.012C0.287,0.004 0.257,0.012 0.224,0.012Z" style="fill-rule:nonzero;"/>
        </g>
        <g transform="matrix(107.506,0,0,107.506,-7.16284,370.046)">
            <path d="M0.235,0.009C0.183,0.009 0.147,-0.006 0.127,-0.036C0.106,-0.066 0.096,-0.105 0.096,-0.153L0.096,-0.419L0.024,-0.419L0.024,-0.481L0.1,-0.486L0.11,-0.642L0.179,-0.642L0.179,-0.486L0.311,-0.486L0.311,-0.419L0.179,-0.419L0.179,-0.152C0.179,-0.122 0.184,-0.099 0.196,-0.083C0.207,-0.066 0.226,-0.058 0.254,-0.058C0.263,-0.058 0.272,-0.059 0.281,-0.061C0.29,-0.062 0.299,-0.066 0.309,-0.07L0.327,-0.012C0.314,-0.006 0.3,-0.001 0.284,0.003C0.268,0.007 0.252,0.009 0.235,0.009Z" style="fill-rule:nonzero;"/>
        </g>
        <g transform="matrix(107.506,0,0,107.506,27.6891,370.046)">
            <path d="M0.248,0.012C0.187,0.012 0.138,-0.01 0.102,-0.055C0.066,-0.099 0.047,-0.162 0.047,-0.242C0.047,-0.295 0.057,-0.34 0.077,-0.378C0.097,-0.417 0.122,-0.446 0.154,-0.467C0.186,-0.488 0.221,-0.498 0.258,-0.498C0.286,-0.498 0.311,-0.493 0.332,-0.483C0.352,-0.473 0.373,-0.46 0.394,-0.442L0.39,-0.525L0.39,-0.712L0.473,-0.712L0.473,-0L0.405,-0L0.398,-0.057L0.395,-0.057C0.376,-0.039 0.354,-0.022 0.329,-0.009C0.304,0.005 0.277,0.012 0.248,0.012ZM0.266,-0.057C0.288,-0.057 0.31,-0.063 0.33,-0.074C0.35,-0.085 0.37,-0.102 0.39,-0.124L0.39,-0.378C0.37,-0.397 0.35,-0.41 0.331,-0.418C0.312,-0.425 0.292,-0.429 0.272,-0.429C0.246,-0.429 0.223,-0.421 0.202,-0.406C0.181,-0.39 0.164,-0.369 0.151,-0.341C0.139,-0.313 0.132,-0.28 0.132,-0.243C0.132,-0.185 0.144,-0.139 0.167,-0.107C0.19,-0.074 0.223,-0.057 0.266,-0.057Z" style="fill-rule:nonzero;"/>
        </g>
        <g transform="matrix(107.506,0,0,107.506,87.3246,370.046)">
            <path d="M0.271,0.012C0.231,0.012 0.194,0.002 0.16,-0.018C0.126,-0.038 0.098,-0.067 0.077,-0.105C0.056,-0.143 0.046,-0.189 0.046,-0.242C0.046,-0.296 0.056,-0.343 0.077,-0.381C0.098,-0.419 0.126,-0.448 0.16,-0.468C0.194,-0.488 0.231,-0.498 0.271,-0.498C0.311,-0.498 0.348,-0.488 0.382,-0.468C0.416,-0.448 0.444,-0.419 0.465,-0.381C0.486,-0.343 0.496,-0.296 0.496,-0.242C0.496,-0.189 0.486,-0.143 0.465,-0.105C0.444,-0.067 0.416,-0.038 0.382,-0.018C0.348,0.002 0.311,0.012 0.271,0.012ZM0.271,-0.056C0.299,-0.056 0.324,-0.064 0.345,-0.08C0.366,-0.095 0.382,-0.117 0.394,-0.145C0.406,-0.173 0.411,-0.205 0.411,-0.242C0.411,-0.28 0.406,-0.312 0.394,-0.34C0.382,-0.368 0.366,-0.39 0.345,-0.406C0.324,-0.422 0.299,-0.43 0.271,-0.43C0.243,-0.43 0.219,-0.422 0.198,-0.406C0.177,-0.39 0.16,-0.368 0.149,-0.34C0.137,-0.312 0.131,-0.28 0.131,-0.242C0.131,-0.205 0.137,-0.173 0.149,-0.145C0.16,-0.117 0.177,-0.095 0.198,-0.08C0.219,-0.064 0.243,-0.056 0.271,-0.056Z" style="fill-rule:nonzero;"/>
        </g>
        <g transform="matrix(107.506,0,0,107.506,145.625,370.046)">
            <path d="M0.271,0.012C0.231,0.012 0.194,0.002 0.16,-0.018C0.126,-0.038 0.098,-0.067 0.077,-0.105C0.056,-0.143 0.046,-0.189 0.046,-0.242C0.046,-0.296 0.056,-0.343 0.077,-0.381C0.098,-0.419 0.126,-0.448 0.16,-0.468C0.194,-0.488 0.231,-0.498 0.271,-0.498C0.311,-0.498 0.348,-0.488 0.382,-0.468C0.416,-0.448 0.444,-0.419 0.465,-0.381C0.486,-0.343 0.496,-0.296 0.496,-0.242C0.496,-0.189 0.486,-0.143 0.465,-0.105C0.444,-0.067 0.416,-0.038 0.382,-0.018C0.348,0.002 0.311,0.012 0.271,0.012ZM0.271,-0.056C0.299,-0.056 0.324,-0.064 0.345,-0.08C0.366,-0.095 0.382,-0.117 0.394,-0.145C0.406,-0.173 0.411,-0.205 0.411,-0.242C0.411,-0.28 0.406,-0.312 0.394,-0.34C0.382,-0.368 0.366,-0.39 0.345,-0.406C0.324,-0.422 0.299,-0.43 0.271,-0.43C0.243,-0.43 0.219,-0.422 0.198,-0.406C0.177,-0.39 0.16,-0.368 0.149,-0.34C0.137,-0.312 0.131,-0.28 0.131,-0.242C0.131,-0.205 0.137,-0.173 0.149,-0.145C0.16,-0.117 0.177,-0.095 0.198,-0.08C0.219,-0.064 0.243,-0.056 0.271,-0.056Z" style="fill-rule:nonzero;"/>
        </g>
        <g transform="matrix(107.506,0,0,107.506,203.926,370.046)">
            <path d="M0.082,-0L0.082,-0.486L0.15,-0.486L0.157,-0.398L0.16,-0.398C0.176,-0.429 0.196,-0.453 0.22,-0.471C0.244,-0.489 0.27,-0.498 0.298,-0.498C0.309,-0.498 0.318,-0.497 0.326,-0.496C0.334,-0.494 0.342,-0.492 0.35,-0.488L0.332,-0.418C0.325,-0.42 0.318,-0.421 0.312,-0.422C0.305,-0.423 0.297,-0.424 0.287,-0.424C0.267,-0.424 0.245,-0.416 0.223,-0.399C0.2,-0.383 0.181,-0.354 0.164,-0.312L0.164,-0L0.082,-0Z" style="fill-rule:nonzero;"/>
        </g>
        <g transform="matrix(107.506,0,0,107.506,241.254,370.046)">
        </g>
        <g transform="matrix(107.506,0,0,107.506,262.755,370.046)">
            <path d="M0.235,0.009C0.183,0.009 0.147,-0.006 0.127,-0.036C0.106,-0.066 0.096,-0.105 0.096,-0.153L0.096,-0.419L0.024,-0.419L0.024,-0.481L0.1,-0.486L0.11,-0.642L0.179,-0.642L0.179,-0.486L0.311,-0.486L0.311,-0.419L0.179,-0.419L0.179,-0.152C0.179,-0.122 0.184,-0.099 0.196,-0.083C0.207,-0.066 0.226,-0.058 0.254,-0.058C0.263,-0.058 0.272,-0.059 0.281,-0.061C0.29,-0.062 0.299,-0.066 0.309,-0.07L0.327,-0.012C0.314,-0.006 0.3,-0.001 0.284,0.003C0.268,0.007 0.252,0.009 0.235,0.009Z" style="fill-rule:nonzero;"/>
        </g>
        <g transform="matrix(107.506,0,0,107.506,299.112,370.046)">
            <path d="M0.082,-0L0.082,-0.486L0.164,-0.486L0.164,-0L0.082,-0ZM0.123,-0.586C0.107,-0.586 0.094,-0.591 0.084,-0.601C0.073,-0.611 0.068,-0.624 0.068,-0.64C0.068,-0.656 0.073,-0.669 0.084,-0.679C0.094,-0.689 0.107,-0.694 0.123,-0.694C0.139,-0.694 0.152,-0.689 0.163,-0.679C0.173,-0.669 0.178,-0.656 0.178,-0.64C0.178,-0.624 0.173,-0.611 0.163,-0.601C0.152,-0.591 0.139,-0.586 0.123,-0.586Z" style="fill-rule:nonzero;"/>
        </g>
        <g transform="matrix(107.506,0,0,107.506,325.589,370.046)">
            <path d="M0.082,-0L0.082,-0.486L0.15,-0.486L0.157,-0.416L0.16,-0.416C0.181,-0.439 0.204,-0.458 0.23,-0.474C0.255,-0.49 0.282,-0.498 0.311,-0.498C0.348,-0.498 0.378,-0.49 0.399,-0.473C0.42,-0.457 0.435,-0.434 0.445,-0.405C0.47,-0.433 0.496,-0.455 0.522,-0.473C0.548,-0.49 0.576,-0.498 0.605,-0.498C0.656,-0.498 0.693,-0.482 0.717,-0.45C0.741,-0.417 0.753,-0.37 0.753,-0.308L0.753,-0L0.671,-0L0.671,-0.297C0.671,-0.343 0.664,-0.376 0.649,-0.396C0.635,-0.416 0.612,-0.427 0.581,-0.427C0.562,-0.427 0.542,-0.421 0.523,-0.408C0.503,-0.396 0.481,-0.377 0.459,-0.352L0.459,-0L0.377,-0L0.377,-0.297C0.377,-0.343 0.369,-0.376 0.355,-0.396C0.34,-0.416 0.317,-0.427 0.286,-0.427C0.25,-0.427 0.209,-0.402 0.164,-0.352L0.164,-0L0.082,-0Z" style="fill-rule:nonzero;"/>
        </g>
        <g transform="matrix(107.506,0,0,107.506,414.691,370.046)">
            <path d="M0.279,0.012C0.236,0.012 0.196,0.002 0.161,-0.018C0.125,-0.039 0.097,-0.068 0.076,-0.106C0.056,-0.143 0.045,-0.189 0.045,-0.243C0.045,-0.296 0.056,-0.341 0.077,-0.379C0.098,-0.417 0.125,-0.447 0.159,-0.467C0.192,-0.488 0.228,-0.498 0.265,-0.498C0.306,-0.498 0.342,-0.489 0.371,-0.47C0.399,-0.451 0.421,-0.424 0.436,-0.39C0.451,-0.356 0.458,-0.316 0.458,-0.27C0.458,-0.262 0.458,-0.253 0.457,-0.245C0.457,-0.237 0.456,-0.229 0.454,-0.221L0.104,-0.221L0.104,-0.286L0.384,-0.286C0.384,-0.333 0.374,-0.369 0.354,-0.394C0.333,-0.419 0.304,-0.431 0.266,-0.431C0.244,-0.431 0.222,-0.425 0.201,-0.413C0.18,-0.4 0.162,-0.38 0.148,-0.353C0.135,-0.325 0.128,-0.289 0.128,-0.244C0.128,-0.202 0.135,-0.168 0.149,-0.14C0.164,-0.112 0.183,-0.091 0.208,-0.077C0.233,-0.062 0.26,-0.055 0.289,-0.055C0.312,-0.055 0.334,-0.059 0.354,-0.065C0.375,-0.072 0.393,-0.08 0.41,-0.092L0.44,-0.038C0.419,-0.023 0.395,-0.011 0.369,-0.002C0.342,0.007 0.312,0.012 0.279,0.012Z" style="fill-rule:nonzero;"/>
        </g>
        <g transform="matrix(107.506,0,0,107.506,467.991,370.046)">
        </g>
    </g>
    <g transform="matrix(0.59479,0,0,0.59479,-25.3739,614.258)">
        <g transform="matrix(107.506,0,0,107.506,34.3991,370.046)">
            <rect x="0.077" y="-0.652" width="0.147" height="0.652" style="fill-rule:nonzero;"/>
        </g>
        <g transform="matrix(107.506,0,0,107.506,66.7625,370.046)">
            <path d="M0.065,-0L0.065,-0.496L0.185,-0.496L0.195,-0.433L0.199,-0.433C0.22,-0.454 0.243,-0.471 0.269,-0.486C0.295,-0.501 0.325,-0.508 0.358,-0.508C0.413,-0.508 0.452,-0.49 0.476,-0.455C0.5,-0.419 0.512,-0.37 0.512,-0.308L0.512,-0L0.365,-0L0.365,-0.289C0.365,-0.325 0.36,-0.349 0.351,-0.363C0.341,-0.376 0.325,-0.383 0.304,-0.383C0.285,-0.383 0.269,-0.379 0.256,-0.37C0.243,-0.362 0.228,-0.35 0.212,-0.335L0.212,-0L0.065,-0Z" style="fill-rule:nonzero;"/>
        </g>
        <g transform="matrix(107.506,0,0,107.506,128.271,370.046)">
        </g>
        <g transform="matrix(107.506,0,0,107.506,149.772,370.046)">
            <path d="M0.19,0.012C0.16,0.012 0.133,0.005 0.111,-0.008C0.089,-0.021 0.072,-0.039 0.06,-0.062C0.048,-0.084 0.042,-0.11 0.042,-0.138C0.042,-0.191 0.064,-0.232 0.108,-0.261C0.152,-0.291 0.223,-0.31 0.321,-0.32C0.32,-0.335 0.317,-0.347 0.312,-0.357C0.306,-0.368 0.298,-0.376 0.286,-0.382C0.275,-0.387 0.261,-0.39 0.243,-0.39C0.222,-0.39 0.201,-0.386 0.18,-0.379C0.158,-0.372 0.136,-0.361 0.111,-0.347L0.059,-0.443C0.08,-0.456 0.102,-0.468 0.125,-0.477C0.148,-0.487 0.171,-0.495 0.196,-0.5C0.22,-0.505 0.245,-0.508 0.271,-0.508C0.314,-0.508 0.349,-0.5 0.378,-0.484C0.408,-0.467 0.43,-0.442 0.445,-0.409C0.461,-0.376 0.468,-0.334 0.468,-0.283L0.468,-0L0.348,-0L0.338,-0.051L0.334,-0.051C0.313,-0.032 0.29,-0.017 0.267,-0.006C0.244,0.006 0.218,0.012 0.19,0.012ZM0.239,-0.103C0.256,-0.103 0.271,-0.107 0.283,-0.114C0.296,-0.121 0.309,-0.131 0.321,-0.144L0.321,-0.228C0.286,-0.224 0.259,-0.218 0.239,-0.21C0.218,-0.202 0.204,-0.194 0.196,-0.183C0.187,-0.173 0.183,-0.162 0.183,-0.149C0.183,-0.134 0.188,-0.122 0.198,-0.115C0.209,-0.107 0.222,-0.103 0.239,-0.103Z" style="fill-rule:nonzero;"/>
        </g>
        <g transform="matrix(107.506,0,0,107.506,206.449,370.046)">
        </g>
        <g transform="matrix(107.506,0,0,107.506,227.95,370.046)">
            <path d="M0.065,-0L0.065,-0.496L0.185,-0.496L0.195,-0.433L0.199,-0.433C0.22,-0.454 0.243,-0.471 0.269,-0.486C0.295,-0.501 0.325,-0.508 0.358,-0.508C0.413,-0.508 0.452,-0.49 0.476,-0.455C0.5,-0.419 0.512,-0.37 0.512,-0.308L0.512,-0L0.365,-0L0.365,-0.289C0.365,-0.325 0.36,-0.349 0.351,-0.363C0.341,-0.376 0.325,-0.383 0.304,-0.383C0.285,-0.383 0.269,-0.379 0.256,-0.37C0.243,-0.362 0.228,-0.35 0.212,-0.335L0.212,-0L0.065,-0Z" style="fill-rule:nonzero;"/>
        </g>
        <g transform="matrix(107.506,0,0,107.506,289.459,370.046)">
            <path d="M0.19,0.012C0.16,0.012 0.133,0.005 0.111,-0.008C0.089,-0.021 0.072,-0.039 0.06,-0.062C0.048,-0.084 0.042,-0.11 0.042,-0.138C0.042,-0.191 0.064,-0.232 0.108,-0.261C0.152,-0.291 0.223,-0.31 0.321,-0.32C0.32,-0.335 0.317,-0.347 0.312,-0.357C0.306,-0.368 0.298,-0.376 0.286,-0.382C0.275,-0.387 0.261,-0.39 0.243,-0.39C0.222,-0.39 0.201,-0.386 0.18,-0.379C0.158,-0.372 0.136,-0.361 0.111,-0.347L0.059,-0.443C0.08,-0.456 0.102,-0.468 0.125,-0.477C0.148,-0.487 0.171,-0.495 0.196,-0.5C0.22,-0.505 0.245,-0.508 0.271,-0.508C0.314,-0.508 0.349,-0.5 0.378,-0.484C0.408,-0.467 0.43,-0.442 0.445,-0.409C0.461,-0.376 0.468,-0.334 0.468,-0.283L0.468,-0L0.348,-0L0.338,-0.051L0.334,-0.051C0.313,-0.032 0.29,-0.017 0.267,-0.006C0.244,0.006 0.218,0.012 0.19,0.012ZM0.239,-0.103C0.256,-0.103 0.271,-0.107 0.283,-0.114C0.296,-0.121 0.309,-0.131 0.321,-0.144L0.321,-0.228C0.286,-0.224 0.259,-0.218 0.239,-0.21C0.218,-0.202 0.204,-0.194 0.196,-0.183C0.187,-0.173 0.183,-0.162 0.183,-0.149C0.183,-0.134 0.188,-0.122 0.198,-0.115C0.209,-0.107 0.222,-0.103 0.239,-0.103Z" style="fill-rule:nonzero;"/>
        </g>
        <g transform="matrix(107.506,0,0,107.506,344.201,370.046)">
            <path d="M0.256,0.011C0.195,0.011 0.151,-0.007 0.124,-0.042C0.098,-0.078 0.084,-0.124 0.084,-0.181L0.084,-0.381L0.017,-0.381L0.017,-0.49L0.093,-0.496L0.11,-0.648L0.232,-0.648L0.232,-0.496L0.351,-0.496L0.351,-0.381L0.232,-0.381L0.232,-0.183C0.232,-0.155 0.238,-0.135 0.249,-0.123C0.261,-0.111 0.276,-0.104 0.296,-0.104C0.304,-0.104 0.312,-0.105 0.32,-0.106C0.328,-0.107 0.336,-0.109 0.343,-0.112L0.367,-0.009C0.354,-0.004 0.338,0.001 0.319,0.005C0.301,0.009 0.279,0.011 0.256,0.011Z" style="fill-rule:nonzero;"/>
        </g>
        <g transform="matrix(107.506,0,0,107.506,385.358,370.046)">
            <path d="M0.214,0.012C0.16,0.012 0.121,-0.006 0.097,-0.042C0.072,-0.077 0.06,-0.126 0.06,-0.188L0.06,-0.496L0.207,-0.496L0.207,-0.207C0.207,-0.171 0.212,-0.147 0.222,-0.133C0.232,-0.12 0.247,-0.113 0.269,-0.113C0.287,-0.113 0.303,-0.118 0.316,-0.126C0.329,-0.134 0.343,-0.148 0.357,-0.168L0.357,-0.496L0.504,-0.496L0.504,-0L0.384,-0L0.373,-0.069L0.37,-0.069C0.349,-0.044 0.326,-0.024 0.302,-0.01C0.277,0.005 0.248,0.012 0.214,0.012Z" style="fill-rule:nonzero;"/>
        </g>
        <g transform="matrix(107.506,0,0,107.506,446.456,370.046)">
            <path d="M0.065,-0L0.065,-0.496L0.185,-0.496L0.195,-0.409L0.199,-0.409C0.217,-0.443 0.239,-0.467 0.264,-0.484C0.289,-0.5 0.314,-0.508 0.34,-0.508C0.354,-0.508 0.366,-0.507 0.375,-0.506C0.384,-0.504 0.392,-0.502 0.399,-0.498L0.371,-0.373C0.363,-0.375 0.355,-0.377 0.348,-0.378C0.341,-0.379 0.332,-0.379 0.321,-0.379C0.302,-0.379 0.283,-0.372 0.262,-0.359C0.242,-0.345 0.225,-0.322 0.212,-0.288L0.212,-0L0.065,-0Z" style="fill-rule:nonzero;"/>
        </g>
        <g transform="matrix(107.506,0,0,107.506,486.264,370.046)">
            <path d="M0.19,0.012C0.16,0.012 0.133,0.005 0.111,-0.008C0.089,-0.021 0.072,-0.039 0.06,-0.062C0.048,-0.084 0.042,-0.11 0.042,-0.138C0.042,-0.191 0.064,-0.232 0.108,-0.261C0.152,-0.291 0.223,-0.31 0.321,-0.32C0.32,-0.335 0.317,-0.347 0.312,-0.357C0.306,-0.368 0.298,-0.376 0.286,-0.382C0.275,-0.387 0.261,-0.39 0.243,-0.39C0.222,-0.39 0.201,-0.386 0.18,-0.379C0.158,-0.372 0.136,-0.361 0.111,-0.347L0.059,-0.443C0.08,-0.456 0.102,-0.468 0.125,-0.477C0.148,-0.487 0.171,-0.495 0.196,-0.5C0.22,-0.505 0.245,-0.508 0.271,-0.508C0.314,-0.508 0.349,-0.5 0.378,-0.484C0.408,-0.467 0.43,-0.442 0.445,-0.409C0.461,-0.376 0.468,-0.334 0.468,-0.283L0.468,-0L0.348,-0L0.338,-0.051L0.334,-0.051C0.313,-0.032 0.29,-0.017 0.267,-0.006C0.244,0.006 0.218,0.012 0.19,0.012ZM0.239,-0.103C0.256,-0.103 0.271,-0.107 0.283,-0.114C0.296,-0.121 0.309,-0.131 0.321,-0.144L0.321,-0.228C0.286,-0.224 0.259,-0.218 0.239,-0.21C0.218,-0.202 0.204,-0.194 0.196,-0.183C0.187,-0.173 0.183,-0.162 0.183,-0.149C0.183,-0.134 0.188,-0.122 0.198,-0.115C0.209,-0.107 0.222,-0.103 0.239,-0.103Z" style="fill-rule:nonzero;"/>
        </g>
        <g transform="matrix(107.506,0,0,107.506,542.941,370.046)">
            <path d="M0.2,0.011C0.166,0.011 0.14,0.004 0.12,-0.009C0.1,-0.023 0.086,-0.042 0.078,-0.067C0.069,-0.092 0.065,-0.121 0.065,-0.155L0.065,-0.7L0.212,-0.7L0.212,-0.149C0.212,-0.133 0.214,-0.122 0.22,-0.116C0.226,-0.11 0.232,-0.108 0.239,-0.108C0.242,-0.108 0.244,-0.108 0.247,-0.108C0.249,-0.108 0.252,-0.109 0.256,-0.11L0.274,-0.001C0.266,0.002 0.256,0.005 0.244,0.008C0.231,0.01 0.217,0.011 0.2,0.011Z" style="fill-rule:nonzero;"/>
        </g>
        <g transform="matrix(107.506,0,0,107.506,573.7,370.046)">
        </g>
        <g transform="matrix(107.506,0,0,107.506,595.201,370.046)">
            <path d="M0.287,0.012C0.24,0.012 0.197,0.002 0.159,-0.019C0.121,-0.039 0.091,-0.069 0.069,-0.108C0.047,-0.146 0.036,-0.193 0.036,-0.248C0.036,-0.302 0.047,-0.348 0.069,-0.387C0.092,-0.426 0.121,-0.455 0.157,-0.476C0.193,-0.498 0.23,-0.508 0.27,-0.508C0.318,-0.508 0.357,-0.498 0.388,-0.477C0.419,-0.456 0.443,-0.427 0.458,-0.391C0.474,-0.355 0.481,-0.315 0.481,-0.27C0.481,-0.257 0.481,-0.245 0.479,-0.233C0.478,-0.221 0.476,-0.211 0.475,-0.203L0.15,-0.203L0.148,-0.305L0.355,-0.305C0.355,-0.331 0.348,-0.353 0.336,-0.37C0.323,-0.387 0.303,-0.395 0.273,-0.395C0.257,-0.395 0.242,-0.391 0.226,-0.382C0.211,-0.373 0.198,-0.358 0.188,-0.337C0.178,-0.316 0.173,-0.286 0.174,-0.248C0.175,-0.211 0.182,-0.181 0.195,-0.16C0.208,-0.139 0.224,-0.123 0.244,-0.115C0.264,-0.106 0.285,-0.101 0.307,-0.101C0.326,-0.101 0.345,-0.104 0.362,-0.109C0.38,-0.115 0.398,-0.123 0.415,-0.133L0.463,-0.043C0.438,-0.026 0.41,-0.012 0.379,-0.003C0.347,0.007 0.317,0.012 0.287,0.012Z" style="fill-rule:nonzero;"/>
        </g>
        <g transform="matrix(107.506,0,0,107.506,650.851,370.046)">
            <path d="M0.065,-0L0.065,-0.496L0.185,-0.496L0.195,-0.433L0.199,-0.433C0.22,-0.454 0.243,-0.471 0.269,-0.486C0.295,-0.501 0.325,-0.508 0.358,-0.508C0.413,-0.508 0.452,-0.49 0.476,-0.455C0.5,-0.419 0.512,-0.37 0.512,-0.308L0.512,-0L0.365,-0L0.365,-0.289C0.365,-0.325 0.36,-0.349 0.351,-0.363C0.341,-0.376 0.325,-0.383 0.304,-0.383C0.285,-0.383 0.269,-0.379 0.256,-0.37C0.243,-0.362 0.228,-0.35 0.212,-0.335L0.212,-0L0.065,-0Z" style="fill-rule:nonzero;"/>
        </g>
        <g transform="matrix(107.506,0,0,107.506,712.359,370.046)">
            <path d="M0.179,-0L0.012,-0.496L0.16,-0.496L0.224,-0.262C0.231,-0.238 0.237,-0.213 0.244,-0.187C0.25,-0.162 0.256,-0.136 0.263,-0.109L0.267,-0.109C0.273,-0.136 0.28,-0.162 0.286,-0.187C0.292,-0.213 0.299,-0.238 0.305,-0.262L0.37,-0.496L0.511,-0.496L0.349,-0L0.179,-0Z" style="fill-rule:nonzero;"/>
        </g>
        <g transform="matrix(107.506,0,0,107.506,768.534,370.046)">
            <path d="M0.065,-0L0.065,-0.496L0.212,-0.496L0.212,-0L0.065,-0ZM0.138,-0.569C0.113,-0.569 0.093,-0.576 0.078,-0.59C0.063,-0.604 0.055,-0.623 0.055,-0.646C0.055,-0.669 0.063,-0.688 0.078,-0.702C0.093,-0.716 0.113,-0.723 0.138,-0.723C0.163,-0.723 0.183,-0.716 0.198,-0.702C0.213,-0.688 0.221,-0.669 0.221,-0.646C0.221,-0.623 0.213,-0.604 0.198,-0.59C0.183,-0.576 0.163,-0.569 0.138,-0.569Z" style="fill-rule:nonzero;"/>
        </g>
        <g transform="matrix(107.506,0,0,107.506,798.246,370.046)">
            <path d="M0.065,-0L0.065,-0.496L0.185,-0.496L0.195,-0.409L0.199,-0.409C0.217,-0.443 0.239,-0.467 0.264,-0.484C0.289,-0.5 0.314,-0.508 0.34,-0.508C0.354,-0.508 0.366,-0.507 0.375,-0.506C0.384,-0.504 0.392,-0.502 0.399,-0.498L0.371,-0.373C0.363,-0.375 0.355,-0.377 0.348,-0.378C0.341,-0.379 0.332,-0.379 0.321,-0.379C0.302,-0.379 0.283,-0.372 0.262,-0.359C0.242,-0.345 0.225,-0.322 0.212,-0.288L0.212,-0L0.065,-0Z" style="fill-rule:nonzero;"/>
        </g>
        <g transform="matrix(107.506,0,0,107.506,839.989,370.046)">
            <path d="M0.278,0.012C0.236,0.012 0.196,0.002 0.16,-0.019C0.123,-0.039 0.093,-0.069 0.07,-0.108C0.047,-0.146 0.036,-0.193 0.036,-0.248C0.036,-0.303 0.047,-0.35 0.07,-0.389C0.093,-0.427 0.123,-0.457 0.16,-0.477C0.196,-0.498 0.236,-0.508 0.278,-0.508C0.319,-0.508 0.359,-0.498 0.395,-0.477C0.432,-0.457 0.462,-0.427 0.485,-0.389C0.508,-0.35 0.519,-0.303 0.519,-0.248C0.519,-0.193 0.508,-0.146 0.485,-0.108C0.462,-0.069 0.432,-0.039 0.395,-0.019C0.359,0.002 0.319,0.012 0.278,0.012ZM0.278,-0.107C0.298,-0.107 0.315,-0.112 0.328,-0.124C0.342,-0.135 0.352,-0.152 0.359,-0.173C0.365,-0.194 0.369,-0.219 0.369,-0.248C0.369,-0.277 0.365,-0.301 0.359,-0.323C0.352,-0.344 0.342,-0.361 0.328,-0.372C0.315,-0.384 0.298,-0.389 0.278,-0.389C0.257,-0.389 0.24,-0.384 0.227,-0.372C0.213,-0.361 0.203,-0.344 0.197,-0.323C0.19,-0.301 0.187,-0.277 0.187,-0.248C0.187,-0.219 0.19,-0.194 0.197,-0.173C0.203,-0.152 0.213,-0.135 0.227,-0.124C0.24,-0.112 0.257,-0.107 0.278,-0.107Z" style="fill-rule:nonzero;"/>
        </g>
        <g transform="matrix(107.506,0,0,107.506,899.663,370.046)">
            <path d="M0.065,-0L0.065,-0.496L0.185,-0.496L0.195,-0.433L0.199,-0.433C0.22,-0.454 0.243,-0.471 0.269,-0.486C0.295,-0.501 0.325,-0.508 0.358,-0.508C0.413,-0.508 0.452,-0.49 0.476,-0.455C0.5,-0.419 0.512,-0.37 0.512,-0.308L0.512,-0L0.365,-0L0.365,-0.289C0.365,-0.325 0.36,-0.349 0.351,-0.363C0.341,-0.376 0.325,-0.383 0.304,-0.383C0.285,-0.383 0.269,-0.379 0.256,-0.37C0.243,-0.362 0.228,-0.35 0.212,-0.335L0.212,-0L0.065,-0Z" style="fill-rule:nonzero;"/>
        </g>
        <g transform="matrix(107.506,0,0,107.506,961.171,370.046)">
            <path d="M0.065,-0L0.065,-0.496L0.185,-0.496L0.195,-0.432L0.199,-0.432C0.219,-0.453 0.241,-0.471 0.265,-0.486C0.289,-0.501 0.317,-0.508 0.349,-0.508C0.384,-0.508 0.413,-0.501 0.435,-0.486C0.457,-0.472 0.474,-0.451 0.486,-0.425C0.508,-0.448 0.531,-0.467 0.556,-0.484C0.581,-0.5 0.609,-0.508 0.642,-0.508C0.696,-0.508 0.735,-0.49 0.76,-0.455C0.785,-0.419 0.797,-0.37 0.797,-0.308L0.797,-0L0.65,-0L0.65,-0.289C0.65,-0.325 0.645,-0.349 0.635,-0.363C0.626,-0.376 0.61,-0.383 0.589,-0.383C0.576,-0.383 0.563,-0.379 0.549,-0.371C0.535,-0.364 0.52,-0.351 0.504,-0.335L0.504,-0L0.357,-0L0.357,-0.289C0.357,-0.325 0.352,-0.349 0.343,-0.363C0.333,-0.376 0.317,-0.383 0.296,-0.383C0.271,-0.383 0.242,-0.367 0.212,-0.335L0.212,-0L0.065,-0Z" style="fill-rule:nonzero;"/>
        </g>
        <g transform="matrix(107.506,0,0,107.506,1053.31,370.046)">
            <path d="M0.287,0.012C0.24,0.012 0.197,0.002 0.159,-0.019C0.121,-0.039 0.091,-0.069 0.069,-0.108C0.047,-0.146 0.036,-0.193 0.036,-0.248C0.036,-0.302 0.047,-0.348 0.069,-0.387C0.092,-0.426 0.121,-0.455 0.157,-0.476C0.193,-0.498 0.23,-0.508 0.27,-0.508C0.318,-0.508 0.357,-0.498 0.388,-0.477C0.419,-0.456 0.443,-0.427 0.458,-0.391C0.474,-0.355 0.481,-0.315 0.481,-0.27C0.481,-0.257 0.481,-0.245 0.479,-0.233C0.478,-0.221 0.476,-0.211 0.475,-0.203L0.15,-0.203L0.148,-0.305L0.355,-0.305C0.355,-0.331 0.348,-0.353 0.336,-0.37C0.323,-0.387 0.303,-0.395 0.273,-0.395C0.257,-0.395 0.242,-0.391 0.226,-0.382C0.211,-0.373 0.198,-0.358 0.188,-0.337C0.178,-0.316 0.173,-0.286 0.174,-0.248C0.175,-0.211 0.182,-0.181 0.195,-0.16C0.208,-0.139 0.224,-0.123 0.244,-0.115C0.264,-0.106 0.285,-0.101 0.307,-0.101C0.326,-0.101 0.345,-0.104 0.362,-0.109C0.38,-0.115 0.398,-0.123 0.415,-0.133L0.463,-0.043C0.438,-0.026 0.41,-0.012 0.379,-0.003C0.347,0.007 0.317,0.012 0.287,0.012Z" style="fill-rule:nonzero;"/>
        </g>
        <g transform="matrix(107.506,0,0,107.506,1108.96,370.046)">
            <path d="M0.065,-0L0.065,-0.496L0.185,-0.496L0.195,-0.433L0.199,-0.433C0.22,-0.454 0.243,-0.471 0.269,-0.486C0.295,-0.501 0.325,-0.508 0.358,-0.508C0.413,-0.508 0.452,-0.49 0.476,-0.455C0.5,-0.419 0.512,-0.37 0.512,-0.308L0.512,-0L0.365,-0L0.365,-0.289C0.365,-0.325 0.36,-0.349 0.351,-0.363C0.341,-0.376 0.325,-0.383 0.304,-0.383C0.285,-0.383 0.269,-0.379 0.256,-0.37C0.243,-0.362 0.228,-0.35 0.212,-0.335L0.212,-0L0.065,-0Z" style="fill-rule:nonzero;"/>
        </g>
        <g transform="matrix(107.506,0,0,107.506,1170.47,370.046)">
            <path d="M0.256,0.011C0.195,0.011 0.151,-0.007 0.124,-0.042C0.098,-0.078 0.084,-0.124 0.084,-0.181L0.084,-0.381L0.017,-0.381L0.017,-0.49L0.093,-0.496L0.11,-0.648L0.232,-0.648L0.232,-0.496L0.351,-0.496L0.351,-0.381L0.232,-0.381L0.232,-0.183C0.232,-0.155 0.238,-0.135 0.249,-0.123C0.261,-0.111 0.276,-0.104 0.296,-0.104C0.304,-0.104 0.312,-0.105 0.32,-0.106C0.328,-0.107 0.336,-0.109 0.343,-0.112L0.367,-0.009C0.354,-0.004 0.338,0.001 0.319,0.005C0.301,0.009 0.279,0.011 0.256,0.011Z" style="fill-rule:nonzero;"/>
        </g>
        <g transform="matrix(107.506,0,0,107.506,1212.06,370.046)">
            <path d="M0.15,-0.312C0.125,-0.312 0.103,-0.321 0.087,-0.339C0.07,-0.357 0.061,-0.379 0.061,-0.404C0.061,-0.431 0.07,-0.453 0.087,-0.471C0.103,-0.488 0.125,-0.497 0.15,-0.497C0.176,-0.497 0.197,-0.488 0.214,-0.471C0.231,-0.453 0.239,-0.431 0.239,-0.404C0.239,-0.379 0.231,-0.357 0.214,-0.339C0.197,-0.321 0.176,-0.312 0.15,-0.312ZM0.15,0.012C0.125,0.012 0.103,0.003 0.087,-0.015C0.07,-0.033 0.061,-0.055 0.061,-0.08C0.061,-0.107 0.07,-0.129 0.087,-0.147C0.103,-0.164 0.125,-0.173 0.15,-0.173C0.176,-0.173 0.197,-0.164 0.214,-0.147C0.231,-0.129 0.239,-0.107 0.239,-0.08C0.239,-0.055 0.231,-0.033 0.214,-0.015C0.197,0.003 0.176,0.012 0.15,0.012Z" style="fill-rule:nonzero;"/>
        </g>
        <g transform="matrix(107.506,0,0,107.506,1244.34,370.046)">
        </g>
    </g>
    <g transform="matrix(14.2719,0,0,14.2719,228.557,1182.39)">
        <g transform="matrix(1,0,0,1,-16,-16)">
            <g transform="matrix(1.33333,0,0,1.33333,0,0)">
                <path d="M7,21L7,18L1.825,18C1.425,18 1.133,17.825 0.95,17.475C0.767,17.125 0.783,16.783 1,16.45L3.85,12C3.467,12 3.179,11.829 2.988,11.488C2.797,11.147 2.817,10.809 3.05,10.475L8.175,3.175C8.375,2.892 8.65,2.75 9,2.75C9.35,2.75 9.625,2.892 9.825,3.175L12,6.3L14.175,3.175C14.375,2.892 14.65,2.75 15,2.75C15.35,2.75 15.625,2.892 15.825,3.175L20.95,10.475C21.183,10.808 21.204,11.146 21.013,11.488C20.822,11.83 20.534,12.001 20.15,12L23,16.45C23.217,16.783 23.233,17.125 23.05,17.475C22.867,17.825 22.575,18 22.175,18L17,18L17,21C17,21.283 16.904,21.521 16.712,21.713C16.52,21.905 16.283,22.001 16,22L14,22C13.717,22 13.479,21.904 13.288,21.712C13.097,21.52 13.001,21.283 13,21L13,18L11,18L11,21C11,21.283 10.904,21.521 10.712,21.713C10.52,21.905 10.283,22.001 10,22L8,22C7.717,22 7.479,21.904 7.288,21.712C7.097,21.52 7.001,21.283 7,21M16.725,16L20.35,16L16.475,10L18.15,10L15,5.5L13.225,8.025L14.95,10.475C15.183,10.808 15.204,11.146 15.013,11.488C14.822,11.83 14.534,12.001 14.15,12L16.725,16ZM3.65,16L14.35,16L10.475,10L12.15,10L9,5.5L5.85,10L7.525,10L3.65,16ZM3.65,16L7.525,16L5.85,16L12.15,16L10.475,16L14.35,16L3.65,16ZM20.35,16L14.15,16L16,16L13.225,16L18.15,16L16.475,16L20.35,16ZM13,18L17,18L13,18Z" style="fill-rule:nonzero;"/>
            </g>
        </g>
    </g>
</svg>
