<?xml version="1.0" encoding="UTF-8" standalone="no"?>
<!DOCTYPE svg PUBLIC "-//W3C//DTD SVG 1.1//EN" "http://www.w3.org/Graphics/SVG/1.1/DTD/svg11.dtd">
<svg width="100%" height="100%" viewBox="0 0 593 706" version="1.1" xmlns="http://www.w3.org/2000/svg" xmlns:xlink="http://www.w3.org/1999/xlink" xml:space="preserve" xmlns:serif="http://www.serif.com/" style="fill-rule:evenodd;clip-rule:evenodd;stroke-linecap:round;stroke-miterlimit:10;">
    <g transform="matrix(1,0,0,1,-1595.99,-1029.06)">
        <g transform="matrix(1,0,0,1,259.843,-47.2441)">
            <g transform="matrix(1,0,0,1,0,921.26)">
                <path d="M1653.54,236.22L1653.54,708.661" style="fill:none;"/>
                <g transform="matrix(1,-0,-0,1,1336.15,155.048)">
                    <path d="M329.893,99.565L317.393,87.065L304.893,99.565" style="fill:none;stroke:black;stroke-width:8.33px;"/>
                    <path d="M329.893,535.221L317.393,547.721L304.893,535.221" style="fill:none;stroke:black;stroke-width:8.33px;"/>
                    <path d="M317.393,87.065L317.393,547.721" style="fill:none;stroke:black;stroke-width:8.33px;stroke-linejoin:round;stroke-miterlimit:1.5;"/>
                </g>
            </g>
            <g transform="matrix(1,0,0,1,0,921.26)">
                <path d="M1771.65,307.087L1488.19,708.661" style="fill:none;"/>
                <path d="M1483.48,702.17C1491.51,691.032 1499.42,679.811 1507.45,668.673C1518.81,652.904 1530.23,637.174 1541.66,621.448L1771.57,307.024C1771.65,306.907 1771.82,307.029 1771.74,307.149L1552.46,629.071C1541.47,645.104 1530.47,661.134 1519.42,677.125C1511.61,688.42 1503.69,699.633 1495.88,710.927L1483.48,702.17Z"/>
            </g>
            <g transform="matrix(0.681293,0.451501,0.451501,0.360373,154.334,702.62)">
                <path d="M1771.65,307.087L1488.19,708.661" style="fill:none;"/>
                <g transform="matrix(8.64896,-10.836,-10.836,16.351,6172.18,-6696)">
                    <path d="M182.493,540.659C186.622,539.947 190.553,542.721 191.265,546.851C191.977,550.98 189.202,554.911 185.073,555.623L153.329,561.096C149.197,561.808 145.269,559.036 144.557,554.904L139.084,523.16C138.372,519.03 141.146,515.1 145.276,514.388C149.405,513.676 153.336,516.45 154.048,520.58L158.231,544.842L182.493,540.659Z"/>
                    <path d="M157.647,532.503C160.064,529.08 164.805,528.262 168.228,530.679C171.652,533.095 172.469,537.836 170.053,541.26L158.242,557.992C155.825,561.416 151.084,562.233 147.66,559.816C144.237,557.4 143.42,552.659 145.836,549.235L157.647,532.503Z"/>
                </g>
            </g>
            <g transform="matrix(0.681293,0.451501,0.451501,0.360373,425.988,317.777)">
                <path d="M1771.65,307.087L1488.19,708.661" style="fill:none;"/>
                <g transform="matrix(8.64896,-10.836,-10.836,16.351,-347.501,2540.22)">
                    <path d="M437.416,160.678C437.455,160.905 437.303,161.121 437.076,161.16C436.849,161.199 436.634,161.047 436.595,160.82L435.164,152.52L426.864,153.951C426.637,153.99 426.422,153.838 426.382,153.611C426.343,153.385 426.496,153.169 426.722,153.13L435.433,151.628C435.659,151.589 435.875,151.741 435.914,151.968L437.416,160.678Z"/>
                    <path d="M435.163,151.799C435.296,151.611 435.556,151.566 435.744,151.698C435.932,151.831 435.976,152.091 435.844,152.279L424.033,169.011C423.9,169.199 423.64,169.244 423.452,169.112C423.264,168.979 423.219,168.719 423.352,168.531L435.163,151.799Z"/>
                </g>
            </g>
            <g transform="matrix(1,0,0,1,0,921.26)">
                <path d="M1417.32,472.441L1889.76,472.441" style="fill:none;"/>
                <g transform="matrix(1,-0,-0,1,1336.15,155.048)">
                    <path d="M99.565,304.893L87.065,317.393L99.565,329.893" style="fill:none;stroke:black;stroke-width:8.33px;"/>
                    <path d="M535.221,304.893L547.721,317.393L535.221,329.893" style="fill:none;stroke:black;stroke-width:8.33px;"/>
                    <path d="M87.065,317.393L547.721,317.393" style="fill:none;stroke:black;stroke-width:8.33px;stroke-linejoin:round;stroke-miterlimit:1.5;"/>
                </g>
            </g>
        </g>
        <g transform="matrix(0.75,0,0,0.75,646.701,1136.86)">
            <circle cx="1653.54" cy="330.709" r="23.622"/>
        </g>
        <g transform="matrix(1.73386,0,0,1.73386,-1071.73,944.696)">
            <circle cx="1653.54" cy="330.709" r="23.622"/>
        </g>
        <g transform="matrix(-0.310727,0,0,-0.310727,2504.39,1341.01)">
            <circle cx="1653.54" cy="330.709" r="23.622"/>
        </g>
        <g transform="matrix(1,0,0,1,126.07,-17.1822)">
            <g transform="matrix(50,0,0,50,1483.85,1521.29)">
                <path d="M0.014,-0L0.173,-0.254L0.026,-0.486L0.115,-0.486L0.18,-0.379C0.188,-0.366 0.195,-0.353 0.204,-0.339C0.212,-0.326 0.22,-0.312 0.228,-0.299L0.232,-0.299C0.239,-0.312 0.247,-0.326 0.254,-0.339C0.261,-0.353 0.268,-0.366 0.276,-0.379L0.335,-0.486L0.421,-0.486L0.274,-0.245L0.432,-0L0.343,-0L0.272,-0.113C0.263,-0.128 0.255,-0.143 0.246,-0.157C0.237,-0.172 0.228,-0.186 0.219,-0.2L0.215,-0.2C0.207,-0.186 0.198,-0.172 0.19,-0.157C0.182,-0.143 0.174,-0.128 0.166,-0.113L0.1,-0L0.014,-0Z" style="fill-rule:nonzero;"/>
            </g>
            <g transform="matrix(50,0,0,50,1506.17,1521.29)">
            </g>
            <g transform="matrix(50,0,0,50,1516.17,1521.29)">
                <path d="M0.034,-0.406L0.034,-0.468L0.463,-0.468L0.463,-0.406L0.034,-0.406ZM0.034,-0.192L0.034,-0.254L0.463,-0.254L0.463,-0.192L0.034,-0.192Z" style="fill-rule:nonzero;"/>
            </g>
            <g transform="matrix(50,0,0,50,1541.02,1521.29)">
            </g>
            <g transform="matrix(50,0,0,50,1551.02,1521.29)">
                <path d="M0.249,0.012C0.185,0.012 0.135,-0.017 0.099,-0.074C0.062,-0.132 0.044,-0.214 0.044,-0.321C0.044,-0.428 0.062,-0.51 0.099,-0.566C0.135,-0.622 0.185,-0.65 0.249,-0.65C0.312,-0.65 0.362,-0.622 0.398,-0.566C0.435,-0.509 0.453,-0.428 0.453,-0.321C0.453,-0.214 0.435,-0.132 0.398,-0.074C0.362,-0.017 0.312,0.012 0.249,0.012ZM0.249,-0.054C0.273,-0.054 0.295,-0.063 0.314,-0.082C0.332,-0.1 0.347,-0.129 0.357,-0.169C0.368,-0.208 0.373,-0.259 0.373,-0.321C0.373,-0.384 0.368,-0.434 0.357,-0.473C0.347,-0.511 0.332,-0.539 0.314,-0.557C0.295,-0.575 0.273,-0.584 0.249,-0.584C0.224,-0.584 0.202,-0.575 0.183,-0.557C0.165,-0.539 0.15,-0.511 0.14,-0.473C0.129,-0.434 0.124,-0.384 0.124,-0.321C0.124,-0.259 0.129,-0.208 0.14,-0.169C0.15,-0.129 0.165,-0.1 0.183,-0.082C0.202,-0.063 0.224,-0.054 0.249,-0.054Z" style="fill-rule:nonzero;"/>
            </g>
            <g transform="matrix(50,0,0,50,1575.88,1521.29)">
            </g>
            <g transform="matrix(50,0,0,50,1483.85,1571.29)">
                <path d="M0.09,0.209C0.079,0.209 0.069,0.208 0.059,0.206C0.05,0.204 0.041,0.202 0.033,0.199L0.051,0.135C0.057,0.137 0.063,0.138 0.069,0.139C0.075,0.141 0.081,0.141 0.086,0.141C0.114,0.141 0.137,0.131 0.155,0.111C0.172,0.092 0.186,0.067 0.196,0.037L0.207,0.001L0.012,-0.486L0.097,-0.486L0.196,-0.217C0.204,-0.196 0.212,-0.174 0.22,-0.15C0.228,-0.126 0.236,-0.103 0.243,-0.08L0.247,-0.08C0.254,-0.102 0.261,-0.125 0.268,-0.149C0.275,-0.173 0.282,-0.196 0.288,-0.217L0.375,-0.486L0.455,-0.486L0.272,0.04C0.261,0.072 0.247,0.101 0.231,0.127C0.215,0.152 0.196,0.172 0.173,0.187C0.15,0.202 0.123,0.209 0.09,0.209Z" style="fill-rule:nonzero;"/>
            </g>
            <g transform="matrix(50,0,0,50,1507.22,1571.29)">
            </g>
            <g transform="matrix(50,0,0,50,1517.22,1571.29)">
                <path d="M0.034,-0.406L0.034,-0.468L0.463,-0.468L0.463,-0.406L0.034,-0.406ZM0.034,-0.192L0.034,-0.254L0.463,-0.254L0.463,-0.192L0.034,-0.192Z" style="fill-rule:nonzero;"/>
            </g>
            <g transform="matrix(50,0,0,50,1542.07,1571.29)">
            </g>
            <g transform="matrix(50,0,0,50,1552.07,1571.29)">
                <path d="M0.249,0.012C0.185,0.012 0.135,-0.017 0.099,-0.074C0.062,-0.132 0.044,-0.214 0.044,-0.321C0.044,-0.428 0.062,-0.51 0.099,-0.566C0.135,-0.622 0.185,-0.65 0.249,-0.65C0.312,-0.65 0.362,-0.622 0.398,-0.566C0.435,-0.509 0.453,-0.428 0.453,-0.321C0.453,-0.214 0.435,-0.132 0.398,-0.074C0.362,-0.017 0.312,0.012 0.249,0.012ZM0.249,-0.054C0.273,-0.054 0.295,-0.063 0.314,-0.082C0.332,-0.1 0.347,-0.129 0.357,-0.169C0.368,-0.208 0.373,-0.259 0.373,-0.321C0.373,-0.384 0.368,-0.434 0.357,-0.473C0.347,-0.511 0.332,-0.539 0.314,-0.557C0.295,-0.575 0.273,-0.584 0.249,-0.584C0.224,-0.584 0.202,-0.575 0.183,-0.557C0.165,-0.539 0.15,-0.511 0.14,-0.473C0.129,-0.434 0.124,-0.384 0.124,-0.321C0.124,-0.259 0.129,-0.208 0.14,-0.169C0.15,-0.129 0.165,-0.1 0.183,-0.082C0.202,-0.063 0.224,-0.054 0.249,-0.054Z" style="fill-rule:nonzero;"/>
            </g>
            <g transform="matrix(50,0,0,50,1576.92,1571.29)">
            </g>
        </g>
        <g transform="matrix(0.656518,0,0,0.656518,964.101,386.95)">
            <g transform="matrix(50,0,0,50,1483.85,1521.29)">
                <path d="M0.014,-0L0.173,-0.254L0.026,-0.486L0.115,-0.486L0.18,-0.379C0.188,-0.366 0.195,-0.353 0.204,-0.339C0.212,-0.326 0.22,-0.312 0.228,-0.299L0.232,-0.299C0.239,-0.312 0.247,-0.326 0.254,-0.339C0.261,-0.353 0.268,-0.366 0.276,-0.379L0.335,-0.486L0.421,-0.486L0.274,-0.245L0.432,-0L0.343,-0L0.272,-0.113C0.263,-0.128 0.255,-0.143 0.246,-0.157C0.237,-0.172 0.228,-0.186 0.219,-0.2L0.215,-0.2C0.207,-0.186 0.198,-0.172 0.19,-0.157C0.182,-0.143 0.174,-0.128 0.166,-0.113L0.1,-0L0.014,-0Z" style="fill-rule:nonzero;"/>
            </g>
            <g transform="matrix(50,0,0,50,1506.17,1521.29)">
            </g>
            <g transform="matrix(50,0,0,50,1516.17,1521.29)">
                <path d="M0.034,-0.406L0.034,-0.468L0.463,-0.468L0.463,-0.406L0.034,-0.406ZM0.034,-0.192L0.034,-0.254L0.463,-0.254L0.463,-0.192L0.034,-0.192Z" style="fill-rule:nonzero;"/>
            </g>
            <g transform="matrix(50,0,0,50,1541.02,1521.29)">
            </g>
            <g transform="matrix(50,0,0,50,1551.02,1521.29)">
                <path d="M0.249,0.012C0.185,0.012 0.135,-0.017 0.099,-0.074C0.062,-0.132 0.044,-0.214 0.044,-0.321C0.044,-0.428 0.062,-0.51 0.099,-0.566C0.135,-0.622 0.185,-0.65 0.249,-0.65C0.312,-0.65 0.362,-0.622 0.398,-0.566C0.435,-0.509 0.453,-0.428 0.453,-0.321C0.453,-0.214 0.435,-0.132 0.398,-0.074C0.362,-0.017 0.312,0.012 0.249,0.012ZM0.249,-0.054C0.273,-0.054 0.295,-0.063 0.314,-0.082C0.332,-0.1 0.347,-0.129 0.357,-0.169C0.368,-0.208 0.373,-0.259 0.373,-0.321C0.373,-0.384 0.368,-0.434 0.357,-0.473C0.347,-0.511 0.332,-0.539 0.314,-0.557C0.295,-0.575 0.273,-0.584 0.249,-0.584C0.224,-0.584 0.202,-0.575 0.183,-0.557C0.165,-0.539 0.15,-0.511 0.14,-0.473C0.129,-0.434 0.124,-0.384 0.124,-0.321C0.124,-0.259 0.129,-0.208 0.14,-0.169C0.15,-0.129 0.165,-0.1 0.183,-0.082C0.202,-0.063 0.224,-0.054 0.249,-0.054Z" style="fill-rule:nonzero;"/>
            </g>
            <g transform="matrix(50,0,0,50,1575.88,1521.29)">
            </g>
            <g transform="matrix(50,0,0,50,1483.85,1571.29)">
                <path d="M0.09,0.209C0.079,0.209 0.069,0.208 0.059,0.206C0.05,0.204 0.041,0.202 0.033,0.199L0.051,0.135C0.057,0.137 0.063,0.138 0.069,0.139C0.075,0.141 0.081,0.141 0.086,0.141C0.114,0.141 0.137,0.131 0.155,0.111C0.172,0.092 0.186,0.067 0.196,0.037L0.207,0.001L0.012,-0.486L0.097,-0.486L0.196,-0.217C0.204,-0.196 0.212,-0.174 0.22,-0.15C0.228,-0.126 0.236,-0.103 0.243,-0.08L0.247,-0.08C0.254,-0.102 0.261,-0.125 0.268,-0.149C0.275,-0.173 0.282,-0.196 0.288,-0.217L0.375,-0.486L0.455,-0.486L0.272,0.04C0.261,0.072 0.247,0.101 0.231,0.127C0.215,0.152 0.196,0.172 0.173,0.187C0.15,0.202 0.123,0.209 0.09,0.209Z" style="fill-rule:nonzero;"/>
            </g>
            <g transform="matrix(50,0,0,50,1507.22,1571.29)">
            </g>
            <g transform="matrix(50,0,0,50,1517.22,1571.29)">
                <path d="M0.034,-0.406L0.034,-0.468L0.463,-0.468L0.463,-0.406L0.034,-0.406ZM0.034,-0.192L0.034,-0.254L0.463,-0.254L0.463,-0.192L0.034,-0.192Z" style="fill-rule:nonzero;"/>
            </g>
            <g transform="matrix(50,0,0,50,1542.07,1571.29)">
            </g>
            <g transform="matrix(50,0,0,50,1552.07,1571.29)">
                <path d="M0.249,0.012C0.185,0.012 0.135,-0.017 0.099,-0.074C0.062,-0.132 0.044,-0.214 0.044,-0.321C0.044,-0.428 0.062,-0.51 0.099,-0.566C0.135,-0.622 0.185,-0.65 0.249,-0.65C0.312,-0.65 0.362,-0.622 0.398,-0.566C0.435,-0.509 0.453,-0.428 0.453,-0.321C0.453,-0.214 0.435,-0.132 0.398,-0.074C0.362,-0.017 0.312,0.012 0.249,0.012ZM0.249,-0.054C0.273,-0.054 0.295,-0.063 0.314,-0.082C0.332,-0.1 0.347,-0.129 0.357,-0.169C0.368,-0.208 0.373,-0.259 0.373,-0.321C0.373,-0.384 0.368,-0.434 0.357,-0.473C0.347,-0.511 0.332,-0.539 0.314,-0.557C0.295,-0.575 0.273,-0.584 0.249,-0.584C0.224,-0.584 0.202,-0.575 0.183,-0.557C0.165,-0.539 0.15,-0.511 0.14,-0.473C0.129,-0.434 0.124,-0.384 0.124,-0.321C0.124,-0.259 0.129,-0.208 0.14,-0.169C0.15,-0.129 0.165,-0.1 0.183,-0.082C0.202,-0.063 0.224,-0.054 0.249,-0.054Z" style="fill-rule:nonzero;"/>
            </g>
            <g transform="matrix(50,0,0,50,1576.92,1571.29)">
            </g>
        </g>
        <g transform="matrix(0.421508,0,0,0.421508,1391.36,591.12)">
            <g transform="matrix(50,0,0,50,1483.85,1521.29)">
                <path d="M0.014,-0L0.173,-0.254L0.026,-0.486L0.115,-0.486L0.18,-0.379C0.188,-0.366 0.195,-0.353 0.204,-0.339C0.212,-0.326 0.22,-0.312 0.228,-0.299L0.232,-0.299C0.239,-0.312 0.247,-0.326 0.254,-0.339C0.261,-0.353 0.268,-0.366 0.276,-0.379L0.335,-0.486L0.421,-0.486L0.274,-0.245L0.432,-0L0.343,-0L0.272,-0.113C0.263,-0.128 0.255,-0.143 0.246,-0.157C0.237,-0.172 0.228,-0.186 0.219,-0.2L0.215,-0.2C0.207,-0.186 0.198,-0.172 0.19,-0.157C0.182,-0.143 0.174,-0.128 0.166,-0.113L0.1,-0L0.014,-0Z" style="fill-rule:nonzero;"/>
            </g>
            <g transform="matrix(50,0,0,50,1506.17,1521.29)">
            </g>
            <g transform="matrix(50,0,0,50,1516.17,1521.29)">
                <path d="M0.034,-0.406L0.034,-0.468L0.463,-0.468L0.463,-0.406L0.034,-0.406ZM0.034,-0.192L0.034,-0.254L0.463,-0.254L0.463,-0.192L0.034,-0.192Z" style="fill-rule:nonzero;"/>
            </g>
            <g transform="matrix(50,0,0,50,1541.02,1521.29)">
            </g>
            <g transform="matrix(50,0,0,50,1551.02,1521.29)">
                <path d="M0.249,0.012C0.185,0.012 0.135,-0.017 0.099,-0.074C0.062,-0.132 0.044,-0.214 0.044,-0.321C0.044,-0.428 0.062,-0.51 0.099,-0.566C0.135,-0.622 0.185,-0.65 0.249,-0.65C0.312,-0.65 0.362,-0.622 0.398,-0.566C0.435,-0.509 0.453,-0.428 0.453,-0.321C0.453,-0.214 0.435,-0.132 0.398,-0.074C0.362,-0.017 0.312,0.012 0.249,0.012ZM0.249,-0.054C0.273,-0.054 0.295,-0.063 0.314,-0.082C0.332,-0.1 0.347,-0.129 0.357,-0.169C0.368,-0.208 0.373,-0.259 0.373,-0.321C0.373,-0.384 0.368,-0.434 0.357,-0.473C0.347,-0.511 0.332,-0.539 0.314,-0.557C0.295,-0.575 0.273,-0.584 0.249,-0.584C0.224,-0.584 0.202,-0.575 0.183,-0.557C0.165,-0.539 0.15,-0.511 0.14,-0.473C0.129,-0.434 0.124,-0.384 0.124,-0.321C0.124,-0.259 0.129,-0.208 0.14,-0.169C0.15,-0.129 0.165,-0.1 0.183,-0.082C0.202,-0.063 0.224,-0.054 0.249,-0.054Z" style="fill-rule:nonzero;"/>
            </g>
            <g transform="matrix(50,0,0,50,1575.88,1521.29)">
            </g>
            <g transform="matrix(50,0,0,50,1483.85,1571.29)">
                <path d="M0.09,0.209C0.079,0.209 0.069,0.208 0.059,0.206C0.05,0.204 0.041,0.202 0.033,0.199L0.051,0.135C0.057,0.137 0.063,0.138 0.069,0.139C0.075,0.141 0.081,0.141 0.086,0.141C0.114,0.141 0.137,0.131 0.155,0.111C0.172,0.092 0.186,0.067 0.196,0.037L0.207,0.001L0.012,-0.486L0.097,-0.486L0.196,-0.217C0.204,-0.196 0.212,-0.174 0.22,-0.15C0.228,-0.126 0.236,-0.103 0.243,-0.08L0.247,-0.08C0.254,-0.102 0.261,-0.125 0.268,-0.149C0.275,-0.173 0.282,-0.196 0.288,-0.217L0.375,-0.486L0.455,-0.486L0.272,0.04C0.261,0.072 0.247,0.101 0.231,0.127C0.215,0.152 0.196,0.172 0.173,0.187C0.15,0.202 0.123,0.209 0.09,0.209Z" style="fill-rule:nonzero;"/>
            </g>
            <g transform="matrix(50,0,0,50,1507.22,1571.29)">
            </g>
            <g transform="matrix(50,0,0,50,1517.22,1571.29)">
                <path d="M0.034,-0.406L0.034,-0.468L0.463,-0.468L0.463,-0.406L0.034,-0.406ZM0.034,-0.192L0.034,-0.254L0.463,-0.254L0.463,-0.192L0.034,-0.192Z" style="fill-rule:nonzero;"/>
            </g>
            <g transform="matrix(50,0,0,50,1542.07,1571.29)">
            </g>
            <g transform="matrix(50,0,0,50,1552.07,1571.29)">
                <path d="M0.249,0.012C0.185,0.012 0.135,-0.017 0.099,-0.074C0.062,-0.132 0.044,-0.214 0.044,-0.321C0.044,-0.428 0.062,-0.51 0.099,-0.566C0.135,-0.622 0.185,-0.65 0.249,-0.65C0.312,-0.65 0.362,-0.622 0.398,-0.566C0.435,-0.509 0.453,-0.428 0.453,-0.321C0.453,-0.214 0.435,-0.132 0.398,-0.074C0.362,-0.017 0.312,0.012 0.249,0.012ZM0.249,-0.054C0.273,-0.054 0.295,-0.063 0.314,-0.082C0.332,-0.1 0.347,-0.129 0.357,-0.169C0.368,-0.208 0.373,-0.259 0.373,-0.321C0.373,-0.384 0.368,-0.434 0.357,-0.473C0.347,-0.511 0.332,-0.539 0.314,-0.557C0.295,-0.575 0.273,-0.584 0.249,-0.584C0.224,-0.584 0.202,-0.575 0.183,-0.557C0.165,-0.539 0.15,-0.511 0.14,-0.473C0.129,-0.434 0.124,-0.384 0.124,-0.321C0.124,-0.259 0.129,-0.208 0.14,-0.169C0.15,-0.129 0.165,-0.1 0.183,-0.082C0.202,-0.063 0.224,-0.054 0.249,-0.054Z" style="fill-rule:nonzero;"/>
            </g>
            <g transform="matrix(50,0,0,50,1576.92,1571.29)">
            </g>
        </g>
    </g>
</svg>
