<?xml version="1.0" encoding="UTF-8" standalone="no"?>
<!DOCTYPE svg PUBLIC "-//W3C//DTD SVG 1.1//EN" "http://www.w3.org/Graphics/SVG/1.1/DTD/svg11.dtd">
<svg width="100%" height="100%" viewBox="0 0 593 706" version="1.1" xmlns="http://www.w3.org/2000/svg" xmlns:xlink="http://www.w3.org/1999/xlink" xml:space="preserve" xmlns:serif="http://www.serif.com/" style="fill-rule:evenodd;clip-rule:evenodd;stroke-linecap:round;stroke-miterlimit:10;">
    <g transform="matrix(1,0,0,1,-1335.33,-155.048)">
        <g>
            <path d="M1653.54,236.22L1653.54,708.661" style="fill:none;"/>
            <g transform="matrix(1,-0,-0,1,1335.33,155.048)">
                <path d="M330.718,99.565L318.218,87.065L305.718,99.565" style="fill:none;stroke:black;stroke-width:8.33px;"/>
                <path d="M330.718,535.221L318.218,547.721L305.718,535.221" style="fill:none;stroke:black;stroke-width:8.33px;"/>
                <path d="M318.218,87.065L318.218,547.721" style="fill:none;stroke:black;stroke-width:8.33px;stroke-linejoin:round;stroke-miterlimit:1.5;"/>
            </g>
        </g>
        <g>
            <path d="M1417.32,472.441L1889.76,472.441" style="fill:none;"/>
            <g transform="matrix(1,-0,-0,1,1335.33,155.048)">
                <path d="M100.39,304.893L87.89,317.393L100.39,329.893" style="fill:none;stroke:black;stroke-width:8.33px;"/>
                <path d="M536.045,304.893L548.545,317.393L536.045,329.893" style="fill:none;stroke:black;stroke-width:8.33px;"/>
                <path d="M87.89,317.393L548.545,317.393" style="fill:none;stroke:black;stroke-width:8.33px;stroke-linejoin:round;stroke-miterlimit:1.5;"/>
            </g>
        </g>
        <g transform="matrix(1,0,0,1,-426.822,-88.4101)">
            <g transform="matrix(50,0,0,50,2125.04,411.442)">
                <path d="M0.194,0.012C0.167,0.012 0.143,0.007 0.121,-0.004C0.1,-0.015 0.083,-0.031 0.07,-0.051C0.058,-0.072 0.051,-0.097 0.051,-0.126C0.051,-0.181 0.075,-0.222 0.123,-0.25C0.171,-0.278 0.247,-0.298 0.351,-0.309C0.351,-0.329 0.348,-0.349 0.342,-0.367C0.336,-0.385 0.326,-0.4 0.311,-0.412C0.297,-0.423 0.276,-0.429 0.25,-0.429C0.222,-0.429 0.196,-0.424 0.171,-0.413C0.146,-0.403 0.124,-0.392 0.105,-0.379L0.073,-0.435C0.088,-0.445 0.105,-0.455 0.125,-0.465C0.145,-0.475 0.166,-0.483 0.19,-0.489C0.213,-0.495 0.238,-0.498 0.264,-0.498C0.304,-0.498 0.336,-0.49 0.36,-0.473C0.385,-0.457 0.403,-0.434 0.415,-0.404C0.427,-0.374 0.433,-0.338 0.433,-0.298L0.433,-0L0.365,-0L0.358,-0.058L0.355,-0.058C0.331,-0.039 0.306,-0.022 0.28,-0.009C0.253,0.005 0.225,0.012 0.194,0.012ZM0.217,-0.056C0.241,-0.056 0.263,-0.062 0.284,-0.072C0.305,-0.083 0.327,-0.098 0.351,-0.119L0.351,-0.25C0.296,-0.244 0.253,-0.235 0.221,-0.224C0.189,-0.214 0.167,-0.201 0.153,-0.186C0.139,-0.17 0.132,-0.152 0.132,-0.132C0.132,-0.105 0.141,-0.085 0.157,-0.074C0.174,-0.062 0.194,-0.056 0.217,-0.056Z" style="fill-rule:nonzero;"/>
            </g>
            <g transform="matrix(50,0,0,50,2149.56,411.442)">
                <path d="M0.235,0.009C0.183,0.009 0.147,-0.006 0.127,-0.036C0.106,-0.066 0.096,-0.105 0.096,-0.153L0.096,-0.419L0.024,-0.419L0.024,-0.481L0.1,-0.486L0.11,-0.642L0.179,-0.642L0.179,-0.486L0.311,-0.486L0.311,-0.419L0.179,-0.419L0.179,-0.152C0.179,-0.122 0.184,-0.099 0.196,-0.083C0.207,-0.066 0.226,-0.058 0.254,-0.058C0.263,-0.058 0.272,-0.059 0.281,-0.061C0.29,-0.062 0.299,-0.066 0.309,-0.07L0.327,-0.012C0.314,-0.006 0.3,-0.001 0.284,0.003C0.268,0.007 0.252,0.009 0.235,0.009Z" style="fill-rule:nonzero;"/>
            </g>
            <g transform="matrix(50,0,0,50,2166.47,411.442)">
            </g>
            <g transform="matrix(50,0,0,50,2176.47,411.442)">
                <path d="M0.014,-0L0.173,-0.254L0.026,-0.486L0.115,-0.486L0.18,-0.379C0.188,-0.366 0.195,-0.353 0.204,-0.339C0.212,-0.326 0.22,-0.312 0.228,-0.299L0.232,-0.299C0.239,-0.312 0.247,-0.326 0.254,-0.339C0.261,-0.353 0.268,-0.366 0.276,-0.379L0.335,-0.486L0.421,-0.486L0.274,-0.245L0.432,-0L0.343,-0L0.272,-0.113C0.263,-0.128 0.255,-0.143 0.246,-0.157C0.237,-0.172 0.228,-0.186 0.219,-0.2L0.215,-0.2C0.207,-0.186 0.198,-0.172 0.19,-0.157C0.182,-0.143 0.174,-0.128 0.166,-0.113L0.1,-0L0.014,-0Z" style="fill-rule:nonzero;"/>
            </g>
            <g transform="matrix(50,0,0,50,2198.79,411.442)">
            </g>
            <g transform="matrix(50,0,0,50,2208.79,411.442)">
                <path d="M0.034,-0.406L0.034,-0.468L0.463,-0.468L0.463,-0.406L0.034,-0.406ZM0.034,-0.192L0.034,-0.254L0.463,-0.254L0.463,-0.192L0.034,-0.192Z" style="fill-rule:nonzero;"/>
            </g>
            <g transform="matrix(50,0,0,50,2233.64,411.442)">
            </g>
            <g transform="matrix(50,0,0,50,2243.64,411.442)">
                <path d="M0.249,0.012C0.185,0.012 0.135,-0.017 0.099,-0.074C0.062,-0.132 0.044,-0.214 0.044,-0.321C0.044,-0.428 0.062,-0.51 0.099,-0.566C0.135,-0.622 0.185,-0.65 0.249,-0.65C0.312,-0.65 0.362,-0.622 0.398,-0.566C0.435,-0.509 0.453,-0.428 0.453,-0.321C0.453,-0.214 0.435,-0.132 0.398,-0.074C0.362,-0.017 0.312,0.012 0.249,0.012ZM0.249,-0.054C0.273,-0.054 0.295,-0.063 0.314,-0.082C0.332,-0.1 0.347,-0.129 0.357,-0.169C0.368,-0.208 0.373,-0.259 0.373,-0.321C0.373,-0.384 0.368,-0.434 0.357,-0.473C0.347,-0.511 0.332,-0.539 0.314,-0.557C0.295,-0.575 0.273,-0.584 0.249,-0.584C0.224,-0.584 0.202,-0.575 0.183,-0.557C0.165,-0.539 0.15,-0.511 0.14,-0.473C0.129,-0.434 0.124,-0.384 0.124,-0.321C0.124,-0.259 0.129,-0.208 0.14,-0.169C0.15,-0.129 0.165,-0.1 0.183,-0.082C0.202,-0.063 0.224,-0.054 0.249,-0.054Z" style="fill-rule:nonzero;"/>
            </g>
            <g transform="matrix(50,0,0,50,2268.49,411.442)">
            </g>
        </g>
        <g transform="matrix(1,0,0,1,-425.657,-15.9842)">
            <g transform="matrix(50,0,0,50,2125.04,411.442)">
                <path d="M0.209,0.012C0.174,0.012 0.14,0.006 0.109,-0.007C0.077,-0.019 0.05,-0.036 0.028,-0.058L0.066,-0.106C0.087,-0.088 0.109,-0.075 0.132,-0.066C0.155,-0.057 0.182,-0.052 0.212,-0.052C0.244,-0.052 0.268,-0.06 0.284,-0.074C0.3,-0.089 0.308,-0.107 0.308,-0.128C0.308,-0.144 0.302,-0.158 0.292,-0.169C0.281,-0.18 0.267,-0.19 0.251,-0.197C0.234,-0.205 0.216,-0.212 0.198,-0.219C0.174,-0.228 0.151,-0.238 0.129,-0.25C0.107,-0.261 0.089,-0.276 0.076,-0.294C0.062,-0.311 0.055,-0.334 0.055,-0.36C0.055,-0.399 0.07,-0.432 0.099,-0.459C0.129,-0.485 0.17,-0.498 0.223,-0.498C0.253,-0.498 0.281,-0.493 0.307,-0.483C0.333,-0.473 0.355,-0.459 0.374,-0.443L0.336,-0.396C0.319,-0.408 0.301,-0.417 0.283,-0.424C0.265,-0.431 0.245,-0.434 0.223,-0.434C0.193,-0.434 0.17,-0.427 0.156,-0.413C0.141,-0.399 0.134,-0.383 0.134,-0.364C0.134,-0.349 0.138,-0.337 0.147,-0.327C0.156,-0.318 0.168,-0.309 0.184,-0.302C0.199,-0.295 0.217,-0.288 0.237,-0.281C0.262,-0.271 0.287,-0.261 0.31,-0.249C0.332,-0.238 0.351,-0.223 0.365,-0.205C0.38,-0.186 0.387,-0.162 0.387,-0.133C0.387,-0.106 0.38,-0.082 0.366,-0.06C0.353,-0.038 0.333,-0.021 0.306,-0.008C0.28,0.005 0.248,0.012 0.209,0.012Z" style="fill-rule:nonzero;"/>
            </g>
            <g transform="matrix(50,0,0,50,2145,411.442)">
                <path d="M0.235,0.009C0.183,0.009 0.147,-0.006 0.127,-0.036C0.106,-0.066 0.096,-0.105 0.096,-0.153L0.096,-0.419L0.024,-0.419L0.024,-0.481L0.1,-0.486L0.11,-0.642L0.179,-0.642L0.179,-0.486L0.311,-0.486L0.311,-0.419L0.179,-0.419L0.179,-0.152C0.179,-0.122 0.184,-0.099 0.196,-0.083C0.207,-0.066 0.226,-0.058 0.254,-0.058C0.263,-0.058 0.272,-0.059 0.281,-0.061C0.29,-0.062 0.299,-0.066 0.309,-0.07L0.327,-0.012C0.314,-0.006 0.3,-0.001 0.284,0.003C0.268,0.007 0.252,0.009 0.235,0.009Z" style="fill-rule:nonzero;"/>
            </g>
            <g transform="matrix(50,0,0,50,2161.91,411.442)">
                <path d="M0.082,-0L0.082,-0.486L0.164,-0.486L0.164,-0L0.082,-0ZM0.123,-0.586C0.107,-0.586 0.094,-0.591 0.084,-0.601C0.073,-0.611 0.068,-0.624 0.068,-0.64C0.068,-0.656 0.073,-0.669 0.084,-0.679C0.094,-0.689 0.107,-0.694 0.123,-0.694C0.139,-0.694 0.152,-0.689 0.163,-0.679C0.173,-0.669 0.178,-0.656 0.178,-0.64C0.178,-0.624 0.173,-0.611 0.163,-0.601C0.152,-0.591 0.139,-0.586 0.123,-0.586Z" style="fill-rule:nonzero;"/>
            </g>
            <g transform="matrix(50,0,0,50,2174.22,411.442)">
                <path d="M0.169,0.009C0.149,0.009 0.132,0.005 0.119,-0.003C0.106,-0.012 0.097,-0.024 0.091,-0.04C0.085,-0.057 0.082,-0.077 0.082,-0.1L0.082,-0.712L0.164,-0.712L0.164,-0.094C0.164,-0.081 0.166,-0.072 0.171,-0.067C0.176,-0.062 0.182,-0.059 0.188,-0.059C0.191,-0.059 0.193,-0.059 0.196,-0.06C0.198,-0.06 0.201,-0.061 0.205,-0.061L0.217,0.001C0.211,0.003 0.204,0.005 0.196,0.007C0.188,0.008 0.179,0.009 0.169,0.009Z" style="fill-rule:nonzero;"/>
            </g>
            <g transform="matrix(50,0,0,50,2186.98,411.442)">
                <path d="M0.169,0.009C0.149,0.009 0.132,0.005 0.119,-0.003C0.106,-0.012 0.097,-0.024 0.091,-0.04C0.085,-0.057 0.082,-0.077 0.082,-0.1L0.082,-0.712L0.164,-0.712L0.164,-0.094C0.164,-0.081 0.166,-0.072 0.171,-0.067C0.176,-0.062 0.182,-0.059 0.188,-0.059C0.191,-0.059 0.193,-0.059 0.196,-0.06C0.198,-0.06 0.201,-0.061 0.205,-0.061L0.217,0.001C0.211,0.003 0.204,0.005 0.196,0.007C0.188,0.008 0.179,0.009 0.169,0.009Z" style="fill-rule:nonzero;"/>
            </g>
            <g transform="matrix(50,0,0,50,2199.73,411.442)">
            </g>
            <g transform="matrix(50,0,0,50,2209.73,411.442)">
                <path d="M0.194,0.012C0.167,0.012 0.143,0.007 0.121,-0.004C0.1,-0.015 0.083,-0.031 0.07,-0.051C0.058,-0.072 0.051,-0.097 0.051,-0.126C0.051,-0.181 0.075,-0.222 0.123,-0.25C0.171,-0.278 0.247,-0.298 0.351,-0.309C0.351,-0.329 0.348,-0.349 0.342,-0.367C0.336,-0.385 0.326,-0.4 0.311,-0.412C0.297,-0.423 0.276,-0.429 0.25,-0.429C0.222,-0.429 0.196,-0.424 0.171,-0.413C0.146,-0.403 0.124,-0.392 0.105,-0.379L0.073,-0.435C0.088,-0.445 0.105,-0.455 0.125,-0.465C0.145,-0.475 0.166,-0.483 0.19,-0.489C0.213,-0.495 0.238,-0.498 0.264,-0.498C0.304,-0.498 0.336,-0.49 0.36,-0.473C0.385,-0.457 0.403,-0.434 0.415,-0.404C0.427,-0.374 0.433,-0.338 0.433,-0.298L0.433,-0L0.365,-0L0.358,-0.058L0.355,-0.058C0.331,-0.039 0.306,-0.022 0.28,-0.009C0.253,0.005 0.225,0.012 0.194,0.012ZM0.217,-0.056C0.241,-0.056 0.263,-0.062 0.284,-0.072C0.305,-0.083 0.327,-0.098 0.351,-0.119L0.351,-0.25C0.296,-0.244 0.253,-0.235 0.221,-0.224C0.189,-0.214 0.167,-0.201 0.153,-0.186C0.139,-0.17 0.132,-0.152 0.132,-0.132C0.132,-0.105 0.141,-0.085 0.157,-0.074C0.174,-0.062 0.194,-0.056 0.217,-0.056Z" style="fill-rule:nonzero;"/>
            </g>
            <g transform="matrix(50,0,0,50,2234.25,411.442)">
                <path d="M0.235,0.009C0.183,0.009 0.147,-0.006 0.127,-0.036C0.106,-0.066 0.096,-0.105 0.096,-0.153L0.096,-0.419L0.024,-0.419L0.024,-0.481L0.1,-0.486L0.11,-0.642L0.179,-0.642L0.179,-0.486L0.311,-0.486L0.311,-0.419L0.179,-0.419L0.179,-0.152C0.179,-0.122 0.184,-0.099 0.196,-0.083C0.207,-0.066 0.226,-0.058 0.254,-0.058C0.263,-0.058 0.272,-0.059 0.281,-0.061C0.29,-0.062 0.299,-0.066 0.309,-0.07L0.327,-0.012C0.314,-0.006 0.3,-0.001 0.284,0.003C0.268,0.007 0.252,0.009 0.235,0.009Z" style="fill-rule:nonzero;"/>
            </g>
            <g transform="matrix(50,0,0,50,2251.16,411.442)">
            </g>
            <g transform="matrix(50,0,0,50,2261.16,411.442)">
                <path d="M0.014,-0L0.173,-0.254L0.026,-0.486L0.115,-0.486L0.18,-0.379C0.188,-0.366 0.195,-0.353 0.204,-0.339C0.212,-0.326 0.22,-0.312 0.228,-0.299L0.232,-0.299C0.239,-0.312 0.247,-0.326 0.254,-0.339C0.261,-0.353 0.268,-0.366 0.276,-0.379L0.335,-0.486L0.421,-0.486L0.274,-0.245L0.432,-0L0.343,-0L0.272,-0.113C0.263,-0.128 0.255,-0.143 0.246,-0.157C0.237,-0.172 0.228,-0.186 0.219,-0.2L0.215,-0.2C0.207,-0.186 0.198,-0.172 0.19,-0.157C0.182,-0.143 0.174,-0.128 0.166,-0.113L0.1,-0L0.014,-0Z" style="fill-rule:nonzero;"/>
            </g>
            <g transform="matrix(50,0,0,50,2283.49,411.442)">
            </g>
            <g transform="matrix(50,0,0,50,2293.49,411.442)">
                <path d="M0.034,-0.406L0.034,-0.468L0.463,-0.468L0.463,-0.406L0.034,-0.406ZM0.034,-0.192L0.034,-0.254L0.463,-0.254L0.463,-0.192L0.034,-0.192Z" style="fill-rule:nonzero;"/>
            </g>
            <g transform="matrix(50,0,0,50,2318.34,411.442)">
            </g>
            <g transform="matrix(50,0,0,50,2328.34,411.442)">
                <path d="M0.249,0.012C0.185,0.012 0.135,-0.017 0.099,-0.074C0.062,-0.132 0.044,-0.214 0.044,-0.321C0.044,-0.428 0.062,-0.51 0.099,-0.566C0.135,-0.622 0.185,-0.65 0.249,-0.65C0.312,-0.65 0.362,-0.622 0.398,-0.566C0.435,-0.509 0.453,-0.428 0.453,-0.321C0.453,-0.214 0.435,-0.132 0.398,-0.074C0.362,-0.017 0.312,0.012 0.249,0.012ZM0.249,-0.054C0.273,-0.054 0.295,-0.063 0.314,-0.082C0.332,-0.1 0.347,-0.129 0.357,-0.169C0.368,-0.208 0.373,-0.259 0.373,-0.321C0.373,-0.384 0.368,-0.434 0.357,-0.473C0.347,-0.511 0.332,-0.539 0.314,-0.557C0.295,-0.575 0.273,-0.584 0.249,-0.584C0.224,-0.584 0.202,-0.575 0.183,-0.557C0.165,-0.539 0.15,-0.511 0.14,-0.473C0.129,-0.434 0.124,-0.384 0.124,-0.321C0.124,-0.259 0.129,-0.208 0.14,-0.169C0.15,-0.129 0.165,-0.1 0.183,-0.082C0.202,-0.063 0.224,-0.054 0.249,-0.054Z" style="fill-rule:nonzero;"/>
            </g>
            <g transform="matrix(50,0,0,50,2353.19,411.442)">
            </g>
        </g>
        <g transform="matrix(1,0,0,1,-425.657,206.063)">
            <g transform="matrix(50,0,0,50,2125.04,411.442)">
                <path d="M0.209,0.012C0.174,0.012 0.14,0.006 0.109,-0.007C0.077,-0.019 0.05,-0.036 0.028,-0.058L0.066,-0.106C0.087,-0.088 0.109,-0.075 0.132,-0.066C0.155,-0.057 0.182,-0.052 0.212,-0.052C0.244,-0.052 0.268,-0.06 0.284,-0.074C0.3,-0.089 0.308,-0.107 0.308,-0.128C0.308,-0.144 0.302,-0.158 0.292,-0.169C0.281,-0.18 0.267,-0.19 0.251,-0.197C0.234,-0.205 0.216,-0.212 0.198,-0.219C0.174,-0.228 0.151,-0.238 0.129,-0.25C0.107,-0.261 0.089,-0.276 0.076,-0.294C0.062,-0.311 0.055,-0.334 0.055,-0.36C0.055,-0.399 0.07,-0.432 0.099,-0.459C0.129,-0.485 0.17,-0.498 0.223,-0.498C0.253,-0.498 0.281,-0.493 0.307,-0.483C0.333,-0.473 0.355,-0.459 0.374,-0.443L0.336,-0.396C0.319,-0.408 0.301,-0.417 0.283,-0.424C0.265,-0.431 0.245,-0.434 0.223,-0.434C0.193,-0.434 0.17,-0.427 0.156,-0.413C0.141,-0.399 0.134,-0.383 0.134,-0.364C0.134,-0.349 0.138,-0.337 0.147,-0.327C0.156,-0.318 0.168,-0.309 0.184,-0.302C0.199,-0.295 0.217,-0.288 0.237,-0.281C0.262,-0.271 0.287,-0.261 0.31,-0.249C0.332,-0.238 0.351,-0.223 0.365,-0.205C0.38,-0.186 0.387,-0.162 0.387,-0.133C0.387,-0.106 0.38,-0.082 0.366,-0.06C0.353,-0.038 0.333,-0.021 0.306,-0.008C0.28,0.005 0.248,0.012 0.209,0.012Z" style="fill-rule:nonzero;"/>
            </g>
            <g transform="matrix(50,0,0,50,2145,411.442)">
                <path d="M0.235,0.009C0.183,0.009 0.147,-0.006 0.127,-0.036C0.106,-0.066 0.096,-0.105 0.096,-0.153L0.096,-0.419L0.024,-0.419L0.024,-0.481L0.1,-0.486L0.11,-0.642L0.179,-0.642L0.179,-0.486L0.311,-0.486L0.311,-0.419L0.179,-0.419L0.179,-0.152C0.179,-0.122 0.184,-0.099 0.196,-0.083C0.207,-0.066 0.226,-0.058 0.254,-0.058C0.263,-0.058 0.272,-0.059 0.281,-0.061C0.29,-0.062 0.299,-0.066 0.309,-0.07L0.327,-0.012C0.314,-0.006 0.3,-0.001 0.284,0.003C0.268,0.007 0.252,0.009 0.235,0.009Z" style="fill-rule:nonzero;"/>
            </g>
            <g transform="matrix(50,0,0,50,2161.91,411.442)">
                <path d="M0.082,-0L0.082,-0.486L0.164,-0.486L0.164,-0L0.082,-0ZM0.123,-0.586C0.107,-0.586 0.094,-0.591 0.084,-0.601C0.073,-0.611 0.068,-0.624 0.068,-0.64C0.068,-0.656 0.073,-0.669 0.084,-0.679C0.094,-0.689 0.107,-0.694 0.123,-0.694C0.139,-0.694 0.152,-0.689 0.163,-0.679C0.173,-0.669 0.178,-0.656 0.178,-0.64C0.178,-0.624 0.173,-0.611 0.163,-0.601C0.152,-0.591 0.139,-0.586 0.123,-0.586Z" style="fill-rule:nonzero;"/>
            </g>
            <g transform="matrix(50,0,0,50,2174.22,411.442)">
                <path d="M0.169,0.009C0.149,0.009 0.132,0.005 0.119,-0.003C0.106,-0.012 0.097,-0.024 0.091,-0.04C0.085,-0.057 0.082,-0.077 0.082,-0.1L0.082,-0.712L0.164,-0.712L0.164,-0.094C0.164,-0.081 0.166,-0.072 0.171,-0.067C0.176,-0.062 0.182,-0.059 0.188,-0.059C0.191,-0.059 0.193,-0.059 0.196,-0.06C0.198,-0.06 0.201,-0.061 0.205,-0.061L0.217,0.001C0.211,0.003 0.204,0.005 0.196,0.007C0.188,0.008 0.179,0.009 0.169,0.009Z" style="fill-rule:nonzero;"/>
            </g>
            <g transform="matrix(50,0,0,50,2186.98,411.442)">
                <path d="M0.169,0.009C0.149,0.009 0.132,0.005 0.119,-0.003C0.106,-0.012 0.097,-0.024 0.091,-0.04C0.085,-0.057 0.082,-0.077 0.082,-0.1L0.082,-0.712L0.164,-0.712L0.164,-0.094C0.164,-0.081 0.166,-0.072 0.171,-0.067C0.176,-0.062 0.182,-0.059 0.188,-0.059C0.191,-0.059 0.193,-0.059 0.196,-0.06C0.198,-0.06 0.201,-0.061 0.205,-0.061L0.217,0.001C0.211,0.003 0.204,0.005 0.196,0.007C0.188,0.008 0.179,0.009 0.169,0.009Z" style="fill-rule:nonzero;"/>
            </g>
            <g transform="matrix(50,0,0,50,2199.73,411.442)">
            </g>
            <g transform="matrix(50,0,0,50,2209.73,411.442)">
                <path d="M0.194,0.012C0.167,0.012 0.143,0.007 0.121,-0.004C0.1,-0.015 0.083,-0.031 0.07,-0.051C0.058,-0.072 0.051,-0.097 0.051,-0.126C0.051,-0.181 0.075,-0.222 0.123,-0.25C0.171,-0.278 0.247,-0.298 0.351,-0.309C0.351,-0.329 0.348,-0.349 0.342,-0.367C0.336,-0.385 0.326,-0.4 0.311,-0.412C0.297,-0.423 0.276,-0.429 0.25,-0.429C0.222,-0.429 0.196,-0.424 0.171,-0.413C0.146,-0.403 0.124,-0.392 0.105,-0.379L0.073,-0.435C0.088,-0.445 0.105,-0.455 0.125,-0.465C0.145,-0.475 0.166,-0.483 0.19,-0.489C0.213,-0.495 0.238,-0.498 0.264,-0.498C0.304,-0.498 0.336,-0.49 0.36,-0.473C0.385,-0.457 0.403,-0.434 0.415,-0.404C0.427,-0.374 0.433,-0.338 0.433,-0.298L0.433,-0L0.365,-0L0.358,-0.058L0.355,-0.058C0.331,-0.039 0.306,-0.022 0.28,-0.009C0.253,0.005 0.225,0.012 0.194,0.012ZM0.217,-0.056C0.241,-0.056 0.263,-0.062 0.284,-0.072C0.305,-0.083 0.327,-0.098 0.351,-0.119L0.351,-0.25C0.296,-0.244 0.253,-0.235 0.221,-0.224C0.189,-0.214 0.167,-0.201 0.153,-0.186C0.139,-0.17 0.132,-0.152 0.132,-0.132C0.132,-0.105 0.141,-0.085 0.157,-0.074C0.174,-0.062 0.194,-0.056 0.217,-0.056Z" style="fill-rule:nonzero;"/>
            </g>
            <g transform="matrix(50,0,0,50,2234.25,411.442)">
                <path d="M0.235,0.009C0.183,0.009 0.147,-0.006 0.127,-0.036C0.106,-0.066 0.096,-0.105 0.096,-0.153L0.096,-0.419L0.024,-0.419L0.024,-0.481L0.1,-0.486L0.11,-0.642L0.179,-0.642L0.179,-0.486L0.311,-0.486L0.311,-0.419L0.179,-0.419L0.179,-0.152C0.179,-0.122 0.184,-0.099 0.196,-0.083C0.207,-0.066 0.226,-0.058 0.254,-0.058C0.263,-0.058 0.272,-0.059 0.281,-0.061C0.29,-0.062 0.299,-0.066 0.309,-0.07L0.327,-0.012C0.314,-0.006 0.3,-0.001 0.284,0.003C0.268,0.007 0.252,0.009 0.235,0.009Z" style="fill-rule:nonzero;"/>
            </g>
            <g transform="matrix(50,0,0,50,2251.16,411.442)">
            </g>
            <g transform="matrix(50,0,0,50,2261.16,411.442)">
                <path d="M0.014,-0L0.173,-0.254L0.026,-0.486L0.115,-0.486L0.18,-0.379C0.188,-0.366 0.195,-0.353 0.204,-0.339C0.212,-0.326 0.22,-0.312 0.228,-0.299L0.232,-0.299C0.239,-0.312 0.247,-0.326 0.254,-0.339C0.261,-0.353 0.268,-0.366 0.276,-0.379L0.335,-0.486L0.421,-0.486L0.274,-0.245L0.432,-0L0.343,-0L0.272,-0.113C0.263,-0.128 0.255,-0.143 0.246,-0.157C0.237,-0.172 0.228,-0.186 0.219,-0.2L0.215,-0.2C0.207,-0.186 0.198,-0.172 0.19,-0.157C0.182,-0.143 0.174,-0.128 0.166,-0.113L0.1,-0L0.014,-0Z" style="fill-rule:nonzero;"/>
            </g>
            <g transform="matrix(50,0,0,50,2283.49,411.442)">
            </g>
            <g transform="matrix(50,0,0,50,2293.49,411.442)">
                <path d="M0.034,-0.406L0.034,-0.468L0.463,-0.468L0.463,-0.406L0.034,-0.406ZM0.034,-0.192L0.034,-0.254L0.463,-0.254L0.463,-0.192L0.034,-0.192Z" style="fill-rule:nonzero;"/>
            </g>
            <g transform="matrix(50,0,0,50,2318.34,411.442)">
            </g>
            <g transform="matrix(50,0,0,50,2328.34,411.442)">
                <path d="M0.249,0.012C0.185,0.012 0.135,-0.017 0.099,-0.074C0.062,-0.132 0.044,-0.214 0.044,-0.321C0.044,-0.428 0.062,-0.51 0.099,-0.566C0.135,-0.622 0.185,-0.65 0.249,-0.65C0.312,-0.65 0.362,-0.622 0.398,-0.566C0.435,-0.509 0.453,-0.428 0.453,-0.321C0.453,-0.214 0.435,-0.132 0.398,-0.074C0.362,-0.017 0.312,0.012 0.249,0.012ZM0.249,-0.054C0.273,-0.054 0.295,-0.063 0.314,-0.082C0.332,-0.1 0.347,-0.129 0.357,-0.169C0.368,-0.208 0.373,-0.259 0.373,-0.321C0.373,-0.384 0.368,-0.434 0.357,-0.473C0.347,-0.511 0.332,-0.539 0.314,-0.557C0.295,-0.575 0.273,-0.584 0.249,-0.584C0.224,-0.584 0.202,-0.575 0.183,-0.557C0.165,-0.539 0.15,-0.511 0.14,-0.473C0.129,-0.434 0.124,-0.384 0.124,-0.321C0.124,-0.259 0.129,-0.208 0.14,-0.169C0.15,-0.129 0.165,-0.1 0.183,-0.082C0.202,-0.063 0.224,-0.054 0.249,-0.054Z" style="fill-rule:nonzero;"/>
            </g>
            <g transform="matrix(50,0,0,50,2353.19,411.442)">
            </g>
        </g>
        <g transform="matrix(0.75,0,0,0.75,413.386,59.0551)">
            <circle cx="1653.54" cy="330.709" r="23.622"/>
        </g>
        <g transform="matrix(0.75,0,0,0.75,413.386,129.921)">
            <circle cx="1653.54" cy="330.709" r="23.622"/>
        </g>
        <g transform="matrix(0.75,0,0,0.75,413.386,351.969)">
            <circle cx="1653.54" cy="330.709" r="23.622"/>
        </g>
    </g>
</svg>
